<?xml version="1.0" encoding="UTF-8"?>
<svg id="Capa_2" xmlns="http://www.w3.org/2000/svg" viewBox="0 0 220.69 169.14">
  <defs>
    <style>
      .cls-1 {
        fill: #5f5c5d;
      }

      .cls-2 {
        fill: #fff;
      }

      .cls-3 {
        fill: #6f818c;
      }

      .cls-4 {
        fill: #95a1b3;
      }

      .cls-5 {
        fill: #b2b8c4;
      }

      .cls-6 {
        fill: #e27fa3;
      }
    </style>
  </defs>
  <g id="OBJECTS">
    <g>
      <g>
        <path class="cls-5" d="M176.19,4.7c-8.01-8.01-33.54,6.56-44.79,13.63-5.57-.93-12.74-1.31-20.96-1.27-8.22-.04-15.4.34-20.97,1.27-11.25-7.07-36.77-21.64-44.78-13.63-7.95,7.95,1.13,29.79,5.79,39.52-5.52,9.32-7.53,19.52-7.53,28.3,0,7.6.91,15.18,2.72,22.77,3.03,12.62,11.97,22.73,23.79,27.32-1.31,3.42-2.02,7.06-2.02,10.84,0,19.71,19.21,35.68,42.91,35.68s42.91-15.97,42.91-35.68c0-3.76-.7-7.38-2-10.78,11.88-4.56,20.89-14.71,23.93-27.38,1.82-7.59,2.72-15.18,2.72-22.77,0-8.78-2.01-18.98-7.53-28.3,4.65-9.72,13.74-31.57,5.79-39.53Z"/>
        <g>
          <path class="cls-4" d="M118.6,22.49c0,12.57-3.66,22.76-8.16,22.76s-8.17-10.19-8.17-22.76c0-1.72.07-3.4.2-5.01,5.31-.24,10.61-.24,15.92,0,.13,1.61.2,3.28.2,5Z"/>
          <g>
            <path class="cls-4" d="M101.07,18.36c0,12.57-3.65,22.76-8.16,22.76s-7.9-9.48-8.15-21.42c2.8-.73,5.7-1.25,8.67-1.55,2.54-.25,5.08-.45,7.63-.59,0,.27,0,.53,0,.8Z"/>
            <path class="cls-4" d="M136.1,19.59c-.23,11.99-3.79,21.53-8.15,21.53s-8.16-10.2-8.16-22.76c0-.27,0-.53,0-.8,2.92.15,5.84.39,8.76.7,2.57.27,5.08.72,7.53,1.33Z"/>
          </g>
        </g>
        <path class="cls-2" d="M166.8,24.05s1.3,2.95,1.51,6.25c.2,3.05-1.64,5.38-4.04,6.35-5.06-5.75-11.29-10.45-18.34-13.71.07-1.66.76-3.28,2.11-4.51,5.41-4.92,12.89-10.23,18.19-8.07,9.22,3.76.58,13.68.58,13.68Z"/>
        <path class="cls-2" d="M54.07,24.05s-1.3,2.95-1.51,6.25c-.2,3.05,1.64,5.38,4.04,6.35,5.06-5.75,11.29-10.45,18.34-13.71-.07-1.66-.76-3.28-2.11-4.51-5.41-4.92-12.89-10.23-18.19-8.07-9.22,3.76-.58,13.68-.58,13.68Z"/>
        <path class="cls-3" d="M177.87,3.02c-8.37-8.37-30,2.23-46.98,12.83-5.33-.81-12.17-1.2-20.44-1.16-8.28-.04-15.13.35-20.47,1.16C72.99,5.25,51.35-5.34,43,3.02c-8.5,8.5-.93,28.9,4.79,41.09-6.1,10.87-7.22,21.85-7.22,28.42,0,7.76.94,15.61,2.79,23.33,3.75,15.64,16.32,27.8,32.03,30.98.16.03.32.05.48.05,1.11,0,2.1-.78,2.33-1.91.26-1.29-.57-2.55-1.86-2.81-13.9-2.81-25.02-13.58-28.34-27.43-1.76-7.36-2.66-14.83-2.66-22.22,0-8.17,1.87-23.75,14.37-36.38.93-.93.92-2.44-.02-3.37-.93-.92-2.44-.92-3.37.02-2.09,2.11-3.9,4.29-5.48,6.5-7.24-16.29-8.93-28.45-4.46-32.92,4.3-4.3,18.22-.1,36.88,10.94-3.25.96-6.37,2.11-9.28,3.42-1.2.54-1.73,1.95-1.2,3.15.4.88,1.26,1.41,2.17,1.41.33,0,.66-.07.98-.21,2.96-1.33,6.16-2.49,9.5-3.44,5.32-1.51,13.74-2.25,25.03-2.2,11.27-.06,19.69.69,25.01,2.2,3.35.95,6.54,2.11,9.5,3.44,1.2.54,2.61,0,3.15-1.19.54-1.2,0-2.61-1.19-3.15-2.91-1.31-6.03-2.45-9.29-3.42,18.65-11.05,32.57-15.25,36.88-10.94,4.46,4.46,2.77,16.62-4.46,32.92-1.58-2.21-3.39-4.4-5.48-6.5-.93-.94-2.43-.94-3.37-.02-.93.93-.94,2.43-.02,3.37,12.5,12.63,14.37,28.21,14.37,36.38,0,7.38-.89,14.86-2.66,22.22-3.32,13.85-14.45,24.61-28.34,27.43-1.29.26-2.12,1.52-1.86,2.81.23,1.13,1.22,1.91,2.33,1.91.16,0,.32-.02.48-.05,15.7-3.18,28.28-15.34,32.03-30.98,1.85-7.72,2.79-15.57,2.79-23.33,0-6.57-1.12-17.55-7.22-28.42,5.7-12.19,13.26-32.61,4.78-41.09Z"/>
        <g>
          <path class="cls-1" d="M146.61,70.3c0-5-3.39-9.05-7.57-9.05s-7.57,4.05-7.57,9.05,3.39,9.05,7.57,9.05,7.57-4.05,7.57-9.05Z"/>
          <path class="cls-1" d="M89.41,70.3c0-5-3.39-9.05-7.57-9.05s-7.57,4.05-7.57,9.05,3.39,9.05,7.57,9.05,7.57-4.05,7.57-9.05Z"/>
        </g>
        <g>
          <g>
            <path class="cls-4" d="M158.2,85.14h-11.96c-1.32,0-2.38-1.07-2.38-2.38s1.07-2.38,2.38-2.38h11.96c1.32,0,2.38,1.07,2.38,2.38s-1.07,2.38-2.38,2.38Z"/>
            <path class="cls-4" d="M156.02,96.38c-.27,0-.55-.05-.83-.15l-9.79-3.62c-1.23-.46-1.86-1.83-1.41-3.06.46-1.23,1.83-1.86,3.06-1.41l9.79,3.62c1.23.46,1.86,1.83,1.41,3.06-.36.96-1.27,1.56-2.23,1.56Z"/>
          </g>
          <g>
            <path class="cls-4" d="M74.64,85.14h-11.96c-1.32,0-2.38-1.07-2.38-2.38s1.07-2.38,2.38-2.38h11.96c1.32,0,2.38,1.07,2.38,2.38s-1.07,2.38-2.38,2.38Z"/>
            <path class="cls-4" d="M64.85,96.38c-.97,0-1.88-.59-2.23-1.56-.46-1.23.17-2.6,1.41-3.06l9.79-3.62c1.23-.46,2.6.17,3.06,1.41.46,1.23-.17,2.6-1.41,3.06l-9.79,3.62c-.27.1-.55.15-.83.15Z"/>
          </g>
        </g>
        <g>
          <path class="cls-2" d="M134.23,50.86h-6.28c-1.32,0-2.38-1.07-2.38-2.38s1.07-2.38,2.38-2.38h6.28c1.32,0,2.38,1.07,2.38,2.38s-1.07,2.38-2.38,2.38Z"/>
          <path class="cls-2" d="M92.92,50.86h-6.28c-1.32,0-2.38-1.07-2.38-2.38s1.07-2.38,2.38-2.38h6.28c1.32,0,2.38,1.07,2.38,2.38s-1.07,2.38-2.38,2.38Z"/>
        </g>
        <g>
          <path class="cls-3" d="M123.51,86.15c0,.48-.03.95-.08,1.43-.11,1.18-.32,2.33-.63,3.43-1.81,6.46-6.89,11.06-12.82,10.97-3.47-.07-6.59-1.72-8.9-4.4-.16-.18-.31-.37-.46-.56-2.3-2.94-3.69-6.93-3.61-11.32.14-8.86,6.1-9.95,13.41-9.82,7.32.13,13.23,1.42,13.08,10.28Z"/>
          <path class="cls-6" d="M122.81,91c-1.81,6.46-6.89,11.06-12.82,10.97-3.47-.07-6.59-1.72-8.9-4.4,1.34-5.93,5.55-10.47,10.99-11.09,4.04-.46,7.91,1.33,10.73,4.53Z"/>
          <path class="cls-3" d="M112.82,73.56v-2.91h.98c1.32,0,2.38-1.07,2.38-2.38s-1.07-2.38-2.38-2.38h-6.72c-1.32,0-2.38,1.07-2.38,2.38s1.07,2.38,2.38,2.38h.98v2.83c-5.42.12-13.24,1.49-13.42,12.17-.08,4.84,1.41,9.44,4.2,12.94,2.9,3.64,6.85,5.69,11.11,5.76.08,0,.16,0,.24,0,4.17,0,8.1-1.9,11.06-5.38,2.91-3.41,4.56-7.95,4.64-12.79.18-10.74-7.66-12.34-13.08-12.63ZM121.13,86.11c-.06,3.74-1.31,7.21-3.5,9.78-2.08,2.44-4.78,3.76-7.6,3.71-2.81-.05-5.47-1.46-7.46-3.96-2.11-2.64-3.23-6.16-3.17-9.89.1-5.66,2.48-7.49,10.1-7.49.29,0,.59,0,.89,0,8.33.14,10.84,1.98,10.73,7.86Z"/>
        </g>
      </g>
      <g>
        <path class="cls-5" d="M130.48,131.83c14.89-19.28,45.04-50.4,53.26-37.07,8.22,13.32-39.21,59.45-39.21,59.45l-14.05-22.38Z"/>
        <path class="cls-3" d="M144.53,156.59c-.62,0-1.24-.24-1.71-.72-.92-.94-.9-2.45.05-3.37.12-.11,11.91-11.61,22.53-24.56,18.55-22.62,17.59-29.86,16.31-31.93-.84-1.36-1.9-2-3.45-2.08-2.65-.13-9.04,1.39-22,13.19-7.78,7.08-16.71,16.87-23.89,26.16-.8,1.04-2.3,1.23-3.34.43-1.04-.8-1.23-2.3-.43-3.34,7.34-9.51,16.48-19.51,24.45-26.77,10.86-9.89,19.42-14.75,25.46-14.43,3.1.16,5.61,1.66,7.26,4.33,2.38,3.86,1.54,9.51-2.58,17.28-2.99,5.62-7.74,12.42-14.13,20.21-10.79,13.15-22.75,24.81-22.87,24.93-.46.45-1.06.67-1.66.67Z"/>
        <path class="cls-5" d="M89.12,131.83c-14.89-19.28-45.04-50.4-53.26-37.07-8.22,13.32,39.21,59.45,39.21,59.45l14.05-22.38Z"/>
        <path class="cls-3" d="M75.07,156.59c-.6,0-1.2-.22-1.66-.67-.12-.12-12.08-11.78-22.87-24.93-6.39-7.78-11.14-14.58-14.13-20.21-4.12-7.76-4.97-13.41-2.58-17.28,1.65-2.67,4.16-4.17,7.26-4.33,6.04-.32,14.6,4.54,25.46,14.43,7.97,7.26,17.11,17.27,24.45,26.77.8,1.04.61,2.54-.43,3.34-1.04.8-2.54.61-3.34-.43-7.18-9.3-16.11-19.08-23.89-26.16-12.96-11.8-19.34-13.34-22-13.19-1.55.08-2.62.72-3.45,2.08-1.28,2.07-2.24,9.32,16.31,31.93,10.62,12.95,22.41,24.45,22.53,24.56.94.92.96,2.43.05,3.37-.47.48-1.09.72-1.71.72Z"/>
      </g>
      <g>
        <g>
          <path class="cls-6" d="M192.9,63.61h0c-1.09-2.28-.35-5.01,1.75-6.41l15-10.04c2.57-1.72,6.06-.76,7.39,2.02l2.21,4.59c1.34,2.78-.1,6.1-3.04,7.03l-17.21,5.45c-2.41.76-5.01-.36-6.1-2.64Z"/>
          <g>
            <path class="cls-6" d="M192.6,75.82h0c.47-2.48,2.69-4.24,5.21-4.13l18.03.82c3.08.14,5.33,2.98,4.76,6.01l-.95,5.01c-.57,3.03-3.7,4.86-6.62,3.86l-17.09-5.82c-2.39-.81-3.82-3.26-3.35-5.74Z"/>
            <path class="cls-6" d="M183.17,56.22h0c2.23,1.18,4.99.55,6.48-1.49l10.63-14.59c1.82-2.5,1-6.02-1.72-7.47l-4.5-2.39c-2.73-1.45-6.1-.14-7.15,2.76l-6.13,16.98c-.86,2.38.16,5.02,2.39,6.2Z"/>
          </g>
        </g>
        <g>
          <path class="cls-6" d="M27.79,63.61h0c1.09-2.28.35-5.01-1.75-6.41l-15-10.04c-2.57-1.72-6.06-.76-7.39,2.02l-2.21,4.59c-1.34,2.78.1,6.1,3.04,7.03l17.21,5.45c2.41.76,5.01-.36,6.1-2.64Z"/>
          <g>
            <path class="cls-6" d="M28.09,75.82h0c-.47-2.48-2.69-4.24-5.21-4.13l-18.03.82c-3.08.14-5.33,2.98-4.76,6.01l.95,5.01c.57,3.03,3.7,4.86,6.62,3.86l17.09-5.82c2.39-.81,3.82-3.26,3.35-5.74Z"/>
            <path class="cls-6" d="M37.52,56.22h0c-2.23,1.18-4.99.55-6.48-1.49l-10.63-14.59c-1.82-2.5-1-6.02,1.72-7.47l4.5-2.39c2.73-1.45,6.1-.14,7.15,2.76l6.13,16.98c.86,2.38-.16,5.02-2.39,6.2Z"/>
          </g>
        </g>
      </g>
    </g>
  </g>
</svg>