<?xml version="1.0" encoding="UTF-8"?>
<svg id="Capa_2" xmlns="http://www.w3.org/2000/svg" viewBox="0 0 198.94 220.69">
  <defs>
    <style>
      .cls-1 {
        fill: #5f5c5d;
      }

      .cls-2 {
        fill: #f9cb71;
      }

      .cls-3 {
        fill: #fff;
      }

      .cls-4 {
        fill: #95a1b3;
      }

      .cls-5 {
        fill: #b2b8c4;
      }

      .cls-6 {
        fill: #ffffa1;
      }

      .cls-7 {
        fill: #70838e;
      }
    </style>
  </defs>
  <g id="OBJECTS">
    <g>
      <g>
        <path class="cls-5" d="M142.56,170.74c.57-.11,1.14-.22,1.7-.33,19.33-3.92,34.5-18.65,39.1-37.83,2.36-9.83,3.53-19.66,3.53-29.5,0-11.38-2.61-24.59-9.75-36.66,6.03-12.59,17.8-40.9,7.5-51.2-10.38-10.38-43.45,8.5-58.02,17.66-7.21-1.2-16.51-1.69-27.16-1.64-10.65-.05-19.95.44-27.16,1.64C57.74,23.71,24.67,4.84,14.29,15.21c-10.3,10.3,1.46,38.59,7.5,51.2-7.15,12.07-9.75,25.28-9.75,36.67,0,9.84,1.17,19.67,3.53,29.5,4.6,19.18,19.77,33.92,39.1,37.83.57.11,1.14.22,1.7.33-11.51,13.31-53.07,8.21-53.07,25.22,0,15.6,34.4,21.93,59.92,8.05,7.57,10.02,20.97,16.68,36.24,16.68s28.67-6.66,36.24-16.68c25.52,13.88,59.92,7.55,59.92-8.05,0-17.01-41.56-11.91-53.07-25.22Z"/>
        <g>
          <path class="cls-4" d="M110.04,38.25c0,16.29-4.74,23.33-10.57,23.33s-10.58-7.04-10.58-23.33c0-2.23.09-4.4.26-6.49,6.87-.31,13.75-.31,20.62.01.17,2.08.26,4.25.26,6.47Z"/>
          <g>
            <path class="cls-4" d="M87.34,32.9c0,16.28-4.73,29.49-10.57,29.49s-10.23-12.29-10.55-27.75c3.63-.95,7.38-1.62,11.23-2.01,3.29-.32,6.59-.59,9.88-.76.01.35.01.69.01,1.04Z"/>
            <path class="cls-4" d="M132.72,34.49c-.3,15.53-4.91,27.89-10.55,27.89s-10.57-13.21-10.57-29.49c0-.35,0-.69.01-1.04,3.78.2,7.57.51,11.35.91,3.33.35,6.59.94,9.75,1.72Z"/>
          </g>
        </g>
        <path class="cls-3" d="M172.48,40.27s1.68,3.82,1.96,8.1c.26,3.95-2.12,6.97-5.24,8.23-6.55-7.45-14.63-13.53-23.76-17.76.09-2.15.99-4.25,2.73-5.84,7.01-6.37,16.7-13.25,23.56-10.45,11.95,4.88.75,17.73.75,17.73Z"/>
        <path class="cls-3" d="M26.45,40.27s-1.68,3.82-1.96,8.1c-.26,3.95,2.12,6.97,5.24,8.23,6.55-7.45,14.63-13.53,23.76-17.76-.09-2.15-.99-4.25-2.73-5.84-7.01-6.37-16.7-13.25-23.56-10.45-11.95,4.88-.75,17.73-.75,17.73Z"/>
        <g>
          <g>
            <path class="cls-4" d="M161.34,119.64h-15.5c-1.83,0-3.31-1.48-3.31-3.31s1.48-3.31,3.31-3.31h15.5c1.83,0,3.31,1.48,3.31,3.31s-1.48,3.31-3.31,3.31Z"/>
            <path class="cls-4" d="M158.52,134.2c-.38,0-.77-.07-1.15-.21l-12.68-4.7c-1.72-.64-2.59-2.54-1.96-4.26.64-1.72,2.54-2.59,4.26-1.96l12.68,4.7c1.72.64,2.59,2.54,1.96,4.26-.49,1.34-1.76,2.16-3.11,2.16Z"/>
          </g>
          <g>
            <path class="cls-4" d="M53.1,119.64h-15.5c-1.83,0-3.31-1.48-3.31-3.31s1.48-3.31,3.31-3.31h15.5c1.83,0,3.31,1.48,3.31,3.31s-1.48,3.31-3.31,3.31Z"/>
            <path class="cls-4" d="M40.42,134.2c-1.35,0-2.61-.83-3.11-2.16-.64-1.72.24-3.62,1.96-4.26l12.68-4.7c1.71-.64,3.62.24,4.26,1.96.64,1.72-.24,3.62-1.96,4.26l-12.68,4.7c-.38.14-.77.21-1.15.21Z"/>
          </g>
        </g>
        <g>
          <path class="cls-3" d="M130.29,83.52h-8.13c-1.83,0-3.31-1.48-3.31-3.31s1.48-3.31,3.31-3.31h8.13c1.83,0,3.31,1.48,3.31,3.31s-1.48,3.31-3.31,3.31Z"/>
          <path class="cls-3" d="M76.78,83.52h-8.13c-1.83,0-3.31-1.48-3.31-3.31s1.48-3.31,3.31-3.31h8.13c1.83,0,3.31,1.48,3.31,3.31s-1.48,3.31-3.31,3.31Z"/>
        </g>
        <path class="cls-7" d="M116.73,100.94c-1.77-.45-3.58.63-4.02,2.41-.56,2.24-2.57,3.8-4.88,3.8-2.78,0-5.04-2.26-5.04-5.04v-1.24h1.04c1.83,0,3.31-1.48,3.31-3.31s-1.48-3.31-3.31-3.31h-8.7c-1.83,0-3.31,1.48-3.31,3.31s1.48,3.31,3.31,3.31h1.04v1.24c0,2.78-2.26,5.04-5.04,5.04-2.32,0-4.33-1.56-4.89-3.8-.45-1.78-2.24-2.85-4.02-2.41-1.78.45-2.85,2.25-2.41,4.02,1.3,5.19,5.96,8.82,11.32,8.82,3.27,0,6.23-1.35,8.35-3.53,2.12,2.18,5.08,3.53,8.36,3.53,5.36,0,10.01-3.62,11.31-8.82.45-1.77-.63-3.58-2.41-4.02Z"/>
        <g>
          <path class="cls-1" d="M137.95,100.87c-4.78,0-9.28-1.86-12.66-5.25-1.29-1.29-1.29-3.39,0-4.69,1.29-1.29,3.39-1.29,4.69,0,2.13,2.13,4.96,3.3,7.98,3.3s5.85-1.17,7.98-3.3c1.29-1.29,3.39-1.29,4.69,0,1.29,1.29,1.29,3.39,0,4.69-3.38,3.38-7.88,5.24-12.66,5.24Z"/>
          <path class="cls-1" d="M60.99,100.86c-4.59,0-9.17-1.75-12.66-5.24-1.29-1.29-1.29-3.39,0-4.69,1.29-1.29,3.39-1.29,4.69,0,4.4,4.4,11.56,4.4,15.95,0,1.29-1.29,3.39-1.29,4.69,0,1.29,1.29,1.29,3.39,0,4.69-3.49,3.49-8.08,5.24-12.66,5.24Z"/>
        </g>
      </g>
      <path class="cls-7" d="M170.14,177.9c-6.97-1.43-14.53-2.98-19.89-5.62,8.02-2.49,15.33-6.82,21.4-12.69,7.37-7.14,12.54-16.21,14.95-26.25,2.4-10.02,3.62-20.2,3.62-30.27,0-8.52-1.45-22.74-9.32-36.83,3.16-6.77,7.1-16.23,9.35-25.52,3.19-13.15,2.09-22.52-3.25-27.87-10.93-10.93-39.01,2.78-61.07,16.54-6.92-1.04-15.76-1.54-26.43-1.5-10.69-.04-19.54.46-26.47,1.5C50.95,15.65,22.86,1.95,11.95,12.86c-5.35,5.34-6.44,14.72-3.25,27.87,2.26,9.3,6.19,18.75,9.36,25.51-7.87,14.09-9.32,28.31-9.32,36.83,0,10.07,1.22,20.25,3.62,30.27,2.41,10.03,7.58,19.11,14.95,26.25,6.06,5.87,13.38,10.2,21.4,12.69-5.36,2.63-12.92,4.18-19.89,5.62-14.16,2.91-28.8,5.92-28.8,18.06,0,6.47,4.4,11.94,12.38,15.38,5.56,2.4,12.52,3.67,20,3.67,15,0,32.12-5.13,44.3-16.64,1.33-1.25,1.39-3.35.13-4.68-1.26-1.33-3.36-1.39-4.69-.13-7.56,7.14-18.06,12.11-29.59,13.99-10.09,1.65-20.39.79-27.54-2.29-3.12-1.35-8.37-4.34-8.37-9.29,0-6.27,9.31-8.65,23.5-11.57,10.47-2.15,21.21-4.36,27.38-10.06,3.6.67,7.22,1.26,10.8,1.76.15.02.31.03.46.03,1.63,0,3.05-1.2,3.28-2.86.25-1.81-1.01-3.49-2.83-3.74-4.6-.64-9.28-1.43-13.88-2.37-8.86-1.79-16.96-6.06-23.43-12.32-6.46-6.26-11-14.23-13.11-23.03-2.28-9.51-3.44-19.18-3.44-28.73,0-10.54,2.41-30.67,18.54-46.96,1.29-1.3,1.28-3.4-.02-4.69-1.3-1.29-3.4-1.28-4.69.02-2.61,2.64-4.89,5.36-6.89,8.13-2.62-5.96-5.44-13.27-7.17-20.41-2.57-10.59-2.05-18.07,1.5-21.62,3.38-3.38,11.85-2.58,23.85,2.23,8,3.21,16.29,7.66,23.17,11.71-4.04,1.22-7.91,2.66-11.54,4.29l2.72,6.04c3.82-1.72,7.95-3.22,12.28-4.45,6.87-1.95,17.77-2.91,32.36-2.84,14.59-.06,25.46.89,32.33,2.84,4.32,1.23,8.46,2.73,12.28,4.45l2.72-6.04c-3.63-1.63-7.5-3.07-11.54-4.3,6.88-4.05,15.16-8.49,23.17-11.7,12.01-4.82,20.48-5.61,23.86-2.23,5.68,5.68,3.53,21.19-5.66,42.03-2-2.77-4.28-5.49-6.89-8.13-1.29-1.3-3.39-1.31-4.69-.02-1.3,1.29-1.31,3.39-.02,4.69,16.13,16.3,18.54,36.42,18.54,46.96,0,9.55-1.16,19.21-3.44,28.73-2.11,8.81-6.65,16.77-13.11,23.03-6.47,6.27-14.57,10.53-23.43,12.32-4.57.92-9.2,1.71-13.77,2.35-1.81.25-3.08,1.93-2.83,3.74.23,1.66,1.65,2.86,3.28,2.86.15,0,.31-.01.46-.03,3.54-.49,7.12-1.08,10.68-1.74,6.17,5.7,16.91,7.91,27.38,10.06,14.2,2.92,23.5,5.3,23.5,11.57,0,4.94-5.25,7.94-8.37,9.29-7.15,3.08-17.45,3.94-27.54,2.29-11.53-1.88-22.03-6.84-29.59-13.99-1.33-1.26-3.43-1.2-4.69.13-1.25,1.33-1.2,3.43.13,4.68,12.18,11.51,29.29,16.64,44.3,16.64,7.48,0,14.44-1.28,20-3.67,7.98-3.44,12.38-8.9,12.38-15.38,0-12.14-14.64-15.15-28.8-18.06Z"/>
      <g>
        <path class="cls-6" d="M157.52,32.44c0,16.61-24.96,29.13-58.05,29.13s-58.05-12.52-58.05-29.13S66.37,3.31,99.47,3.31s58.05,12.52,58.05,29.13ZM135.62,32.44c0-4.09-13.73-11.6-36.15-11.6s-36.15,7.51-36.15,11.6,13.73,11.6,36.15,11.6,36.15-7.51,36.15-11.6Z"/>
        <g>
          <path class="cls-2" d="M142.39,8.69C131.22,3.09,115.98,0,99.47,0s-31.76,3.09-42.92,8.69c-11.89,5.97-18.44,14.4-18.44,23.76s6.55,17.79,18.44,23.76c11.17,5.6,26.41,8.69,42.92,8.69s31.75-3.09,42.92-8.69c11.89-5.97,18.44-14.4,18.44-23.76s-6.55-17.79-18.44-23.76ZM99.47,58.26c-30.69,0-54.74-11.34-54.74-25.82S68.78,6.63,99.47,6.63s54.74,11.34,54.74,25.82-24.04,25.82-54.74,25.82Z"/>
          <path class="cls-2" d="M141.9,25.2c-1.63-.82-3.63-.16-4.45,1.47-.19.39-.41.76-.65,1.12-5.43-5.83-20.56-10.26-37.33-10.26s-31.9,4.44-37.33,10.26c-.24-.36-.46-.73-.65-1.12-.82-1.64-2.81-2.29-4.45-1.47-1.64.82-2.29,2.81-1.47,4.45,1.84,3.67,4.7,6.13,7.97,8.75,0,0,.02.01.02.02,6.35,5.17,20.43,8.95,35.91,8.95s29.56-3.78,35.91-8.95c0,0,.02,0,.02-.02,3.27-2.62,6.13-5.09,7.97-8.75.82-1.64.16-3.63-1.47-4.45ZM99.47,40.73c-11.32,0-19.28-1.94-23.96-3.56-4.19-1.45-6.58-2.93-7.82-3.94,0,0,0,0,0,0,0,0,0,0-.01-.01-.37-.3-.64-.57-.82-.77.77-.88,3.18-2.82,8.66-4.73,4.68-1.62,12.64-3.56,23.96-3.56s19.28,1.94,23.96,3.56c5.49,1.9,7.89,3.85,8.66,4.73-.18.2-.45.47-.82.77,0,0,0,0-.01.01,0,0,0,0,0,0-1.24,1.01-3.63,2.49-7.82,3.94-4.68,1.62-12.64,3.56-23.96,3.56Z"/>
        </g>
      </g>
    </g>
  </g>
</svg>