<?xml version="1.0" encoding="UTF-8"?>
<svg id="Capa_2" xmlns="http://www.w3.org/2000/svg" viewBox="0 0 204.16 220.69">
  <defs>
    <style>
      .cls-1 {
        fill: #5f5c5d;
      }

      .cls-2 {
        fill: #fff;
      }

      .cls-3 {
        fill: #95a1b3;
      }

      .cls-4 {
        fill: #b2b8c4;
      }

      .cls-5 {
        fill: #e27fa3;
      }

      .cls-6 {
        fill: #70838e;
      }
    </style>
  </defs>
  <g id="OBJECTS">
    <g>
      <g>
        <path class="cls-4" d="M191.42,90.98c-2.09-11.19-7.09-23.71-16.33-34.27,3.61-13.5,9.99-43.51-2.04-51.75-12.12-8.3-41.18,16.35-53.83,28.04-7.31.15-16.55,1.37-27.02,3.38-10.49,1.91-19.54,4.11-26.42,6.61-16.02-6.33-52.02-18.82-60.32-6.7-8.24,12.03,8.53,37.7,16.79,48.98-4.81,13.19-4.95,26.67-2.85,37.86,1.81,9.68,4.77,19.14,8.9,28.37,6.53,14.61,19.36,25.07,34.5,28.66-.57,2-.86,4.06-.86,6.17,0,18.97,23.94,34.35,53.47,34.35s53.47-15.38,53.47-34.35c0-7.49-3.74-14.43-10.08-20.07,1.02-.4,2.04-.8,3.05-1.21,18.3-7.41,30.51-24.69,31.51-44.41.51-10.1-.14-19.99-1.95-29.67Z"/>
        <g>
          <path class="cls-3" d="M103.9,41.35c3,16.03.76,29.88-4.97,30.95-5.74,1.07-12.83-11.04-15.83-27.06-.41-2.2-.72-4.35-.94-6.43,6.7-1.57,13.46-2.83,20.29-3.78.55,2.02,1.04,4.14,1.45,6.32Z"/>
          <g>
            <path class="cls-3" d="M80.58,40.26c2.99,16.01.77,29.88-4.97,30.95-5.52,1.03-12.32-10.21-15.48-25.36,3.4-1.6,6.97-2.95,10.67-4.04,3.18-.92,6.37-1.79,9.58-2.57.08.34.14.67.2,1.02Z"/>
            <path class="cls-3" d="M125.52,33.48c2.56,15.33.29,28.34-5.25,29.38-5.74,1.07-12.82-11.05-15.82-27.07-.06-.34-.13-.67-.18-1.02,3.75-.5,7.54-.89,11.33-1.19,3.34-.27,6.65-.29,9.91-.1Z"/>
          </g>
        </g>
        <path class="cls-2" d="M165.7,31.85s2.36,3.45,3.41,7.6c.98,3.84-.8,7.25-3.64,9.06-7.81-6.12-16.88-10.62-26.64-13.1-.31-2.13.19-4.37,1.61-6.24,5.72-7.56,13.99-16.1,21.26-14.62,12.65,2.6,4,17.3,4,17.3Z"/>
        <path class="cls-2" d="M22.04,58.71s-.95,4.06-.44,8.32c.47,3.94,3.37,6.47,6.67,7.14,5.07-8.53,11.91-16,20.11-21.84-.48-2.09-1.75-4-3.76-5.24-8.07-4.98-18.87-9.96-25.1-5.95-10.86,7,2.52,17.57,2.52,17.57Z"/>
        <path class="cls-6" d="M194.63,90.38c-1.57-8.38-5.61-22.1-15.95-34.51,1.87-7.24,4-17.28,4.51-26.84.72-13.5-2.08-22.5-8.3-26.77-6.52-4.47-16.44-2.36-30.31,6.46-9.92,6.31-19.83,14.77-26.67,21.05-6.99.25-15.79,1.38-26.29,3.39-10.54,1.92-19.16,4.05-25.77,6.34C41.63,30.04,11.49,21.72,2.78,34.44c-4.26,6.22-3.61,15.63,1.93,27.96,3.93,8.74,9.55,17.32,13.91,23.39-5.16,15.31-3.97,29.57-2.41,37.94,1.85,9.9,4.92,19.69,9.12,29.1,4.21,9.42,10.96,17.39,19.51,23.05,8.57,5.67,18.54,8.75,28.84,8.91.02,0,.03,0,.05,0,1.78,0,3.23-1.43,3.26-3.21.03-1.8-1.41-3.28-3.21-3.31-9.05-.14-17.82-2.84-25.34-7.82-7.52-4.98-13.45-11.99-17.15-20.27-4-8.94-6.91-18.24-8.67-27.64-1.94-10.38-3.27-30.63,9.62-49.65,1.01-1.49.62-3.52-.87-4.53-1.49-1.01-3.52-.62-4.53.87-2.1,3.1-3.85,6.22-5.31,9.34C11.09,63.26,2.89,45.82,8.16,38.13c4.39-6.4,22.89-4.4,49.01,5.09-3.79,1.96-7.37,4.11-10.67,6.4-1.48,1.03-1.84,3.06-.82,4.54.63.91,1.65,1.4,2.68,1.4.64,0,1.29-.19,1.86-.58,3.45-2.4,7.24-4.63,11.27-6.64,6.41-3.19,16.94-6.13,31.33-8.75,14.34-2.75,25.22-3.81,32.34-3.15,4.48.42,8.82,1.13,12.9,2.12,1.75.43,3.51-.65,3.94-2.4.42-1.75-.65-3.51-2.4-3.94-3.91-.95-8.02-1.66-12.27-2.11,6.04-5.27,13.41-11.2,20.74-15.86,10.95-6.96,19.16-9.3,23.12-6.58,6.66,4.56,7.4,20.28,2.16,42.54-2.49-2.38-5.25-4.66-8.33-6.79-1.48-1.03-3.51-.66-4.54.82-1.03,1.48-.66,3.51.82,4.54,18.89,13.08,24.96,32.44,26.9,42.83,1.76,9.4,2.4,19.12,1.9,28.91-.46,9.06-3.46,17.74-8.67,25.1-5.22,7.36-12.41,13.05-20.81,16.45-1.67.68-2.47,2.58-1.8,4.25.51,1.27,1.73,2.04,3.02,2.04.41,0,.82-.08,1.22-.24,9.55-3.87,17.74-10.34,23.68-18.72,5.93-8.37,9.34-18.24,9.87-28.54.52-10.29-.15-20.53-2-30.43Z"/>
        <g>
          <g>
            <path class="cls-3" d="M155.08,123.42c-1.54,0-2.91-1.09-3.2-2.66-.33-1.77.84-3.47,2.61-3.8l15.24-2.85c1.77-.33,3.47.84,3.8,2.61.33,1.77-.84,3.47-2.61,3.8l-15.24,2.85c-.2.04-.4.06-.6.06Z"/>
            <path class="cls-3" d="M170.23,135.41c-.18,0-.37-.02-.56-.05l-13.34-2.29c-1.77-.3-2.97-1.99-2.66-3.77.3-1.77,1.99-2.97,3.77-2.66l13.34,2.29c1.77.3,2.97,1.99,2.66,3.77-.27,1.59-1.65,2.71-3.21,2.71Z"/>
          </g>
          <g>
            <path class="cls-3" d="M48.59,143.32c-1.54,0-2.91-1.09-3.2-2.66-.33-1.77.84-3.47,2.61-3.8l15.24-2.85c1.77-.33,3.47.84,3.8,2.61.33,1.77-.84,3.47-2.61,3.8l-15.24,2.85c-.2.04-.4.06-.6.06Z"/>
            <path class="cls-3" d="M54.05,157.12c-1.11,0-2.19-.57-2.8-1.59-.93-1.55-.42-3.55,1.12-4.47l11.61-6.95c1.54-.93,3.55-.42,4.47,1.12.93,1.55.42,3.55-1.12,4.47l-11.61,6.95c-.52.31-1.1.46-1.67.46Z"/>
          </g>
        </g>
        <g>
          <path class="cls-2" d="M126.06,97.15c-.89,0-1.78-.36-2.42-1.07-1.21-1.34-1.1-3.4.23-4.61l7.08-6.4c1.34-1.21,3.4-1.1,4.61.23,1.21,1.34,1.1,3.4-.23,4.61l-7.08,6.4c-.62.56-1.41.84-2.19.84Z"/>
          <path class="cls-2" d="M81.41,105.5c-.39,0-.78-.07-1.17-.22l-8.91-3.41c-1.68-.64-2.52-2.53-1.88-4.21.64-1.68,2.53-2.52,4.21-1.88l8.91,3.41c1.68.64,2.52,2.53,1.88,4.21-.5,1.3-1.73,2.1-3.05,2.1Z"/>
        </g>
        <g>
          <path class="cls-6" d="M136.37,134.1c.51,3.38-.04,6.08-1.42,8.29-3.23,5.21-11.12,7.65-20.72,9.57-9.75,1.96-18.24,3.51-23.19-.38-1.97-1.55-3.39-3.96-4.11-7.56-.42-2.13-.22-4.49.54-6.85.35-1.12.84-2.24,1.43-3.36,3.32-6.21,10.18-11.94,18.95-13.71,3.39-.67,6.78-.71,9.97-.22,5.06.76,9.62,2.79,12.98,5.5,3.06,2.47,5.1,5.53,5.58,8.7Z"/>
          <path class="cls-5" d="M130.06,143.31c-2.33,5.04-8.42,7.14-15.89,8.67-7.58,1.55-14.18,2.75-18.23-1.3.17-.58.37-1.16.59-1.73,2.36-6.02,7.51-11.45,14.33-12.85,2.63-.53,5.3-.42,7.82.19,4,.96,7.67,3.15,10.42,5.98.33.35.66.7.96,1.06Z"/>
          <path class="cls-6" d="M139.6,133.61c-.59-3.88-2.99-7.69-6.75-10.75h0c-3.92-3.17-9.08-5.37-14.54-6.19-2.59-.39-5.19-.46-7.77-.23l-.7-3.63,1.06-.2c1.77-.33,2.94-2.03,2.61-3.8-.33-1.77-2.03-2.94-3.8-2.61l-8.56,1.6c-1.77.33-2.94,2.03-2.61,3.8.29,1.57,1.66,2.66,3.2,2.66.2,0,.4-.02.6-.06l1.1-.2.71,3.69c-7.72,2.4-14.49,7.79-18.11,14.57-.68,1.27-1.24,2.59-1.67,3.91-.93,2.91-1.15,5.84-.63,8.48,1.43,7.13,5.53,11.27,12.18,12.31,1.21.19,2.47.27,3.8.27,4.35,0,9.36-.92,15.17-2.09,6.18-1.24,13.16-2.95,18.01-6.2,5.44-3.64,7.7-8.81,6.71-15.35ZM129.26,143.55c-3.92,2.63-10.43,4.17-15.66,5.22-6.93,1.39-12.56,2.41-16.68,1.76-2.87-.45-5.68-1.63-6.79-7.14-.31-1.55-.15-3.35.44-5.21.3-.94.71-1.89,1.21-2.82,2.51-4.71,8.22-10.34,16.7-12.04,1.65-.33,3.31-.49,4.98-.49,1.29,0,2.59.1,3.88.29,4.33.65,8.38,2.36,11.41,4.81,2.5,2.03,4.07,4.39,4.41,6.65.61,4.05-.55,6.73-3.89,8.96Z"/>
        </g>
        <g>
          <path class="cls-1" d="M60.29,129.9c-1.49,0-2.83-1.03-3.18-2.54-.4-1.76.7-3.5,2.46-3.9.34-.08,6.02-1.35,12.63-2.11-2.31-1.49-4.95-2.89-7.48-3.57-1.74-.47-2.77-2.25-2.31-3.99.47-1.74,2.26-2.77,3.99-2.31,8.22,2.2,16.57,9.87,16.92,10.2.99.91,1.31,2.34.82,3.6-.49,1.24-1.7,2.06-3.03,2.06,0,0-.02,0-.03,0-8.71-.06-19.96,2.46-20.08,2.49-.24.05-.48.08-.72.08Z"/>
          <path class="cls-1" d="M134.22,117.41c-.89,0-1.76-.37-2.39-1.05-.92-.99-1.13-2.44-.54-3.65.21-.43,5.23-10.6,12.1-15.62,1.45-1.06,3.49-.75,4.56.71,1.06,1.45.75,3.49-.71,4.56-2.11,1.54-4.07,3.81-5.68,6.03,6.43-1.68,12.19-2.55,12.54-2.6,1.78-.26,3.44.97,3.7,2.75.26,1.78-.97,3.44-2.75,3.7-.11.02-11.54,1.73-19.62,4.93-.39.16-.8.23-1.2.23Z"/>
        </g>
      </g>
      <path class="cls-4" d="M135.55,186.15c12.5-26.79,39.75-83.9,60.32-77.19,20.56,6.7-28.4,83.54-28.4,83.54l-31.92-6.34Z"/>
      <path class="cls-6" d="M167.46,195.75c-.6,0-1.21-.17-1.75-.51-1.52-.97-1.97-2.98-1-4.5,14.79-23.22,36.68-64.48,32.42-76.36-.45-1.26-1.13-1.95-2.28-2.33-7.19-2.34-17.37,6.21-29.44,24.72-11.34,17.4-21.86,39.93-26.91,50.75-.76,1.63-2.7,2.34-4.33,1.58-1.63-.76-2.34-2.7-1.58-4.33,5.12-10.96,15.76-33.77,27.36-51.56,14.25-21.86,26.33-30.81,36.92-27.36,3.06,1,5.27,3.18,6.4,6.33,3.01,8.39-1.62,24.37-14.14,48.87-8.95,17.51-18.82,33.04-18.92,33.19-.62.98-1.68,1.51-2.75,1.51Z"/>
      <path class="cls-4" d="M98.16,189.62c-19.68-22.06-62.21-68.91-79.97-56.58-17.77,12.33,51.23,71.84,51.23,71.84l28.75-15.26Z"/>
      <path class="cls-6" d="M69.41,208.14c-.75,0-1.51-.26-2.13-.79-.14-.12-14.06-12.15-27.67-26.35-19.04-19.86-28.07-33.84-27.6-42.74.18-3.33,1.66-6.06,4.31-7.9,9.15-6.35,23.29-1.26,43.23,15.58,16.22,13.7,32.98,32.48,41.03,41.51,1.2,1.34,1.08,3.41-.26,4.6-1.34,1.2-3.4,1.08-4.6-.26-7.95-8.92-24.5-27.47-40.37-40.87-16.89-14.26-29.09-19.52-35.31-15.21-.99.69-1.44,1.55-1.51,2.88-.66,12.61,32.17,45.83,53.01,63.81,1.36,1.18,1.52,3.24.34,4.6-.64.75-1.56,1.13-2.47,1.13Z"/>
    </g>
  </g>
</svg>