<?xml version="1.0" encoding="UTF-8"?>
<svg id="Capa_2" xmlns="http://www.w3.org/2000/svg" viewBox="0 0 202.56 220.69">
  <defs>
    <style>
      .cls-1 {
        fill: #f6608e;
      }

      .cls-2 {
        fill: #ffbf8c;
      }

      .cls-3 {
        fill: #ffcc6b;
      }

      .cls-4 {
        fill: #fff;
      }

      .cls-5 {
        fill: #678490;
      }

      .cls-6 {
        fill: #ff9d6f;
      }

      .cls-7 {
        fill: #4ecab3;
      }

      .cls-8 {
        fill: #00d4d7;
      }

      .cls-9 {
        fill: #fd80a6;
      }

      .cls-10 {
        fill: #b1b9c6;
      }

      .cls-11 {
        fill: #91a2b5;
      }

      .cls-12 {
        fill: #605c5d;
      }
    </style>
  </defs>
  <g id="OBJECTS">
    <g>
      <polygon class="cls-12" points="146.58 101.85 67.88 101.85 52.41 145.2 162.05 145.2 146.58 101.85"/>
      <g>
        <path class="cls-2" d="M149.82,51.6c-1.18.59-2.37,1.1-3.58,1.52-3.25,1.15-6.59,1.69-9.9,1.69-11.01,0-21.62-6.07-26.9-16.59l8.78-10.55,10.5-12.61,8.88-10.67c3.23-3.89,9.55-1.8,9.82,3.25l.93,16.99,1.47,26.96Z"/>
        <path class="cls-6" d="M136.37,57.17c-11.89,0-23.36-6.55-29.06-17.88-.42-.84-.31-1.86.3-2.59L135.77,2.87c2.1-2.53,5.47-3.49,8.59-2.46,3.12,1.03,5.25,3.82,5.43,7.1l2.4,43.96c.05.94-.46,1.83-1.31,2.25-4.66,2.34-9.63,3.45-14.52,3.45ZM112.28,38.52c7,12.21,22.17,17.24,35.08,11.61l-2.32-42.36c-.11-2.01-1.7-2.69-2.18-2.85-.48-.16-2.16-.56-3.45.99l-27.14,32.61Z"/>
      </g>
      <path class="cls-10" d="M74.19,145.2s-.39-.74-1-2.06c-2.93-6.33-4.88-13.06-5.89-19.96-1.89-12.97-4.89-40.81,3.47-44.75,10.95-5.17,80.07,9.74,87.92,18.97,7.84,9.23-19,47.8-19,47.8h-65.49Z"/>
      <path class="cls-1" d="M162.05,147.58H52.41c-.77,0-1.5-.38-1.94-1.01-.44-.63-.56-1.44-.3-2.17l15.47-43.35c.34-.95,1.23-1.58,2.24-1.58h78.7c1,0,1.9.63,2.24,1.58l15.47,43.35c.26.73.15,1.54-.3,2.17-.44.63-1.17,1.01-1.94,1.01ZM55.78,142.83h102.9l-13.77-38.6h-75.36l-13.77,38.6Z"/>
      <path class="cls-5" d="M140.2,156.76c-.53,0-1.06-.18-1.51-.54-1.01-.83-1.16-2.33-.33-3.34,8.26-10.07,15.4-18.76,24.21-19.24,5.14-.28,10.39,2.29,16.05,7.85,5.57,5.47,12.28,5.69,16.03,3.08,3.37-2.35,4.07-6.69,1.85-11.61-.54-1.2,0-2.6,1.19-3.14,1.2-.54,2.6,0,3.14,1.19,3.79,8.45.69,14.56-3.47,17.46-2.93,2.04-6.7,2.86-10.63,2.31-4.15-.58-8.11-2.62-11.44-5.9-4.65-4.57-8.73-6.69-12.47-6.5-6.72.36-13.24,8.31-20.79,17.51-.47.57-1.15.87-1.84.87Z"/>
      <g>
        <path class="cls-10" d="M181.61,41.7c-5.11-7.93-28.44-.55-38.82,3.23-4.36-1.73-10.14-3.3-16.83-4.71-6.68-1.47-12.59-2.42-17.28-2.65-7.91-7.73-26.12-24.06-34.04-18.95-7.87,5.07-4.31,24.43-2.23,33.16-6.12,6.61-9.55,14.55-11.09,21.7-1.33,6.18-1.93,12.51-1.78,19,.29,12.67,7.82,23.98,19.43,29.05,8.97,3.92,18.14,6.89,27.51,8.91,9.38,2.02,18.96,3.1,28.74,3.23,12.67.16,24.19-7.03,29.68-18.46,2.81-5.85,4.88-11.87,6.21-18.05,1.54-7.14,1.69-15.8-1.15-24.34,5.49-7.09,16.72-23.27,11.65-31.14Z"/>
        <g>
          <path class="cls-11" d="M131.64,46.05c-2.21,10.23-6.97,17.87-10.63,17.08-3.67-.79-4.85-9.72-2.65-19.95.3-1.4.65-2.75,1.04-4.04,4.36.74,8.67,1.67,12.95,2.8-.17,1.33-.41,2.71-.71,4.1Z"/>
          <g>
            <path class="cls-11" d="M118.11,39.62c-2.21,10.22-6.96,17.88-10.63,17.08-3.52-.76-4.76-9.1-2.87-18.86,2.41-.1,4.86-.02,7.32.26,2.11.24,4.21.52,6.31.86-.04.22-.09.43-.13.65Z"/>
            <path class="cls-11" d="M146.39,46.77c-2.29,9.71-6.87,16.85-10.41,16.08-3.67-.79-4.84-9.73-2.64-19.95.05-.22.09-.43.15-.65,2.35.64,4.68,1.35,7,2.11,2.04.67,4.01,1.48,5.89,2.4Z"/>
          </g>
        </g>
        <path class="cls-4" d="M170.58,55.78s.54,2.62.13,5.35c-.37,2.52-2.28,4.09-4.4,4.46-3.1-5.56-7.35-10.48-12.51-14.37.35-1.34,1.2-2.54,2.51-3.3,5.27-3.05,12.28-6.05,16.21-3.37,6.84,4.68-1.93,11.23-1.93,11.23Z"/>
        <path class="cls-4" d="M78.88,36s-1.57,2.17-2.33,4.82c-.7,2.45.39,4.67,2.17,5.88,5.12-3.79,11.02-6.52,17.33-7.93.24-1.36-.04-2.8-.92-4.04-3.54-4.95-8.69-10.58-13.38-9.76-8.16,1.44-2.87,11.03-2.87,11.03Z"/>
        <path class="cls-5" d="M183.6,40.41c-5.46-8.46-25-3.69-40.79,1.98-4.2-1.58-9.67-3.09-16.34-4.5-6.67-1.47-12.29-2.36-16.77-2.65-12.05-11.67-27.89-24.08-36.35-18.63-8.55,5.52-6.05,23.45-3.53,34.48-6.83,7.8-9.66,16.53-10.82,21.88-1.37,6.34-1.99,12.92-1.83,19.56.31,13.53,8.5,25.77,20.85,31.18.31.14.63.2.95.2.92,0,1.79-.53,2.18-1.42.53-1.2-.02-2.6-1.22-3.13-10.67-4.67-17.74-15.24-18-26.93-.14-6.26.44-12.47,1.73-18.45,1.42-6.58,5.64-18.82,17.9-26.82,1.1-.72,1.41-2.19.69-3.29-.72-1.1-2.19-1.41-3.29-.69-1.88,1.22-3.58,2.54-5.13,3.91-2.78-13.82-2.03-23.81,2.11-26.48,3.96-2.56,14.3,3.17,26.94,14.73-2.52.23-4.97.58-7.31,1.08-1.28.27-2.1,1.54-1.83,2.82.27,1.28,1.54,2.1,2.82,1.83,2.62-.56,5.41-.94,8.27-1.12,4.56-.29,11.5.58,20.64,2.6,9.14,1.93,15.82,4,19.85,6.14,2.54,1.35,4.92,2.85,7.08,4.44.42.31.92.46,1.41.46.73,0,1.45-.33,1.91-.97.78-1.06.55-2.54-.5-3.32-1.92-1.42-4.01-2.76-6.21-4,16.28-5.32,28.05-6.28,30.61-2.31,2.67,4.14-.76,13.54-8.99,25-.85-1.89-1.86-3.79-3.06-5.68-.71-1.11-2.17-1.43-3.28-.72-1.11.71-1.43,2.17-.73,3.28,7.88,12.35,6.67,25.23,5.25,31.82-1.29,5.98-3.32,11.87-6.03,17.52-5.07,10.54-15.86,17.25-27.51,17.11-1.32-.02-2.39,1.03-2.41,2.35-.02,1.31,1.03,2.39,2.35,2.41.15,0,.29,0,.44,0,13.32,0,25.62-7.74,31.42-19.81,2.87-5.98,5.03-12.23,6.39-18.57,1.16-5.35,2.17-14.47-.83-24.39,2.9-3.83,6.62-9.2,9.28-14.7,3.82-7.91,4.4-14.02,1.72-18.18Z"/>
        <g>
          <path class="cls-12" d="M146.29,83.49c-.17,0-.33-.02-.5-.05-1.28-.28-2.1-1.54-1.82-2.82.46-2.12-.89-4.21-3.01-4.66-2.12-.46-4.21.89-4.66,3.01-.28,1.28-1.54,2.1-2.82,1.82-1.28-.28-2.1-1.54-1.82-2.82,1.01-4.68,5.63-7.66,10.31-6.65,4.68,1.01,7.66,5.63,6.65,10.31-.24,1.11-1.22,1.87-2.32,1.87Z"/>
          <path class="cls-12" d="M99.76,73.45c-.17,0-.33-.02-.5-.05-1.28-.28-2.1-1.54-1.82-2.82.46-2.12-.89-4.21-3.01-4.66-2.12-.46-4.21.89-4.66,3.01-.28,1.28-1.54,2.1-2.82,1.82-1.28-.28-2.1-1.54-1.82-2.82,1.01-4.68,5.63-7.66,10.31-6.65,4.68,1.01,7.66,5.63,6.65,10.31-.24,1.11-1.22,1.87-2.32,1.87Z"/>
        </g>
        <g>
          <g>
            <path class="cls-11" d="M153.16,96.38c-.17,0-.33-.02-.5-.05l-9.73-2.1c-1.28-.28-2.1-1.54-1.82-2.82.28-1.28,1.54-2.1,2.82-1.82l9.73,2.1c1.28.28,2.1,1.54,1.82,2.82-.24,1.11-1.22,1.87-2.32,1.87Z"/>
            <path class="cls-11" d="M149.42,105.14c-.44,0-.88-.12-1.27-.37l-7.33-4.67c-1.11-.7-1.43-2.17-.73-3.28.71-1.11,2.17-1.43,3.28-.73l7.33,4.67c1.11.7,1.43,2.17.73,3.28-.45.71-1.22,1.1-2.01,1.1Z"/>
          </g>
          <g>
            <path class="cls-11" d="M85.2,81.71c-.17,0-.33-.02-.5-.05l-9.73-2.1c-1.28-.28-2.1-1.54-1.82-2.82.28-1.28,1.54-2.1,2.82-1.82l9.73,2.1c1.28.28,2.1,1.54,1.82,2.82-.24,1.11-1.22,1.87-2.32,1.87Z"/>
            <path class="cls-11" d="M75.26,89.13c-1.16,0-2.18-.85-2.35-2.04-.19-1.3.72-2.5,2.01-2.69l8.6-1.23c1.3-.19,2.5.72,2.69,2.01.19,1.3-.72,2.5-2.01,2.69l-8.6,1.23c-.11.02-.23.02-.34.02Z"/>
          </g>
        </g>
        <g>
          <path class="cls-4" d="M138.56,69.49c-.17,0-.33-.02-.5-.05l-5.1-1.1c-1.28-.28-2.1-1.54-1.82-2.82.28-1.28,1.54-2.1,2.82-1.82l5.1,1.1c1.28.28,2.1,1.54,1.82,2.82-.24,1.11-1.22,1.87-2.32,1.87Z"/>
          <path class="cls-4" d="M104.96,62.24c-.17,0-.33-.02-.5-.05l-5.1-1.1c-1.28-.28-2.1-1.54-1.82-2.82.28-1.28,1.54-2.1,2.82-1.82l5.1,1.1c1.28.28,2.1,1.54,1.82,2.82-.24,1.11-1.22,1.87-2.32,1.87Z"/>
        </g>
        <g>
          <path class="cls-5" d="M130.34,82.67c3.93.83,5.89,5.31,3.78,8.73-1.48,2.41-3.38,4.49-5.57,6.18-5.16,3.96-11.95,5.73-18.81,4.27-6.86-1.45-12.36-5.81-15.49-11.53-1.32-2.43-2.21-5.1-2.59-7.9-.54-3.98,3.06-7.29,6.99-6.46l31.69,6.7Z"/>
          <path class="cls-9" d="M128.56,97.58c-5.16,3.96-11.95,5.73-18.81,4.27-6.86-1.45-12.36-5.81-15.49-11.53,5.16-3.98,11.96-5.76,18.84-4.31,6.86,1.45,12.36,5.83,15.47,11.56Z"/>
        </g>
        <path class="cls-5" d="M136.68,85.16c-1.06-2.46-3.25-4.26-5.86-4.81l-12.58-2.66.29-1.06.56.12c.17.04.34.05.5.05,1.09,0,2.08-.76,2.32-1.87.28-1.28-.54-2.55-1.82-2.82l-5.47-1.18c-1.28-.28-2.55.54-2.82,1.82-.28,1.28.54,2.55,1.82,2.82l.26.06-.3,1.08-14.43-3.05c-2.62-.55-5.34.2-7.31,2.03-1.97,1.83-2.89,4.4-2.54,7.06,1.44,10.61,9.45,19.23,19.93,21.45,1.74.37,3.5.55,5.23.55,8.7,0,16.99-4.49,21.67-12.09,1.4-2.28,1.6-5.01.54-7.48ZM132.1,90.15c-4.56,7.42-13.35,11.19-21.87,9.39-8.52-1.8-15.03-8.81-16.2-17.44-.15-1.1.24-2.17,1.06-2.94.66-.61,1.49-.94,2.36-.94.24,0,.49.03.73.08l31.67,6.7c1.12.24,2.02.98,2.48,2.04.44,1.03.36,2.17-.22,3.12Z"/>
      </g>
      <path class="cls-10" d="M117.8,135.82s33.04-47.64,40.89-38.41c7.84,9.23-19,47.8-19,47.8l-21.88-9.39Z"/>
      <path class="cls-10" d="M92.17,130.29s-10.46-57.03-21.41-51.85c-8.35,3.95-5.36,31.78-3.47,44.75,1.01,6.9,2.96,13.63,5.89,19.96.61,1.31,1,2.06,1,2.06l17.98-14.92Z"/>
      <path class="cls-5" d="M74.19,147.58c-.85,0-1.67-.46-2.1-1.26-.02-.03-.43-.81-1.06-2.17-2.98-6.43-5.03-13.37-6.08-20.62-1.01-6.9-2.19-17.03-2.13-26.12.08-12.05,2.35-18.96,6.94-21.12,1.68-.79,3.47-.75,5.18.13,1.74.89,7.02,3.6,14.02,29.24,3.35,12.27,5.53,24.08,5.55,24.2.24,1.29-.62,2.53-1.91,2.77-1.29.23-2.53-.62-2.77-1.91-.02-.12-2.17-11.76-5.47-23.83-5.82-21.29-10.05-25.44-11.6-26.24-.45-.23-.7-.2-.99-.07-4.71,2.23-5.55,18.82-2.13,42.26.99,6.79,2.91,13.29,5.69,19.3.57,1.23.94,1.94.95,1.95.61,1.16.17,2.6-.99,3.21-.35.19-.73.28-1.11.28Z"/>
      <path class="cls-5" d="M139.68,147.58c-.47,0-.94-.14-1.35-.43-1.08-.75-1.34-2.23-.59-3.31.07-.1,6.71-9.68,12.31-20.23,6.69-12.61,9.24-21.83,6.83-24.67-.2-.24-.42-.37-.93-.35-1.74.09-7.32,2.12-21.41,19.14-7.98,9.64-14.72,19.34-14.79,19.43-.75,1.08-2.23,1.35-3.31.6-1.08-.75-1.35-2.23-.6-3.31.07-.1,6.92-9.96,15.04-19.76,16.95-20.47,22.88-20.76,24.83-20.85,1.93-.1,3.58.6,4.78,2.02,5.95,7-3.25,24.32-6.27,30.01-5.73,10.8-12.52,20.58-12.59,20.68-.46.66-1.2,1.02-1.95,1.02Z"/>
      <polygon class="cls-9" points="162.05 145.2 160.8 155.7 157.33 184.77 155.38 201.11 59.08 201.11 57.46 187.51 54.72 164.64 52.41 145.2 162.05 145.2"/>
      <polygon class="cls-4" points="99.76 145.2 57.46 187.51 54.72 164.64 74.16 145.2 99.76 145.2"/>
      <polygon class="cls-4" points="148.33 145.2 92.42 201.11 66.83 201.11 122.74 145.2 148.33 145.2"/>
      <polygon class="cls-4" points="160.8 155.7 157.33 184.77 140.99 201.11 115.4 201.11 160.8 155.7"/>
      <path class="cls-1" d="M155.38,203.48H59.08c-1.2,0-2.22-.9-2.36-2.09l-6.67-55.9c-.08-.67.13-1.35.58-1.86.45-.51,1.1-.8,1.78-.8h109.64c.68,0,1.33.29,1.78.8.45.51.66,1.18.58,1.86l-6.67,55.9c-.14,1.19-1.16,2.09-2.36,2.09ZM61.19,198.73h92.09l6.1-51.15H55.09l6.1,51.15Z"/>
      <g>
        <polygon class="cls-9" points="112.02 202.96 97.12 202.83 78.8 202.68 61.3 202.52 61.3 202.52 41.82 202.36 24.32 202.2 2.37 202.02 11.17 187.54 18.19 176 19.92 173.15 35.07 173.28 52.57 173.43 70.89 173.58 88.39 173.73 98.62 173.82 109.3 197.05 112.02 202.96"/>
        <polygon class="cls-4" points="41.82 202.36 24.32 202.2 11.17 187.54 18.19 176 41.82 202.36"/>
        <polygon class="cls-4" points="78.8 202.68 61.3 202.52 61.3 202.52 35.07 173.28 52.57 173.43 78.8 202.68"/>
        <polygon class="cls-4" points="112.02 202.96 97.12 202.83 70.89 173.58 88.39 173.73 109.3 197.05 112.02 202.96"/>
        <polygon class="cls-9" points="2.37 202.02 11.01 218.31 110.24 214.79 112.01 202.96 2.37 202.02"/>
        <path class="cls-1" d="M114.17,201.97l-13.39-29.14c-.38-.84-1.22-1.37-2.14-1.38l-78.7-.68c-.84.01-1.62.43-2.05,1.14L.34,200.78c-.44.72-.46,1.61-.07,2.34h0s8.64,16.3,8.64,16.3c.41.78,1.22,1.26,2.1,1.26.03,0,.06,0,.08,0l99.23-3.52c1.14-.04,2.1-.89,2.26-2.02l1.77-11.83h0c.07-.45,0-.92-.19-1.34ZM21.25,175.53l75.84.65,11.2,24.37-101.72-.87,14.67-24.14ZM12.42,215.89l-6.08-11.46,102.92.88-1.07,7.18-95.77,3.4Z"/>
      </g>
      <path class="cls-1" d="M29.75,34.7c-1.31,0-2.38-1.06-2.38-2.38s1.06-2.38,2.38-2.38c1.06,0,1.92-.86,1.92-1.92,0-1.31,1.06-2.38,2.38-2.38s2.38,1.06,2.38,2.38c0,3.68-2.99,6.67-6.67,6.67Z"/>
      <path class="cls-3" d="M19.97,81.56c-3.68,0-6.67-2.99-6.67-6.67,0-1.31,1.06-2.38,2.38-2.38s2.38,1.06,2.38,2.38c0,1.06.86,1.92,1.92,1.92,1.31,0,2.38,1.06,2.38,2.38s-1.06,2.38-2.38,2.38Z"/>
      <path class="cls-7" d="M179.42,117.96c-3.68,0-6.67-2.99-6.67-6.67,0-1.31,1.06-2.38,2.38-2.38s2.38,1.06,2.38,2.38c0,1.06.86,1.92,1.92,1.92,1.31,0,2.38,1.06,2.38,2.38s-1.06,2.38-2.38,2.38Z"/>
      <path class="cls-8" d="M34.79,132.32s-.06,0-.09,0c-1.31-.05-2.33-1.15-2.28-2.47.07-1.78.83-3.43,2.14-4.64,1.31-1.21,3.01-1.84,4.79-1.77,1.31.05,2.33,1.15,2.28,2.47-.05,1.31-1.17,2.33-2.47,2.28-.51-.03-1,.16-1.38.51-.38.35-.6.82-.62,1.34-.05,1.28-1.1,2.28-2.37,2.28Z"/>
      <path class="cls-1" d="M47.36,92.67s-.06,0-.09,0c-1.31-.05-2.33-1.15-2.28-2.46.07-1.78.83-3.43,2.13-4.64,1.31-1.21,3.01-1.84,4.79-1.77,1.31.05,2.33,1.15,2.28,2.47-.05,1.31-1.17,2.33-2.47,2.28-.51-.02-1,.16-1.38.51-.38.35-.6.82-.61,1.34-.05,1.28-1.1,2.28-2.37,2.28Z"/>
      <path class="cls-1" d="M193.64,76.3c-3.61,0-6.59-2.9-6.67-6.52-.03-1.31,1.01-2.4,2.32-2.43,1.3-.03,2.4,1.01,2.43,2.32.02,1.05.88,1.88,1.92,1.88.03,0,.07,0,.1,0,1.29,0,2.34,1.03,2.37,2.32.03,1.31-1.01,2.4-2.32,2.43-.05,0-.1,0-.15,0Z"/>
      <path class="cls-3" d="M162.23,32.47s-.06,0-.09,0c-1.31-.05-2.33-1.15-2.28-2.47.14-3.68,3.25-6.56,6.93-6.41,1.31.05,2.33,1.15,2.28,2.47-.05,1.31-1.14,2.33-2.47,2.28-1.05-.05-1.95.79-2,1.85-.05,1.28-1.1,2.28-2.37,2.28Z"/>
      <path class="cls-7" d="M46.35,54.48c-1.63,0-3.18-.58-4.41-1.67-.98-.87-1.08-2.37-.21-3.35.87-.98,2.37-1.08,3.35-.21.38.34.88.51,1.39.48.51-.03.98-.26,1.32-.65.87-.98,2.37-1.08,3.35-.21.98.87,1.08,2.37.21,3.35-1.18,1.34-2.81,2.13-4.59,2.24-.14,0-.28.01-.42.01Z"/>
    </g>
  </g>
</svg>