<?xml version="1.0" encoding="UTF-8"?>
<svg id="Capa_2" xmlns="http://www.w3.org/2000/svg" viewBox="0 0 157.95 220.69">
  <defs>
    <style>
      .cls-1 {
        fill: #5f5c5d;
      }

      .cls-2 {
        fill: #fff;
      }

      .cls-3 {
        fill: #b9a6dd;
      }

      .cls-4 {
        fill: #e2e2e2;
      }

      .cls-5 {
        fill: #6f818c;
      }

      .cls-6 {
        fill: #95a1b3;
      }

      .cls-7 {
        fill: #ea9c71;
      }

      .cls-8 {
        fill: #b2b8c4;
      }

      .cls-9 {
        fill: #ffbe8d;
      }

      .cls-10 {
        fill: #a484d8;
      }
    </style>
  </defs>
  <g id="OBJECTS">
    <g>
      <ellipse class="cls-8" cx="40.67" cy="150.62" rx="12.35" ry="20.07"/>
      <path class="cls-5" d="M40.67,173.06c-8.26,0-14.73-9.86-14.73-22.44s6.47-22.45,14.73-22.45,14.73,9.86,14.73,22.45-6.47,22.44-14.73,22.44ZM40.67,132.92c-5.41,0-9.98,8.1-9.98,17.69s4.57,17.69,9.98,17.69,9.98-8.1,9.98-17.69-4.57-17.69-9.98-17.69Z"/>
      <g>
        <path class="cls-8" d="M140.75,4.8c-8.24-8.24-34.48,6.75-46.04,14.01-5.72-.95-13.1-1.34-21.55-1.3-8.45-.04-15.83.35-21.55,1.3C40.05,11.54,13.81-3.43,5.58,4.8c-8.18,8.18,1.16,30.62,5.95,40.62-5.67,9.58-7.74,20.06-7.74,29.09,0,7.81.93,15.61,2.8,23.41,3.65,15.22,15.69,26.91,31.03,30.02,2.45.5,4.9.94,7.36,1.33-.87,2.33-1.35,4.84-1.35,7.44,0,12.62,11.09,22.84,24.76,22.84s24.76-10.23,24.76-22.84c0-2.16-.33-4.24-.94-6.21,5.5-.6,11-1.45,16.49-2.56,15.34-3.11,27.38-14.8,31.03-30.02,1.87-7.8,2.8-15.6,2.8-23.41,0-9.03-2.07-19.51-7.74-29.09,4.78-9.99,14.13-32.45,5.95-40.63Z"/>
        <g>
          <path class="cls-6" d="M81.55,23.08c0,12.93-3.76,23.4-8.38,23.4s-8.39-10.47-8.39-23.4c0-1.77.07-3.49.21-5.15,5.45-.25,10.91-.25,16.36,0,.14,1.65.21,3.38.21,5.14Z"/>
          <g>
            <path class="cls-6" d="M63.54,18.84c0,12.92-3.75,23.4-8.38,23.4s-8.12-9.75-8.37-22.02c2.88-.75,5.86-1.29,8.91-1.59,2.61-.26,5.23-.47,7.84-.6,0,.28,0,.54,0,.82Z"/>
            <path class="cls-6" d="M99.55,20.1c-.24,12.32-3.9,22.13-8.37,22.13s-8.38-10.48-8.38-23.4c0-.28,0-.54,0-.82,3,.16,6.01.41,9.01.72,2.64.28,5.23.74,7.74,1.37Z"/>
          </g>
        </g>
        <path class="cls-2" d="M131.1,24.69s1.34,3.03,1.55,6.42c.21,3.14-1.68,5.53-4.16,6.53-5.2-5.91-11.61-10.74-18.86-14.09.07-1.7.78-3.38,2.17-4.63,5.56-5.06,13.25-10.51,18.7-8.29,9.48,3.87.59,14.06.59,14.06Z"/>
        <path class="cls-2" d="M15.22,24.69s-1.34,3.03-1.55,6.42c-.21,3.14,1.68,5.53,4.16,6.53,5.2-5.91,11.61-10.74,18.86-14.09-.07-1.7-.78-3.38-2.17-4.63-5.56-5.06-13.25-10.51-18.7-8.29-9.48,3.87-.59,14.06-.59,14.06Z"/>
        <path class="cls-5" d="M142.43,3.12c-4.37-4.37-12.33-4.15-24.33.67-8.67,3.48-17.64,8.65-23.89,12.54-5.48-.83-12.52-1.24-21.03-1.2-8.53-.04-15.57.36-21.06,1.2C34.68,5.45,12.45-5.44,3.9,3.12c-8.71,8.71-.92,29.68,4.95,42.19-6.28,11.17-7.43,22.46-7.43,29.21,0,7.97.96,16.03,2.87,23.96,3.85,16.05,16.75,28.53,32.87,31.79,5.97,1.21,12.03,2.13,18,2.73.08,0,.16.01.24.01,1.2,0,2.24-.91,2.36-2.14.13-1.3-.82-2.47-2.12-2.6-5.82-.59-11.72-1.48-17.54-2.66-14.31-2.9-25.77-13.99-29.19-28.25-1.82-7.57-2.74-15.26-2.74-22.85,0-8.41,1.92-24.45,14.79-37.44.92-.93.92-2.44-.02-3.36s-2.44-.92-3.36.02c-2.17,2.2-4.06,4.47-5.7,6.78C4.38,23.68,2.63,11.1,7.25,6.48c4.45-4.45,18.86-.11,38.14,11.32-3.4,1-6.66,2.19-9.69,3.56-1.2.54-1.73,1.94-1.19,3.14.54,1.2,1.94,1.73,3.14,1.19,3.05-1.37,6.34-2.56,9.78-3.54,5.48-1.55,14.13-2.31,25.75-2.27,11.59-.05,20.25.71,25.73,2.26,3.44.98,6.73,2.17,9.78,3.54.32.14.65.21.97.21.91,0,1.77-.52,2.17-1.4.54-1.2,0-2.6-1.19-3.14-3.04-1.37-6.3-2.56-9.7-3.56,19.28-11.44,33.68-15.78,38.14-11.32,4.62,4.62,2.87,17.2-4.62,34.03-1.64-2.31-3.53-4.58-5.7-6.78-.92-.93-2.43-.94-3.36-.02-.93.92-.94,2.43-.02,3.36,12.87,13,14.79,29.04,14.79,37.44,0,7.6-.92,15.29-2.74,22.85-3.42,14.26-14.88,25.35-29.19,28.25-7.03,1.42-14.16,2.43-21.19,2.99-1.31.1-2.28,1.25-2.18,2.56.1,1.24,1.14,2.19,2.37,2.19.06,0,.13,0,.19,0,7.21-.58,14.53-1.61,21.75-3.07,16.12-3.26,29.02-15.74,32.87-31.79,1.9-7.93,2.87-15.99,2.87-23.96,0-6.75-1.15-18.04-7.43-29.21,5.86-12.51,13.64-33.49,4.94-42.19Z"/>
        <g>
          <path class="cls-1" d="M110.35,80.68c0-4.3-3.48-7.78-7.78-7.78s-7.78,3.48-7.78,7.78,3.48,7.78,7.78,7.78,7.78-3.48,7.78-7.78Z"/>
          <path class="cls-1" d="M51.55,80.68c0-4.3-3.48-7.78-7.78-7.78s-7.78,3.48-7.78,7.78,3.48,7.78,7.78,7.78,7.78-3.48,7.78-7.78Z"/>
        </g>
        <g>
          <g>
            <path class="cls-6" d="M122.26,94.34h-12.3c-1.31,0-2.38-1.06-2.38-2.38s1.06-2.38,2.38-2.38h12.3c1.31,0,2.38,1.06,2.38,2.38s-1.06,2.38-2.38,2.38Z"/>
            <path class="cls-6" d="M120.02,105.89c-.27,0-.55-.05-.82-.15l-10.06-3.73c-1.23-.46-1.86-1.82-1.4-3.05.46-1.23,1.82-1.86,3.05-1.4l10.06,3.73c1.23.46,1.86,1.82,1.4,3.05-.35.96-1.26,1.55-2.23,1.55Z"/>
          </g>
          <g>
            <path class="cls-6" d="M36.37,94.34h-12.3c-1.31,0-2.38-1.06-2.38-2.38s1.06-2.38,2.38-2.38h12.3c1.31,0,2.38,1.06,2.38,2.38s-1.06,2.38-2.38,2.38Z"/>
            <path class="cls-6" d="M26.31,105.89c-.97,0-1.87-.59-2.23-1.55-.46-1.23.17-2.6,1.4-3.05l10.06-3.73c1.23-.46,2.6.17,3.05,1.4.46,1.23-.17,2.6-1.4,3.05l-10.06,3.73c-.27.1-.55.15-.82.15Z"/>
          </g>
        </g>
        <g>
          <path class="cls-2" d="M97.62,65.68h-6.45c-1.31,0-2.38-1.06-2.38-2.38s1.06-2.38,2.38-2.38h6.45c1.31,0,2.38,1.06,2.38,2.38s-1.06,2.38-2.38,2.38Z"/>
          <path class="cls-2" d="M55.16,65.68h-6.45c-1.31,0-2.38-1.06-2.38-2.38s1.06-2.38,2.38-2.38h6.45c1.31,0,2.38,1.06,2.38,2.38s-1.06,2.38-2.38,2.38Z"/>
        </g>
        <g>
          <path class="cls-2" d="M59.05,100.55c1.88,2.21,4.64,4.1,7.88,5.23,2.05.71,4.29,1.11,6.61,1.08,6-.08,11.23-3.02,14.19-6.71.53-.66.98-1.34,1.36-2.04.79-1.46,1.21-2.99,1.2-4.45-.11-8.63-7.69-8.73-17.03-8.6-9.35.13-16.53,1.36-16.8,9.06-.07,2.15.9,4.42,2.61,6.43Z"/>
          <path class="cls-5" d="M86.12,83.89s-.06-.03-.1-.04c-2.83-1-6.3-1.18-10.44-1.17l-.02-3.24h1.06c1.31,0,2.38-1.06,2.38-2.38s-1.06-2.38-2.38-2.38h-6.91c-1.31,0-2.38,1.06-2.38,2.38s1.06,2.38,2.38,2.38h1.1l.02,3.32c-4.12.16-8.17.65-11.27,2.27,0,0,0,0,0,0,0,0,0,0,0,0-3.49,1.83-5.34,4.86-5.48,9.01-.11,3.03,1.31,6.2,3.99,8.94,3.84,3.93,9.52,6.26,15.23,6.26.09,0,.19,0,.28,0,4.91-.07,9.67-1.82,13.4-4.94,3.67-3.06,5.74-6.95,5.69-10.66-.07-4.92-2.27-8.2-6.54-9.75ZM83.92,100.66c-2.86,2.39-6.65,3.78-10.42,3.83-4.48.06-9.08-1.79-12.05-4.83-1.73-1.77-2.69-3.76-2.63-5.45.08-2.42.99-3.95,2.94-4.97,0,0,0,0,0,0,2.79-1.46,7.3-1.73,11.38-1.79.02,0,.05,0,.07,0h.01s.08,0,.12,0c4.68-.06,8.47-.03,11.06.87,0,0,.02,0,.02.01,1.78.63,3.43,1.71,3.47,5.38.03,2.24-1.46,4.84-3.99,6.95Z"/>
        </g>
      </g>
      <g>
        <rect class="cls-3" x="78.33" y="125.26" width="83.78" height="26.93" rx="4.73" ry="4.73" transform="translate(91.61 320.05) rotate(-130.12)"/>
        <path class="cls-2" d="M87.89,120.87l-.19.16-1.83-2.18c-13.28,13.15-30.17,24.71-49.57,24.52-2.5-.03-3.9,2.86-2.29,4.78l8.77,10.4-2.99,2.5c-2.07,1.75-2.34,4.85-.59,6.92l40.95,48.59c1.75,2.07,4.85,2.34,6.92.59l48.1-40.18-47.28-56.1Z"/>
        <path class="cls-9" d="M116.46,170.52c-8.09,6.84-16.05,11.42-23.82,13.72l-30.7-36.43c7.72-3.36,15.41-8.26,23.01-14.69l31.51,37.4Z"/>
        <path class="cls-4" d="M133.64,175.16l-48.11,40.19c-.52.44-1.17.65-1.85.59-.67-.06-1.29-.37-1.72-.89l-40.95-48.59c-.9-1.07-.76-2.67.3-3.57l1.18-.98,26.15,31.04c2.76,3.28,6.82,5.22,11.12,5.33.42.01.84.02,1.27.02,16.79,0,33.87-8.48,50.77-25.21l-3.34-3.38c-16.37,16.21-32.72,24.22-48.58,23.82-2.95-.08-5.72-1.4-7.61-3.65l-36.44-43.25c-.05-.06-.22-.26-.08-.55.07-.15.21-.32.52-.32h0c16.92.17,34.19-8.31,51.26-25.2l-3.34-3.38c-15.98,15.82-31.93,23.83-47.42,23.83-.15,0-.3,0-.45,0-2.12-.03-3.97,1.15-4.87,3.05-.89,1.88-.6,4.04.74,5.64l7.23,8.58-1.17.98c-3.07,2.59-3.46,7.2-.88,10.27l40.95,48.6c1.25,1.49,3.01,2.4,4.95,2.56.21.02.42.03.63.03,1.71,0,3.36-.6,4.67-1.71l48.1-40.18-3.05-3.65Z"/>
        <path class="cls-10" d="M156.28,156.93l-47.89-56.83c-2.53-3-7.02-3.38-10.01-.85l-13.36,11.26c-3,2.53-3.38,7.02-.85,10.01h0l47.89,56.83c1.4,1.67,3.42,2.52,5.44,2.52,1.62,0,3.24-.55,4.57-1.67l13.36-11.26c3-2.53,3.38-7.02.85-10.01ZM152.36,163.31l-13.36,11.26c-.99.84-2.48.71-3.32-.28l-47.89-56.83h0c-.84-.99-.71-2.48.28-3.32l13.36-11.26c.99-.84,2.48-.71,3.32.28l40.66,48.25s0,0,0,0c.41.48.6,1.09.55,1.72-.05.63-.35,1.2-.83,1.6l-10.13,8.54c-1,.85-1.13,2.34-.29,3.35.47.56,1.14.84,1.82.84.54,0,1.08-.18,1.53-.56l10.13-8.54c.62-.53,1.14-1.15,1.54-1.83l2.91,3.45c.84.99.71,2.48-.28,3.32Z"/>
        <path class="cls-2" d="M126.27,145.91c-1.91,1.61-2.15,4.46-.54,6.36,1.61,1.91,4.46,2.15,6.36.54,1.91-1.61,2.15-4.46.54-6.36-1.61-1.91-4.46-2.15-6.36-.54Z"/>
        <path class="cls-2" d="M103.11,118.42c-1.91,1.61-2.15,4.46-.54,6.36,1.61,1.91,4.46,2.15,6.36.54,1.91-1.61,2.15-4.46.54-6.36-1.61-1.91-4.46-2.15-6.36-.54Z"/>
        <path class="cls-10" d="M129.19,156.25c-1.96,0-3.91-.83-5.27-2.45-2.45-2.91-2.08-7.26.83-9.71h0c2.91-2.45,7.26-2.08,9.71.83,2.45,2.91,2.08,7.26-.83,9.71-1.29,1.09-2.87,1.62-4.44,1.62ZM127.8,147.72h0c-.9.76-1.02,2.11-.26,3.02.76.9,2.11,1.02,3.02.26.9-.76,1.02-2.11.26-3.02-.76-.9-2.11-1.02-3.02-.26Z"/>
        <path class="cls-10" d="M106.03,128.76c-1.96,0-3.91-.83-5.28-2.45-2.45-2.91-2.08-7.26.83-9.71,2.9-2.45,7.26-2.08,9.71.83,1.19,1.41,1.75,3.19,1.6,5.03-.16,1.83-1.02,3.5-2.43,4.68-1.29,1.09-2.87,1.62-4.43,1.62ZM106.02,119.74c-.49,0-.98.17-1.38.5-.9.76-1.02,2.11-.26,3.02.76.9,2.11,1.02,3.02.26.44-.37.7-.89.75-1.45.05-.57-.13-1.12-.5-1.56-.42-.5-1.03-.76-1.64-.76Z"/>
        <path class="cls-7" d="M118.27,168.98l-31.51-37.39c-.41-.48-.99-.78-1.62-.84-.63-.05-1.25.15-1.73.55-11.2,9.45-22.61,15.56-33.94,18.14-.81.18-1.46.78-1.72,1.56-.26.79-.1,1.65.44,2.28l28.03,33.26c.15.18.32.35.49.51,0,0,0,0,0,0,.91.81,2.08,1.27,3.31,1.3.33,0,.67.01,1,.01,11.93,0,24.36-5.4,36.97-16.05,1-.85,1.13-2.34.28-3.34ZM80.14,183.62c-.1,0-.2-.04-.26-.1-.01-.01-.02-.02-.03-.03l-25.6-30.37c2.33-.68,4.66-1.5,6.99-2.45l27.14,32.2c-2.78.57-5.53.82-8.23.75ZM93.43,181.5l-27.68-32.84c6.35-3.07,12.66-7.15,18.89-12.21l28.45,33.75c-6.68,5.38-13.26,9.14-19.66,11.29Z"/>
        <line class="cls-2" x1="61.92" y1="147.8" x2="61.93" y2="147.81"/>
      </g>
      <g>
        <path class="cls-8" d="M137.81,120.39c-4.19-6.19-9.77-9.74-15.95-5.54-6.19,4.19-7.81,12.61-3.61,18.8,4.19,6.19,12.61,7.81,18.8,3.61,6.19-4.19,4.96-10.68.77-16.87Z"/>
        <path class="cls-5" d="M129.48,141.97c-1.01,0-2.02-.1-3.04-.29-4.17-.8-7.79-3.18-10.17-6.7-2.38-3.52-3.26-7.75-2.45-11.93.8-4.17,3.18-7.79,6.7-10.17,3.56-2.41,7.35-2.88,10.98-1.34,2.95,1.25,5.73,3.78,8.27,7.52,2.54,3.74,3.86,7.27,3.92,10.47.08,3.94-1.76,7.29-5.32,9.7-2.67,1.81-5.74,2.74-8.89,2.74ZM127.26,115.41c-1.33,0-2.68.47-4.07,1.41-2.47,1.67-4.14,4.21-4.7,7.13-.56,2.93.05,5.9,1.72,8.37,1.67,2.47,4.21,4.14,7.13,4.7,2.93.56,5.9-.05,8.37-1.72,2.22-1.51,3.28-3.36,3.23-5.68-.04-2.24-1.12-4.97-3.1-7.9h0c-1.98-2.93-4.12-4.94-6.19-5.81-.8-.34-1.6-.51-2.4-.51Z"/>
      </g>
      <g>
        <path class="cls-8" d="M32.39,134.28c-4.14,6.22-5.32,12.72.91,16.86,6.22,4.14,14.63,2.45,18.77-3.77,4.14-6.22,2.45-14.63-3.77-18.77-6.22-4.14-11.77-.55-15.91,5.67Z"/>
        <path class="cls-5" d="M40.77,155.78c-3.03,0-6.09-.86-8.79-2.66-6.6-4.39-7.17-11.74-1.57-20.16,5.6-8.42,12.6-10.73,19.2-6.34,7.3,4.86,9.29,14.76,4.43,22.06-3.06,4.6-8.12,7.09-13.27,7.09ZM42.91,129.22c-4.3,0-7.36,4.59-8.54,6.37-6.18,9.29-1.34,12.51.25,13.57,5.12,3.41,12.07,2.01,15.48-3.11,3.41-5.12,2.01-12.07-3.11-15.48-1.45-.97-2.82-1.36-4.07-1.36Z"/>
      </g>
    </g>
  </g>
</svg>