<?xml version="1.0" encoding="UTF-8"?>
<svg id="Capa_2" xmlns="http://www.w3.org/2000/svg" viewBox="0 0 209.83 220.69">
  <defs>
    <style>
      .cls-1 {
        fill: #5f5c5d;
      }

      .cls-2 {
        fill: #f9cb71;
      }

      .cls-3 {
        fill: #fff;
      }

      .cls-4 {
        fill: #6f818c;
      }

      .cls-5 {
        fill: #95a1b3;
      }

      .cls-6 {
        fill: #b2b8c4;
      }

      .cls-7 {
        fill: #ffffa1;
      }

      .cls-8 {
        fill: #e27fa3;
      }
    </style>
  </defs>
  <g id="OBJECTS">
    <g>
      <g>
        <path class="cls-6" d="M175.36,25.77c-8.37-10.98-41.56,2.45-56.29,9.14-6.57-2.03-15.17-3.66-25.1-4.95-9.92-1.39-18.65-2.1-25.52-1.89C56.03,17.7,27.59-4.06,16.62,4.3c-10.9,8.3-3.5,36.15.54,48.65-8.18,10.35-12.28,22.33-13.71,32.94-1.24,9.17-1.39,18.48-.43,27.93,1.72,16.97,12.24,31.55,27.54,38.52-4.75,6.9-7.5,15.09-7.5,23.89,0,24.55,21.45,44.45,47.91,44.45s47.91-19.9,47.91-44.45c0-3.76-.5-7.41-1.45-10.89.25-.02.49-.03.74-.04,18.51-1.21,34.5-13.03,41.21-30.33,3.44-8.86,5.77-17.87,7.01-27.05,1.43-10.6.67-23.24-4.47-35.39,7.2-10.97,21.74-35.87,13.44-46.77Z"/>
        <g>
          <path class="cls-5" d="M102.94,37.84c-2.05,15.18-8.13,26.88-13.56,26.15-5.44-.74-8.19-13.63-6.14-28.81.28-2.08.64-4.09,1.06-6.01,6.44.58,12.85,1.44,19.21,2.61-.1,1.96-.29,4-.57,6.07Z"/>
          <g>
            <path class="cls-5" d="M82.46,29.99c-2.05,15.17-8.12,26.88-13.56,26.15-5.23-.71-7.98-12.74-6.34-27.19,3.5-.43,7.09-.58,10.71-.46,3.11.11,6.21.28,9.3.54-.03.33-.07.64-.12.97Z"/>
            <path class="cls-5" d="M124.54,37.2c-2.24,14.43-8.09,25.37-13.35,24.66-5.44-.74-8.18-13.64-6.13-28.81.04-.33.09-.64.14-.96,3.5.66,6.99,1.43,10.46,2.28,3.06.75,6.02,1.7,8.87,2.83Z"/>
          </g>
        </g>
        <path class="cls-3" d="M160.87,47.59s1.09,3.77.8,7.79c-.25,3.72-2.85,6.23-5.92,7.01-5.16-7.76-11.93-14.46-19.91-19.55.35-1.99,1.45-3.84,3.28-5.1,7.34-5.06,17.23-10.24,23.27-6.77,10.52,6.05-1.54,16.61-1.54,16.61Z"/>
        <path class="cls-3" d="M24.79,29.19s-2.05,3.34-2.85,7.3c-.74,3.65,1.1,6.76,3.84,8.33,7.04-6.11,15.34-10.77,24.38-13.56.19-2.01-.38-4.09-1.81-5.78-5.73-6.82-13.89-14.45-20.64-12.71-11.75,3.04-2.93,16.42-2.93,16.42Z"/>
        <path class="cls-4" d="M177.27,24.31c-4.32-5.68-13.57-6.63-28.25-2.93-10.77,2.72-22.17,7.39-30.12,10.98-6.31-1.86-14.53-3.46-24.59-4.78-10.07-1.41-18.43-2.05-25.01-1.93-6.72-5.57-16.48-13.11-26.13-18.58C30-.4,20.84-1.93,15.16,2.39c-11.46,8.73-5.56,34.59-.68,50.08-9.19,12.09-12.34,25.18-13.41,33.1-1.26,9.33-1.41,18.91-.44,28.5.97,9.52,4.59,18.5,10.47,25.97,5.89,7.49,13.78,13.1,22.81,16.23,6.81,2.36,13.76,4.4,20.67,6.05.19.05.38.07.56.07,1.08,0,2.07-.74,2.33-1.84.31-1.29-.49-2.59-1.78-2.89-6.75-1.62-13.55-3.61-20.21-5.92-8.16-2.83-15.28-7.91-20.61-14.67-5.32-6.76-8.59-14.88-9.46-23.49-.93-9.21-.79-18.42.42-27.37,1.34-9.93,6.18-28.59,23.47-41.9,1.05-.81,1.25-2.32.44-3.37-.81-1.05-2.32-1.25-3.37-.44-3.1,2.38-5.81,4.92-8.21,7.55-6.38-21.5-6.46-37-.09-41.86,6.16-4.69,22.89,2.92,44.24,19.94-.01,0-.03,0-.04,0-4.45.64-8.75,1.57-12.78,2.77-1.27.38-2,1.71-1.62,2.98.38,1.27,1.71,2,2.98,1.62,3.81-1.13,7.89-2.01,12.1-2.62,6.72-.96,17.04-.48,30.71,1.43,13.66,1.79,23.74,4.07,29.96,6.78,3.91,1.71,7.6,3.64,10.97,5.74.4.25.83.36,1.27.36.8,0,1.58-.4,2.04-1.13.7-1.13.36-2.61-.77-3.31-3.57-2.23-7.47-4.27-11.59-6.06-.01,0-.03-.01-.04-.02,25.09-10.75,43.24-13.65,47.94-7.48,4.85,6.36.66,21.29-11.19,40.33-1.62-3.17-3.56-6.34-5.91-9.46-.8-1.06-2.3-1.27-3.36-.47-1.06.8-1.27,2.3-.47,3.36,13.14,17.43,12.84,36.69,11.5,46.63-1.21,8.95-3.52,17.87-6.87,26.5-3.13,8.07-8.44,15.03-15.36,20.13-6.93,5.11-15.15,8.1-23.76,8.67-9.22.6-18.49.61-27.55.02-1.32-.08-2.47.92-2.55,2.24-.09,1.32.92,2.47,2.24,2.55,4.59.3,9.22.45,13.88.45s9.53-.16,14.3-.47c9.53-.62,18.63-3.94,26.3-9.6,7.66-5.64,13.53-13.34,16.99-22.26,3.48-8.98,5.89-18.26,7.15-27.59,1.07-7.92,1.51-21.38-4.14-35.48,8.81-13.64,21.36-37.02,12.64-48.46Z"/>
        <g>
          <path class="cls-1" d="M127.82,108.51c.8-5.9-2.65-11.23-7.69-11.92-5.05-.68-9.79,3.55-10.58,9.44-.8,5.9,2.65,11.23,7.7,11.92,5.05.68,9.79-3.55,10.58-9.44Z"/>
          <path class="cls-1" d="M58.76,99.18c.8-5.9-2.65-11.23-7.69-11.92-5.05-.68-9.79,3.55-10.58,9.44-.8,5.9,2.65,11.23,7.7,11.92,5.05.68,9.79-3.55,10.58-9.44Z"/>
        </g>
        <g>
          <path class="cls-5" d="M38.94,113.96c-.11,0-.22,0-.32-.02l-14.44-1.95c-1.31-.18-2.24-1.39-2.06-2.7.18-1.31,1.38-2.24,2.7-2.06l14.44,1.95c1.31.18,2.24,1.39,2.06,2.7-.16,1.2-1.19,2.08-2.38,2.08Z"/>
          <path class="cls-5" d="M25.29,125.92c-1.1,0-2.09-.76-2.34-1.88-.29-1.29.52-2.58,1.82-2.87l12.41-2.78c1.3-.29,2.58.52,2.87,1.82.29,1.29-.52,2.58-1.82,2.87l-12.41,2.78c-.18.04-.35.06-.53.06Z"/>
        </g>
        <g>
          <path class="cls-3" d="M117.29,83.28c-.11,0-.22,0-.32-.02l-7.58-1.02c-1.31-.18-2.23-1.39-2.06-2.7.18-1.31,1.39-2.24,2.7-2.06l7.58,1.02c1.31.18,2.23,1.39,2.06,2.7-.16,1.2-1.19,2.08-2.38,2.08Z"/>
          <path class="cls-3" d="M67.43,76.54c-.11,0-.22,0-.32-.02l-7.58-1.02c-1.31-.18-2.23-1.39-2.06-2.7.18-1.31,1.38-2.24,2.7-2.06l7.58,1.02c1.31.18,2.23,1.39,2.06,2.7-.16,1.2-1.19,2.08-2.38,2.08Z"/>
        </g>
        <g>
          <path class="cls-4" d="M58.2,130.22c2.43,3.79,6.3,7.29,11.05,9.7,3.01,1.53,6.37,2.6,9.96,3.05,9.27,1.13,17.94-2.31,23.26-7.38.96-.91,1.8-1.86,2.52-2.86,1.52-2.09,2.49-4.35,2.77-6.6,1.63-13.32-10.04-15.05-24.45-16.81-14.43-1.75-25.76-1.34-27.78,10.45-.56,3.3.46,6.99,2.68,10.45Z"/>
          <path class="cls-8" d="M104.98,132.73c-4.75,6.55-14.85,11.56-25.78,10.23-9.25-1.13-17.03-6.56-21.01-12.74,7.48-5.11,24.03-12.19,46.79,2.5Z"/>
          <path class="cls-4" d="M102.77,111.32s-.08-.05-.13-.07c-4.23-2.17-9.83-3.14-16.64-4.01l.6-4.63,1.65.22c.11.01.22.02.32.02,1.18,0,2.21-.87,2.38-2.08.18-1.31-.74-2.52-2.06-2.7l-8.11-1.1c-1.31-.18-2.52.74-2.7,2.06-.18,1.31.74,2.52,2.06,2.7l1.7.23-.61,4.7c-6.44-.69-13.37-.95-18.58.95,0,0,0,0,0,0,0,0,0,0,0,0-5.29,1.93-8.49,5.88-9.49,11.75-.73,4.29.7,9.13,4.04,13.61,4.98,6.69,13.1,11.31,21.72,12.36,1.31.16,2.61.24,3.88.24,14.36,0,26.19-9.65,27.34-19.16.85-7.01-1.63-12.09-7.37-15.1ZM105.37,125.84c-.97,7.98-12.73,16.33-25.88,14.74-7.23-.88-14.3-4.89-18.45-10.46-2.51-3.37-3.66-6.99-3.16-9.93.71-4.16,2.75-6.72,6.4-8.05,0,0,0,0,0,0h0c4.91-1.79,12.22-1.22,18.72-.43,7.41.9,13.39,1.75,17.41,3.8.01,0,.02.01.03.02,4.08,2.09,5.55,5.18,4.93,10.32Z"/>
        </g>
      </g>
      <g>
        <path class="cls-6" d="M131.32,166.62c.82-4.22-.36-8.11-4.7-11-7.09-4.72-16.67-2.8-21.39,4.29-1.57,2.36-2.4,5-2.56,7.64-1.55,2.26-2.98,4.77-4.22,7.49-6.51,14.29-5.32,28.82,2.67,32.46,7.98,3.64,19.74-4.99,26.25-19.28,3.52-7.71,4.78-15.5,3.95-21.6Z"/>
        <path class="cls-4" d="M133.75,166.68c.13-.79.21-1.56.22-2.32.05-4.38-2.03-8.09-6.02-10.75-8.18-5.44-19.27-3.22-24.72,4.96-1.68,2.53-2.63,5.34-2.9,8.17-1.52,2.28-2.89,4.72-4.06,7.3-3.32,7.28-4.85,14.88-4.31,21.41.58,7.04,3.48,12.09,8.17,14.22,1.55.71,3.22,1.06,4.96,1.06,3.51,0,7.33-1.43,11.14-4.22,5.28-3.88,10.02-10.02,13.34-17.3,3.49-7.66,5.01-15.84,4.19-22.54ZM107.23,161.24c2.51-3.77,6.65-5.8,10.86-5.8,2.48,0,4.98.71,7.2,2.18,5.03,3.35,5.15,8.69.37,15.89-2.27,3.41-4.73,5.75-7.13,6.79-2.52,1.09-5.03.76-7.67-.99-5.98-3.98-7.6-12.08-3.63-18.06ZM113.38,202.65c-4.22,3.1-8.22,4.05-11.26,2.67-3.03-1.38-4.94-5.02-5.37-10.25-.47-5.73.91-12.49,3.89-19.03.22-.49.46-.97.7-1.46,1.26,3.44,3.58,6.53,6.85,8.72,2.42,1.61,4.93,2.42,7.43,2.42,1.62,0,3.23-.34,4.8-1.02,2.77-1.2,5.4-3.42,7.84-6.6-.67,3.01-1.71,6.11-3.09,9.13-2.98,6.54-7.18,12.02-11.81,15.42Z"/>
      </g>
      <g>
        <path class="cls-7" d="M152.17,190.76s-55.49-43.46-56.25-44.59c-2.3-3.38-2.5-9.08-.15-14.64,2.59-6.12,7.45-10.14,11.81-10.21.92-.01,70.73,9.51,70.73,9.51l-26.14,59.94Z"/>
        <ellipse class="cls-1" cx="169.06" cy="162.53" rx="33.31" ry="21.86" transform="translate(-46.48 254.93) rotate(-67.07)"/>
        <path class="cls-2" d="M194.84,146.42c-1.5-8.22-5.71-14.19-11.86-16.79-1.4-.59-2.85-.98-4.34-1.19,0,0,0,0,0,0-.06,0-.11-.01-.16-.02-.12-.01-.23-.03-.35-.05-46.02-6.28-69.77-9.46-70.58-9.46h0c-5.45.08-11.06,4.78-13.98,11.67-2.6,6.14-2.45,12.79.38,16.93.27.39.98,1.43,56.71,45.09,1.36,1.16,2.86,2.11,4.51,2.81,2.16.92,4.46,1.37,6.83,1.37,4.36,0,8.98-1.54,13.48-4.55,6.64-4.44,12.3-11.64,15.95-20.26,3.65-8.62,4.86-17.7,3.43-25.55ZM97.98,132.46c1.8-4.26,5.65-8.61,9.53-8.74,2.35.23,35.2,4.68,57.43,7.71-.76.42-1.52.88-2.28,1.39-6.64,4.44-12.3,11.64-15.95,20.26-3.65,8.62-4.86,17.7-3.43,25.55.16.89.36,1.74.59,2.57-20.07-15.76-43.79-34.46-46.09-36.56-1.79-2.82-1.72-7.68.19-12.19ZM186.98,170.11c-3.29,7.77-8.33,14.21-14.2,18.14-5.56,3.72-11.16,4.7-15.76,2.75-4.61-1.95-7.81-6.65-9.01-13.23-1.27-6.95-.16-15.05,3.13-22.82,3.29-7.77,8.33-14.21,14.2-18.14,3.69-2.47,7.39-3.73,10.81-3.73,1.74,0,3.4.32,4.95.98,4.61,1.95,7.81,6.65,9.01,13.23,1.27,6.95.16,15.05-3.13,22.82Z"/>
      </g>
      <g>
        <path class="cls-7" d="M174.1,165.62h0c1.66-2.59,4.98-3.56,7.77-2.28l19.99,9.16c3.42,1.57,4.66,5.8,2.63,8.96l-3.35,5.22c-2.03,3.16-6.39,3.79-9.24,1.34l-16.64-14.38c-2.33-2.01-2.82-5.43-1.16-8.02Z"/>
        <g>
          <path class="cls-7" d="M161.24,173.1h0c2.87-1.1,6.12.09,7.61,2.78l10.67,19.23c1.82,3.29.31,7.43-3.2,8.77l-5.8,2.21c-3.51,1.34-7.4-.74-8.23-4.4l-4.87-21.44c-.68-3,.95-6.04,3.82-7.14Z"/>
          <path class="cls-7" d="M175.56,150.81h0c.2,3.07,2.62,5.53,5.69,5.77l21.92,1.71c3.75.29,6.89-2.8,6.65-6.55l-.4-6.19c-.24-3.75-3.75-6.42-7.43-5.66l-21.53,4.48c-3.01.63-5.1,3.37-4.91,6.44Z"/>
        </g>
      </g>
      <g>
        <path class="cls-6" d="M53.29,170.96c-11.36-8.33-21.13-30.56-25.14-40.67,2.99-3.02,4.84-7.18,4.84-11.76,0-9.23-7.49-16.72-16.72-16.72-8.72,0-12.09,6.68-12.44,15.2h-.03c0,.11.01.23.02.35-.01.39-.02.78-.02,1.18,0,2.63.26,5.12.85,7.33,4.64,33.25,24.9,73.25,24.9,73.25l23.74-28.15Z"/>
        <path class="cls-4" d="M54.71,169.02c-10.46-7.67-19.76-28.33-23.78-38.24,2.78-3.32,4.46-7.6,4.46-12.26,0-10.54-8.58-19.12-19.12-19.12-8.91,0-14.23,6.19-14.82,17.07-.04.19-.06.4-.05.6,0,.09,0,.18.02.28-.01.39-.02.78-.02,1.17,0,2.83.3,5.38.87,7.63,0,.01,0,.03,0,.04,4.64,33.26,24.3,72.36,25.14,74.01.42.84,1.27,1.32,2.14,1.32.36,0,.74-.08,1.08-.26,1.18-.6,1.66-2.04,1.06-3.23-.18-.36-16.21-32.24-22.8-62.22,2.07,1.21,4.54,1.84,7.38,1.84,4.04,0,7.79-1.26,10.89-3.41,10.54,25.54,19.95,35.17,24.72,38.66.43.31.93.46,1.42.46.74,0,1.47-.34,1.94-.98.78-1.07.55-2.57-.52-3.36ZM6.19,118.53c0-9.5,3.39-14.32,10.07-14.32,7.9,0,14.32,6.42,14.32,14.32s-6.42,14.32-14.32,14.32c-6.68,0-10.07-4.82-10.07-14.32Z"/>
      </g>
    </g>
  </g>
</svg>