<?xml version="1.0" encoding="UTF-8"?>
<svg id="Capa_2" xmlns="http://www.w3.org/2000/svg" viewBox="0 0 191.28 220.69">
  <defs>
    <style>
      .cls-1 {
        fill: #b5f6f8;
      }

      .cls-2 {
        fill: #5f5c5d;
      }

      .cls-3 {
        fill: #f9cb71;
      }

      .cls-4 {
        fill: #fff;
      }

      .cls-5 {
        fill: #95a1b3;
      }

      .cls-6 {
        fill: #b2b8c4;
      }

      .cls-7 {
        fill: #ffffa1;
      }

      .cls-8 {
        fill: #e27fa3;
      }

      .cls-9 {
        fill: #70838e;
      }
    </style>
  </defs>
  <g id="OBJECTS">
    <g>
      <g>
        <path class="cls-6" d="M183.86,6.38c-10.75-10.76-45,8.8-60.09,18.28-7.47-1.24-17.1-1.74-28.12-1.71-11.03-.04-20.67.47-28.14,1.71C52.42,15.18,18.17-4.36,7.42,6.38c-10.67,10.67,1.51,39.96,7.78,53.02-7.4,12.49-10.1,26.19-10.1,37.97,0,10.19,1.21,20.37,3.66,30.55,3.49,14.53,12.84,26.61,25.45,33.62,2.11,1.18,4.32,2.21,6.6,3.09-.36,1.9-.55,3.83-.55,5.8,0,22.15,23.43,40.11,52.33,40.11s58.09-18.43,58.09-40.59c0-1.76-.19-3.49-.54-5.19,2.64-1,5.18-2.2,7.59-3.59,12.29-7.05,21.38-18.97,24.8-33.25,2.44-10.18,3.66-20.36,3.66-30.55,0-11.78-2.7-25.46-10.1-37.96,6.24-13.05,18.45-42.36,7.76-53.03Z"/>
        <g>
          <path class="cls-1" d="M67.68,170.09c-6.15-.75-12.29-1.74-18.42-2.98-5.37-1.09-10.43-2.98-15.05-5.57,4.08-3.81,9.28-5.97,10.46-14.16,1.86-12.82-9.86-14.78-8.01-27.61,1.65-11.38,11.36-14.57,14.78-24.17,3.53,1.43,7.56.98,10.75-1.38l3.05.78c2.4,12.73-9.22,15.24-6.83,27.97,2.39,12.71,14.03,10.17,16.41,22.89,2.14,11.34-6.92,14.59-7.13,24.24Z"/>
          <path class="cls-1" d="M157.73,161.18c-4.79,2.76-10.08,4.79-15.7,5.93-5.79,1.18-11.58,2.12-17.38,2.85-.28-9.55-9.26-12.82-7.13-24.11,2.38-12.73,14.02-10.18,16.41-22.89,2.39-12.73-9.24-15.24-6.83-27.97l3.05-.78c3.19,2.36,7.22,2.82,10.75,1.38,3.42,9.6,13.13,12.79,14.78,24.17,1.85,12.83-9.87,14.79-8.01,27.61,1.15,7.92,6.05,10.19,10.06,13.8Z"/>
        </g>
        <g>
          <path class="cls-5" d="M106.59,30.24c0,16.87-4.91,30.54-10.94,30.54s-10.96-13.67-10.96-30.54c0-2.31.09-4.56.27-6.72,7.12-.32,14.24-.32,21.35.01.18,2.16.27,4.41.27,6.71Z"/>
          <g>
            <path class="cls-5" d="M83.08,24.7c0,16.86-4.9,30.54-10.94,30.54s-10.59-12.73-10.93-28.74c3.76-.98,7.65-1.68,11.63-2.08,3.41-.34,6.82-.61,10.23-.79.01.36.01.71.01,1.07Z"/>
            <path class="cls-5" d="M130.08,26.35c-.31,16.08-5.09,28.89-10.93,28.89s-10.94-13.68-10.94-30.54c0-.36,0-.71.01-1.07,3.91.21,7.84.53,11.76.94,3.45.36,6.82.97,10.1,1.78Z"/>
          </g>
        </g>
        <path class="cls-4" d="M171.26,32.33s1.74,3.95,2.03,8.38c.27,4.1-2.2,7.22-5.43,8.53-6.78-7.71-15.15-14.02-24.61-18.4.09-2.22,1.02-4.41,2.83-6.05,7.26-6.6,17.3-13.72,24.4-10.83,12.38,5.05.78,18.36.78,18.36Z"/>
        <path class="cls-4" d="M20.01,32.33s-1.74,3.95-2.03,8.38c-.27,4.1,2.2,7.22,5.43,8.53,6.78-7.71,15.15-14.02,24.61-18.4-.09-2.22-1.02-4.41-2.83-6.05-7.26-6.6-17.3-13.72-24.4-10.83-12.38,5.05-.77,18.36-.77,18.36Z"/>
        <path class="cls-9" d="M186.13,4.1c-5.74-5.74-16.17-5.46-31.88.84-11.31,4.54-23,11.27-31.16,16.36-7.16-1.08-16.35-1.61-27.43-1.56-11.11-.05-20.3.47-27.46,1.56-8.17-5.09-19.88-11.83-31.16-16.36C21.31-1.36,10.88-1.63,5.15,4.1-.33,9.58-1.44,19.22,1.84,32.76c2.34,9.66,6.44,19.48,9.72,26.49C3.39,73.83,1.88,88.56,1.88,97.38c0,10.41,1.26,20.94,3.74,31.3,2.48,10.35,7.82,19.72,15.42,27.08,7.62,7.38,17.15,12.39,27.57,14.5,15.6,3.15,31.42,4.75,47.03,4.75s31.43-1.6,47.03-4.75c10.42-2.11,19.95-7.13,27.57-14.5,7.6-7.36,12.93-16.73,15.42-27.08,2.48-10.36,3.74-20.89,3.74-31.3,0-8.82-1.5-23.55-9.68-38.13,3.28-7.01,7.38-16.85,9.72-26.49,3.28-13.54,2.17-23.18-3.31-28.65ZM175.61,52.76c-2.12-2.96-4.54-5.88-7.33-8.7-1.25-1.26-3.28-1.27-4.54-.02-1.26,1.25-1.27,3.28-.02,4.54,16.76,16.94,19.27,37.84,19.27,48.79,0,9.91-1.2,19.93-3.57,29.8-2.2,9.16-6.91,17.45-13.64,23.96-6.73,6.52-15.16,10.95-24.37,12.82-15.18,3.07-30.58,4.63-45.76,4.63s-30.57-1.56-45.75-4.63c-9.21-1.87-17.64-6.3-24.37-12.82-6.72-6.51-11.44-14.8-13.64-23.96-2.37-9.87-3.57-19.9-3.57-29.8,0-10.95,2.5-31.86,19.27-48.79,1.25-1.26,1.24-3.3-.02-4.54-1.26-1.25-3.3-1.24-4.54.02-2.79,2.82-5.22,5.74-7.34,8.7C5.97,30.94,3.71,14.63,9.69,8.65s24.41-.14,49.41,14.66c-4.35,1.29-8.51,2.83-12.41,4.58-1.62.73-2.34,2.63-1.61,4.25.73,1.62,2.63,2.34,4.25,1.61,3.97-1.79,8.26-3.34,12.74-4.62,7.14-2.03,18.42-3.02,33.58-2.95,15.13-.07,26.41.93,33.55,2.95,4.49,1.28,8.78,2.83,12.75,4.62.43.19.88.28,1.32.28,1.23,0,2.4-.71,2.93-1.9.73-1.62,0-3.52-1.61-4.25-3.89-1.75-8.06-3.29-12.42-4.58,25-14.81,43.64-20.42,49.41-14.66,5.98,5.98,3.71,22.28-5.97,44.12Z"/>
        <g>
          <path class="cls-4" d="M138.78,83.37c-.45,0-.91-.09-1.34-.3l-8.42-3.88c-1.61-.74-2.32-2.65-1.58-4.26.74-1.61,2.65-2.32,4.26-1.58l8.42,3.88c1.61.74,2.32,2.65,1.58,4.26-.54,1.18-1.71,1.87-2.92,1.87Z"/>
          <path class="cls-4" d="M52.51,83.37c-1.22,0-2.38-.69-2.92-1.87-.74-1.61-.04-3.52,1.58-4.26l8.42-3.88c1.61-.74,3.52-.04,4.26,1.58.74,1.61.04,3.52-1.58,4.26l-8.42,3.88c-.44.2-.89.3-1.34.3Z"/>
        </g>
        <g>
          <path class="cls-9" d="M83.09,114.63c0,.57.01,1.12.04,1.65.53,10.04,5.93,12.57,12.52,12.57s12-2.53,12.53-12.56c.03-.53.04-1.09.04-1.67,0-11.42-5.63-20.67-12.57-20.67s-12.56,9.25-12.56,20.67Z"/>
          <path class="cls-8" d="M83.12,116.28c.53,10.04,5.93,12.57,12.52,12.57s12-2.53,12.53-12.56c-2.91-4.87-7.44-8-12.53-8s-9.61,3.13-12.52,7.98Z"/>
          <path class="cls-9" d="M98.86,91.22v-2.81h1.29c1.77,0,3.21-1.44,3.21-3.21s-1.44-3.21-3.21-3.21h-9.02c-1.78,0-3.21,1.44-3.21,3.21s1.44,3.21,3.21,3.21h1.3v2.8c-7.26,2.19-12.57,11.69-12.57,23.41s5.46,17.44,15.78,17.44,15.78-6.03,15.78-17.44-5.31-21.22-12.56-23.41ZM95.64,125.64c-5.61,0-9.35-1.87-9.35-11.01,0-8.26,3.84-17.46,9.35-17.46s9.35,9.2,9.35,17.46c0,9.14-3.74,11.01-9.35,11.01Z"/>
        </g>
        <path class="cls-2" d="M139.05,99.62c-6.44,0-12.69-3.39-16.04-9.4-.86-1.55-.31-3.51,1.24-4.37,1.55-.86,3.51-.31,4.37,1.24,3.2,5.73,10.46,7.8,16.19,4.6,1.55-.86,3.51-.31,4.37,1.24.86,1.55.31,3.51-1.24,4.37-2.82,1.57-5.88,2.32-8.9,2.32Z"/>
        <path class="cls-2" d="M53.23,99.38c-3.49,0-7.02-.99-10.13-3.07-1.48-.98-1.88-2.98-.89-4.46.98-1.48,2.98-1.88,4.46-.89,5.46,3.64,12.87,2.16,16.5-3.3.98-1.48,2.98-1.88,4.46-.89,1.48.98,1.88,2.98.89,4.46-3.53,5.29-9.35,8.16-15.28,8.16Z"/>
      </g>
      <path class="cls-6" d="M149.93,168.13c14.44,34.03,2.61,56.6-18.8,39.45-23.41-18.76-35.34-72.25-19.45-74,15.9-1.76,27.6,42.85,27.6,42.85l10.64-8.31Z"/>
      <path class="cls-9" d="M144.44,216.67c-.9,0-1.82-.08-2.75-.25-3.95-.69-8.18-2.82-12.56-6.33-9.59-7.69-18.13-21.42-23.43-37.67-4.19-12.76-6.8-29.29-1.56-37.42,1.73-2.69,4.22-4.28,7.2-4.61,12.97-1.42,22.64,19.18,28.48,36.71,1.65,4.94,2.56,8.38,2.59,8.52.45,1.72-.58,3.47-2.3,3.92-1.72.45-3.47-.58-3.92-2.3,0-.03-.89-3.39-2.47-8.11-6.88-20.68-15.19-33.08-21.68-32.36-.7.08-1.62.34-2.5,1.7-3.2,4.98-2.27,18.11,2.27,31.94,4.85,14.88,12.83,27.83,21.34,34.65,6.37,5.1,11.99,6.49,15.43,3.8,5.91-4.62,6.94-20.99-2.81-42.24-.74-1.61-.03-3.52,1.58-4.26,1.61-.74,3.52-.03,4.26,1.58,5.02,10.94,7.75,21.5,7.89,30.53.14,8.93-2.33,15.84-6.96,19.46-2.31,1.8-5.07,2.72-8.08,2.72Z"/>
      <path class="cls-7" d="M112.34,173.77s-31.85-48.82-48.18-38.58c-16.33,10.24,24.46,73.43,24.46,73.43,0,0,1.15-11.75,12.86-11.47,11.71.28,18.49-12.71,10.86-23.38Z"/>
      <path class="cls-3" d="M99.67,188.12c-.96,0-1.9-.42-2.54-1.24l-13.96-17.89c-1.09-1.4-.84-3.42.56-4.51,1.4-1.09,3.42-.84,4.51.56l13.96,17.89c1.09,1.4.84,3.42-.56,4.51-.59.46-1.28.68-1.97.68Z"/>
      <path class="cls-3" d="M88.62,211.83c-1.07,0-2.1-.54-2.7-1.47-.08-.13-8.19-12.72-15.68-27.41-10.3-20.21-14.58-34.71-12.72-43.09.74-3.32,2.4-5.81,4.93-7.39,8.28-5.19,19.82.19,34.29,16,9.82,10.73,17.58,22.46,18.25,23.49,4.36,6.13,5.02,13.44,1.78,19.55-3.02,5.7-8.76,9.01-15.38,8.86-.1,0-.21,0-.31,0-8.34,0-9.24,8.22-9.27,8.57-.13,1.36-1.11,2.49-2.44,2.81-.25.06-.51.09-.76.09ZM69.24,136.99c-1.27,0-2.4.3-3.37.92-1.04.65-1.71,1.74-2.07,3.34-2.76,12.4,14.05,43.59,24.01,59.99,2.35-3.94,6.63-7.47,13.75-7.3,4.11.11,7.69-1.93,9.54-5.44,2.08-3.93,1.57-8.74-1.37-12.86-.03-.04-.05-.07-.08-.11-.08-.12-7.97-12.16-17.69-22.77-9.48-10.34-17.35-15.77-22.72-15.77Z"/>
      <path class="cls-6" d="M38.18,171.8c-22.36,29.44-16.43,54.23,8.53,42.86,27.3-12.43,52-61.35,37.03-66.96-14.98-5.61-37.28,34.76-37.28,34.76,0,0-6.71-12.73-8.28-10.67Z"/>
      <path class="cls-9" d="M35.69,220.69c-.52,0-1.04-.02-1.54-.06-4.19-.35-7.62-2.18-9.92-5.29-3.72-5.01-4.16-12.9-1.25-22.2,2.98-9.52,9.17-19.8,17.92-29.73,1.17-1.33,3.2-1.46,4.54-.29,1.33,1.17,1.46,3.2.29,4.54-10.31,11.7-14.72,21.36-16.61,27.4-2.25,7.18-2.14,13.18.28,16.45,2.64,3.56,8.47,3.64,15.99.22,21.12-9.62,40.15-42,39.66-56.08-.14-4.08-1.87-4.73-2.43-4.94-4.55-1.7-12.04,3.48-20.57,14.21-7.21,9.07-12.72,19-12.77,19.1-.86,1.55-2.81,2.12-4.37,1.26-1.55-.86-2.12-2.81-1.26-4.37.23-.42,5.79-10.43,13.32-19.93,10.85-13.68,20.24-19.16,27.9-16.29,2.36.88,6.35,3.45,6.6,10.74.29,8.39-4.65,21.27-12.9,33.63-8.92,13.36-20.04,23.75-30.52,28.53-4.53,2.06-8.68,3.11-12.35,3.11Z"/>
    </g>
  </g>
</svg>