<?xml version="1.0" encoding="UTF-8"?>
<svg id="Capa_2" xmlns="http://www.w3.org/2000/svg" viewBox="0 0 201.96 220.69">
  <defs>
    <style>
      .cls-1 {
        fill: #5f5c5d;
      }

      .cls-2 {
        fill: #fff;
      }

      .cls-3 {
        fill: #95a1b3;
      }

      .cls-4 {
        fill: #b2b8c4;
      }

      .cls-5 {
        fill: #70838e;
      }
    </style>
  </defs>
  <g id="OBJECTS">
    <g>
      <g>
        <path class="cls-4" d="M194.26,6.61c-11.37-11.37-47.58,9.31-63.53,19.34-7.89-1.31-18.08-1.85-29.74-1.8-11.66-.05-21.85.49-29.74,1.8C55.29,15.91,19.07-4.76,7.71,6.61c-11.28,11.28,1.6,42.26,8.22,56.06-7.82,13.22-10.68,27.69-10.68,40.15,0,10.78,1.28,21.54,3.87,32.3,4.16,17.34,16.21,31.36,32.2,38.13.37,26.1,26.85,47.18,59.46,47.18s58.98-20.98,59.46-47c16.2-6.71,28.42-20.81,32.62-38.31,2.58-10.76,3.87-21.53,3.87-32.3,0-12.46-2.86-26.93-10.68-40.14,6.6-13.79,19.5-44.78,8.21-56.07Z"/>
        <g>
          <g>
            <path class="cls-3" d="M168.73,151.78h-16.97c-1.8,0-3.26-1.46-3.26-3.26s1.46-3.26,3.26-3.26h16.97c1.8,0,3.26,1.46,3.26,3.26s-1.46,3.26-3.26,3.26Z"/>
            <path class="cls-3" d="M165.65,167.72c-.38,0-.76-.07-1.13-.2l-13.88-5.14c-1.69-.62-2.55-2.5-1.92-4.19.63-1.69,2.5-2.55,4.19-1.92l13.88,5.14c1.69.62,2.55,2.5,1.92,4.19-.49,1.31-1.73,2.13-3.05,2.13Z"/>
          </g>
          <g>
            <path class="cls-3" d="M50.2,151.78h-16.97c-1.8,0-3.26-1.46-3.26-3.26s1.46-3.26,3.26-3.26h16.97c1.8,0,3.26,1.46,3.26,3.26s-1.46,3.26-3.26,3.26Z"/>
            <path class="cls-3" d="M36.32,167.72c-1.32,0-2.57-.81-3.05-2.13-.62-1.69.24-3.56,1.92-4.19l13.88-5.14c1.69-.63,3.56.24,4.19,1.92.62,1.69-.24,3.56-1.92,4.19l-13.88,5.14c-.37.14-.75.2-1.13.2Z"/>
          </g>
        </g>
        <g>
          <path class="cls-3" d="M112.56,31.83c0,17.84-5.19,32.29-11.57,32.29s-11.58-14.45-11.58-32.29c0-2.44.1-4.82.29-7.1,7.53-.34,15.05-.34,22.58.01.19,2.28.29,4.66.29,7.09Z"/>
          <g>
            <path class="cls-3" d="M87.7,25.97c0,17.83-5.18,32.29-11.57,32.29s-11.2-13.45-11.56-30.39c3.97-1.04,8.09-1.78,12.29-2.2,3.61-.36,7.21-.64,10.82-.83.01.38.01.75.01,1.13Z"/>
            <path class="cls-3" d="M137.39,27.72c-.33,17.01-5.38,30.54-11.56,30.54s-11.57-14.47-11.57-32.29c0-.38,0-.75.01-1.13,4.14.22,8.29.56,12.43,1,3.65.38,7.21,1.02,10.68,1.89Z"/>
          </g>
        </g>
        <path class="cls-2" d="M180.94,34.05s1.84,4.18,2.14,8.86c.29,4.33-2.32,7.64-5.74,9.01-7.17-8.15-16.02-14.82-26.02-19.45.1-2.35,1.08-4.66,2.99-6.39,7.68-6.98,18.29-14.51,25.8-11.45,13.09,5.34.82,19.41.82,19.41Z"/>
        <path class="cls-2" d="M21.02,34.05s-1.84,4.18-2.14,8.86c-.29,4.33,2.32,7.64,5.74,9.01,7.17-8.15,16.02-14.82,26.02-19.45-.1-2.35-1.08-4.66-2.99-6.39-7.68-6.98-18.29-14.51-25.8-11.45-13.09,5.34-.82,19.41-.82,19.41Z"/>
        <path class="cls-5" d="M196.55,4.3c-6.02-6.02-17-5.72-33.56.92-11.96,4.8-24.35,11.94-32.97,17.31-7.57-1.15-17.29-1.7-29.03-1.65-11.76-.04-21.49.51-29.06,1.65-8.63-5.38-21.03-12.52-32.98-17.32C22.4-1.42,11.42-1.72,5.4,4.3-.35,10.05-1.52,20.2,1.94,34.46c2.48,10.23,6.83,20.64,10.3,28.04C3.58,77.92,1.99,93.5,1.99,102.82c0,11,1.33,22.12,3.96,33.06,2.62,10.92,8.24,20.8,16.26,28.56,8.03,7.78,18.09,13.07,29.08,15.3,4.03.81,8.11,1.54,12.13,2.15.17.03.33.04.5.04,1.58,0,2.97-1.15,3.22-2.77.27-1.78-.95-3.44-2.73-3.71-3.92-.6-7.9-1.31-11.82-2.1-9.77-1.98-18.7-6.68-25.84-13.59-7.13-6.9-12.13-15.69-14.46-25.4-2.51-10.45-3.78-21.06-3.78-31.54,0-11.6,2.65-33.75,20.41-51.69,1.27-1.28,1.25-3.34-.02-4.61-1.28-1.27-3.34-1.26-4.61.02-3.01,3.04-5.62,6.19-7.89,9.38C6.04,32.68,3.62,15.3,10.01,8.9c6.15-6.15,26.05-.16,52.69,15.64-4.7,1.38-9.21,3.04-13.41,4.93-1.64.74-2.37,2.67-1.63,4.31.74,1.64,2.67,2.37,4.31,1.63,4.2-1.89,8.74-3.54,13.49-4.89,7.56-2.15,19.51-3.19,35.54-3.13,16.01-.07,27.95.98,35.51,3.13,4.75,1.35,9.29,3,13.5,4.89.43.2.89.29,1.33.29,1.24,0,2.43-.72,2.97-1.92.74-1.64,0-3.57-1.63-4.31-4.2-1.89-8.71-3.54-13.42-4.93,26.63-15.81,46.53-21.8,52.69-15.64,6.38,6.38,3.96,23.76-6.38,47.02-2.27-3.19-4.88-6.34-7.88-9.38-1.27-1.28-3.33-1.29-4.61-.02-1.28,1.27-1.29,3.33-.02,4.61,17.76,17.94,20.41,40.09,20.41,51.69,0,10.49-1.27,21.1-3.78,31.54-2.33,9.71-7.33,18.5-14.46,25.4-7.14,6.91-16.07,11.61-25.84,13.59-5.69,1.15-11.45,2.11-17.13,2.85-1.78.23-3.04,1.87-2.81,3.65.21,1.64,1.61,2.84,3.23,2.84.14,0,.28,0,.43-.03,5.83-.76,11.75-1.75,17.58-2.93,10.99-2.23,21.05-7.52,29.08-15.3,8.02-7.77,13.64-17.64,16.26-28.56,2.62-10.94,3.96-22.07,3.96-33.06,0-9.32-1.59-24.9-10.26-40.31,3.47-7.41,7.82-17.83,10.29-28.04,3.46-14.26,2.29-24.41-3.46-30.16Z"/>
        <g>
          <path class="cls-2" d="M134.73,90.6h-8.9c-1.8,0-3.26-1.46-3.26-3.26s1.46-3.26,3.26-3.26h8.9c1.8,0,3.26,1.46,3.26,3.26s-1.46,3.26-3.26,3.26Z"/>
          <path class="cls-2" d="M76.14,90.6h-8.9c-1.8,0-3.26-1.46-3.26-3.26s1.46-3.26,3.26-3.26h8.9c1.8,0,3.26,1.46,3.26,3.26s-1.46,3.26-3.26,3.26Z"/>
        </g>
        <path class="cls-5" d="M110.13,130.87c-3.25,0-5.89-2.64-5.89-5.89v-1.73h1.51c1.8,0,3.26-1.46,3.26-3.26s-1.46-3.26-3.26-3.26h-9.53c-1.8,0-3.26,1.46-3.26,3.26s1.46,3.26,3.26,3.26h1.51v1.73c0,3.25-2.64,5.89-5.89,5.89-1.8,0-3.26,1.46-3.26,3.26s1.46,3.26,3.26,3.26c3.62,0,6.88-1.56,9.15-4.03,2.27,2.48,5.53,4.03,9.15,4.03,1.8,0,3.26-1.46,3.26-3.26s-1.46-3.26-3.26-3.26Z"/>
        <g>
          <g>
            <circle class="cls-1" cx="142.56" cy="121.35" r="21.83"/>
            <circle class="cls-2" cx="145.59" cy="114.24" r="10.04" transform="translate(-32.51 63.96) rotate(-22.36)"/>
            <path class="cls-2" d="M151.22,131.78c0-3.41-2.77-6.18-6.18-6.18s-6.18,2.77-6.18,6.18,2.77,6.18,6.18,6.18,6.18-2.77,6.18-6.18Z"/>
            <path class="cls-2" d="M137.42,126.09c0-2.62-2.12-4.75-4.75-4.75s-4.75,2.12-4.75,4.75,2.12,4.75,4.75,4.75,4.75-2.12,4.75-4.75Z"/>
          </g>
          <g>
            <circle class="cls-1" cx="60.71" cy="119.92" r="20.41" transform="translate(-69.88 151.72) rotate(-76.83)"/>
            <circle class="cls-2" cx="63.75" cy="114.24" r="10.04" transform="translate(-63.34 83.18) rotate(-47.1)"/>
            <circle class="cls-2" cx="63.19" cy="131.78" r="6.18"/>
            <path class="cls-2" d="M55.57,126.09c0-2.62-2.12-4.75-4.75-4.75s-4.75,2.12-4.75,4.75,2.12,4.75,4.75,4.75,4.75-2.12,4.75-4.75Z"/>
          </g>
        </g>
      </g>
      <g>
        <g>
          <path class="cls-4" d="M91.65,182.19c-.45.18-.9.33-1.37.46,1.31,13.14-5.7,35.83-20.07,34.74-17.39-1.31-14.77-24.04-14.48-45.49.37-26.49,25.97-29.03,37.81-19.38,11.84,9.64,6.52,26.4-1.9,29.67Z"/>
          <path class="cls-5" d="M71.2,220.69c-.41,0-.82-.02-1.23-.05-8.45-.64-13.91-5.7-16.23-15.04-1.88-7.55-1.64-16.97-1.4-26.96.06-2.23.11-4.53.14-6.78.23-16.28,9.11-22.84,14.39-25.3,9.17-4.28,20.99-2.87,28.73,3.44,6.2,5.05,9.04,12.45,7.8,20.3-1.05,6.62-4.82,12.22-9.72,14.56.27,9.76-3.02,22.91-10.27,30.32-3.53,3.62-7.73,5.5-12.22,5.5ZM78.29,150.63c-3.01,0-6.01.6-8.66,1.84-4.76,2.22-10.46,7.4-10.63,19.49-.03,2.28-.09,4.61-.14,6.86-.53,21.4-.01,34.46,11.61,35.34,3.05.23,5.76-.92,8.29-3.51,5.38-5.51,8.3-16.02,8.42-24.17-3.51.18-6.9-.71-9.71-2.61-3.08-2.08-6.94-6.37-7.81-14.92-.18-1.79,1.12-3.39,2.91-3.57,1.79-.18,3.39,1.12,3.57,2.91.49,4.79,2.21,8.31,4.98,10.19,2.3,1.55,5.23,1.93,8.26,1.07.4-.12.75-.24,1.08-.37,3.12-1.21,5.79-5.27,6.52-9.88.51-3.23.48-9.38-5.48-14.24-3.56-2.9-8.4-4.42-13.21-4.42Z"/>
        </g>
        <g>
          <path class="cls-4" d="M110.31,182.19c.45.18.9.33,1.37.46-1.31,13.14,5.7,35.83,20.07,34.74,17.39-1.31,14.77-24.04,14.48-45.49-.37-26.49-25.97-29.03-37.81-19.38s-6.52,26.4,1.9,29.67Z"/>
          <path class="cls-5" d="M130.76,220.69c-4.48,0-8.68-1.89-12.21-5.5-7.24-7.42-10.54-20.56-10.27-30.32-4.9-2.32-8.68-7.93-9.72-14.56-1.24-7.86,1.6-15.26,7.8-20.3,7.74-6.31,19.56-7.72,28.73-3.44,5.28,2.46,14.16,9.02,14.39,25.3.03,2.25.09,4.56.14,6.79.25,9.98.48,19.41-1.4,26.96-2.32,9.34-7.79,14.4-16.24,15.04-.41.03-.82.05-1.23.05ZM114.78,186.46c.12,8.15,3.04,18.66,8.42,24.17,2.53,2.59,5.25,3.74,8.29,3.51,11.62-.88,12.14-13.93,11.61-35.34-.06-2.25-.11-4.57-.14-6.86-.17-12.08-5.87-17.26-10.63-19.49-6.88-3.21-16.08-2.13-21.87,2.58-5.96,4.85-5.99,11-5.48,14.24.73,4.61,3.4,8.67,6.5,9.87.34.14.7.26,1.09.37,3.03.86,5.96.48,8.26-1.07,2.77-1.87,4.49-5.4,4.98-10.19.18-1.79,1.78-3.09,3.57-2.91,1.79.18,3.09,1.78,2.91,3.57-.88,8.55-4.73,12.84-7.81,14.92-2.81,1.9-6.2,2.79-9.71,2.61Z"/>
        </g>
      </g>
    </g>
  </g>
</svg>