<?xml version="1.0" encoding="UTF-8"?>
<svg id="Capa_2" xmlns="http://www.w3.org/2000/svg" viewBox="0 0 176.59 220.69">
  <defs>
    <style>
      .cls-1 {
        fill: #5f5c5d;
      }

      .cls-2 {
        fill: #fff;
      }

      .cls-3 {
        fill: #95a1b3;
      }

      .cls-4 {
        fill: #b2b8c4;
      }

      .cls-5 {
        fill: #70838e;
      }
    </style>
  </defs>
  <g id="OBJECTS">
    <g>
      <path class="cls-4" d="M170.31,5.32c-10-10-41.84,8.19-55.86,17-6.94-1.15-15.9-1.63-26.15-1.58-10.26-.05-19.21.43-26.15,1.58C48.11,13.5,16.27-4.67,6.28,5.32c-9.92,9.92,1.41,37.16,7.22,49.3-6.88,11.62-9.39,24.35-9.39,35.31,0,9.48,1.13,18.94,3.4,28.41,4.35,18.13,18.5,32.12,36.61,36.2-5.68,32.28-8.75,63.79,3.92,63.79,8.34,0,13.42-17.31,16.07-30.43,6.55,4.16,14.98,6.66,24.18,6.66s17.63-2.51,24.18-6.67c2.65,13.12,7.73,30.43,16.07,30.43,12.67,0,9.6-31.51,3.92-63.79,18.12-4.08,32.26-18.07,36.61-36.2,2.27-9.46,3.4-18.93,3.4-28.41,0-10.96-2.51-23.68-9.39-35.3,5.8-12.12,17.14-39.38,7.22-49.3Z"/>
      <g>
        <path class="cls-3" d="M98.47,27.51c0,15.69-4.56,28.39-10.17,28.39s-10.18-12.71-10.18-28.39c0-2.15.08-4.24.25-6.25,6.62-.3,13.24-.3,19.85.01.17,2.01.25,4.1.25,6.23Z"/>
        <g>
          <path class="cls-3" d="M76.61,22.35c0,15.67-4.55,28.39-10.17,28.39s-9.85-11.83-10.16-26.72c3.49-.91,7.11-1.56,10.81-1.93,3.17-.31,6.34-.56,9.51-.73.01.34.01.66.01,1Z"/>
          <path class="cls-3" d="M120.31,23.89c-.29,14.95-4.73,26.86-10.16,26.86s-10.17-12.72-10.17-28.39c0-.34,0-.66.01-1,3.64.19,7.29.49,10.93.88,3.21.34,6.34.9,9.39,1.66Z"/>
        </g>
      </g>
      <path class="cls-2" d="M158.6,29.45s1.62,3.68,1.89,7.79c.25,3.81-2.04,6.71-5.04,7.93-6.31-7.17-14.09-13.03-22.88-17.1.08-2.07.95-4.1,2.63-5.62,6.75-6.14,16.08-12.76,22.69-10.06,11.51,4.7.72,17.07.72,17.07Z"/>
      <path class="cls-2" d="M17.98,29.45s-1.62,3.68-1.89,7.79c-.25,3.81,2.04,6.71,5.04,7.93,6.31-7.17,14.09-13.03,22.88-17.1-.08-2.07-.95-4.1-2.63-5.62-6.75-6.14-16.08-12.76-22.69-10.06-11.51,4.7-.72,17.07-.72,17.07Z"/>
      <path class="cls-5" d="M171.98,3.64c-5.14-5.14-14.62-4.84-28.98.92-10.56,4.24-21.5,10.55-29.07,15.28-6.65-1.03-15.23-1.52-25.63-1.48-10.42-.04-19,.45-25.66,1.48-7.58-4.73-18.53-11.05-29.07-15.28C19.21-1.2,9.74-1.5,4.6,3.64c-10.41,10.41-.86,35.83,6.22,50.85C3.14,68.02,1.74,81.74,1.74,89.92c0,9.63,1.17,19.37,3.46,28.96,2.28,9.51,7.18,18.11,14.16,24.88,6.19,5.99,13.75,10.28,22.04,12.54-6.06,35.19-6.1,54.1-.16,61.18,1.76,2.1,4.11,3.21,6.8,3.21,6.88,0,12.29-7.92,16.53-24.21,2.93-11.26,4.18-22.31,4.23-22.77.14-1.3-.79-2.48-2.1-2.62-1.3-.15-2.48.79-2.62,2.1-1.98,17.76-8.26,42.76-16.04,42.76-1.29,0-2.3-.48-3.16-1.51-4.76-5.67-4.36-24.87,1.16-57.08,14.03,2.75,28.23,4.14,42.25,4.14s28.23-1.4,42.25-4.14c5.53,32.21,5.92,51.41,1.17,57.08-.87,1.03-1.87,1.51-3.16,1.51-7.79,0-14.07-25.01-16.04-42.76-.14-1.3-1.32-2.24-2.62-2.1-1.3.14-2.24,1.32-2.1,2.62.05.47,1.3,11.52,4.23,22.77,4.25,16.29,9.65,24.21,16.54,24.21,2.69,0,5.04-1.11,6.8-3.21,5.94-7.08,5.9-25.99-.16-61.18,8.28-2.26,15.85-6.55,22.04-12.54,6.98-6.76,11.88-15.37,14.16-24.88,2.3-9.58,3.46-19.33,3.46-28.96,0-8.18-1.4-21.9-9.08-35.43,3.06-6.51,6.93-15.75,9.13-24.79,3-12.36,2.02-21.13-2.92-26.06ZM162.76,49.69c-2.09-3.03-4.52-6.02-7.37-8.9-.92-.93-2.43-.94-3.36-.02-.93.92-.94,2.43-.02,3.36,15.74,15.9,18.09,35.52,18.09,45.79,0,9.26-1.12,18.63-3.33,27.85-2.07,8.63-6.51,16.44-12.85,22.57-6.34,6.14-14.28,10.32-22.96,12.08-14.15,2.86-28.51,4.31-42.66,4.31s-28.5-1.45-42.66-4.31c-8.68-1.76-16.62-5.94-22.96-12.08-6.34-6.14-10.78-13.94-12.85-22.58-2.21-9.22-3.33-18.59-3.33-27.85,0-10.28,2.35-29.89,18.09-45.79.92-.93.92-2.44-.02-3.36-.93-.92-2.44-.92-3.36.02-2.85,2.88-5.28,5.87-7.37,8.9C4.34,28.65,2.11,12.84,7.95,7c5.65-5.65,23.78-.19,47.9,14.26-.07.02-.15.04-.23.06-4.42,1.26-8.66,2.79-12.58,4.56-1.2.54-1.73,1.94-1.19,3.14.54,1.2,1.94,1.73,3.14,1.19,3.72-1.67,7.73-3.13,11.93-4.32,6.69-1.9,17.25-2.84,31.38-2.77,14.12-.07,24.67.87,31.36,2.77,4.2,1.2,8.22,2.65,11.93,4.32.32.14.65.21.97.21.91,0,1.77-.52,2.17-1.4.54-1.2,0-2.6-1.19-3.14-3.93-1.77-8.16-3.3-12.58-4.56-.08-.02-.16-.04-.24-.06,24.11-14.45,42.24-19.91,47.9-14.25,5.83,5.83,3.61,21.64-5.87,42.69Z"/>
      <g>
        <g>
          <path class="cls-3" d="M147.87,129.08h-14.92c-1.31,0-2.37-1.06-2.37-2.37s1.06-2.37,2.37-2.37h14.92c1.31,0,2.37,1.06,2.37,2.37s-1.06,2.37-2.37,2.37Z"/>
          <path class="cls-3" d="M145.15,143.09c-.27,0-.55-.05-.82-.15l-12.21-4.52c-1.23-.45-1.85-1.82-1.4-3.05.45-1.23,1.82-1.85,3.05-1.4l12.21,4.52c1.23.45,1.85,1.82,1.4,3.05-.35.96-1.26,1.55-2.22,1.55Z"/>
        </g>
        <g>
          <path class="cls-3" d="M43.64,129.08h-14.92c-1.31,0-2.37-1.06-2.37-2.37s1.06-2.37,2.37-2.37h14.92c1.31,0,2.37,1.06,2.37,2.37s-1.06,2.37-2.37,2.37Z"/>
          <path class="cls-3" d="M31.43,143.09c-.96,0-1.87-.59-2.22-1.55-.45-1.23.17-2.59,1.4-3.05l12.21-4.52c1.23-.45,2.59.17,3.05,1.4.45,1.23-.17,2.59-1.4,3.05l-12.21,4.52c-.27.1-.55.15-.82.15Z"/>
        </g>
      </g>
      <g>
        <path class="cls-2" d="M117.97,94.3c-.12,0-.24,0-.36-.03l-7.83-1.2c-1.29-.2-2.18-1.41-1.98-2.7.2-1.29,1.41-2.18,2.7-1.98l7.83,1.2c1.29.2,2.18,1.41,1.98,2.7-.18,1.17-1.19,2.01-2.34,2.01Z"/>
        <path class="cls-2" d="M58.61,94.3c-1.15,0-2.16-.84-2.34-2.01-.2-1.29.69-2.5,1.98-2.7l7.83-1.2c1.29-.2,2.5.69,2.7,1.98.2,1.29-.69,2.5-1.98,2.7l-7.83,1.2c-.12.02-.24.03-.36.03Z"/>
      </g>
      <path class="cls-5" d="M90.67,114.42v-3.41h1.82c1.31,0,2.38-1.06,2.38-2.38s-1.06-2.38-2.38-2.38h-8.38c-1.31,0-2.38,1.06-2.38,2.38s1.06,2.38,2.38,2.38h1.82v3.41c-7.86,1.15-13.91,7.94-13.91,16.11,0,1.31,1.06,2.38,2.38,2.38s2.38-1.06,2.38-2.38c0-6.36,5.17-11.54,11.54-11.54s11.54,5.17,11.54,11.54c0,1.31,1.06,2.38,2.38,2.38s2.38-1.06,2.38-2.38c0-8.17-6.05-14.96-13.91-16.11Z"/>
      <g>
        <path class="cls-1" d="M44.9,118.87c-.61,0-1.22-.23-1.68-.7-.92-.93-.92-2.42,0-3.34.37-.37,9.31-9.12,23.24-7.45,1.3.16,2.23,1.34,2.07,2.64-.16,1.3-1.33,2.23-2.64,2.07-11.57-1.39-19.25,6.03-19.33,6.1-.46.46-1.07.68-1.67.68Z"/>
        <path class="cls-1" d="M131.69,118.87c-.6,0-1.21-.23-1.67-.69-.11-.11-7.78-7.49-19.33-6.1-1.3.15-2.48-.77-2.64-2.07-.16-1.3.77-2.48,2.07-2.64,13.92-1.67,22.86,7.08,23.24,7.45.93.93.93,2.43,0,3.35-.46.46-1.07.7-1.68.7Z"/>
      </g>
    </g>
  </g>
</svg>