<?xml version="1.0" encoding="UTF-8"?>
<svg id="Capa_2" xmlns="http://www.w3.org/2000/svg" viewBox="0 0 217.85 220.69">
  <defs>
    <style>
      .cls-1 {
        fill: #f6608e;
      }

      .cls-2 {
        fill: #ffa6ca;
      }

      .cls-3 {
        fill: #6db850;
      }

      .cls-4 {
        fill: #ffcc6b;
      }

      .cls-5 {
        fill: #fff;
      }

      .cls-6 {
        fill: #89d770;
      }

      .cls-7 {
        fill: #678490;
      }

      .cls-8 {
        fill: #fd80a6;
      }

      .cls-9 {
        fill: #b1b9c6;
      }

      .cls-10 {
        fill: #91a2b5;
      }

      .cls-11 {
        fill: #ffff9d;
      }

      .cls-12 {
        fill: #605c5d;
      }
    </style>
  </defs>
  <g id="OBJECTS">
    <g>
      <path class="cls-9" d="M133.94,199.2c-26.08,3.78-54.17-12.9-48.19-26.94,5.98-14.05,21.02-27.38,21.02-27.38l34.32,9.29c11.83,18.88,18.91,41.25-7.16,45.02Z"/>
      <g>
        <path class="cls-9" d="M214.68,51.08c-4.73-10.59-34.46-5.99-47.78-3.34-4.98-2.92-11.7-5.9-19.57-8.87-7.84-3.04-14.84-5.3-20.5-6.45C118.65,21.55,99.58-1.7,89,3.02c-10.51,4.69-9.81,28.88-8.91,39.89-8.68,6.89-14.33,15.9-17.54,24.3-2.78,7.26-4.68,14.84-5.72,22.76-2.02,15.45,5.02,30.6,18.18,38.94,10.16,6.44,20.75,11.76,31.77,15.98,11.02,4.21,22.46,7.31,34.32,9.3,15.37,2.56,30.71-4.02,39.52-16.88,4.51-6.59,8.15-13.51,10.93-20.77,3.21-8.39,5.01-18.88,3.15-29.79,8-7.59,24.67-25.15,19.98-35.66Z"/>
        <g>
          <path class="cls-10" d="M153.14,47.03c-4.6,12.02-11.82,20.42-16.11,18.77-4.31-1.65-4.08-12.72.52-24.74.63-1.65,1.31-3.22,2.02-4.71,5.16,1.71,10.23,3.65,15.21,5.83-.46,1.59-1.01,3.21-1.63,4.85Z"/>
          <g>
            <path class="cls-10" d="M137.9,36.68c-4.59,12.01-11.81,20.42-16.11,18.77-4.14-1.58-4.08-11.95.04-23.45,2.95.32,5.91.89,8.85,1.69,2.52.69,5.02,1.43,7.5,2.23-.09.26-.18.51-.28.77Z"/>
            <path class="cls-10" d="M170.93,50.66c-4.6,11.37-11.49,19.19-15.65,17.6-4.31-1.65-4.07-12.73.52-24.73.1-.26.19-.51.3-.76,2.73,1.21,5.44,2.51,8.12,3.87,2.36,1.2,4.59,2.55,6.71,4.02Z"/>
          </g>
        </g>
        <path class="cls-5" d="M198.63,66.14s.17,3.29-.84,6.52c-.92,2.99-3.53,4.55-6.19,4.6-2.73-7.34-6.98-14.11-12.52-19.81.67-1.56,1.93-2.86,3.66-3.54,6.97-2.72,16.06-5.06,20.33-1.06,7.44,6.97-4.45,13.29-4.45,13.29Z"/>
        <path class="cls-5" d="M90.9,24.94s-2.32,2.34-3.73,5.42c-1.31,2.84-.4,5.74,1.54,7.55,6.93-3.65,14.61-5.86,22.54-6.4.54-1.61.47-3.42-.37-5.08-3.37-6.68-8.59-14.48-14.43-14.36-10.19.23-5.55,12.87-5.55,12.87Z"/>
        <path class="cls-7" d="M216.84,50.11c-2.51-5.62-9.99-8.24-22.87-8.04-9.3.15-19.48,1.77-26.67,3.17-4.8-2.72-11.2-5.6-19.12-8.59-7.91-3.07-14.6-5.19-20-6.37-4.43-5.85-10.94-13.85-17.75-20.16C100.97,1.37,93.65-1.66,88.03.85c-11.2,5-11.41,27.27-10.4,40.99-9.81,8.15-14.89,18.24-17.29,24.52-2.83,7.41-4.8,15.25-5.85,23.3-2.13,16.29,5.43,32.49,19.26,41.26,10.25,6.49,21.08,11.94,32.19,16.19.28.11.57.16.85.16.96,0,1.86-.58,2.22-1.53.47-1.23-.14-2.6-1.37-3.07-10.82-4.14-21.36-9.44-31.34-15.76-12.27-7.78-18.98-22.16-17.09-36.63,1-7.68,2.88-15.16,5.58-22.22,2.99-7.81,10.48-22.04,27.06-29.55,1.19-.54,1.72-1.95,1.18-3.14-.54-1.19-1.95-1.73-3.14-1.18-2.8,1.27-5.36,2.71-7.7,4.27-.98-18.3,1.86-30.61,7.8-33.26,5.72-2.55,17.55,6.59,31.4,24.06-3.5-.27-6.95-.32-10.25-.13-1.31.08-2.31,1.2-2.23,2.51.08,1.31,1.2,2.3,2.51,2.24,3.32-.19,6.8-.13,10.35.18,5.64.5,13.96,2.87,24.74,7.05,10.8,4.07,18.57,7.86,23.11,11.25,2.85,2.13,5.48,4.41,7.83,6.77.46.47,1.07.7,1.68.7s1.21-.23,1.68-.69c.93-.92.93-2.43,0-3.36-2.33-2.35-4.93-4.61-7.73-6.74,21.97-3.78,36.88-2.69,39.44,3.03,2.65,5.93-3.45,16.99-16.38,29.98-.7-2.72-1.65-5.5-2.88-8.31-.53-1.2-1.93-1.74-3.13-1.22-1.2.53-1.74,1.93-1.22,3.13,7.34,16.65,3.42,32.25.44,40.06-2.7,7.06-6.29,13.88-10.67,20.27-8.25,12.04-22.84,18.27-37.17,15.88-3.69-.62-7.39-1.36-11-2.19-1.28-.3-2.55.5-2.85,1.78-.3,1.28.5,2.55,1.78,2.85,3.7.86,7.5,1.62,11.29,2.25,2.29.38,4.59.57,6.88.57,13.8,0,27.03-6.82,35-18.45,4.59-6.7,8.35-13.85,11.19-21.26,2.4-6.28,5.34-17.19,3.48-29.8,9.9-9.55,24.59-26.29,19.59-37.48Z"/>
        <g>
          <path class="cls-12" d="M161.46,99.22c-.28,0-.57-.05-.85-.16-1.23-.47-1.84-1.84-1.37-3.07.51-1.34.47-2.8-.11-4.11-.59-1.31-1.65-2.31-2.99-2.83-1.34-.51-2.8-.47-4.11.11-1.31.58-2.31,1.65-2.83,2.99-.47,1.23-1.84,1.84-3.07,1.37-1.23-.47-1.84-1.84-1.37-3.07.97-2.53,2.86-4.52,5.33-5.63,2.47-1.1,5.22-1.18,7.74-.21,2.52.97,4.52,2.86,5.63,5.33,1.1,2.47,1.18,5.22.21,7.74-.36.95-1.26,1.53-2.22,1.53Z"/>
          <path class="cls-12" d="M106.79,78.31c-.28,0-.57-.05-.85-.16-1.23-.47-1.84-1.84-1.37-3.07.51-1.34.47-2.8-.11-4.11-.59-1.31-1.65-2.31-2.99-2.83-2.77-1.06-5.88.33-6.94,3.1-.47,1.23-1.84,1.84-3.07,1.37-1.23-.47-1.84-1.84-1.37-3.07,1.99-5.21,7.86-7.83,13.07-5.84,2.53.97,4.52,2.86,5.63,5.33,1.1,2.47,1.18,5.22.21,7.74-.36.95-1.26,1.53-2.22,1.53Z"/>
        </g>
        <g>
          <g>
            <path class="cls-10" d="M168.52,113.94c-.28,0-.57-.05-.85-.16l-11.43-4.37c-1.23-.47-1.84-1.84-1.37-3.07.47-1.23,1.84-1.84,3.07-1.37l11.43,4.37c1.23.47,1.84,1.84,1.37,3.07-.36.95-1.26,1.53-2.22,1.53Z"/>
            <path class="cls-10" d="M162.34,123.88c-.56,0-1.11-.19-1.57-.59l-8.03-7.04c-.99-.86-1.08-2.37-.22-3.35.86-.99,2.37-1.09,3.35-.22l8.03,7.04c.99.86,1.08,2.37.22,3.35-.47.54-1.13.81-1.79.81Z"/>
          </g>
          <g>
            <path class="cls-10" d="M88.67,83.4c-.28,0-.57-.05-.85-.16l-11.43-4.37c-1.23-.47-1.84-1.84-1.37-3.07.47-1.23,1.84-1.84,3.07-1.37l11.43,4.37c1.23.47,1.84,1.84,1.37,3.07-.36.95-1.26,1.53-2.22,1.53Z"/>
            <path class="cls-10" d="M85.89,90.68h-.03l-10.68-.11c-1.31-.01-2.36-1.09-2.35-2.4.01-1.3,1.07-2.35,2.37-2.35h.03l10.68.11c1.31.01,2.36,1.09,2.35,2.4-.01,1.3-1.07,2.35-2.37,2.35Z"/>
          </g>
        </g>
        <g>
          <path class="cls-5" d="M155.8,78.54c-.28,0-.57-.05-.85-.16l-6-2.29c-1.23-.47-1.84-1.84-1.37-3.07.47-1.23,1.84-1.84,3.07-1.37l6,2.29c1.23.47,1.84,1.84,1.37,3.07-.36.95-1.26,1.53-2.22,1.53Z"/>
          <path class="cls-5" d="M116.33,63.44c-.28,0-.57-.05-.85-.16l-6-2.29c-1.23-.47-1.84-1.84-1.37-3.07.47-1.23,1.84-1.84,3.07-1.37l6,2.29c1.23.47,1.84,1.84,1.37,3.07-.36.95-1.26,1.53-2.22,1.53Z"/>
        </g>
        <path class="cls-7" d="M139.81,87.83c-1.07-.75-2.56-.49-3.31.58-1.11,1.58-3.15,2.21-4.96,1.51-1.05-.4-1.89-1.19-2.35-2.22-.41-.93-.48-1.95-.19-2.91l.98.37c.28.11.57.16.85.16.96,0,1.86-.58,2.22-1.53.47-1.23-.14-2.6-1.37-3.07l-6.42-2.46c-1.22-.47-2.6.14-3.07,1.37-.47,1.23.14,2.6,1.37,3.07l.98.37c-.94,1.97-3.25,2.92-5.32,2.13-1.81-.69-2.92-2.52-2.69-4.44.16-1.3-.77-2.48-2.08-2.64-1.3-.15-2.48.77-2.64,2.08-.49,4.09,1.86,7.97,5.71,9.44,2.43.93,5.03.73,7.19-.35.05.11.09.23.14.34.98,2.19,2.75,3.87,4.99,4.72,1.05.4,2.14.6,3.21.6,2.86,0,5.62-1.37,7.34-3.82.75-1.07.49-2.56-.58-3.31Z"/>
      </g>
      <g>
        <path class="cls-6" d="M81.51,197.09l-1.2,20.93s22.43,3.68,34.97-15.04l-16.24-13.42-17.52,7.53Z"/>
        <path class="cls-3" d="M84.94,220.69c-2.97,0-4.88-.3-5.01-.33-1.2-.2-2.06-1.27-1.99-2.48l1.2-20.93c.08-1.31,4.82-1.04,4.74.27l-1.07,18.65c2.17.13,5.82.13,9.98-.72,8.07-1.63,14.54-5.58,19.26-11.76l-14.54-12.01c-1.01-.84,2.02-4.5,3.03-3.66l16.24,13.42c.94.78,1.14,2.14.46,3.15-5.49,8.19-13.68,13.56-23.7,15.55-3.3.65-6.28.84-8.61.84Z"/>
        <ellipse class="cls-11" cx="87.64" cy="187.21" rx="14.38" ry="8.9" transform="translate(-66.83 49.85) rotate(-23.27)"/>
        <path class="cls-4" d="M83.02,199.55c-5.03,0-9.16-2.01-10.76-5.72-1.28-2.97-.7-6.43,1.62-9.75,2.08-2.97,5.39-5.54,9.32-7.23,3.93-1.69,8.07-2.32,11.66-1.79,4,.6,6.91,2.56,8.19,5.53,2.5,5.81-2.3,13.27-10.93,16.98-3.11,1.34-6.24,1.98-9.08,1.98ZM92.3,179.63c-2.28,0-4.83.55-7.23,1.59-3.08,1.33-5.74,3.36-7.3,5.59-.78,1.11-1.96,3.26-1.15,5.15,1.52,3.53,8.39,3.5,13.6,1.25,5.21-2.24,9.97-7.2,8.45-10.74h0c-.81-1.89-3.18-2.51-4.52-2.71-.59-.09-1.21-.13-1.85-.13Z"/>
        <ellipse class="cls-6" cx="62.12" cy="122.22" rx="51.85" ry="31.55" transform="translate(-43.23 34.48) rotate(-23.27)"/>
        <path class="cls-6" d="M69.43,142.96l18.91,43.96s-51.11,15.92-75.96-41.87c6.4,14.89,34.59,17.07,57.06-2.09Z"/>
        <path class="cls-6" d="M88.34,186.91l-15.45-35.93c27.02-11.62,43.72-33.11,37.31-48,0,0,26.86,51.27-21.86,83.93Z"/>
        <path class="cls-3" d="M119.92,132.61c-.62-16.72-6.93-29.4-7.57-30.65-3.48-7.99-12.15-13.05-24.44-14.25-11.82-1.16-25.73,1.38-39.15,7.16-13.43,5.77-24.84,14.12-32.13,23.5-7.6,9.78-9.89,19.58-6.44,27.62,0,0,0,0,0,0,5.82,13.54,13.58,24.25,23.05,31.84,7.63,6.11,16.36,10.2,25.96,12.15,4.8.98,9.3,1.33,13.29,1.33,9.46,0,16.01-1.96,16.53-2.12,0,0,0,0,0,0,0,0,.01,0,.02,0,.1-.03.19-.07.28-.11.03-.01.05-.02.08-.04.07-.04.15-.08.22-.12.01,0,.03-.02.04-.03,26.08-17.48,30.85-40.25,30.26-56.28ZM14.56,144.11c-2.74-6.37-.67-14.48,5.82-22.83,6.81-8.75,17.55-16.58,30.25-22.05,12.7-5.46,25.78-7.88,36.81-6.8,10.53,1.03,17.84,5.11,20.57,11.48,2.74,6.37.67,14.48-5.82,22.83-6.42,8.25-16.33,15.68-28.08,21.08l-2.5-5.81c-.3-.69-.91-1.2-1.64-1.37-.74-.17-1.51.02-2.08.51-14.84,12.66-30.61,14.72-40.43,12.43-6.33-1.48-10.92-4.84-12.91-9.47ZM60.15,185.32c-8.85-1.81-16.9-5.58-23.94-11.21-5.81-4.65-10.95-10.6-15.35-17.76,1.7.77,3.54,1.39,5.52,1.85,13.12,3.06,29-1.3,42.11-11.43l8.21,19.08,8.35,19.41c-4.38.92-13.88,2.3-24.9.05ZM110.11,159.12c-4.27,9.21-11.24,17.33-20.74,24.18l-13.38-31.11c12.48-5.72,23.06-13.66,29.96-22.53,3.29-4.23,5.59-8.48,6.85-12.58,1.18,4.52,2.17,9.95,2.37,15.87.32,9.41-1.38,18.21-5.06,26.16Z"/>
        <g>
          <path class="cls-8" d="M77.77,89.77c-2.25-5.22-7.18-8.49-12.6-8.96-5.94-6.69-15.71-9.17-24.38-5.44-8.67,3.73-13.6,12.52-12.82,21.44-3.38,4.26-4.41,10.09-2.16,15.31,2.78,6.46,9.67,9.94,16.51,8.83,4.6,4.16,12.12,5.29,19.07,2.3s11.3-9.22,11.45-15.42c5.5-4.2,7.72-11.6,4.95-18.06Z"/>
          <path class="cls-1" d="M79.96,88.84c-2.39-5.56-7.57-9.43-13.64-10.28-6.65-6.91-17.15-9.37-26.47-5.37-9.32,4.01-14.76,13.32-14.31,22.91-3.56,4.99-4.31,11.41-1.92,16.97,2.77,6.44,9.16,10.47,16.14,10.47.6,0,1.2-.03,1.8-.09,1.66,1.31,3.61,2.32,5.8,2.99,1.93.59,3.95.88,5.99.88,3,0,6.06-.63,8.97-1.88,4.89-2.1,8.8-5.71,11.02-10.17,1.02-2.05,1.62-4.17,1.82-6.27,5.83-5.04,7.82-13.17,4.81-20.16ZM75.59,90.71c1.7,3.96,1.18,8.43-1.16,11.96-.14-.43-.3-.86-.48-1.28-.38-.89-.85-1.73-1.38-2.51.74-4.35.28-8.94-1.59-13.28-.07-.17-.15-.33-.23-.49,2.12,1.33,3.82,3.26,4.83,5.61ZM41.72,77.55c2.43-1.05,4.97-1.54,7.46-1.54,7.35,0,14.36,4.3,17.44,11.47,2.54,5.92,1.83,12.43-1.34,17.52-.12-1.64-.61-3.26-1.45-4.75-1.48-2.61-3.81-4.51-6.41-5.49,2.93-3.22,4.04-7.17,2.57-10.58-1.14-2.65-3.74-4.53-7.13-5.16-3.09-.58-6.63-.11-9.95,1.32-7.3,3.14-11.23,9.74-8.96,15.03,1.5,3.49,5.28,5.42,9.78,5.42,2.31,0,4.82-.51,7.3-1.58,2.67-1.15,6.63-.19,8.66,3.38.9,1.59,2.36,5.7-3.24,9.88-9.55,3.96-20.57-.5-24.67-10.02-4.13-9.6.32-20.77,9.93-24.9ZM44.09,89.29c-.92,2.09-1.16,4.33-.73,6.71-2.41-.09-4.36-.95-5.03-2.5-1.16-2.7,1.86-6.81,6.47-8.79,1.39-.6,2.84-.97,4.23-1.11-2.33,1.63-3.99,3.54-4.94,5.7ZM48.06,95.27c-.29-1.48-.17-2.83.37-4.07.97-2.21,3.29-4.12,6.9-5.68.11.16.22.34.3.53,1.16,2.7-1.86,6.81-6.47,8.79-.37.16-.73.29-1.1.42ZM27.98,111.19c-1.01-2.35-1.24-4.91-.75-7.36.07.17.13.34.2.5,1.87,4.34,4.89,7.84,8.55,10.29.21.93.5,1.84.88,2.72.18.42.39.83.6,1.23-4.17-.73-7.78-3.43-9.48-7.39ZM69.07,113.15c-1.71,3.45-4.78,6.26-8.64,7.92-3.86,1.66-8.01,1.95-11.69.82-2.61-.8-4.75-2.26-6.22-4.19,2.17.64,4.43.97,6.72.97,3.12,0,6.29-.62,9.33-1.93,5.28-2.27,9.31-6.24,11.74-11,.39,2.4-.02,4.96-1.24,7.41Z"/>
        </g>
        <g>
          <path class="cls-8" d="M67.09,121.8c-2.25-5.22-7.18-8.49-12.6-8.96-5.94-6.69-15.71-9.17-24.38-5.44-8.67,3.73-13.6,12.52-12.82,21.44-3.38,4.26-4.41,10.09-2.16,15.32,2.78,6.46,9.67,9.94,16.51,8.83,4.6,4.16,12.12,5.29,19.07,2.3,6.95-2.99,11.3-9.22,11.45-15.42,5.5-4.2,7.72-11.6,4.95-18.06Z"/>
          <path class="cls-1" d="M69.28,120.86c-2.39-5.56-7.57-9.43-13.64-10.28-6.65-6.91-17.15-9.37-26.47-5.37-9.32,4.01-14.76,13.32-14.31,22.91-3.56,4.99-4.31,11.41-1.92,16.97,2.77,6.44,9.16,10.47,16.14,10.47.6,0,1.2-.03,1.8-.09,1.66,1.31,3.61,2.32,5.8,2.99,1.93.59,3.95.88,5.99.88,3,0,6.06-.63,8.97-1.88,4.89-2.1,8.8-5.71,11.02-10.17,1.02-2.05,1.62-4.17,1.82-6.27,5.83-5.04,7.82-13.17,4.81-20.16ZM64.91,122.74c1.7,3.96,1.18,8.43-1.16,11.96-.14-.43-.3-.86-.48-1.28-.38-.88-.84-1.71-1.37-2.49.76-4.46.23-9.05-1.6-13.3-.07-.17-.15-.33-.23-.49,2.12,1.33,3.82,3.26,4.83,5.6ZM31.04,109.58c2.43-1.05,4.97-1.54,7.46-1.54,7.35,0,14.36,4.3,17.44,11.47,2,4.65,2.07,9.8.2,14.51-.43,1.07-.94,2.08-1.54,3.03-.12-1.64-.6-3.27-1.45-4.76-1.48-2.61-3.81-4.52-6.42-5.49.53-.59,1.01-1.21,1.43-1.85,1.87-2.89,2.29-6.07,1.15-8.72-1.14-2.65-3.74-4.53-7.13-5.16-3.09-.58-6.63-.11-9.95,1.32-7.3,3.14-11.23,9.74-8.96,15.03,1.14,2.65,3.74,4.53,7.13,5.16.86.16,1.76.24,2.67.24,2.37,0,4.88-.53,7.27-1.56,2.66-1.15,6.63-.19,8.66,3.38.9,1.59,2.36,5.7-3.24,9.88-9.55,3.96-20.57-.5-24.67-10.02-4.13-9.6.32-20.77,9.93-24.9ZM33.4,121.32c-.92,2.09-1.16,4.34-.73,6.72-.48-.02-.95-.06-1.4-.14-1.06-.2-2.94-.77-3.63-2.37-1.16-2.7,1.86-6.81,6.47-8.79,1.39-.6,2.84-.97,4.23-1.11-2.33,1.63-3.99,3.54-4.94,5.7ZM37.38,127.3c-.29-1.49-.17-2.83.37-4.07.97-2.21,3.29-4.12,6.9-5.68.11.16.22.34.3.53.69,1.6-.19,3.36-.78,4.27-1.19,1.83-3.26,3.48-5.69,4.53-.36.16-.73.29-1.1.42ZM17.3,143.22c-1.01-2.35-1.24-4.91-.75-7.36.07.17.13.34.2.5,1.87,4.34,4.89,7.84,8.55,10.29.21.93.5,1.84.88,2.72.18.42.39.83.6,1.23-4.17-.73-7.78-3.43-9.48-7.39ZM58.39,145.18c-1.71,3.45-4.78,6.26-8.64,7.92-3.86,1.66-8.01,1.95-11.69.82-2.61-.8-4.75-2.26-6.22-4.19,2.17.64,4.43.97,6.72.97,3.12,0,6.29-.62,9.33-1.93,5.13-2.21,9.23-6.06,11.74-10.98.39,2.4-.03,4.94-1.24,7.39Z"/>
        </g>
        <g>
          <path class="cls-8" d="M107.67,104.35c-2.25-5.22-7.18-8.49-12.6-8.96-5.94-6.69-15.71-9.17-24.38-5.44-8.67,3.73-13.6,12.52-12.82,21.44-3.38,4.26-4.41,10.09-2.16,15.32,2.78,6.46,9.67,9.94,16.51,8.83,4.6,4.16,12.12,5.29,19.07,2.3,6.95-2.99,11.3-9.22,11.45-15.42,5.5-4.2,7.72-11.6,4.95-18.06Z"/>
          <path class="cls-1" d="M109.85,103.42c-2.39-5.56-7.56-9.42-13.63-10.28-2.32-2.42-5.14-4.34-8.34-5.61-5.88-2.34-12.33-2.26-18.14.24-9.32,4.01-14.76,13.32-14.31,22.91-3.56,4.99-4.31,11.41-1.92,16.97,2.77,6.44,9.16,10.47,16.14,10.47.61,0,1.22-.03,1.83-.1,3.19,2.5,7.36,3.87,11.79,3.87,2.94,0,5.99-.6,8.94-1.87,4.89-2.1,8.8-5.71,11.02-10.17,1.02-2.05,1.62-4.17,1.82-6.27,5.83-5.04,7.82-13.17,4.81-20.16ZM105.49,105.29c1.7,3.96,1.18,8.43-1.16,11.96-.14-.43-.3-.86-.48-1.28-.38-.88-.84-1.72-1.37-2.49.76-4.46.23-9.05-1.6-13.3-.07-.17-.15-.33-.23-.49,2.12,1.33,3.82,3.26,4.83,5.6ZM71.62,92.13c2.41-1.03,4.94-1.55,7.49-1.55,2.37,0,4.75.45,7.02,1.36,4.7,1.87,8.4,5.47,10.4,10.12,2,4.65,2.07,9.8.2,14.51-.42,1.07-.94,2.08-1.54,3.03-.12-1.64-.6-3.27-1.45-4.76-1.48-2.61-3.81-4.52-6.42-5.5.53-.59,1.01-1.21,1.43-1.85,1.87-2.89,2.29-6.07,1.15-8.72-1.14-2.65-3.74-4.53-7.13-5.16-3.09-.58-6.63-.11-9.95,1.32-7.3,3.14-11.23,9.74-8.96,15.03,1.14,2.65,3.74,4.53,7.13,5.16.86.16,1.76.24,2.67.24,2.37,0,4.88-.53,7.27-1.56,2.66-1.15,6.63-.19,8.66,3.38.9,1.59,2.36,5.7-3.24,9.88-9.55,3.96-20.57-.5-24.67-10.02-4.13-9.6.32-20.77,9.93-24.9ZM73.98,103.87c-.92,2.09-1.16,4.34-.73,6.72-.48-.02-.95-.06-1.4-.14-1.06-.2-2.94-.77-3.63-2.37-1.16-2.7,1.86-6.81,6.47-8.79,1.39-.6,2.84-.97,4.23-1.11-2.33,1.63-3.99,3.54-4.94,5.7ZM77.96,109.85c-.29-1.48-.17-2.83.37-4.07.97-2.21,3.29-4.12,6.9-5.68.11.16.22.34.3.53.69,1.6-.19,3.36-.78,4.27-1.19,1.83-3.26,3.48-5.69,4.53-.36.16-.73.29-1.1.42ZM57.88,125.77c-1.01-2.35-1.24-4.91-.75-7.36.07.17.13.34.2.5,1.87,4.34,4.89,7.84,8.55,10.29.21.93.5,1.84.88,2.72.18.42.38.83.6,1.23-4.17-.73-7.78-3.43-9.48-7.39ZM98.97,127.73c-1.71,3.45-4.78,6.26-8.64,7.92-6.84,2.94-14.3,1.39-17.91-3.37,2.17.64,4.43.97,6.72.97,3.12,0,6.29-.62,9.33-1.93,5.13-2.21,9.23-6.06,11.74-10.98.39,2.4-.03,4.94-1.24,7.39Z"/>
        </g>
      </g>
      <path class="cls-9" d="M133.94,199.2c-26.08,3.78-54.17-12.9-48.19-26.94,5.98-14.05,42.69,4.8,42.69,4.8l5.5,22.14Z"/>
      <path class="cls-7" d="M126.13,202.14c-17.28,0-33.21-7.62-39.89-16.3-3.67-4.77-4.62-9.92-2.66-14.5,1.15-2.7,3.22-4.61,6.17-5.67,5.4-1.96,13.8-.95,24.96,2.98,8.06,2.84,14.56,6.17,14.84,6.31,1.17.6,1.63,2.03,1.03,3.2-.6,1.17-2.03,1.63-3.2,1.03-7.02-3.6-27.17-12.24-36.01-9.05-1.67.61-2.79,1.61-3.41,3.07-1.29,3.02-.59,6.3,2.06,9.75,6.74,8.75,25.32,16.56,43.6,13.92,7.58-1.1,12.47-3.91,14.54-8.37,3.2-6.9-.02-18.64-9.04-33.05-.7-1.11,3.33-3.63,4.03-2.52,7.01,11.19,14.32,26.79,9.33,37.56-2.78,6-8.89,9.73-18.17,11.07-2.73.4-5.46.58-8.15.58Z"/>
      <g>
        <path class="cls-9" d="M36.97,178.56c3.99-5.38,11.59-6.5,16.96-2.5,5.38,3.99,6.5,11.59,2.5,16.96-3.99,5.38-9.73,4-15.1,0-5.38-3.99-8.35-9.09-4.36-14.46Z"/>
        <path class="cls-7" d="M49.96,198.93c-.24,0-.47,0-.72-.02-2.9-.19-6.04-1.53-9.33-3.97-7.4-5.49-9.16-11.98-4.85-17.79h0c2.31-3.11,5.69-5.13,9.52-5.7,3.83-.57,7.65.39,10.76,2.7,6.42,4.77,7.76,13.87,2.99,20.28-2.19,2.95-5.08,4.49-8.38,4.49ZM38.88,179.98c-.98,1.32-3.96,5.33,3.87,11.14,2.51,1.87,4.87,2.92,6.81,3.05,2,.13,3.58-.68,4.97-2.56,1.55-2.09,2.2-4.66,1.82-7.24-.38-2.58-1.74-4.85-3.83-6.4-2.09-1.55-4.66-2.2-7.24-1.82-2.58.38-4.85,1.74-6.4,3.83h0Z"/>
      </g>
      <path class="cls-2" d="M33.04,26.54l1.59.94.94-1.59c3.9-6.58,12.4-8.76,18.98-4.85h0c6.58,3.9,8.76,12.4,4.85,18.98l-5.17,8.71c-5.47,9.23-17.39,12.28-26.62,6.81l-8.71-5.17c-6.58-3.9-8.76-12.4-4.85-18.98h0c3.9-6.58,12.4-8.76,18.98-4.85Z"/>
      <path class="cls-8" d="M177.51,164.13l.47,1.24,1.24-.47c5.12-1.94,10.84.64,12.78,5.76h0c1.94,5.12-.64,10.84-5.76,12.78l-6.78,2.57c-7.18,2.72-15.2-.9-17.92-8.08l-2.57-6.78c-1.94-5.12.64-10.84,5.76-12.78h0c5.12-1.94,10.84.64,12.78,5.76Z"/>
      <path class="cls-2" d="M10.46,65.09l1.05.3.3-1.05c1.26-4.34,5.79-6.83,10.13-5.57h0c4.34,1.26,6.83,5.79,5.57,10.13l-1.67,5.74c-1.77,6.08-8.13,9.58-14.21,7.81l-5.74-1.67c-4.34-1.26-6.83-5.79-5.57-10.13H.33c1.26-4.34,5.79-6.83,10.13-5.57Z"/>
    </g>
  </g>
</svg>