<?xml version="1.0" encoding="UTF-8"?>
<svg id="Capa_2" xmlns="http://www.w3.org/2000/svg" viewBox="0 0 199.66 220.69">
  <defs>
    <style>
      .cls-1 {
        fill: #f6608e;
      }

      .cls-2 {
        fill: #fff;
      }

      .cls-3 {
        fill: #678490;
      }

      .cls-4 {
        fill: #65e1e9;
      }

      .cls-5 {
        fill: #93f6f8;
      }

      .cls-6 {
        fill: #fd80a6;
      }

      .cls-7 {
        fill: #b1b9c6;
      }

      .cls-8 {
        fill: #91a2b5;
      }

      .cls-9 {
        fill: #605c5d;
      }
    </style>
  </defs>
  <g id="OBJECTS">
    <g>
      <path class="cls-7" d="M82.32,162.01s14.45,10.32,14.45,37.05l52.9-21.53-51.66-84.72-15.69,69.2"/>
      <path class="cls-3" d="M96.77,201.43c-1.31,0-2.38-1.06-2.38-2.38,0-25.04-12.92-34.72-13.47-35.12-1.06-.77-1.3-2.25-.54-3.31.76-1.06,2.24-1.31,3.3-.55.63.45,15.45,11.34,15.45,38.98,0,1.31-1.06,2.38-2.38,2.38Z"/>
      <g>
        <path class="cls-7" d="M133.26,2.98c-11.16-4.7-30.55,20.03-38.82,31.56-5.88,1.33-13.14,3.85-21.26,7.2-8.15,3.28-15.1,6.55-20.24,9.71-13.98-2.46-45.12-6.58-49.82,4.58-4.66,11.08,13.14,29.03,21.68,36.77-1.7,11.44.42,22.35,3.97,31.05,3.07,7.52,7.02,14.66,11.88,21.44,9.49,13.22,25.67,19.75,41.66,16.72,12.35-2.34,24.22-5.84,35.63-10.49,11.41-4.65,22.34-10.45,32.81-17.41,13.55-9.01,20.55-24.99,18.09-41.08-1.26-8.24-3.43-16.12-6.49-23.63-3.54-8.69-9.65-17.97-18.86-24.97.68-11.5.86-36.79-10.22-41.45Z"/>
        <path class="cls-6" d="M76.56,123.25c-1.93-4-7.78-5.18-13.07-2.63-5.29,2.55-8.02,7.86-6.09,11.86,1.93,4,7.78,5.18,13.07,2.63,5.29-2.55,8.02-7.86,6.09-11.86Z"/>
        <path class="cls-6" d="M152.74,90.69c-1.93-4-7.78-5.18-13.07-2.63-5.29,2.55-8.02,7.86-6.09,11.86,1.93,4,7.78,5.18,13.07,2.63,5.29-2.55,8.02-7.86,6.09-11.86Z"/>
        <g>
          <path class="cls-8" d="M83.45,43.81c5.07,12.44,5.56,24,1.11,25.82-4.46,1.82-12.19-6.79-17.26-19.23-.7-1.71-1.3-3.39-1.82-5.04,5.15-2.38,10.4-4.52,15.75-6.41.78,1.54,1.52,3.17,2.22,4.86Z"/>
          <g>
            <path class="cls-8" d="M64.44,46.8c5.07,12.43,5.57,24,1.11,25.82-4.29,1.75-11.64-6.2-16.7-17.91,2.48-1.85,5.14-3.54,7.95-5.03,2.41-1.27,4.85-2.5,7.31-3.66.12.26.22.52.33.79Z"/>
            <path class="cls-8" d="M99.6,33.88c4.61,11.96,4.93,22.84.63,24.59-4.46,1.82-12.18-6.8-17.25-19.24-.11-.27-.21-.52-.31-.79,2.95-1.02,5.94-1.97,8.95-2.84,2.65-.77,5.32-1.34,7.99-1.72Z"/>
          </g>
        </g>
        <path class="cls-2" d="M131.78,25.91s2.48,2.39,4.02,5.57c1.43,2.94.55,5.99-1.44,7.92-7.32-3.65-15.39-5.78-23.68-6.17-.6-1.67-.57-3.56.27-5.31,3.37-7.05,8.63-15.32,14.74-15.32,10.65,0,6.09,13.31,6.09,13.31Z"/>
        <path class="cls-2" d="M20.22,71.39s-.1,3.44,1.03,6.79c1.03,3.1,3.79,4.67,6.57,4.66,2.68-7.73,6.96-14.9,12.62-20.97-.74-1.61-2.08-2.94-3.9-3.61-7.34-2.69-16.88-4.92-21.26-.65-7.61,7.45,4.95,13.77,4.95,13.77Z"/>
        <path class="cls-3" d="M171.19,92.67c-1.28-8.38-3.51-16.51-6.64-24.17-2.65-6.5-8.19-16.92-18.63-25.2.73-14.31,0-37.57-11.74-42.51-5.88-2.47-13.42.85-23.06,10.17-6.99,6.76-13.6,15.27-18.08,21.47-5.61,1.35-12.55,3.72-20.74,7.1-8.24,3.31-14.86,6.47-19.82,9.43-7.41-1.28-17.85-2.71-27.42-2.71-.18,0-.35,0-.53,0-13.4.08-21.12,2.97-23.6,8.85-4.95,11.77,10.8,28.88,21.34,38.6-1.67,13.22,1.65,24.54,4.3,31.04,3.12,7.67,7.21,15.04,12.15,21.92,4.92,6.86,11.64,12.14,19.43,15.27,5.23,2.1,10.78,3.17,16.37,3.17,2.74,0,5.5-.26,8.22-.77,12.44-2.36,24.58-5.94,36.08-10.63,11.5-4.69,22.68-10.62,33.23-17.63,7.02-4.67,12.52-11.21,15.91-18.91,3.38-7.68,4.49-16.16,3.22-24.51ZM149.44,132.13c-10.29,6.84-21.18,12.62-32.39,17.19-11.21,4.57-23.04,8.05-35.17,10.36-14.95,2.83-30.37-3.36-39.28-15.77-4.72-6.58-8.63-13.63-11.61-20.95-3.3-8.11-7.76-24.33-.46-41.92.5-1.21-.07-2.6-1.28-3.1-1.21-.5-2.6.07-3.1,1.28-1.25,3.02-2.19,6-2.86,8.91-13.93-13.34-20.61-24.85-17.95-31.17,2.56-6.09,18.26-7.58,41.47-4.09-2.94,2.33-5.66,4.8-8.09,7.35-.9.95-.87,2.45.08,3.36.46.44,1.05.65,1.64.65.63,0,1.25-.25,1.72-.74,2.4-2.52,5.1-4.96,8.03-7.26,4.67-3.65,12.71-7.79,23.92-12.3,11.15-4.6,19.79-7.27,25.68-7.92,3.7-.41,7.34-.55,10.82-.43,1.32.06,2.41-.98,2.46-2.29s-.98-2.41-2.29-2.46c-3.52-.13-7.2,0-10.93.4,14.15-18.72,26.41-28.63,32.51-26.06,6.31,2.66,9.59,15.55,8.97,34.83-2.52-1.61-5.27-3.09-8.27-4.37-1.21-.52-2.6.05-3.12,1.25-.51,1.21.05,2.6,1.25,3.12,17.52,7.48,25.68,22.19,28.98,30.29,2.98,7.32,5.12,15.09,6.34,23.1,2.31,15.11-4.39,30.31-17.06,38.74Z"/>
        <g>
          <path class="cls-9" d="M118.79,96.45c-.94,0-1.82-.56-2.2-1.48-1.06-2.59-1.04-5.43.04-8.01,1.08-2.58,3.11-4.58,5.7-5.63,5.34-2.18,11.46.4,13.64,5.74.5,1.21-.09,2.6-1.3,3.1-1.21.5-2.6-.09-3.1-1.3-1.19-2.92-4.53-4.32-7.45-3.13-1.41.58-2.52,1.67-3.11,3.08-.59,1.41-.6,2.96-.02,4.37.5,1.22-.09,2.6-1.3,3.1-.29.12-.6.18-.9.18Z"/>
          <path class="cls-9" d="M62.19,119.53c-.94,0-1.82-.56-2.2-1.48-1.06-2.59-1.04-5.43.04-8.01,1.08-2.58,3.11-4.58,5.7-5.63,5.34-2.18,11.46.4,13.64,5.74.5,1.21-.09,2.6-1.3,3.1-1.21.5-2.6-.09-3.1-1.3-1.19-2.92-4.53-4.32-7.45-3.13-1.41.58-2.52,1.67-3.11,3.08-.59,1.41-.6,2.96-.02,4.37.5,1.21-.09,2.6-1.3,3.1-.29.12-.6.18-.9.18Z"/>
        </g>
        <g>
          <g>
            <path class="cls-8" d="M139.45,97.74c-.94,0-1.82-.56-2.2-1.48-.5-1.21.09-2.6,1.3-3.1l11.84-4.83c1.21-.5,2.6.09,3.1,1.3.5,1.21-.09,2.6-1.3,3.1l-11.84,4.83c-.29.12-.6.18-.9.18Z"/>
            <path class="cls-8" d="M142.52,105.28c-1.28,0-2.33-1.01-2.37-2.3-.04-1.31.99-2.41,2.3-2.45l11.15-.36c1.33-.05,2.41.99,2.45,2.3.04,1.31-.99,2.41-2.3,2.45l-11.15.36s-.05,0-.08,0Z"/>
          </g>
          <g>
            <path class="cls-8" d="M56.77,131.45c-.94,0-1.82-.56-2.2-1.48-.5-1.21.09-2.6,1.3-3.1l11.84-4.83c1.21-.5,2.6.09,3.1,1.3.5,1.21-.09,2.6-1.3,3.1l-11.84,4.83c-.29.12-.6.18-.9.18Z"/>
            <path class="cls-8" d="M63.45,141.7c-.64,0-1.28-.26-1.75-.77-.89-.97-.82-2.47.15-3.36l8.22-7.54c.97-.89,2.47-.82,3.36.15.89.97.82,2.47-.15,3.36l-8.22,7.54c-.46.42-1.03.62-1.6.62Z"/>
          </g>
        </g>
        <g>
          <path class="cls-2" d="M108.5,81.14c-.94,0-1.82-.56-2.2-1.48-.5-1.21.09-2.6,1.3-3.1l6.21-2.53c1.21-.5,2.6.09,3.1,1.3.5,1.21-.09,2.6-1.3,3.1l-6.21,2.53c-.29.12-.6.18-.9.18Z"/>
          <path class="cls-2" d="M67.62,97.8c-.94,0-1.82-.56-2.2-1.48-.5-1.21.09-2.6,1.3-3.1l6.21-2.53c1.21-.5,2.6.09,3.1,1.3.5,1.21-.09,2.6-1.3,3.1l-6.21,2.53c-.29.12-.6.18-.9.18Z"/>
        </g>
        <path class="cls-3" d="M92.09,101.98c-.85,0-1.68-.46-2.1-1.27-.61-1.16-.17-2.6.99-3.21l5.76-3.04c1.16-.61,2.6-.17,3.21.99.61,1.16.17,2.6-.99,3.21l-5.76,3.04c-.35.19-.73.27-1.11.27Z"/>
        <path class="cls-3" d="M85.84,116c-1.18,0-2.21-.88-2.35-2.09-.16-1.3.77-2.48,2.07-2.64h0c.15-.02,15.08-1.98,25.77-12.67.93-.93,2.43-.93,3.36,0,.93.93.93,2.43,0,3.36-11.87,11.87-27.88,13.94-28.55,14.02-.1.01-.19.02-.29.02Z"/>
        <path class="cls-3" d="M100.64,111.31c-.86,0-1.68-.46-2.11-1.28l-5.67-10.85c-.61-1.16-.16-2.6,1-3.21,1.16-.61,2.6-.16,3.21,1l5.67,10.85c.61,1.16.16,2.6-1,3.21-.35.18-.73.27-1.1.27Z"/>
      </g>
      <g>
        <polygon class="cls-5" points="106.53 156.81 106.53 203.71 166.44 207.92 195.73 179.42 192.44 131.62 106.53 156.81"/>
        <polygon class="cls-5" points="197.28 119.79 139.67 119.79 100.64 148.55 100.64 163.64 166.82 166.51 197.28 134.89 197.28 119.79"/>
        <path class="cls-4" d="M197.28,117.42h-57.61c-.51,0-1,.16-1.41.46l-39.03,28.76c-.61.45-.97,1.16-.97,1.91v15.09c0,1.27,1,2.32,2.27,2.37l3.62.16v37.53c0,1.25.96,2.28,2.21,2.37l59.91,4.21c.06,0,.11,0,.17,0,.62,0,1.21-.24,1.66-.67l29.28-28.49c.5-.49.76-1.17.71-1.87l-2.69-39.01,3.58-3.72c.43-.44.66-1.03.66-1.65v-15.09c0-1.31-1.06-2.38-2.38-2.38ZM168.6,202.51l-.95-23.18c-.05-1.31-1.15-2.32-2.47-2.28-1.31.05-2.33,1.16-2.28,2.47l1.06,25.84-55.05-3.87v-35.11l57.81,2.51s.07,0,.1,0c.64,0,1.26-.26,1.71-.73l22.44-23.29,2.32,33.62-24.68,24.02ZM194.91,133.93l-29.05,30.17-62.84-2.72v-11.62l37.43-27.58h54.46v11.76Z"/>
        <polygon class="cls-6" points="143.95 130.71 127.07 148.97 130.16 208.21 146.92 210.29 143.95 152.43 155.22 138.13 143.95 130.71"/>
        <path class="cls-1" d="M146.92,212.67c-.1,0-.2,0-.29-.02l-16.76-2.08c-1.14-.14-2.02-1.08-2.08-2.23l-3.08-59.24c-.03-.64.19-1.27.63-1.74l16.88-18.27c.89-.96,2.39-1.02,3.36-.13.96.89,1.02,2.39.13,3.36l-16.2,17.53,2.93,56.25,11.97,1.49-2.82-55.04c-.03-.57.15-1.14.51-1.59l11.27-14.29c.81-1.03,2.31-1.21,3.34-.39,1.03.81,1.21,2.31.39,3.34l-10.71,13.59,2.92,56.97c.04.7-.24,1.38-.75,1.86-.44.41-1.02.64-1.62.64Z"/>
        <g>
          <path class="cls-6" d="M157.41,120.04s16.42-13.08,22.97-4.64c6.55,8.44-8.6,17.17-8.6,17.17,0,0,9.81,12.64-.3,18.47-10.11,5.83-19.01-11.22-19.01-11.22l-19.58-3.07s-16.42,13.08-22.97,4.64c-6.55-8.44,8.6-17.17,8.6-17.17,0,0-9.81-12.64.3-18.47,10.11-5.83,19.01,11.22,19.01,11.22l19.58,3.07Z"/>
          <path class="cls-1" d="M182.25,113.94c-1.64-2.11-3.85-3.34-6.58-3.67-6.98-.83-15.6,4.87-18.64,7.08-.57-.44-1.21-.83-1.9-1.13-4.14-1.85-8.61-2.59-13.3-2.2-.92.08-1.82.26-2.67.54-1.79-2.99-6.62-10.09-12.93-11.93-2.97-.87-5.87-.5-8.61,1.08-3.07,1.77-4.94,4.25-5.55,7.36-.93,4.75,1.46,9.74,3.13,12.49-.83.58-1.82,1.33-2.84,2.21-3.56,3.08-5.67,6.22-6.28,9.32-.54,2.74.14,5.42,1.96,7.77,1.64,2.11,3.85,3.34,6.58,3.67.47.06.95.08,1.43.08,6.68,0,14.38-5.1,17.21-7.16.57.44,1.21.83,1.9,1.13,3.43,1.53,7.09,2.3,10.9,2.3.94,0,1.9-.05,2.86-.14.76-.07,1.51-.24,2.22-.47,1.81,3.01,6.62,10.07,12.91,11.9,1.05.31,2.09.46,3.12.46,1.88,0,3.72-.51,5.5-1.54,3.07-1.77,4.94-4.25,5.55-7.36.93-4.75-1.46-9.74-3.13-12.49.83-.58,1.82-1.33,2.84-2.22,3.56-3.08,5.67-6.22,6.28-9.32.54-2.74-.14-5.42-1.96-7.77ZM115.18,141.79c-1.46-.17-2.53-.77-3.38-1.86-.99-1.28-1.33-2.53-1.05-3.94.82-4.19,6.74-8.44,8.96-9.72.59-.34,1.01-.93,1.14-1.6.13-.67-.03-1.37-.45-1.91-1.28-1.65-4.43-6.81-3.65-10.8.34-1.73,1.41-3.09,3.26-4.16,1.6-.92,3.2-1.13,4.91-.63,4.32,1.25,8.35,6.73,10.18,9.78-.64.61-1.19,1.3-1.62,2.05-.35.61-.67,1.23-.97,1.85-.24-.57-.54-1.12-.9-1.64l-1.66-2.43c-.74-1.08-2.22-1.36-3.3-.62-1.08.74-1.36,2.22-.62,3.3l1.66,2.43c.72,1.05.97,2.24.72,3.44-.29,1.42-1.23,2.71-2.65,3.63l-2.7,1.75c-1.1.71-1.42,2.18-.7,3.28.45.7,1.22,1.08,2,1.08.44,0,.89-.12,1.29-.38l2.7-1.75c.57-.37,1.1-.78,1.59-1.23,0,.49,0,.98.02,1.47.04.84.21,1.66.49,2.43-3.34,2.43-10.42,6.74-15.24,6.16ZM148.45,138c-4.02.39-7.84-.2-11.36-1.77-1.43-.64-2.36-1.88-2.42-3.24-.17-4.03.81-7.94,2.91-11.64.82-1.44,2.6-2.44,4.65-2.61.67-.06,1.33-.08,1.99-.08,3.15,0,6.16.63,8.97,1.89,1.43.64,2.36,1.88,2.42,3.24.17,4.03-.81,7.95-2.92,11.65-.8,1.41-2.43,2.39-4.25,2.57ZM179.55,120.78c-.82,4.19-6.74,8.44-8.96,9.72-.59.34-1.01.93-1.14,1.6-.13.67.03,1.37.45,1.91,1.28,1.66,4.44,6.85,3.65,10.81-.34,1.73-1.41,3.08-3.26,4.15-1.6.92-3.2,1.13-4.91.63-4.32-1.25-8.34-6.71-10.17-9.76.63-.61,1.18-1.3,1.61-2.05.35-.62.67-1.24.97-1.86.24.57.54,1.11.9,1.64l1.66,2.43c.46.67,1.21,1.04,1.96,1.04.46,0,.93-.13,1.34-.41,1.08-.74,1.36-2.22.62-3.3l-1.66-2.43c-.72-1.05-.97-2.24-.72-3.44.29-1.42,1.23-2.71,2.65-3.63l2.7-1.75c1.1-.71,1.42-2.18.7-3.28-.71-1.1-2.18-1.42-3.28-.7l-2.7,1.75c-.57.37-1.1.78-1.59,1.23,0-.49,0-.98-.02-1.47-.04-.84-.21-1.66-.49-2.43,3.34-2.43,10.42-6.74,15.24-6.16,1.46.17,2.53.77,3.38,1.86.99,1.28,1.33,2.53,1.05,3.94Z"/>
        </g>
      </g>
      <g>
        <path class="cls-7" d="M186.48,197.75c-2.95-7.49-11.4-11.17-18.89-8.23-7.49,2.95-11.17,11.4-8.23,18.89s10.03,7.69,17.52,4.75c7.49-2.95,12.54-7.92,9.6-15.41Z"/>
        <path class="cls-3" d="M168.85,217.29c-5.53,0-9.63-2.72-11.7-8-3.42-8.7.87-18.55,9.57-21.97,8.69-3.42,18.55.87,21.97,9.57h0c1.67,4.25,1.27,8.28-1.17,11.67-1.98,2.76-5.27,5.06-9.77,6.83-3.25,1.28-6.25,1.91-8.9,1.91ZM172.9,190.89c-1.48,0-2.99.27-4.45.85-6.26,2.46-9.35,9.56-6.89,15.81,3.09,7.87,11.64,4.51,14.44,3.4,3.59-1.41,6.23-3.2,7.65-5.18,1.49-2.07,1.68-4.41.6-7.15h0c-1.89-4.8-6.5-7.73-11.36-7.73Z"/>
      </g>
      <g>
        <path class="cls-7" d="M113.52,215.91c6.31-5,7.36-14.17,2.36-20.47-5-6.31-14.17-7.36-20.47-2.36-6.31,5-4.43,11.84.57,18.15s11.23,9.69,17.54,4.69Z"/>
        <path class="cls-3" d="M107.24,220.69c-1.24,0-2.5-.21-3.75-.64-3.22-1.09-6.37-3.57-9.38-7.36-3-3.79-4.7-7.43-5.03-10.81-.4-4.15,1.27-7.84,4.84-10.68,3.55-2.81,7.98-4.08,12.47-3.56,4.5.52,8.52,2.76,11.33,6.31,5.81,7.32,4.57,18-2.75,23.81-2.44,1.94-5.07,2.92-7.75,2.92ZM104.44,192.29c-2.74,0-5.38.92-7.55,2.64-2.31,1.83-3.32,3.96-3.07,6.49.24,2.42,1.63,5.3,4.02,8.32s4.88,5.03,7.18,5.81c2.41.82,4.71.33,7.02-1.51,5.27-4.18,6.16-11.86,1.98-17.13-2.02-2.55-4.92-4.16-8.16-4.54-.48-.05-.95-.08-1.42-.08Z"/>
      </g>
    </g>
  </g>
</svg>