<?xml version="1.0" encoding="UTF-8"?>
<svg id="Capa_2" data-name="Capa 2" xmlns="http://www.w3.org/2000/svg" viewBox="0 0 167.39 220.69">
  <defs>
    <style>
      .cls-1 {
        fill: #ab8d96;
      }

      .cls-2 {
        fill: #5f5c5d;
      }

      .cls-3 {
        fill: #f9cb71;
      }

      .cls-4 {
        fill: #fff;
      }

      .cls-5 {
        fill: #e2e2e2;
      }

      .cls-6 {
        fill: #c9adb5;
      }

      .cls-7 {
        fill: #95a1b3;
      }

      .cls-8 {
        fill: #ea9c71;
      }

      .cls-9 {
        fill: #b2b8c4;
      }

      .cls-10 {
        fill: #ffffa1;
      }

      .cls-11 {
        fill: #ffbe8d;
      }

      .cls-12 {
        fill: #70838e;
      }

      .cls-13 {
        fill: #a3d676;
      }

      .cls-14 {
        fill: #87b758;
      }
    </style>
  </defs>
  <g id="OBJECTS">
    <g>
      <g>
        <path class="cls-9" d="M21.48,39.45c-2.91-8.97-4.45-18.76.25-23.45,7.63-7.63,31.95,6.25,42.66,12.98,5.3-.88,12.13-1.24,19.97-1.21,7.83-.03,14.68.33,19.97,1.21,10.71-6.73,35.04-20.62,42.67-12.98,4.8,4.8,3.09,14.89.07,23.99-14.9-7.17-37.75-11.76-63.37-11.76s-47.3,4.36-62.22,11.22Z"/>
        <g>
          <path class="cls-12" d="M19.96,42.34c-4.84-13.71-4.81-23.14.08-28.03,8.13-8.13,29.29,2.4,45.6,12.66l-2.53,4.02c-20.08-12.63-35.3-17.73-39.72-13.32-3.39,3.39-3.02,11.59,1.04,23.09l-4.48,1.58Z"/>
          <path class="cls-12" d="M148.59,42.82l-4.47-1.6c4.2-11.76,4.62-20.12,1.19-23.55-4.42-4.42-19.64.68-39.72,13.32l-2.53-4.02c16.31-10.27,37.47-20.8,45.6-12.66,4.94,4.94,4.92,14.53-.07,28.51Z"/>
        </g>
        <path class="cls-4" d="M138.05,34.42s1.24,2.81,1.44,5.95c.19,2.91-1.56,5.13-3.85,6.05-4.82-5.48-10.76-9.95-17.47-13.06.06-1.58.72-3.13,2.01-4.29,5.15-4.69,12.28-9.74,17.33-7.69,8.79,3.59.55,13.03.55,13.03Z"/>
        <path class="cls-4" d="M30.67,34.42s-1.24,2.81-1.44,5.95c-.19,2.91,1.56,5.13,3.85,6.05,4.82-5.48,10.76-9.95,17.47-13.06-.06-1.58-.72-3.13-2.01-4.29-5.15-4.69-12.28-9.74-17.33-7.69-8.79,3.59-.55,13.03-.55,13.03Z"/>
        <path class="cls-10" d="M127.79,36.01c0-18.57-19.44-33.63-43.42-33.63s-43.42,15.06-43.42,33.63"/>
        <path class="cls-10" d="M165.01,59.73c0-7.47-6.71-14.34-17.94-19.74-14.9-7.17-37.75-11.76-63.37-11.76s-47.3,4.36-62.22,11.22c-11.92,5.48-19.11,12.56-19.11,20.28h0c0,17.4,36.41,31.5,81.32,31.5s81.32-14.1,81.32-31.5"/>
        <path class="cls-3" d="M83.7,93.61c-22.01,0-42.73-3.33-58.36-9.39C9,77.89,0,69.2,0,59.74h4.75c0,7.26,8.13,14.57,22.3,20.06,15.09,5.85,35.21,9.06,56.64,9.06s41.55-3.22,56.64-9.06c14.17-5.49,22.3-12.8,22.3-20.06h4.75c0,9.46-9,18.16-25.34,24.49-15.63,6.05-36.35,9.39-58.36,9.39Z"/>
        <path class="cls-9" d="M143.92,58.34c3.42,7.52,4.73,15.35,4.73,22.26s-.86,14.46-2.6,21.69c-3.38,14.11-14.54,24.94-28.75,27.82-10.98,2.22-21.96,3.33-32.94,3.33s-21.96-1.11-32.94-3.33c-14.22-2.88-25.37-13.71-28.76-27.82-1.73-7.23-2.6-14.46-2.6-21.69s1.36-15.03,4.93-22.68c38.92-10.73,80.06-10.59,118.92.42Z"/>
        <path class="cls-12" d="M84.36,135.82c-11.09,0-22.33-1.14-33.41-3.38-15-3.04-27.01-14.66-30.59-29.59-1.77-7.36-2.66-14.85-2.66-22.25,0-5.78.89-14.58,5.15-23.69l4.3,2.01c-3.89,8.32-4.7,16.38-4.7,21.68,0,7.03.85,14.14,2.53,21.14,3.15,13.15,13.72,23.37,26.92,26.05,10.77,2.18,21.69,3.28,32.47,3.28s21.69-1.1,32.47-3.28c13.2-2.67,23.76-12.9,26.92-26.05,1.68-7,2.53-14.11,2.53-21.14,0-5.18-.78-13.08-4.52-21.28l4.32-1.97c4.09,8.98,4.95,17.6,4.95,23.25,0,7.4-.9,14.88-2.66,22.25-3.58,14.94-15.59,26.55-30.59,29.59-11.08,2.24-22.32,3.38-33.41,3.38Z"/>
        <g>
          <path class="cls-2" d="M118.82,86.31c0-3.98-3.23-7.21-7.21-7.21s-7.21,3.23-7.21,7.21,3.23,7.21,7.21,7.21,7.21-3.23,7.21-7.21Z"/>
          <path class="cls-2" d="M64.33,86.31c0-3.98-3.23-7.21-7.21-7.21s-7.21,3.23-7.21,7.21,3.23,7.21,7.21,7.21,7.21-3.23,7.21-7.21Z"/>
        </g>
        <g>
          <g>
            <path class="cls-7" d="M129.86,99.14h-11.4c-1.31,0-2.38-1.06-2.38-2.38s1.06-2.38,2.38-2.38h11.4c1.31,0,2.38,1.06,2.38,2.38s-1.06,2.38-2.38,2.38Z"/>
            <path class="cls-7" d="M127.78,109.85c-.27,0-.55-.05-.82-.15l-9.32-3.45c-1.23-.46-1.86-1.82-1.4-3.05.46-1.23,1.82-1.86,3.05-1.4l9.32,3.45c1.23.46,1.86,1.82,1.4,3.05-.35.96-1.26,1.55-2.23,1.55Z"/>
          </g>
          <g>
            <path class="cls-7" d="M50.26,99.14h-11.4c-1.31,0-2.38-1.06-2.38-2.38s1.06-2.38,2.38-2.38h11.4c1.31,0,2.38,1.06,2.38,2.38s-1.06,2.38-2.38,2.38Z"/>
            <path class="cls-7" d="M40.94,109.85c-.97,0-1.87-.59-2.23-1.55-.46-1.23.17-2.6,1.4-3.05l9.32-3.45c1.23-.46,2.6.17,3.05,1.4.46,1.23-.17,2.6-1.4,3.05l-9.32,3.45c-.27.1-.55.15-.82.15Z"/>
          </g>
        </g>
        <g>
          <path class="cls-4" d="M107.03,72.58h-5.98c-1.31,0-2.38-1.06-2.38-2.38s1.06-2.38,2.38-2.38h5.98c1.31,0,2.38,1.06,2.38,2.38s-1.06,2.38-2.38,2.38Z"/>
          <path class="cls-4" d="M67.68,72.58h-5.98c-1.31,0-2.38-1.06-2.38-2.38s1.06-2.38,2.38-2.38h5.98c1.31,0,2.38,1.06,2.38,2.38s-1.06,2.38-2.38,2.38Z"/>
        </g>
        <path class="cls-12" d="M97.04,85.51c-1.27-.32-2.56.45-2.88,1.73-.42,1.67-1.92,2.84-3.65,2.84-2.08,0-3.77-1.69-3.77-3.77,0-.02,0-.03,0-.05v-.92h.83c1.31,0,2.38-1.06,2.38-2.38s-1.06-2.38-2.38-2.38h-6.4c-1.31,0-2.38,1.06-2.38,2.38s1.06,2.38,2.38,2.38h.82v.97s0,.02,0,.02c-.01,2.06-1.7,3.74-3.76,3.74-1.73,0-3.23-1.17-3.65-2.84-.32-1.27-1.61-2.04-2.88-1.73-1.27.32-2.05,1.61-1.73,2.88.95,3.79,4.35,6.44,8.26,6.44,2.41,0,4.59-1.01,6.14-2.62,1.55,1.62,3.73,2.62,6.14,2.62,3.91,0,7.31-2.65,8.26-6.44.32-1.27-.45-2.56-1.72-2.88Z"/>
        <path class="cls-3" d="M148.1,37.85c-5.32-2.56-11.51-4.75-18.33-6.54-1.39-8.43-6.5-16.16-14.54-21.92C106.79,3.34,95.83,0,84.36,0s-22.3,3.3-30.72,9.28c-8.01,5.69-13.15,13.34-14.64,21.69-6.86,1.72-13.11,3.84-18.52,6.33C7.09,43.45,0,51.21,0,59.73c0,1.31,1.06,2.38,2.38,2.38s2.38-1.06,2.38-2.38c0-6.44,6.29-12.87,17.72-18.12,15.2-6.99,37.51-11,61.22-11s47.12,4.2,62.34,11.52c10.7,5.15,16.6,11.4,16.6,17.6,0,1.31,1.06,2.38,2.38,2.38s2.38-1.06,2.38-2.38c0-8.24-6.67-15.81-19.29-21.88ZM44.14,29.78c1.69-6.33,5.94-12.15,12.25-16.63,7.63-5.42,17.56-8.4,27.97-8.4,19.72,0,36.61,10.88,40.29,25.33-12.32-2.74-26.36-4.22-40.96-4.22s-27.56,1.38-39.56,3.93Z"/>
        <path class="cls-3" d="M18.74,62.11c-1.01,0-1.95-.66-2.27-1.68-.39-1.25.32-2.58,1.57-2.97,2.12-.65,4.25-1.27,6.33-1.84,39.35-10.85,80.92-10.7,120.19.43,1.5.42,3.06.88,4.78,1.41,1.25.39,1.96,1.72,1.57,2.97-.39,1.25-1.71,1.96-2.97,1.57-1.68-.52-3.21-.97-4.67-1.38-38.45-10.9-79.13-11.04-117.65-.42-2.04.56-4.12,1.16-6.19,1.8-.23.07-.47.11-.7.11Z"/>
      </g>
      <path class="cls-9" d="M138.38,141.56c9.12,8.26,11.95,20,6.32,26.22-5.63,6.22-17.59,4.57-26.72-3.7-9.12-8.26-16.62-29.08-10.99-35.3,5.63-6.22,22.26,4.51,31.39,12.77Z"/>
      <path class="cls-12" d="M135.3,173.93c-.96,0-1.95-.07-2.97-.21-5.51-.76-11.17-3.56-15.94-7.87-4.65-4.21-9.13-11.65-11.69-19.43-1.35-4.11-4.01-14.2.53-19.22,7.42-8.19,25.97,4.66,34.74,12.6,4.76,4.31,8.1,9.67,9.41,15.08,1.38,5.74.35,10.89-2.92,14.5-2.7,2.98-6.59,4.55-11.16,4.55ZM111.8,129.31c-1.36,0-2.4.35-3.05,1.07-4.32,4.78,2.25,24.18,10.82,31.94,8,7.24,18.7,9.01,23.36,3.86,4.66-5.15,1.85-15.62-6.16-22.87-3.94-3.57-10.33-8.45-16.45-11.44-3.47-1.7-6.4-2.57-8.53-2.57Z"/>
      <g>
        <polygon class="cls-11" points="27.39 147.48 37.74 169.45 48.14 168.43 55.55 161.05 65.95 160.04 73.34 152.66 83.74 151.65 91.14 144.28 101.53 143.26 108.92 135.89 98.57 113.93 91.18 121.31 80.78 122.31 73.39 129.69 62.99 130.7 55.6 138.08 45.19 139.09 37.79 146.48 27.39 147.48"/>
        <path class="cls-8" d="M37.74,171.82c-.91,0-1.75-.53-2.15-1.36l-10.35-21.96c-.33-.7-.3-1.51.08-2.19.38-.67,1.07-1.12,1.84-1.19l9.56-.93,6.8-6.78c.39-.39.9-.63,1.45-.68l9.55-.92,6.79-6.78c.39-.39.9-.63,1.45-.68l9.55-.92,6.79-6.78c.39-.39.9-.63,1.45-.68l9.55-.92,6.79-6.78c.55-.55,1.32-.79,2.09-.66.76.13,1.41.63,1.74,1.33l10.35,21.96c.43.91.24,1.99-.47,2.69l-7.39,7.38c-.39.39-.9.63-1.45.68l-9.55.92-6.79,6.78c-.39.39-.9.63-1.45.68l-9.55.92-6.79,6.78c-.39.39-.9.63-1.45.68l-9.55.92-6.8,6.78c-.39.39-.9.63-1.45.68l-10.4,1.01c-.08,0-.15.01-.23.01ZM30.97,149.52l8.2,17.4,7.89-.77,6.8-6.78c.39-.39.9-.63,1.45-.68l9.55-.92,6.79-6.78c.39-.39.9-.63,1.45-.68l9.55-.92,6.79-6.78c.39-.39.9-.63,1.45-.68l9.55-.92,5.61-5.6-8.2-17.4-5.01,5c-.39.39-.9.63-1.45.68l-9.55.92-6.79,6.78c-.39.39-.9.63-1.45.68l-9.55.92-6.79,6.78c-.39.39-.9.63-1.45.68l-9.55.92-6.8,6.78c-.39.39-.9.63-1.45.68l-7.05.68Z"/>
        <circle class="cls-13" cx="73.76" cy="121.5" r="21.12" transform="translate(-42.34 39.5) rotate(-23.51)"/>
        <path class="cls-14" d="M73.78,145c-9.82,0-19-6.21-22.29-16.02h0c-2-5.95-1.56-12.32,1.23-17.94,2.79-5.62,7.61-9.81,13.56-11.81,5.95-2,12.32-1.56,17.94,1.23,5.62,2.79,9.81,7.61,11.81,13.56,2,5.95,1.56,12.32-1.23,17.94-2.79,5.62-7.61,9.82-13.56,11.81-2.47.83-4.99,1.22-7.46,1.22ZM55.99,127.47c3.29,9.8,13.94,15.09,23.74,11.8,9.8-3.29,15.09-13.94,11.8-23.74-1.59-4.75-4.94-8.59-9.42-10.82-4.48-2.23-9.57-2.58-14.31-.98-4.75,1.59-8.59,4.94-10.82,9.42-2.23,4.48-2.58,9.57-.98,14.31h0Z"/>
        <ellipse class="cls-6" cx="53.89" cy="147.69" rx="17.63" ry="35.91" transform="translate(-86.8 77.53) rotate(-43.45)"/>
        <path class="cls-1" d="M37.39,145.14c-.48,0-.97-.15-1.39-.45-1.06-.77-1.3-2.25-.53-3.32,5.99-8.28,14.67-10.7,15.03-10.8,1.27-.34,2.57.41,2.91,1.67.34,1.26-.4,2.57-1.67,2.91h0c-.07.02-7.46,2.13-12.43,9-.46.64-1.19.98-1.93.98Z"/>
        <path class="cls-1" d="M46.86,156.49c-.52,0-1.05-.17-1.48-.52-1.02-.82-1.19-2.32-.37-3.34,8.02-10,17.83-10.62,18.25-10.64,1.32-.07,2.43.94,2.5,2.25.07,1.31-.93,2.42-2.24,2.5-.36.02-8.18.62-14.8,8.87-.47.58-1.16.89-1.85.89Z"/>
        <path class="cls-1" d="M70.91,178.8c-9.04,0-21.09-6.31-31.55-17.35-6.84-7.22-11.9-15.36-14.25-22.91-2.53-8.12-1.66-14.74,2.45-18.64,4.11-3.89,10.77-4.41,18.74-1.44,7.42,2.76,15.27,8.25,22.11,15.47,14.76,15.58,19.95,33.84,11.8,41.55-2.37,2.25-5.58,3.32-9.3,3.32ZM42.82,158.18c13.79,14.56,28.79,18.92,34.14,13.85,5.35-5.07,1.81-20.27-11.98-34.83-6.35-6.7-13.56-11.78-20.31-14.29-6.1-2.27-11.14-2.11-13.82.44-2.69,2.55-3.12,7.57-1.19,13.78,2.14,6.87,6.82,14.35,13.17,21.06Z"/>
        <g>
          <path class="cls-4" d="M60.42,131.03l-1.65-6.27c-.4-1.51.31-3.1,1.7-3.82l18.71-9.69c1.84-.96,4.11-.02,4.73,1.96l1.47,4.66,12.42,10.68c.62.53,1.07,1.24,1.28,2.03l7.62,28.73c.49,1.85-.38,3.8-2.1,4.66l-21.39,10.72c-.51.26-1.08.4-1.65.43l-14.88.61c-1.9.08-3.59-1.17-4.08-3.01l-7.12-26.81c-.22-.83-.17-1.7.14-2.5l4.79-12.37Z"/>
          <g>
            <path class="cls-5" d="M75.34,140.72l-7.39-6.35c-1-.85-2.49-.74-3.35.25-.85,1-.74,2.49.25,3.35l3.26,2.8-5.07.57c-1.3.15-2.24,1.32-2.09,2.63.14,1.21,1.16,2.11,2.36,2.11.09,0,.18,0,.27-.02l10.49-1.18c.94-.11,1.73-.76,2-1.66.28-.9,0-1.89-.72-2.5Z"/>
            <path class="cls-5" d="M109,158.69l-7.62-28.73c-.33-1.26-1.03-2.38-2.02-3.22l-11.91-10.23-1.27-4.01c-.51-1.61-1.7-2.91-3.26-3.56-1.56-.65-3.32-.57-4.83.2l-18.71,9.69c-2.39,1.24-3.59,3.93-2.9,6.53l1.45,5.53-4.51,11.65c-.49,1.27-.57,2.65-.22,3.97l7.12,26.81c.76,2.85,3.28,4.78,6.2,4.78.09,0,.18,0,.27,0l14.88-.61c.92-.04,1.8-.26,2.62-.68l21.39-10.72c2.71-1.36,4.11-4.47,3.33-7.39ZM103.54,161.84l-21.39,10.72c-.21.11-.44.17-.68.18l-14.88.61c-.8.02-1.48-.48-1.69-1.24l-7.12-26.81c-.09-.34-.07-.7.06-1.03l4.79-12.37c.18-.47.21-.98.08-1.46l-1.65-6.27c-.12-.44.09-.9.49-1.11l18.71-9.69c.16-.08.31-.11.44-.11.16,0,.29.04.38.08.16.06.44.23.55.6l.89,2.81-13.07,7.26c-1.15.64-1.56,2.08-.92,3.23.43.78,1.24,1.22,2.08,1.22.39,0,.79-.1,1.15-.3l13.32-7.39,11.17,9.6c.26.22.44.51.53.84l7.62,28.73c.2.76-.16,1.57-.87,1.93Z"/>
          </g>
        </g>
        <polygon class="cls-11" points="37.74 169.44 69.1 218.31 125.75 191.61 108.92 135.89 101.53 143.26 91.13 144.27 83.74 151.65 73.34 152.66 65.95 160.04 55.55 161.05 48.14 168.43 37.74 169.44"/>
        <path class="cls-8" d="M69.1,220.69c-.79,0-1.55-.39-2-1.09l-31.36-48.87c-.45-.7-.5-1.57-.14-2.32.36-.74,1.08-1.25,1.91-1.33l9.56-.93,6.8-6.78c.39-.39.9-.63,1.45-.68l9.56-.93,6.79-6.77c.39-.39.9-.63,1.45-.68l9.56-.93,6.79-6.77c.39-.39.9-.63,1.45-.68l9.55-.93,6.79-6.77c.59-.59,1.45-.83,2.26-.62.81.2,1.45.82,1.69,1.62l16.82,55.72c.34,1.13-.2,2.33-1.26,2.84l-56.65,26.71c-.33.15-.67.23-1.01.23ZM41.84,171.43l28.13,43.85,52.91-24.94-15.09-49.97-4.59,4.58c-.39.39-.9.63-1.45.68l-9.55.93-6.79,6.77c-.39.39-.9.63-1.45.68l-9.56.93-6.79,6.77c-.39.39-.9.63-1.45.68l-9.56.93-6.8,6.78c-.39.39-.9.63-1.45.68l-6.53.64Z"/>
      </g>
      <g>
        <path class="cls-9" d="M122.43,131.28c4.44,6.2,5.87,12.78-.33,17.22-6.2,4.44-14.82,3.01-19.27-3.18s-3.01-14.83,3.18-19.27c6.2-4.44,11.97-.97,16.42,5.23Z"/>
        <path class="cls-12" d="M114.07,153.45c-5.05,0-10.02-2.35-13.18-6.75-5.2-7.25-3.52-17.38,3.73-22.58,3.55-2.54,7.39-3.12,11.12-1.66,3.03,1.19,5.93,3.69,8.61,7.43,5.99,8.36,5.67,15.85-.88,20.54-2.85,2.04-6.14,3.02-9.4,3.02ZM111.68,126.43c-1.42,0-2.84.52-4.29,1.56-5.12,3.67-6.31,10.83-2.64,15.95,3.67,5.12,10.83,6.31,15.95,2.64,6.44-4.62,1.43-11.61-.21-13.91h0c-2.11-2.94-4.35-4.94-6.48-5.78-.78-.31-1.55-.46-2.33-.46Z"/>
      </g>
      <g>
        <path class="cls-9" d="M39.38,189.51c-3.07-6.98-3.12-13.71,3.86-16.79,6.98-3.08,15.13.09,18.2,7.07,3.07,6.98-.09,15.13-7.07,18.2-6.98,3.07-11.92-1.5-14.99-8.48Z"/>
        <path class="cls-12" d="M50.1,201.35c-5.22,0-9.77-3.76-12.9-10.88-4.15-9.41-2.3-16.67,5.07-19.92,8.17-3.6,17.74.12,21.33,8.28,3.6,8.17-.12,17.74-8.28,21.33-1.79.79-3.54,1.18-5.22,1.18ZM48.79,173.93c-1.54,0-3.1.31-4.59.97-2.52,1.11-3.93,2.79-4.31,5.14-.37,2.26.21,5.21,1.67,8.52,4.61,10.46,10.07,8.06,11.86,7.27,5.77-2.54,8.39-9.3,5.85-15.07-1.88-4.27-6.08-6.82-10.48-6.82Z"/>
      </g>
    </g>
  </g>
</svg>