<?xml version="1.0" encoding="UTF-8"?>
<svg id="Capa_2" data-name="Capa 2" xmlns="http://www.w3.org/2000/svg" viewBox="0 0 184.66 220.69">
  <defs>
    <style>
      .cls-1 {
        fill: #b5f6f8;
      }

      .cls-2 {
        fill: #5f5c5d;
      }

      .cls-3 {
        fill: #fff;
      }

      .cls-4 {
        fill: #e6fcfc;
      }

      .cls-5 {
        fill: #63d3d6;
      }

      .cls-6 {
        fill: #95a1b3;
      }

      .cls-7 {
        fill: #ea9c71;
      }

      .cls-8 {
        fill: #757475;
      }

      .cls-9 {
        fill: #b2b8c4;
      }

      .cls-10 {
        fill: #ffbe8d;
      }

      .cls-11 {
        fill: #70838e;
      }

      .cls-12 {
        fill: #a3d676;
      }

      .cls-13 {
        fill: #87b758;
      }

      .cls-14 {
        fill: #95e0e8;
      }
    </style>
  </defs>
  <g id="OBJECTS">
    <g>
      <g>
        <path class="cls-9" d="M172,4.89c-8.53-8.53-35.71,6.99-47.68,14.51-5.92-.99-13.57-1.39-22.32-1.35-8.75-.04-16.4.37-22.32,1.35-11.97-7.53-39.15-23.04-47.68-14.51-8.47,8.47,1.2,31.72,6.17,42.07-5.87,9.92-8.02,20.78-8.02,30.13,0,8.09.96,16.17,2.9,24.24,3.33,13.89,13.4,24.93,26.62,29.57-7.59,7.74-12.18,17.79-12.18,28.79,0,24.44,22.66,44.24,50.6,44.24s50.6-19.81,50.6-44.24c0-10.22-3.97-19.63-10.62-27.12.25-.05.49-.09.74-.14,15.89-3.22,28.35-15.33,32.14-31.09,1.94-8.08,2.9-16.16,2.9-24.24,0-9.35-2.14-20.21-8.01-30.13,4.95-10.35,14.63-33.61,6.16-42.08Z"/>
        <g>
          <path class="cls-6" d="M110.69,23.82c0,13.39-3.9,24.23-8.68,24.23s-8.69-10.85-8.69-24.23c0-1.83.07-3.62.22-5.33,5.65-.26,11.3-.26,16.95,0,.14,1.71.22,3.5.22,5.32Z"/>
          <g>
            <path class="cls-6" d="M92.03,19.42c0,13.38-3.89,24.23-8.68,24.23s-8.41-10.1-8.67-22.81c2.98-.78,6.07-1.33,9.23-1.65,2.71-.27,5.41-.48,8.12-.63.01.29.01.56.01.85Z"/>
            <path class="cls-6" d="M129.32,20.74c-.25,12.76-4.04,22.92-8.67,22.92s-8.68-10.86-8.68-24.23c0-.29,0-.56.01-.85,3.11.16,6.22.42,9.33.75,2.74.29,5.41.77,8.02,1.41Z"/>
          </g>
        </g>
        <path class="cls-3" d="M162,25.48s1.38,3.14,1.61,6.65c.22,3.25-1.74,5.73-4.31,6.77-5.38-6.12-12.02-11.12-19.53-14.6.07-1.76.81-3.5,2.25-4.8,5.76-5.24,13.73-10.89,19.36-8.59,9.82,4.01.62,14.57.62,14.57Z"/>
        <path class="cls-3" d="M41.99,25.48s-1.38,3.14-1.61,6.65c-.22,3.25,1.74,5.73,4.31,6.77,5.38-6.12,12.02-11.12,19.53-14.6-.07-1.76-.81-3.5-2.24-4.8-5.76-5.24-13.73-10.89-19.36-8.59-9.82,4.01-.62,14.57-.62,14.57Z"/>
        <path class="cls-11" d="M173.68,3.21c-4.5-4.5-12.71-4.26-25.11.71-8.99,3.6-18.29,8.97-24.75,13-5.68-.86-12.97-1.28-21.8-1.24-8.84-.04-16.14.38-21.83,1.25-6.48-4.04-15.79-9.41-24.76-13-12.4-4.97-20.61-5.21-25.11-.71-8.99,8.99-.91,30.71,5.16,43.64-6.51,11.56-7.71,23.26-7.71,30.25,0,8.25,1,16.59,2.97,24.8,1.96,8.18,6.18,15.58,12.19,21.4,6.02,5.83,13.55,9.79,21.79,11.46,9.45,1.91,19.03,3.11,28.48,3.56.04,0,.08,0,.11,0,1.26,0,2.31-.99,2.37-2.26.06-1.31-.95-2.42-2.26-2.49-9.21-.44-18.55-1.61-27.77-3.47-14.85-3.01-26.75-14.52-30.3-29.32-1.88-7.84-2.84-15.82-2.84-23.69,0-8.72,1.99-25.36,15.34-38.84.92-.93.92-2.44-.02-3.36-.93-.92-2.44-.92-3.36.02-2.29,2.31-4.27,4.7-5.98,7.13-7.83-17.53-9.66-30.65-4.83-35.48,4.65-4.65,19.67-.13,39.76,11.81-3.58,1.05-7.01,2.3-10.21,3.74-1.2.54-1.73,1.94-1.19,3.14.4.88,1.26,1.4,2.17,1.4.33,0,.66-.07.97-.21,3.16-1.42,6.57-2.66,10.14-3.67,5.68-1.61,14.66-2.4,26.69-2.35,12.02-.05,20.99.74,26.67,2.35,3.57,1.02,6.98,2.25,10.14,3.67,1.2.54,2.6,0,3.14-1.19.54-1.2,0-2.6-1.19-3.14-3.2-1.44-6.64-2.69-10.22-3.74,20.09-11.94,35.11-16.47,39.77-11.81,4.82,4.82,2.99,17.94-4.83,35.48-1.71-2.43-3.69-4.82-5.98-7.13-.92-.93-2.43-.94-3.36-.02-.93.92-.94,2.43-.02,3.36,13.35,13.48,15.34,30.12,15.34,38.84,0,7.87-.95,15.85-2.84,23.69-3.55,14.8-15.44,26.31-30.3,29.32-1.29.26-2.12,1.51-1.86,2.8.23,1.13,1.22,1.9,2.33,1.9.16,0,.32-.02.47-.05,8.23-1.67,15.77-5.63,21.79-11.46,6.01-5.82,10.22-13.22,12.19-21.4,1.97-8.21,2.97-16.55,2.97-24.8,0-6.99-1.19-18.69-7.7-30.25,2.6-5.56,5.88-13.39,7.74-21.07,2.59-10.68,1.72-18.27-2.58-22.57Z"/>
        <g>
          <g>
            <path class="cls-6" d="M163.1,101.64h-12.74c-1.31,0-2.38-1.06-2.38-2.38s1.06-2.38,2.38-2.38h12.74c1.31,0,2.38,1.06,2.38,2.38s-1.06,2.38-2.38,2.38Z"/>
            <path class="cls-6" d="M160.78,113.6c-.27,0-.55-.05-.82-.15l-10.42-3.86c-1.23-.46-1.86-1.82-1.4-3.05.46-1.23,1.82-1.86,3.05-1.4l10.42,3.86c1.23.46,1.86,1.82,1.4,3.05-.35.96-1.26,1.55-2.23,1.55Z"/>
          </g>
          <g>
            <path class="cls-6" d="M74.14,101.64h-12.74c-1.31,0-2.38-1.06-2.38-2.38s1.06-2.38,2.38-2.38h12.74c1.31,0,2.38,1.06,2.38,2.38s-1.06,2.38-2.38,2.38Z"/>
            <path class="cls-6" d="M63.72,113.6c-.97,0-1.87-.59-2.23-1.55-.46-1.23.17-2.6,1.4-3.05l10.42-3.86c1.23-.46,2.6.17,3.05,1.4.46,1.23-.17,2.6-1.4,3.05l-10.42,3.86c-.27.1-.55.15-.82.15Z"/>
          </g>
        </g>
        <g>
          <path class="cls-3" d="M125.36,102.1c-.01,1.06-.2,2.07-.55,3.03-.43,1.18-1.09,2.29-1.95,3.27-1.34,1.56-3.17,2.8-5.29,3.59-1.69.63-3.58.98-5.57.95-4.35-.04-8.18-1.82-10.55-4.54-1.25-1.43-2.09-3.12-2.4-4.94-.09-.53-.13-1.07-.12-1.63.02-1.43.37-2.58.97-3.51,1.2-1.79,3.39-2.72,6.15-3.18,1.85-.31,3.96-.39,6.2-.37,5.58.05,10.33.76,12.23,3.8.59.94.89,2.09.87,3.52Z"/>
          <path class="cls-11" d="M125.47,96.01c-2.54-2.6-6.71-3.34-10.85-3.54v-2.03h1.2c1.31,0,2.38-1.06,2.38-2.38s-1.06-2.38-2.38-2.38h-7.15c-1.31,0-2.38,1.06-2.38,2.38s1.06,2.38,2.38,2.38h1.2v1.98c-5.08.14-13.2,1.3-13.32,9.4-.05,3.19,1.24,6.29,3.62,8.73,2.92,3,7.22,4.74,11.79,4.78.06,0,.12,0,.18,0,8.51,0,15.49-5.89,15.59-13.19.04-2.49-.73-4.55-2.27-6.12ZM112.15,110.58s-.09,0-.14,0c-3.32-.03-6.39-1.25-8.44-3.35-1.51-1.55-2.3-3.4-2.27-5.35h0c.03-2.29.87-4.73,10.36-4.73.19,0,.37,0,.57,0,3.35.03,8.01.29,9.85,2.18.4.41.94,1.15.92,2.74-.07,4.71-4.92,8.51-10.84,8.51Z"/>
        </g>
        <g>
          <g>
            <path class="cls-1" d="M102.79,77.24c.04,7.15-3.19,13.57-8.29,17.81-3.96,3.3-9.03,5.29-14.58,5.32-2.1.01-4.14-.26-6.07-.78-9.78-2.6-17.01-11.49-17.07-22.1-.05-8.73,4.78-16.35,11.93-20.29h.01c3.25-1.8,6.97-2.82,10.93-2.84,2.92-.02,5.7.51,8.28,1.5,8.64,3.26,14.8,11.6,14.86,21.38Z"/>
            <path class="cls-1" d="M167.96,76.87c.04,6.69-2.79,12.74-7.33,16.96-4.07,3.81-9.53,6.14-15.55,6.17-1.9.01-3.75-.22-5.53-.63-10.05-2.42-17.54-11.44-17.6-22.24-.05-9.14,5.24-17.07,12.94-20.81,3-1.47,6.37-2.3,9.93-2.32,3.09-.02,6.04.57,8.73,1.68,8.4,3.38,14.35,11.59,14.4,21.2Z"/>
            <path class="cls-4" d="M160.63,93.84c-4.07,3.81-9.53,6.14-15.55,6.17-1.9.01-3.75-.22-5.53-.63,6.77-10.45,4.36-16.74-4.3-19.41-8.46-2.61-6.77-15.35-.36-23.65,3-1.47,6.37-2.3,9.93-2.32,3.09-.02,6.04.57,8.73,1.68-6.76,8.27-8.72,21.52-.07,24.19,7.03,2.17,9.94,6.74,7.14,13.98Z"/>
            <path class="cls-4" d="M94.5,95.05c-3.96,3.3-9.03,5.29-14.58,5.32-2.1.01-4.14-.26-6.07-.78,6.67-10.36,4.23-16.61-4.38-19.26-8.29-2.56-6.83-14.82-.76-23.12h.01c3.25-1.8,6.97-2.82,10.93-2.84,2.92-.02,5.7.51,8.28,1.5-6.89,8.26-8.95,21.68-.22,24.37,7.3,2.26,10.16,7.09,6.79,14.82Z"/>
            <path class="cls-2" d="M162.81,58.95c-4.79-4.73-11.12-7.33-17.84-7.33-.05,0-.1,0-.15,0-6.78.04-13.14,2.71-17.9,7.53-3.86,3.9-6.3,8.83-7.07,14.17-5.96-2.45-11.55-1.15-14.96.22-1.85-12.2-12.41-21.56-25.09-21.56-.05,0-.1,0-.14,0-12.29.07-22.52,8.91-24.77,20.54l-17.32-15.88c-4.61-4.23-11.67-4.06-16.07.39-.92.93-.91,2.44.02,3.36.93.92,2.44.91,3.36-.02,2.6-2.63,6.76-2.73,9.48-.23l20.1,18.43c.63,13.45,11.77,24.18,25.34,24.18.05,0,.1,0,.14,0,6.78-.04,13.14-2.71,17.9-7.53,4.44-4.49,7-10.33,7.3-16.58,2.35-1.21,8.36-3.57,14.49-.14.36,6.27,2.99,12.11,7.49,16.56,4.79,4.73,11.12,7.33,17.84,7.33.05,0,.1,0,.15,0,6.78-.04,13.14-2.71,17.9-7.53,4.77-4.82,7.37-11.21,7.33-17.99-.04-6.78-2.71-13.14-7.53-17.9ZM79.91,97.99s-.08,0-.12,0c-11.32,0-20.56-9.18-20.63-20.51-.06-11.38,9.14-20.68,20.51-20.74.04,0,.08,0,.12,0,11.32,0,20.56,9.18,20.63,20.51.06,11.38-9.14,20.68-20.51,20.74ZM159.63,91.51c-3.87,3.92-9.04,6.09-14.55,6.12-.04,0-.08,0-.12,0-5.47,0-10.61-2.11-14.5-5.96-3.92-3.87-6.09-9.04-6.12-14.55-.03-5.51,2.09-10.7,5.96-14.62,3.87-3.92,9.04-6.09,14.55-6.12.04,0,.08,0,.12,0,5.47,0,10.61,2.11,14.5,5.96,3.92,3.87,6.09,9.04,6.12,14.55.03,5.51-2.09,10.7-5.96,14.62Z"/>
          </g>
          <g>
            <path class="cls-5" d="M79.56,83.8c-.04-4.66,3.21-8.47,7.25-8.5,4.04-.03,7.35,3.72,7.39,8.38s-3.21,8.47-7.25,8.5c-4.04.03-7.35-3.72-7.39-8.38Z"/>
            <path class="cls-5" d="M132.8,83.34c-.04-4.66,3.21-8.47,7.25-8.5,4.04-.03,7.35,3.72,7.39,8.38.04,4.66-3.21,8.47-7.25,8.5-4.04.03-7.35-3.72-7.39-8.38Z"/>
          </g>
        </g>
      </g>
      <g>
        <path class="cls-12" d="M180.03,148.75c3.72-4.92,2.75-11.92-2.17-15.64-2.36-1.79-5.2-2.48-7.93-2.19.23-3.65-1.32-7.35-4.45-9.72-3.14-2.37-7.11-2.86-10.57-1.64-.46-2.7-1.9-5.25-4.26-7.03-4.92-3.72-11.92-2.75-15.64,2.17-.41.54-.76,1.12-1.06,1.71-3.85-1.36-8.28-.16-10.87,3.27-2.82,3.73-2.51,8.86.5,12.22-.78,4.09.57,8.44,3.84,11.34-.62,15.25-7.92,27.98-7.92,27.98,0,0-.71,3.23,3.36,6.31,4.07,3.08,6.99,1.52,6.99,1.52,0,0,10.72-10.95,25.74-15.53,2.85.78,5.9.49,8.54-.8.27.26.56.51.86.74,4.24,3.21,10.28,2.37,13.48-1.87,2.59-3.43,2.54-8.02.19-11.35.49-.45.94-.93,1.36-1.48Z"/>
        <path class="cls-13" d="M181.92,150.19c4.51-5.95,3.33-14.46-2.63-18.97-2.07-1.57-4.51-2.49-7.06-2.69-.45-3.64-2.34-6.96-5.31-9.22-2.98-2.25-6.69-3.17-10.32-2.61-.89-2.4-2.44-4.5-4.51-6.07-5.95-4.51-14.46-3.33-18.97,2.63-.1.13-.19.26-.29.39-4.39-.78-8.88.93-11.64,4.58-3.22,4.25-3.21,10.11-.11,14.33-.48,4.31.96,8.53,3.92,11.61-.87,14-7.48,25.73-7.55,25.85-.12.21-.21.44-.26.67-.38,1.75.08,5.56,4.25,8.71,2.4,1.82,4.67,2.39,6.47,2.39,1.33,0,2.4-.31,3.07-.67.21-.11.41-.26.57-.43.1-.1,10.21-10.27,24.11-14.72,2.65.59,5.44.43,8.06-.52,2.07,1.52,4.53,2.32,7.06,2.32.55,0,1.11-.04,1.67-.12,3.18-.44,5.99-2.09,7.92-4.65,2.76-3.65,3.19-8.44,1.24-12.45.1-.13.2-.25.3-.38ZM128.55,176.98c-.58.14-2.11.25-4.25-1.36-2.13-1.61-2.44-3.12-2.46-3.72,1.24-2.3,6.26-12.2,7.65-24.52,1.9.87,3.96,1.32,6.06,1.3.9,2.41,2.47,4.52,4.54,6.09,1.57,1.19,3.36,2.02,5.26,2.44.92,2.32,2.41,4.33,4.36,5.9-11.29,4.69-19.31,12.08-21.16,13.88ZM178.14,147.32c-.3.4-.65.78-1.07,1.16-.88.81-1.02,2.14-.33,3.12,1.83,2.59,1.77,6.03-.14,8.55-1.17,1.54-2.87,2.54-4.79,2.81-1.92.27-3.83-.23-5.37-1.4-.2-.15-.42-.34-.65-.56-.45-.44-1.05-.66-1.65-.66-.35,0-.71.08-1.04.24-3.33,1.62-7.23,1.25-10.17-.98-1.7-1.29-2.91-3.07-3.49-5.14-.26-.94-1.07-1.62-2.04-1.72-1.61-.17-3.14-.78-4.44-1.76-1.72-1.3-2.9-3.18-3.34-5.29-.26-1.23-1.43-2.05-2.67-1.87-2.62.39-5.22-.27-7.33-1.87-2.97-2.25-4.39-5.94-3.69-9.62.14-.73-.07-1.48-.56-2.03-2.3-2.57-2.46-6.44-.37-9.2,1.91-2.53,5.2-3.52,8.19-2.46,1.13.4,2.37-.1,2.91-1.17.26-.51.53-.95.83-1.35,2.92-3.87,8.45-4.63,12.32-1.71,1.78,1.35,2.97,3.32,3.35,5.54.12.69.53,1.29,1.14,1.65.6.36,1.33.43,1.99.19,2.84-1,5.96-.51,8.35,1.3,2.39,1.81,3.7,4.68,3.52,7.68-.04.7.22,1.38.73,1.86.51.48,1.2.72,1.9.65,2.24-.24,4.46.37,6.24,1.72,3.87,2.93,4.63,8.45,1.71,12.32Z"/>
        <path class="cls-13" d="M158.75,137.34c-.5,0-1-.16-1.43-.48-1.36-1.03-3.14-1.31-4.75-.74-.66.23-1.39.16-1.99-.19-.6-.36-1.02-.96-1.14-1.65-.22-1.26-.89-2.38-1.9-3.15-1.06-.81-2.38-1.15-3.7-.96-1.32.18-2.49.87-3.3,1.93-.79,1.05-2.28,1.25-3.33.46-1.05-.79-1.25-2.28-.46-3.33,1.57-2.08,3.86-3.42,6.43-3.77,2.58-.36,5.14.31,7.22,1.88,1.32,1,2.34,2.29,3,3.77,2.4-.21,4.81.47,6.78,1.95,1.05.79,1.25,2.28.46,3.33-.47.62-1.18.94-1.9.94Z"/>
      </g>
      <path class="cls-9" d="M54.17,134.19c12.17,6.56,22.76.59,22.48-8.88-.28-9.47-13.41-21.72-33.3-9.48-17.58,10.82-27.14,28.99-14.15,35.99,13,7,24.97-17.64,24.97-17.64Z"/>
      <path class="cls-11" d="M33.97,155.46c-2.02,0-3.99-.51-5.9-1.54-4.61-2.49-7.12-6.38-7.26-11.26-.27-9.25,8.29-20.84,21.29-28.84,13.36-8.22,22.82-5.42,27.27-3.02,5.69,3.07,9.48,8.74,9.65,14.45.15,4.94-2.15,9.24-6.3,11.8-4.79,2.96-11.21,3.03-17.53.29-2.51,4.51-9.03,14.83-17.23,17.48-1.35.43-2.68.65-3.99.65ZM59.29,113.07c-4.52,0-9.54,1.61-14.7,4.79-11.42,7.03-19.25,17.17-19.04,24.66.09,3.17,1.65,5.53,4.77,7.22,1.99,1.07,4,1.25,6.17.55,3.39-1.09,7.12-4.34,10.8-9.4,2.9-4,4.72-7.7,4.74-7.74.28-.58.79-1.02,1.41-1.22.61-.2,1.29-.14,1.86.17,5.48,2.95,11.06,3.29,14.94.9,2.66-1.64,4.14-4.42,4.05-7.62-.1-3.31-2.35-7.82-7.16-10.41-2.36-1.27-5-1.9-7.83-1.9Z"/>
      <g>
        <g>
          <path class="cls-10" d="M121.84,155.41H5.73c-1.85,0-3.35,1.5-3.35,3.35v11.53c0,1.85,1.5,3.35,3.35,3.35h3.86l7.66,35.59c1.14,5.3,5.83,9.08,11.24,9.08h70.59c5.42,0,10.1-3.78,11.24-9.08l7.66-35.59h3.86c1.85,0,3.35-1.5,3.35-3.35v-11.53c0-1.85-1.5-3.35-3.35-3.35Z"/>
          <path class="cls-7" d="M121.84,153.03H5.73c-3.16,0-5.73,2.57-5.73,5.73v11.53c0,3.16,2.57,5.73,5.73,5.73h1.94l7.26,33.71c1.37,6.35,7.07,10.96,13.57,10.96h70.59c6.49,0,12.2-4.61,13.57-10.96l7.26-33.71h1.94c3.16,0,5.73-2.57,5.73-5.73v-11.53c0-3.16-2.57-5.73-5.73-5.73ZM108,208.73c-.9,4.18-4.65,7.21-8.92,7.21H28.49c-4.27,0-8.02-3.03-8.92-7.21l-7.04-32.71h102.52l-7.04,32.71ZM122.81,170.29c0,.54-.44.98-.98.98H5.73c-.54,0-.98-.44-.98-.98v-11.53c0-.54.44-.98.98-.98h116.11c.54,0,.98.44.98.98v11.53Z"/>
          <g>
            <path class="cls-8" d="M63.78,208.28h0c-2.93,0-5.31-2.38-5.31-5.31v-13.98c0-2.93,2.38-5.31,5.31-5.31h0c2.93,0,5.31,2.38,5.31,5.31v13.98c0,2.93-2.38,5.31-5.31,5.31Z"/>
            <g>
              <path class="cls-8" d="M88.43,208h0c-2.87-.63-4.68-3.46-4.06-6.32l2.98-13.66c.63-2.87,3.46-4.68,6.32-4.06h0c2.87.63,4.68,3.46,4.06,6.32l-2.98,13.66c-.63,2.87-3.46,4.68-6.32,4.06Z"/>
              <path class="cls-8" d="M39.13,208h0c2.87-.63,4.68-3.46,4.06-6.32l-2.98-13.66c-.63-2.87-3.46-4.68-6.32-4.06h0c-2.87.63-4.68,3.46-4.06,6.32l2.98,13.66c.63,2.87,3.46,4.68,6.32,4.06Z"/>
            </g>
          </g>
          <g>
            <path class="cls-7" d="M63.78,210.66c-4.24,0-7.69-3.45-7.69-7.69v-13.98c0-4.24,3.45-7.69,7.69-7.69s7.69,3.45,7.69,7.69v13.98c0,4.24-3.45,7.69-7.69,7.69ZM63.78,186.05c-1.62,0-2.94,1.32-2.94,2.94v13.98c0,1.62,1.32,2.94,2.94,2.94s2.94-1.32,2.94-2.94v-13.98c0-1.62-1.32-2.94-2.94-2.94Z"/>
            <g>
              <path class="cls-7" d="M89.58,210.5c-.55,0-1.1-.06-1.65-.18-2.01-.44-3.72-1.63-4.83-3.36-1.11-1.73-1.48-3.78-1.04-5.79l2.98-13.66c.44-2.01,1.63-3.72,3.36-4.83,1.73-1.11,3.78-1.48,5.79-1.04,4.14.9,6.77,5.01,5.87,9.15l-2.98,13.66c-.44,2.01-1.63,3.72-3.36,4.83-1.25.8-2.68,1.22-4.14,1.22ZM92.54,186.21c-.56,0-1.1.16-1.58.47-.66.42-1.12,1.08-1.28,1.85l-2.98,13.66c-.35,1.58.66,3.15,2.24,3.5.76.17,1.55.03,2.21-.4.66-.42,1.12-1.08,1.28-1.85l2.98-13.66c.17-.77.03-1.55-.4-2.21-.42-.66-1.08-1.12-1.85-1.28-.21-.05-.42-.07-.63-.07Z"/>
              <path class="cls-7" d="M37.98,210.5c-1.46,0-2.88-.42-4.14-1.22-1.73-1.11-2.92-2.82-3.36-4.83l-2.98-13.66c-.44-2.01-.07-4.06,1.04-5.79,1.11-1.73,2.82-2.92,4.83-3.36,2.01-.44,4.06-.07,5.79,1.04,1.73,1.11,2.92,2.82,3.36,4.83l2.98,13.66c.9,4.14-1.73,8.25-5.87,9.15-.55.12-1.1.18-1.65.18ZM35.02,186.21c-.21,0-.42.02-.63.07-1.58.35-2.59,1.91-2.24,3.49l2.98,13.66c.17.77.62,1.42,1.28,1.85.66.42,1.45.57,2.21.4,1.58-.35,2.59-1.91,2.24-3.5l-2.98-13.66c-.17-.77-.62-1.42-1.28-1.85-.48-.31-1.02-.47-1.58-.47Z"/>
            </g>
          </g>
        </g>
        <g>
          <g>
            <path class="cls-14" d="M41.65,164.88c-.96,0-1.92-.27-2.78-.83-2.37-1.54-3.05-4.71-1.51-7.09l19.34-29.81c1.54-2.38,4.71-3.05,7.09-1.51,2.37,1.54,3.05,4.71,1.51,7.09l-19.34,29.81c-.98,1.51-2.63,2.34-4.3,2.34Z"/>
            <path class="cls-5" d="M41.65,167.25c-1.45,0-2.86-.42-4.08-1.21-3.47-2.25-4.46-6.9-2.21-10.37l19.34-29.81c1.09-1.68,2.77-2.84,4.73-3.25,1.96-.42,3.97-.05,5.65,1.05,3.47,2.25,4.46,6.9,2.21,10.37l-19.34,29.81c-1.39,2.14-3.74,3.42-6.3,3.42ZM61,127.19c-.19,0-.38.02-.58.06-.72.15-1.33.58-1.73,1.19l-19.34,29.81c-.83,1.27-.46,2.98.81,3.8.45.29.96.44,1.49.44.94,0,1.8-.47,2.31-1.25l19.34-29.81c.83-1.27.46-2.98-.81-3.8-.45-.29-.97-.45-1.49-.45Z"/>
          </g>
          <g>
            <path class="cls-14" d="M85.91,164.88c.96,0,1.92-.27,2.78-.83,2.37-1.54,3.05-4.71,1.51-7.09l-19.34-29.81c-1.54-2.38-4.71-3.05-7.09-1.51-2.37,1.54-3.05,4.71-1.51,7.09l19.34,29.81c.98,1.51,2.63,2.34,4.3,2.34Z"/>
            <path class="cls-5" d="M85.91,167.25c-2.55,0-4.91-1.28-6.3-3.42l-19.34-29.81c-2.25-3.47-1.26-8.12,2.21-10.38,1.68-1.09,3.68-1.46,5.64-1.05,1.96.42,3.64,1.57,4.73,3.25l19.34,29.81c2.25,3.47,1.26,8.12-2.21,10.37-1.22.79-2.63,1.21-4.08,1.21ZM66.57,127.19c-.53,0-1.04.15-1.49.44-1.27.83-1.64,2.53-.81,3.81l19.34,29.81c.51.79,1.37,1.25,2.31,1.25.53,0,1.04-.15,1.49-.44,1.27-.83,1.64-2.53.81-3.81l-19.34-29.81c-.4-.62-1.02-1.04-1.73-1.19-.19-.04-.39-.06-.58-.06Z"/>
          </g>
        </g>
      </g>
      <g>
        <path class="cls-9" d="M156.34,176.39c-6.05,4.76-12.62,6.5-17.38.45-4.76-6.05-3.72-14.81,2.33-19.57,6.05-4.76,14.81-3.72,19.57,2.33,4.76,6.05,1.53,12.03-4.52,16.79Z"/>
        <path class="cls-11" d="M146.24,183.08c-3.52,0-6.65-1.59-9.16-4.77-5.56-7.07-4.34-17.34,2.72-22.91,7.07-5.56,17.34-4.34,22.91,2.72,2.72,3.46,3.47,7.3,2.18,11.11-1.06,3.11-3.44,6.14-7.09,9.01h0c-4.08,3.22-8.02,4.82-11.56,4.82ZM149.89,156.66c-2.5,0-5.03.81-7.14,2.47-5.01,3.94-5.87,11.23-1.93,16.24,4.96,6.3,11.8.92,14.05-.85,9.08-7.15,5.35-11.9,4.12-13.46-2.28-2.89-5.67-4.4-9.1-4.4Z"/>
      </g>
    </g>
  </g>
</svg>