<?xml version="1.0" encoding="UTF-8"?>
<svg id="Capa_2" xmlns="http://www.w3.org/2000/svg" viewBox="0 0 220.8 216.15">
  <defs>
    <style>
      .cls-1 {
        fill: #5f5c5d;
      }

      .cls-2 {
        fill: #f9cb71;
      }

      .cls-3 {
        fill: #fff;
      }

      .cls-4 {
        fill: #6f818c;
      }

      .cls-5 {
        fill: #95a1b3;
      }

      .cls-6 {
        fill: #b2b8c4;
      }

      .cls-7 {
        fill: #ffffa1;
      }

      .cls-8 {
        fill: #e27fa3;
      }

      .cls-9 {
        fill: #dd528b;
      }
    </style>
  </defs>
  <g id="OBJECTS">
    <g>
      <g>
        <polygon class="cls-7" points="129.84 117.42 144.71 133.84 163.29 121.78 184.98 126.31 192.94 105.64 213.13 96.55 207.43 75.16 218.42 55.93 201.22 41.98 198.83 19.96 176.71 18.8 161.83 2.38 143.25 14.44 121.57 9.91 113.61 30.57 93.42 39.66 99.12 61.06 88.13 80.28 105.33 94.23 107.71 116.25 129.84 117.42"/>
        <path class="cls-2" d="M144.72,136.21c-.65,0-1.3-.27-1.76-.78l-14.22-15.7-21.15-1.11c-1.16-.06-2.11-.96-2.24-2.12l-2.28-21.05-16.44-13.33c-.9-.73-1.14-2.01-.57-3.03l10.51-18.38-5.45-20.45c-.3-1.12.26-2.3,1.32-2.78l19.3-8.69,7.61-19.75c.42-1.09,1.56-1.71,2.7-1.47l20.72,4.33L160.54.38c.98-.63,2.27-.47,3.06.4l14.22,15.7,21.15,1.11c1.16.06,2.11.96,2.24,2.12l2.28,21.05,16.44,13.33c.9.73,1.14,2.02.57,3.03l-10.51,18.38,5.45,20.45c.3,1.12-.26,2.3-1.32,2.78l-19.3,8.69-7.61,19.75c-.42,1.09-1.56,1.71-2.7,1.47l-20.72-4.33-17.76,11.53c-.4.26-.85.38-1.29.38ZM109.86,113.99l20.11,1.06c.63.03,1.22.31,1.64.78l13.52,14.92,16.88-10.96c.53-.34,1.16-.46,1.78-.33l19.7,4.12,7.24-18.78c.22-.58.67-1.06,1.24-1.31l18.35-8.26-5.18-19.45c-.16-.6-.08-1.25.23-1.79l9.99-17.47-15.64-12.68c-.49-.4-.8-.97-.87-1.59l-2.16-20.01-20.11-1.06c-.63-.03-1.22-.31-1.64-.78l-13.52-14.92-16.88,10.96c-.53.34-1.17.46-1.78.33l-19.7-4.12-7.24,18.78c-.22.58-.67,1.06-1.24,1.31l-18.35,8.26,5.18,19.45c.16.6.08,1.25-.23,1.79l-9.99,17.47,15.64,12.68c.49.39.8.97.87,1.59l2.16,20.01Z"/>
        <path class="cls-2" d="M153.3,109.86c-.4,0-.79,0-1.19-.02-11.15-.31-21.51-4.94-29.17-13.04-15.82-16.72-15.09-43.2,1.64-59.02,16.73-15.82,43.2-15.09,59.02,1.64,7.66,8.1,11.72,18.7,11.41,29.85-.31,11.15-4.94,21.51-13.04,29.17-7.81,7.39-17.95,11.42-28.66,11.42ZM153.26,31.13c-9.13,0-18.28,3.35-25.42,10.1-14.82,14.02-15.47,37.49-1.45,52.31h0c6.79,7.18,15.97,11.28,25.85,11.56,9.87.27,19.27-3.32,26.45-10.11,7.18-6.79,11.28-15.97,11.56-25.85.27-9.88-3.32-19.27-10.11-26.45-7.27-7.68-17.07-11.55-26.89-11.55Z"/>
      </g>
      <g>
        <path class="cls-6" d="M165.68,48.6c-8.58-8.58-35.92,7.03-47.96,14.6-5.96-.99-13.65-1.4-22.45-1.36-8.8-.04-16.49.37-22.45,1.36-12.04-7.57-39.38-23.17-47.95-14.6-8.52,8.52,1.21,31.9,6.2,42.32-5.91,9.98-8.06,20.9-8.06,30.31,0,8.13.97,16.26,2.92,24.38,3.73,15.53,15.83,27.52,31.34,31.05-4.27,9.72-13.43,35.68,9.96,36.98,4.95.73,8.72-1.95,11.33-6.52,5.37,4.38,12.5,7.05,20.32,7.05,5.65,0,10.94-1.4,15.46-3.82,2.37,2.53,5.36,3.83,8.99,3.3,23.39-1.31,14.23-27.26,9.96-36.98,15.51-3.53,27.61-15.52,31.34-31.05,1.95-8.12,2.92-16.25,2.92-24.38,0-9.41-2.16-20.33-8.06-30.3,4.98-10.41,14.72-33.8,6.2-42.32Z"/>
        <g>
          <path class="cls-5" d="M104.01,67.65c0,13.47-3.92,24.37-8.73,24.37s-8.74-10.91-8.74-24.37c0-1.85.07-3.64.22-5.36,5.68-.26,11.36-.26,17.04.01.14,1.72.22,3.52.22,5.35Z"/>
          <g>
            <path class="cls-5" d="M85.25,63.22c0,13.46-3.91,24.37-8.73,24.37s-8.45-10.16-8.72-22.94c3-.78,6.1-1.34,9.28-1.66,2.72-.27,5.44-.48,8.17-.63.01.29.01.57.01.86Z"/>
            <path class="cls-5" d="M122.76,64.54c-.25,12.84-4.06,23.05-8.72,23.05s-8.73-10.92-8.73-24.37c0-.29,0-.57.01-.86,3.12.16,6.26.42,9.38.75,2.75.29,5.44.77,8.06,1.42Z"/>
          </g>
        </g>
        <path class="cls-3" d="M155.63,69.32s1.39,3.16,1.62,6.69c.22,3.27-1.75,5.76-4.33,6.8-5.41-6.16-12.09-11.19-19.64-14.68.07-1.77.81-3.52,2.26-4.83,5.79-5.27,13.81-10.95,19.48-8.64,9.88,4.03.62,14.65.62,14.65Z"/>
        <path class="cls-3" d="M34.92,69.32s-1.39,3.16-1.62,6.69c-.22,3.27,1.75,5.76,4.33,6.8,5.41-6.16,12.09-11.19,19.64-14.68-.07-1.77-.81-3.52-2.26-4.83-5.79-5.27-13.81-10.95-19.48-8.64-9.88,4.03-.62,14.65-.62,14.65Z"/>
        <g>
          <g>
            <path class="cls-5" d="M146.42,141.78h-12.81c-1.31,0-2.38-1.06-2.38-2.38s1.06-2.38,2.38-2.38h12.81c1.31,0,2.38,1.06,2.38,2.38s-1.06,2.38-2.38,2.38Z"/>
            <path class="cls-5" d="M144.09,153.81c-.27,0-.55-.05-.82-.15l-10.48-3.88c-1.23-.46-1.86-1.82-1.4-3.05.46-1.23,1.82-1.86,3.05-1.4l10.48,3.88c1.23.46,1.86,1.82,1.4,3.05-.35.96-1.26,1.55-2.23,1.55Z"/>
          </g>
          <g>
            <path class="cls-5" d="M56.94,141.78h-12.81c-1.31,0-2.38-1.06-2.38-2.38s1.06-2.38,2.38-2.38h12.81c1.31,0,2.38,1.06,2.38,2.38s-1.06,2.38-2.38,2.38Z"/>
            <path class="cls-5" d="M46.46,153.81c-.97,0-1.87-.59-2.23-1.55-.46-1.23.17-2.6,1.4-3.05l10.48-3.88c1.23-.46,2.6.17,3.05,1.4.46,1.23-.17,2.6-1.4,3.05l-10.48,3.88c-.27.1-.55.15-.82.15Z"/>
          </g>
        </g>
        <g>
          <path class="cls-3" d="M120.75,111.92h-6.72c-1.31,0-2.38-1.06-2.38-2.38s1.06-2.38,2.38-2.38h6.72c1.31,0,2.38,1.06,2.38,2.38s-1.06,2.38-2.38,2.38Z"/>
          <path class="cls-3" d="M76.52,111.92h-6.72c-1.31,0-2.38-1.06-2.38-2.38s1.06-2.38,2.38-2.38h6.72c1.31,0,2.38,1.06,2.38,2.38s-1.06,2.38-2.38,2.38Z"/>
        </g>
        <path class="cls-4" d="M109.46,127.03c-1.27-.32-2.56.45-2.88,1.73-.51,2.01-2.31,3.42-4.39,3.42-2.5,0-4.53-2.03-4.53-4.53v-1.39h1.22c1.31,0,2.38-1.06,2.38-2.38s-1.06-2.38-2.38-2.38h-7.19c-1.31,0-2.38,1.06-2.38,2.38s1.06,2.38,2.38,2.38h1.22v1.39c0,2.5-2.03,4.53-4.53,4.53-2.08,0-3.89-1.4-4.39-3.42-.32-1.27-1.61-2.05-2.88-1.73-1.27.32-2.05,1.61-1.73,2.88,1.04,4.13,4.74,7.01,9,7.01,2.74,0,5.2-1.19,6.9-3.09,1.7,1.89,4.17,3.09,6.91,3.09,4.26,0,7.96-2.88,9-7.01.32-1.27-.45-2.56-1.73-2.88Z"/>
        <g>
          <path class="cls-1" d="M72,127.67c-.61,0-1.22-.23-1.68-.7-1.83-1.83-4.26-2.84-6.85-2.84s-5.02,1.01-6.85,2.84c-.93.93-2.43.93-3.36,0-.93-.93-.93-2.43,0-3.36,2.73-2.73,6.35-4.23,10.21-4.23s7.48,1.5,10.21,4.23c.93.93.93,2.43,0,3.36-.46.46-1.07.7-1.68.7Z"/>
          <path class="cls-1" d="M118.55,127.67c-.61,0-1.22-.23-1.68-.7-.93-.93-.93-2.43,0-3.36,5.63-5.63,14.79-5.63,20.42,0,.93.93.93,2.43,0,3.36-.93.93-2.43.93-3.36,0-3.78-3.78-9.92-3.78-13.7,0-.46.46-1.07.7-1.68.7Z"/>
        </g>
      </g>
      <path class="cls-4" d="M167.36,46.92c-4.52-4.52-12.78-4.29-25.24.72-9.04,3.63-18.4,9.02-24.9,13.08-5.71-.87-13.05-1.29-21.93-1.25-8.9-.04-16.24.38-21.96,1.25-6.51-4.06-15.88-9.46-24.9-13.08-12.46-5-20.72-5.24-25.24-.72-9.04,9.04-.91,30.88,5.2,43.88-6.55,11.63-7.75,23.39-7.75,30.43,0,8.28,1,16.68,2.99,24.94,3.74,15.57,15.26,27.65,30.39,32.1-3.13,7.81-7.08,21.07-2.2,29.69,2.78,4.92,7.89,7.63,15.18,8.06.62.09,1.23.13,1.83.13,3.97,0,7.48-1.87,10.24-5.47,3.78-4.93,6.04-12.95,6.35-22.59.3-9.17-1.24-18.41-4.24-25.33-3.33-7.68-8.17-12.04-14-12.63-5.46-.55-9.97.23-13.42,2.3-3.15,1.89-5.21,4.82-5.78,8.23-.82,4.88,1.36,9.56,5.35,12.39-12.49-4.42-21.92-14.8-25.08-27.99-1.89-7.9-2.86-15.92-2.86-23.83,0-8.77,2.01-25.51,15.43-39.07.92-.93.92-2.44-.02-3.36-.93-.92-2.44-.92-3.36.02-2.31,2.33-4.3,4.74-6.03,7.19-7.88-17.65-9.73-30.86-4.87-35.72,4.69-4.68,19.81-.13,40.04,11.89-3.61,1.05-7.07,2.31-10.3,3.76-1.2.54-1.73,1.95-1.19,3.14.4.88,1.26,1.4,2.17,1.4.33,0,.66-.07.97-.21,3.18-1.43,6.61-2.67,10.2-3.69,5.72-1.62,14.74-2.41,26.85-2.36,12.07-.06,21.11.74,26.83,2.36,3.59,1.02,7.02,2.26,10.2,3.69,1.2.54,2.6,0,3.14-1.19.54-1.2,0-2.6-1.19-3.14-3.22-1.45-6.69-2.72-10.3-3.77,20.22-12.02,35.34-16.58,40.03-11.89,4.85,4.85,3.01,18.06-4.86,35.72-1.73-2.45-3.72-4.86-6.03-7.19-.92-.93-2.43-.94-3.36-.02-.93.92-.94,2.43-.02,3.36,13.43,13.56,15.43,30.3,15.43,39.07,0,7.92-.96,15.94-2.85,23.83-3.16,13.19-12.59,23.57-25.08,27.99,4-2.83,6.18-7.51,5.35-12.39-.58-3.42-2.63-6.34-5.78-8.23-3.45-2.07-7.96-2.84-13.42-2.3-5.84.58-10.68,4.95-14,12.63-3,6.92-4.54,16.15-4.24,25.33.32,9.63,2.57,17.66,6.35,22.59,2.76,3.6,6.27,5.47,10.24,5.47.6,0,1.21-.04,1.83-.13,7.29-.43,12.4-3.14,15.18-8.06,4.88-8.62.93-21.88-2.2-29.69,15.13-4.46,26.66-16.53,30.39-32.1,1.98-8.25,2.98-16.64,2.98-24.94,0-7.03-1.2-18.8-7.75-30.43,2.62-5.59,5.91-13.47,7.78-21.19,2.6-10.73,1.73-18.37-2.59-22.69ZM52.65,161.46c.57-3.4,3.85-6.74,11.24-6.74.88,0,1.81.05,2.8.15,5.08.51,8.3,5.6,10.11,9.79,5.75,13.27,4.99,34.63-1.52,43.13-2.15,2.81-4.68,3.96-7.72,3.51-.07-.01-.14-.02-.21-.02-5.7-.32-9.44-2.17-11.41-5.66-4.86-8.58,2.06-25.63,5.14-31.48.34-.65.37-1.42.06-2.09-.3-.67-.9-1.16-1.61-1.33-5.27-1.26-7.48-5.72-6.88-9.27ZM129.47,174.15c3.08,5.84,10,22.88,5.14,31.47-1.97,3.49-5.71,5.34-11.41,5.66-.07,0-.14.01-.21.02-3.04.44-5.57-.7-7.72-3.51-6.51-8.5-7.27-29.87-1.52-43.13,1.81-4.19,5.04-9.28,10.11-9.79.99-.1,1.93-.15,2.8-.15,7.39,0,10.67,3.34,11.24,6.74.6,3.55-1.61,8.01-6.88,9.27-.71.17-1.31.66-1.61,1.33-.3.67-.28,1.44.06,2.09Z"/>
      <g>
        <path class="cls-8" d="M47.99,95.42c4.44-3.03,5.82-9.02,3.04-13.71-2.78-4.69-8.71-6.34-13.49-3.89-.4-5.36-4.9-9.55-10.35-9.49-5.45.07-9.84,4.37-10.12,9.74-4.84-2.33-10.72-.53-13.39,4.22-2.67,4.75-1.14,10.71,3.38,13.63-4.44,3.03-5.82,9.02-3.04,13.71,2.78,4.69,8.71,6.34,13.49,3.89.4,5.36,4.9,9.55,10.35,9.49,5.45-.07,9.84-4.37,10.12-9.74,4.84,2.33,10.72.53,13.39-4.22,2.67-4.75,1.14-10.71-3.38-13.63Z"/>
        <path class="cls-9" d="M27.73,125.39c-5.54,0-10.33-3.62-12-8.7-5.25,1.23-10.89-1.02-13.76-5.84-2.86-4.82-2.14-10.86,1.45-14.88-3.69-3.93-4.56-9.94-1.82-14.84,2.74-4.89,8.33-7.28,13.61-6.18,1.56-5.16,6.33-8.92,11.94-8.99.05,0,.11,0,.16,0,5.54,0,10.33,3.62,12,8.7,5.25-1.23,10.89,1.02,13.76,5.84,2.86,4.82,2.14,10.86-1.45,14.88,3.69,3.93,4.56,9.94,1.82,14.84-2.74,4.89-8.33,7.28-13.61,6.18-1.56,5.16-6.33,8.92-11.94,8.99-.05,0-.1,0-.16,0ZM17.51,111.14c.4,0,.8.1,1.16.3.69.39,1.15,1.1,1.21,1.89.31,4.11,3.75,7.29,7.86,7.29.03,0,.06,0,.1,0,4.15-.05,7.56-3.34,7.77-7.48.04-.79.48-1.52,1.16-1.92.68-.41,1.53-.44,2.24-.1,3.74,1.8,8.26.37,10.29-3.24,2.03-3.62.89-8.22-2.59-10.47-.67-.43-1.08-1.17-1.09-1.97,0-.8.38-1.54,1.04-1.99,3.43-2.34,4.45-6.97,2.34-10.53-2.12-3.57-6.67-4.88-10.37-2.99-.71.36-1.55.35-2.24-.04-.69-.39-1.15-1.1-1.21-1.89-.31-4.11-3.75-7.29-7.85-7.29-.03,0-.06,0-.1,0-4.15.05-7.56,3.34-7.77,7.48-.04.79-.48,1.52-1.16,1.92-.68.41-1.53.44-2.24.1-3.74-1.8-8.26-.37-10.29,3.24-2.03,3.62-.89,8.22,2.59,10.47.67.43,1.08,1.17,1.09,1.97,0,.8-.38,1.54-1.04,1.99-3.43,2.34-4.45,6.97-2.34,10.53,2.12,3.57,6.67,4.88,10.36,2.99.34-.17.71-.26,1.08-.26Z"/>
        <path class="cls-7" d="M39.34,95.53c-.08-6.53-5.43-11.75-11.96-11.67-6.53.08-11.75,5.44-11.67,11.96.08,6.53,5.44,11.75,11.96,11.67,6.53-.08,11.75-5.44,11.67-11.96Z"/>
      </g>
    </g>
  </g>
</svg>