<?xml version="1.0" encoding="UTF-8"?>
<svg id="Capa_2" xmlns="http://www.w3.org/2000/svg" viewBox="0 0 184.41 220.69">
  <defs>
    <style>
      .cls-1 {
        fill: #fff;
      }

      .cls-2 {
        fill: #678490;
      }

      .cls-3 {
        fill: #fd80a6;
      }

      .cls-4 {
        fill: #b1b9c6;
      }

      .cls-5 {
        fill: #91a2b5;
      }

      .cls-6 {
        fill: #605c5d;
      }
    </style>
  </defs>
  <g id="OBJECTS">
    <g>
      <ellipse class="cls-4" cx="87.97" cy="174.96" rx="44.68" ry="39.91"/>
      <g>
        <path class="cls-4" d="M177.97,5.46c-10.45-10.45-43.75,8.56-58.41,17.78-7.26-1.21-16.62-1.7-27.34-1.65-10.72-.05-20.09.45-27.35,1.65C50.2,14.01,16.91-4.99,6.46,5.46c-10.37,10.37,1.47,38.85,7.55,51.54-7.19,12.15-9.82,25.46-9.82,36.91,0,9.91,1.18,19.8,3.55,29.7,4.63,19.31,19.9,34.15,39.37,38.09,15.03,3.04,30.06,4.56,45.1,4.56s30.06-1.52,45.1-4.56c19.47-3.94,34.74-18.77,39.37-38.09,2.37-9.9,3.55-19.79,3.55-29.7,0-11.46-2.63-24.76-9.81-36.91,6.07-12.68,17.93-41.17,7.55-51.55Z"/>
        <g>
          <path class="cls-5" d="M102.86,28.65c0,16.4-4.77,29.69-10.64,29.69s-10.65-13.29-10.65-29.69c0-2.25.09-4.43.26-6.53,6.92-.31,13.84-.31,20.76.01.18,2.1.26,4.28.26,6.52Z"/>
          <g>
            <path class="cls-5" d="M80,23.27c0,16.39-4.76,29.69-10.64,29.69s-10.3-12.37-10.62-27.94c3.65-.95,7.43-1.63,11.3-2.02,3.32-.33,6.63-.59,9.95-.77.01.35.01.69.01,1.04Z"/>
            <path class="cls-5" d="M125.69,24.87c-.3,15.63-4.95,28.08-10.62,28.08s-10.64-13.3-10.64-29.69c0-.35,0-.69.01-1.04,3.81.2,7.62.51,11.43.92,3.35.35,6.63.94,9.82,1.73Z"/>
          </g>
        </g>
        <path class="cls-1" d="M165.72,30.69s1.7,3.84,1.97,8.15c.26,3.98-2.13,7.02-5.27,8.29-6.59-7.5-14.73-13.63-23.92-17.88.09-2.16.99-4.28,2.75-5.88,7.06-6.42,16.82-13.34,23.72-10.52,12.03,4.91.75,17.85.75,17.85Z"/>
        <path class="cls-1" d="M18.7,30.69s-1.7,3.84-1.97,8.15c-.26,3.98,2.13,7.02,5.27,8.29,6.59-7.5,14.73-13.63,23.92-17.88-.09-2.16-.99-4.28-2.75-5.88-7.06-6.42-16.82-13.34-23.72-10.52-12.03,4.91-.75,17.85-.75,17.85Z"/>
        <path class="cls-2" d="M179.64,3.78c-5.34-5.34-15.21-5.02-30.19.99-11.05,4.43-22.5,11.05-30.41,15.99-6.95-1.08-15.93-1.6-26.83-1.55-10.91-.05-19.9.47-26.85,1.55-7.92-4.95-19.38-11.57-30.41-15.99C19.99-1.24,10.12-1.57,4.78,3.78c-10.85,10.85-.84,37.43,6.55,53.1C3.29,71.02,1.82,85.36,1.82,93.92c0,10.06,1.22,20.24,3.62,30.25,2.38,9.92,7.49,18.9,14.78,25.96,7.3,7.07,16.44,11.88,26.43,13.9,15.12,3.06,30.45,4.61,45.57,4.61s30.45-1.55,45.57-4.61c9.99-2.02,19.13-6.83,26.43-13.9,7.29-7.06,12.4-16.04,14.78-25.96,2.4-10.01,3.62-20.19,3.62-30.25,0-8.55-1.47-22.9-9.5-37.04,7.38-15.68,17.37-42.27,6.54-53.1ZM174.37,123.06c-2.17,9.05-6.83,17.23-13.47,23.66-6.65,6.44-14.97,10.82-24.06,12.66-14.81,2.99-29.82,4.51-44.63,4.51s-29.82-1.52-44.63-4.51c-9.1-1.84-17.42-6.22-24.07-12.66-6.64-6.43-11.3-14.61-13.47-23.66-2.32-9.65-3.49-19.46-3.49-29.15,0-10.76,2.46-31.31,18.95-47.96.92-.93.92-2.44-.02-3.36-.93-.92-2.44-.92-3.36.02-3.02,3.05-5.6,6.23-7.8,9.45C4.33,29.94,1.98,13.29,8.14,7.13c3.74-3.74,12.4-3.04,25.05,2.04,8.87,3.56,18.07,8.61,25.38,12.99-.16.04-.33.08-.48.13-4.62,1.31-9.04,2.92-13.14,4.76-1.2.54-1.73,1.94-1.19,3.14.54,1.2,1.94,1.73,3.14,1.19,3.89-1.75,8.1-3.27,12.49-4.52,7.01-1.99,18.07-2.96,32.84-2.9,14.78-.06,25.81.91,32.82,2.9,4.4,1.25,8.6,2.77,12.49,4.52.32.14.65.21.97.21.91,0,1.77-.52,2.17-1.4.54-1.2,0-2.6-1.19-3.14-4.1-1.85-8.52-3.45-13.14-4.76-.16-.04-.33-.09-.49-.13,7.3-4.38,16.49-9.42,25.37-12.98,12.65-5.07,21.32-5.78,25.06-2.04,6.14,6.14,3.8,22.79-6.19,44.93-2.21-3.22-4.78-6.4-7.8-9.45-.92-.93-2.43-.94-3.36-.02-.93.92-.94,2.43-.02,3.36,16.49,16.65,18.95,37.2,18.95,47.96,0,9.69-1.17,19.5-3.49,29.15Z"/>
        <g>
          <path class="cls-6" d="M64.78,91.78c-1.31,0-2.37-1.06-2.37-2.37,0-4.14-3.36-7.5-7.5-7.5s-7.5,3.36-7.5,7.5c0,1.31-1.06,2.37-2.37,2.37s-2.38-1.06-2.38-2.37c0-6.75,5.49-12.25,12.25-12.25s12.25,5.5,12.25,12.25c0,1.31-1.06,2.37-2.37,2.37Z"/>
          <path class="cls-6" d="M139.39,91.78c-1.31,0-2.37-1.06-2.37-2.37,0-4.14-3.36-7.5-7.5-7.5s-7.5,3.36-7.5,7.5c0,1.31-1.06,2.37-2.37,2.37s-2.37-1.06-2.37-2.37c0-6.75,5.49-12.25,12.25-12.25s12.25,5.5,12.25,12.25c0,1.31-1.06,2.37-2.37,2.37Z"/>
        </g>
        <g>
          <g>
            <path class="cls-5" d="M154.5,100.84h-15.6c-1.31,0-2.37-1.06-2.37-2.38s1.06-2.37,2.37-2.37h15.6c1.31,0,2.37,1.06,2.37,2.37s-1.06,2.38-2.37,2.38Z"/>
            <path class="cls-5" d="M151.67,115.5c-.27,0-.55-.05-.82-.15l-12.76-4.73c-1.23-.46-1.86-1.82-1.4-3.05.45-1.23,1.82-1.86,3.05-1.4l12.76,4.73c1.23.46,1.86,1.82,1.4,3.05-.35.96-1.26,1.55-2.23,1.55Z"/>
          </g>
          <g>
            <path class="cls-5" d="M45.53,100.84h-15.6c-1.31,0-2.37-1.06-2.37-2.38s1.06-2.37,2.37-2.37h15.6c1.31,0,2.37,1.06,2.37,2.37s-1.06,2.38-2.37,2.38Z"/>
            <path class="cls-5" d="M32.76,115.5c-.97,0-1.87-.59-2.23-1.55-.46-1.23.17-2.6,1.4-3.05l12.76-4.73c1.23-.46,2.6.17,3.05,1.4.46,1.23-.17,2.6-1.4,3.05l-12.76,4.73c-.27.1-.55.15-.82.15Z"/>
          </g>
        </g>
        <g>
          <path class="cls-1" d="M123.24,72.02h-8.18c-1.31,0-2.37-1.06-2.37-2.38s1.06-2.37,2.37-2.37h8.18c1.31,0,2.37,1.06,2.37,2.37s-1.06,2.38-2.37,2.38Z"/>
          <path class="cls-1" d="M69.37,72.02h-8.18c-1.31,0-2.37-1.06-2.37-2.38s1.06-2.37,2.37-2.37h8.18c1.31,0,2.37,1.06,2.37,2.37s-1.06,2.38-2.37,2.38Z"/>
        </g>
        <path class="cls-1" d="M70.51,101.15c.35-11.99,9.88-5.3,21.87-4.95,11.99.35,21.9-5.77,21.55,6.22-.35,11.99-10.35,21.42-22.34,21.07-11.99-.35-21.42-10.35-21.07-22.34Z"/>
        <path class="cls-2" d="M113.03,93.09c-2.9-2.49-7.17-1.81-12.11-1.03-2.11.33-4.43.7-6.84.86l.02-6.08h2.01s0,0,0,0c1.31,0,2.37-1.06,2.37-2.37,0-1.31-1.06-2.38-2.37-2.38l-8.76-.03h0c-1.31,0-2.37,1.06-2.37,2.37,0,1.31,1.06,2.38,2.37,2.38h2.01s-.02,6.09-.02,6.09c-2.41-.17-4.73-.56-6.84-.91-4.94-.82-9.2-1.52-12.12.94-1.86,1.58-2.78,4.17-2.79,7.93-.05,13.28,10.73,24.13,24.01,24.17h.08c13.25,0,24.05-10.75,24.09-24.01.01-3.76-.88-6.36-2.74-7.95ZM91.67,120.3h-.07c-10.67-.04-19.31-8.74-19.28-19.41,0-1.55.2-3.56,1.1-4.32.5-.43,1.37-.59,2.45-.59,1.59,0,3.67.34,5.82.7,2.97.49,6.34,1.05,9.97,1.06h0s0,0,0,0c3.65,0,7-.52,9.97-.99,3.62-.57,7.04-1.12,8.28-.06.9.77,1.08,2.78,1.08,4.33-.04,10.64-8.71,19.28-19.34,19.28Z"/>
      </g>
      <g>
        <path class="cls-4" d="M159.89,142.23c-6.51-2.47-14.04,9.17-14.04,9.17-6.24-5.48-12.62-8.84-16.49-5.33-2.71,2.45-1.96,6.02-.05,9.44l-8.12,8.12c-3.87,3.87-4.9,9.51-3.07,14.32-.69,1.67-1.31,3.42-1.84,5.24-4.73,16.27-.55,31.79,9.33,34.66,9.88,2.87,21.72-7.99,26.45-24.27,1.68-5.79,2.23-11.48,1.8-16.55,1.75-1.99,2.81-4.38,3.19-6.85,5.83-12.17,9.34-25.49,2.83-27.96Z"/>
        <path class="cls-2" d="M159.36,170.86c3.37-7.1,8.38-19.63,5.59-26.6-.82-2.04-2.28-3.52-4.22-4.25-6.28-2.38-12.47,4.23-15.32,7.92-6.09-4.85-12.86-7.96-17.65-3.62-1.69,1.53-2.57,3.56-2.55,5.86.02,1.59.48,3.24,1.21,4.86l-6.91,6.91c-3,3-4.65,6.98-4.65,11.21,0,1.63.25,3.22.72,4.74-.59,1.51-1.13,3.06-1.58,4.63-2.41,8.28-2.7,16.68-.83,23.64,1.99,7.38,6.17,12.34,11.78,13.97,1.29.37,2.61.56,3.95.56,4.48,0,9.14-2.07,13.48-6.05,5.31-4.87,9.56-12.12,11.97-20.4,1.61-5.54,2.28-11.2,1.96-16.43,1.58-2.04,2.62-4.42,3.05-6.95ZM149.79,192.92c-4.28,14.73-15.04,25.11-23.51,22.65-8.46-2.46-11.99-16.99-7.71-31.72.04-.13.08-.25.12-.38.27.31.54.61.83.9l4,4c2.99,2.99,6.97,4.64,11.21,4.64h0c4.23,0,8.22-1.65,11.21-4.64l5.63-5.63c-.19,3.33-.79,6.77-1.78,10.17ZM151.6,175.99l-9.02,9.02c-2.1,2.1-4.89,3.25-7.85,3.25h0c-2.97,0-5.75-1.16-7.85-3.25l-4-4c-2.1-2.1-3.25-4.89-3.25-7.85s1.16-5.75,3.25-7.85l6.02-6.02c3.03,4.29,6.93,7.74,7.61,8.34.45.39,1,.58,1.55.58.67,0,1.33-.28,1.8-.82.86-.99.75-2.49-.25-3.35-2.48-2.14-9.59-9.3-9.64-13.9-.01-.95.29-1.66.99-2.29,2.68-2.43,8.89.72,16.61,8.42.01.01.02.02.03.03l4,4c2.1,2.1,3.25,4.88,3.25,7.85,0,2.97-1.15,5.75-3.24,7.85ZM150.98,152.97s-.02-.03-.03-.04c-.63-.63-1.28-1.26-1.94-1.88,2.57-3.35,7.01-7.75,10.04-6.6.71.27,1.17.75,1.5,1.58,1.14,2.86.23,8.51-2.38,15.53-.78-1.7-1.86-3.26-3.21-4.62l-3.97-3.97Z"/>
      </g>
      <path class="cls-3" d="M139.44,116.79l.87.87.87-.87c3.6-3.61,9.44-3.62,13.05-.02h0c3.61,3.6,3.62,9.44.02,13.05l-4.76,4.78c-5.05,5.06-13.24,5.07-18.3.02l-4.78-4.76c-3.61-3.6-3.62-9.44-.02-13.05h0c3.6-3.61,9.44-3.62,13.05-.02Z"/>
      <g>
        <path class="cls-4" d="M47.05,140.47l-5.11-3.06c-6.71-4.02-15.42-1.84-19.44,4.88l-6.89,11.52c-3.47,5.8-2.31,13.08,2.4,17.55.3,2.74.85,5.55,1.67,8.4,4.73,16.27,16.57,27.14,26.45,24.27,9.88-2.87,14.06-18.39,9.33-34.66-.83-2.86-1.89-5.55-3.11-8.04,3.57.75,6.87.34,8.51-2.73,3.07-5.75-4.59-12.61-13.81-18.12Z"/>
        <path class="cls-2" d="M48.28,138.43s-.03-.01-.04-.02l-5.07-3.03c-3.79-2.27-8.24-2.92-12.53-1.85-4.29,1.08-7.9,3.76-10.17,7.55l-6.89,11.52c-2.27,3.8-2.93,8.25-1.85,12.54.7,2.79,2.09,5.29,4.01,7.33.33,2.64.89,5.31,1.66,7.96,2.41,8.28,6.66,15.53,11.97,20.4,4.33,3.98,9,6.05,13.47,6.05,1.34,0,2.66-.19,3.95-.56,5.61-1.63,9.79-6.59,11.78-13.97,1.87-6.96,1.58-15.35-.83-23.63-.47-1.6-1.01-3.18-1.62-4.71.54-.04,1.07-.11,1.58-.24,2.32-.55,4.13-1.95,5.25-4.04,4.18-7.83-5.68-15.89-14.69-21.28ZM53.99,191.1c-1.54,5.71-4.56,9.49-8.51,10.64-3.95,1.15-8.53-.42-12.89-4.42-4.68-4.29-8.45-10.77-10.62-18.23-.25-.86-.47-1.73-.67-2.59l3.09,1.85c2.66,1.59,5.58,2.34,8.47,2.34,5.63,0,11.13-2.87,14.23-8.05l4.42-7.39c.63,1.55,1.2,3.14,1.67,4.77,2.17,7.46,2.45,14.94.8,21.07ZM58.77,157.48c-.48.9-1.15,1.41-2.16,1.65-4.23,1.01-12.52-3.32-16.75-6.29-1.07-.75-2.55-.5-3.31.58-.75,1.07-.5,2.55.58,3.31.79.55,5.37,3.69,10.56,5.67l-4.67,7.81c-3.34,5.58-10.6,7.41-16.19,4.07l-5.11-3.06c-2.7-1.62-4.62-4.19-5.39-7.25-.77-3.06-.3-6.23,1.32-8.94l6.89-11.52c3.34-5.58,10.6-7.4,16.18-4.06l5.11,3.06s.03.01.04.02c9.91,5.93,14.73,11.52,12.9,14.95Z"/>
      </g>
    </g>
  </g>
</svg>