<?xml version="1.0" encoding="UTF-8"?>
<svg id="Capa_2" xmlns="http://www.w3.org/2000/svg" viewBox="0 0 202.87 220.69">
  <defs>
    <style>
      .cls-1 {
        fill: #f6608e;
      }

      .cls-2 {
        fill: #ffa6ca;
      }

      .cls-3 {
        fill: #fff;
      }

      .cls-4 {
        fill: #678490;
      }

      .cls-5 {
        fill: #fd80a6;
      }

      .cls-6 {
        fill: #b1b9c6;
      }

      .cls-7 {
        fill: #91a2b5;
      }

      .cls-8 {
        fill: #e3e3e3;
      }

      .cls-9 {
        fill: #605c5d;
      }
    </style>
  </defs>
  <g id="OBJECTS">
    <g>
      <g>
        <path class="cls-6" d="M150.12,3.95c-10.37-7.39-35.95,13.5-47.1,23.42-6.34,0-14.36.92-23.47,2.49-9.12,1.49-17,3.24-23,5.3-13.78-5.75-44.77-17.15-52.16-6.78-7.34,10.29,6.78,32.8,13.76,42.72-4.38,11.35-4.72,23.03-3.09,32.76,1.41,8.42,3.82,16.66,7.25,24.73,6.69,15.75,21.77,26.18,38.87,26.75,13.2.44,26.19-.41,38.96-2.55,12.77-2.14,25.33-5.57,37.66-10.3,15.98-6.12,26.84-20.9,28.02-37.97.61-8.75.2-17.32-1.21-25.74-1.63-9.73-5.76-20.66-13.6-29.96,3.35-11.63,9.37-37.53-.93-44.87Z"/>
        <g>
          <path class="cls-7" d="M89.61,34.36c2.34,13.93.17,25.9-4.81,26.74-4.99.84-10.94-9.77-13.28-23.71-.32-1.91-.56-3.78-.71-5.59,5.83-1.25,11.71-2.24,17.64-2.95.45,1.76.83,3.6,1.15,5.5Z"/>
          <g>
            <path class="cls-7" d="M69.43,33.03c2.33,13.92.18,25.9-4.81,26.74-4.8.8-10.51-9.04-13.01-22.23,2.97-1.33,6.08-2.45,9.31-3.33,2.77-.75,5.55-1.45,8.34-2.07.06.3.11.59.16.88Z"/>
            <path class="cls-7" d="M108.47,27.89c1.97,13.33-.2,24.56-5.03,25.37-4.99.84-10.93-9.78-13.27-23.71-.05-.3-.1-.59-.14-.89,3.26-.37,6.55-.65,9.84-.85,2.9-.18,5.77-.14,8.59.07Z"/>
          </g>
        </g>
        <path class="cls-3" d="M143.31,27.13s1.99,3.02,2.84,6.64c.79,3.34-.81,6.27-3.3,7.79-6.67-5.43-14.46-9.48-22.87-11.79-.23-1.85.23-3.78,1.5-5.39,5.08-6.46,12.39-13.73,18.66-12.32,10.92,2.46,3.18,15.05,3.18,15.05Z"/>
        <path class="cls-3" d="M18.4,48.07s-.89,3.51-.51,7.21c.34,3.42,2.81,5.66,5.66,6.29,4.53-7.31,10.57-13.67,17.78-18.6-.38-1.82-1.45-3.5-3.17-4.6-6.91-4.45-16.19-8.94-21.65-5.56-9.52,5.89,1.9,15.27,1.9,15.27Z"/>
        <path class="cls-4" d="M166.99,78.39c-1.22-7.27-4.5-19.24-13.31-30.13,4.05-14.48,8.69-38.49-2.18-46.24-5.42-3.86-13.88-2.19-25.87,5.12-8.73,5.33-17.49,12.54-23.51,17.87-6.06.09-13.74.92-22.93,2.51-9.23,1.51-16.76,3.22-22.53,5.12-7.44-3.07-18.09-7.04-28.06-9.23-13.72-3-22.26-1.83-26.12,3.59-7.76,10.88,4.47,32.06,13.03,44.42-4.77,13.17-3.98,25.56-2.76,32.83,1.44,8.58,3.93,17.07,7.41,25.26,3.46,8.15,9.12,15.1,16.37,20.09,7.26,5,15.77,7.81,24.61,8.11,2.25.08,4.5.11,6.75.11,11.03,0,21.99-.9,32.68-2.69,12.87-2.16,25.69-5.66,38.12-10.42,8.26-3.16,15.39-8.59,20.62-15.69,5.22-7.09,8.31-15.5,8.92-24.33.62-8.88.2-17.72-1.24-26.3ZM163.49,104.36c-1.12,16.07-11.52,30.17-26.5,35.91-12.13,4.64-24.65,8.07-37.21,10.17-12.56,2.11-25.51,2.95-38.49,2.52-16.04-.54-30.47-10.48-36.77-25.31-3.33-7.84-5.72-15.98-7.09-24.19-1.52-9.09-2.36-26.8,9.21-43.2.76-1.07.5-2.55-.57-3.31-1.07-.76-2.55-.5-3.31.57-2.02,2.87-3.69,5.77-5.07,8.66C6.35,49.16,2.11,35.69,6.34,29.76c4.08-5.73,20.68-3.61,43.88,5.42-3.64,1.74-7.08,3.69-10.23,5.79-1.09.73-1.38,2.2-.66,3.29.46.69,1.21,1.06,1.98,1.06.45,0,.91-.13,1.32-.4,3.04-2.03,6.38-3.92,9.93-5.6,5.64-2.68,14.86-5.07,27.4-7.11,12.51-2.15,22-2.9,28.2-2.21,3.9.44,7.67,1.13,11.21,2.06,1.27.33,2.57-.43,2.9-1.69.33-1.27-.43-2.57-1.69-2.9-3.66-.96-7.55-1.68-11.57-2.14C128,9.21,143,1.8,148.74,5.88c5.92,4.22,6.31,18.34,1.16,38.14-2.24-2.28-4.77-4.48-7.62-6.53-1.06-.77-2.55-.53-3.31.54-.77,1.06-.53,2.55.54,3.32,16.28,11.73,21.27,28.74,22.8,37.83,1.38,8.21,1.77,16.68,1.18,25.18Z"/>
        <g>
          <path class="cls-9" d="M139.43,92.29c-.91-5.4-5.4-9.15-10.03-8.37-4.63.78-7.66,5.78-6.75,11.18.91,5.4,5.39,9.15,10.03,8.37,4.63-.78,7.66-5.78,6.75-11.18Z"/>
          <path class="cls-9" d="M76.05,102.92c-.91-5.4-5.39-9.15-10.03-8.37-4.63.78-7.66,5.78-6.75,11.18.91,5.4,5.39,9.15,10.03,8.37,4.63-.78,7.65-5.78,6.75-11.18Z"/>
        </g>
        <g>
          <g>
            <path class="cls-7" d="M141.28,108.28c-1.14,0-2.14-.82-2.34-1.98-.22-1.29.66-2.52,1.95-2.74l13.26-2.22c1.29-.22,2.52.66,2.73,1.95.22,1.29-.66,2.52-1.95,2.73l-13.26,2.22c-.13.02-.27.03-.4.03Z"/>
            <path class="cls-7" d="M154.22,118.92c-.15,0-.3-.01-.45-.04l-11.52-2.2c-1.29-.25-2.13-1.49-1.89-2.78.25-1.29,1.49-2.13,2.78-1.89l11.52,2.2c1.29.25,2.13,1.49,1.89,2.78-.22,1.14-1.21,1.93-2.33,1.93Z"/>
          </g>
          <g>
            <path class="cls-7" d="M48.7,123.81c-1.14,0-2.14-.82-2.34-1.98-.22-1.29.66-2.52,1.95-2.73l13.26-2.22c1.29-.22,2.52.66,2.73,1.95.22,1.29-.66,2.52-1.95,2.74l-13.26,2.22c-.13.02-.27.03-.4.03Z"/>
            <path class="cls-7" d="M53.2,135.85c-.82,0-1.62-.43-2.06-1.19-.65-1.14-.26-2.59.88-3.24l10.17-5.84c1.14-.65,2.59-.26,3.24.88.65,1.14.26,2.59-.88,3.24l-10.17,5.84c-.37.21-.78.32-1.18.32Z"/>
          </g>
        </g>
        <g>
          <path class="cls-3" d="M114.61,70.22c-1.14,0-2.14-.82-2.34-1.98-.22-1.29.66-2.52,1.95-2.74l6.95-1.17c1.29-.21,2.52.66,2.74,1.95.22,1.29-.66,2.52-1.95,2.74l-6.95,1.17c-.13.02-.27.03-.4.03Z"/>
          <path class="cls-3" d="M68.84,77.89c-1.14,0-2.14-.82-2.34-1.98-.22-1.29.66-2.52,1.95-2.73l6.95-1.17c1.29-.22,2.52.66,2.73,1.95.22,1.29-.66,2.52-1.95,2.73l-6.95,1.17c-.13.02-.27.03-.4.03Z"/>
        </g>
        <g>
          <path class="cls-4" d="M112.2,102.59l.76,4.52c.36,2.12.12,4.21-.58,6.1-1.43,3.83-4.81,6.82-9.15,7.54s-8.5-1-11.11-4.15c-1.28-1.55-2.18-3.45-2.54-5.57l-.76-4.52c1.18.36,2.46.47,3.76.25,4.46-.75,7.46-4.96,6.71-9.42.75,4.46,4.97,7.46,9.42,6.71,1.3-.22,2.48-.73,3.47-1.46Z"/>
          <path class="cls-5" d="M112.74,115.34c-1.43,3.83-4.81,6.82-9.14,7.54-4.33.73-8.5-1-11.11-4.15,1.43-3.84,4.81-6.83,9.14-7.56,4.33-.73,8.5,1,11.11,4.16Z"/>
          <path class="cls-4" d="M115.3,106.72l-.62-3.67c-.1-.62-.45-1.18-.96-1.54-.51-.37-1.15-.51-1.77-.41l-3.62.61c-1.53.26-3.07-.1-4.33-1-.84-.6-1.49-1.4-1.91-2.32l.95-.16c1.29-.22,2.17-1.44,1.95-2.73-.22-1.29-1.44-2.17-2.73-1.95l-7.45,1.25c-1.29.22-2.17,1.44-1.95,2.73.19,1.16,1.2,1.98,2.34,1.98.13,0,.26-.01.4-.03l1.41-.24c-.24,2.55-2.17,4.73-4.81,5.18l-3.62.61c-.62.1-1.18.45-1.54.96s-.51,1.15-.41,1.77l.62,3.67c1.16,6.94,7.2,11.87,14.02,11.87.78,0,1.57-.06,2.36-.2,3.75-.63,7.02-2.68,9.23-5.77,2.2-3.09,3.07-6.86,2.44-10.6ZM108.99,114.57c-1.47,2.06-3.65,3.43-6.15,3.85-5.15.86-10.04-2.62-10.91-7.77l-.22-1.33,1.27-.21c2.78-.47,5.21-1.99,6.85-4.28.21-.29.4-.59.58-.9.27.23.55.45.84.66,2.3,1.64,5.09,2.28,7.87,1.82l1.27-.21.22,1.33c.42,2.49-.16,5-1.63,7.06Z"/>
        </g>
      </g>
      <ellipse class="cls-6" cx="53.52" cy="174.02" rx="27.77" ry="15.59" transform="translate(-121.73 124.68) rotate(-57.18)"/>
      <path class="cls-5" d="M154.3,122.47l1.55,2.4,2.41-1.55c9.95-6.43,23.23-3.58,29.66,6.37h0c6.43,9.95,3.58,23.23-6.37,29.66l-13.17,8.51c-13.95,9.02-32.58,5.02-41.6-8.93l-8.51-13.17c-6.43-9.95-3.58-23.23,6.37-29.66h0c9.95-6.43,23.23-3.58,29.66,6.37Z"/>
      <path class="cls-1" d="M152.1,175.05c-10.66,0-21.11-5.23-27.31-14.83l-8.51-13.17c-7.13-11.03-3.96-25.81,7.07-32.94,11.03-7.13,25.81-3.96,32.94,7.07l.27.41.41-.27c11.03-7.13,25.81-3.96,32.94,7.07,7.13,11.03,3.96,25.81-7.07,32.94l-13.17,8.51c-5.43,3.51-11.54,5.19-17.57,5.19ZM136.25,115.04c-3.63,0-7.19,1.04-10.32,3.06-8.83,5.71-11.37,17.54-5.66,26.38l8.51,13.17c8.29,12.83,25.48,16.52,38.31,8.23l13.17-8.51c4.28-2.77,7.22-7.03,8.29-12.01,1.07-4.98.13-10.08-2.63-14.36-2.77-4.28-7.03-7.22-12.01-8.29-4.98-1.07-10.08-.14-14.36,2.63l-2.4,1.55c-1.1.71-2.57.4-3.28-.71l-1.55-2.41c-2.77-4.28-7.03-7.22-12.01-8.29-1.34-.29-2.7-.43-4.04-.43Z"/>
      <g>
        <path class="cls-6" d="M175,140.77c1.6,7.85,9.26,12.93,17.12,11.33,7.85-1.6,9.41-8.55,7.81-16.4-1.6-7.85-5.75-13.64-13.61-12.04-7.85,1.6-12.93,9.26-11.33,17.12Z"/>
        <path class="cls-4" d="M189.19,154.77c-3.28,0-6.49-.96-9.28-2.81-3.76-2.49-6.33-6.29-7.23-10.72h0c-1.86-9.13,4.05-18.06,13.18-19.92,8.28-1.69,14.27,3.38,16.41,13.89.96,4.71.8,8.72-.48,11.91-1.55,3.87-4.73,6.39-9.18,7.3-1.13.23-2.27.34-3.41.34ZM177.33,140.3c.65,3.18,2.49,5.91,5.2,7.7,2.7,1.79,5.94,2.42,9.12,1.77,2.89-.59,4.77-2.03,5.72-4.41.92-2.28,1-5.46.24-9.19-1.61-7.89-5.24-11.32-10.8-10.19-6.56,1.34-10.81,7.76-9.47,14.32h0Z"/>
      </g>
      <path class="cls-4" d="M43.84,201.23c-2.42,0-4.68-.6-6.65-1.87h0c-4.25-2.74-6.36-8.05-5.94-14.95.39-6.4,2.94-13.55,7.18-20.12,9.16-14.21,22.97-21.06,31.44-15.6,8.47,5.46,7.92,20.87-1.24,35.07-7.03,10.9-16.8,17.47-24.79,17.47ZM63.18,151.55c-6.24,0-14.77,6.02-20.76,15.31-3.8,5.9-6.09,12.23-6.43,17.84-.31,5.11,1.03,8.9,3.77,10.67h0c1.19.76,2.58,1.13,4.11,1.13,6.24,0,14.77-6.02,20.76-15.31,7.46-11.57,8.68-24.62,2.66-28.5-1.19-.76-2.58-1.13-4.11-1.13Z"/>
      <g>
        <path class="cls-3" d="M154.8,160.29l-32.48-27.94c-3.08-2.65-7.38-3.36-11.15-1.84l-39.73,16.03c-3.52,1.42-6.04,4.57-6.66,8.31l-6.42,38.91c-.98,5.92,3.03,11.52,8.96,12.49l72.21,11.91c5.92.98,11.52-3.03,12.49-8.95l6.42-38.91c.62-3.74-.76-7.54-3.64-10.01Z"/>
        <path class="cls-2" d="M92.58,168.57l.71.96.96-.71c3.95-2.93,9.53-2.1,12.46,1.86h0c2.93,3.95,2.1,9.53-1.86,12.46l-5.23,3.88c-5.55,4.11-13.37,2.94-17.48-2.6l-3.88-5.23c-2.93-3.95-2.1-9.53,1.86-12.46h0c3.95-2.93,9.53-2.1,12.46,1.86Z"/>
        <path class="cls-8" d="M141.32,220.69c-.72,0-1.45-.06-2.18-.18l-72.21-11.91c-3.49-.58-6.55-2.48-8.61-5.35-2.06-2.88-2.88-6.38-2.3-9.87l6.42-38.91c.75-4.53,3.86-8.41,8.11-10.13l39.73-16.03c4.61-1.86,9.82-1,13.59,2.24l32.48,27.94h0c3.48,2.99,5.18,7.67,4.43,12.2l-6.42,38.91c-.58,3.49-2.48,6.55-5.35,8.61-2.27,1.63-4.94,2.48-7.69,2.48ZM115.24,132.1c-1.07,0-2.15.2-3.19.62l-39.73,16.03c-2.73,1.1-4.72,3.59-5.2,6.49l-6.42,38.91c-.37,2.24.16,4.49,1.48,6.33,1.32,1.84,3.28,3.06,5.52,3.43l72.21,11.91c2.24.37,4.49-.16,6.33-1.48,1.84-1.32,3.06-3.28,3.43-5.52l6.42-38.91c.48-2.9-.61-5.9-2.84-7.82l-32.48-27.94c-1.57-1.35-3.54-2.06-5.53-2.06Z"/>
        <path class="cls-8" d="M146.51,169.3c-.12,0-.25,0-.37-.03l-69.92-11.05c-1.3-.2-2.18-1.42-1.98-2.72.2-1.3,1.43-2.18,2.72-1.98l69.92,11.05c1.3.2,2.18,1.42,1.98,2.72-.19,1.17-1.19,2-2.34,2Z"/>
        <path class="cls-8" d="M143.74,181.13c-.12,0-.25,0-.37-.03l-19.44-3.07c-1.3-.2-2.18-1.42-1.97-2.72.2-1.3,1.42-2.18,2.72-1.97l19.44,3.07c1.3.2,2.18,1.42,1.97,2.72-.19,1.17-1.19,2-2.34,2Z"/>
        <path class="cls-8" d="M142.48,191.65c-.12,0-.25,0-.37-.03l-19.44-3.07c-1.3-.2-2.18-1.42-1.97-2.72.2-1.3,1.42-2.18,2.72-1.97l19.44,3.07c1.3.2,2.18,1.42,1.97,2.72-.19,1.17-1.19,2-2.34,2Z"/>
        <path class="cls-8" d="M140.7,201.42c-.12,0-.25,0-.37-.03l-19.44-3.07c-1.3-.2-2.18-1.42-1.98-2.72.2-1.3,1.42-2.18,2.72-1.98l19.44,3.07c1.3.2,2.18,1.42,1.98,2.72-.19,1.17-1.19,2-2.34,2Z"/>
        <path class="cls-8" d="M99.55,200.73c-.12,0-.25,0-.37-.03l-19.44-3.07c-1.3-.2-2.18-1.42-1.98-2.72.2-1.3,1.42-2.18,2.72-1.98l19.44,3.07c1.3.2,2.18,1.42,1.98,2.72-.19,1.17-1.19,2-2.34,2Z"/>
      </g>
      <g>
        <path class="cls-6" d="M79.89,158.75c-1.6,7.85-9.26,12.93-17.12,11.33-7.85-1.6-9.41-8.55-7.81-16.4,1.6-7.85,5.75-13.64,13.61-12.04,7.85,1.6,12.93,9.26,11.33,17.12Z"/>
        <path class="cls-4" d="M65.68,172.75c-1.11,0-2.24-.11-3.38-.34-4.45-.91-7.63-3.43-9.18-7.3-1.28-3.19-1.44-7.2-.48-11.91,2.14-10.52,8.12-15.58,16.41-13.89,9.13,1.86,15.04,10.79,13.18,19.92h0c-1.63,7.99-8.69,13.52-16.54,13.52ZM66.11,143.75c-4.45,0-7.41,3.49-8.82,10.4-.76,3.73-.68,6.91.24,9.19.96,2.38,2.83,3.82,5.72,4.41,6.56,1.34,12.98-2.91,14.32-9.47h0c1.34-6.56-2.91-12.98-9.47-14.32-.69-.14-1.35-.21-1.99-.21ZM79.89,158.75h0,0Z"/>
      </g>
    </g>
  </g>
</svg>