<?xml version="1.0" encoding="UTF-8"?>
<svg id="Capa_2" xmlns="http://www.w3.org/2000/svg" viewBox="0 0 171.48 220.69">
  <defs>
    <style>
      .cls-1 {
        fill: #f6608e;
      }

      .cls-2 {
        fill: #ffa6ca;
      }

      .cls-3 {
        fill: #fff;
      }

      .cls-4 {
        fill: #678490;
      }

      .cls-5 {
        fill: #fd80a6;
      }

      .cls-6 {
        fill: #b1b9c6;
      }

      .cls-7 {
        fill: #91a2b5;
      }

      .cls-8 {
        fill: #605c5d;
      }
    </style>
  </defs>
  <g id="OBJECTS">
    <g>
      <path class="cls-6" d="M124.87,138.05l-80.98,12.19c-18.29,25.98-21.2,60.21,0,63.5,4.47.69,9.69-.03,15.08-1.72,8.85,3.44,37.49,7.51,48.94,3.97.91.68,1.96,1.27,3.21,1.7,13.3,4.6,25.93-16.68,30.31-38.48l-16.56-41.15Z"/>
      <path class="cls-4" d="M114.8,220.69c-1.5,0-2.99-.25-4.45-.76-3.91-1.36-6.64-3.94-8.1-7.68-4.8-12.27,6.31-33.28,6.79-34.16.62-1.16,2.06-1.59,3.21-.97,1.16.62,1.59,2.06.98,3.21-2.95,5.52-9.87,21.7-6.55,30.2.95,2.42,2.66,4.03,5.23,4.92,2.66.92,5.32.59,8.12-1.02,7.93-4.53,15.77-19.21,19.08-35.69.26-1.29,1.51-2.12,2.8-1.86,1.29.26,2.12,1.51,1.86,2.8-3.67,18.29-12.06,33.55-21.38,38.88-2.48,1.42-5.05,2.14-7.58,2.14Z"/>
      <g>
        <path class="cls-6" d="M165.33,5.24c-9.7-9.7-40.6,7.94-54.21,16.5-6.74-1.12-15.42-1.58-25.38-1.54-9.95-.04-18.64.42-25.38,1.54C46.75,13.17,15.86-4.46,6.16,5.24c-9.63,9.63,1.36,36.06,7.01,47.84-6.68,11.28-9.11,23.63-9.11,34.26,0,9.2,1.1,18.38,3.3,27.56,4.3,17.93,18.47,31.69,36.54,35.35,13.95,2.82,27.9,4.23,41.85,4.23s27.9-1.41,41.85-4.23c18.07-3.66,32.24-17.42,36.54-35.35,2.2-9.18,3.3-18.37,3.3-27.56,0-10.63-2.44-22.98-9.11-34.25,5.63-11.77,16.64-38.21,7.01-47.84Z"/>
        <ellipse class="cls-2" cx="117.38" cy="120.57" rx="12.96" ry="7.9"/>
        <ellipse class="cls-2" cx="42.75" cy="120.57" rx="12.96" ry="7.9"/>
        <g>
          <path class="cls-7" d="M95.62,26.76c0,15.22-4.43,27.55-9.87,27.55s-9.88-12.33-9.88-27.55c0-2.09.08-4.11.24-6.06,6.42-.29,12.84-.29,19.27.01.16,1.95.24,3.97.24,6.05Z"/>
          <g>
            <path class="cls-7" d="M74.41,21.76c0,15.21-4.42,27.55-9.87,27.55s-9.56-11.48-9.86-25.93c3.39-.89,6.9-1.51,10.49-1.88,3.08-.3,6.15-.55,9.23-.71.01.33.01.64.01.97Z"/>
            <path class="cls-7" d="M116.81,23.25c-.28,14.51-4.59,26.06-9.86,26.06s-9.87-12.34-9.87-27.55c0-.33,0-.64.01-.97,3.53.19,7.07.48,10.61.85,3.11.33,6.15.87,9.11,1.61Z"/>
          </g>
        </g>
        <path class="cls-3" d="M153.97,28.65s1.57,3.57,1.83,7.56c.24,3.69-1.98,6.51-4.89,7.69-6.12-6.96-13.67-12.65-22.2-16.6.08-2,.92-3.97,2.55-5.45,6.55-5.96,15.61-12.38,22.02-9.77,11.17,4.56.7,16.56.7,16.56Z"/>
        <path class="cls-3" d="M17.52,28.65s-1.57,3.57-1.83,7.56c-.24,3.69,1.98,6.51,4.89,7.69,6.12-6.96,13.67-12.65,22.2-16.6-.08-2-.92-3.97-2.55-5.45-6.55-5.96-15.61-12.38-22.02-9.77-11.17,4.56-.7,16.56-.7,16.56Z"/>
        <path class="cls-4" d="M167.01,3.55c-5.01-5.01-14.23-4.72-28.2.88-10.24,4.11-20.85,10.23-28.19,14.82-6.46-.99-14.77-1.48-24.86-1.43-10.1-.04-18.42.44-24.88,1.43-7.36-4.59-17.97-10.72-28.2-14.82C18.71-1.17,9.49-1.46,4.48,3.55c-10.12,10.12-.87,34.8,6.01,49.4C3.04,66.08,1.68,79.39,1.68,87.33c0,9.35,1.13,18.81,3.36,28.12,2.22,9.24,6.98,17.6,13.77,24.18,6.8,6.59,15.31,11.06,24.61,12.95,14.04,2.84,28.28,4.28,42.32,4.28s28.28-1.44,42.32-4.28c9.3-1.88,17.81-6.36,24.61-12.95,6.79-6.57,11.55-14.93,13.77-24.18,2.23-9.31,3.36-18.77,3.36-28.12,0-7.94-1.36-21.25-8.8-34.38,6.86-14.6,16.1-39.29,6-49.4ZM161.83,114.34c-2.01,8.36-6.31,15.93-12.45,21.87-6.15,5.95-13.84,10-22.25,11.7-13.73,2.78-27.65,4.18-41.38,4.18s-27.65-1.41-41.38-4.18c-8.41-1.7-16.1-5.75-22.25-11.7-6.14-5.95-10.44-13.51-12.45-21.87-2.15-8.94-3.23-18.03-3.23-27.01,0-9.96,2.28-28.98,17.54-44.39.92-.93.92-2.44-.02-3.36-.93-.92-2.44-.92-3.36.02-2.74,2.76-5.08,5.63-7.09,8.54C4.34,27.81,2.2,12.55,7.84,6.91c5.45-5.45,22.95-.17,46.25,13.76-.02,0-.04.01-.06.02-4.29,1.22-8.4,2.71-12.22,4.43-1.2.54-1.73,1.94-1.19,3.14.54,1.2,1.94,1.73,3.14,1.19,3.61-1.62,7.5-3.03,11.57-4.19,6.49-1.84,16.73-2.74,30.43-2.68,13.69-.06,23.92.84,30.41,2.68,4.07,1.16,7.97,2.57,11.57,4.19.32.14.65.21.97.21.91,0,1.77-.52,2.17-1.4.54-1.2,0-2.6-1.19-3.14-3.81-1.72-7.92-3.21-12.22-4.43-.02,0-.05-.01-.07-.02,23.29-13.94,40.79-19.21,46.25-13.76,5.63,5.63,3.49,20.89-5.66,41.23-2.01-2.91-4.36-5.78-7.09-8.54-.92-.93-2.43-.94-3.36-.02-.93.92-.94,2.43-.02,3.36,15.26,15.41,17.54,34.43,17.54,44.39,0,8.98-1.09,18.07-3.23,27.01Z"/>
        <g>
          <path class="cls-8" d="M115.71,109.62c-6.36,0-11.54-5.18-11.54-11.54,0-1.31,1.06-2.38,2.38-2.38s2.38,1.06,2.38,2.38c0,3.74,3.05,6.79,6.79,6.79s6.79-3.05,6.79-6.79c0-1.31,1.06-2.38,2.38-2.38s2.38,1.06,2.38,2.38c0,6.36-5.18,11.54-11.54,11.54Z"/>
          <path class="cls-8" d="M46.46,109.62c-6.36,0-11.54-5.18-11.54-11.54,0-1.31,1.06-2.38,2.38-2.38s2.38,1.06,2.38,2.38c0,3.74,3.05,6.79,6.79,6.79s6.79-3.05,6.79-6.79c0-1.31,1.06-2.38,2.38-2.38s2.38,1.06,2.38,2.38c0,6.36-5.18,11.54-11.54,11.54Z"/>
        </g>
        <g>
          <g>
            <path class="cls-7" d="M138.89,117.24h-14.48c-1.31,0-2.38-1.06-2.38-2.38s1.06-2.38,2.38-2.38h14.48c1.31,0,2.38,1.06,2.38,2.38s-1.06,2.38-2.38,2.38Z"/>
            <path class="cls-7" d="M136.26,130.84c-.27,0-.55-.05-.82-.15l-11.85-4.39c-1.23-.46-1.86-1.82-1.4-3.05.46-1.23,1.82-1.86,3.05-1.4l11.85,4.39c1.23.46,1.86,1.82,1.4,3.05-.35.96-1.26,1.55-2.23,1.55Z"/>
          </g>
          <g>
            <path class="cls-7" d="M37.76,117.24h-14.48c-1.31,0-2.38-1.06-2.38-2.38s1.06-2.38,2.38-2.38h14.48c1.31,0,2.38,1.06,2.38,2.38s-1.06,2.38-2.38,2.38Z"/>
            <path class="cls-7" d="M25.91,130.84c-.97,0-1.87-.59-2.23-1.55-.46-1.23.17-2.6,1.4-3.05l11.85-4.39c1.23-.46,2.6.17,3.05,1.4.46,1.23-.17,2.6-1.4,3.05l-11.85,4.39c-.27.1-.55.15-.82.15Z"/>
          </g>
        </g>
        <g>
          <path class="cls-3" d="M109.88,83.49h-7.6c-1.31,0-2.38-1.06-2.38-2.38s1.06-2.38,2.38-2.38h7.6c1.31,0,2.38,1.06,2.38,2.38s-1.06,2.38-2.38,2.38Z"/>
          <path class="cls-3" d="M59.88,83.49h-7.6c-1.31,0-2.38-1.06-2.38-2.38s1.06-2.38,2.38-2.38h7.6c1.31,0,2.38,1.06,2.38,2.38s-1.06,2.38-2.38,2.38Z"/>
        </g>
        <path class="cls-4" d="M97.04,106.53c-1.27-.32-2.56.45-2.88,1.73-.61,2.41-2.77,4.1-5.26,4.1-2.92,0-5.3-2.31-5.42-5.19h1.68c1.31,0,2.38-1.06,2.38-2.38s-1.06-2.38-2.38-2.38h-8.13c-1.31,0-2.38,1.06-2.38,2.38s1.06,2.38,2.38,2.38h1.68c-.13,2.88-2.5,5.19-5.42,5.19-2.5,0-4.66-1.68-5.27-4.1-.32-1.27-1.61-2.04-2.88-1.73-1.27.32-2.04,1.61-1.73,2.88,1.14,4.53,5.2,7.69,9.87,7.69,3.13,0,5.94-1.42,7.8-3.65,1.87,2.23,4.68,3.65,7.81,3.65,4.67,0,8.73-3.16,9.87-7.69.32-1.27-.45-2.56-1.73-2.88Z"/>
      </g>
      <path class="cls-5" d="M108.8,151.46l2.03,1.93,1.93-2.03c8-8.38,21.28-8.69,29.66-.69h0c8.38,8,8.69,21.28.69,29.66l-17.91,18.76c-7.18,7.52-19.09,7.79-26.61.62l-18.76-17.91c-8.38-8-8.69-21.28-.69-29.66h0c8-8.38,21.28-8.69,29.66-.69Z"/>
      <path class="cls-1" d="M111.57,207.3c-5.47,0-10.65-2.07-14.62-5.86l-18.76-17.91c-4.51-4.31-7.08-10.11-7.22-16.35-.14-6.24,2.15-12.15,6.45-16.67,4.31-4.51,10.11-7.08,16.35-7.22,6.23-.15,12.15,2.15,16.67,6.45l.31.29.29-.31c8.89-9.31,23.7-9.66,33.02-.77,9.31,8.89,9.66,23.7.77,33.02l-17.91,18.76c-3.91,4.09-9.18,6.42-14.84,6.55-.17,0-.34,0-.5,0ZM94.32,148.03c-.15,0-.29,0-.44,0-4.97.12-9.59,2.16-13.02,5.75-3.43,3.59-5.26,8.31-5.14,13.28.12,4.97,2.16,9.59,5.75,13.02l18.76,17.91c3.18,3.03,7.35,4.66,11.74,4.55,4.39-.1,8.48-1.91,11.51-5.08l17.91-18.76c3.43-3.59,5.26-8.31,5.14-13.28-.12-4.97-2.16-9.59-5.75-13.02-3.59-3.43-8.32-5.26-13.28-5.14-4.97.12-9.59,2.16-13.02,5.75l-1.93,2.03c-.91.95-2.41.98-3.36.08l-2.03-1.93h0c-3.49-3.33-8.03-5.15-12.83-5.15Z"/>
      <path class="cls-6" d="M43.89,213.74l7.24-28.3s36.99-24.36,44.5-10.54c7.49,13.81-30.54,42.12-51.74,38.83Z"/>
      <path class="cls-4" d="M47.45,216.38c-1.35,0-2.66-.09-3.92-.29-6.77-1.05-11.8-5-14.53-11.43-2.83-6.66-3.06-15.95-.64-26.15,2.37-10.03,7.2-20.55,13.59-29.63.75-1.07,2.24-1.33,3.31-.57,1.07.75,1.33,2.24.57,3.31-12.36,17.56-17.6,39.09-12.46,51.19,2.08,4.91,5.75,7.8,10.88,8.59,12,1.86,35.83-8.87,46.53-24.06,4.15-5.89,3.78-9.39,2.75-11.3-.76-1.4-1.92-2.25-3.66-2.69-9.52-2.39-30.26,9.35-37.44,14.08-1.1.72-2.57.42-3.29-.68-.72-1.1-.42-2.57.68-3.29.28-.18,6.9-4.52,15.2-8.54,11.47-5.55,20.22-7.63,26.01-6.18,3.04.76,5.28,2.45,6.68,5.03,1.68,3.09,2.51,8.42-3.04,16.3-9.02,12.8-31.01,26.31-47.22,26.31Z"/>
      <g>
        <path class="cls-6" d="M134.58,191.5c-6.65-4.3-8.56-13.18-4.26-19.83,4.3-6.65,13.18-8.56,19.83-4.26s5.47,11.18,1.17,17.83-10.09,10.56-16.74,6.26Z"/>
        <path class="cls-4" d="M140.14,195.67c-2.29,0-4.61-.73-6.85-2.18h0c-7.74-5-9.97-15.37-4.96-23.11,5-7.74,15.37-9.97,23.11-4.96,3.78,2.44,5.78,5.91,5.78,10.03,0,3.35-1.32,7.08-3.9,11.08-2.59,4-5.45,6.73-8.5,8.11-1.53.69-3.09,1.03-4.66,1.03ZM135.86,189.5c2.43,1.57,4.71,1.83,6.98.81,2.18-.98,4.41-3.18,6.47-6.36,2.05-3.18,3.14-6.12,3.14-8.51,0-2.49-1.18-4.47-3.6-6.04-5.54-3.58-12.96-1.99-16.55,3.55-3.58,5.54-1.99,12.96,3.55,16.55h0Z"/>
      </g>
    </g>
  </g>
</svg>