<?xml version="1.0" encoding="UTF-8"?>
<svg id="Capa_2" xmlns="http://www.w3.org/2000/svg" viewBox="0 0 220.69 218.2">
  <defs>
    <style>
      .cls-1 {
        fill: #f6608e;
      }

      .cls-2 {
        fill: #ffa6ca;
      }

      .cls-3 {
        fill: #fff;
      }

      .cls-4 {
        fill: #678490;
      }

      .cls-5 {
        fill: #fd80a6;
      }

      .cls-6 {
        fill: #b1b9c6;
      }

      .cls-7 {
        fill: #91a2b5;
      }
    </style>
  </defs>
  <g id="OBJECTS">
    <g>
      <path class="cls-5" d="M16.8,68.55l1.83.38.38-1.83c1.56-7.55,8.95-12.41,16.5-10.85h0c7.55,1.56,12.41,8.95,10.85,16.5l-2.07,10c-2.19,10.59-12.55,17.41-23.15,15.22l-10-2.07c-7.55-1.56-12.41-8.95-10.85-16.5H.29c1.56-7.55,8.95-12.41,16.5-10.85Z"/>
      <path class="cls-2" d="M120.15,8.81l1.6,2.27,2.27-1.6c9.38-6.6,22.33-4.35,28.94,5.03h0c6.6,9.38,4.35,22.34-5.03,28.94l-12.41,8.74c-13.15,9.26-31.32,6.1-40.58-7.05l-8.74-12.42c-6.6-9.38-4.35-22.33,5.03-28.94h0c9.38-6.6,22.33-4.35,28.94,5.03Z"/>
      <g>
        <path class="cls-6" d="M187.6,32.52c-8.12-8.12-31.92,4-46.22,12.52-1.88,1.11-3.58,2.16-5.07,3.1-3.68-.62-7.99-1.01-12.77-1.24-.66-.03-1.32-.07-2-.09-2.92-.11-6.01-.14-9.24-.13-3.23-.01-6.33.02-9.25.13-.68.02-1.35.06-2,.09-4.8.22-9.09.62-12.77,1.24-1.49-.94-3.21-2-5.08-3.11-14.31-8.51-38.1-20.63-46.21-12.51-9.11,9.11,1.29,34.13,6.64,45.27-6.32,10.68-8.62,22.36-8.62,32.43,0,8.7,1.04,17.39,3.12,26.08,4.07,16.96,17.48,29.99,34.58,33.45.07.01.15.03.22.04l-15.36,11.7c0,20.27,24.23,36.71,54.11,36.71s54.11-16.43,54.11-36.71l-15.94-11.34c.69-.13,1.38-.27,2.07-.41,17.1-3.46,30.51-16.49,34.58-33.45,2.08-8.69,3.12-17.38,3.12-26.08,0-10.06-2.31-21.75-8.63-32.42,5.33-11.13,15.75-36.17,6.63-45.28Z"/>
        <g>
          <path class="cls-4" d="M141.11,127.41c-1.27,3.67-3.19,7.04-5.63,9.96-.46.56-.95,1.1-1.46,1.63-3.41,3.55-7.64,6.32-12.39,7.99-3.18,1.11-6.58,1.73-10.15,1.79-9.66.1-18.35-4.1-24.27-10.83-.58-.66-1.14-1.36-1.67-2.07-1.18-1.6-2.21-3.31-3.08-5.12-.41-.86-.78-1.75-1.12-2.65-1.92-5.19,1.93-10.71,7.47-10.78l44.57-.52c5.54-.07,9.51,5.37,7.71,10.6Z"/>
          <path class="cls-5" d="M131.44,140.04c-3.04,3.17-6.83,5.65-11.06,7.13-2.84,1-5.88,1.55-9.06,1.6-8.63.09-16.4-3.67-21.68-9.68-.52-.59-1.01-1.21-1.49-1.85,3.04-3.17,6.83-5.64,11.07-7.13,2.83-1,5.88-1.55,9.06-1.59,8.63-.1,16.4,3.66,21.68,9.67.52.59,1.02,1.21,1.49,1.85Z"/>
        </g>
        <g>
          <path class="cls-7" d="M121.53,46.82c-.65,12.62-4.56,22.3-9.24,22.3s-8.6-9.68-9.25-22.3c2.92-.11,6.02-.14,9.25-.13,3.23-.01,6.32.02,9.24.13Z"/>
          <g>
            <path class="cls-7" d="M101.04,46.9c-1.27,10.18-4.74,17.48-8.82,17.48-4.31,0-7.96-8.22-9.03-19.36,1.87,1.11,3.6,2.17,5.08,3.11,3.68-.62,7.97-1.01,12.77-1.24Z"/>
            <path class="cls-7" d="M141.37,45.04c-1.06,11.13-4.7,19.35-9.02,19.35-4.08,0-7.56-7.3-8.82-17.48,4.79.22,9.09.62,12.77,1.24,1.49-.94,3.2-1.99,5.07-3.1Z"/>
          </g>
        </g>
        <path class="cls-3" d="M176.85,54.68s1.49,3.38,1.73,7.16c.23,3.5-1.87,6.17-4.63,7.28-5.79-6.58-12.94-11.97-21.01-15.71.08-1.9.87-3.76,2.42-5.16,6.2-5.64,14.77-11.71,20.83-9.24,10.57,4.31.66,15.67.66,15.67Z"/>
        <path class="cls-3" d="M47.71,54.68s-1.49,3.38-1.73,7.16c-.23,3.5,1.87,6.17,4.63,7.28,5.79-6.58,12.94-11.97,21.01-15.71-.08-1.9-.87-3.76-2.42-5.16-6.2-5.64-14.77-11.71-20.84-9.24-10.57,4.31-.66,15.67-.66,15.67Z"/>
        <path class="cls-4" d="M189.27,30.84c-4.78-4.78-13.55-4.52-26.82.8-9.68,3.88-19.71,9.67-26.66,14.01-6.11-.93-13.97-1.39-23.49-1.35-9.55-.05-17.41.41-23.52,1.35-6.96-4.35-17-10.13-26.67-14.01-13.26-5.32-22.03-5.58-26.81-.8-9.62,9.62-.88,32.97,5.63,46.83-7.03,12.43-8.31,25.02-8.31,32.54,0,8.86,1.07,17.82,3.19,26.64,2.1,8.77,6.62,16.7,13.06,22.94,6.45,6.25,14.53,10.5,23.35,12.28,13.29,2.69,26.78,4.05,40.08,4.05s26.78-1.36,40.08-4.05c8.83-1.79,16.9-6.04,23.35-12.28,6.44-6.24,10.96-14.17,13.06-22.94,2.11-8.82,3.19-17.78,3.19-26.64,0-7.52-1.29-20.11-8.31-32.54,2.81-5.98,6.34-14.44,8.35-22.72,2.77-11.42,1.85-19.53-2.73-24.11ZM180.63,72.88c-1.88-2.7-4.06-5.36-6.6-7.92-.92-.93-2.42-.94-3.35-.02-.93.92-.94,2.42-.02,3.35,14.41,14.55,16.56,32.51,16.56,41.92,0,8.49-1.03,17.08-3.06,25.53-1.89,7.89-5.96,15.03-11.75,20.64-5.8,5.62-13.06,9.44-20.99,11.04-12.99,2.63-26.15,3.96-39.14,3.96s-26.15-1.33-39.14-3.96c-7.94-1.61-15.2-5.43-20.99-11.04-5.79-5.61-9.85-12.75-11.75-20.64-2.03-8.45-3.06-17.04-3.06-25.53,0-9.41,2.15-27.37,16.56-41.92.92-.93.91-2.43-.02-3.35-.93-.92-2.43-.91-3.35.02-2.54,2.56-4.72,5.22-6.6,7.92-8.57-19.09-10.57-33.41-5.29-38.68,5.1-5.1,21.5-.15,43.37,12.89-3.99,1.15-7.81,2.54-11.36,4.13-1.19.54-1.73,1.94-1.19,3.13.54,1.19,1.94,1.73,3.13,1.19,3.41-1.53,7.08-2.86,10.93-3.96,6.13-1.74,15.81-2.59,28.77-2.54,12.94-.06,22.62.79,28.75,2.53,3.85,1.1,7.53,2.43,10.93,3.96.32.14.65.21.97.21.9,0,1.77-.52,2.16-1.4.54-1.19,0-2.6-1.19-3.13-3.55-1.6-7.38-2.99-11.37-4.14,21.87-13.05,38.27-17.99,43.37-12.89,5.27,5.27,3.27,19.58-5.29,38.68Z"/>
        <g>
          <g>
            <path class="cls-7" d="M166.99,126.51h-13.7c-1.31,0-2.37-1.06-2.37-2.37s1.06-2.37,2.37-2.37h13.7c1.31,0,2.37,1.06,2.37,2.37s-1.06,2.37-2.37,2.37Z"/>
            <path class="cls-7" d="M164.5,139.38c-.27,0-.55-.05-.82-.15l-11.21-4.15c-1.23-.45-1.85-1.82-1.4-3.05.45-1.23,1.82-1.86,3.05-1.4l11.21,4.15c1.23.45,1.85,1.82,1.4,3.05-.35.96-1.26,1.55-2.22,1.55Z"/>
          </g>
          <g>
            <path class="cls-7" d="M71.28,126.51h-13.7c-1.31,0-2.37-1.06-2.37-2.37s1.06-2.37,2.37-2.37h13.7c1.31,0,2.37,1.06,2.37,2.37s-1.06,2.37-2.37,2.37Z"/>
            <path class="cls-7" d="M60.07,139.38c-.96,0-1.87-.59-2.22-1.55-.45-1.23.17-2.59,1.4-3.05l11.21-4.15c1.23-.46,2.59.17,3.05,1.4.45,1.23-.17,2.59-1.4,3.05l-11.21,4.15c-.27.1-.55.15-.82.15Z"/>
          </g>
        </g>
        <g>
          <path class="cls-3" d="M139.54,68.31h-7.19c-1.31,0-2.37-1.06-2.37-2.37s1.06-2.37,2.37-2.37h7.19c1.31,0,2.37,1.06,2.37,2.37s-1.06,2.37-2.37,2.37Z"/>
          <path class="cls-3" d="M92.22,68.31h-7.19c-1.31,0-2.37-1.06-2.37-2.37s1.06-2.37,2.37-2.37h7.19c1.31,0,2.37,1.06,2.37,2.37s-1.06,2.37-2.37,2.37Z"/>
        </g>
        <g>
          <path class="cls-5" d="M146.33,82.81l1.14,1.14,1.14-1.14c4.72-4.72,12.36-4.72,17.07,0h0c4.72,4.72,4.72,12.36,0,17.07l-6.24,6.24c-6.61,6.61-17.33,6.61-23.95,0l-6.24-6.24c-4.72-4.72-4.72-12.36,0-17.07h0c4.72-4.72,12.36-4.72,17.07,0Z"/>
          <path class="cls-5" d="M75.95,82.81l1.14,1.14,1.14-1.14c4.71-4.72,12.36-4.72,17.07,0h0c4.71,4.72,4.71,12.36,0,17.07l-6.24,6.24c-6.61,6.61-17.33,6.61-23.95,0l-6.24-6.24c-4.72-4.72-4.72-12.36,0-17.07h0c4.72-4.72,12.36-4.72,17.07,0Z"/>
        </g>
        <g>
          <path class="cls-1" d="M147.47,113.44c-4.94,0-9.89-1.88-13.65-5.64l-6.24-6.24c-2.73-2.73-4.23-6.36-4.23-10.21s1.5-7.49,4.23-10.21c2.73-2.73,6.36-4.23,10.21-4.23,3.61,0,7.02,1.32,9.68,3.72,5.66-5.12,14.43-4.95,19.89.51,5.63,5.63,5.63,14.8,0,20.43l-6.24,6.24c-3.76,3.76-8.71,5.64-13.65,5.64ZM137.8,81.64c-2.59,0-5.03,1.01-6.86,2.84-1.83,1.83-2.84,4.27-2.84,6.86s1.01,5.03,2.84,6.86l6.24,6.24c5.68,5.68,14.92,5.68,20.59,0l6.24-6.24c3.78-3.78,3.78-9.94,0-13.72-3.78-3.78-9.94-3.78-13.72,0l-1.14,1.14c-.93.93-2.43.93-3.35,0l-1.14-1.14h0c-1.83-1.83-4.27-2.84-6.86-2.84Z"/>
          <path class="cls-1" d="M77.09,113.44c-4.94,0-9.89-1.88-13.65-5.64l-6.24-6.24c-5.63-5.63-5.63-14.8,0-20.43,2.73-2.73,6.36-4.23,10.21-4.23,3.61,0,7.02,1.32,9.68,3.72,5.66-5.12,14.43-4.95,19.89.51,5.63,5.63,5.63,14.8,0,20.43l-6.24,6.24c-3.76,3.76-8.71,5.64-13.65,5.64ZM67.41,81.64c-2.59,0-5.03,1.01-6.86,2.84-3.78,3.78-3.78,9.94,0,13.72l6.24,6.24c5.68,5.68,14.92,5.68,20.59,0l6.24-6.24c3.78-3.78,3.78-9.94,0-13.72-3.78-3.78-9.94-3.78-13.72,0l-1.14,1.14c-.93.93-2.43.93-3.35,0l-1.14-1.14h0c-1.83-1.83-4.27-2.84-6.86-2.84Z"/>
        </g>
        <path class="cls-4" d="M141.94,118.77c-1.99-2.75-5.2-4.35-8.58-4.33l-18.71.22v-4.76h1.48c1.31,0,2.37-1.06,2.37-2.37s-1.06-2.37-2.37-2.37h-7.7c-1.31,0-2.37,1.06-2.37,2.37s1.06,2.37,2.37,2.37h1.48v4.81l-21.1.25c-3.39.04-6.55,1.73-8.47,4.53-1.93,2.81-2.36,6.24-1.18,9.42,4.94,13.34,17.75,22.24,31.96,22.24.13,0,.27,0,.4,0,14.37-.17,27.16-9.4,31.83-22.99,1.1-3.21.59-6.63-1.4-9.39ZM138.86,126.62c-4.02,11.69-15.03,19.64-27.4,19.79-.11,0-.23,0-.34,0-12.23,0-23.26-7.66-27.52-19.14-.63-1.71-.4-3.57.64-5.09,1.06-1.55,2.75-2.45,4.62-2.47l44.55-.52s.05,0,.07,0c1.85,0,3.52.86,4.61,2.36,1.08,1.49,1.36,3.34.76,5.07Z"/>
      </g>
      <path class="cls-2" d="M207.34,75.13l.37,1.16,1.16-.37c4.78-1.52,9.89,1.13,11.4,5.92h0c1.52,4.78-1.13,9.89-5.92,11.4l-6.33,2.01c-6.71,2.13-13.87-1.59-15.99-8.3l-2.01-6.33c-1.52-4.78,1.13-9.89,5.92-11.4h0c4.78-1.52,9.89,1.13,11.4,5.92Z"/>
      <path class="cls-6" d="M91.17,179.3S45.18,95.76,18.26,108.44c-22.66,10.68,45.45,91.41,45.45,91.41l27.45-20.55Z"/>
      <path class="cls-6" d="M158.9,199.85l-27.45-20.55s45.98-83.55,72.91-70.87c22.65,10.69-45.45,91.41-45.45,91.41Z"/>
      <path class="cls-4" d="M158.89,202.22c-.54,0-1.08-.18-1.53-.56-1-.84-1.13-2.34-.28-3.34,14.93-17.7,52.89-67.25,49.29-83.8-.42-1.91-1.38-3.16-3.03-3.94-6.88-3.25-20.04-.68-43.63,29.94-14.59,18.93-26.08,39.71-26.19,39.92-.63,1.15-2.07,1.56-3.22.93-1.15-.63-1.57-2.07-.93-3.22.12-.21,11.76-21.27,26.56-40.49,20.5-26.62,37.13-37.17,49.43-31.37,2.97,1.4,4.92,3.89,5.64,7.22,2.07,9.51-5.84,27.26-23.52,52.76-12.94,18.67-26.64,34.94-26.77,35.1-.47.56-1.14.84-1.81.84Z"/>
      <path class="cls-4" d="M63.72,202.22c-.67,0-1.34-.29-1.81-.84-.14-.16-13.83-16.43-26.77-35.1-17.68-25.5-25.59-43.26-23.52-52.76.73-3.33,2.68-5.82,5.64-7.22,12.31-5.8,28.94,4.75,49.43,31.37,14.8,19.22,26.44,40.28,26.56,40.49.63,1.15.21,2.59-.93,3.22-1.15.63-2.59.21-3.22-.93-.11-.21-11.6-20.98-26.19-39.92-23.59-30.62-36.74-33.18-43.63-29.94-1.65.78-2.61,2.03-3.03,3.94-3.61,16.54,34.35,66.1,49.29,83.8.84,1,.72,2.5-.28,3.34-.44.38-.99.56-1.53.56Z"/>
    </g>
  </g>
</svg>