<?xml version="1.0" encoding="UTF-8"?>
<svg id="Capa_2" xmlns="http://www.w3.org/2000/svg" viewBox="0 0 198.42 220.69">
  <defs>
    <style>
      .cls-1 {
        fill: #5f5c5d;
      }

      .cls-2 {
        fill: #fff;
      }

      .cls-3 {
        fill: #95a1b3;
      }

      .cls-4 {
        fill: #b2b8c4;
      }

      .cls-5 {
        fill: #e27fa3;
      }

      .cls-6 {
        fill: #70838e;
      }
    </style>
  </defs>
  <g id="OBJECTS">
    <g>
      <g>
        <path class="cls-4" d="M193.71,93.48c-1.78-11.49-6.48-24.41-15.58-35.47,4.11-13.65,11.57-44.07-.45-52.86-12.1-8.85-42.53,15.39-55.8,26.91-7.46-.08-16.93.88-27.67,2.59-10.76,1.62-20.07,3.57-27.16,5.91-16.14-6.97-52.47-20.84-61.32-8.74-8.79,12.01,7.52,38.72,15.59,50.5-5.32,13.3-5.89,27.05-4.1,38.54,1.54,9.93,4.26,19.67,8.18,29.22,7.65,18.64,25.27,31.14,45.39,32.06,1.15.05,2.29.09,3.44.13.06,5.62,1.83,12.01,5.34,18.11,7.67,13.29,21.25,20.84,29.25,15.19,1.42-1,2.7-2.06,3.88-3.15,5.81,3.36,12.7,5.31,20.1,5.31,20.65,0,37.4-15.18,37.4-33.9,0-6.32-1.91-12.23-5.22-17.29,16.85-7.77,28.25-24.02,29.78-42.74.84-10.29.48-20.4-1.06-30.33Z"/>
        <g>
          <path class="cls-3" d="M105.99,40.09c2.55,16.44-.17,30.51-6.05,31.42-5.89.91-12.74-11.66-15.29-28.11-.35-2.25-.6-4.46-.75-6.59,6.89-1.39,13.83-2.47,20.81-3.22.5,2.08.93,4.25,1.28,6.49Z"/>
          <g>
            <path class="cls-3" d="M82.23,38.24c2.55,16.43-.15,30.5-6.05,31.42-5.67.88-12.25-10.8-15-26.36,3.52-1.53,7.2-2.79,11.02-3.78,3.27-.84,6.56-1.62,9.85-2.31.07.35.12.69.17,1.04Z"/>
            <path class="cls-3" d="M128.29,32.74c2.13,15.72-.59,28.92-6.28,29.8-5.89.91-12.73-11.68-15.28-28.11-.05-.35-.11-.69-.15-1.05,3.85-.39,7.72-.67,11.6-.86,3.42-.17,6.79-.09,10.11.21Z"/>
          </g>
        </g>
        <path class="cls-2" d="M169.33,32.35s2.3,3.59,3.24,7.86c.88,3.95-1.05,7.37-4,9.13-7.78-6.49-16.89-11.37-26.77-14.21-.25-2.18.33-4.45,1.84-6.32,6.08-7.53,14.78-15.99,22.15-14.24,12.82,3.05,3.53,17.77,3.53,17.77Z"/>
        <path class="cls-2" d="M21.93,55.21s-1.1,4.12-.71,8.48c.35,4.03,3.23,6.71,6.58,7.49,5.44-8.54,12.65-15.95,21.2-21.65-.42-2.15-1.66-4.14-3.67-5.46-8.07-5.34-18.93-10.76-25.42-6.86-11.3,6.79,2.02,18.01,2.02,18.01Z"/>
        <path class="cls-6" d="M196.89,92.99c-1.33-8.59-5.03-22.72-15.2-35.7,2.14-7.33,4.64-17.52,5.46-27.27,1.15-13.71-1.4-22.95-7.58-27.47-6.47-4.73-16.61-2.89-31,5.64-10.33,6.13-20.71,14.46-27.89,20.65-7.14.03-16.16.9-26.95,2.63-10.83,1.63-19.7,3.53-26.52,5.67C42.84,26.72,12.39,17.27,3.13,29.92c-4.52,6.18-4.15,15.76,1.1,28.47,3.74,9.05,9.22,18,13.47,24.33-5.76,15.45-5,30.04-3.67,38.63,1.57,10.15,4.4,20.23,8.38,29.95,3.99,9.72,10.61,18.05,19.14,24.08,8.55,6.04,18.6,9.49,29.09,9.97,3.63.17,7.25.25,10.87.25,12.03,0,23.99-.91,35.69-2.73,1.76-.27,2.96-1.92,2.69-3.67-.27-1.76-1.92-2.96-3.67-2.69-14.79,2.29-30.02,3.1-45.28,2.41-9.25-.43-18.13-3.47-25.67-8.8-7.53-5.33-13.37-12.68-16.9-21.27-3.8-9.26-6.48-18.84-7.98-28.49-1.65-10.67-2.37-31.4,11.39-50.43,1.04-1.44.72-3.45-.72-4.49-1.44-1.04-3.45-.72-4.49.72-2.28,3.15-4.19,6.34-5.8,9.52C8.08,55.93,3.42,40.43,8.33,33.72c4.72-6.46,23.68-3.81,50.21,6.79-4.01,1.91-7.81,4.02-11.31,6.3-1.49.97-1.91,2.96-.94,4.45.62.95,1.65,1.46,2.7,1.46.6,0,1.21-.17,1.75-.52,3.6-2.34,7.54-4.5,11.72-6.42,6.65-3.05,17.49-5.73,32.27-7.95,14.72-2.35,25.87-3.09,33.13-2.19,4.57.57,8.98,1.43,13.11,2.57,1.71.47,3.48-.53,3.96-2.25.47-1.71-.53-3.48-2.25-3.96-4.03-1.11-8.29-1.97-12.69-2.57,22.06-18.14,39.33-26.41,45.79-21.68,6.7,4.9,6.96,21.08.85,43.76-2.5-2.55-5.28-5.01-8.41-7.32-1.43-1.06-3.44-.75-4.5.67-1.06,1.43-.75,3.44.67,4.5,18.88,13.96,24.48,33.94,26.14,44.61,1.5,9.65,1.84,19.6,1.03,29.57-.76,9.25-4.1,18.03-9.66,25.39-5.57,7.37-13.11,12.95-21.79,16.16-1.67.62-2.52,2.47-1.9,4.13.48,1.3,1.71,2.1,3.02,2.1.37,0,.75-.06,1.11-.2,9.84-3.64,18.38-9.97,24.7-18.32,6.3-8.33,10.09-18.27,10.94-28.75.86-10.48.49-20.93-1.08-31.08Z"/>
        <path class="cls-1" d="M71.54,112.9c-.85-5.47-5.97-9.21-11.43-8.36-5.47.85-9.21,5.97-8.36,11.43.85,5.47,5.97,9.21,11.43,8.36,5.47-.85,9.21-5.97,8.36-11.43Z"/>
        <g>
          <g>
            <path class="cls-3" d="M148.07,118.95c-1.56,0-2.93-1.14-3.18-2.72-.27-1.76.93-3.4,2.69-3.67l15.64-2.43c1.76-.27,3.4.93,3.67,2.69.27,1.76-.93,3.4-2.69,3.67l-15.64,2.43c-.17.03-.33.04-.5.04Z"/>
            <path class="cls-3" d="M163.15,131.65c-.21,0-.43-.02-.65-.07l-13.53-2.75c-1.74-.35-2.87-2.05-2.51-3.79.35-1.74,2.05-2.86,3.79-2.51l13.53,2.75c1.74.35,2.87,2.05,2.51,3.79-.31,1.52-1.65,2.58-3.15,2.58Z"/>
          </g>
          <g>
            <path class="cls-3" d="M38.81,135.89c-1.56,0-2.93-1.14-3.18-2.72-.27-1.76.93-3.4,2.69-3.67l15.64-2.43c1.76-.27,3.4.93,3.67,2.69.27,1.76-.93,3.4-2.69,3.67l-15.64,2.43c-.17.03-.33.04-.5.04Z"/>
            <path class="cls-3" d="M43.94,150.15c-1.13,0-2.22-.59-2.81-1.65-.87-1.55-.31-3.51,1.24-4.38l12.06-6.73c1.55-.87,3.51-.31,4.38,1.24.87,1.55.31,3.51-1.24,4.38l-12.06,6.73c-.5.28-1.03.41-1.56.41Z"/>
          </g>
        </g>
        <g>
          <path class="cls-2" d="M119.76,91.38c-.86,0-1.72-.35-2.36-1.03-1.21-1.3-1.13-3.34.17-4.55l6.95-6.46c1.3-1.21,3.34-1.13,4.55.17,1.21,1.3,1.13,3.34-.17,4.55l-6.95,6.46c-.62.58-1.41.86-2.19.86Z"/>
          <path class="cls-2" d="M64.5,94.58c-1.56,0-2.93-1.14-3.18-2.72-.27-1.76.93-3.4,2.69-3.67l8.21-1.27c1.76-.27,3.4.93,3.67,2.69s-.93,3.4-2.69,3.67l-8.21,1.27c-.17.03-.33.04-.5.04Z"/>
        </g>
        <path class="cls-1" d="M128.98,110.87c-.91,0-1.8-.39-2.43-1.11-.87-1-1.04-2.44-.42-3.61.23-.43,5.65-10.62,12.8-15.52,1.47-1,3.47-.63,4.47.84,1,1.47.63,3.47-.84,4.47-2.29,1.57-4.44,3.94-6.2,6.24,6.73-1.56,12.8-2.28,13.16-2.32,1.77-.2,3.36,1.06,3.57,2.82.21,1.76-1.06,3.36-2.82,3.57-.12.01-11.84,1.4-20.19,4.42-.36.13-.73.19-1.09.19Z"/>
        <g>
          <path class="cls-6" d="M115.98,108.75s1.34,11.19-1.52,20.27c-1.79,5.68-5.25,10.52-11.71,11.28-5.94.7-10.21-2.56-13.24-7.06-5.51-8.21-6.92-20.57-6.92-20.57,1.36,3.57,5.01,5.91,8.97,5.44,4.67-.55,8.02-4.79,7.48-9.46.55,4.67,4.79,8.02,9.47,7.47,3.96-.47,6.97-3.58,7.47-7.37Z"/>
          <path class="cls-5" d="M114.45,129.02c-1.79,5.68-5.25,10.52-11.71,11.28-5.94.7-10.21-2.56-13.24-7.06,1.78-5.68,5.23-10.54,11.71-11.3,5.95-.69,10.22,2.57,13.24,7.09Z"/>
          <path class="cls-6" d="M119.17,108.37c-.19-1.61-1.56-2.82-3.18-2.83h-.01c-1.62,0-2.98,1.2-3.19,2.8-.31,2.41-2.23,4.3-4.65,4.58-1.41.17-2.8-.23-3.92-1.11-1.11-.88-1.82-2.14-1.98-3.55,0-.04-.01-.08-.02-.12h0s-.22-1.42-.22-1.42l1.21-.19c1.76-.27,2.96-1.92,2.69-3.67-.27-1.76-1.92-2.96-3.67-2.69l-8.79,1.36c-1.76.27-2.96,1.92-2.69,3.67.25,1.59,1.62,2.72,3.18,2.72.16,0,.33-.01.5-.04l1.21-.19.21,1.32c.33,2.9-1.76,5.53-4.66,5.87-2.43.29-4.72-1.11-5.59-3.38-.58-1.52-2.19-2.37-3.77-1.99-1.58.38-2.62,1.88-2.44,3.49.02.2.56,4.84,2.24,10.42,2.34,7.76,5.65,13.38,9.84,16.71,2.9,2.3,6.14,3.45,9.68,3.45.65,0,1.31-.04,1.98-.12,4.3-.5,7.86-2.5,10.57-5.94,3.31-4.2,5.23-10.44,5.71-18.53.34-5.82-.2-10.46-.23-10.65ZM108.63,133.57c-1.63,2.07-3.68,3.23-6.26,3.53-2.58.3-4.83-.35-6.9-1.98-3.79-3-6.31-8.87-7.85-14.11,1.37.35,2.83.46,4.31.29,3.33-.39,6.18-2.15,8.04-4.64.08.07.17.14.25.21,2.46,1.95,5.54,2.81,8.65,2.45,1.48-.17,2.87-.62,4.12-1.28-.28,5.44-1.37,11.72-4.37,15.54Z"/>
        </g>
      </g>
      <g>
        <path class="cls-4" d="M186.12,170.8c-5.65-9.79-14.24-16.05-21.77-16.72-2.9-6.03-10.01-8.9-16.35-6.44l-5.07,1.97c-9.16,3.55-17.12,8.55-15.24,14.2,1.11,3.33,4.53,4.06,8.28,3.71l3.99,10.29c2.24,5.79,8.17,9.04,14.06,8.13.43.87.89,1.74,1.39,2.6,7.67,13.29,20.77,20.09,29.25,15.19,8.48-4.9,9.14-19.64,1.47-32.93Z"/>
        <path class="cls-6" d="M188.91,169.19c-4.01-6.95-9.56-12.51-15.62-15.66-2.34-1.22-4.66-2.03-6.91-2.43-1.7-2.71-4.17-4.85-7.16-6.17-3.95-1.74-8.35-1.84-12.38-.28l-5,1.94s-.05.02-.08.03c-9.37,3.63-19.95,9.74-17.13,18.22.78,2.35,2.4,4.1,4.69,5.08,1.34.57,2.87.84,4.46.88l3.17,8.19c1.56,4.03,4.6,7.21,8.55,8.96,2.09.92,4.31,1.39,6.52,1.39.04,0,.08,0,.12,0,.15.28.31.56.47.83,4.01,6.95,9.56,12.51,15.62,15.66,3.51,1.82,6.99,2.74,10.25,2.74,2.79,0,5.43-.68,7.78-2.03,5.09-2.94,8.07-8.61,8.4-15.96.02-.44.03-.89.03-1.33,0-6.47-2.03-13.53-5.78-20.03ZM142.96,176.65l-2.57-6.63c4.65-1.08,8.68-2.93,9.43-3.29,1.6-.76,2.29-2.68,1.53-4.28-.76-1.61-2.68-2.29-4.28-1.53-4.42,2.09-12.06,4.42-15.21,3.07-.59-.25-.91-.6-1.11-1.19-.9-2.7,4.34-6.7,13.35-10.19,0,0,0,0,0,0h0s5.07-1.96,5.07-1.96c2.42-.94,5.07-.88,7.45.17,2.38,1.05,4.21,2.96,5.15,5.38l4.43,11.44c1.94,5.01-.55,10.67-5.56,12.61l-5.07,1.97c-2.43.94-5.08.88-7.46-.17-2.38-1.05-4.21-2.97-5.15-5.4ZM183.05,200.95c-6.63,3.83-17.57-2.13-24.29-13.07l4.21-1.63c8.32-3.22,12.46-12.61,9.24-20.93l-2.47-6.37c.19.09.39.19.58.29,2.5,1.29,4.9,3.11,7.1,5.34,2.2,2.23,4.21,4.87,5.91,7.82,6.66,11.53,6.53,24.6-.29,28.54Z"/>
      </g>
      <g>
        <path class="cls-4" d="M77.36,159.49l-5.07,1.97c-9.16,3.55-17.12,8.55-15.24,14.2,1.11,3.33,4.53,4.06,8.28,3.71l3.99,10.29c2.59,6.68,10.09,9.99,16.77,7.4l5.07-1.97c6.67-2.58,9.99-10.09,7.4-16.77l-4.43-11.44c-2.58-6.67-10.1-9.98-16.77-7.39Z"/>
        <path class="cls-6" d="M124.65,190.94c-1.72-.4-3.45.69-3.85,2.41-.03.12-2.86,11.87-13.82,19.6-1.81,1.28-4.12,1.62-6.85,1.02-5.66-1.24-11.89-6.24-16.39-12.98,1.19-.18,2.36-.48,3.51-.93l5.07-1.97c4.03-1.56,7.21-4.6,8.95-8.55.46-1.05.81-2.13,1.04-3.22.21.55.41,1.11.61,1.68.57,1.69,2.4,2.59,4.08,2.02,1.69-.57,2.59-2.39,2.02-4.08-2.54-7.52-6.42-13.74-10.96-17.82l-.93-2.41c-1.56-4.03-4.6-7.2-8.55-8.95-3.95-1.74-8.35-1.84-12.37-.28l-5,1.94s-.05.02-.08.03c-9.37,3.63-19.95,9.74-17.13,18.22.78,2.35,2.4,4.1,4.69,5.08,1.34.57,2.87.83,4.46.88l3.17,8.19c1.56,4.03,4.6,7.21,8.55,8.96.3.13.61.26.92.37.32.62.66,1.23,1.01,1.84,5.48,9.49,13.89,16.49,21.95,18.26,1.32.29,2.62.44,3.86.44,3,0,5.75-.84,8.08-2.48,13.05-9.21,16.26-22.85,16.39-23.43.39-1.73-.69-3.44-2.42-3.84ZM69.74,181.87c4.65-1.08,8.68-2.93,9.43-3.29,1.6-.76,2.29-2.68,1.53-4.28-.76-1.6-2.68-2.29-4.28-1.53-4.42,2.09-12.06,4.42-15.21,3.07-.59-.25-.91-.6-1.11-1.19-.9-2.7,4.34-6.7,13.35-10.19,0,0,0,0,0,0h0s5.07-1.96,5.07-1.96c2.43-.94,5.07-.88,7.45.17,2.38,1.05,4.21,2.96,5.15,5.38l4.43,11.44c.94,2.43.88,5.08-.17,7.46-1.05,2.38-2.97,4.21-5.39,5.15l-5.07,1.97c-2.43.94-5.08.88-7.46-.17-2.38-1.05-4.21-2.97-5.15-5.4l-2.57-6.63Z"/>
      </g>
    </g>
  </g>
</svg>