<?xml version="1.0" encoding="UTF-8"?>
<svg id="Capa_2" xmlns="http://www.w3.org/2000/svg" viewBox="0 0 180.46 220.69">
  <defs>
    <style>
      .cls-1 {
        fill: #5f5c5d;
      }

      .cls-2 {
        fill: #fff;
      }

      .cls-3 {
        fill: #6f818c;
      }

      .cls-4 {
        fill: #95a1b3;
      }

      .cls-5 {
        fill: #b2b8c4;
      }
    </style>
  </defs>
  <g id="OBJECTS">
    <g>
      <g>
        <path class="cls-5" d="M174.08,5.41c-10.22-10.22-42.77,8.37-57.11,17.38-7.1-1.18-16.25-1.66-26.73-1.62-10.48-.05-19.64.44-26.74,1.62C49.16,13.78,16.61-4.8,6.39,5.41c-10.14,10.14,1.44,37.99,7.39,50.39-7.03,11.88-9.6,24.89-9.6,36.09,0,9.69,1.15,19.36,3.47,29.04,4.53,18.88,19.46,33.39,38.49,37.24,4.91.99,9.82,1.82,14.74,2.48-.35.34-.69.69-1.03,1.04l.12-1.17c-19.47,13.12-29.25,41.44-15,44.67,3.58.81,8.35,1.44,13.5,1.66,7.19,8.41,18.43,13.83,31.07,13.83,21.7,0,39.29-15.96,39.29-35.65,0-9.35-3.97-17.86-10.46-24.22,5.32-.69,10.64-1.56,15.96-2.64,19.03-3.86,33.96-18.36,38.49-37.24,2.32-9.68,3.47-19.35,3.47-29.04,0-11.2-2.57-24.21-9.6-36.08,5.93-12.39,17.53-40.26,7.38-50.4Z"/>
        <g>
          <path class="cls-4" d="M100.64,28.09c0,16.04-4.67,29.03-10.4,29.03s-10.41-12.99-10.41-29.03c0-2.2.09-4.33.26-6.38,6.77-.31,13.53-.31,20.3.01.17,2.05.26,4.19.26,6.37Z"/>
          <g>
            <path class="cls-4" d="M78.3,22.83c0,16.02-4.65,29.03-10.4,29.03s-10.07-12.09-10.39-27.32c3.57-.93,7.27-1.6,11.05-1.98,3.24-.32,6.48-.58,9.72-.75.01.34.01.68.01,1.02Z"/>
            <path class="cls-4" d="M122.97,24.4c-.29,15.29-4.84,27.45-10.39,27.45s-10.4-13-10.4-29.03c0-.34,0-.68.01-1.02,3.72.2,7.45.5,11.17.9,3.28.34,6.48.92,9.6,1.69Z"/>
          </g>
        </g>
        <path class="cls-2" d="M162.11,30.08s1.66,3.76,1.93,7.97c.26,3.89-2.09,6.86-5.16,8.1-6.45-7.33-14.4-13.32-23.39-17.48.09-2.11.97-4.19,2.69-5.75,6.9-6.27,16.44-13.04,23.19-10.29,11.76,4.8.74,17.45.74,17.45Z"/>
        <path class="cls-2" d="M18.36,30.08s-1.66,3.76-1.93,7.97c-.26,3.89,2.09,6.86,5.16,8.1,6.45-7.33,14.4-13.32,23.39-17.48-.09-2.11-.97-4.19-2.69-5.75-6.9-6.27-16.44-13.04-23.19-10.29-11.76,4.8-.74,17.45-.74,17.45Z"/>
        <path class="cls-3" d="M175.77,3.71c-5.25-5.25-14.93-4.94-29.6.95-10.8,4.33-21.98,10.79-29.72,15.63-6.8-1.05-15.57-1.56-26.21-1.51-10.66-.04-19.43.46-26.24,1.51-7.75-4.84-18.95-11.3-29.73-15.63C19.62-1.22,9.94-1.53,4.69,3.71c-10.63,10.63-.86,36.62,6.37,51.97C3.21,69.51,1.78,83.54,1.78,91.9c0,9.84,1.19,19.8,3.54,29.6,2.33,9.72,7.34,18.51,14.47,25.42,7.15,6.92,16.1,11.63,25.88,13.61,10.79,2.18,21.73,3.59,32.51,4.18.04,0,.09,0,.13,0,1.27,0,2.33-.99,2.4-2.27.07-1.32-.94-2.46-2.27-2.53-10.56-.58-21.26-1.95-31.82-4.09-8.88-1.8-17-6.07-23.49-12.36-6.48-6.28-11.03-14.26-13.14-23.09-2.26-9.43-3.41-19.01-3.41-28.48,0-10.51,2.4-30.57,18.5-46.83.93-.94.93-2.46-.02-3.4-.94-.93-2.46-.93-3.4.02-2.92,2.95-5.42,6.02-7.56,9.13C4.38,29.28,2.1,13.09,8.09,7.11c5.79-5.79,24.36-.19,49.05,14.6-.1.03-.2.05-.3.08-4.52,1.29-8.85,2.85-12.86,4.66-1.21.54-1.75,1.97-1.2,3.17.54,1.21,1.97,1.75,3.17,1.2,3.8-1.71,7.91-3.2,12.2-4.42,6.84-1.94,17.64-2.89,32.09-2.83,14.44-.07,25.22.89,32.07,2.83,4.3,1.22,8.4,2.71,12.2,4.42.32.14.65.21.98.21.92,0,1.79-.53,2.19-1.42.54-1.21,0-2.63-1.2-3.17-4.01-1.81-8.34-3.37-12.86-4.66-.1-.03-.2-.05-.3-.08,24.69-14.8,43.26-20.4,49.05-14.6,5.97,5.97,3.7,22.16-6.01,43.71-2.14-3.11-4.64-6.18-7.56-9.13-.93-.94-2.45-.95-3.4-.02-.94.93-.95,2.45-.02,3.4,16.1,16.26,18.5,36.32,18.5,46.84,0,9.47-1.15,19.05-3.41,28.48-2.12,8.83-6.66,16.82-13.14,23.09-6.49,6.28-14.61,10.56-23.49,12.36-9.57,1.93-19.28,3.25-28.85,3.9-1.32.09-2.32,1.24-2.23,2.56.09,1.27,1.14,2.24,2.39,2.24.05,0,.11,0,.17,0,9.78-.67,19.7-2.01,29.48-3.99,9.78-1.98,18.73-6.69,25.88-13.61,7.14-6.91,12.14-15.7,14.47-25.42,2.35-9.8,3.54-19.75,3.54-29.6,0-8.36-1.43-22.39-9.28-36.22,7.22-15.36,16.98-41.36,6.36-51.97Z"/>
        <g>
          <circle class="cls-1" cx="126.71" cy="99.55" r="9.65" transform="translate(-33.28 118.75) rotate(-45)"/>
          <circle class="cls-1" cx="53.76" cy="99.55" r="9.65" transform="translate(-54.64 67.17) rotate(-45)"/>
        </g>
        <g>
          <g>
            <path class="cls-4" d="M151.14,115.94h-15.25c-1.33,0-2.4-1.08-2.4-2.4s1.07-2.4,2.4-2.4h15.25c1.33,0,2.4,1.08,2.4,2.4s-1.07,2.4-2.4,2.4Z"/>
            <path class="cls-4" d="M148.36,130.27c-.28,0-.56-.05-.83-.15l-12.48-4.62c-1.24-.46-1.88-1.84-1.42-3.09.46-1.24,1.84-1.88,3.09-1.42l12.48,4.62c1.24.46,1.88,1.84,1.42,3.09-.36.97-1.28,1.57-2.25,1.57Z"/>
          </g>
          <g>
            <path class="cls-4" d="M44.59,115.94h-15.25c-1.33,0-2.4-1.08-2.4-2.4s1.07-2.4,2.4-2.4h15.25c1.33,0,2.4,1.08,2.4,2.4s-1.07,2.4-2.4,2.4Z"/>
            <path class="cls-4" d="M32.11,130.27c-.98,0-1.89-.6-2.25-1.57-.46-1.24.17-2.62,1.42-3.09l12.48-4.62c1.24-.46,2.62.17,3.09,1.42.46,1.24-.17,2.62-1.42,3.09l-12.48,4.62c-.27.1-.56.15-.83.15Z"/>
          </g>
        </g>
        <g>
          <path class="cls-2" d="M120.58,80.39h-8c-1.33,0-2.4-1.08-2.4-2.4s1.07-2.4,2.4-2.4h8c1.33,0,2.4,1.08,2.4,2.4s-1.07,2.4-2.4,2.4Z"/>
          <path class="cls-2" d="M67.9,80.39h-8c-1.33,0-2.4-1.08-2.4-2.4s1.07-2.4,2.4-2.4h8c1.33,0,2.4,1.08,2.4,2.4s-1.07,2.4-2.4,2.4Z"/>
        </g>
        <g>
          <path class="cls-2" d="M72.73,124.2c2.33,2.74,5.76,5.09,9.78,6.48,2.54.89,5.32,1.38,8.2,1.34,7.45-.1,13.93-3.74,17.6-8.32.66-.82,1.22-1.66,1.69-2.53.98-1.82,1.5-3.71,1.48-5.52-.14-10.71-9.54-10.83-21.13-10.67-11.6.16-20.51,1.69-20.85,11.23-.09,2.67,1.11,5.48,3.24,7.97Z"/>
          <path class="cls-3" d="M106.13,104.05s-.09-.04-.13-.05c-3.55-1.25-7.98-1.45-13.32-1.42l-.03-5.11h1.86c1.33,0,2.4-1.08,2.4-2.4s-1.07-2.4-2.4-2.4h-8.57c-1.33,0-2.4,1.08-2.4,2.4s1.07,2.4,2.4,2.4h1.91l.03,5.19c-5.07.17-10.41.74-14.28,2.78,0,0,0,0,0,0-4.14,2.18-6.33,5.78-6.51,10.72-.13,3.61,1.57,7.4,4.79,10.69,4.67,4.77,11.56,7.6,18.51,7.6.11,0,.23,0,.34,0,5.96-.08,11.74-2.21,16.28-6,4.42-3.69,6.92-8.36,6.86-12.79-.08-5.85-2.68-9.75-7.74-11.59ZM103.93,124.75c-3.64,3.04-8.47,4.82-13.27,4.88-5.69.07-11.57-2.28-15.35-6.15-2.25-2.3-3.5-4.91-3.42-7.16.11-3.22,1.33-5.26,3.94-6.63,0,0,0,0,0,0,3.56-1.87,9.25-2.21,14.37-2.28.03,0,.05,0,.08,0h.01s.09,0,.14,0c5.87-.08,10.62-.04,13.92,1.12,0,0,.02,0,.03.01,3.22,1.14,4.62,3.29,4.67,7.18.04,2.94-1.88,6.32-5.14,9.04Z"/>
        </g>
      </g>
      <g>
        <path class="cls-5" d="M160.53,155.31c-1.86-6.31-14.13-2.92-14.13-2.92,0,0,14.28-11.98,9.81-17.45-7.15-8.77-18.24,10.82-18.24,10.82,0,0,8.22-17.87-1.5-17.87s-9.93,18.8-9.93,18.8c0,0-7.9-7.9-12.67-4.87-4.65,2.96-5.71,10.86,2.65,19.22,0,0,1.39,1.53,4,3.2-1.97,2.58-3.72,5.66-5.08,9.11-4.75,12.11-2.85,24.19,4.25,26.98,7.1,2.79,16.71-4.77,21.47-16.88,2.25-5.72,3-11.43,2.43-16.16,9.41-2.16,18.34-7.17,16.93-11.95Z"/>
        <path class="cls-3" d="M162.83,154.63c-1.37-4.67-6.34-5.52-9.54-5.56,4.18-4.61,8.48-11.12,4.78-15.66-2.32-2.85-4.94-3.26-6.72-3.12-2.74.23-5.42,1.99-7.77,4.21.13-2.27-.16-4.45-1.22-6.1-.86-1.34-2.57-2.93-5.89-2.93-8.45,0-11.11,10.15-11.94,16.41-3.27-2.29-8.05-4.58-11.94-2.11-2.62,1.66-4.26,4.37-4.62,7.64-.54,4.9,1.88,10.32,6.82,15.27.21.23,1.02,1.07,2.38,2.12-1.55,2.34-2.88,4.9-3.96,7.65-2.46,6.24-3.33,12.72-2.46,18.23.94,5.97,3.8,10.18,8.06,11.86,1.29.51,2.63.75,4,.75,7.62,0,16.07-7.51,20.59-19,2-5.11,2.95-10.42,2.74-15.21,6.44-1.75,12.59-4.74,15.35-8.44,1.84-2.46,1.74-4.63,1.34-6.01ZM138.93,182.53c-3.67,9.34-10.57,15.95-16.09,15.95-.79,0-1.55-.14-2.28-.42-2.61-1.02-4.41-3.91-5.07-8.13-.74-4.68.04-10.27,2.19-15.73.96-2.45,2.14-4.73,3.52-6.8,3.32,1.77,7.86,3.35,13.47,3.35,2.07,0,4.35-.22,6.7-.62.04,3.9-.8,8.21-2.44,12.4ZM157.65,157.77c-3.09,4.13-14.47,8.18-22.98,8.18-10.23,0-16.32-6.49-16.38-6.55-.02-.03-.05-.05-.08-.08-3.85-3.85-5.85-8-5.47-11.38.2-1.79,1.06-3.25,2.42-4.11,2.13-1.36,7.04,1.91,9.68,4.54.01.01.03.02.04.03,0,0,.01.02.02.03.03.03,2.75,2.63,3.94,6.14.34,1,1.27,1.63,2.27,1.63.26,0,.52-.04.77-.13,1.26-.43,1.93-1.79,1.5-3.04-1.15-3.38-3.25-6.01-4.41-7.28.09-1.55.36-4.77,1.22-7.92,1.37-5.01,3.47-7.55,6.27-7.55,1.38,0,1.7.5,1.84.72,1.5,2.34-.62,9.59-2.53,13.75-.54,1.17-.06,2.55,1.09,3.14,1.14.59,2.55.17,3.18-.95,2.11-3.72,7.74-11.51,11.69-11.85.65-.06,1.53.05,2.6,1.37,1.74,2.14-3.6,9.15-9.5,14.1-.86.73-1.11,1.95-.58,2.95.52,1,1.67,1.5,2.76,1.2.03,0,2.88-.78,5.85-.82,2.14-.03,4.82.31,5.34,2.11.05.18.21.73-.58,1.78Z"/>
      </g>
      <path class="cls-3" d="M62.37,209.34c-7.14,0-13.78-.85-17.92-1.79-4.5-1.02-7.46-4.21-8.36-8.97-2.2-11.75,8.33-30.46,22.54-40.04,1.1-.74,2.59-.45,3.33.65.74,1.1.45,2.59-.65,3.33-13.77,9.28-22.18,26.22-20.51,35.17.54,2.88,2.08,4.57,4.7,5.17,11.66,2.65,32.3,2.73,40.73-4.01,2.6-2.08,3.87-4.62,3.87-7.78,0-2.47-.78-4.2-2.47-5.43-6.43-4.68-23.4-.7-29.39,1.22-1.26.4-2.61-.29-3.02-1.55-.41-1.26.29-2.61,1.55-3.02,2.44-.79,24.14-7.49,33.69-.53,2.91,2.12,4.45,5.34,4.45,9.31,0,4.65-1.91,8.53-5.67,11.54-6.43,5.13-17.11,6.73-26.87,6.73Z"/>
    </g>
  </g>
</svg>