<?xml version="1.0" encoding="UTF-8"?>
<svg id="Capa_2" xmlns="http://www.w3.org/2000/svg" viewBox="0 0 179.6 220.69">
  <defs>
    <style>
      .cls-1 {
        fill: #5f5c5d;
      }

      .cls-2 {
        fill: #fff;
      }

      .cls-3 {
        fill: #95a1b3;
      }

      .cls-4 {
        fill: #b2b8c4;
      }

      .cls-5 {
        fill: #70838e;
      }
    </style>
  </defs>
  <g id="OBJECTS">
    <g>
      <g>
        <path class="cls-4" d="M172.45,6.12c-10.07-10.07-42.16,8.25-56.29,17.13-7-1.16-16.02-1.64-26.35-1.59-10.33-.05-19.36.43-26.35,1.59C49.31,14.36,17.23-3.95,7.16,6.12c-10,10,1.42,37.44,7.28,49.67-6.93,11.71-9.46,24.53-9.46,35.58,0,9.55,1.14,19.09,3.42,28.62,3.95,16.48,15.95,29.57,31.67,34.99-6.08,16.73-12.12,41.06-2.22,54.17,14.22,18.84,34.82,2.47,23.44-17.21,0,0-1.58-2.1-2.63-6.08,6.8,6.64,18.21,10.99,31.14,10.99s24.33-4.36,31.14-10.99c-1.05,3.98-2.63,6.08-2.63,6.08-11.38,19.68,9.22,36.05,23.44,17.21,9.9-13.11,3.86-37.44-2.22-54.17,15.72-5.42,27.71-18.51,31.67-34.99,2.29-9.54,3.42-19.07,3.42-28.62,0-11.04-2.53-23.86-9.46-35.57,5.85-12.22,17.27-39.68,7.27-49.68Z"/>
        <g>
          <path class="cls-3" d="M100.06,28.47c0,15.81-4.6,28.61-10.25,28.61s-10.26-12.8-10.26-28.61c0-2.17.08-4.27.25-6.29,6.67-.3,13.34-.3,20.01.01.17,2.02.25,4.13.25,6.28Z"/>
          <g>
            <path class="cls-3" d="M78.03,23.28c0,15.79-4.59,28.61-10.25,28.61s-9.92-11.92-10.24-26.93c3.52-.92,7.16-1.57,10.89-1.95,3.19-.31,6.39-.57,9.59-.74.01.34.01.67.01,1Z"/>
            <path class="cls-3" d="M122.06,24.83c-.29,15.07-4.77,27.06-10.24,27.06s-10.25-12.82-10.25-28.61c0-.34,0-.67.01-1,3.67.19,7.35.5,11.01.88,3.23.34,6.39.91,9.46,1.67Z"/>
          </g>
        </g>
        <path class="cls-2" d="M160.65,30.44s1.63,3.7,1.9,7.85c.25,3.84-2.06,6.77-5.08,7.99-6.35-7.23-14.2-13.13-23.06-17.23.08-2.08.96-4.13,2.65-5.66,6.8-6.18,16.21-12.85,22.86-10.14,11.59,4.73.73,17.2.73,17.2Z"/>
        <path class="cls-2" d="M18.95,30.44s-1.63,3.7-1.9,7.85c-.25,3.84,2.06,6.77,5.08,7.99,6.35-7.23,14.2-13.13,23.06-17.23-.08-2.08-.96-4.13-2.65-5.66-6.8-6.18-16.21-12.85-22.86-10.14-11.59,4.73-.73,17.2-.73,17.2Z"/>
        <g>
          <g>
            <path class="cls-3" d="M149.83,115.91h-15.04c-1.78,0-3.21-1.44-3.21-3.21s1.44-3.21,3.21-3.21h15.04c1.78,0,3.21,1.44,3.21,3.21s-1.44,3.21-3.21,3.21Z"/>
            <path class="cls-3" d="M147.1,130.04c-.37,0-.75-.06-1.12-.2l-12.3-4.56c-1.66-.62-2.51-2.47-1.9-4.13.62-1.66,2.47-2.52,4.13-1.9l12.3,4.56c1.67.62,2.51,2.47,1.9,4.13-.48,1.3-1.71,2.1-3.01,2.1Z"/>
          </g>
          <g>
            <path class="cls-3" d="M44.81,115.91h-15.04c-1.78,0-3.21-1.44-3.21-3.21s1.44-3.21,3.21-3.21h15.04c1.78,0,3.21,1.44,3.21,3.21s-1.44,3.21-3.21,3.21Z"/>
            <path class="cls-3" d="M32.51,130.04c-1.31,0-2.53-.8-3.01-2.1-.62-1.66.23-3.51,1.9-4.13l12.3-4.56c1.66-.62,3.51.23,4.13,1.9.62,1.66-.23,3.51-1.9,4.13l-12.3,4.56c-.37.14-.75.2-1.12.2Z"/>
          </g>
        </g>
        <path class="cls-2" d="M129.61,75.78c-.54,0-1.08-.13-1.58-.42-5.24-2.96-12.18-.16-12.25-.13-1.63.69-3.52-.07-4.22-1.7-.69-1.63.07-3.52,1.7-4.22.4-.17,9.88-4.1,17.93.45,1.54.87,2.09,2.84,1.21,4.38-.59,1.05-1.68,1.63-2.8,1.63Z"/>
        <path class="cls-2" d="M63.37,89.55c-.16,0-.33-.01-.49-.04l-7.89-1.21c-1.75-.27-2.96-1.91-2.69-3.66.27-1.75,1.91-2.96,3.66-2.69l7.89,1.21c1.75.27,2.96,1.91,2.69,3.66-.24,1.59-1.61,2.73-3.17,2.73Z"/>
        <path class="cls-5" d="M106.32,100.52h-13.3v-2.82h1.01c1.78,0,3.21-1.44,3.21-3.21s-1.44-3.21-3.21-3.21h-8.45c-1.78,0-3.21,1.44-3.21,3.21s1.44,3.21,3.21,3.21h1.01v2.82h-13.3c-1.78,0-3.21,1.44-3.21,3.21s1.44,3.21,3.21,3.21h33.02c1.78,0,3.21-1.44,3.21-3.21s-1.44-3.21-3.21-3.21Z"/>
        <path class="cls-1" d="M125.75,85.11c-5.26,0-9.52,5.22-9.52,11.65s4.26,11.65,9.52,11.65,9.52-5.22,9.52-11.65-4.26-11.65-9.52-11.65Z"/>
        <ellipse class="cls-1" cx="53.85" cy="100.78" rx="9.52" ry="7.64"/>
      </g>
      <path class="cls-5" d="M174.72,3.84c-10.61-10.6-37.85,2.7-59.25,16.05-6.71-1.01-15.29-1.5-25.64-1.45-10.37-.04-18.97.44-25.68,1.45C42.73,6.55,15.48-6.75,4.88,3.84-.3,9.03-1.36,18.13,1.73,30.88c2.19,9.02,6.01,18.19,9.08,24.76C3.17,69.31,1.76,83.11,1.76,91.37c0,9.77,1.18,19.65,3.51,29.37,2.34,9.74,7.35,18.54,14.5,25.47,4.71,4.56,10.2,8.16,16.19,10.65-5.9,17.21-10.88,40.73-.69,54.23,5.18,6.86,11.17,9.59,16.53,9.59,3.14,0,6.06-.94,8.47-2.53,7.14-4.74,10.74-15.81,3.8-27.81-.06-.12-.12-.2-.2-.31-.21-.29-5.14-7.27-1.66-20.18.46-1.72-.56-3.48-2.27-3.94-1.71-.46-3.48.56-3.94,2.27-4.04,15,1.55,24.01,2.58,25.5,3.69,6.47,4.23,15.08-1.85,19.11-4.9,3.25-11.3,1.06-16.31-5.57-7.47-9.91-4.47-27.8-.62-41.07.71-2.47,1.49-4.87,2.28-7.17,1.2.33,2.41.62,3.64.87,3.16.64,6.37,1.22,9.54,1.72.17.03.34.04.51.04,1.55,0,2.92-1.13,3.17-2.71.28-1.75-.92-3.4-2.67-3.68-3.07-.49-6.19-1.05-9.27-1.67-8.59-1.74-16.45-5.88-22.73-11.96-6.27-6.07-10.67-13.8-12.72-22.35-2.21-9.23-3.34-18.61-3.34-27.87,0-10.23,2.34-29.75,17.99-45.57,1.25-1.26,1.24-3.3-.02-4.55-1.26-1.25-3.3-1.24-4.55.02-2.53,2.56-4.74,5.2-6.68,7.89-2.54-5.79-5.27-12.87-6.96-19.8-2.49-10.28-1.99-17.53,1.45-20.97,3.28-3.28,11.5-2.51,23.14,2.17,7.77,3.12,15.81,7.43,22.49,11.36-3.92,1.18-7.67,2.58-11.19,4.17-1.62.73-2.34,2.63-1.61,4.25.73,1.62,2.63,2.34,4.25,1.61,3.71-1.67,7.72-3.12,11.91-4.31,6.67-1.89,17.23-2.82,31.4-2.76,14.13-.07,24.7.86,31.37,2.76,4.19,1.19,8.2,2.65,11.91,4.31.43.19.88.28,1.32.28,1.23,0,2.4-.71,2.93-1.9.73-1.62,0-3.52-1.61-4.25-3.52-1.58-7.28-2.98-11.2-4.17,6.67-3.93,14.71-8.24,22.48-11.36,11.65-4.67,19.87-5.44,23.15-2.17,5.51,5.51,3.42,20.57-5.49,40.78-1.94-2.69-4.15-5.33-6.68-7.89-1.25-1.26-3.28-1.27-4.55-.02-1.26,1.25-1.27,3.28-.02,4.55,15.65,15.81,17.99,35.34,17.99,45.57,0,9.27-1.12,18.64-3.34,27.87-2.05,8.55-6.45,16.28-12.72,22.35-6.28,6.08-14.14,10.22-22.73,11.96-3.66.74-7.38,1.39-11.04,1.94-1.76.26-2.97,1.9-2.7,3.66.24,1.59,1.61,2.74,3.17,2.74.16,0,.32-.01.48-.04,3.77-.57,7.59-1.24,11.36-2,1.23-.25,2.44-.54,3.64-.87.79,2.3,1.56,4.7,2.28,7.17,3.84,13.27,6.85,31.17-.62,41.07-5.01,6.63-11.41,8.82-16.31,5.57-6.09-4.03-5.54-12.64-1.85-19.11,1.03-1.49,6.62-10.5,2.58-25.5-.46-1.71-2.22-2.73-3.94-2.27-1.71.46-2.73,2.22-2.27,3.94,3.47,12.91-1.46,19.89-1.65,20.16-.08.11-.16.22-.22.34-6.94,12-3.34,23.08,3.8,27.81,2.41,1.59,5.33,2.53,8.47,2.53,5.36,0,11.35-2.74,16.53-9.59,10.19-13.5,5.21-37.02-.69-54.23,5.99-2.5,11.49-6.09,16.2-10.65,7.15-6.93,12.16-15.73,14.5-25.47,2.33-9.72,3.51-19.6,3.51-29.37,0-8.26-1.41-22.06-9.05-35.73,3.07-6.57,6.89-15.75,9.07-24.76,3.09-12.75,2.03-21.85-3.15-27.04Z"/>
    </g>
  </g>
</svg>