<?xml version="1.0" encoding="UTF-8"?>
<svg id="Capa_2" xmlns="http://www.w3.org/2000/svg" viewBox="0 0 220.69 211.07">
  <defs>
    <style>
      .cls-1 {
        fill: #ffa6ca;
      }

      .cls-2 {
        fill: #fff;
      }

      .cls-3 {
        fill: #678490;
      }

      .cls-4 {
        fill: #fd80a6;
      }

      .cls-5 {
        fill: #b1b9c6;
      }

      .cls-6 {
        fill: #91a2b5;
      }

      .cls-7 {
        fill: #605c5d;
      }
    </style>
  </defs>
  <g id="OBJECTS">
    <g>
      <path class="cls-1" d="M93.5,14.55l1.45,2.07,2.07-1.45c8.55-6.02,20.35-3.97,26.37,4.58h0c6.02,8.55,3.97,20.35-4.58,26.37l-11.31,7.96c-11.99,8.44-28.54,5.56-36.98-6.42l-7.96-11.31c-6.02-8.55-3.97-20.35,4.58-26.37h0c8.55-6.02,20.35-3.97,26.37,4.58Z"/>
      <path class="cls-1" d="M145.15,3.99l.53.92.92-.53c3.82-2.21,8.71-.91,10.92,2.91h0c2.21,3.82.91,8.71-2.91,10.92l-5.06,2.93c-5.36,3.1-12.21,1.27-15.31-4.08l-2.93-5.06c-2.21-3.82-.91-8.71,2.91-10.92h0c3.82-2.21,8.71-.91,10.92,2.91Z"/>
      <path class="cls-4" d="M39.86,176.82l.97.45.45-.97c1.88-3.99,6.64-5.71,10.63-3.83h0c3.99,1.88,5.71,6.64,3.83,10.63l-2.49,5.29c-2.64,5.6-9.31,8-14.91,5.37l-5.29-2.49c-3.99-1.88-5.71-6.64-3.83-10.63h0c1.88-3.99,6.64-5.71,10.63-3.83Z"/>
      <g>
        <path class="cls-5" d="M184.57,32.98c-9.05-9.05-37.89,7.41-50.58,15.39-6.29-1.05-14.39-1.47-23.68-1.43-9.29-.04-17.39.39-23.68,1.43-12.7-7.99-41.54-24.44-50.58-15.4-8.98,8.98,1.27,33.65,6.54,44.64-6.23,10.52-8.5,22.05-8.5,31.97,0,8.58,1.02,17.15,3.08,25.72,3.83,15.97,16.06,28.39,31.82,32.45-4.41,16.28-.74,38.6,16.64,39.21,9.8.35,15.99-6.6,19.73-13.64,3.37-6.33,5.05-13.42,5.23-20.59,0-.17,0-.34.01-.51,0,0,0,0,.01,0,0,.17-.02.34-.02.51-.3,7.17.87,14.36,3.78,20.9,3.24,7.28,8.94,14.64,18.74,14.99,18.42.64,23.18-24.16,18.64-40.9,15.71-4.09,27.9-16.5,31.72-32.43,2.06-8.57,3.08-17.14,3.08-25.72,0-9.92-2.27-21.44-8.5-31.96,5.25-10.98,15.52-35.66,6.54-44.64Z"/>
        <circle class="cls-1" cx="78.14" cy="132.86" r="13.79"/>
        <circle class="cls-1" cx="141.65" cy="132.86" r="13.79"/>
        <g>
          <path class="cls-3" d="M124.61,109.88s-.33,9.62-3.94,16.9c-2.26,4.55-5.8,8.18-11.35,7.98-5.1-.19-8.27-3.5-10.24-7.69-3.58-7.65-3.14-18.26-3.14-18.26.68,3.19,3.45,5.64,6.86,5.76,4.01.15,7.39-2.99,7.54-7-.15,4.01,2.99,7.39,7.01,7.54,3.41.12,6.34-2.11,7.26-5.24Z"/>
          <path class="cls-4" d="M120.68,126.79c-2.26,4.55-5.8,8.18-11.35,7.98-5.1-.19-8.27-3.5-10.24-7.69,2.25-4.55,5.79-8.21,11.35-8,5.11.2,8.28,3.51,10.24,7.71Z"/>
          <path class="cls-3" d="M124.99,107.49c-1.21-.19-2.37.54-2.71,1.72-.62,2.14-2.62,3.56-4.84,3.49-1.3-.05-2.5-.6-3.38-1.55-.88-.95-1.34-2.19-1.29-3.48,0-.03,0-.06,0-.09,0-.01,0-.02,0-.03h1.36c1.34-.02,2.42-1.12,2.41-2.46-.01-1.34-1.12-2.42-2.45-2.41l-7.59.06c-1.34.01-2.42,1.11-2.41,2.45.01,1.33,1.1,2.41,2.43,2.41h1.39c-.15,2.62-2.36,4.65-5.02,4.56-2.23-.08-4.11-1.66-4.57-3.84-.25-1.2-1.36-2.02-2.58-1.92-1.22.1-2.17,1.1-2.22,2.32-.03.67-.59,16.51,6.55,24.23,2.48,2.68,5.56,4.1,9.17,4.24.18,0,.37.01.55.01,3.38,0,6.38-1.19,8.92-3.55,7.7-7.17,8.32-23.01,8.34-23.68.04-1.22-.83-2.29-2.04-2.48ZM115.39,130.1c-1.71,1.6-3.67,2.33-5.97,2.24-2.3-.09-4.19-.96-5.78-2.68-3.12-3.36-4.4-9.09-4.93-13.68,1.21.61,2.57.97,4,1.02,2.89.11,5.54-1.07,7.4-3.02.13.16.26.31.4.46,1.77,1.9,4.17,3,6.76,3.1,1.42.06,2.8-.2,4.06-.72-.93,4.73-2.72,10.28-5.93,13.27Z"/>
        </g>
        <g>
          <path class="cls-6" d="M119.52,53.07c0,14.2-4.13,25.71-9.21,25.71s-9.22-11.51-9.22-25.71c0-1.95.08-3.84.23-5.66,5.99-.27,11.98-.27,17.98.01.15,1.82.23,3.71.23,5.64Z"/>
          <g>
            <path class="cls-6" d="M99.73,48.4c0,14.19-4.12,25.71-9.21,25.71s-8.92-10.71-9.2-24.2c3.16-.83,6.44-1.41,9.79-1.75,2.87-.28,5.74-.51,8.61-.66.01.3.01.6.01.9Z"/>
            <path class="cls-6" d="M139.29,49.8c-.26,13.54-4.28,24.32-9.2,24.32s-9.21-11.52-9.21-25.71c0-.3,0-.6.01-.9,3.3.17,6.6.45,9.9.79,2.9.3,5.74.82,8.5,1.5Z"/>
          </g>
        </g>
        <path class="cls-2" d="M173.97,54.83s1.47,3.33,1.71,7.06c.23,3.45-1.85,6.08-4.57,7.18-5.71-6.49-12.76-11.8-20.72-15.49.08-1.87.86-3.71,2.38-5.09,6.11-5.56,14.56-11.55,20.54-9.11,10.42,4.25.65,15.45.65,15.45Z"/>
        <path class="cls-2" d="M46.64,54.83s-1.47,3.33-1.71,7.06c-.23,3.45,1.85,6.08,4.57,7.18,5.71-6.49,12.76-11.8,20.72-15.49-.08-1.87-.86-3.71-2.38-5.09-6.11-5.56-14.56-11.55-20.54-9.11-10.42,4.25-.65,15.45-.65,15.45Z"/>
        <path class="cls-3" d="M186.28,31.26c-4.74-4.74-13.42-4.49-26.54.77-9.54,3.83-19.42,9.52-26.28,13.81-6.02-.92-13.77-1.37-23.15-1.32-9.39-.04-17.14.41-23.17,1.33-6.87-4.28-16.76-9.99-26.28-13.81-13.12-5.26-21.79-5.51-26.54-.77-9.51,9.51-.92,32.55,5.52,46.23-6.92,12.26-8.19,24.68-8.19,32.09,0,8.74,1.06,17.59,3.14,26.29,2.08,8.66,6.54,16.5,12.9,22.66,6.37,6.17,14.35,10.37,23.07,12.14,13.11,2.65,26.42,4,39.53,4s26.42-1.34,39.54-4c8.72-1.77,16.7-5.96,23.07-12.14,6.36-6.16,10.82-14,12.9-22.66,2.09-8.7,3.14-17.54,3.14-26.29,0-7.41-1.27-19.83-8.19-32.09,6.42-13.69,15.01-36.74,5.51-46.23ZM181.09,134.74c-3.78,15.74-16.42,27.97-32.21,31.17-12.8,2.59-25.78,3.9-38.57,3.9s-25.77-1.31-38.57-3.9c-15.79-3.2-28.44-15.44-32.22-31.17-2-8.33-3.01-16.79-3.01-25.15,0-9.26,2.12-26.94,16.3-41.27.94-.95.94-2.49-.02-3.43-.95-.94-2.49-.94-3.43.02-2.46,2.49-4.59,5.07-6.43,7.69-8.38-18.71-10.34-32.73-5.17-37.9,4.98-4.98,21.04-.14,42.48,12.62-3.87,1.12-7.57,2.47-11.02,4.02-1.22.55-1.77,1.99-1.22,3.21.55,1.22,1.99,1.77,3.21,1.22,3.36-1.51,6.98-2.82,10.77-3.9,6.04-1.71,15.56-2.55,28.34-2.5,12.75-.06,22.28.78,28.32,2.5,3.79,1.08,7.41,2.39,10.77,3.9.32.15.66.21.99.21.93,0,1.81-.53,2.22-1.43.55-1.22,0-2.66-1.22-3.21-3.45-1.55-7.16-2.9-11.03-4.02,21.44-12.77,37.49-17.61,42.48-12.62,5.15,5.16,3.2,19.17-5.17,37.89-1.84-2.62-3.96-5.2-6.43-7.69-.94-.95-2.48-.96-3.43-.02-.95.94-.96,2.48-.02,3.43,14.18,14.33,16.3,32.01,16.3,41.27,0,8.36-1.01,16.82-3.01,25.15Z"/>
        <g>
          <g>
            <path class="cls-6" d="M164.25,122.31h-13.51c-1.31,0-2.37-1.06-2.37-2.37s1.06-2.37,2.37-2.37h13.51c1.31,0,2.37,1.06,2.37,2.37s-1.06,2.37-2.37,2.37Z"/>
            <path class="cls-6" d="M161.79,135c-.27,0-.55-.05-.82-.15l-11.05-4.09c-1.23-.45-1.85-1.82-1.4-3.05.45-1.23,1.82-1.85,3.05-1.4l11.05,4.09c1.23.45,1.85,1.82,1.4,3.05-.35.96-1.26,1.55-2.22,1.55Z"/>
          </g>
          <g>
            <path class="cls-6" d="M69.88,122.31h-13.51c-1.31,0-2.37-1.06-2.37-2.37s1.06-2.37,2.37-2.37h13.51c1.31,0,2.37,1.06,2.37,2.37s-1.06,2.37-2.37,2.37Z"/>
            <path class="cls-6" d="M58.82,135c-.96,0-1.87-.59-2.22-1.55-.45-1.23.17-2.59,1.4-3.05l11.05-4.09c1.23-.45,2.59.17,3.05,1.4.45,1.23-.17,2.59-1.4,3.05l-11.05,4.09c-.27.1-.55.15-.82.15Z"/>
          </g>
        </g>
        <g>
          <path class="cls-2" d="M137.18,90.82h-7.09c-1.31,0-2.37-1.06-2.37-2.37s1.06-2.37,2.37-2.37h7.09c1.31,0,2.37,1.06,2.37,2.37s-1.06,2.37-2.37,2.37Z"/>
          <path class="cls-2" d="M90.52,90.82h-7.09c-1.31,0-2.37-1.06-2.37-2.37s1.06-2.37,2.37-2.37h7.09c1.31,0,2.37,1.06,2.37,2.37s-1.06,2.37-2.37,2.37Z"/>
        </g>
        <path class="cls-7" d="M70.21,109.91c-1.07,0-2.04-.73-2.3-1.81-.31-1.27.47-2.55,1.75-2.86l16.41-3.97c1.27-.31,2.55.47,2.86,1.75.31,1.27-.47,2.55-1.75,2.86l-16.41,3.97c-.19.05-.38.07-.56.07Z"/>
        <path class="cls-7" d="M150.74,109.91c-.18,0-.37-.02-.56-.07l-16.41-3.97c-1.27-.31-2.05-1.59-1.75-2.86.31-1.27,1.59-2.05,2.86-1.75l16.41,3.97c1.27.31,2.05,1.59,1.75,2.86-.26,1.09-1.23,1.81-2.3,1.81Z"/>
      </g>
      <path class="cls-1" d="M23.1,89.03l1.76,1.04,1.04-1.76c4.31-7.27,13.69-9.66,20.96-5.36h0c7.27,4.31,9.66,13.69,5.36,20.96l-5.7,9.62c-6.04,10.19-19.2,13.55-29.39,7.51l-9.62-5.7c-7.27-4.31-9.66-13.69-5.36-20.96h0c4.31-7.27,13.69-9.67,20.96-5.36Z"/>
      <path class="cls-4" d="M189.88,70.59l1.04,2.4,2.4-1.04c9.91-4.31,21.43.23,25.74,10.14h0c4.31,9.91-.23,21.43-10.14,25.74l-13.12,5.7c-13.9,6.04-30.06-.32-36.1-14.22l-5.7-13.12c-4.31-9.91.23-21.43,10.14-25.74h0c9.91-4.31,21.43.23,25.74,10.14Z"/>
      <path class="cls-5" d="M131.84,179.94s.46-4.32.46-9.8c-.02-9.46-1.4-22.39-8.94-22.65-8.67-.3-11.26,6.3-12.29,17.49-.25-11.25-2.37-18.02-11.04-18.33-7.43-.26-9.77,12.2-10.47,21.59,0,.07,0,.14-.02.21-.4,5.56-.24,9.99-.24,9.99l-3.24,28.54c9.8.34,15.99-6.6,19.73-13.64,2.56-4.8,4.14-10.05,4.83-15.43.32,5.42,1.53,10.77,3.74,15.74,3.24,7.28,8.94,14.64,18.73,14.98l-1.24-28.69Z"/>
      <path class="cls-3" d="M154.74,169.93c-.27-1.31-1.55-2.16-2.86-1.89-1.31.27-2.16,1.55-1.89,2.86,2.32,11.4.17,23.83-5.24,30.22-3,3.54-6.89,5.26-11.56,5.09-7.13-.25-12.71-4.8-16.6-13.53-2.24-5.04-3.46-10.57-3.6-16.44-.03-.93.09-4.82.13-5.5.84-16.21,3.21-21.08,10.17-20.83,4.1.14,6.57,7.71,6.6,20.22,0,1.89-.05,3.74-.14,5.37-.13,2.51-.3,4.17-.3,4.19-.14,1.33.83,2.53,2.16,2.67,1.33.14,2.53-.83,2.67-2.16,0-.07.19-1.79.32-4.44.09-1.71.14-3.64.14-5.62-.02-6.3-.6-11.5-1.75-15.44-2.25-7.76-6.43-9.52-9.53-9.63-5.72-.2-9.79,2.28-12.12,7.38-.09.21-.18.42-.27.64-.72-2.25-1.74-4.11-3.17-5.56-2.15-2.19-5.09-3.3-8.76-3.3-3.41,0-6.26,1.29-8.49,3.85-3.25,3.73-5.01,10.08-5.23,18.89-.16,6.32.55,11.58.58,11.8.18,1.33,1.41,2.26,2.73,2.08,1.33-.18,2.26-1.4,2.08-2.73-.75-5.5-1.58-21.04,3.49-26.85,1.28-1.47,2.86-2.18,4.83-2.18,2.38,0,4.06.59,5.29,1.84,3,3.06,3.5,10.06,3.32,19.64,0,.02,0,.05,0,.07-.01.71-.18,4.62-.25,5.44-.56,5.86-2.16,11.29-4.75,16.13-4.48,8.44-10.36,12.61-17.49,12.34-4.64-.16-8.38-2.11-11.12-5.79-4.13-5.56-6.77-16.99-3.35-30.02.34-1.3-4.36-2.53-4.7-1.23-2.76,10.51-2.55,25.14,4.15,34.15,3.61,4.85,8.74,7.53,14.84,7.74.26,0,.52.01.77.01,8.67,0,15.98-5.15,21.18-14.93,1.08-2.03,2.01-4.15,2.78-6.35.61,2.24,1.39,4.41,2.32,6.51,4.64,10.42,11.85,16.1,20.86,16.41.26,0,.51.01.77.01,5.83,0,10.89-2.35,14.67-6.82,7.4-8.74,8.49-23.54,6.29-34.33Z"/>
      <path class="cls-1" d="M160.55,155.84l1.24,1.24,1.24-1.24c5.12-5.13,13.43-5.13,18.55-.01h0c5.13,5.12,5.13,13.43.01,18.55l-6.78,6.79c-7.18,7.19-18.83,7.2-26.02.02l-6.79-6.78c-5.13-5.12-5.13-13.43-.01-18.55h0c5.12-5.13,13.43-5.13,18.55-.01Z"/>
    </g>
  </g>
</svg>