<?xml version="1.0" encoding="UTF-8"?>
<svg id="Capa_2" xmlns="http://www.w3.org/2000/svg" viewBox="0 0 192.36 220.69">
  <defs>
    <style>
      .cls-1 {
        fill: #5f5c5d;
      }

      .cls-2 {
        fill: #fff;
      }

      .cls-3 {
        fill: #95a1b3;
      }

      .cls-4 {
        fill: #b2b8c4;
      }

      .cls-5 {
        fill: #e27fa3;
      }

      .cls-6 {
        fill: #70838e;
      }
    </style>
  </defs>
  <g id="OBJECTS">
    <g>
      <g>
        <path class="cls-4" d="M184.87,6.44c-10.81-10.81-45.24,8.85-60.41,18.38-7.51-1.25-17.19-1.76-28.28-1.71-11.09-.05-20.77.46-28.28,1.71C52.73,15.29,18.3-4.36,7.5,6.44c-10.73,10.73,1.52,40.18,7.81,53.31-7.44,12.57-10.16,26.33-10.16,38.18,0,10.25,1.22,20.48,3.68,30.72,4.79,19.97,20.59,35.31,40.72,39.39,1.24.25,2.47.49,3.71.72-6.15,6.49-9.8,14.6-9.8,23.41,0,21.27,21.31,28.54,47.59,28.54s47.59-7.27,47.59-28.54c0-8.14-3.13-15.7-8.46-21.92,4.22-.62,8.43-1.35,12.65-2.21,20.13-4.08,35.92-19.42,40.72-39.39,2.45-10.23,3.68-20.47,3.68-30.72,0-11.85-2.71-25.61-10.15-38.17,6.27-13.11,18.54-42.58,7.81-53.31Z"/>
        <g>
          <path class="cls-3" d="M107.19,30.43c0,16.96-4.94,30.7-11,30.7s-11.01-13.74-11.01-30.7c0-2.32.09-4.58.27-6.75,7.16-.32,14.31-.32,21.47.01.18,2.17.27,4.43.27,6.74Z"/>
          <g>
            <path class="cls-3" d="M83.55,24.86c0,16.95-4.92,30.7-11,30.7s-10.65-12.79-10.99-28.9c3.78-.99,7.69-1.69,11.69-2.09,3.43-.34,6.86-.61,10.29-.79.01.36.01.71.01,1.08Z"/>
            <path class="cls-3" d="M130.8,26.52c-.31,16.17-5.12,29.04-10.99,29.04s-11-13.75-11-30.7c0-.36,0-.71.01-1.08,3.94.21,7.88.53,11.82.95,3.47.36,6.86.97,10.16,1.79Z"/>
          </g>
        </g>
        <path class="cls-2" d="M172.21,32.53s1.75,3.97,2.04,8.43c.27,4.12-2.21,7.26-5.45,8.57-6.82-7.75-15.23-14.09-24.74-18.49.09-2.23,1.03-4.43,2.84-6.08,7.3-6.64,17.39-13.79,24.53-10.88,12.44,5.08.78,18.46.78,18.46Z"/>
        <path class="cls-2" d="M20.15,32.53s-1.75,3.97-2.04,8.43c-.27,4.12,2.21,7.26,5.45,8.57,6.82-7.75,15.23-14.09,24.74-18.49-.09-2.23-1.03-4.43-2.84-6.08-7.3-6.64-17.39-13.79-24.53-10.88-12.44,5.08-.78,18.46-.78,18.46Z"/>
        <path class="cls-6" d="M108.7,128.52c-1.46,0-2.79-.99-3.16-2.47-.44-1.75.62-3.52,2.37-3.96,1.63-.41,2.76-1.87,2.76-3.56,0-2.02-1.64-3.66-3.66-3.66-1.8,0-3.26-1.46-3.26-3.26s1.46-3.26,3.26-3.26c2.02,0,3.66-1.65,3.66-3.67,0-1.68-1.14-3.14-2.76-3.55-1.75-.44-2.81-2.21-2.37-3.96.44-1.75,2.21-2.81,3.96-2.37,4.53,1.14,7.7,5.2,7.7,9.88,0,2.67-1.03,5.11-2.72,6.93,1.69,1.82,2.72,4.25,2.72,6.93,0,4.68-3.17,8.74-7.7,9.88-.27.07-.53.1-.8.1Z"/>
        <g>
          <g>
            <path class="cls-3" d="M172.29,124.07h-16.14c-1.8,0-3.26-1.46-3.26-3.26s1.46-3.26,3.26-3.26h16.14c1.8,0,3.26,1.46,3.26,3.26s-1.46,3.26-3.26,3.26Z"/>
            <path class="cls-3" d="M169.36,139.23c-.38,0-.76-.07-1.13-.2l-13.2-4.89c-1.69-.63-2.55-2.5-1.93-4.19.63-1.69,2.5-2.55,4.19-1.93l13.2,4.89c1.69.63,2.55,2.5,1.93,4.19-.49,1.32-1.73,2.13-3.06,2.13Z"/>
          </g>
          <g>
            <path class="cls-3" d="M59.59,124.07h-16.14c-1.8,0-3.26-1.46-3.26-3.26s1.46-3.26,3.26-3.26h16.14c1.8,0,3.26,1.46,3.26,3.26s-1.46,3.26-3.26,3.26Z"/>
            <path class="cls-3" d="M46.39,139.23c-1.33,0-2.57-.81-3.06-2.13-.63-1.69.24-3.57,1.93-4.19l13.2-4.89c1.69-.63,3.57.24,4.19,1.93.63,1.69-.24,3.57-1.93,4.19l-13.2,4.89c-.37.14-.76.2-1.13.2Z"/>
          </g>
        </g>
        <g>
          <path class="cls-2" d="M139.96,86.47h-8.46c-1.8,0-3.26-1.46-3.26-3.26s1.46-3.26,3.26-3.26h8.46c1.8,0,3.26,1.46,3.26,3.26s-1.46,3.26-3.26,3.26Z"/>
          <path class="cls-2" d="M84.24,86.47h-8.46c-1.8,0-3.26-1.46-3.26-3.26s1.46-3.26,3.26-3.26h8.46c1.8,0,3.26,1.46,3.26,3.26s-1.46,3.26-3.26,3.26Z"/>
        </g>
        <g>
          <path class="cls-1" d="M78.55,107.05c-.83,0-1.67-.32-2.31-.96-4.65-4.65-12.22-4.65-16.88,0-1.27,1.27-3.34,1.27-4.61,0-1.27-1.27-1.27-3.34,0-4.61,7.2-7.2,18.91-7.2,26.1,0,1.27,1.27,1.27,3.34,0,4.61-.64.64-1.47.96-2.31.96Z"/>
          <path class="cls-1" d="M158.68,107.05c-.83,0-1.67-.32-2.31-.96-4.65-4.65-12.22-4.65-16.88,0-1.27,1.27-3.34,1.27-4.61,0-1.27-1.27-1.27-3.34,0-4.61,7.2-7.2,18.91-7.2,26.1,0,1.27,1.27,1.27,3.34,0,4.61-.64.64-1.47.96-2.31.96Z"/>
        </g>
        <path class="cls-5" d="M134.94,111.36l.88.78.78-.88c3.22-3.64,8.78-3.98,12.41-.76h0c3.64,3.22,3.98,8.78.76,12.41l-4.26,4.82c-4.51,5.1-12.31,5.58-17.41,1.07l-4.82-4.26c-3.64-3.22-3.98-8.78-.76-12.41h0c3.22-3.64,8.78-3.98,12.41-.76Z"/>
      </g>
      <g>
        <path class="cls-4" d="M166.03,152.82c-.78,6.64-6.86,9.14-12.14,10.07,0,9.26,21.39,35.94-1.06,46.7-22.46,10.75-36.2-13.21-39-27.38l19.73-.6c-11.35-27.95-11.52-40.69,3.9-43.2,21.49-3.51,29.57,5.92,28.59,14.42Z"/>
        <path class="cls-6" d="M169.26,153.2c.55-4.73-1.16-9.38-4.7-12.76-3.99-3.81-12.02-7.81-27.64-5.26-5.57.91-9.79,4.09-12.19,9.21-4.47,9.51-2.05,25.13,6.01,38.87.61,1.04,1.7,1.61,2.82,1.61.56,0,1.13-.14,1.65-.45,1.55-.91,2.07-2.91,1.16-4.46-6.91-11.78-9.27-25.27-5.73-32.8,1.49-3.17,3.89-4.98,7.34-5.54,13.66-2.23,19.7,1.26,22.09,3.54,2.07,1.98,3.04,4.57,2.73,7.29-1.01,8.71-16.47,7.65-16.62,7.64-1.8-.14-3.37,1.2-3.51,3s1.2,3.37,3,3.51c.14.01,2.44.18,5.52-.07.65,2.45,1.83,5.26,3.19,8.52,5.97,14.25,9.54,25.62-2.96,31.6-6.23,2.98-12.08,3.15-17.38.49-8.72-4.37-15.16-16.16-17.01-25.56-.35-1.77-2.06-2.92-3.83-2.57-1.77.35-2.92,2.06-2.57,3.83,2.1,10.61,9.4,24.57,20.49,30.13,3.41,1.71,7.03,2.56,10.75,2.56,4.03,0,8.2-1,12.37-3,8.4-4.02,12.47-10.58,12.09-19.47-.3-7.08-3.43-14.54-5.94-20.54-1.06-2.54-2.15-5.14-2.76-7.15,2.65-.77,4.9-1.87,6.69-3.29,2.86-2.27,4.52-5.25,4.94-8.87Z"/>
      </g>
      <path class="cls-6" d="M190.51,32.97c-2.35,9.69-6.47,19.57-9.76,26.62,8.22,14.66,9.73,29.47,9.73,38.34,0,10.47-1.27,21.06-3.77,31.47-2.5,10.41-7.86,19.83-15.51,27.24-4.94,4.78-10.69,8.58-16.96,11.25l-2.03-6.23c5.33-2.34,10.22-5.61,14.44-9.7,6.76-6.55,11.5-14.87,13.71-24.08,2.38-9.92,3.59-20,3.59-29.95,0-11.01-2.52-32.02-19.37-49.03-1.26-1.28-1.25-3.34.03-4.61,1.28-1.27,3.34-1.25,4.61.03,2.79,2.82,5.22,5.74,7.34,8.71,9.71-21.92,11.98-38.27,5.99-44.27-5.78-5.78-24.49-.15-49.57,14.7,4.35,1.3,8.52,2.84,12.42,4.59,1.64.74,2.37,2.67,1.63,4.31-.54,1.21-1.73,1.92-2.97,1.92-.45,0-.9-.09-1.34-.29-3.99-1.79-8.3-3.35-12.81-4.64-7.17-2.04-18.52-3.03-33.72-2.97-15.23-.07-26.57.93-33.75,2.97-4.51,1.28-8.82,2.84-12.81,4.64-1.64.74-3.57,0-4.31-1.63-.74-1.64,0-3.57,1.63-4.31,3.9-1.75,8.06-3.29,12.41-4.58C34.28,8.61,15.57,2.97,9.8,8.75c-6,6-3.73,22.36,6,44.27,2.12-2.97,4.55-5.89,7.34-8.71,1.27-1.28,3.33-1.29,4.61-.03,1.28,1.27,1.29,3.33.03,4.61-16.85,17.02-19.36,38.03-19.36,49.03,0,9.96,1.21,20.03,3.58,29.95,2.21,9.21,6.95,17.53,13.71,24.08,6.76,6.55,15.23,11,24.49,12.88,7.26,1.47,14.62,2.6,21.88,3.37,1.79.19,3.09,1.8,2.9,3.59-.18,1.68-1.59,2.92-3.24,2.92-.12,0-.23,0-.35-.02-5.87-.62-11.81-1.48-17.7-2.55-8.19,15.86-2.32,35.78-2.25,36.01.52,1.72-.45,3.55-2.17,4.07-.31.1-.63.14-.95.14-1.39,0-2.69-.9-3.11-2.31-.1-.32-2.39-7.91-2.42-17.84-.02-7.98,1.44-15.2,4.3-21.39-9.77-2.32-18.69-7.2-25.91-14.19-7.65-7.41-13.01-16.83-15.51-27.24-2.5-10.42-3.76-21.01-3.76-31.47,0-8.87,1.51-23.68,9.73-38.34-3.3-7.04-7.41-16.91-9.77-26.62C-1.45,19.35-.33,9.65,5.19,4.13c11.29-11.29,40.49,2.99,63.41,17.29,7.2-1.09,16.43-1.62,27.59-1.57,11.14-.05,20.37.48,27.56,1.57,8.2-5.12,19.96-11.89,31.32-16.45,15.81-6.34,26.31-6.62,32.09-.84,5.52,5.51,6.64,15.22,3.34,28.84Z"/>
    </g>
  </g>
</svg>