<?xml version="1.0" encoding="UTF-8"?>
<svg id="Capa_2" xmlns="http://www.w3.org/2000/svg" viewBox="0 0 220.69 214.5">
  <defs>
    <style>
      .cls-1 {
        fill: #ffa6ca;
      }

      .cls-2 {
        fill: #fff;
      }

      .cls-3 {
        fill: #678490;
      }

      .cls-4 {
        fill: #fd80a6;
      }

      .cls-5 {
        fill: #b1b9c6;
      }

      .cls-6 {
        fill: #91a2b5;
      }

      .cls-7 {
        fill: #605c5d;
      }
    </style>
  </defs>
  <g id="OBJECTS">
    <g>
      <path class="cls-4" d="M21.2,81.62l1.59.97.97-1.59c4.01-6.56,12.59-8.62,19.15-4.61h0c6.56,4.01,8.62,12.59,4.61,19.15l-5.31,8.68c-5.63,9.2-17.65,12.09-26.85,6.46l-8.68-5.31C.1,101.36-1.96,92.78,2.05,86.22h0c4.01-6.56,12.59-8.62,19.15-4.61Z"/>
      <path class="cls-1" d="M22.49,34.89l1.01.62.62-1.01c2.56-4.19,8.03-5.5,12.22-2.94h0c4.19,2.56,5.5,8.03,2.94,12.22l-3.39,5.54c-3.59,5.87-11.27,7.72-17.14,4.12l-5.54-3.39c-4.19-2.56-5.5-8.03-2.94-12.22h0c2.56-4.19,8.03-5.5,12.22-2.94Z"/>
      <path class="cls-1" d="M29.64,138.53l3.2-.3-.3-3.2c-1.24-13.26,8.5-25.01,21.76-26.25h0c13.26-1.24,25.01,8.5,26.25,21.76l1.96,20.95c1.56,16.71-10.72,31.52-27.43,33.09l-20.95,1.96c-13.26,1.24-25.01-8.5-26.25-21.76h0c-1.24-13.26,8.5-25.01,21.76-26.25Z"/>
      <path class="cls-5" d="M120.52,142.46c-13.62,0-25.99,3.79-35.11,9.95l-1.89-1.68c-24.31,16.31-41.98,46.92-30.26,58.63,5.36,5.36,20.1,2.28,33.65-4.17,8.95,5.59,20.72,8.99,33.61,8.99,28.04,0,50.77-16.05,50.77-35.86s-22.73-35.86-50.77-35.86Z"/>
      <g>
        <path class="cls-5" d="M214.35,5.37c-10.07-10.07-42.13,8.24-56.26,17.12-6.99-1.16-16.01-1.64-26.33-1.59-10.33-.05-19.35.43-26.34,1.59C91.29,13.61,59.23-4.69,49.17,5.37c-9.99,9.99,1.42,37.42,7.27,49.64-6.93,11.7-9.46,24.52-9.46,35.55,0,9.54,1.14,19.07,3.42,28.61,4.46,18.6,19.17,32.89,37.92,36.68,14.48,2.93,28.96,4.39,43.43,4.39s28.96-1.46,43.43-4.39c18.75-3.8,33.46-18.08,37.92-36.68,2.29-9.53,3.42-19.06,3.42-28.61,0-11.03-2.53-23.85-9.45-35.55,5.84-12.21,17.26-39.66,7.27-49.65Z"/>
        <g>
          <path class="cls-6" d="M142.01,27.71c0,15.8-4.6,28.59-10.24,28.59s-10.26-12.8-10.26-28.59c0-2.17.08-4.27.25-6.29,6.66-.3,13.33-.3,19.99.01.17,2.02.25,4.12.25,6.28Z"/>
          <g>
            <path class="cls-6" d="M120,22.52c0,15.78-4.58,28.59-10.24,28.59s-9.92-11.91-10.23-26.91c3.52-.92,7.16-1.57,10.89-1.95,3.19-.31,6.39-.57,9.58-.74.01.34.01.67.01,1Z"/>
            <path class="cls-6" d="M164,24.07c-.29,15.06-4.77,27.04-10.23,27.04s-10.24-12.81-10.24-28.59c0-.34,0-.67.01-1,3.66.19,7.34.5,11.01.88,3.23.34,6.39.91,9.46,1.67Z"/>
          </g>
        </g>
        <path class="cls-2" d="M202.56,29.67s1.63,3.7,1.9,7.85c.25,3.83-2.06,6.76-5.08,7.98-6.35-7.22-14.19-13.12-23.04-17.22.08-2.08.96-4.12,2.65-5.66,6.8-6.18,16.2-12.85,22.85-10.14,11.59,4.73.73,17.19.73,17.19Z"/>
        <path class="cls-2" d="M60.95,29.67s-1.63,3.7-1.9,7.85c-.25,3.83,2.06,6.76,5.08,7.98,6.35-7.22,14.19-13.12,23.04-17.22-.08-2.08-.96-4.12-2.65-5.66-6.8-6.18-16.2-12.85-22.85-10.14-11.59,4.73-.73,17.19-.73,17.19Z"/>
        <path class="cls-3" d="M216.04,3.67c-5.18-5.18-14.73-4.88-29.2.92-10.63,4.27-21.65,10.63-29.27,15.39-6.7-1.03-15.33-1.53-25.81-1.49-10.49-.05-19.13.45-25.84,1.49-7.63-4.76-18.66-11.13-29.28-15.39-14.46-5.8-24.01-6.1-29.19-.92-10.48,10.48-.87,36.09,6.26,51.22-7.73,13.63-9.14,27.44-9.14,35.68,0,9.7,1.17,19.51,3.49,29.17,2.3,9.58,7.23,18.24,14.27,25.06,3.83,3.71,8.19,6.77,12.92,9.11-15.15,12.44-26.71,29.86-27.99,43.03-.57,5.86.91,10.75,4.29,14.13,2.41,2.41,6.11,3.44,10.53,3.44,12.24,0,29.99-7.9,40.96-16.17,11.05-8.34,15.16-16.5,11.57-22.97-2.63-4.73-6.91-7.39-12.38-7.69-12.61-.7-27.92,10.87-31.39,15.75-.77,1.08-.52,2.58.56,3.35,1.08.77,2.58.52,3.35-.56,3.01-4.23,17.11-14.3,27.21-13.74,3.85.21,6.61,1.93,8.45,5.23,2.22,4-1.61,10.28-10.26,16.8-15.86,11.96-39.52,18.86-45.2,13.18-2.36-2.36-3.34-5.82-2.9-10.27,1.23-12.58,13.02-29.61,28.21-41.35,2.46.91,4.99,1.63,7.58,2.16,14.57,2.95,29.34,4.44,43.91,4.44,14.57,0,29.34-1.49,43.91-4.44,9.64-1.95,18.46-6.59,25.51-13.42,7.04-6.81,11.97-15.48,14.27-25.06,2.32-9.65,3.49-19.47,3.49-29.17,0-8.24-1.41-22.05-9.14-35.68,3.08-6.56,6.98-15.86,9.19-24.97,3.02-12.45,2.03-21.29-2.94-26.25ZM206.75,50.03c-2.1-3.05-4.55-6.06-7.41-8.95-.93-.94-2.45-.95-3.4-.02-.94.93-.95,2.45-.02,3.4,15.85,16.01,18.22,35.76,18.22,46.11,0,9.32-1.13,18.76-3.36,28.05-2.09,8.69-6.56,16.55-12.94,22.73-6.39,6.19-14.38,10.39-23.12,12.16-14.25,2.88-28.71,4.34-42.96,4.34-14.25,0-28.7-1.46-42.96-4.34-8.74-1.77-16.73-5.98-23.12-12.16-6.38-6.18-10.85-14.04-12.94-22.73-2.23-9.29-3.36-18.72-3.36-28.04,0-10.35,2.37-30.1,18.22-46.11.93-.94.93-2.46-.02-3.4-.94-.93-2.46-.93-3.4.02-2.87,2.89-5.31,5.9-7.42,8.95-9.55-21.18-11.79-37.09-5.91-42.96,5.68-5.68,23.93-.19,48.2,14.35-.07.02-.14.04-.21.06-4.45,1.27-8.72,2.81-12.67,4.59-1.21.54-1.75,1.97-1.2,3.17.54,1.21,1.97,1.75,3.18,1.2,3.75-1.68,7.79-3.15,12.02-4.35,6.74-1.91,17.36-2.85,31.6-2.79,14.22-.06,24.84.87,31.58,2.79,4.23,1.2,8.27,2.67,12.02,4.35.32.14.65.21.98.21.92,0,1.79-.53,2.19-1.42.54-1.21,0-2.63-1.2-3.17-3.96-1.78-8.22-3.32-12.67-4.59-.07-.02-.15-.04-.22-.06,24.27-14.54,42.51-20.04,48.2-14.34,5.87,5.87,3.63,21.78-5.9,42.96Z"/>
        <path class="cls-3" d="M143.42,118.42c-1.08,0-2.05-.73-2.33-1.82-.32-1.29.46-2.59,1.74-2.91,1.8-.45,3.05-2.07,3.05-3.93,0-2.23-1.82-4.05-4.05-4.05-1.33,0-2.4-1.08-2.4-2.4s1.08-2.4,2.4-2.4c2.23,0,4.05-1.82,4.05-4.05,0-1.86-1.26-3.47-3.05-3.92-1.29-.32-2.07-1.63-1.74-2.91.32-1.29,1.63-2.07,2.91-1.74,3.94.99,6.69,4.52,6.69,8.58,0,2.54-1.08,4.84-2.8,6.45,1.72,1.62,2.8,3.91,2.8,6.45,0,4.07-2.75,7.6-6.69,8.59-.2.05-.39.07-.59.07Z"/>
        <g>
          <g>
            <path class="cls-6" d="M202.64,114.28h-15.03c-1.33,0-2.4-1.08-2.4-2.4s1.08-2.4,2.4-2.4h15.03c1.33,0,2.4,1.08,2.4,2.4s-1.08,2.4-2.4,2.4Z"/>
            <path class="cls-6" d="M199.9,128.4c-.28,0-.56-.05-.83-.15l-12.29-4.55c-1.24-.46-1.88-1.84-1.42-3.09.46-1.24,1.84-1.88,3.09-1.42l12.29,4.55c1.24.46,1.88,1.84,1.42,3.09-.36.97-1.28,1.57-2.25,1.57Z"/>
          </g>
          <g>
            <path class="cls-6" d="M97.68,114.28h-15.03c-1.33,0-2.4-1.08-2.4-2.4s1.08-2.4,2.4-2.4h15.03c1.33,0,2.4,1.08,2.4,2.4s-1.08,2.4-2.4,2.4Z"/>
            <path class="cls-6" d="M85.38,128.4c-.98,0-1.89-.6-2.25-1.57-.46-1.24.17-2.63,1.42-3.09l12.29-4.55c1.24-.46,2.63.17,3.09,1.42.46,1.24-.17,2.63-1.42,3.09l-12.29,4.55c-.27.1-.56.15-.83.15Z"/>
          </g>
        </g>
        <g>
          <path class="cls-2" d="M172.53,79.26h-7.88c-1.33,0-2.4-1.08-2.4-2.4s1.08-2.4,2.4-2.4h7.88c1.33,0,2.4,1.08,2.4,2.4s-1.08,2.4-2.4,2.4Z"/>
          <path class="cls-2" d="M120.64,79.26h-7.88c-1.33,0-2.4-1.08-2.4-2.4s1.08-2.4,2.4-2.4h7.88c1.33,0,2.4,1.08,2.4,2.4s-1.08,2.4-2.4,2.4Z"/>
        </g>
        <g>
          <path class="cls-7" d="M115.34,98.43c-.61,0-1.23-.23-1.7-.7-4.58-4.58-12.04-4.58-16.62,0-.94.94-2.46.94-3.4,0-.94-.94-.94-2.46,0-3.4,6.45-6.45,16.96-6.45,23.41,0,.94.94.94,2.46,0,3.4-.47.47-1.08.7-1.7.7Z"/>
          <path class="cls-7" d="M189.96,98.43c-.61,0-1.23-.23-1.7-.7-4.58-4.58-12.04-4.58-16.62,0-.94.94-2.46.94-3.4,0-.94-.94-.94-2.46,0-3.4,6.45-6.45,16.96-6.45,23.41,0,.94.94.94,2.46,0,3.4-.47.47-1.08.7-1.7.7Z"/>
        </g>
        <path class="cls-4" d="M167.85,103.08l.82.72.72-.82c3-3.39,8.17-3.71,11.56-.71h0c3.39,3,3.71,8.17.71,11.56l-3.97,4.49c-4.2,4.75-11.46,5.2-16.21.99l-4.48-3.97c-3.39-3-3.71-8.17-.71-11.56h0c3-3.39,8.17-3.71,11.56-.71Z"/>
      </g>
      <g>
        <path class="cls-5" d="M193.35,142.93c-.73,6.18-6.39,8.52-11.31,9.37,0,8.62,19.92,39.52-.99,49.54-20.91,10.01-33.71-12.3-36.32-25.5l18.37-.56c-10.57-26.03-10.73-43.94,3.63-46.28,20.02-3.27,27.54,5.52,26.62,13.43Z"/>
        <path class="cls-3" d="M195.72,143.21c.49-4.21-1.03-8.34-4.18-11.35-3.61-3.45-10.91-7.07-25.2-4.73-4.91.8-8.53,3.22-10.75,7.18-4.59,8.19-2.82,22.45,5.29,42.38.38.93,1.28,1.5,2.23,1.5.3,0,.61-.06.9-.18,1.23-.5,1.82-1.9,1.32-3.13-7.31-17.99-9.28-31.57-5.55-38.22,1.49-2.66,3.89-4.23,7.34-4.79,9.63-1.57,17.13-.34,21.11,3.46,2.08,1.99,3.05,4.59,2.73,7.32-1.02,8.72-16.01,7.68-16.16,7.67-1.32-.1-2.48.88-2.58,2.21-.1,1.32.88,2.48,2.21,2.58.27.02,2.57.18,5.56-.11.52,2.37,1.58,5.3,2.82,8.73,5.62,15.54,9.64,29.97-2.79,35.93-5.99,2.87-11.62,3.02-16.75.45-6.09-3.05-13.75-11.94-16.18-24.25-.26-1.3-1.52-2.15-2.82-1.89-1.3.26-2.15,1.52-1.89,2.82,1.92,9.74,8.61,22.53,18.74,27.61,3.13,1.57,6.38,2.35,9.74,2.35,3.64,0,7.39-.92,11.24-2.76,7.67-3.68,11.34-10.31,10.89-19.71-.36-7.57-3.3-15.67-5.65-22.18-1.08-3-2.12-5.87-2.6-7.92,5.06-1.31,10.23-4.3,11.01-10.98Z"/>
      </g>
    </g>
  </g>
</svg>