<?xml version="1.0" encoding="UTF-8"?>
<svg id="Capa_2" xmlns="http://www.w3.org/2000/svg" viewBox="0 0 220.69 198.66">
  <defs>
    <style>
      .cls-1 {
        fill: #ffbf8c;
      }

      .cls-2 {
        fill: #ffa6ca;
      }

      .cls-3 {
        fill: #fff;
      }

      .cls-4 {
        fill: #678490;
      }

      .cls-5 {
        fill: #ff9d6f;
      }

      .cls-6 {
        fill: #fd80a6;
      }

      .cls-7 {
        fill: #b1b9c6;
      }

      .cls-8 {
        fill: #91a2b5;
      }

      .cls-9 {
        fill: #605c5d;
      }
    </style>
  </defs>
  <g id="OBJECTS">
    <g>
      <path class="cls-6" d="M36.11,48.33l1.46,1.73,1.73-1.46c7.16-6.02,17.84-5.11,23.86,2.05h0c6.02,7.16,5.11,17.84-2.05,23.86l-11.31,9.52c-9.02,7.59-22.49,6.44-30.08-2.58l-9.52-11.31c-6.02-7.16-5.11-17.84,2.05-23.86h0c7.16-6.02,17.84-5.11,23.86,2.05Z"/>
      <path class="cls-7" d="M124.61,120.11c.16,5.03,8.29,41.64-6.11,54.08,1.94,13.13-30.72,24.79-51.6,21.57-19.84-3.07-22.54-19.05-16.43-34.06l74.14-41.58Z"/>
      <path class="cls-1" d="M112.81,174.19c-8.31-12.42,20.09-32.56,20.09-32.56l46.9,17.68-1.4,22.13-26.92,6.48-38.67-13.74"/>
      <g>
        <path class="cls-7" d="M117.32,40.11c-8.37-5.47-27.78,11.74-36.21,19.88-4.97.21-11.24,1.18-18.34,2.7-7.11,1.46-13.24,3.08-17.88,4.89-10.99-4.07-35.68-12.03-41.15-3.67-5.43,8.31,6.37,25.53,12.16,33.08-3.08,9.04-2.97,18.22-1.38,25.81,1.38,6.56,3.53,12.95,6.48,19.17,5.75,12.15,17.92,19.85,31.36,19.76,10.38-.07,20.54-1.15,30.5-3.24,9.95-2.09,19.7-5.18,29.23-9.28,12.34-5.31,20.4-17.25,20.79-30.69.2-6.88-.39-13.6-1.77-20.16-1.59-7.59-5.17-16.03-11.62-23.08,2.26-9.24,6.16-29.75-2.16-35.19Z"/>
        <g>
          <path class="cls-8" d="M70.8,65.9c2.28,10.86.96,20.32-2.92,21.14-3.89.82-8.9-7.32-11.17-18.18-.31-1.49-.56-2.95-.73-4.36,4.54-1.17,9.12-2.13,13.75-2.87.41,1.36.77,2.8,1.08,4.28Z"/>
          <g>
            <path class="cls-8" d="M54.91,65.5c2.27,10.85.97,20.32-2.92,21.14-3.74.78-8.54-6.76-10.91-17.03,2.29-1.14,4.7-2.11,7.2-2.91,2.15-.68,4.31-1.31,6.48-1.89.06.23.1.46.15.69Z"/>
            <path class="cls-8" d="M85.39,60.23c1.97,10.4.62,19.28-3.14,20.07-3.89.82-8.89-7.33-11.16-18.18-.05-.23-.1-.46-.14-.69,2.55-.4,5.12-.72,7.69-.98,2.27-.23,4.52-.3,6.74-.22Z"/>
          </g>
        </g>
        <path class="cls-3" d="M112.71,58.52s1.66,2.31,2.44,5.12c.73,2.6-.44,4.94-2.34,6.22-5.41-4.05-11.65-6.98-18.32-8.52-.24-1.44.06-2.97,1.01-4.27,3.78-5.23,9.28-11.17,14.25-10.26,8.65,1.58,2.98,11.71,2.98,11.71Z"/>
        <path class="cls-3" d="M15.35,78.93s-.59,2.78-.17,5.67c.38,2.67,2.39,4.35,4.64,4.76,3.33-5.88,7.86-11.07,13.36-15.16-.36-1.42-1.25-2.7-2.64-3.51-5.56-3.27-12.99-6.5-17.17-3.68-7.29,4.92,1.98,11.92,1.98,11.92Z"/>
        <path class="cls-4" d="M133.42,97.89c-1.19-5.68-4.14-14.96-11.35-23.26,1.16-4.96,2.45-11.8,2.66-18.28.29-9.25-1.77-15.39-6.12-18.23-8.87-5.8-25.71,7.27-38.52,19.54-4.75.28-10.71,1.18-17.8,2.7-7.12,1.46-12.95,3.03-17.42,4.69-16.67-6.1-37.33-11.3-43.12-2.44-5.87,8.98,4.32,25.26,11.5,34.82-3.27,10.5-2.25,20.18-1.06,25.86,1.41,6.72,3.65,13.35,6.65,19.7,6.08,12.85,19.12,21.12,33.28,21.12.08,0,.16,0,.24,0,10.49-.07,20.9-1.18,30.97-3.29,10.06-2.11,20.05-5.28,29.68-9.42,13.09-5.63,21.81-18.51,22.22-32.8.2-7.02-.41-13.99-1.82-20.72ZM130.49,118.47c-.36,12.45-7.95,23.67-19.35,28.57-9.34,4.02-19.03,7.09-28.78,9.13-9.75,2.04-19.86,3.12-30.02,3.19-.07,0-.14,0-.21,0-12.32,0-23.68-7.2-28.98-18.4-2.85-6.01-4.96-12.29-6.3-18.65-1.47-7.01-2.67-20.73,5.78-33.81.71-1.1.4-2.57-.71-3.29-1.1-.71-2.57-.4-3.29.71-1.33,2.07-2.45,4.14-3.38,6.21-8.8-12.33-12.44-22.47-9.53-26.92,2.79-4.27,15.46-3.17,32.92,2.69-2.44,1.35-4.75,2.8-6.88,4.35-1.06.77-1.29,2.26-.52,3.32.47.64,1.19.98,1.92.98.48,0,.97-.15,1.4-.46,2.3-1.68,4.84-3.25,7.55-4.67,4.3-2.26,11.41-4.41,21.15-6.41,9.7-2.08,17.07-2.96,21.92-2.62,3.05.22,6.01.64,8.79,1.25,1.28.28,2.55-.53,2.83-1.81.28-1.28-.53-2.55-1.81-2.83-2.57-.56-5.28-.97-8.05-1.22,13.63-12.37,24.8-18.47,29.07-15.68,4.44,2.9,5.18,13.65,2.09,28.48-1.68-1.52-3.53-2.97-5.59-4.33-1.09-.72-2.57-.42-3.29.67-.72,1.09-.42,2.57.67,3.29,13,8.59,17.4,21.63,18.87,28.65,1.33,6.36,1.91,12.95,1.72,19.6Z"/>
        <path class="cls-4" d="M82.83,129.14c-.88,0-1.73-.49-2.14-1.34-.57-1.18-.08-2.6,1.1-3.18.89-.43,1.36-1.41,1.16-2.38-.12-.56-.45-1.05-.93-1.36-.48-.31-1.06-.42-1.62-.31-1.28.27-2.54-.55-2.81-1.84-.03-.16-.05-.33-.05-.49,0-1.1.77-2.09,1.89-2.32,1.16-.24,1.91-1.39,1.67-2.55-.2-.97-1.03-1.67-2.02-1.71-1.31-.05-2.33-1.16-2.28-2.47.05-1.31,1.14-2.34,2.47-2.28,3.17.12,5.83,2.38,6.48,5.48.36,1.7.05,3.38-.73,4.78,1.33,1.01,2.25,2.44,2.59,4.09.65,3.11-.88,6.24-3.73,7.63-.33.16-.69.24-1.04.24Z"/>
        <g>
          <path class="cls-8" d="M42.11,134.7c-1.1,0-2.09-.77-2.32-1.89-.27-1.28.55-2.54,1.84-2.81l10.33-2.17c1.28-.27,2.54.55,2.81,1.84.27,1.28-.55,2.54-1.84,2.81l-10.33,2.17c-.16.03-.33.05-.49.05Z"/>
          <path class="cls-8" d="M46.03,144.01c-.79,0-1.56-.39-2.01-1.11-.7-1.11-.36-2.58.75-3.28l7.8-4.9c1.11-.7,2.58-.36,3.28.75.7,1.11.36,2.58-.75,3.28l-7.8,4.9c-.39.25-.83.36-1.26.36Z"/>
        </g>
        <g>
          <path class="cls-3" d="M93.44,98.81c-1.1,0-2.09-.77-2.32-1.89-.27-1.28.55-2.54,1.84-2.81l5.42-1.14c1.28-.27,2.54.55,2.81,1.84.27,1.28-.55,2.54-1.84,2.81l-5.42,1.14c-.16.03-.33.05-.49.05Z"/>
          <path class="cls-3" d="M57.76,106.28c-1.1,0-2.09-.77-2.32-1.89-.27-1.28.55-2.54,1.84-2.81l5.42-1.14c1.28-.27,2.54.55,2.81,1.84.27,1.28-.55,2.54-1.84,2.81l-5.42,1.14c-.16.03-.33.05-.49.05Z"/>
        </g>
        <path class="cls-9" d="M48.54,121.97c-.45,0-.9-.13-1.3-.39-1.1-.72-1.41-2.19-.69-3.29,3.72-5.69,11.36-7.29,17.05-3.57,1.1.72,1.41,2.19.69,3.29-.72,1.1-2.19,1.41-3.29.69-3.49-2.28-8.19-1.3-10.47,2.19-.46.7-1.22,1.08-1.99,1.08Z"/>
      </g>
      <path class="cls-5" d="M112.81,176.57c-.77,0-1.52-.37-1.98-1.06-2.85-4.25-3.91-11.84,7.15-23.87,6.16-6.69,13.24-11.74,13.54-11.95,1.07-.76,2.55-.51,3.31.56.76,1.07.51,2.55-.56,3.31-.07.05-7.01,5-12.83,11.34-4.93,5.37-10.09,12.84-6.66,17.96.73,1.09.44,2.57-.65,3.3-.41.27-.86.4-1.32.4Z"/>
      <path class="cls-1" d="M164.41,195.76c-20.89,3.22-53.54-8.44-51.61-21.57,1.94-13.12,35.12-7.42,46.15,3.61l20.85-18.48c7.39,15.66,5.49,33.21-15.39,36.43Z"/>
      <path class="cls-5" d="M156.95,198.66c-15.46,0-33.87-5.82-42.04-13.94-4.36-4.33-4.83-8.31-4.45-10.88.41-2.76,2.11-6.46,7.93-8.38,11.53-3.82,33.25,1.66,42.25,10.66.93.93.93,2.43,0,3.36-.93.93-2.43.93-3.36,0-7.68-7.68-27.6-12.75-37.39-9.51-4.25,1.41-4.6,3.78-4.72,4.57-.32,2.16.72,4.45,3.1,6.81,8.56,8.51,30.82,14.36,45.79,12.05,7.48-1.15,12.63-4.27,15.28-9.26,3.22-6.05,2.61-14.73-1.67-23.81-.56-1.19,3.74-3.21,4.3-2.03,4.93,10.44,5.5,20.67,1.57,28.06-3.35,6.3-9.83,10.35-18.75,11.73-2.47.38-5.1.56-7.83.56Z"/>
      <path class="cls-2" d="M145.96,13.79l1.14,1.61,1.61-1.14c6.68-4.7,15.9-3.1,20.6,3.58h0c4.7,6.68,3.1,15.9-3.58,20.6l-8.84,6.22c-9.36,6.59-22.3,4.35-28.89-5.02l-6.22-8.84c-4.7-6.68-3.1-15.9,3.58-20.6h0c6.68-4.7,15.9-3.1,20.6,3.58Z"/>
      <path class="cls-6" d="M78.59,16.67l1.11.68.68-1.11c2.82-4.61,8.84-6.06,13.45-3.24h0c4.61,2.82,6.06,8.84,3.24,13.45l-3.73,6.1c-3.96,6.46-12.4,8.49-18.86,4.54l-6.1-3.73c-4.61-2.82-6.06-8.84-3.24-13.45h0c2.82-4.61,8.84-6.06,13.45-3.24Z"/>
      <path class="cls-2" d="M109.61,3.26l.71.44.44-.71c1.8-2.94,5.64-3.87,8.58-2.07h0c2.94,1.8,3.87,5.64,2.07,8.58l-2.38,3.89c-2.52,4.12-7.91,5.42-12.04,2.9l-3.89-2.38c-2.94-1.8-3.87-5.64-2.07-8.58h0c1.8-2.94,5.64-3.87,8.58-2.07Z"/>
      <path class="cls-2" d="M83.6,51.09l.78.48.48-.78c1.98-3.24,6.22-4.26,9.46-2.28h0c3.24,1.98,4.26,6.22,2.28,9.46l-2.62,4.29c-2.78,4.54-8.72,5.97-13.26,3.19l-4.29-2.62c-3.24-1.98-4.26-6.22-2.28-9.46h0c1.98-3.24,6.22-4.26,9.46-2.28Z"/>
      <g>
        <path class="cls-1" d="M106.85,45.6c7.9-5.51,27.08,10.49,35.43,18.08,4.79.06,10.85.81,17.72,2.07,6.88,1.2,12.83,2.59,17.35,4.19,10.46-4.24,33.99-12.61,39.49-4.72,5.47,7.84-5.39,24.75-10.74,32.19,3.22,8.62,3.39,17.45,2.08,24.8-1.13,6.35-3.02,12.57-5.68,18.64-5.18,11.86-16.67,19.62-29.61,19.92-9.99.23-19.8-.52-29.44-2.24-9.64-1.72-19.11-4.41-28.4-8.08-12.03-4.76-20.13-16.01-20.89-28.93-.39-6.62-.02-13.1,1.12-19.45,1.31-7.35,4.52-15.58,10.52-22.55-2.44-8.82-6.79-28.46,1.06-33.93Z"/>
        <path class="cls-3" d="M111.82,63.18s-1.53,2.27-2.2,5c-.62,2.52.57,4.75,2.43,5.92,5.09-4.05,11.01-7.05,17.39-8.73.19-1.4-.15-2.86-1.09-4.08-3.79-4.92-9.26-10.48-14.01-9.46-8.28,1.77-2.52,11.36-2.52,11.36Z"/>
        <path class="cls-3" d="M206.11,80s.65,2.66.33,5.45c-.29,2.58-2.17,4.26-4.33,4.71-3.37-5.56-7.89-10.42-13.3-14.21.3-1.38,1.13-2.63,2.44-3.45,5.26-3.31,12.31-6.63,16.42-4.04,7.15,4.53-1.56,11.53-1.56,11.53Z"/>
        <path class="cls-5" d="M218.8,63.86c-5.86-8.4-25.62-2.81-41.51,3.55-4.35-1.46-9.99-2.8-16.86-4-6.87-1.26-12.63-1.95-17.21-2.08-12.71-11.46-29.31-23.54-37.72-17.68-4.13,2.88-5.94,8.87-5.4,17.8.38,6.23,1.82,12.75,3.08,17.49-6.69,8.2-9.26,17.21-10.24,22.72-1.16,6.52-1.55,13.25-1.15,20.01.81,13.78,9.6,25.95,22.39,31,9.4,3.71,19.1,6.47,28.86,8.21,8.62,1.54,17.47,2.31,26.39,2.31,1.18,0,2.35-.01,3.53-.04,13.75-.32,26.2-8.7,31.73-21.35,2.71-6.21,4.68-12.66,5.84-19.18.98-5.5,1.68-14.85-1.75-24.86,6.65-9.44,15.96-25.41,10.03-33.91ZM205.84,121.8c-1.1,6.15-2.95,12.24-5.52,18.11-4.79,10.96-15.58,18.22-27.48,18.5-9.78.23-19.53-.51-28.97-2.2-9.44-1.68-18.84-4.36-27.95-7.95-11.08-4.38-18.69-14.92-19.39-26.86-.38-6.39-.01-12.75,1.09-18.9,1.21-6.78,5.06-19.43,17.3-28.06,1.07-.76,1.33-2.24.57-3.31-.76-1.07-2.24-1.33-3.31-.57-1.89,1.33-3.6,2.76-5.15,4.23-3.36-14.07-2.96-24.34,1.18-27.23,3.98-2.78,14.8,2.71,28.17,14.11-2.6.32-5.13.78-7.53,1.39-1.27.32-2.04,1.61-1.73,2.88.32,1.27,1.61,2.05,2.88,1.73,2.66-.67,5.49-1.16,8.41-1.45,4.64-.47,11.76.17,21.17,1.89,9.4,1.63,16.3,3.5,20.5,5.54,2.64,1.29,5.13,2.72,7.39,4.27.41.28.88.41,1.34.41.76,0,1.5-.36,1.96-1.04.74-1.08.46-2.56-.62-3.3-2.04-1.4-4.25-2.7-6.58-3.9,16.5-6.07,28.54-7.48,31.31-3.5,2.9,4.16-.28,13.93-8.31,25.96-.94-1.92-2.05-3.85-3.37-5.75-.75-1.08-2.23-1.35-3.3-.61-1.08.74-1.35,2.22-.61,3.3,8.5,12.32,7.74,25.53,6.53,32.31Z"/>
        <path class="cls-5" d="M138.45,129.65c-.33,0-.66-.07-.97-.21-2.82-1.27-4.41-4.28-3.87-7.33.29-1.64,1.16-3.03,2.35-4.01-.78-1.33-1.11-2.94-.82-4.58.54-3.05,3.08-5.32,6.16-5.54,1.3-.1,2.44.9,2.53,2.21.09,1.31-.9,2.44-2.21,2.54-.91.06-1.65.73-1.81,1.63-.19,1.08.53,2.11,1.61,2.31,1.15.2,1.96,1.21,1.96,2.34,0,.14-.01.28-.04.42-.23,1.29-1.47,2.15-2.76,1.92-.52-.09-1.05.02-1.48.33-.44.3-.73.76-.82,1.28-.16.9.31,1.79,1.14,2.16,1.2.54,1.73,1.94,1.19,3.14-.4.88-1.26,1.4-2.17,1.4Z"/>
        <g>
          <g>
            <path class="cls-5" d="M112.01,122.08c-.14,0-.28-.01-.42-.04l-10.01-1.78c-1.29-.23-2.15-1.46-1.92-2.76.23-1.29,1.47-2.15,2.76-1.92l10.01,1.78c1.29.23,2.15,1.46,1.92,2.76-.2,1.15-1.21,1.96-2.34,1.96Z"/>
            <path class="cls-5" d="M102.14,130.02c-1.13,0-2.13-.81-2.34-1.96-.23-1.29.63-2.53,1.92-2.76l8.73-1.57c1.29-.23,2.53.63,2.76,1.92.23,1.29-.63,2.53-1.92,2.76l-8.73,1.57c-.14.03-.28.04-.42.04Z"/>
          </g>
          <g>
            <path class="cls-5" d="M181.9,134.55c-.14,0-.28-.01-.42-.04l-10.01-1.78c-1.29-.23-2.15-1.46-1.92-2.76.23-1.29,1.46-2.15,2.76-1.92l10.01,1.78c1.29.23,2.15,1.46,1.92,2.76-.21,1.15-1.21,1.96-2.34,1.96Z"/>
            <path class="cls-5" d="M178.4,143.62c-.41,0-.82-.11-1.2-.33l-7.65-4.49c-1.13-.66-1.51-2.12-.85-3.25.66-1.13,2.12-1.51,3.25-.85l7.65,4.49c1.13.66,1.51,2.12.84,3.25-.44.75-1.24,1.17-2.05,1.17Z"/>
          </g>
        </g>
        <g>
          <path class="cls-3" d="M131.46,101.49c-.14,0-.28-.01-.42-.04l-5.25-.94c-1.29-.23-2.15-1.46-1.92-2.76.23-1.29,1.47-2.15,2.76-1.92l5.25.94c1.29.23,2.15,1.46,1.92,2.76-.21,1.15-1.21,1.96-2.34,1.96Z"/>
          <path class="cls-3" d="M166.01,107.65c-.14,0-.28-.01-.42-.04l-5.25-.94c-1.29-.23-2.15-1.46-1.92-2.76.23-1.29,1.47-2.15,2.76-1.92l5.25.94c1.29.23,2.15,1.46,1.92,2.76-.21,1.15-1.21,1.96-2.34,1.96Z"/>
        </g>
        <g>
          <path class="cls-9" d="M175.34,122.48c-.75,0-1.49-.35-1.95-1.02-2.27-3.25-6.76-4.06-10.02-1.79-1.08.75-2.56.49-3.31-.59-.75-1.08-.49-2.56.59-3.31,2.62-1.83,5.79-2.52,8.93-1.96,3.14.56,5.88,2.31,7.7,4.93.75,1.08.49,2.56-.59,3.31-.41.29-.89.43-1.36.43Z"/>
          <path class="cls-9" d="M125.65,113.62c-.75,0-1.49-.35-1.95-1.02-2.27-3.25-6.76-4.06-10.02-1.79-1.08.75-2.56.49-3.31-.59-.75-1.08-.49-2.56.59-3.31,5.4-3.77,12.87-2.44,16.63,2.97.75,1.08.49,2.56-.59,3.31-.41.29-.89.43-1.36.43Z"/>
        </g>
      </g>
      <path class="cls-7" d="M66.9,195.76l5.45-17.95c11.04-11.03,44.22-16.73,46.15-3.61,1.94,13.13-30.72,24.79-51.6,21.57Z"/>
      <path class="cls-4" d="M74.37,198.66c-2.72,0-5.36-.18-7.83-.56-8.69-1.34-15.08-5.24-18.49-11.26-3.9-6.88-3.82-16.13.22-26.05.5-1.22,4.9.58,4.4,1.79-3.43,8.42-3.61,16.41-.49,21.92,2.71,4.78,7.78,7.78,15.08,8.9,14.97,2.31,37.23-3.55,45.79-12.06,2.37-2.36,3.41-4.65,3.09-6.81-.11-.78-.46-3.15-4.71-4.56-9.79-3.24-29.71,1.82-37.4,9.51-.93.93-2.43.93-3.36,0-.93-.93-.93-2.43,0-3.36,9.01-9,30.73-14.48,42.26-10.66,5.81,1.93,7.51,5.62,7.92,8.38.38,2.57-.08,6.54-4.45,10.87-8.17,8.12-26.58,13.94-42.04,13.95Z"/>
      <path class="cls-6" d="M174.14,50.62l.9,1.12,1.12-.9c4.62-3.73,11.4-3.01,15.13,1.61h0c3.73,4.62,3.01,11.4-1.61,15.13l-6.12,4.94c-6.48,5.24-15.99,4.22-21.22-2.26l-4.94-6.12c-3.73-4.62-3.01-11.4,1.61-15.13h0c4.62-3.73,11.4-3.01,15.13,1.61Z"/>
    </g>
  </g>
</svg>