<?xml version="1.0" encoding="UTF-8"?>
<svg id="Capa_2" xmlns="http://www.w3.org/2000/svg" viewBox="0 0 178.96 220.69">
  <defs>
    <style>
      .cls-1 {
        fill: #ffa6ca;
      }

      .cls-2 {
        fill: #fff;
      }

      .cls-3 {
        fill: #678490;
      }

      .cls-4 {
        fill: #65e1e9;
      }

      .cls-5 {
        fill: #00d4d7;
      }

      .cls-6 {
        fill: #fd80a6;
      }

      .cls-7 {
        fill: #b1b9c6;
      }

      .cls-8 {
        fill: #91a2b5;
      }

      .cls-9 {
        fill: #777677;
      }

      .cls-10 {
        fill: #605c5d;
      }
    </style>
  </defs>
  <g id="OBJECTS">
    <g>
      <g>
        <path class="cls-7" d="M148.3,17.96c-7.48-9.16-35.51,3.3-47.92,9.46-5.68-1.54-13.09-2.69-21.63-3.51-8.53-.9-16.03-1.26-21.9-.88C45.91,14.51,20.93-3.28,11.78,4.19c-9.09,7.43-1.95,31.05,1.88,41.64-6.7,9.09-9.86,19.48-10.78,28.6-.8,7.89-.65,15.86.44,23.93,2.14,15.75,13.1,28.78,28.28,33.48,3.22,1,6.44,1.9,9.68,2.71h0c-20.91,15.13-27.45,31.16-18.14,40.47,2.11,2.11,5.27,3.84,8.98,5.16.46,12.6,12.55,22.7,27.41,22.7s27.43-10.49,27.43-23.44c0-9.05-6.01-16.9-14.81-20.81.27-6.08.61-12.83.94-19.04,10.02.67,20.12.51,30.3-.51,15.81-1.58,29.16-12.16,34.4-27.16,2.68-7.69,4.42-15.47,5.21-23.36.92-9.12-.1-19.92-4.85-30.17,5.85-9.6,17.57-31.34,10.15-40.43Z"/>
        <g>
          <path class="cls-8" d="M86.65,30.39c-1.32,13.06-6.18,23.25-10.85,22.78-4.68-.47-7.41-11.43-6.09-24.49.18-1.79.43-3.52.73-5.18,5.53.31,11.04.86,16.52,1.68-.03,1.68-.13,3.43-.31,5.21Z"/>
          <g>
            <path class="cls-8" d="M68.89,24.27c-1.32,13.05-6.17,23.25-10.85,22.78-4.5-.45-7.2-10.67-6.21-23.1,2.99-.47,6.05-.7,9.16-.7,2.67,0,5.33.06,7.98.19-.02.28-.05.55-.07.83Z"/>
            <path class="cls-8" d="M105.13,29.22c-1.5,12.42-6.19,21.96-10.71,21.5-4.68-.47-7.4-11.44-6.08-24.49.03-.28.06-.55.09-.83,3.01.47,6.03,1.02,9.02,1.65,2.64.55,5.2,1.28,7.68,2.17Z"/>
          </g>
        </g>
        <path class="cls-2" d="M136.53,37.06s1.04,3.2.92,6.65c-.11,3.19-2.26,5.42-4.86,6.17-4.65-6.5-10.63-12.03-17.61-16.16.24-1.71,1.13-3.33,2.66-4.46,6.13-4.54,14.46-9.27,19.73-6.47,9.18,4.87-.83,14.27-.83,14.27Z"/>
        <path class="cls-2" d="M19.5,25.26s-1.66,2.92-2.22,6.33c-.53,3.15,1.14,5.76,3.53,7.02,5.85-5.44,12.82-9.66,20.48-12.31.1-1.73-.45-3.49-1.72-4.9-5.1-5.67-12.31-11.97-18.04-10.28-9.97,2.94-2.03,14.14-2.03,14.14Z"/>
        <path class="cls-3" d="M150.14,16.45c-3.96-4.84-12.01-5.43-24.61-1.79-9.11,2.63-18.71,6.94-25.41,10.24-5.45-1.4-12.52-2.53-21.13-3.35-8.61-.91-15.77-1.22-21.4-.93-5.92-4.58-14.47-10.72-22.86-15.11C23.12-.57,15.12-1.61,10.27,2.35c-9.67,7.9-3.93,29.87.72,43.09C3.52,56.08,1.2,67.37.51,74.19c-.81,8.05-.66,16.28.45,24.49,2.25,16.59,14,30.49,29.93,35.43,11.82,3.66,23.93,6.13,36,7.34,6.02.61,12.11.91,18.24.91s12.33-.31,18.5-.92c16.59-1.65,30.88-12.94,36.4-28.74,2.73-7.81,4.52-15.85,5.33-23.9.69-6.82.67-18.34-4.53-30.26,7.19-12.03,17.19-32.42,9.3-42.08ZM140.64,88.32c-.77,7.68-2.49,15.35-5.09,22.81-4.91,14.07-17.63,24.11-32.39,25.58-12,1.19-24.04,1.19-35.79,0-11.75-1.18-23.55-3.59-35.07-7.15-14.17-4.39-24.63-16.77-26.63-31.53-1.06-7.83-1.21-15.69-.44-23.37.86-8.49,4.43-24.51,18.76-36.34,1.01-.84,1.15-2.33.32-3.34-.83-1.01-2.33-1.15-3.34-.32-2.44,2.01-4.59,4.13-6.49,6.31-5.88-17.81-6.37-30.73-1.21-34.94,4.97-4.06,19.12,1.81,37.48,15.37-3.56.67-7,1.54-10.23,2.62-1.24.42-1.92,1.76-1.5,3,.41,1.24,1.76,1.92,3,1.5,3.22-1.07,6.66-1.94,10.24-2.58,5.69-1.01,14.52-.9,26.25.33,11.72,1.13,20.39,2.78,25.76,4.91,3.38,1.34,6.58,2.88,9.52,4.57.37.22.78.32,1.18.32.82,0,1.62-.43,2.06-1.19.66-1.14.27-2.59-.87-3.24-2.95-1.7-6.14-3.25-9.5-4.61,20.69-9.62,35.72-12.55,39.78-7.57,4.21,5.15,1.15,17.72-8.16,34-1.43-2.52-3.11-5.02-5.09-7.48-.82-1.02-2.32-1.18-3.34-.35-1.02.82-1.18,2.32-.35,3.34,11.68,14.45,11.99,30.86,11.13,39.35Z"/>
        <g>
          <path class="cls-10" d="M114.74,93.23c.54-5.32-2.55-9.99-6.89-10.43-4.34-.44-8.29,3.52-8.83,8.84s2.55,9.99,6.89,10.43c4.34.44,8.29-3.52,8.83-8.84Z"/>
          <path class="cls-10" d="M55.35,87.24c.54-5.32-2.55-9.99-6.89-10.43-4.34-.44-8.29,3.52-8.83,8.84s2.55,9.99,6.89,10.43c4.34.44,8.29-3.52,8.83-8.84Z"/>
        </g>
        <g>
          <g>
            <path class="cls-8" d="M125.45,109.99c-.08,0-.16,0-.24-.01l-12.42-1.25c-1.31-.13-2.26-1.3-2.12-2.6.13-1.31,1.3-2.26,2.6-2.12l12.42,1.25c1.31.13,2.26,1.3,2.12,2.6-.12,1.22-1.16,2.14-2.36,2.14Z"/>
            <path class="cls-8" d="M122.01,121.43c-.35,0-.71-.08-1.04-.24l-9.78-4.79c-1.18-.58-1.67-2-1.09-3.18.58-1.18,2-1.67,3.18-1.09l9.78,4.79c1.18.58,1.67,2,1.09,3.18-.41.84-1.26,1.33-2.13,1.33Z"/>
          </g>
          <g>
            <path class="cls-8" d="M38.7,101.24c-.08,0-.16,0-.24-.01l-12.42-1.25c-1.31-.13-2.26-1.3-2.12-2.6.13-1.31,1.3-2.26,2.6-2.12l12.42,1.25c1.31.13,2.26,1.3,2.12,2.6-.12,1.22-1.16,2.14-2.36,2.14Z"/>
            <path class="cls-8" d="M27.36,111.88c-1.06,0-2.02-.71-2.3-1.78-.33-1.27.43-2.57,1.7-2.9l10.54-2.74c1.27-.33,2.57.43,2.9,1.7.33,1.27-.43,2.57-1.7,2.9l-10.54,2.74c-.2.05-.4.08-.6.08Z"/>
          </g>
        </g>
        <g>
          <path class="cls-2" d="M104.84,65.11c-.08,0-.16,0-.24-.01l-6.52-.66c-1.31-.13-2.26-1.3-2.12-2.6.13-1.31,1.3-2.26,2.6-2.12l6.52.66c1.31.13,2.26,1.3,2.12,2.6-.12,1.22-1.16,2.14-2.36,2.14Z"/>
          <path class="cls-2" d="M61.95,60.78c-.08,0-.16,0-.24-.01l-6.52-.66c-1.31-.13-2.26-1.3-2.12-2.6.13-1.31,1.3-2.26,2.6-2.12l6.52.66c1.31.13,2.26,1.3,2.12,2.6-.12,1.22-1.16,2.14-2.36,2.14Z"/>
        </g>
        <path class="cls-3" d="M88.64,105.95c-.53,5.3-3.84,9.61-8.22,11.47-1.89.82-3.99,1.17-6.16.95-7.17-.72-12.37-7.46-11.6-15.04.02-.16.03-.32.06-.48.96-7.14,6.82-7.95,13.84-7.24,7.17.72,12.84,2.75,12.08,10.34Z"/>
        <path class="cls-6" d="M80.43,117.43c-1.89.82-3.99,1.17-6.16.95-7.17-.72-12.37-7.46-11.6-15.04.02-.16.03-.32.06-.48,3.19-1.42,6.86-1.57,10.22-.12,5.64,2.43,8.6,8.59,7.48,14.69Z"/>
        <path class="cls-3" d="M86.94,96.26c-1.9-1.32-4.35-2.19-7.78-2.71l.34-3.38,1.12.11c.08,0,.16.01.24.01,1.2,0,2.24-.91,2.36-2.14.13-1.31-.82-2.47-2.12-2.6l-6.98-.7c-1.3-.13-2.47.82-2.6,2.12-.13,1.31.82,2.47,2.12,2.6l1.12.11-.34,3.38c-3.46-.17-6.04.19-8.16,1.11-3.51,1.52-5.52,4.52-5.97,8.92-.89,8.88,5.26,16.79,13.72,17.65.5.05,1.01.08,1.51.08,3.59,0,7.05-1.3,9.87-3.74,3.17-2.75,5.16-6.61,5.59-10.89.44-4.4-.92-7.74-4.07-9.93ZM86.28,105.72c-.31,3.06-1.72,5.82-3.97,7.77-2.21,1.92-4.98,2.81-7.79,2.53-5.86-.59-10.11-6.17-9.47-12.44.34-3.41,1.85-4.48,3.12-5.04,1.17-.51,2.71-.76,4.71-.76,1.02,0,2.17.07,3.46.2,3.8.38,6.31,1.08,7.89,2.18,1.14.79,2.4,2.14,2.06,5.56Z"/>
      </g>
      <g>
        <path class="cls-9" d="M51.49,149.67l43.29-17.33c3.47-1.39,7.33-1.39,10.8,0l43.29,17.33-20.62,30.19-58.88,2.32-17.89-32.51Z"/>
        <path class="cls-5" d="M52.37,151.87l-1.77-4.41,43.29-17.33c4.05-1.62,8.51-1.62,12.57,0l43.28,17.33-1.77,4.41-43.28-17.33c-2.91-1.17-6.12-1.17-9.04,0l-43.29,17.33Z"/>
        <g>
          <path class="cls-1" d="M99.34,142.38l1.87.67.67-1.87c2.75-7.74,11.26-11.79,19.01-9.04h0c7.74,2.75,11.79,11.26,9.04,19.01l-3.64,10.25c-3.86,10.86-15.79,16.54-26.66,12.68l-10.25-3.64c-7.74-2.75-11.79-11.26-9.04-19.01h0c2.75-7.74,11.26-11.79,19.01-9.04Z"/>
          <path class="cls-6" d="M106.63,177.66c-2.62,0-5.25-.45-7.8-1.35l-10.25-3.64c-4.34-1.54-7.83-4.69-9.81-8.85-1.98-4.16-2.22-8.85-.68-13.19,1.54-4.34,4.69-7.83,8.85-9.81,4.05-1.93,8.59-2.21,12.83-.8,1.59-4.18,4.67-7.52,8.72-9.45,4.16-1.98,8.85-2.22,13.19-.68,4.34,1.54,7.83,4.69,9.81,8.85,1.98,4.16,2.22,8.85.68,13.19l-3.64,10.25c-2.08,5.85-6.31,10.54-11.92,13.21-3.17,1.51-6.56,2.27-9.97,2.27ZM94.35,143.89c-1.83,0-3.66.41-5.36,1.22-3.02,1.44-5.29,3.96-6.41,7.11-1.12,3.15-.94,6.54.49,9.56,1.43,3.02,3.96,5.29,7.11,6.41l10.25,3.64c4.65,1.65,9.68,1.4,14.14-.73,4.46-2.12,7.83-5.85,9.48-10.51l3.64-10.25c1.12-3.15.94-6.54-.49-9.56-1.43-3.02-3.96-5.29-7.11-6.41-6.5-2.31-13.66,1.1-15.97,7.6l-1.46,4.11-4.11-1.46c-1.37-.49-2.78-.73-4.2-.73Z"/>
        </g>
        <g>
          <path class="cls-1" d="M142.69,95.68l.9,1.44,1.44-.9c5.97-3.74,13.84-1.93,17.58,4.04h0c3.74,5.97,1.93,13.85-4.04,17.58l-7.91,4.95c-8.38,5.24-19.42,2.71-24.66-5.67l-4.95-7.91c-3.74-5.97-1.93-13.84,4.04-17.58h0c5.97-3.74,13.85-1.93,17.58,4.04Z"/>
          <path class="cls-6" d="M141.22,127.91c-1.52,0-3.06-.17-4.58-.52-5.28-1.21-9.76-4.41-12.64-9l-4.95-7.91c-4.43-7.07-2.28-16.43,4.8-20.86,6.89-4.31,15.94-2.39,20.5,4.25,7-3.97,15.98-1.75,20.29,5.13,4.43,7.07,2.28,16.43-4.8,20.86l-7.91,4.95c-3.27,2.04-6.96,3.1-10.72,3.1ZM131.86,92.07c-1.88,0-3.78.51-5.49,1.58-4.85,3.04-6.33,9.46-3.29,14.31l4.95,7.91c2.2,3.51,5.64,5.96,9.68,6.89,4.04.93,8.2.23,11.71-1.97l7.91-4.95c4.85-3.04,6.33-9.46,3.29-14.31-3.04-4.85-9.46-6.33-14.31-3.29l-3.46,2.16-2.16-3.46c-1.97-3.14-5.36-4.87-8.82-4.87Z"/>
        </g>
        <g>
          <path class="cls-1" d="M110.67,54.22l1.07.68.68-1.07c2.8-4.43,8.67-5.76,13.1-2.95h0c4.43,2.8,5.76,8.67,2.95,13.11l-3.71,5.87c-3.93,6.22-12.16,8.07-18.38,4.14l-5.87-3.71c-4.43-2.8-5.76-8.67-2.95-13.1h0c2.8-4.43,8.67-5.76,13.1-2.95Z"/>
          <path class="cls-6" d="M113.48,78.42c-2.87,0-5.77-.78-8.36-2.43l-5.87-3.71c-2.68-1.69-4.54-4.33-5.24-7.43-.7-3.09-.15-6.27,1.55-8.96,1.69-2.68,4.33-4.54,7.43-5.24,2.75-.62,5.56-.25,8.03,1.02,3.69-4.83,10.54-6.13,15.78-2.82,2.68,1.69,4.54,4.33,5.24,7.43.7,3.09.15,6.27-1.55,8.95l-3.71,5.87c-2.98,4.72-8.08,7.3-13.29,7.3ZM105.61,55.13c-.53,0-1.05.06-1.58.18-1.86.42-3.44,1.53-4.46,3.14s-1.35,3.52-.93,5.37c.42,1.86,1.53,3.44,3.14,4.46l5.87,3.71c5.1,3.23,11.88,1.7,15.1-3.4l3.71-5.87c1.02-1.61,1.35-3.52.93-5.37-.42-1.86-1.53-3.44-3.14-4.46-3.32-2.1-7.73-1.11-9.83,2.21l-1.95,3.08-3.08-1.95c-1.15-.73-2.46-1.11-3.79-1.11Z"/>
        </g>
        <g>
          <path class="cls-1" d="M108.08,17.01l.36.84.84-.36c3.49-1.5,7.54.12,9.04,3.61h0c1.5,3.49-.12,7.54-3.61,9.04l-4.62,1.99c-4.9,2.1-10.58-.16-12.68-5.06l-1.99-4.62c-1.5-3.49.12-7.54,3.61-9.04h0c3.49-1.5,7.54.12,9.04,3.61Z"/>
          <path class="cls-6" d="M106.31,35.29c-4.67,0-9.11-2.73-11.07-7.28l-1.99-4.62c-2.01-4.69.16-10.15,4.85-12.16,4.27-1.83,9.17-.2,11.53,3.65,1.91-.51,3.93-.39,5.8.35,2.3.92,4.1,2.67,5.08,4.95,2.01,4.69-.16,10.15-4.85,12.16l-4.62,1.99c-1.54.66-3.15.98-4.73.98ZM101.75,15.22c-.59,0-1.19.12-1.77.37-2.28.98-3.34,3.64-2.36,5.92l1.99,4.62c1.58,3.69,5.87,5.4,9.56,3.82l4.62-1.99c1.11-.48,1.96-1.35,2.41-2.47.45-1.12.43-2.34-.04-3.45-.48-1.11-1.35-1.96-2.47-2.41-1.12-.45-2.34-.43-3.45.04l-3.03,1.3-1.3-3.03c-.73-1.71-2.4-2.73-4.15-2.73Z"/>
        </g>
        <g>
          <path class="cls-1" d="M165.77,62.56l.36.84.84-.36c3.49-1.5,7.54.12,9.04,3.61h0c1.5,3.49-.12,7.54-3.61,9.04l-4.62,1.99c-4.9,2.1-10.58-.16-12.68-5.06l-1.99-4.62c-1.5-3.49.12-7.54,3.61-9.04h0c3.49-1.5,7.54.12,9.04,3.61Z"/>
          <path class="cls-6" d="M163.98,80.84c-1.51,0-3.02-.29-4.46-.86-2.98-1.19-5.33-3.47-6.59-6.43l-1.99-4.62c-.98-2.27-1.01-4.79-.09-7.09.92-2.3,2.67-4.1,4.95-5.08,4.27-1.83,9.17-.2,11.53,3.65,4.36-1.16,9.04,1.03,10.88,5.3,2.01,4.69-.16,10.15-4.85,12.16l-4.62,1.99c-1.52.65-3.13.98-4.74.98ZM159.44,60.76c-.59,0-1.19.12-1.77.37-1.11.48-1.96,1.35-2.41,2.47-.45,1.12-.43,2.34.04,3.45l1.99,4.62c.77,1.79,2.18,3.17,3.99,3.89,1.8.72,3.78.7,5.57-.07l4.62-1.99c2.28-.98,3.34-3.64,2.36-5.92-.98-2.28-3.64-3.35-5.92-2.36l-3.03,1.3-1.3-3.03c-.73-1.71-2.4-2.73-4.15-2.73Z"/>
        </g>
        <path class="cls-4" d="M103.59,168.19l45.28-18.52v41.4c0,3.19-1.82,6.09-4.69,7.48l-37.95,18.37c-3.82,1.85-8.27,1.85-12.09,0l-37.95-18.37c-2.87-1.39-4.69-4.29-4.69-7.48v-41.4l45.28,18.52c2.19.9,4.64.9,6.83,0Z"/>
        <path class="cls-5" d="M100.18,220.69c-2.42,0-4.83-.54-7.08-1.63l-37.95-18.37c-3.66-1.77-6.03-5.55-6.03-9.62v-41.4c0-.79.39-1.53,1.05-1.97.66-.44,1.49-.53,2.22-.23l45.28,18.52c1.62.66,3.41.66,5.03,0l45.28-18.52c.73-.3,1.57-.22,2.22.23.66.44,1.05,1.18,1.05,1.97v41.4c0,4.07-2.37,7.84-6.03,9.62l-37.95,18.37c-2.25,1.09-4.67,1.63-7.08,1.63ZM53.86,153.21v37.86c0,2.26,1.31,4.36,3.35,5.34l37.95,18.37c3.19,1.54,6.84,1.54,10.02,0l37.95-18.37c2.03-.98,3.35-3.08,3.35-5.34v-37.86l-42,17.18s0,0,0,0c-2.78,1.14-5.85,1.14-8.63,0l-42-17.18Z"/>
        <path class="cls-5" d="M100.18,210.47h0c-1.31,0-2.37-1.06-2.37-2.38v-29.33c0-1.31,1.07-2.37,2.38-2.37h0c1.31,0,2.37,1.06,2.37,2.38v29.33c0,1.31-1.07,2.37-2.38,2.37Z"/>
      </g>
      <path class="cls-7" d="M71.63,175.01c0,11.63-37.8,10.7-48.49,0l12.91-19.02s35.58,7.38,35.58,19.02Z"/>
      <path class="cls-3" d="M52.05,185.75c-11.51,0-24.63-3.09-30.59-9.06-3.53-3.52-5.18-8.04-4.78-13.06.78-9.73,9.02-20.75,23.2-31.01,1.06-.77,3.85,3.08,2.78,3.85-12.85,9.3-20.6,19.34-21.25,27.54-.29,3.64.85,6.78,3.4,9.32,3.37,3.37,10.53,6.05,19.15,7.16,8.31,1.07,16.48.49,21.32-1.51,2.63-1.09,3.97-2.42,3.97-3.97,0-6.69-19.7-13.79-33.69-16.69-1.28-.27-2.11-1.52-1.84-2.81.27-1.28,1.52-2.11,2.81-1.84.37.08,9.17,1.92,18.13,5.25,13.01,4.83,19.34,10.09,19.34,16.1,0,2.51-1.2,6-6.9,8.36-3.86,1.6-9.25,2.38-15.05,2.38Z"/>
      <g>
        <path class="cls-7" d="M135.39,171.78c-.89,6.46,3.62,12.41,10.08,13.3,6.46.89,9.53-4.02,10.41-10.48.89-6.46-.74-12.02-7.19-12.9-6.46-.89-12.41,3.62-13.3,10.08Z"/>
        <path class="cls-3" d="M146.98,187.57c-.59,0-1.21-.04-1.84-.13-7.74-1.07-13.18-8.23-12.11-15.98h0c.52-3.75,2.46-7.08,5.48-9.36,3.02-2.29,6.75-3.26,10.5-2.75,7.09.98,10.45,6.66,9.22,15.58-1.12,8.13-5.18,12.64-11.25,12.64ZM137.74,172.1c-.71,5.15,2.9,9.92,8.05,10.63,4.29.59,6.88-2.25,7.74-8.45.85-6.2-.89-9.64-5.17-10.23-2.5-.34-4.97.3-6.98,1.83-2.01,1.52-3.3,3.73-3.65,6.23h0Z"/>
      </g>
    </g>
  </g>
</svg>