<?xml version="1.0" encoding="UTF-8"?>
<svg id="Capa_2" xmlns="http://www.w3.org/2000/svg" viewBox="0 0 192.69 220.69">
  <defs>
    <style>
      .cls-1 {
        fill: #5f5c5d;
      }

      .cls-2 {
        fill: #fff;
      }

      .cls-3 {
        fill: #95a1b3;
      }

      .cls-4 {
        fill: #b2b8c4;
      }

      .cls-5 {
        fill: #70838e;
      }
    </style>
  </defs>
  <g id="OBJECTS">
    <g>
      <g>
        <path class="cls-4" d="M185.24,6.4c-10.83-10.83-45.35,8.87-60.55,18.43-7.52-1.25-17.23-1.76-28.34-1.72-11.12-.05-20.82.46-28.35,1.72C52.8,15.27,18.29-4.42,7.46,6.4c-10.75,10.75,1.52,40.28,7.83,53.43-7.46,12.59-10.18,26.39-10.18,38.27,0,10.27,1.22,20.53,3.68,30.79,4.34,18.09,17.69,32.39,35.11,37.99-13.02,22.98-9,46.3,4.43,50.31,7.41,2.21,36.24-9.89,54.96-19.46,17.22,10.58,33.79,21.64,41.07,19.46,13.44-4.01,17.45-27.33,4.43-50.31,17.42-5.6,30.77-19.9,35.11-37.99,2.46-10.26,3.68-20.52,3.68-30.79,0-11.88-2.72-25.67-10.17-38.26,6.29-13.14,18.58-42.68,7.82-53.44Z"/>
        <g>
          <path class="cls-3" d="M107.38,30.45c0,17-4.95,30.77-11.03,30.77s-11.04-13.77-11.04-30.77c0-2.33.09-4.6.27-6.77,7.17-.33,14.35-.33,21.52.01.18,2.17.27,4.44.27,6.76Z"/>
          <g>
            <path class="cls-3" d="M83.69,24.86c0,16.99-4.93,30.77-11.03,30.77s-10.67-12.82-11.01-28.97c3.79-.99,7.71-1.69,11.72-2.1,3.44-.34,6.87-.61,10.31-.79.01.36.01.72.01,1.08Z"/>
            <path class="cls-3" d="M131.05,26.53c-.31,16.21-5.13,29.11-11.01,29.11s-11.03-13.79-11.03-30.77c0-.36,0-.72.01-1.08,3.94.21,7.9.53,11.85.95,3.48.36,6.87.98,10.18,1.8Z"/>
          </g>
        </g>
        <path class="cls-2" d="M172.55,32.56s1.76,3.98,2.04,8.45c.27,4.13-2.21,7.28-5.47,8.59-6.83-7.77-15.27-14.12-24.8-18.54.09-2.24,1.03-4.44,2.85-6.09,7.32-6.65,17.43-13.83,24.59-10.91,12.47,5.09.78,18.5.78,18.5Z"/>
        <path class="cls-2" d="M20.14,32.56s-1.76,3.98-2.04,8.45c-.27,4.13,2.21,7.28,5.47,8.59,6.83-7.77,15.27-14.12,24.8-18.54-.09-2.24-1.03-4.44-2.85-6.09-7.32-6.65-17.43-13.83-24.59-10.91-12.47,5.09-.78,18.5-.78,18.5Z"/>
        <g>
          <path class="cls-1" d="M124.78,98.4c0,5.65,4.58,10.24,10.24,10.24s10.24-4.58,10.24-10.24h-20.47Z"/>
          <path class="cls-1" d="M47.45,98.4c0,5.65,4.58,10.24,10.24,10.24s10.24-4.58,10.24-10.24h-20.47Z"/>
        </g>
        <g>
          <g>
            <path class="cls-3" d="M160.92,124.26h-16.17c-1.77,0-3.21-1.44-3.21-3.21s1.44-3.21,3.21-3.21h16.17c1.77,0,3.21,1.44,3.21,3.21s-1.44,3.21-3.21,3.21Z"/>
            <path class="cls-3" d="M157.98,139.45c-.37,0-.75-.06-1.12-.2l-13.23-4.9c-1.66-.62-2.51-2.47-1.9-4.13.62-1.66,2.47-2.51,4.13-1.9l13.23,4.9c1.66.62,2.51,2.47,1.9,4.13-.48,1.3-1.71,2.1-3.01,2.1Z"/>
          </g>
          <g>
            <path class="cls-3" d="M47.95,124.26h-16.17c-1.77,0-3.21-1.44-3.21-3.21s1.44-3.21,3.21-3.21h16.17c1.77,0,3.21,1.44,3.21,3.21s-1.44,3.21-3.21,3.21Z"/>
            <path class="cls-3" d="M34.72,139.45c-1.31,0-2.53-.8-3.01-2.1-.62-1.66.23-3.51,1.9-4.13l13.23-4.9c1.66-.62,3.51.23,4.13,1.9.62,1.66-.23,3.51-1.9,4.13l-13.23,4.9c-.37.14-.74.2-1.12.2Z"/>
          </g>
        </g>
        <g>
          <path class="cls-2" d="M128.52,91.77h-8.48c-1.77,0-3.21-1.44-3.21-3.21s1.44-3.21,3.21-3.21h8.48c1.77,0,3.21,1.44,3.21,3.21s-1.44,3.21-3.21,3.21Z"/>
          <path class="cls-2" d="M72.67,91.77h-8.48c-1.77,0-3.21-1.44-3.21-3.21s1.44-3.21,3.21-3.21h8.48c1.77,0,3.21,1.44,3.21,3.21s-1.44,3.21-3.21,3.21Z"/>
        </g>
        <path class="cls-5" d="M99.56,107.3v-2.64h1.33c1.77,0,3.21-1.44,3.21-3.21s-1.44-3.21-3.21-3.21h-9.08c-1.77,0-3.21,1.44-3.21,3.21s1.44,3.21,3.21,3.21h1.33v2.64c-7.22,1.84-12.66,9.74-12.66,19.17,0,1.77,1.44,3.21,3.21,3.21s3.21-1.44,3.21-3.21c0-7.13,4.33-13.15,9.45-13.15s9.45,6.02,9.45,13.15c0,1.77,1.44,3.21,3.21,3.21s3.21-1.44,3.21-3.21c0-9.44-5.44-17.33-12.66-19.17Z"/>
      </g>
      <path class="cls-5" d="M187.51,4.13c-5.77-5.78-16.27-5.5-32.1.85-11.4,4.57-23.19,11.36-31.4,16.49-7.22-1.09-16.47-1.62-27.65-1.57-11.19-.05-20.46.48-27.68,1.57-8.23-5.13-20.03-11.93-31.41-16.49C21.45-1.37,10.95-1.65,5.18,4.13-.33,9.64-1.45,19.35,1.85,32.98c2.36,9.74,6.5,19.64,9.8,26.69C3.41,74.37,1.89,89.22,1.89,98.1c0,10.49,1.27,21.1,3.77,31.54,2.5,10.43,7.87,19.86,15.53,27.28,5.26,5.09,11.42,9.06,18.15,11.74-6.52,13.15-8.43,27.19-4.79,37.97,2.38,7.03,6.94,11.87,12.85,13.64.75.22,1.73.41,3.14.41,3.56,0,9.86-1.16,22.15-5.79,9.23-3.48,20.48-8.47,30.44-13.48,1.29.8,2.58,1.59,3.84,2.38,16.5,10.23,27.7,16.91,35.28,16.91,1.08,0,2.09-.13,3.03-.41,5.91-1.76,10.47-6.61,12.85-13.64,3.65-10.78,1.73-24.82-4.79-37.98,6.74-2.68,12.9-6.66,18.16-11.75,7.66-7.42,13.03-16.85,15.53-27.28,2.5-10.44,3.77-21.05,3.77-31.54,0-8.88-1.52-23.73-9.76-38.42,3.3-7.07,7.44-16.98,9.79-26.7,3.3-13.63,2.18-23.34-3.33-28.85ZM50.66,214.28c-.57,0-1.04-.05-1.41-.16-3.86-1.15-6.91-4.54-8.6-9.54-2.51-7.42-2.35-20.04,4.83-33.88,1.15.31,2.31.59,3.49.83,5.67,1.15,11.38,2.08,17.09,2.82-.79,1.7-1.18,3.25-1.38,4.38-3.21,2.11-5.15,3.53-5.24,3.6-1.43,1.05-1.73,3.06-.68,4.49.63.86,1.6,1.31,2.59,1.31.66,0,1.33-.2,1.9-.62.02-.02,1.94-1.42,5.09-3.49,7.94,1.81,18.18,7.37,28.31,13.44-19.69,9.62-39.37,16.83-45.99,16.83ZM152.04,204.58c-1.69,5-4.75,8.39-8.6,9.54-1.44.43-4.72.15-12.23-3.6-6.08-3.03-13.25-7.49-20.85-12.19-13.55-8.41-27.52-17.07-38.94-20.17.54-1.57,1.65-3.63,3.92-5.39,20.6-16.03,53.49,14.19,53.82,14.5,1.3,1.21,3.33,1.14,4.54-.16,1.21-1.3,1.14-3.33-.16-4.54-.14-.14-1.59-1.47-4-3.41.06-1.75-.28-3.44-1-5.05,5.08-.7,10.15-1.55,15.2-2.58,1.17-.24,2.33-.52,3.48-.83,7.18,13.84,7.33,26.46,4.82,33.89ZM176.94,53.19c-2.13-3-4.59-5.95-7.41-8.8-1.25-1.26-3.28-1.27-4.54-.02-1.26,1.25-1.27,3.28-.02,4.54,16.9,17.07,19.42,38.14,19.42,49.19,0,9.99-1.21,20.09-3.59,30.04-2.22,9.24-6.97,17.59-13.75,24.16-6.79,6.57-15.29,11.04-24.57,12.92-6.08,1.23-12.19,2.21-18.31,2.96-5.81-5.15-13.95-5.22-20.62-4.01-12.62-4.28-23.61-3.12-32.13,3.51-.31.24-.6.48-.88.73-6.78-.77-13.55-1.83-20.28-3.19-9.29-1.88-17.79-6.35-24.57-12.92-6.78-6.57-11.53-14.92-13.75-24.16-2.38-9.95-3.59-20.05-3.59-30.04,0-11.04,2.53-32.11,19.42-49.19,1.25-1.26,1.24-3.3-.02-4.54-1.26-1.25-3.29-1.24-4.54.02-2.82,2.85-5.28,5.81-7.41,8.8C5.97,31.17,3.68,14.72,9.73,8.67c5.81-5.81,24.64-.14,49.87,14.8-4.4,1.31-8.62,2.86-12.55,4.62-1.62.73-2.34,2.63-1.61,4.25.73,1.62,2.63,2.34,4.25,1.61,4-1.8,8.32-3.37,12.84-4.65,7.2-2.04,18.57-3.05,33.84-2.98,15.24-.06,26.62.94,33.81,2.98,4.52,1.28,8.84,2.85,12.85,4.65.43.19.88.28,1.31.28,1.22,0,2.4-.71,2.93-1.9.73-1.62,0-3.52-1.61-4.25-3.94-1.77-8.16-3.32-12.56-4.63,25.22-14.95,44.04-20.62,49.87-14.79,6.03,6.03,3.75,22.48-6.03,44.52Z"/>
    </g>
  </g>
</svg>