<?xml version="1.0" encoding="UTF-8"?>
<svg id="Capa_2" xmlns="http://www.w3.org/2000/svg" viewBox="0 0 220.69 215.05">
  <defs>
    <style>
      .cls-1 {
        fill: #f6608e;
      }

      .cls-2 {
        fill: #ffa6ca;
      }

      .cls-3 {
        fill: #ffcc6b;
      }

      .cls-4 {
        fill: #fff;
      }

      .cls-5 {
        fill: #678490;
      }

      .cls-6 {
        fill: #65e1e9;
      }

      .cls-7 {
        fill: #00d4d7;
      }

      .cls-8 {
        fill: #fd80a6;
      }

      .cls-9 {
        fill: #b1b9c6;
      }

      .cls-10 {
        fill: #91a2b5;
      }

      .cls-11 {
        fill: #e3e3e3;
      }

      .cls-12 {
        fill: #605c5d;
      }
    </style>
  </defs>
  <g id="OBJECTS">
    <g>
      <ellipse class="cls-9" cx="113.72" cy="164.51" rx="61.51" ry="50.53"/>
      <g>
        <path class="cls-9" d="M161.23,4.02c-11.3-7.8-38.55,15.15-50.41,26.03-6.84.11-15.48,1.23-25.27,3.07-9.81,1.75-18.28,3.77-24.71,6.09-14.95-5.97-48.56-17.76-56.36-6.46-7.74,11.22,7.85,35.26,15.54,45.84-4.54,12.31-4.71,24.91-2.79,35.38,1.66,9.06,4.4,17.9,8.22,26.55,7.47,16.88,23.91,27.87,42.36,28.22,14.25.26,28.24-.87,41.98-3.39,13.74-2.52,27.22-6.42,40.45-11.72,17.13-6.86,28.6-22.98,29.6-41.41.51-9.44-.07-18.68-1.73-27.74-1.92-10.47-6.55-22.19-15.15-32.09,3.42-12.6,9.49-40.63-1.74-48.38Z"/>
        <g>
          <path class="cls-10" d="M96.47,37.8c2.75,14.99.61,27.93-4.75,28.91-5.37.98-11.96-10.36-14.71-25.35-.38-2.05-.66-4.07-.85-6.01,6.27-1.45,12.6-2.61,18.97-3.47.51,1.89.96,3.87,1.33,5.91Z"/>
          <g>
            <path class="cls-10" d="M74.68,36.7c2.74,14.98.62,27.93-4.75,28.91-5.16.95-11.48-9.58-14.39-23.76,3.18-1.48,6.52-2.74,9.99-3.74,2.98-.85,5.96-1.65,8.96-2.37.07.32.13.63.19.95Z"/>
            <path class="cls-10" d="M116.7,30.52c2.34,14.34.18,26.49-5.01,27.44-5.37.98-11.95-10.37-14.69-25.35-.06-.32-.12-.63-.16-.95,3.51-.45,7.05-.81,10.6-1.08,3.12-.24,6.22-.25,9.27-.06Z"/>
          </g>
        </g>
        <path class="cls-4" d="M154.27,29.13s2.19,3.23,3.17,7.12c.91,3.59-.78,6.77-3.43,8.46-7.28-5.75-15.75-9.99-24.86-12.34-.28-1.99.19-4.08,1.53-5.83,5.38-7.05,13.13-15.01,19.92-13.59,11.82,2.47,3.68,16.18,3.68,16.18Z"/>
        <path class="cls-4" d="M19.89,53.75s-.91,3.8-.44,7.78c.43,3.68,3.13,6.06,6.21,6.69,4.77-7.96,11.18-14.92,18.87-20.35-.44-1.96-1.62-3.75-3.5-4.91-7.53-4.68-17.6-9.37-23.44-5.64-10.17,6.5,2.3,16.44,2.3,16.44Z"/>
        <path class="cls-5" d="M180.48,84.05c-1.43-7.82-5.18-20.68-14.87-32.27,4.12-15.63,8.76-41.61-3.02-49.74-5.85-4.04-14.89-2.09-27.64,5.95-9.34,5.89-18.68,13.84-25.09,19.68-6.54.19-14.81,1.21-24.73,3.08-9.95,1.78-18.06,3.75-24.24,5.9-8.07-3.19-19.63-7.31-30.44-9.51-14.77-3-23.91-1.61-27.95,4.23-8.15,11.8,5.42,34.43,14.82,47.58-4.95,14.28-3.89,27.63-2.46,35.45,1.69,9.21,4.51,18.32,8.39,27.09,3.85,8.71,10.05,16.08,17.93,21.33,7.89,5.26,17.08,8.13,26.59,8.31,1.33.02,2.65.04,3.98.04,13,0,25.93-1.16,38.48-3.46,13.83-2.53,27.6-6.52,40.91-11.85,8.82-3.54,16.4-9.48,21.91-17.2,5.5-7.7,8.68-16.8,9.2-26.31.52-9.57-.07-19.09-1.76-28.3ZM177.45,112.09c-.47,8.59-3.34,16.82-8.31,23.77-4.98,6.97-11.82,12.34-19.79,15.53-13.02,5.21-26.48,9.11-39.99,11.59-13.52,2.48-27.48,3.6-41.5,3.35-8.58-.16-16.89-2.76-24.01-7.51-7.11-4.74-12.72-11.41-16.2-19.28-3.73-8.42-6.44-17.17-8.06-26.01-1.8-9.81-2.99-28.94,9.25-46.86.75-1.1.47-2.59-.63-3.34-1.1-.75-2.59-.47-3.34.63-2.19,3.2-3.97,6.44-5.43,9.66C6.78,55.28,1.93,40.66,6.45,34.11c4.37-6.33,22.52-4.3,47.95,5.19,0,0,0,0,0,0-4.01,1.98-7.79,4.19-11.24,6.57-1.09.75-1.37,2.25-.61,3.34.47.68,1.22,1.04,1.98,1.04.47,0,.95-.14,1.36-.43,3.26-2.25,6.84-4.34,10.63-6.21,6.06-2.98,15.97-5.72,29.48-8.13,13.47-2.53,23.71-3.49,30.43-2.85,4.22.41,8.31,1.09,12.15,2.04,1.29.32,2.59-.47,2.91-1.76.32-1.29-.47-2.59-1.76-2.91-4.07-1-8.38-1.73-12.84-2.16,0,0,0,0-.01,0,20.4-17.9,36.65-26.23,42.99-21.86,6.54,4.52,7.19,19.91,1.87,41.56-2.5-2.49-5.32-4.89-8.5-7.11-1.09-.76-2.58-.49-3.34.6-.76,1.09-.49,2.58.6,3.34,17.8,12.42,23.47,30.73,25.27,40.53,1.62,8.84,2.19,17.98,1.69,27.18Z"/>
        <g>
          <path class="cls-12" d="M142.1,98.47l-18.05,3.31c-.91-4.98,2.39-9.77,7.37-10.68,4.98-.91,9.77,2.38,10.68,7.36Z"/>
          <path class="cls-12" d="M73.92,110.96l-18.05,3.31c-.91-4.98,2.38-9.77,7.36-10.68,4.99-.92,9.77,2.38,10.69,7.36Z"/>
        </g>
        <g>
          <g>
            <path class="cls-10" d="M144.05,114.04c-1.14,0-2.15-.81-2.36-1.97-.24-1.3.62-2.56,1.93-2.79l14.26-2.61c1.31-.24,2.56.62,2.79,1.93.24,1.3-.62,2.56-1.93,2.8l-14.26,2.61c-.15.03-.29.04-.44.04Z"/>
            <path class="cls-10" d="M158.17,125.29c-.14,0-.28-.01-.42-.04l-12.46-2.18c-1.31-.23-2.18-1.47-1.95-2.78.23-1.31,1.47-2.18,2.78-1.95l12.46,2.18c1.31.23,2.18,1.47,1.95,2.78-.2,1.17-1.22,1.99-2.36,1.99Z"/>
          </g>
          <g>
            <path class="cls-10" d="M44.45,132.29c-1.14,0-2.15-.81-2.36-1.97-.24-1.3.62-2.56,1.93-2.8l14.26-2.61c1.31-.24,2.56.62,2.79,1.93.24,1.3-.62,2.56-1.93,2.79l-14.26,2.61c-.15.03-.29.04-.44.04Z"/>
            <path class="cls-10" d="M49.5,145.21c-.82,0-1.62-.42-2.07-1.18-.68-1.14-.3-2.61.84-3.29l10.88-6.46c1.14-.68,2.61-.3,3.29.84.68,1.14.3,2.61-.84,3.29l-10.88,6.46c-.38.23-.81.34-1.22.34Z"/>
          </g>
        </g>
        <g>
          <path class="cls-4" d="M123.65,83.43c-.23,0-.47-.03-.71-.11l-7.97-2.46c-1.27-.39-1.98-1.73-1.59-3,.39-1.27,1.74-1.98,3-1.59l7.97,2.46c1.27.39,1.98,1.73,1.59,3-.32,1.03-1.27,1.7-2.29,1.7Z"/>
          <path class="cls-4" d="M66.93,93.82c-.73,0-1.46-.33-1.93-.97-.79-1.06-.57-2.57.49-3.36l6.99-5.2c1.06-.79,2.57-.57,3.36.49.79,1.06.57,2.57-.49,3.36l-6.99,5.2c-.43.32-.93.47-1.43.47Z"/>
        </g>
        <path class="cls-5" d="M114.62,103.08c-1.32-.09-2.47.92-2.55,2.24-.16,2.47-1.98,4.51-4.42,4.96-1.42.26-2.86-.05-4.05-.87-.92-.63-1.6-1.51-1.98-2.53l1.54-.28c1.3-.24,2.17-1.49,1.93-2.8-.24-1.3-1.49-2.17-2.79-1.93l-8.01,1.47c-1.3.24-2.17,1.49-1.93,2.8.21,1.16,1.22,1.97,2.36,1.97.14,0,.29-.01.44-.04l1.57-.29c0,2.56-1.83,4.84-4.43,5.32-2.45.45-4.87-.81-5.9-3.07-.55-1.21-1.97-1.74-3.18-1.19-1.21.55-1.74,1.97-1.19,3.18,1.68,3.69,5.34,5.97,9.28,5.97.61,0,1.24-.06,1.86-.17,3.08-.56,5.58-2.46,7.03-4.99.22.19.46.36.7.53,2.25,1.55,4.96,2.13,7.65,1.64,4.61-.85,8.05-4.7,8.35-9.38.09-1.32-.92-2.47-2.24-2.55Z"/>
      </g>
      <g>
        <path class="cls-6" d="M118.99,152.5s10.78-22.73,22.03-14.97c11.25,7.77-.38,24.62-.38,24.62,0,0,16.86,11.64,9.09,22.89-7.77,11.25-25.9-6.18-25.9-6.18l-22.36,4.1s-10.78,22.73-22.03,14.97c-11.25-7.77.38-24.62.38-24.62,0,0-16.86-11.64-9.09-22.89,7.77-11.25,25.9,6.18,25.9,6.18l22.36-4.1Z"/>
        <path class="cls-7" d="M143.86,161.57c4.16-7.09,8.04-19.44-1.47-26.01-2.79-1.92-5.91-2.5-9.03-1.66-7.66,2.05-13.73,12.27-15.79,16.12-.83-.32-1.69-.54-2.58-.64-5.33-.61-10.46.28-15.25,2.64-.97.48-1.84,1.08-2.62,1.79-3.25-2.85-12.6-10.3-20.51-9.51-3.21.32-5.93,1.97-7.85,4.76-3.82,5.53-3.23,11.92,1.69,18.47,2.09,2.78,4.54,5.01,6.17,6.35-4.17,7.08-8.07,19.46,1.46,26.03,1.96,1.35,4.08,2.04,6.25,2.04.92,0,1.85-.12,2.78-.37,7.66-2.05,13.73-12.27,15.79-16.12.83.32,1.69.54,2.58.64,1.09.13,2.17.19,3.24.19,4.34,0,8.53-1.03,12.47-3.07.8-.41,1.53-.92,2.19-1.51,3.12,2.73,11.66,9.53,19.27,9.53.41,0,.81-.02,1.21-.06,3.21-.32,5.93-1.97,7.85-4.76,6.57-9.51-1.44-19.69-7.85-24.84ZM85.86,196.93c-1.77.47-3.42.15-5.06-.98-9.13-6.31.9-21.13,1-21.28.75-1.09.48-2.58-.61-3.34-.15-.1-14.79-10.41-8.48-19.55,1.13-1.64,2.56-2.52,4.38-2.71,5.69-.57,13.8,5.56,17.22,8.64-.49,1.13-.79,2.35-.88,3.61-.07,1.06-.09,2.12-.08,3.17-.61-.76-1.32-1.45-2.12-2.07l-3-2.33c-1.05-.81-2.56-.62-3.37.42-.81,1.05-.62,2.56.42,3.37l3,2.33c3.29,2.56,4.13,7.16,1.96,10.72l-1.98,3.24c-.69,1.13-.33,2.61.8,3.3.39.24.82.35,1.25.35.81,0,1.6-.41,2.05-1.15l1.98-3.24c.53-.86.94-1.77,1.25-2.69.36.99.76,1.98,1.2,2.95.52,1.15,1.24,2.18,2.08,3.07-2.1,4.1-7.49,12.68-13.02,14.16ZM118.98,178.94h0c-4.12,2.13-8.36,2.91-12.96,2.38-2.08-.24-3.94-1.63-4.85-3.62-2.32-5.08-3.31-10.49-2.95-16.06.15-2.24,1.55-4.28,3.65-5.32,3.14-1.55,6.45-2.33,9.89-2.33.88,0,1.78.05,2.68.16,2.08.24,3.94,1.63,4.85,3.62,2.32,5.09,3.32,10.49,2.95,16.07-.14,2.18-1.39,4.14-3.25,5.1ZM147.75,183.68c-1.13,1.64-2.56,2.52-4.38,2.71-5.69.57-13.77-5.53-17.2-8.63.48-1.13.78-2.35.86-3.61.07-1.07.09-2.13.08-3.19.61.76,1.32,1.45,2.12,2.07l3,2.33c.44.34.96.51,1.47.51.72,0,1.42-.32,1.9-.93.81-1.05.62-2.56-.42-3.37l-3-2.33c-3.29-2.56-4.13-7.16-1.96-10.72l1.98-3.25c.69-1.13.33-2.61-.8-3.3-1.13-.69-2.61-.33-3.3.8l-1.98,3.24c-.53.86-.94,1.77-1.25,2.69-.36-.99-.76-1.98-1.2-2.95-.52-1.15-1.24-2.18-2.08-3.07,2.1-4.1,7.49-12.68,13.02-14.16,1.77-.47,3.42-.15,5.06.98,9.13,6.31-.9,21.13-1,21.28-.75,1.09-.48,2.58.61,3.34.15.1,14.79,10.41,8.48,19.55Z"/>
      </g>
      <g>
        <path class="cls-8" d="M138.93,175.17h55.73v13.3c0,4.12-3.34,7.46-7.46,7.46h-40.81c-4.12,0-7.46-3.34-7.46-7.46v-13.3h0Z"/>
        <polygon class="cls-4" points="194.66 175.17 138.93 175.17 141.91 144.9 191.68 144.9 194.66 175.17"/>
        <path class="cls-8" d="M138.93,121.62l.76-5.17c.86-5.81,5.84-10.11,11.71-10.11h30.78c5.87,0,10.86,4.3,11.71,10.11l.76,5.17"/>
        <polygon class="cls-4" points="138.93 121.62 194.66 121.62 191.68 144.9 141.91 144.9 138.93 121.62"/>
        <path class="cls-1" d="M197.06,175.19v-.02c0-.05,0-.1,0-.15,0-.03,0-.05,0-.08h0s0-.01,0-.01l-2.96-29.99,2.95-23c.03-.22.02-.44,0-.66h0s-.76-5.17-.76-5.17c-1.02-6.93-7.08-12.16-14.09-12.16h-30.78c-7.01,0-13.07,5.23-14.09,12.16l-.76,5.17h0c-.03.22-.04.44,0,.66l2.95,23-2.96,29.99s0,0,0,0h0s0,.06,0,.09c0,.05,0,.1,0,.16v.02h0v13.29c0,5.44,4.43,9.87,9.87,9.87h40.81c5.44,0,9.87-4.43,9.87-9.87v-13.29h0ZM189.56,142.49h-45.54l-2.37-18.47h50.28l-2.37,18.47ZM144.09,147.3h45.41l2.51,25.47h-50.43l2.51-25.47ZM151.41,108.74h30.78c4.65,0,8.66,3.47,9.34,8.06l.36,2.42h-50.17l.36-2.42c.68-4.6,4.69-8.06,9.34-8.06ZM192.26,188.47c0,2.79-2.27,5.06-5.06,5.06h-40.81c-2.79,0-5.06-2.27-5.06-5.06v-10.9h50.93v10.9Z"/>
        <path class="cls-3" d="M176.7,162.98c-.61,0-1.23-.23-1.7-.7-.94-.94-.94-2.46,0-3.4,4.52-4.52,4.52-11.89,0-16.41-4.52-4.52-11.89-4.52-16.41,0-4.52,4.52-4.52,11.89,0,16.41.94.94.94,2.46,0,3.4-.94.94-2.46.94-3.4,0-6.4-6.4-6.4-16.81,0-23.2,6.4-6.4,16.81-6.4,23.2,0,6.4,6.4,6.4,16.81,0,23.2-.47.47-1.08.7-1.7.7Z"/>
        <circle class="cls-6" cx="166.79" cy="131.69" r="4.98"/>
        <path class="cls-11" d="M152.61,166.76c-.61,0-1.23-.23-1.7-.7-.94-.94-.94-2.46,0-3.4,8.75-8.75,22.99-8.75,31.75,0,.94.94.94,2.46,0,3.4-.94.94-2.46.94-3.4,0-6.88-6.88-18.07-6.88-24.95,0-.47.47-1.08.7-1.7.7Z"/>
      </g>
      <g>
        <path class="cls-9" d="M148.26,197.25c.43-9.04,8.1-16.02,17.14-15.59,9.04.43,16.02,8.1,15.59,17.14-.43,9.04-7.9,11.82-16.94,11.39-9.04-.43-16.22-3.9-15.79-12.94Z"/>
        <path class="cls-5" d="M165.79,212.63c-.6,0-1.22-.02-1.85-.04-5.38-.25-9.66-1.49-12.73-3.68-3.74-2.67-5.59-6.74-5.35-11.77.24-5.01,2.41-9.63,6.12-13.01,3.71-3.38,8.52-5.11,13.53-4.87,10.35.49,18.37,9.3,17.88,19.65-.24,5.03-2.46,8.9-6.44,11.21-2.88,1.67-6.63,2.51-11.17,2.51ZM164.61,184.04c-3.49,0-6.8,1.28-9.39,3.64-2.76,2.51-4.38,5.95-4.56,9.68-.16,3.41.93,5.91,3.34,7.63,2.27,1.62,5.78,2.59,10.16,2.8,4.38.21,7.97-.42,10.38-1.82,2.56-1.49,3.89-3.87,4.05-7.28.36-7.7-5.61-14.26-13.31-14.63-.23-.01-.45-.02-.68-.02Z"/>
      </g>
      <path class="cls-8" d="M203.95,64.86l.74,1.02,1.02-.74c4.23-3.06,10.13-2.11,13.19,2.12h0c3.06,4.23,2.11,10.13-2.12,13.19l-5.6,4.04c-5.93,4.29-14.21,2.95-18.5-2.98l-4.04-5.6c-3.06-4.23-2.11-10.13,2.12-13.19h0c4.23-3.06,10.13-2.11,13.19,2.12Z"/>
      <path class="cls-2" d="M191.88,30.59l1.47.61.61-1.47c2.54-6.07,9.52-8.92,15.59-6.38h0c6.07,2.54,8.92,9.52,6.38,15.59l-3.37,8.03c-3.57,8.51-13.35,12.52-21.86,8.95l-8.03-3.37c-6.07-2.54-8.92-9.52-6.38-15.59h0c2.54-6.07,9.52-8.92,15.59-6.38Z"/>
      <path class="cls-2" d="M32.96,178.57l.75,1.4,1.4-.75c5.8-3.11,13.02-.94,16.13,4.86h0c3.11,5.8.94,13.02-4.86,16.13l-7.67,4.12c-8.13,4.37-18.26,1.32-22.62-6.81l-4.12-7.67c-3.11-5.8-.94-13.02,4.86-16.13h0c5.8-3.11,13.02-.94,16.13,4.86Z"/>
    </g>
  </g>
</svg>