<?xml version="1.0" encoding="UTF-8"?>
<svg id="Capa_2" data-name="Capa 2" xmlns="http://www.w3.org/2000/svg" viewBox="0 0 217.3 220.69">
  <defs>
    <style>
      .cls-1 {
        fill: #f6608e;
      }

      .cls-2 {
        fill: #6db850;
      }

      .cls-3 {
        fill: #fff;
      }

      .cls-4 {
        fill: #89d770;
      }

      .cls-5 {
        fill: #678490;
      }

      .cls-6 {
        fill: #fd80a6;
      }

      .cls-7 {
        fill: #b1b9c6;
      }

      .cls-8 {
        fill: #91a2b5;
      }

      .cls-9 {
        fill: #e3e3e3;
      }

      .cls-10 {
        fill: #605c5d;
      }
    </style>
  </defs>
  <g id="OBJECTS">
    <g>
      <path class="cls-7" d="M165.85,169.62c0-19.98-17.35-36.18-38.76-36.18s-41.57,9.73-41.57,29.71c-11.36,22.19-6.98,47.12,5.55,53.12,5.29,2.53,29.67-10.47,36.02-10.47,21.41,0,38.76-16.2,38.76-36.18Z"/>
      <path class="cls-7" d="M154.96,159.91s12.12,12.45,25.62,12.45,16.37-29.29,16.37-29.29l-16.37-7.89-9.47,13.51-19.95-16.17,3.8,27.39Z"/>
      <path class="cls-5" d="M180.58,174.73c-6.07,0-12.52-2.23-19.18-6.62-4.88-3.22-8.01-6.42-8.14-6.55-.92-.94-.89-2.44.05-3.36.94-.91,2.44-.89,3.36.04h0c.11.12,11.6,11.73,23.92,11.73,5.54,0,9.02-7.04,10.97-12.95,1.64-4.99,2.48-10.05,2.83-12.57l-13.01-6.27-8.31,11.86c-.38.54-.96.9-1.62.99-.65.09-1.31-.09-1.82-.51l-19.95-16.17c-1.02-.83-1.18-2.32-.35-3.34.83-1.02,2.32-1.18,3.34-.35l17.97,14.57,8.01-11.42c.67-.95,1.93-1.28,2.98-.78l16.37,7.89c.9.43,1.43,1.38,1.33,2.37-.03.31-.77,7.67-3.23,15.16-2.44,7.43-7.11,16.28-15.5,16.28Z"/>
      <g>
        <path class="cls-7" d="M144.87,3.38c-11.14-6.07-33.95,17.66-43.79,28.81-6.27.77-14.1,2.63-22.92,5.27-8.84,2.56-16.43,5.24-22.12,8-14.32-4.04-46.34-11.61-52.41-.47-6.03,11.06,10.64,31.64,18.72,40.61-2.98,11.75-1.91,23.34.87,32.78,2.4,8.16,5.78,16.02,10.13,23.59,8.5,14.78,24.67,23.29,41.66,21.81,13.11-1.14,25.86-3.54,38.24-7.18s24.39-8.54,36.03-14.69c15.07-7.97,24.05-23.88,23.18-40.91-.45-8.72-1.87-17.16-4.28-25.32-2.78-9.43-8.17-19.75-17.03-28.01,1.92-11.91,4.77-38.25-6.29-44.28Z"/>
        <g>
          <path class="cls-8" d="M88.65,40.69c3.98,13.5,3.27,25.6-1.56,27.03-4.84,1.43-11.99-8.36-15.97-21.86-.55-1.85-1-3.67-1.37-5.44,5.62-1.94,11.32-3.62,17.1-5.03.65,1.68,1.26,3.46,1.8,5.3Z"/>
          <g>
            <path class="cls-8" d="M68.52,41.8c3.98,13.49,3.28,25.6-1.56,27.03-4.65,1.37-11.48-7.69-15.53-20.43,2.78-1.67,5.73-3.15,8.82-4.41,2.65-1.07,5.32-2.09,8-3.04.1.29.18.57.26.86Z"/>
            <path class="cls-8" d="M106.53,32.04c3.54,12.95,2.74,24.32-1.94,25.7-4.84,1.43-11.98-8.37-15.96-21.87-.09-.29-.17-.57-.24-.86,3.18-.76,6.4-1.43,9.63-2.02,2.85-.52,5.69-.83,8.51-.95Z"/>
          </g>
        </g>
        <path class="cls-3" d="M140.91,27.12s2.33,2.75,3.6,6.23c1.18,3.21-.06,6.3-2.33,8.1-7.25-4.57-15.43-7.65-24.04-8.92-.45-1.8-.22-3.77.84-5.51,4.25-7,10.61-15.06,16.98-14.42,11.1,1.13,4.95,14.51,4.95,14.51Z"/>
        <path class="cls-3" d="M19.84,62.78s-.46,3.58.35,7.19c.75,3.34,3.46,5.26,6.35,5.55,3.61-7.77,8.82-14.79,15.36-20.53-.6-1.76-1.86-3.29-3.69-4.17-7.37-3.57-17.08-6.9-22.09-2.91-8.72,6.96,3.71,14.88,3.71,14.88Z"/>
        <path class="cls-5" d="M174.84,100.86c-.45-8.85-1.92-17.56-4.37-25.87-2.08-7.05-6.76-18.5-16.77-28.22,2.27-14.81,3.99-39.12-7.69-45.49-5.82-3.17-14-.5-24.99,8.17-8,6.31-15.8,14.5-21.12,20.49-5.99.81-13.48,2.56-22.39,5.22-8.95,2.59-16.2,5.19-21.67,7.75-7.73-2.15-18.73-4.8-28.86-5.77-13.93-1.33-22.24.86-25.42,6.68-6.37,11.7,8.26,31.19,18.2,42.39-3.15,13.6-.88,25.76,1.2,32.81,2.45,8.31,5.93,16.42,10.35,24.11,4.4,7.65,10.83,13.85,18.6,17.92,6.6,3.46,13.89,5.25,21.31,5.25,1.33,0,2.67-.06,4.01-.17,13.21-1.15,26.23-3.6,38.7-7.27,12.47-3.67,24.74-8.68,36.47-14.87,7.79-4.12,14.2-10.34,18.52-17.99,4.32-7.64,6.37-16.33,5.92-25.14ZM148.18,139.8c-11.45,6.05-23.42,10.93-35.59,14.51-12.17,3.58-24.88,5.97-37.77,7.1-1.18.1-2.35.15-3.52.15-14.65,0-28.46-7.9-35.87-20.78-4.23-7.36-7.57-15.13-9.91-23.08-2.6-8.81-5.54-26.23,3.94-43.83.62-1.15.19-2.6-.97-3.22-1.16-.62-2.6-.19-3.22.97-1.66,3.07-2.96,6.14-3.97,9.16-13.24-15.48-19.05-28.29-15.57-34.66,3.35-6.15,20.01-6.05,44.03.11-3.38,2.16-6.55,4.49-9.41,6.95-1,.85-1.11,2.35-.26,3.35.47.55,1.13.83,1.8.83.55,0,1.1-.19,1.55-.57,2.77-2.38,5.85-4.64,9.15-6.73,5.26-3.32,14.09-6.79,26.26-10.32,12.12-3.63,21.41-5.5,27.63-5.56,3.92-.04,7.72.2,11.34.69,1.3.18,2.5-.73,2.68-2.03.18-1.3-.73-2.5-2.03-2.68-3.73-.51-7.66-.76-11.68-.74,16.84-18.19,30.78-27.31,36.94-23.96,6.36,3.47,8.43,17.38,5.71,37.56-2.49-1.99-5.25-3.86-8.3-5.54-1.15-.63-2.59-.22-3.23.93-.63,1.15-.22,2.59.93,3.23,17.51,9.66,24.48,25.88,27.07,34.69,2.34,7.95,3.75,16.29,4.18,24.77.82,16.03-7.78,31.22-21.92,38.69Z"/>
        <g>
          <path class="cls-10" d="M128.33,105.26c-4.69,0-9.02-3.07-10.41-7.79-.37-1.26.35-2.58,1.61-2.95,1.26-.37,2.58.35,2.95,1.61.95,3.23,4.35,5.08,7.58,4.13,1.56-.46,2.85-1.5,3.63-2.93.78-1.43.96-3.08.5-4.64-.37-1.26.35-2.58,1.61-2.95,1.26-.37,2.58.35,2.95,1.61.82,2.78.51,5.71-.88,8.26-1.39,2.54-3.68,4.4-6.46,5.22-1.02.3-2.05.44-3.06.44Z"/>
          <path class="cls-10" d="M66.9,123.35c-4.69,0-9.02-3.07-10.41-7.79-.37-1.26.35-2.58,1.61-2.95,1.26-.37,2.58.35,2.95,1.61.95,3.23,4.35,5.08,7.58,4.13,3.23-.95,5.08-4.35,4.13-7.58-.37-1.26.35-2.58,1.61-2.95,1.26-.37,2.58.35,2.95,1.61,1.69,5.74-1.6,11.78-7.34,13.47-1.02.3-2.05.44-3.06.44Z"/>
        </g>
        <g>
          <g>
            <path class="cls-8" d="M140.18,109.35c-1.03,0-1.97-.67-2.28-1.7-.37-1.26.35-2.58,1.61-2.95l12.85-3.78c1.26-.37,2.58.35,2.95,1.61.37,1.26-.35,2.58-1.61,2.95l-12.85,3.78c-.22.07-.45.1-.67.1Z"/>
            <path class="cls-8" d="M154.25,118.32c-.05,0-.11,0-.16,0l-11.66-.8c-1.31-.09-2.3-1.22-2.21-2.53.09-1.31,1.22-2.3,2.53-2.21l11.66.8c1.31.09,2.3,1.22,2.21,2.53-.09,1.25-1.13,2.21-2.37,2.21Z"/>
          </g>
          <g>
            <path class="cls-8" d="M50.45,135.79c-1.03,0-1.97-.67-2.28-1.7-.37-1.26.35-2.58,1.61-2.95l12.85-3.78c1.26-.37,2.58.35,2.95,1.61.37,1.26-.35,2.58-1.61,2.95l-12.85,3.78c-.22.07-.45.1-.67.1Z"/>
            <path class="cls-8" d="M56.34,147.17c-.72,0-1.44-.33-1.9-.95-.78-1.05-.57-2.54.48-3.32l9.36-6.99c1.05-.78,2.54-.57,3.32.48.78,1.05.57,2.54-.48,3.32l-9.36,6.99c-.43.32-.92.47-1.42.47Z"/>
          </g>
        </g>
        <g>
          <path class="cls-3" d="M111.07,82.13c-1.03,0-1.97-.67-2.28-1.7-.37-1.26.35-2.58,1.61-2.95l6.74-1.99c1.26-.37,2.58.35,2.95,1.61.37,1.26-.35,2.58-1.61,2.95l-6.74,1.99c-.22.07-.45.1-.67.1Z"/>
          <path class="cls-3" d="M66.71,95.2c-1.03,0-1.97-.67-2.28-1.7-.37-1.26.35-2.58,1.61-2.95l6.74-1.99c1.26-.37,2.58.35,2.95,1.61.37,1.26-.35,2.58-1.61,2.95l-6.74,1.99c-.22.07-.45.1-.67.1Z"/>
        </g>
        <path class="cls-5" d="M115.1,103.2c-1.31.05-2.33,1.16-2.28,2.47.09,2.22-1.34,4.2-3.47,4.83-2.5.74-5.12-.64-5.95-3.09l1.17-.35c1.26-.37,1.98-1.69,1.61-2.95-.37-1.26-1.69-1.98-2.95-1.61l-7.22,2.13c-1.26.37-1.98,1.69-1.61,2.95.3,1.03,1.25,1.7,2.28,1.7.22,0,.45-.03.67-.1l1.47-.43c.63,2.5-.83,5.08-3.32,5.82-2.14.63-4.41-.27-5.54-2.18-.67-1.13-2.12-1.51-3.25-.84-1.13.67-1.51,2.12-.84,3.25,1.76,2.98,4.92,4.72,8.25,4.72.9,0,1.82-.13,2.72-.39,2.76-.81,4.88-2.76,6-5.19,2.26,1.43,5.1,1.92,7.85,1.11,4.23-1.24,7.05-5.18,6.87-9.58-.05-1.31-1.16-2.33-2.47-2.28Z"/>
      </g>
      <g>
        <g>
          <path class="cls-4" d="M155.26,99.98c6.48-2.37,14.01-1.33,19.69,3.41,5.68,4.74,8.05,11.96,6.88,18.77-6.48,2.37-14.01,1.33-19.69-3.41-5.68-4.74-8.05-11.96-6.87-18.77Z"/>
          <path class="cls-2" d="M174.96,125.74c-5.17,0-10.28-1.78-14.34-5.17-6.1-5.09-9.04-13.13-7.69-20.99.14-.84.72-1.53,1.52-1.82,7.49-2.74,15.93-1.27,22.03,3.82,6.1,5.09,9.04,13.13,7.69,20.99-.14.84-.72,1.53-1.52,1.82-2.5.91-5.1,1.36-7.68,1.36ZM157.41,101.78c-.52,5.74,1.8,11.44,6.24,15.15,4.44,3.71,10.47,4.97,16.02,3.43.52-5.74-1.8-11.44-6.24-15.15-4.44-3.71-10.47-4.97-16.02-3.43Z"/>
        </g>
        <path class="cls-2" d="M190.63,155.09c-.96,0-1.86-.59-2.22-1.54-13.37-35.53-6.76-60.27-6.48-61.31.35-1.26,1.66-2,2.92-1.65,1.26.35,2,1.66,1.65,2.92h0c-.07.24-6.45,24.39,6.34,58.37.46,1.23-.16,2.59-1.38,3.05-.27.1-.56.15-.83.15Z"/>
        <g>
          <path class="cls-3" d="M202.85,56.56l.15-.06c-5.6-16-22.84-1.46-22.84-1.46,0,0-19.93-10.57-22.01,6.26l.19.02c-6.38,1.05-11.8,4.72-9.97,11.05,1.15,3.99,5.54,4.21,9.81,3.32-3.64,6.32-2.37,15.12,4.3,14.4,9.18-.98,12.04-14.93,12.04-14.93,0,0-.42,18.8,9.7,17.72,10.13-1.09,5.73-19.37,5.73-19.37,0,0,5.75,13.02,14.93,12.04,6.67-.71,6.04-9.58,1.14-14.99,4.36-.03,8.6-1.17,8.88-5.32.45-6.56-5.61-9-12.05-8.68Z"/>
          <path class="cls-9" d="M210.71,55.32c-1.82-.71-3.9-1.08-6.07-1.14-1.69-3.83-4.25-6.24-7.61-7.16-3.56-.97-7.77-.19-12.53,2.33-1.95,1.04-3.59,2.15-4.63,2.92-1.18-.53-3.02-1.28-5.14-1.88-5.18-1.45-9.47-1.33-12.74.37-3.09,1.61-5.08,4.51-5.92,8.61-2.11.52-4.07,1.32-5.7,2.4-4.01,2.67-5.57,6.77-4.28,11.25.64,2.21,2.56,5.47,8.34,5.47,0,0,.02,0,.03,0-.74,2.58-.86,5.25-.31,7.55,1.04,4.41,4.33,6.86,8.58,6.4,4.94-.53,8.29-3.97,10.48-7.61.76,3.04,2.06,6.12,4.25,8.14,1.66,1.52,3.69,2.31,5.94,2.31.35,0,.71-.02,1.06-.06,2.67-.29,4.87-1.56,6.37-3.69,1.72-2.44,2.33-5.72,2.43-8.86,2.91,3.09,6.91,5.74,11.86,5.21,4.25-.46,6.95-3.55,7.03-8.08.05-2.37-.64-4.95-1.91-7.32,5.67-1.22,6.86-4.81,7.02-7.11.32-4.65-2.08-8.33-6.56-10.09ZM212.54,65.08c-.13,1.87-2,2.9-5.57,3.08-2.11-2.03-4.78-3.52-7.82-3.97-1.3-.19-2.5.71-2.69,2.01-.19,1.3.71,2.5,2.01,2.69,2.29.34,4.21,1.53,5.68,3.09.09.12.19.23.29.33,1.97,2.26,3.04,5.18,2.99,7.43-.06,3.15-2.11,3.37-2.79,3.45-2.94.31-5.89-1.27-8.76-4.73-2.37-2.84-3.73-5.88-3.74-5.91-.5-1.13-1.77-1.68-2.93-1.29-1.16.39-1.84,1.61-1.55,2.81.64,2.67,1.89,11.1-.68,14.75-.72,1.02-1.67,1.56-2.99,1.7-1.32.14-2.36-.18-3.28-1.03-3.3-3.03-3.86-11.33-3.8-14.28.03-1.23-.89-2.27-2.11-2.41-1.22-.14-2.35.68-2.6,1.88,0,.03-.7,3.29-2.41,6.57-2.07,3.98-4.62,6.16-7.56,6.47-.67.07-2.73.29-3.46-2.78-.52-2.19-.1-5.27,1.35-7.89.09-.12.16-.26.23-.4,1.1-1.83,2.72-3.4,4.89-4.21,1.23-.46,1.85-1.83,1.39-3.06s-1.83-1.85-3.06-1.39c-2.88,1.08-5.17,3.1-6.81,5.53-3.52.59-5.58-.03-6.1-1.83-.72-2.49.05-4.45,2.34-5.98,4.67-3.1,13.98-3.14,17.79-.07,1.02.82,2.52.66,3.34-.36.82-1.02.66-2.52-.36-3.34-2.96-2.39-7.78-3.49-12.59-3.3.63-1.75,1.62-2.96,3-3.68,4.45-2.32,12.25.77,14.88,2.16.86.45,1.9.34,2.64-.28,2.28-1.91,9.25-6.59,14.08-5.26,1.5.41,2.73,1.39,3.71,2.96-4.74.83-9.22,2.93-11.61,5.89-.82,1.02-.66,2.52.36,3.34,1.02.82,2.52.66,3.34-.36,3.07-3.81,12.17-5.74,17.4-3.7,2.57,1.01,3.73,2.75,3.55,5.34Z"/>
          <g>
            <path class="cls-6" d="M164.11,65.97c-.54-5.02,6.31-13.09,15.72-14.1s17.81,5.42,18.35,10.45-6.65,9.91-16.06,10.92-17.47-2.25-18.01-7.27Z"/>
            <path class="cls-1" d="M178.72,75.8c-3.61,0-7.01-.59-9.83-1.73-4.25-1.72-6.79-4.5-7.15-7.85h0c-.71-6.59,7.38-15.59,17.83-16.71,4.84-.52,9.81.66,14.02,3.31,4,2.52,6.59,5.98,6.94,9.24.36,3.34-1.53,6.6-5.33,9.18-3.35,2.28-7.91,3.82-12.84,4.35-1.23.13-2.45.2-3.64.2ZM166.47,65.72c.16,1.49,1.69,2.93,4.21,3.95,3,1.21,7.08,1.66,11.19,1.21,4.11-.44,8-1.74,10.68-3.56,2.24-1.52,3.43-3.26,3.27-4.75-.16-1.46-1.69-3.79-4.75-5.73-3.26-2.06-7.26-3.01-10.98-2.61-8.48.91-13.97,8.09-13.61,11.48h0Z"/>
          </g>
        </g>
      </g>
      <g>
        <path class="cls-7" d="M182.92,118.55c-8.21,1.91-13.32,10.11-11.41,18.32s10.11,13.32,18.32,11.41c8.21-1.91,9.5-9.22,7.6-17.44-1.91-8.21-6.29-14.21-14.51-12.3Z"/>
        <path class="cls-5" d="M186.38,151.06c-8.02,0-15.29-5.51-17.18-13.65-1.07-4.59-.28-9.32,2.21-13.32,2.49-4,6.39-6.79,10.98-7.86h0c8.5-1.97,14.82,3.16,17.36,14.08,2.54,10.92-.88,18.31-9.37,20.29-1.34.31-2.68.46-3.99.46ZM183.46,120.86h0c-3.35.78-6.2,2.82-8.02,5.74-1.82,2.92-2.39,6.38-1.61,9.73,1.38,5.95,6.7,9.97,12.55,9.97.96,0,1.94-.11,2.92-.34,5.8-1.35,7.76-6.25,5.82-14.59-1.94-8.33-5.86-11.87-11.65-10.53Z"/>
      </g>
      <g>
        <g>
          <path class="cls-4" d="M156.83,153.61c-6.9-.26-13.74,3.04-17.69,9.3-3.95,6.26-3.98,13.86-.78,19.97,6.9.26,13.74-3.04,17.69-9.3,3.95-6.26,3.98-13.86.78-19.97Z"/>
          <path class="cls-2" d="M139.11,185.26c-.28,0-.56,0-.84-.02-.85-.03-1.62-.52-2.01-1.27-3.7-7.06-3.37-15.62.87-22.34,4.24-6.72,11.83-10.7,19.79-10.4.85.03,1.62.52,2.01,1.27,3.7,7.06,3.37,15.62-.87,22.34-4.09,6.48-11.29,10.42-18.94,10.42ZM155.33,155.98c-5.76.24-11.1,3.3-14.19,8.19-3.09,4.89-3.54,11.03-1.28,16.33,5.76-.24,11.1-3.3,14.19-8.19,3.09-4.9,3.54-11.03,1.28-16.33Z"/>
        </g>
        <path class="cls-2" d="M139.37,217.03s-.08,0-.11,0c-1.31-.06-2.32-1.17-2.26-2.48,1.73-36.27-11.76-57.29-11.9-57.5-.72-1.09-.41-2.56.68-3.28,1.09-.72,2.56-.42,3.28.67.59.9,14.49,22.41,12.68,60.33-.06,1.27-1.11,2.26-2.37,2.26Z"/>
        <g>
          <path class="cls-3" d="M154.89,125.22c-.2-6.58-6.49-8.4-12.88-7.45l.18-.08c-7.15-15.37-22.87.81-22.87.81,0,0-20.88-8.55-21.29,8.4h.16c-6.23,1.69-11.24,5.87-8.8,11.98,1.54,3.86,5.93,3.64,10.09,2.34-3,6.65-.86,15.28,5.7,13.91,9.04-1.89,10.51-16.04,10.51-16.04,0,0,1.43,18.75,11.41,16.67,9.97-2.08,3.79-19.84,3.79-19.84,0,0,7,12.39,16.04,10.51,6.56-1.37,5.07-10.13-.34-15.02,4.34-.46,8.44-2.02,8.32-6.17Z"/>
          <path class="cls-9" d="M157.27,125.14c-.14-4.66-2.89-8.08-7.52-9.39-1.88-.53-3.99-.69-6.16-.54-2.06-3.65-4.84-5.79-8.28-6.37-3.64-.62-7.75.58-12.24,3.56-1.84,1.22-3.36,2.5-4.32,3.37-1.23-.41-3.13-.97-5.3-1.36-5.3-.94-9.55-.39-12.64,1.63-2.92,1.91-4.61,4.99-5.04,9.15-2.05.73-3.92,1.72-5.43,2.95-3.73,3.05-4.88,7.29-3.15,11.62.78,1.96,2.73,4.68,7.48,4.68.44,0,.9-.03,1.38-.07-.48,2.65-.34,5.31.43,7.55,1.47,4.28,4.99,6.4,9.18,5.53,4.87-1.01,7.86-4.77,9.68-8.61,1.06,2.95,2.65,5.89,5.04,7.68,1.55,1.17,3.33,1.76,5.22,1.76.65,0,1.3-.07,1.97-.21,2.63-.55,4.69-2.03,5.97-4.3,1.47-2.6,1.76-5.93,1.55-9.06,3.2,2.79,7.45,5.03,12.31,4.02,4.19-.87,6.56-4.22,6.2-8.73-.19-2.36-1.13-4.86-2.62-7.09,5.52-1.77,6.36-5.47,6.28-7.77ZM147.28,128.91c-2.3-1.81-5.1-3.03-8.18-3.18-1.31-.06-2.42.95-2.48,2.26-.06,1.31.95,2.42,2.26,2.48,5.72.27,9.67,5.95,9.99,9.91.25,3.14-1.77,3.57-2.44,3.71-2.9.6-5.99-.69-9.18-3.84-2.64-2.6-4.29-5.49-4.31-5.51-.6-1.07-1.92-1.5-3.04-1-1.12.51-1.67,1.78-1.27,2.94.96,2.78,2.98,10.86.78,14.75-.61,1.08-1.51,1.71-2.81,1.98-1.3.27-2.37.05-3.37-.7-3.58-2.69-4.96-10.9-5.19-13.83-.09-1.23-1.11-2.18-2.34-2.19-.01,0-.02,0-.03,0-1.21,0-2.24.92-2.36,2.13-.01.12-1.49,12.47-8.63,13.96-.66.14-2.69.56-3.71-2.42-1.29-3.75.06-10.54,5.2-13.07,1.18-.58,1.66-2,1.08-3.18-.58-1.18-2-1.66-3.18-1.08-2.76,1.36-4.84,3.6-6.23,6.18-3.45.93-5.55.52-6.25-1.22-.96-2.41-.39-4.43,1.74-6.18,4.34-3.55,13.6-4.51,17.69-1.83,1.1.72,2.57.41,3.29-.69.72-1.1.41-2.57-.69-3.29-3.18-2.09-8.09-2.71-12.86-2.04.45-1.8,1.32-3.11,2.62-3.96,4.19-2.75,12.26-.44,15.02.68.9.37,1.93.15,2.6-.54,2.07-2.13,8.53-7.47,13.49-6.63,1.54.26,2.85,1.11,3.99,2.58-4.64,1.3-8.89,3.83-10.97,7.01-.72,1.1-.41,2.57.69,3.29,1.1.72,2.57.41,3.29-.69,2.68-4.09,11.56-6.92,16.96-5.4,2.65.75,3.98,2.37,4.06,4.96.06,1.87-1.71,3.09-5.24,3.62Z"/>
          <g>
            <path class="cls-6" d="M137.96,123.96c-1.03-4.95-10.03-10.52-19.29-8.58-9.26,1.93-15.28,10.63-14.25,15.58,1.03,4.95,9.38,7.39,18.64,5.46s15.93-7.51,14.9-12.45Z"/>
            <path class="cls-1" d="M116.87,139.44c-7.72,0-13.74-3.04-14.78-8.01-.67-3.21.74-7.3,3.77-10.92,3.19-3.82,7.56-6.47,12.32-7.46,10.28-2.15,20.74,3.94,22.1,10.42h0c1.32,6.32-6.03,13.03-16.74,15.26-2.3.48-4.55.71-6.66.71ZM122.55,117.34c-1.11,0-2.24.11-3.4.35-3.66.76-7.18,2.9-9.65,5.86-2.33,2.79-3.06,5.48-2.76,6.92.79,3.8,9.01,5.05,15.83,3.62,6.82-1.42,13.86-5.85,13.07-9.65-.6-2.88-6.21-7.1-13.09-7.1Z"/>
          </g>
        </g>
      </g>
      <path class="cls-7" d="M104.85,192.55s37.85-14.88,43.17-1.89c5.31,12.99-42.78,34.35-56.95,25.6l13.78-23.71Z"/>
      <path class="cls-5" d="M100.24,220.69c-3.86,0-7.56-.64-10.42-2.41-18.33-11.32-13.99-33.55-6.56-55.89.41-1.24,4.92.25,4.51,1.5-4.53,13.62-6.46,23.55-6.09,31.25.43,8.81,3.81,14.87,10.64,19.09,4.06,2.51,12.58,2.21,22.78-.8,9.83-2.9,19.63-7.83,25.57-12.86,1.97-1.67,6.43-5.9,5.15-9.02-1.66-4.05-9.06-4.94-20.85-2.51-9.82,2.03-19.16,5.67-19.25,5.71-1.22.48-2.6-.12-3.08-1.34-.48-1.22.12-2.6,1.34-3.08.39-.15,9.77-3.82,19.98-5.93,14.72-3.05,23.56-1.25,26.26,5.35,1.24,3.03,1.12,8-6.48,14.44-6.41,5.43-16.87,10.72-27.29,13.79-4.13,1.22-10.34,2.69-16.2,2.69Z"/>
    </g>
  </g>
</svg>