<?xml version="1.0" encoding="UTF-8"?>
<svg id="Capa_2" xmlns="http://www.w3.org/2000/svg" viewBox="0 0 177.85 220.69">
  <defs>
    <style>
      .cls-1 {
        fill: #5f5c5d;
      }

      .cls-2 {
        fill: #fff;
      }

      .cls-3 {
        fill: #6f818c;
      }

      .cls-4 {
        fill: #95a1b3;
      }

      .cls-5 {
        fill: #b2b8c4;
      }
    </style>
  </defs>
  <g id="OBJECTS">
    <g>
      <path class="cls-5" d="M171.56,5.34c-10.07-10.07-42.15,8.25-56.28,17.13-6.99-1.16-16.01-1.64-26.34-1.59-10.33-.05-19.35.43-26.35,1.59C48.45,13.59,16.37-4.72,6.31,5.34c-10,10,1.42,37.44,7.28,49.66-6.93,11.71-9.46,24.53-9.46,35.57,0,9.55,1.14,19.08,3.42,28.62,4.46,18.61,19.18,32.9,37.93,36.7,1.57.32,3.15.62,4.72.9-18.44,25.44-29.26,58.41-11.36,61.36,8.54,1.41,14.24-6.38,17.89-15.17,7.46,7.74,19.11,12.73,32.2,12.73s24.74-4.99,32.2-12.73c3.66,8.79,9.35,16.58,17.89,15.17,17.9-2.95,7.08-35.92-11.36-61.36,1.58-.28,3.15-.58,4.73-.9,18.75-3.8,33.47-18.09,37.93-36.7,2.29-9.53,3.42-19.07,3.42-28.62,0-11.04-2.53-23.86-9.46-35.56,5.85-12.21,17.27-39.67,7.27-49.67Z"/>
      <g>
        <path class="cls-4" d="M99.19,27.69c0,15.8-4.6,28.6-10.25,28.6s-10.26-12.8-10.26-28.6c0-2.17.08-4.27.25-6.29,6.67-.3,13.33-.3,20,.01.17,2.02.25,4.13.25,6.28Z"/>
        <g>
          <path class="cls-4" d="M77.17,22.5c0,15.79-4.59,28.6-10.25,28.6s-9.92-11.92-10.24-26.92c3.52-.92,7.16-1.57,10.89-1.95,3.19-.31,6.39-.57,9.58-.74.01.34.01.67.01,1Z"/>
          <path class="cls-4" d="M121.19,24.05c-.29,15.06-4.77,27.06-10.24,27.06s-10.25-12.81-10.25-28.6c0-.34,0-.67.01-1,3.67.19,7.34.5,11.01.88,3.23.34,6.39.91,9.46,1.67Z"/>
        </g>
      </g>
      <path class="cls-2" d="M159.76,29.65s1.63,3.7,1.9,7.85c.25,3.84-2.06,6.76-5.08,7.99-6.35-7.22-14.19-13.13-23.05-17.23.08-2.08.96-4.13,2.65-5.66,6.8-6.18,16.2-12.85,22.86-10.14,11.59,4.73.73,17.19.73,17.19Z"/>
      <path class="cls-2" d="M18.1,29.65s-1.63,3.7-1.9,7.85c-.25,3.84,2.06,6.76,5.08,7.99,6.35-7.22,14.19-13.13,23.05-17.23-.08-2.08-.96-4.13-2.65-5.66-6.8-6.18-16.2-12.85-22.86-10.14-11.59,4.73-.73,17.19-.73,17.19Z"/>
      <path class="cls-3" d="M156.51,41.09c-.92-.93-2.43-.94-3.36-.02-.93.92-.94,2.43-.02,3.36,15.86,16.02,18.23,35.79,18.23,46.15,0,9.33-1.13,18.77-3.36,28.06-2.09,8.7-6.57,16.57-12.95,22.75-6.39,6.19-14.4,10.4-23.14,12.17-9.02,1.82-18.17,3.09-27.19,3.76-1.31.1-2.29,1.24-2.19,2.54.09,1.25,1.13,2.2,2.37,2.2.06,0,.12,0,.18,0,7.14-.53,14.35-1.43,21.52-2.67,14.3,20.16,22.11,42.21,18.21,51.7-1.1,2.67-3.12,4.22-6.17,4.72-2.62.43-5-.18-7.28-1.87-10.22-7.6-13.59-32.83-13.62-33.08-.17-1.3-1.36-2.22-2.66-2.05-1.3.17-2.22,1.36-2.05,2.66.14,1.12,3.66,27.48,15.5,36.28,2.63,1.96,5.49,2.94,8.51,2.94.78,0,1.58-.07,2.38-.2,4.68-.77,8.06-3.39,9.79-7.6,3.08-7.48.32-18.36-2.54-26.17-3.33-9.11-8.59-19.04-14.93-28.28.38-.07.76-.14,1.14-.22,9.64-1.95,18.46-6.59,25.51-13.42,7.03-6.81,11.97-15.48,14.27-25.06,2.32-9.66,3.49-19.47,3.49-29.17,0-11.09-2.55-32.26-19.61-49.49Z"/>
      <path class="cls-3" d="M173.23,3.66c-5.17-5.17-14.72-4.87-29.18.93-10.64,4.27-21.66,10.64-29.29,15.4-6.7-1.03-15.35-1.53-25.83-1.49-10.5-.04-19.15.46-25.85,1.49-7.64-4.77-18.67-11.14-29.29-15.4C19.34-1.21,9.8-1.51,4.62,3.66c-10.48,10.48-.85,36.09,6.27,51.22C3.16,68.51,1.75,82.33,1.75,90.57c0,9.7,1.17,19.52,3.49,29.17,2.3,9.58,7.23,18.24,14.26,25.06,7.05,6.82,15.87,11.46,25.51,13.42.38.08.75.15,1.13.22-6.35,9.24-11.6,19.17-14.93,28.28-2.86,7.81-5.62,18.69-2.54,26.17,1.73,4.2,5.11,6.83,9.78,7.59.81.13,1.6.2,2.38.2,3.02,0,5.88-.99,8.51-2.95,11.84-8.81,15.35-35.16,15.49-36.28.17-1.3-.75-2.49-2.05-2.66-1.3-.17-2.49.75-2.66,2.05-.03.25-3.39,25.47-13.62,33.08-2.27,1.69-4.66,2.31-7.29,1.87-3.05-.5-5.06-2.04-6.16-4.71-3.9-9.49,3.9-31.54,18.2-51.7,6.28,1.09,12.6,1.91,18.85,2.45.07,0,.14,0,.21,0,1.22,0,2.26-.93,2.36-2.17.11-1.31-.85-2.46-2.16-2.57-8.15-.71-16.42-1.9-24.57-3.55-8.75-1.77-16.75-5.98-23.14-12.17-6.38-6.18-10.86-14.05-12.95-22.75-2.23-9.29-3.36-18.73-3.36-28.06,0-10.36,2.37-30.12,18.23-46.15.92-.93.92-2.44-.02-3.36-.93-.92-2.44-.92-3.36.02-2.88,2.91-5.33,5.93-7.44,8.99C4.33,28.86,2.09,12.91,7.98,7.02c5.7-5.7,23.99-.19,48.31,14.38-.09.02-.18.05-.27.07-4.45,1.27-8.72,2.81-12.67,4.59-1.2.54-1.73,1.94-1.19,3.14.4.88,1.26,1.4,2.17,1.4.33,0,.66-.07.97-.21,3.75-1.69,7.79-3.15,12.02-4.35,6.75-1.91,17.38-2.86,31.62-2.79,14.22-.07,24.85.88,31.6,2.79,4.23,1.2,8.28,2.67,12.03,4.36,1.2.54,2.6,0,3.14-1.19.54-1.2,0-2.6-1.19-3.14-3.96-1.78-8.22-3.32-12.68-4.59-.09-.03-.19-.05-.28-.07,24.32-14.58,42.6-20.09,48.31-14.38,6.24,6.24,3.35,23.79-7.74,46.97l4.29,2.05c7.15-14.95,17.54-41.64,6.81-52.37Z"/>
      <g>
        <circle class="cls-1" cx="124.88" cy="98.11" r="9.51" transform="translate(-32.8 117.04) rotate(-45)"/>
        <circle class="cls-1" cx="52.99" cy="98.11" r="9.51" transform="translate(-53.85 66.21) rotate(-45)"/>
      </g>
      <g>
        <g>
          <path class="cls-4" d="M148.95,114.27h-15.03c-1.31,0-2.37-1.06-2.37-2.38s1.06-2.38,2.37-2.38h15.03c1.31,0,2.38,1.06,2.38,2.38s-1.06,2.38-2.38,2.38Z"/>
          <path class="cls-4" d="M146.22,128.4c-.27,0-.55-.05-.82-.15l-12.3-4.56c-1.23-.46-1.86-1.82-1.4-3.05.46-1.23,1.82-1.86,3.05-1.4l12.3,4.56c1.23.46,1.86,1.82,1.4,3.05-.35.96-1.26,1.55-2.23,1.55Z"/>
        </g>
        <g>
          <path class="cls-4" d="M43.95,114.27h-15.03c-1.31,0-2.38-1.06-2.38-2.38s1.06-2.38,2.38-2.38h15.03c1.31,0,2.38,1.06,2.38,2.38s-1.06,2.38-2.38,2.38Z"/>
          <path class="cls-4" d="M31.65,128.4c-.96,0-1.87-.59-2.23-1.55-.46-1.23.17-2.6,1.4-3.05l12.3-4.56c1.23-.46,2.6.17,3.05,1.4.46,1.23-.17,2.6-1.4,3.05l-12.3,4.56c-.27.1-.55.15-.82.15Z"/>
        </g>
      </g>
      <g>
        <path class="cls-2" d="M118.83,79.24h-7.89c-1.31,0-2.37-1.06-2.37-2.38s1.06-2.38,2.37-2.38h7.89c1.31,0,2.37,1.06,2.37,2.38s-1.06,2.38-2.37,2.38Z"/>
        <path class="cls-2" d="M66.92,79.24h-7.89c-1.31,0-2.37-1.06-2.37-2.38s1.06-2.38,2.37-2.38h7.89c1.31,0,2.37,1.06,2.37,2.38s-1.06,2.38-2.37,2.38Z"/>
      </g>
      <path class="cls-3" d="M105.47,97.79c-1.27-.32-2.56.45-2.88,1.73-.64,2.55-2.92,4.32-5.55,4.32-3.16,0-5.73-2.57-5.73-5.73v-2.04h1.85c1.31,0,2.37-1.06,2.37-2.38s-1.06-2.38-2.37-2.38h-8.44c-1.31,0-2.37,1.06-2.37,2.38s1.06,2.38,2.37,2.38h1.85v2.04c0,3.16-2.57,5.73-5.73,5.73-2.63,0-4.92-1.78-5.56-4.32-.32-1.27-1.61-2.05-2.88-1.73-1.27.32-2.04,1.61-1.73,2.88,1.17,4.66,5.35,7.92,10.16,7.92,3.26,0,6.18-1.5,8.1-3.84,1.92,2.34,4.84,3.84,8.11,3.84,4.81,0,8.99-3.26,10.16-7.92.32-1.27-.45-2.56-1.73-2.88Z"/>
    </g>
  </g>
</svg>