<?xml version="1.0" encoding="UTF-8"?>
<svg id="Capa_2" xmlns="http://www.w3.org/2000/svg" viewBox="0 0 208.4 220.69">
  <defs>
    <style>
      .cls-1 {
        fill: #5f5c5d;
      }

      .cls-2 {
        fill: #f9cb71;
      }

      .cls-3 {
        fill: #fff;
      }

      .cls-4 {
        fill: #6f818c;
      }

      .cls-5 {
        fill: #63d3d6;
      }

      .cls-6 {
        fill: #95a1b3;
      }

      .cls-7 {
        fill: #b2b8c4;
      }

      .cls-8 {
        fill: #ffffa1;
      }

      .cls-9 {
        fill: #e27fa3;
      }

      .cls-10 {
        fill: #a484d8;
      }

      .cls-11 {
        fill: #a3d676;
      }

      .cls-12 {
        fill: #dd528b;
      }

      .cls-13 {
        fill: #87b758;
      }

      .cls-14 {
        fill: #95e0e8;
      }
    </style>
  </defs>
  <g id="OBJECTS">
    <g>
      <g>
        <path class="cls-7" d="M200.26,37.39c-7.23-11.33-40.52-.97-55.35,4.34-6.21-2.49-14.42-4.77-23.95-6.83-9.51-2.14-17.92-3.54-24.61-3.89C85.14,19.96,59.3-3.44,47.97,3.79c-11.24,7.18-6.31,34.79-3.39,47.25-8.77,9.38-13.71,20.68-15.95,30.85-1.94,8.8-2.83,17.82-2.66,27.07.33,18.06,10.99,34.22,27.5,41.53,4.11,1.82,8.26,3.49,12.43,5.03-.36,2.71-1.29,5.35-2.65,7.87-.22.37-.44.76-.65,1.14-4.85,8.12-13.95,14.81-21.65,18.11-10.53,4.51-11.82,19.02-4.08,26.76,6.75,6.75,19.44,5.89,29.4-4.93,7.88,9.82,20.73,16.21,35.25,16.21,23.97,0,43.4-17.43,43.4-38.93,0-5.02-1.06-9.81-2.98-14.21,14.65-2.43,27.39-11.81,34.04-25.49,4.05-8.32,7.03-16.88,8.97-25.68,2.24-10.17,2.52-22.5-1.48-34.69,7.87-10.07,23.98-33.05,16.8-44.3ZM66.01,155.56c.84.31,1.67.62,2.51.92-.76.8-1.48,1.62-2.17,2.48l-.35-3.39Z"/>
        <path class="cls-4" d="M47.75,216.11c-4.9,0-9.3-1.74-12.57-5.01-4.51-4.51-6.54-11.33-5.3-17.78,1.14-5.91,4.83-10.61,10.13-12.88,13.76-5.9,22.21-16.94,23.45-24.79.21-1.31,1.44-2.21,2.75-2,1.31.21,2.2,1.44,2,2.75-.93,5.89-4.38,11.92-9.98,17.43-4.61,4.53-10.56,8.55-16.32,11.03-3.81,1.64-6.48,5.05-7.31,9.38-.95,4.91.58,10.08,3.98,13.48,2.72,2.72,6.59,3.96,10.91,3.51,6.95-.73,13.85-5.63,18.94-13.44.72-1.11,2.21-1.42,3.32-.7,1.11.72,1.43,2.21.7,3.32-5.88,9.04-14.07,14.72-22.46,15.6-.75.08-1.5.12-2.23.12Z"/>
        <g>
          <path class="cls-6" d="M129.03,43.27c-3.21,14.56-10.05,25.43-15.26,24.28-5.22-1.15-6.85-13.88-3.64-28.45.44-2,.95-3.92,1.51-5.75,6.21,1.08,12.35,2.43,18.43,4.08-.25,1.9-.6,3.85-1.04,5.84Z"/>
          <g>
            <path class="cls-6" d="M109.79,34.01c-3.21,14.55-10.04,25.43-15.26,24.28-5.02-1.11-6.72-13-3.96-26.89,3.43-.13,6.92,0,10.43.42,3.01.36,6,.77,8.98,1.27-.06.31-.12.62-.19.93Z"/>
            <path class="cls-6" d="M150.04,44.39c-3.33,13.82-9.89,23.96-14.94,22.85-5.22-1.15-6.84-13.89-3.63-28.44.07-.31.14-.61.22-.92,3.34.92,6.67,1.95,9.97,3.05,2.91.97,5.7,2.14,8.38,3.46Z"/>
          </g>
        </g>
        <path class="cls-3" d="M184.45,57.4s.75,3.74.15,7.62c-.55,3.59-3.27,5.82-6.31,6.33-4.39-7.95-10.41-14.98-17.74-20.57.5-1.9,1.72-3.61,3.59-4.68,7.52-4.32,17.54-8.55,23.13-4.7,9.72,6.72-2.83,15.99-2.83,15.99Z"/>
        <path class="cls-3" d="M53.9,28.59s-2.26,3.08-3.35,6.85c-1.01,3.48.52,6.65,3.06,8.39,7.32-5.37,15.75-9.21,24.75-11.19.34-1.94-.04-4-1.29-5.76-5.01-7.08-12.32-15.14-19-13.99-11.64,2-4.16,15.7-4.16,15.7Z"/>
        <path class="cls-4" d="M202.28,36.1c-3.75-5.88-12.66-7.56-27.24-5.15-10.66,1.77-22.09,5.38-30.09,8.22-5.97-2.31-13.82-4.52-23.46-6.61-9.64-2.17-17.7-3.47-24.09-3.88-6.07-5.95-14.93-14.04-23.84-20.13C61.35.23,52.56-1.99,46.68,1.76c-11.85,7.57-8.22,33.13-4.72,48.57-9.88,11-13.99,23.44-15.67,31.04-1.98,8.95-2.89,18.25-2.72,27.63.17,9.33,2.96,18.34,8.08,26.08,5.12,7.75,12.33,13.84,20.85,17.61,9.42,4.17,19.14,7.66,28.89,10.36.21.06.43.09.64.09,1.05,0,2.02-.7,2.31-1.76.35-1.28-.39-2.6-1.67-2.96-9.52-2.64-19.02-6.05-28.23-10.13-7.67-3.4-14.17-8.89-18.79-15.87-4.61-6.97-7.13-15.1-7.28-23.52-.16-9,.71-17.92,2.61-26.51,2.1-9.52,8.29-27.21,26.11-38.72,1.11-.72,1.43-2.21.71-3.32-.72-1.11-2.21-1.43-3.32-.71-3.16,2.04-5.98,4.27-8.5,6.6-4.43-21.29-3.26-36.26,3.28-40.44,6.32-4.03,21.86,4.66,41.13,22.8-4.33.27-8.55.82-12.53,1.65-1.3.27-2.13,1.54-1.86,2.84.27,1.3,1.54,2.13,2.84,1.86,3.79-.79,7.81-1.32,11.94-1.57,6.59-.39,16.56.9,29.66,3.86,13.11,2.83,22.7,5.85,28.51,8.98,3.65,1.97,7.07,4.14,10.18,6.45.43.32.93.48,1.43.48.73,0,1.46-.33,1.93-.97.79-1.06.57-2.57-.49-3.36-3.27-2.43-6.86-4.71-10.68-6.77,25.11-8.36,42.87-9.7,46.91-3.38,4.17,6.53-1.07,20.61-14.03,38.07-1.31-3.17-2.93-6.38-4.94-9.56-.71-1.12-2.19-1.46-3.31-.75-1.12.71-1.46,2.19-.75,3.31,11.33,17.94,9.5,36.6,7.4,46.12-1.89,8.59-4.85,17.05-8.79,25.14-3.68,7.57-9.39,13.88-16.5,18.27-7.13,4.39-15.31,6.63-23.72,6.49-.01,0-.03,0-.04,0-1.31,0-2.38,1.05-2.4,2.36-.02,1.33,1.03,2.42,2.36,2.44.28,0,.57,0,.85,0,9.01,0,17.8-2.48,25.47-7.21,7.89-4.86,14.22-11.87,18.3-20.26,4.1-8.44,7.18-17.25,9.16-26.21,1.68-7.6,3.18-20.62-1.15-34.75,9.66-12.54,23.7-34.22,16.15-46.05Z"/>
        <g>
          <g>
            <path class="cls-6" d="M157.76,133.4c-.17,0-.35-.02-.52-.06l-13.85-3.06c-1.3-.29-2.11-1.57-1.83-2.86.29-1.3,1.57-2.11,2.86-1.83l13.85,3.06c1.3.29,2.11,1.57,1.83,2.86-.25,1.12-1.24,1.88-2.34,1.88Z"/>
            <path class="cls-6" d="M152.37,145.85c-.45,0-.9-.12-1.3-.38l-10.41-6.7c-1.12-.72-1.44-2.2-.72-3.32.72-1.12,2.2-1.44,3.32-.72l10.41,6.7c1.12.72,1.44,2.2.72,3.32-.46.71-1.23,1.1-2.02,1.1Z"/>
          </g>
          <g>
            <path class="cls-6" d="M61,112.05c-.17,0-.35-.02-.52-.06l-13.85-3.06c-1.3-.29-2.11-1.57-1.83-2.86.29-1.3,1.57-2.11,2.86-1.83l13.85,3.06c1.3.29,2.11,1.57,1.83,2.86-.25,1.12-1.24,1.88-2.34,1.88Z"/>
            <path class="cls-6" d="M46.79,122.56c-1.18,0-2.21-.87-2.38-2.07-.18-1.31.74-2.53,2.05-2.71l12.26-1.7c1.32-.18,2.53.74,2.71,2.05s-.74,2.53-2.05,2.71l-12.26,1.7c-.11.02-.22.02-.33.02Z"/>
          </g>
        </g>
        <g>
          <path class="cls-3" d="M137.13,94.98c-.17,0-.35-.02-.52-.06l-7.27-1.6c-1.29-.29-2.11-1.57-1.83-2.86.29-1.3,1.57-2.11,2.86-1.83l7.27,1.6c1.3.29,2.11,1.57,1.83,2.86-.25,1.12-1.24,1.88-2.34,1.88Z"/>
          <path class="cls-3" d="M89.29,84.43c-.17,0-.35-.02-.52-.06l-7.27-1.6c-1.3-.29-2.11-1.57-1.83-2.86.29-1.3,1.57-2.11,2.86-1.83l7.27,1.6c1.3.29,2.11,1.57,1.83,2.86-.25,1.12-1.24,1.88-2.34,1.88Z"/>
        </g>
        <g>
          <path class="cls-4" d="M78.18,129.31c2.06,3.87,5.52,7.58,9.94,10.3,2.8,1.72,5.97,3.04,9.41,3.76,8.9,1.84,17.59-.8,23.16-5.29,1-.8,1.89-1.66,2.67-2.57,1.64-1.91,2.77-4.02,3.22-6.18,2.65-12.79-8.53-15.41-22.37-18.27-13.86-2.86-24.89-3.38-27.8,7.91-.81,3.16-.11,6.82,1.76,10.35Z"/>
          <path class="cls-9" d="M123.37,135.5c-5.13,5.98-15.34,10.02-25.83,7.85-8.89-1.84-16-7.73-19.36-14.05,7.67-4.35,24.3-9.89,45.19,6.19Z"/>
          <path class="cls-4" d="M122.9,114.45s-.02-.02-.03-.03c-3.92-2.44-9.27-3.84-15.78-5.23l.93-4.32,1.52.33c.17.04.35.06.52.06,1.1,0,2.1-.76,2.34-1.88.29-1.3-.53-2.58-1.83-2.86l-7.78-1.72c-1.3-.29-2.58.53-2.86,1.83-.29,1.3.53,2.58,1.83,2.86l1.57.35-.95,4.39c-6.19-1.18-12.86-1.98-18.07-.56,0,0,0,0,0,0,0,0,0,0,0,0-5.31,1.45-8.75,5.04-10.2,10.68-1.06,4.12-.06,8.95,2.83,13.58,4.3,6.91,11.83,12.05,20.12,13.77,2.1.43,4.22.65,6.34.65,4.96,0,9.88-1.18,14.29-3.46,6.01-3.12,10.22-8.01,11.27-13.08,1.41-6.8-.63-11.97-6.05-15.36ZM124.24,128.84c-.76,3.67-4.04,7.33-8.78,9.79-5.32,2.76-11.51,3.6-17.44,2.38-6.93-1.43-13.45-5.88-17.02-11.6-2.16-3.46-2.98-7.05-2.26-9.84,1.02-3.95,3.18-6.26,6.81-7.25h0s0,0,0,0c4.89-1.33,11.93-.2,18.17,1.09,7.12,1.47,12.86,2.78,16.57,5.09,0,0,.01,0,.02.01,3.76,2.34,4.93,5.43,3.92,10.34Z"/>
        </g>
        <g>
          <path class="cls-1" d="M79.66,104.84c-.79,0-1.57-.39-2.03-1.11-3.25-5.09-10.04-6.59-15.14-3.34-1.12.71-2.6.39-3.32-.73-.71-1.12-.39-2.6.73-3.32,7.32-4.68,17.09-2.52,21.77,4.8.71,1.12.39,2.6-.73,3.32-.4.26-.85.38-1.29.38Z"/>
          <path class="cls-1" d="M148.46,120.02c-.79,0-1.57-.39-2.03-1.11-3.25-5.09-10.04-6.59-15.14-3.34-1.12.71-2.6.39-3.32-.73-.71-1.12-.39-2.6.73-3.32,7.32-4.68,17.09-2.52,21.77,4.8.71,1.12.39,2.6-.73,3.32-.4.26-.85.38-1.29.38Z"/>
        </g>
      </g>
      <path class="cls-7" d="M121.6,170.25c18.45-23.07,50.05-69.88,66.82-60.94,16.77,8.95-41.25,74.23-41.25,74.23l-25.57-13.3Z"/>
      <path class="cls-4" d="M147.17,185.94c-.57,0-1.14-.2-1.59-.61-.99-.88-1.08-2.4-.2-3.39.12-.13,11.87-13.39,23.1-28.53,19.31-26.05,21.12-35.95,20.48-39.54-.21-1.19-.73-1.95-1.67-2.45-5.17-2.76-13.36,1.34-24.33,12.17-10.17,10.05-20.78,23.89-30.14,36.1-3.34,4.36-6.5,8.48-9.35,12.04-.83,1.04-2.34,1.2-3.37.38-1.04-.83-1.2-2.34-.38-3.37,2.81-3.52,5.96-7.62,9.29-11.96,19.85-25.9,44.54-58.13,60.54-49.59,2.23,1.19,3.66,3.21,4.13,5.84,1.4,7.83-5.59,21.98-21.37,43.27-11.35,15.31-23.23,28.71-23.35,28.84-.47.53-1.13.81-1.8.81Z"/>
      <g>
        <path class="cls-10" d="M51.1,62.98c-17.17.49-30.75-.5-36.79-1.32-1.31-.18-2.23-1.39-2.05-2.7.18-1.31,1.39-2.24,2.7-2.05,8.25,1.12,30.86,2.55,57.37-.07,19.43-1.92,38.16-5.65,55.66-11.08,21.84-6.78,41.83-16.25,59.41-28.15,1.1-.74,2.59-.46,3.33.64.74,1.1.46,2.59-.64,3.33-18,12.18-38.44,21.86-60.76,28.78-17.83,5.53-36.9,9.32-56.67,11.27-7.58.75-14.84,1.16-21.56,1.36Z"/>
        <polygon class="cls-14" points="168.44 30.16 183.08 70.9 163.65 64.55 152.32 80.43 137.27 43.27 168.44 30.16"/>
        <path class="cls-5" d="M152.38,82.83c-.12,0-.23,0-.35-.02-.87-.1-1.62-.67-1.94-1.48l-15.05-37.16c-.49-1.22.08-2.61,1.29-3.11l31.17-13.11c.61-.26,1.29-.25,1.9.02.6.26,1.07.77,1.29,1.39l14.63,40.74c.31.86.1,1.83-.54,2.48-.64.66-1.6.89-2.47.61l-17.75-5.8-10.31,14.44c-.44.62-1.14.98-1.89,1.01ZM140.38,44.57l12.52,30.91,8.79-12.32c.61-.85,1.7-1.21,2.7-.89l14.77,4.83-12.12-33.74-26.66,11.21Z"/>
        <polygon class="cls-8" points="22.71 54.11 21.33 97.38 37.86 85.35 53.53 96.97 56.41 56.99 22.71 54.11"/>
        <path class="cls-2" d="M53.6,99.37c-.53.02-1.06-.14-1.5-.47l-14.25-10.57-15.1,10.99c-.74.54-1.73.61-2.54.18-.81-.43-1.31-1.28-1.28-2.2l1.38-43.27c.02-.66.31-1.28.8-1.72.49-.44,1.14-.65,1.8-.6l33.7,2.88c1.31.11,2.28,1.25,2.19,2.56l-2.88,39.99c-.06.87-.6,1.64-1.39,2.01-.3.14-.62.21-.93.22ZM37.79,82.95c.53-.01,1.05.14,1.5.47l12.16,9.02,2.4-33.26-28.81-2.46-1.14,35.83,12.56-9.14c.4-.29.87-.44,1.34-.46Z"/>
        <polygon class="cls-11" points="116.94 48.48 103.06 90.28 79.38 53.9 116.94 48.48"/>
        <path class="cls-13" d="M102.97,92.67c-.77-.03-1.5-.43-1.93-1.09l-23.67-36.37c-.45-.69-.51-1.55-.17-2.3.34-.75,1.03-1.27,1.84-1.39l37.56-5.42c.83-.12,1.65.2,2.18.84.53.64.7,1.51.44,2.3l-13.89,41.79c-.29.87-1.06,1.51-1.97,1.62-.13.02-.26.02-.39.02ZM83.44,55.74l18.9,29.05,11.09-33.37-29.99,4.33Z"/>
      </g>
      <path class="cls-10" d="M127.82,186.68c-20.03,0-39.23-2.38-57.21-7.09-25.99-6.81-49.45-18.55-69.72-34.88-1.03-.83-1.2-2.34-.36-3.38.83-1.03,2.34-1.2,3.38-.36,19.72,15.89,42.55,27.31,67.84,33.95,20.28,5.32,42.19,7.61,65.12,6.79,39.14-1.4,68.05-11.5,68.34-11.6,1.25-.44,2.62.21,3.07,1.46.44,1.25-.21,2.62-1.46,3.07-.29.1-29.77,10.43-69.62,11.87-3.14.11-6.26.17-9.36.17Z"/>
      <polygon class="cls-8" points="194.57 170.25 204.25 212.44 185.71 203.82 172.57 218.24 162.06 179.55 194.57 170.25"/>
      <path class="cls-2" d="M172.57,220.64c-.19,0-.38-.02-.56-.07-.85-.21-1.52-.86-1.75-1.7l-10.51-38.69c-.34-1.27.39-2.58,1.66-2.94l32.52-9.3c.63-.18,1.31-.09,1.88.24.57.34.97.89,1.12,1.53l9.68,42.2c.2.89-.12,1.83-.83,2.4s-1.69.7-2.52.31l-16.94-7.88-11.95,13.11c-.46.51-1.11.78-1.77.78ZM165,181.21l8.75,32.18,10.2-11.19c.71-.78,1.84-1,2.79-.56l14.09,6.55-8.01-34.94-27.8,7.96Z"/>
      <polygon class="cls-9" points="112.65 177.45 131.84 217.09 150.59 177.96 112.65 177.45"/>
      <path class="cls-12" d="M131.84,219.49c-.92,0-1.76-.53-2.16-1.35l-19.19-39.64c-.36-.75-.31-1.63.14-2.33.44-.69,1.21-1.11,2.03-1.11.01,0,.02,0,.03,0l37.94.5c.82.01,1.58.44,2.01,1.14.43.7.48,1.56.12,2.3l-18.76,39.14c-.4.83-1.24,1.36-2.16,1.36h0ZM116.5,179.9l15.32,31.65,14.98-31.25-30.3-.4Z"/>
      <polygon class="cls-14" points="65.2 168.8 58.67 211.6 76.52 201.63 90.69 215.03 98.31 175.67 65.2 168.8"/>
      <path class="cls-5" d="M90.69,217.43c-.6,0-1.2-.23-1.65-.66l-12.89-12.19-16.31,9.11c-.8.45-1.79.4-2.54-.12-.75-.52-1.14-1.43-1.01-2.33l6.53-42.8c.1-.65.46-1.23,1-1.61.54-.38,1.21-.51,1.86-.38l33.11,6.87c1.29.27,2.12,1.52,1.87,2.81l-7.62,39.36c-.17.86-.79,1.56-1.62,1.83-.24.08-.49.12-.73.12ZM76.52,199.23c.6,0,1.19.22,1.65.66l11,10.4,6.34-32.74-28.32-5.88-5.41,35.44,13.56-7.58c.37-.21.77-.3,1.17-.3Z"/>
      <g>
        <path class="cls-7" d="M42.42,190.21c-7.01-5.49-10.77-12.4-5.29-19.41,5.49-7.01,15.62-8.25,22.63-2.76,7.01,5.49,8.25,15.62,2.76,22.63-5.49,7.01-13.1,5.03-20.11-.46Z"/>
        <path class="cls-4" d="M54.03,197.58c-.39,0-.79-.02-1.19-.05-3.72-.33-7.72-2.15-11.9-5.42-4.18-3.27-6.91-6.71-8.12-10.24-1.47-4.29-.64-8.63,2.42-12.54,3.05-3.9,7.43-6.37,12.35-6.97,4.91-.6,9.76.75,13.66,3.8,8.05,6.29,9.47,17.96,3.18,26-2.79,3.56-6.36,5.42-10.39,5.42ZM49.85,167.02c-4.08,0-8.12,1.81-10.82,5.26-3.94,5.03-2.3,10.43,4.87,16.04,7.17,5.61,12.81,5.91,16.74.87,4.66-5.96,3.61-14.6-2.35-19.26-2.5-1.96-5.48-2.91-8.44-2.91Z"/>
      </g>
    </g>
  </g>
</svg>