<?xml version="1.0" encoding="UTF-8"?>
<svg id="Capa_2" xmlns="http://www.w3.org/2000/svg" viewBox="0 0 215.01 220.69">
  <defs>
    <style>
      .cls-1 {
        fill: #f6608e;
      }

      .cls-2 {
        fill: #6db850;
      }

      .cls-3 {
        fill: #ffcc6b;
      }

      .cls-4 {
        fill: #fff;
      }

      .cls-5 {
        fill: #89d770;
      }

      .cls-6 {
        fill: #678490;
      }

      .cls-7 {
        fill: #65e1e9;
      }

      .cls-8 {
        fill: #00d4d7;
      }

      .cls-9 {
        fill: #fd80a6;
      }

      .cls-10 {
        fill: #b1b9c6;
      }

      .cls-11 {
        fill: #91a2b5;
      }

      .cls-12 {
        fill: #ffff9d;
      }

      .cls-13 {
        fill: #777677;
      }

      .cls-14 {
        fill: #605c5d;
      }
    </style>
  </defs>
  <g id="OBJECTS">
    <g>
      <path class="cls-2" d="M133.89,220.69c-.7,0-1.4-.31-1.87-.91-.81-1.03-.63-2.52.4-3.34,13.94-10.95,19.11-27.38,21-39.23,2.07-13.03.76-23.57.74-23.68-.17-1.3.75-2.49,2.05-2.66,1.3-.17,2.49.75,2.66,2.05.06.45,1.42,11.22-.74,24.9-2.88,18.26-10.76,32.91-22.78,42.35-.44.34-.95.51-1.47.51Z"/>
      <g>
        <path class="cls-5" d="M184.11,188.47c-4.38-5.43-11.44-8.45-18.83-7.31s-13.2,6.17-15.73,12.67c4.38,5.43,11.44,8.45,18.83,7.31,7.39-1.15,13.2-6.17,15.73-12.67Z"/>
        <path class="cls-2" d="M165.32,203.75c-6.76,0-13.3-3.06-17.62-8.43-.53-.66-.67-1.56-.36-2.35,2.92-7.5,9.66-12.92,17.58-14.15,7.93-1.23,15.99,1.9,21.04,8.17.53.66.67,1.56.36,2.35-2.92,7.5-9.66,12.92-17.58,14.15-1.14.18-2.28.26-3.42.26ZM152.32,193.4c4.01,4.24,9.9,6.29,15.69,5.39,5.79-.9,10.78-4.64,13.32-9.89-4.01-4.24-9.9-6.29-15.69-5.39-5.79.9-10.78,4.64-13.32,9.89Z"/>
      </g>
      <path class="cls-10" d="M105.47,196.93c17.74,5.69,66.04-7.21,59.37-26.35-6.68-19.14-56.71,6.98-56.71,6.98l-2.66,19.37Z"/>
      <path class="cls-10" d="M170.51,154.57c-1.8-7.67-5.91-13.26-13.57-11.46-.35.08-.69.18-1.02.28-7.47-8.85-19.72-14.62-33.56-14.62-22.75,0-41.19,15.58-41.19,34.8s18.44,34.8,41.19,34.8c19.71,0,36.19-11.7,40.24-27.32.29-.05.57-.1.86-.17,7.67-1.8,8.86-8.64,7.06-16.3Z"/>
      <path class="cls-6" d="M172.82,154.02c-1.08-4.62-2.85-8.13-5.25-10.45-2.95-2.84-6.81-3.81-11.18-2.79-4.33,1.01-8,3.65-10.34,7.43-2.34,3.78-3.07,8.24-2.06,12.56.09.39.2.77.32,1.15-10.09,1.71-21.28,6.12-28.76,9.45-3.49-4.44-4.3-10.73-4.3-10.8-.16-1.3-1.34-2.22-2.64-2.07-1.3.16-2.23,1.34-2.08,2.64.04.32.86,6.88,4.62,12.26-2.34,1.12-3.83,1.89-4.12,2.04-1.16.61-1.61,2.04-1.01,3.2.61,1.16,2.04,1.61,3.2,1.01.09-.05,9.01-4.69,19.62-8.54,13.64-4.95,23.8-6.4,29.38-4.19,2.2.87,3.63,2.32,4.37,4.42,1.22,3.49.2,6.84-3.1,10.23-4.87,4.99-14.56,9.54-25.92,12.16-10.84,2.5-21.33,2.85-27.38.91-8.26-2.65-15.23-8.58-19.11-16.26-4.65-9.21-4.85-20.77-.58-33.43.42-1.24-.25-2.59-1.49-3.01-1.24-.42-2.59.25-3.01,1.49-4.69,13.89-4.4,26.72.84,37.09,4.45,8.81,12.43,15.61,21.9,18.64,3.07.99,6.99,1.45,11.38,1.45,15.7,0,37.28-6.01,46.77-15.74,3.97-4.07,5.58-8.56,4.73-13.1,3.73-2.08,7.77-6.85,5.2-17.78ZM165.88,167.28c-1.34-2.14-3.32-3.74-5.9-4.76-3.02-1.2-6.76-1.49-10.85-1.19-.21-.53-.38-1.08-.51-1.63-.73-3.09-.2-6.28,1.47-8.98,1.67-2.7,4.3-4.58,7.39-5.31,2.79-.66,5.02-.14,6.8,1.58,1.71,1.65,3.06,4.45,3.92,8.12,1.41,6.03.63,10.1-2.31,12.17Z"/>
      <g>
        <path class="cls-5" d="M195.08,144.89c-4.38-5.43-11.44-8.45-18.83-7.31-7.39,1.15-13.2,6.17-15.73,12.67,4.38,5.43,11.44,8.45,18.83,7.31s13.2-6.17,15.73-12.67Z"/>
        <path class="cls-2" d="M176.29,160.17c-6.76,0-13.3-3.06-17.62-8.43-.53-.66-.67-1.56-.36-2.35,2.92-7.5,9.66-12.92,17.58-14.15,7.93-1.23,15.99,1.9,21.04,8.17.53.66.67,1.56.36,2.35-2.92,7.5-9.66,12.92-17.58,14.15-1.14.18-2.28.26-3.42.26ZM163.29,149.82c4.01,4.24,9.9,6.29,15.69,5.39,5.79-.9,10.78-4.64,13.32-9.89-4.01-4.24-9.9-6.29-15.69-5.39-5.79.9-10.78,4.64-13.32,9.89Z"/>
      </g>
      <g>
        <path class="cls-10" d="M135.18,3.23c-10.53-5.44-31.33,17.21-40.29,27.82-5.84.85-13.11,2.75-21.29,5.4-8.2,2.58-15.24,5.24-20.49,7.93-13.46-3.47-43.52-9.87-48.96.66-5.4,10.45,10.6,29.32,18.34,37.54-2.53,11.04-1.3,21.84,1.5,30.6,2.42,7.57,5.73,14.84,9.96,21.82,8.25,13.63,23.53,21.23,39.36,19.5,12.22-1.34,24.08-3.85,35.56-7.51,11.48-3.66,22.6-8.49,33.34-14.48,13.91-7.76,21.96-22.81,20.79-38.7-.6-8.14-2.11-15.99-4.53-23.56-2.79-8.75-8.04-18.27-16.5-25.8,1.54-11.16,3.66-35.83-6.8-41.22Z"/>
        <g>
          <path class="cls-11" d="M83.45,39.26c4,12.53,3.59,23.84-.89,25.27-4.49,1.43-11.37-7.55-15.37-20.08-.55-1.72-1.01-3.41-1.39-5.05,5.21-1.93,10.5-3.61,15.86-5.05.65,1.56,1.25,3.21,1.79,4.92Z"/>
          <g>
            <path class="cls-11" d="M64.67,40.71c4,12.52,3.6,23.84-.89,25.27-4.32,1.38-10.88-6.94-14.93-18.76,2.56-1.62,5.28-3.06,8.14-4.3,2.45-1.06,4.92-2.07,7.41-3.01.1.27.18.52.26.79Z"/>
            <path class="cls-11" d="M99.97,30.8c3.58,12.02,3.07,22.66-1.27,24.04-4.49,1.43-11.37-7.57-15.36-20.09-.09-.27-.17-.53-.24-.8,2.96-.77,5.95-1.47,8.95-2.09,2.65-.55,5.3-.9,7.93-1.07Z"/>
          </g>
        </g>
        <path class="cls-4" d="M131.97,25.49s2.23,2.52,3.49,5.75c1.17,2.98.08,5.88-2.01,7.62-6.86-4.12-14.58-6.82-22.64-7.83-.46-1.67-.29-3.51.67-5.16,3.83-6.62,9.59-14.29,15.56-13.82,10.39.82,4.93,13.45,4.93,13.45Z"/>
        <path class="cls-4" d="M19.65,61.33s-.36,3.35.48,6.71c.77,3.11,3.34,4.84,6.05,5.05,3.21-7.34,7.93-14,13.92-19.49-.59-1.63-1.8-3.03-3.53-3.82-6.96-3.18-16.1-6.09-20.69-2.26-7.99,6.68,3.78,13.82,3.78,13.82Z"/>
        <path class="cls-6" d="M165.37,93.63c-.61-8.27-2.17-16.38-4.63-24.1-2.09-6.54-6.7-17.13-16.24-26.01,1.81-13.92,2.87-36.67-8.23-42.4-5.57-2.87-13.2-.2-23.34,8.17-7.33,6.05-14.43,13.85-19.28,19.56-5.57.89-12.52,2.67-20.76,5.35-8.28,2.6-14.99,5.17-20.05,7.68-7.27-1.84-17.58-4.08-27.05-4.77-13.11-.95-20.88,1.29-23.75,6.86-5.74,11.12,8.31,29.03,17.86,39.33-2.63,12.77-.26,24.07,1.83,30.61,2.46,7.72,5.89,15.24,10.19,22.33,7.88,13.01,22.05,20.89,37.02,20.88,1.54,0,3.09-.08,4.64-.25,12.33-1.35,24.45-3.91,36.03-7.61,11.58-3.7,22.94-8.63,33.78-14.67,14.6-8.14,23.23-24.21,22-40.95ZM141.05,130.43c-10.56,5.88-21.63,10.69-32.91,14.29-11.28,3.6-23.09,6.09-35.1,7.41-14.79,1.62-29.34-5.59-37.07-18.37-4.1-6.78-7.37-13.95-9.73-21.32-2.6-8.15-5.7-24.31,2.75-40.9.6-1.17.13-2.6-1.04-3.19-1.17-.6-2.6-.13-3.19,1.04-1.44,2.82-2.57,5.63-3.45,8.4-12.52-14.03-18.13-25.72-15.06-31.66,2.95-5.72,18.31-5.97,40.6-.82-3.01,2.03-5.82,4.22-8.36,6.5-.98.88-1.06,2.38-.18,3.35.47.52,1.12.79,1.77.79.57,0,1.13-.2,1.59-.61,2.53-2.27,5.35-4.45,8.39-6.46,4.83-3.2,12.99-6.62,24.27-10.17,11.23-3.64,19.86-5.58,25.65-5.76,3.64-.11,7.2.02,10.58.41,1.3.14,2.48-.79,2.63-2.09.15-1.3-.79-2.48-2.09-2.63-3.39-.39-6.95-.54-10.59-.45,15.19-17.11,27.85-25.8,33.57-22.85,5.93,3.06,8.13,15.84,6.07,34.53-2.32-1.75-4.87-3.38-7.67-4.85-1.16-.61-2.6-.16-3.21,1-.61,1.16-.16,2.6,1,3.2,16.51,8.63,23.33,23.59,25.94,31.75,2.35,7.37,3.84,15.11,4.42,23.01,1.1,14.9-6.59,29.2-19.58,36.45Z"/>
        <g>
          <path class="cls-14" d="M122.73,90.62c-1.01,0-1.94-.64-2.26-1.65-1.73-5.41,1.27-11.21,6.68-12.94,5.41-1.73,11.21,1.27,12.94,6.68.4,1.25-.29,2.59-1.54,2.98-1.25.4-2.59-.29-2.98-1.54-.93-2.91-4.05-4.52-6.97-3.6-2.91.93-4.52,4.05-3.6,6.97.4,1.25-.29,2.59-1.54,2.98-.24.08-.48.11-.72.11Z"/>
          <path class="cls-14" d="M65.73,108.81c-1.01,0-1.94-.64-2.26-1.65-1.73-5.41,1.27-11.21,6.68-12.94,5.41-1.73,11.21,1.27,12.94,6.68.4,1.25-.29,2.59-1.54,2.98-1.25.4-2.59-.29-2.98-1.54-.93-2.91-4.05-4.53-6.97-3.6-2.91.93-4.52,4.05-3.6,6.97.4,1.25-.29,2.59-1.54,2.98-.24.08-.48.11-.72.11Z"/>
        </g>
        <g>
          <g>
            <path class="cls-11" d="M140.93,96.86c-1.01,0-1.94-.64-2.26-1.65-.4-1.25.29-2.59,1.54-2.98l11.92-3.8c1.25-.4,2.59.29,2.98,1.54.4,1.25-.29,2.59-1.54,2.98l-11.92,3.8c-.24.08-.48.11-.72.11Z"/>
            <path class="cls-11" d="M154.25,104.94s-.07,0-.11,0l-10.9-.5c-1.31-.06-2.32-1.17-2.26-2.48.06-1.31,1.17-2.31,2.48-2.26l10.9.5c1.31.06,2.32,1.17,2.26,2.48-.06,1.27-1.11,2.27-2.37,2.27Z"/>
          </g>
          <g>
            <path class="cls-11" d="M57.67,123.43c-1.01,0-1.94-.64-2.26-1.65-.4-1.25.29-2.59,1.54-2.98l11.92-3.8c1.25-.4,2.59.29,2.98,1.54.4,1.25-.29,2.59-1.54,2.98l-11.92,3.8c-.24.08-.48.11-.72.11Z"/>
            <path class="cls-11" d="M63.42,133.93c-.71,0-1.4-.31-1.87-.91-.81-1.03-.63-2.53.41-3.33l8.6-6.72c1.03-.81,2.53-.63,3.33.41.81,1.03.63,2.53-.41,3.33l-8.6,6.72c-.43.34-.95.5-1.46.5Z"/>
          </g>
        </g>
        <g>
          <path class="cls-4" d="M113.85,74.89c-1.01,0-1.94-.64-2.26-1.65-.4-1.25.29-2.59,1.54-2.98l6.25-2c1.25-.4,2.59.29,2.98,1.54.4,1.25-.29,2.59-1.54,2.98l-6.25,2c-.24.08-.48.11-.72.11Z"/>
          <path class="cls-4" d="M72.69,88.03c-1.01,0-1.94-.64-2.26-1.65-.4-1.25.29-2.59,1.54-2.98l6.25-2c1.25-.4,2.59.29,2.98,1.54.4,1.25-.29,2.59-1.54,2.98l-6.25,2c-.24.08-.48.11-.72.11Z"/>
        </g>
        <path class="cls-6" d="M117.3,92.31c-.08-1.31-1.21-2.3-2.52-2.22-1.31.08-2.3,1.21-2.22,2.52.13,2-1.12,3.82-3.03,4.43-2.3.73-4.76-.54-5.49-2.83-.15-.46-.42-.84-.77-1.12l1.46-.47c1.25-.4,1.94-1.73,1.54-2.98-.4-1.25-1.73-1.94-2.98-1.54l-6.69,2.14c-1.25.4-1.94,1.74-1.54,2.99.32,1.01,1.26,1.65,2.26,1.65.24,0,.48-.04.72-.11l1.46-.47c-.06.21-.09.42-.09.64,0,.24.04.48.11.72.73,2.29-.54,4.76-2.83,5.49-1.91.61-3.99-.15-5.04-1.85-.69-1.11-2.15-1.46-3.27-.77-1.11.69-1.46,2.16-.77,3.27,1.7,2.74,4.65,4.31,7.74,4.31.93,0,1.86-.14,2.78-.43,2.54-.81,4.48-2.64,5.52-4.9,2.15,1.24,4.79,1.61,7.34.79,3.99-1.27,6.59-5.08,6.33-9.25Z"/>
      </g>
      <g>
        <path class="cls-7" d="M2.94,192.18c3.21,10.5,31.84,2.71,31.84,2.71l1.43-5.81,13.88-1.4c10.99-17.31,18.69-38.31,7.49-43.04-12.04-5.09-17.54,8.99-17.54,8.99,0,0-12.88-9.99-19.63-3.41-4.28,4.18-2.4,11.48,1.31,18.63-4.91-8.84-13.26-.06-10.54,11.07,0,0-11.44,1.76-8.24,12.27Z"/>
        <path class="cls-8" d="M64.73,149.41c-1.02-3.26-3.17-5.66-6.22-6.95-3.87-1.63-7.57-1.73-11-.28-4.17,1.76-6.91,5.43-8.37,7.96-4.45-2.81-14.15-7.69-20.38-1.61-3.36,3.28-4.07,8.09-2.13,14.36-.85.05-1.54.27-1.93.42-5.01,1.96-6.97,8.8-6.24,14.89-2.11.72-5.13,2.2-6.94,5.08-1.69,2.69-1.97,5.92-.85,9.61,1.45,4.77,6.49,7.17,14.99,7.17,1.44,0,2.97-.07,4.61-.21,7.69-.65,14.84-2.58,15.14-2.66,1.27-.34,2.01-1.65,1.67-2.92-.34-1.27-1.65-2.01-2.92-1.67-.07.02-7.03,1.9-14.29,2.51-3.97.34-13.35.65-14.65-3.62-.71-2.34-.61-4.2.32-5.68,1.76-2.82,5.98-3.54,6.01-3.54.66-.1,1.24-.47,1.61-1.03.37-.55.49-1.24.33-1.88-1.45-5.93.74-10.77,2.95-11.63,1.33-.52,2.5,1.05,3.13,2.14,1.18,2.29,2.62,4.72,4.33,7.29.73,1.09,2.2,1.39,3.29.67,1.09-.73,1.39-2.2.67-3.29-4.24-6.4-10.64-17.85-5.77-22.6,5.1-4.97,16.39,3.5,16.5,3.59.59.46,1.36.61,2.09.41.72-.2,1.31-.73,1.58-1.42.02-.06,2.45-5.98,7.11-7.94,2.23-.94,4.62-.85,7.3.28,1.77.75,2.93,2.05,3.53,3.99,2.1,6.73-2.65,20.69-12.11,35.59-.7,1.11-.38,2.57.73,3.28.39.25.84.37,1.27.37.79,0,1.55-.39,2.01-1.1,3.93-6.19,16.45-27.32,12.64-39.55Z"/>
        <path class="cls-13" d="M27.06,197.17c-1.65-3.83,4.49-10.17,13.73-14.16,9.24-3.99,18.06-4.12,19.72-.3,1.65,3.83-5.69,7.39-14.92,11.39-9.24,3.99-16.87,6.9-18.52,3.07Z"/>
        <path class="cls-14" d="M72.73,169.84c-.21-1.29-1.43-2.19-2.73-1.98-1.29.21-2.18,1.41-1.96,2.71.03.23.59,5.3-6.83,9.19-1.35-1.2-3.69-2.26-7.75-2.2-4.03.06-8.86,1.22-13.61,3.28-4.75,2.05-8.91,4.78-11.71,7.67-4.46,4.6-3.95,8-3.25,9.61.93,2.14,2.81,3.22,5.62,3.22,1.04,0,2.21-.15,3.51-.44,3.29-.75,7.38-2.38,12.52-4.6,5.13-2.22,9.13-4.08,11.93-5.96,2.99-2.01,4.55-4.09,4.67-6.21,10.89-5.53,9.67-13.9,9.61-14.27ZM55.81,186.38c-2.5,1.68-6.27,3.43-11.16,5.55-4.89,2.12-8.75,3.66-11.69,4.33-2.31.53-3.54.36-3.71-.02h0c-.3-.7.29-2.35,2.3-4.42,2.35-2.42,6.06-4.83,10.18-6.61,4.13-1.78,8.43-2.84,11.8-2.89.09,0,.17,0,.26,0,2.73,0,4.25.67,4.54,1.35.17.38-.55,1.4-2.52,2.72Z"/>
      </g>
      <g>
        <path class="cls-9" d="M125.95,126.76c0-6.14,3.51-11.49,8.68-14.28,3.04-9.18,11.68-15.81,21.88-15.81s18.85,6.63,21.88,15.81c5.18,2.79,8.68,8.14,8.68,14.28,0,7.6-5.36,13.99-12.62,15.82-2.79,6.1-9.77,10.42-17.95,10.42s-15.16-4.32-17.95-10.42c-7.26-1.82-12.62-8.22-12.62-15.82Z"/>
        <path class="cls-1" d="M136.91,144.57c3.54,6.6,11.1,10.81,19.61,10.81s16.07-4.21,19.61-10.81c7.91-2.47,13.34-9.64,13.34-17.81,0-6.49-3.47-12.5-9.12-15.91-3.61-9.66-12.93-16.56-23.83-16.56s-20.23,6.9-23.83,16.57c-5.64,3.41-9.11,9.41-9.11,15.9,0,8.17,5.43,15.34,13.34,17.81ZM177.19,119.72c0,7.23-3.74,13.61-9.38,17.3.73-1.8,1-3.78.78-5.79-.33-3-1.82-6.06-4.16-8.26,4.36-1.9,7.21-5.34,7.21-9.35,0-6.12-6.64-10.91-15.12-10.91s-15.12,4.79-15.12,10.91,6.64,10.91,15.12,10.91c3.22,0,6.84,2.7,7.34,7.22.22,2.01-.09,6.85-7.6,8.63-11.28-.14-20.42-9.35-20.42-20.67s9.27-20.67,20.67-20.67,20.67,9.27,20.67,20.67ZM146.16,113.62c0-3.34,4.75-6.16,10.36-6.16,1.96,0,3.82.35,5.4.94-3.3.58-5.96,1.79-7.94,3.64-1.83,1.71-3.03,3.89-3.59,6.51-2.55-1.13-4.24-2.94-4.24-4.93ZM166.88,113.62c0,3.34-4.75,6.16-10.36,6.16-.51,0-1.01-.02-1.5-.07.34-1.73,1.08-3.14,2.21-4.19,1.97-1.83,5.18-2.75,9.55-2.74.07.28.1.56.1.84ZM178.05,138.51c.07-.61.1-1.23.1-1.85,0-1.05-.1-2.1-.3-3.13,2.59-3.98,4.1-8.72,4.1-13.81,0-.39-.01-.79-.03-1.18,1.78,2.35,2.79,5.21,2.79,8.21,0,4.85-2.6,9.24-6.66,11.75ZM139.87,138.92c4.47,3.88,10.29,6.23,16.65,6.23s12.19-2.36,16.65-6.24c-.18.91-.46,1.8-.86,2.66-2.47,5.41-8.82,9.04-15.79,9.04s-13.32-3.63-15.79-9.04c-.4-.86-.68-1.76-.86-2.66ZM128.33,126.76c0-3,1.01-5.86,2.79-8.21-.02.39-.03.78-.03,1.17,0,5.09,1.51,9.84,4.1,13.82-.2,1.03-.3,2.07-.3,3.12,0,.62.04,1.24.11,1.85-4.06-2.51-6.66-6.9-6.66-11.75Z"/>
      </g>
      <g>
        <path class="cls-12" d="M212.07,100.5c-3.21,10.5-31.84,2.71-31.84,2.71l-1.43-5.81-13.88-1.4c-10.99-17.31-18.69-38.31-7.49-43.04,12.04-5.09,17.54,8.99,17.54,8.99,0,0,12.88-9.99,19.63-3.41,4.28,4.18,2.4,11.48-1.31,18.63,4.91-8.84,13.26-.06,10.54,11.07,0,0,11.44,1.76,8.24,12.27Z"/>
        <path class="cls-3" d="M213.49,91.58c-1.81-2.88-4.83-4.36-6.94-5.08.73-6.08-1.23-12.93-6.24-14.89-.39-.15-1.07-.36-1.93-.42,1.94-6.27,1.23-11.07-2.13-14.36-6.23-6.08-15.94-1.2-20.38,1.61-1.47-2.52-4.2-6.2-8.37-7.96-3.43-1.45-7.13-1.35-11,.28-3.05,1.29-5.2,3.69-6.22,6.95-3.82,12.22,8.71,33.36,12.63,39.55.45.71,1.22,1.1,2.01,1.1.44,0,.88-.12,1.27-.37,1.11-.7,1.44-2.17.73-3.28-9.46-14.89-14.21-28.86-12.11-35.59.6-1.93,1.76-3.24,3.53-3.99,2.67-1.13,5.05-1.22,7.28-.29,4.71,1.97,7.11,7.9,7.13,7.95.27.7.86,1.23,1.58,1.42.72.2,1.49.05,2.09-.41.11-.09,11.39-8.58,16.51-3.59,4.87,4.75-1.53,16.2-5.77,22.6-.72,1.09-.43,2.57.67,3.29,1.09.73,2.57.43,3.29-.67,1.7-2.57,3.15-5,4.33-7.29.63-1.09,1.8-2.66,3.13-2.14,2.21.86,4.4,5.71,2.95,11.63-.16.64-.03,1.32.33,1.88.37.55.95.93,1.6,1.03.04,0,4.26.72,6.02,3.55.93,1.49,1.03,3.34.32,5.68-.54,1.76-3.15,4.58-14.59,3.62-7.26-.6-14.28-2.5-14.35-2.52-1.26-.35-2.57.4-2.92,1.67-.34,1.27.4,2.57,1.67,2.91.3.08,7.46,2.01,15.14,2.66,1.63.14,3.17.21,4.61.21,8.5,0,13.53-2.4,14.98-7.17,1.13-3.69.84-6.93-.85-9.61Z"/>
        <path class="cls-13" d="M187.95,105.49c1.65-3.83-4.49-10.17-13.73-14.16-9.24-3.99-18.06-4.12-19.72-.3-1.65,3.83,5.69,7.39,14.92,11.39,9.24,3.99,16.87,6.9,18.52,3.07Z"/>
        <path class="cls-14" d="M186.87,96.82c-2.8-2.89-6.96-5.62-11.71-7.67-4.75-2.05-9.58-3.21-13.61-3.28-4.06-.06-6.4,1-7.75,2.2-7.42-3.89-6.86-8.96-6.84-9.15.21-1.29-.67-2.52-1.96-2.73-1.29-.21-2.52.67-2.73,1.96-.06.37-1.28,8.74,9.61,14.27.12,2.12,1.68,4.21,4.67,6.21,2.8,1.88,6.79,3.74,11.93,5.96,5.13,2.22,9.23,3.85,12.52,4.6,1.29.3,2.46.44,3.51.44,2.81,0,4.7-1.08,5.62-3.21.7-1.62,1.2-5.01-3.25-9.61ZM185.77,104.55c-.17.38-1.4.55-3.71.02-2.94-.67-6.8-2.22-11.69-4.33-4.89-2.11-8.66-3.87-11.16-5.55-1.97-1.32-2.69-2.34-2.52-2.72.3-.68,1.81-1.35,4.54-1.35.08,0,.17,0,.26,0,3.37.05,7.67,1.1,11.8,2.89,4.13,1.78,7.84,4.19,10.18,6.61,2.01,2.08,2.61,3.72,2.3,4.42Z"/>
      </g>
    </g>
  </g>
</svg>