<?xml version="1.0" encoding="UTF-8"?>
<svg id="Capa_2" xmlns="http://www.w3.org/2000/svg" viewBox="0 0 176.84 220.69">
  <defs>
    <style>
      .cls-1 {
        fill: #b5f6f8;
      }

      .cls-2 {
        fill: #5f5c5d;
      }

      .cls-3 {
        fill: #fff;
      }

      .cls-4 {
        fill: #95a1b3;
      }

      .cls-5 {
        fill: #b2b8c4;
      }

      .cls-6 {
        fill: #70838e;
      }
    </style>
  </defs>
  <g id="OBJECTS">
    <g>
      <g>
        <path class="cls-5" d="M169.76,6.13c-9.91-9.91-41.49,8.12-55.4,16.86-6.88-1.14-15.76-1.61-25.93-1.57-10.17-.05-19.05.42-25.93,1.57C48.58,14.24,17-3.78,7.1,6.13c-9.84,9.84,1.39,36.85,7.16,48.88-6.82,11.52-9.31,24.14-9.31,35.01,0,9.4,1.12,18.78,3.37,28.17,3.98,16.61,16.26,29.72,32.27,34.81-6.3,16.43-13.64,42.59-3.3,56.29,13.99,18.54,34.27,2.43,23.07-16.94,0,0-1.56-2.06-2.58-5.98,6.7,6.53,17.92,10.82,30.65,10.82s23.95-4.29,30.64-10.82c-1.03,3.92-2.58,5.98-2.58,5.98-11.2,19.37,9.08,35.48,23.07,16.94,10.34-13.7,3-39.86-3.3-56.29,16.01-5.09,28.29-18.2,32.28-34.81,2.25-9.39,3.37-18.77,3.37-28.17,0-10.86-2.49-23.48-9.31-35,5.75-12.02,17-39.05,7.16-48.89Z"/>
        <g>
          <path class="cls-4" d="M98.52,28.13c0,15.55-4.53,28.16-10.09,28.16s-10.1-12.6-10.1-28.16c0-2.13.08-4.2.25-6.19,6.56-.3,13.13-.3,19.69.01.17,1.99.25,4.06.25,6.18Z"/>
          <g>
            <path class="cls-4" d="M76.84,23.02c0,15.54-4.51,28.16-10.09,28.16s-9.77-11.73-10.08-26.5c3.47-.91,7.05-1.55,10.72-1.92,3.14-.31,6.29-.56,9.43-.73.01.33.01.66.01.99Z"/>
            <path class="cls-4" d="M120.17,24.54c-.29,14.83-4.69,26.63-10.08,26.63s-10.09-12.61-10.09-28.16c0-.33,0-.66.01-.99,3.61.19,7.23.49,10.84.87,3.18.33,6.29.89,9.31,1.64Z"/>
          </g>
        </g>
        <path class="cls-3" d="M158.14,30.06s1.61,3.64,1.87,7.73c.25,3.78-2.02,6.66-5,7.86-6.25-7.11-13.97-12.92-22.69-16.96.08-2.05.94-4.06,2.61-5.57,6.69-6.09,15.95-12.65,22.5-9.98,11.41,4.66.71,16.92.71,16.92Z"/>
        <path class="cls-3" d="M18.7,30.06s-1.61,3.64-1.87,7.73c-.25,3.78,2.02,6.66,5,7.86,6.25-7.11,13.97-12.92,22.69-16.96-.08-2.05-.94-4.06-2.61-5.57-6.69-6.09-15.95-12.65-22.5-9.98-11.41,4.66-.71,16.92-.71,16.92Z"/>
        <g>
          <path class="cls-2" d="M53.38,110.95c-2.15,0-4.28-.56-6.21-1.65-2.92-1.66-5.02-4.36-5.9-7.6-.47-1.71.54-3.48,2.25-3.95,1.71-.47,3.48.54,3.95,2.25.43,1.58,1.46,2.9,2.89,3.72,1.43.81,3.09,1.02,4.67.59,1.58-.43,2.9-1.46,3.72-2.89.81-1.43,1.02-3.09.59-4.67-.47-1.71.54-3.48,2.25-3.95,1.71-.47,3.48.54,3.95,2.25.89,3.24.46,6.63-1.2,9.55-1.66,2.92-4.36,5.02-7.6,5.9-1.11.3-2.23.45-3.35.45Z"/>
          <path class="cls-2" d="M123.47,110.95c-1.12,0-2.24-.15-3.35-.45-3.24-.89-5.94-2.99-7.6-5.9s-2.09-6.31-1.2-9.55c.47-1.71,2.24-2.72,3.95-2.25,1.71.47,2.72,2.24,2.25,3.95-.43,1.58-.23,3.24.59,4.67.81,1.43,2.13,2.45,3.72,2.89,1.59.44,3.24.23,4.67-.59,1.43-.81,2.45-2.13,2.89-3.72.47-1.71,2.24-2.72,3.95-2.25,1.71.47,2.72,2.24,2.25,3.95-.89,3.24-2.99,5.94-5.9,7.6-1.92,1.1-4.05,1.65-6.21,1.65Z"/>
        </g>
        <g>
          <g>
            <path class="cls-4" d="M147.5,118.99h-14.8c-1.77,0-3.21-1.44-3.21-3.21s1.44-3.21,3.21-3.21h14.8c1.77,0,3.21,1.44,3.21,3.21s-1.44,3.21-3.21,3.21Z"/>
            <path class="cls-4" d="M144.81,132.89c-.37,0-.75-.06-1.12-.2l-12.11-4.48c-1.66-.62-2.51-2.47-1.9-4.13.62-1.66,2.46-2.51,4.13-1.9l12.11,4.48c1.66.62,2.51,2.47,1.9,4.13-.48,1.3-1.71,2.1-3.01,2.1Z"/>
          </g>
          <g>
            <path class="cls-4" d="M44.15,118.99h-14.8c-1.77,0-3.21-1.44-3.21-3.21s1.44-3.21,3.21-3.21h14.8c1.77,0,3.21,1.44,3.21,3.21s-1.44,3.21-3.21,3.21Z"/>
            <path class="cls-4" d="M32.04,132.89c-1.31,0-2.53-.8-3.01-2.1-.62-1.66.23-3.51,1.9-4.13l12.11-4.48c1.66-.62,3.51.23,4.13,1.9.62,1.66-.23,3.51-1.9,4.13l-12.11,4.48c-.37.14-.75.2-1.12.2Z"/>
          </g>
        </g>
        <g>
          <path class="cls-3" d="M117.85,84.51c-.45,0-.91-.09-1.34-.3l-7.76-3.57c-1.61-.74-2.32-2.65-1.58-4.26.74-1.61,2.65-2.32,4.26-1.58l7.76,3.57c1.61.74,2.32,2.65,1.58,4.26-.54,1.18-1.71,1.87-2.92,1.87Z"/>
          <path class="cls-3" d="M59,84.51c-1.22,0-2.38-.69-2.92-1.87-.74-1.61-.04-3.52,1.58-4.26l7.76-3.57c1.61-.74,3.52-.04,4.26,1.58s.04,3.52-1.58,4.26l-7.76,3.57c-.44.2-.89.3-1.34.3Z"/>
        </g>
        <path class="cls-6" d="M99.81,120.73c-5.39-2.29-7.59-6.46-8.17-7.78v-4.1h.94c1.77,0,3.21-1.44,3.21-3.21s-1.44-3.21-3.21-3.21h-8.31c-1.77,0-3.21,1.44-3.21,3.21s1.44,3.21,3.21,3.21h.94v4.12c-.48,1.04-2.43,4.51-8.49,7.92-1.55.87-2.1,2.83-1.23,4.38.87,1.55,2.83,2.09,4.38,1.23,4.05-2.28,6.72-4.66,8.47-6.71,1.85,2.38,4.71,5.06,8.96,6.86.41.17.83.26,1.25.26,1.25,0,2.44-.74,2.96-1.96.69-1.63-.07-3.52-1.7-4.21Z"/>
      </g>
      <path class="cls-1" d="M117.95,121.53l3.9-3.9c1.08-1.08,2.83-1.08,3.91,0l3.9,3.9c3.23,3.23,3.23,8.47,0,11.71h0c-3.23,3.23-8.47,3.23-11.71,0h0c-3.23-3.23-3.23-8.47,0-11.71Z"/>
      <path class="cls-6" d="M172.02,3.85c-10.46-10.46-37.28,2.63-58.36,15.78-6.6-.99-15.05-1.47-25.23-1.43-10.21-.04-18.66.44-25.26,1.43-7.53-4.69-18.31-10.89-28.7-15.06C19.89-1.28,10.19-1.51,4.82,3.85-.3,8.97-1.35,17.94,1.7,30.51c2.15,8.87,5.91,17.89,8.93,24.35C3.12,68.31,1.73,81.89,1.73,90.02c0,9.62,1.16,19.35,3.46,28.92,2.3,9.59,7.24,18.27,14.28,25.09,4.9,4.74,10.65,8.43,16.94,10.9-6.21,17.11-12.32,42.23-1.69,56.3,5.11,6.76,11.02,9.46,16.3,9.46,3.1,0,5.98-.93,8.37-2.5,7.05-4.67,10.6-15.59,3.75-27.44-.06-.12-.12-.2-.2-.31-.21-.29-5.04-7.15-1.63-19.82.46-1.72-.56-3.48-2.27-3.94-1.71-.46-3.47.55-3.94,2.27-3.98,14.77,1.52,23.66,2.55,25.14,3.61,6.35,4.15,14.79-1.81,18.74-4.8,3.18-11.07,1.03-15.98-5.47-7.34-9.73-4.38-27.33-.6-40.38,1.02-3.54,2.17-6.95,3.31-10.08.81.21,1.63.4,2.45.57,7.11,1.44,14.31,2.53,21.41,3.26.11.01.22.02.33.02,1.63,0,3.02-1.23,3.19-2.89.18-1.77-1.1-3.34-2.87-3.52-6.89-.71-13.89-1.77-20.79-3.17-8.45-1.71-16.17-5.78-22.35-11.75-6.17-5.97-10.49-13.57-12.51-21.97-2.18-9.08-3.28-18.3-3.28-27.42,0-10.06,2.3-29.26,17.69-44.81,1.25-1.26,1.24-3.3-.02-4.54-1.26-1.25-3.3-1.24-4.54.02-2.47,2.5-4.63,5.08-6.53,7.7C6.15,28.81,4.04,13.72,9.36,8.4c3.21-3.21,11.28-2.45,22.72,2.14,7.6,3.05,15.47,7.27,22.02,11.12-3.82,1.16-7.48,2.53-10.91,4.07-1.62.73-2.34,2.63-1.61,4.25.73,1.62,2.63,2.34,4.25,1.61,3.65-1.64,7.59-3.07,11.71-4.24,6.56-1.86,16.94-2.78,30.89-2.71,13.92-.06,24.3.85,30.86,2.71,4.13,1.17,8.07,2.6,11.72,4.24.43.19.88.28,1.32.28,1.23,0,2.4-.71,2.93-1.9.73-1.62,0-3.52-1.61-4.25-3.43-1.54-7.1-2.91-10.92-4.07,22.41-13.17,39.63-18.37,44.75-13.26,3.37,3.37,3.86,10.5,1.42,20.59-1.64,6.77-4.31,13.71-6.8,19.4-1.9-2.62-4.06-5.2-6.53-7.7-1.25-1.26-3.28-1.27-4.54-.02s-1.27,3.28-.02,4.54c15.39,15.55,17.69,34.75,17.69,44.81,0,9.11-1.1,18.34-3.28,27.42-2.02,8.4-6.34,16-12.51,21.97-6.17,5.98-13.9,10.04-22.34,11.75-5.87,1.19-11.82,2.14-17.69,2.83-1.76.21-3.02,1.8-2.82,3.57.19,1.64,1.58,2.84,3.19,2.84.12,0,.25,0,.38-.02,6.05-.71,12.17-1.69,18.22-2.91.82-.17,1.64-.36,2.45-.57,1.14,3.13,2.29,6.53,3.31,10.08,3.78,13.05,6.74,30.65-.6,40.38-4.91,6.51-11.19,8.66-15.98,5.47-5.97-3.95-5.43-12.39-1.81-18.74,1.03-1.48,6.53-10.37,2.55-25.14-.46-1.72-2.22-2.73-3.94-2.27-1.72.46-2.73,2.22-2.27,3.94,3.41,12.67-1.43,19.53-1.61,19.79-.08.1-.16.22-.22.33-6.84,11.84-3.29,22.77,3.75,27.44,2.38,1.58,5.26,2.5,8.36,2.5,5.28,0,11.2-2.7,16.3-9.46,10.62-14.08,4.52-39.19-1.69-56.3,6.29-2.47,12.05-6.15,16.94-10.9,7.04-6.82,11.98-15.5,14.28-25.09,2.3-9.57,3.46-19.3,3.46-28.92,0-8.13-1.38-21.71-8.9-35.17,3.02-6.47,6.77-15.49,8.92-24.35,3.05-12.57,2-21.54-3.12-26.65Z"/>
    </g>
  </g>
</svg>