<?xml version="1.0" encoding="UTF-8"?>
<svg id="Capa_2" xmlns="http://www.w3.org/2000/svg" viewBox="0 0 197.78 229.44">
  <defs>
    <style>
      .cls-1 {
        fill: #b5f6f8;
      }

      .cls-2 {
        fill: #5f5c5d;
      }

      .cls-3 {
        fill: #fff;
      }

      .cls-4 {
        fill: #e6fcfc;
      }

      .cls-5 {
        fill: #e2e2e2;
      }

      .cls-6 {
        fill: #6f818c;
      }

      .cls-7 {
        fill: #95a1b3;
      }

      .cls-8 {
        fill: #b2b8c4;
      }

      .cls-9 {
        fill: #e27fa3;
      }

      .cls-10 {
        fill: #dd528b;
      }

      .cls-11 {
        fill: #87b758;
      }

      .cls-12 {
        fill: #77d3d6;
      }
    </style>
  </defs>
  <g id="OBJECTS">
    <g>
      <g>
        <path class="cls-8" d="M169.6,84.72c-.43-10.34-3.31-22.26-10.26-32.95,5-11.68,14.62-37.86,4.86-46.84-9.83-9.04-39.18,9.39-52.07,18.27-6.6-.81-15.07-.91-24.75-.46-9.68.36-18.12,1.17-24.63,2.53C49.15,17.5,18.36,1.61,9.33,11.44.36,21.2,12.13,46.46,18.11,57.69c-6.03,11.24-7.9,23.36-7.47,33.71.38,8.95,1.82,17.84,4.34,26.68,4.92,17.26,19.27,30.08,36.99,32.9.4.06.79.12,1.19.18-4.87,6.06-7.7,13.24-7.7,20.95,0,21.65,22.27,39.19,49.74,39.19s49.74-17.55,49.74-39.19c0-9.35-4.16-17.93-11.09-24.67,17.21-4.43,30.24-18.3,33.66-35.77,1.77-9.03,2.46-18.01,2.08-26.95Z"/>
        <g>
          <path class="cls-7" d="M97.25,28.72c.62,14.81-3.18,26.99-8.48,27.21-5.31.22-10.12-11.59-10.74-26.4-.09-2.03-.09-4.01,0-5.91,6.24-.55,12.48-.81,18.74-.78.24,1.89.4,3.86.49,5.88Z"/>
          <g>
            <path class="cls-7" d="M76.41,24.72c.62,14.8-3.17,26.99-8.48,27.21-5.1.21-9.77-10.78-10.65-24.83,3.26-1,6.65-1.76,10.13-2.25,2.98-.42,5.96-.78,8.95-1.07.02.32.04.62.05.94Z"/>
            <path class="cls-7" d="M117.72,24.44c.32,14.13-3.4,25.54-8.53,25.76-5.31.22-10.11-11.6-10.73-26.4-.01-.32-.03-.62-.03-.94,3.44.04,6.9.18,10.35.39,3.04.19,6.02.6,8.93,1.19Z"/>
          </g>
        </g>
        <path class="cls-3" d="M154.09,28.17s1.68,3.41,2.09,7.28c.39,3.58-1.66,6.42-4.45,7.68-6.24-6.52-13.82-11.74-22.28-15.24,0-1.95.73-3.9,2.26-5.41,6.13-6.06,14.68-12.68,21.02-10.4,11.05,3.98,1.36,16.08,1.36,16.08Z"/>
        <path class="cls-3" d="M21.33,33.75s-1.39,3.53-1.47,7.43c-.09,3.6,2.19,6.26,5.08,7.28,5.67-7.02,12.78-12.86,20.92-17.06-.16-1.95-1.06-3.83-2.71-5.2-6.62-5.53-15.69-11.4-21.82-8.6-10.68,4.89,0,16.14,0,16.14Z"/>
        <path class="cls-6" d="M172.06,84.61c-.32-7.73-2.19-20.62-9.95-33.1,6.09-14.54,14.04-38.94,3.75-48.41-5.13-4.72-14.15-4.07-27.57,1.98-9.79,4.41-19.84,10.79-26.8,15.55-6.32-.7-14.42-.82-24.21-.37-9.81.37-17.87,1.17-24.12,2.4-7.35-4.17-17.91-9.68-28.02-13.25-13.88-4.9-22.92-4.79-27.63.34-9.48,10.31.5,33.95,7.8,47.92-6.68,13.09-7.46,26.09-7.14,33.82.38,9.11,1.87,18.28,4.43,27.26,2.54,8.93,7.53,16.89,14.43,23.03,6.91,6.15,15.4,10.17,24.56,11.63,8.72,1.39,17.55,2.23,26.22,2.51.03,0,.05,0,.08,0,1.33,0,2.42-1.05,2.47-2.39.04-1.36-1.03-2.5-2.39-2.55-8.47-.27-17.08-1.1-25.6-2.45-16.63-2.65-30.38-14.87-35.01-31.14-2.45-8.6-3.88-17.39-4.24-26.11-.41-9.67,1.03-28.22,15.21-43.79.92-1.01.84-2.57-.16-3.49-1.01-.92-2.57-.84-3.49.16-2.49,2.73-4.61,5.55-6.42,8.39C8.63,33.34,5.96,18.74,11.14,13.1c5-5.44,22.04-1.08,45.05,11.36-4.03,1.35-7.88,2.93-11.44,4.72-1.22.61-1.71,2.09-1.1,3.31.43.86,1.3,1.36,2.21,1.36.37,0,.75-.08,1.1-.26,3.43-1.72,7.16-3.25,11.06-4.54,6.22-2.05,16.13-3.35,29.46-3.85,13.3-.62,23.28-.16,29.65,1.36,4,.96,7.84,2.17,11.41,3.6,1.27.51,2.7-.11,3.21-1.37.51-1.27-.11-2.7-1.37-3.21-3.7-1.48-7.67-2.74-11.81-3.74,21.88-14.33,38.49-20.11,43.94-15.09,5.63,5.18,4.2,19.95-3.75,39.92-2.05-2.68-4.39-5.31-7.1-7.82-1-.93-2.56-.87-3.49.13-.93,1-.87,2.56.13,3.49,15.43,14.33,18.42,32.69,18.83,42.36.37,8.72-.32,17.6-2.04,26.37-2.98,15.22-13.89,27.8-28.46,32.84-1.29.45-1.97,1.85-1.53,3.14.35,1.02,1.31,1.66,2.33,1.66.27,0,.54-.04.81-.14,16.23-5.61,28.38-19.62,31.7-36.56,1.79-9.16,2.51-18.42,2.13-27.53Z"/>
        <g>
          <g>
            <path class="cls-7" d="M133.11,108.74c-1.32,0-2.41-1.04-2.47-2.37-.06-1.36,1-2.51,2.36-2.57l14.09-.59c1.36-.07,2.51,1,2.57,2.36.06,1.36-1,2.51-2.36,2.57l-14.09.59s-.07,0-.11,0Z"/>
            <path class="cls-7" d="M145.2,121.49c-.25,0-.51-.04-.76-.12l-11.71-3.78c-1.3-.42-2.01-1.81-1.59-3.11.42-1.3,1.81-2.01,3.11-1.59l11.71,3.78c1.3.42,2.01,1.81,1.59,3.11-.34,1.04-1.31,1.71-2.35,1.71Z"/>
          </g>
          <g>
            <path class="cls-7" d="M34.71,112.87c-1.32,0-2.41-1.04-2.47-2.37-.06-1.36,1-2.51,2.36-2.57l14.09-.59c1.36-.06,2.51,1,2.57,2.36.06,1.36-1,2.51-2.36,2.57l-14.09.59s-.07,0-.11,0Z"/>
            <path class="cls-7" d="M37.83,126c-.97,0-1.88-.57-2.28-1.52-.53-1.26.07-2.7,1.32-3.23l11.35-4.75c1.26-.53,2.7.07,3.23,1.32.53,1.26-.07,2.7-1.32,3.23l-11.35,4.75c-.31.13-.64.19-.95.19Z"/>
          </g>
        </g>
        <path class="cls-6" d="M103.55,101.66c-1.33-.28-2.64.58-2.92,1.92-.35,1.68-1.79,2.91-3.51,2.98-1,.04-1.96-.31-2.7-.99-.74-.68-1.17-1.6-1.21-2.6l-.21-4.96,1.49-.06c1.36-.06,2.42-1.21,2.36-2.57-.06-1.36-1.2-2.42-2.57-2.36l-7.91.33c-1.36.06-2.42,1.21-2.36,2.57.06,1.33,1.15,2.37,2.47,2.37.03,0,.07,0,.11,0l1.49-.06.21,4.96c.09,2.07-1.52,3.82-3.59,3.9-1.72.07-3.27-1.03-3.75-2.67-.39-1.31-1.76-2.05-3.07-1.67-1.31.39-2.05,1.76-1.67,3.07,1.1,3.7,4.49,6.21,8.33,6.21.12,0,.25,0,.37,0,2.43-.1,4.59-1.2,6.1-2.88.03.03.05.05.08.08,1.71,1.57,3.93,2.38,6.25,2.28,3.99-.17,7.33-3.01,8.14-6.91.28-1.34-.58-2.64-1.92-2.92Z"/>
        <g>
          <g>
            <path class="cls-1" d="M79.47,84.11c.38,7.91-2.9,15.16-8.35,20.09-4.23,3.84-9.74,6.27-15.88,6.56-2.32.11-4.59-.09-6.75-.58-10.94-2.43-19.35-11.92-19.91-23.65-.46-9.66,4.52-18.31,12.25-23h.01c3.51-2.14,7.58-3.45,11.96-3.65,3.23-.15,6.33.3,9.23,1.27,9.71,3.21,16.91,12.14,17.43,22.96Z"/>
            <path class="cls-1" d="M151.55,80.68c.35,7.4-2.49,14.22-7.32,19.1-4.32,4.4-10.26,7.23-16.91,7.55-2.11.1-4.16-.06-6.15-.44-11.23-2.21-19.93-11.84-20.5-23.79-.48-10.1,5.01-19.13,13.35-23.62,3.25-1.77,6.95-2.84,10.88-3.03,3.41-.16,6.71.35,9.73,1.45,9.45,3.35,16.41,12.16,16.92,22.78Z"/>
            <path class="cls-4" d="M144.23,99.79c-4.32,4.4-10.26,7.23-16.91,7.55-2.11.1-4.16-.06-6.15-.44,7-11.87,4.04-18.72-5.66-21.27-9.48-2.5-8.2-16.67-1.49-26.14,3.25-1.77,6.95-2.84,10.88-3.03,3.41-.16,6.71.35,9.73,1.45-7.09,9.47-8.65,24.21,1.05,26.76,7.88,2.07,11.31,6.99,8.55,15.13Z"/>
            <path class="cls-4" d="M71.12,104.2c-4.23,3.84-9.74,6.27-15.88,6.56-2.32.11-4.59-.09-6.75-.58,6.89-11.77,3.91-18.57-5.74-21.1-9.29-2.44-8.25-16.08-1.92-25.54h.01c3.51-2.14,7.58-3.45,11.96-3.65,3.23-.15,6.33.3,9.23,1.27-7.24,9.46-8.89,24.4.88,26.97,8.18,2.16,11.56,7.37,8.2,16.08Z"/>
            <path class="cls-2" d="M177.67,60.22l-1.77-1.61c-1.91-1.74-4.48-2.56-7.05-2.26-2.57.3-4.88,1.7-6.33,3.84l-9.55,14.02c-1.41-4.95-4.16-9.43-8.07-12.99-5.52-5.02-12.66-7.59-20.12-7.23-7.45.35-14.32,3.59-19.34,9.11-4.11,4.52-6.58,10.14-7.14,16.11-6.84-2.57-13.1-.76-16.8.94-1.11-5.95-4.1-11.36-8.66-15.51-5.52-5.02-12.66-7.59-20.12-7.23-7.45.35-14.32,3.59-19.34,9.11-3.55,3.91-5.87,8.63-6.8,13.7l-10.84-13.05c-1.65-1.99-4.08-3.16-6.67-3.22-2.59-.05-5.07,1.01-6.81,2.92l-1.61,1.77c-.92,1.01-.84,2.57.17,3.49,1.01.92,2.57.84,3.49-.17l1.61-1.77c.79-.87,1.87-1.32,3.04-1.3,1.17.03,2.23.54,2.98,1.44l14.26,17.18c.55,7.12,3.74,13.66,9.05,18.49,5.19,4.71,11.8,7.27,18.76,7.27.45,0,.91-.01,1.36-.03,7.45-.35,14.32-3.59,19.34-9.11,4.69-5.16,7.24-11.74,7.27-18.67,2.53-1.45,9.22-4.48,16.33-.84.67,6.91,3.84,13.25,9.01,17.95,5.19,4.71,11.8,7.27,18.76,7.27.45,0,.91-.01,1.36-.03,7.45-.35,14.32-3.59,19.34-9.11,4.83-5.31,7.38-12.12,7.25-19.27l12.56-18.45c.66-.97,1.66-1.58,2.83-1.72,1.16-.14,2.28.22,3.15,1.01l1.77,1.61c1.01.92,2.57.84,3.49-.17.92-1.01.84-2.57-.17-3.49ZM55.13,108.3c-6.13.29-12.02-1.82-16.57-5.96-4.55-4.13-7.21-9.79-7.5-15.93-.6-12.67,9.21-23.47,21.88-24.07.37-.02.75-.03,1.12-.03,5.73,0,11.18,2.1,15.45,5.98,4.55,4.13,7.21,9.79,7.5,15.93.6,12.67-9.21,23.47-21.88,24.07ZM143.12,97.37c-4.13,4.55-9.79,7.21-15.93,7.5-.37.02-.74.03-1.11.03-12.18,0-22.37-9.61-22.96-21.9,0,0,0,0,0,0-.29-6.14,1.82-12.02,5.96-16.57,4.13-4.55,9.79-7.21,15.93-7.5.37-.02.74-.03,1.11-.03,12.18,0,22.38,9.61,22.96,21.91.29,6.14-1.82,12.02-5.96,16.57Z"/>
          </g>
          <g>
            <path class="cls-12" d="M51.61,88.01c-.26-5.16,3.15-9.52,7.62-9.74s8.3,3.77,8.56,8.93c.26,5.16-3.15,9.52-7.62,9.74-4.47.22-8.3-3.77-8.56-8.93Z"/>
            <path class="cls-12" d="M112.76,84.94c-.26-5.16,3.15-9.52,7.62-9.74s8.3,3.77,8.56,8.93-3.15,9.52-7.62,9.74c-4.47.22-8.3-3.77-8.56-8.93Z"/>
          </g>
        </g>
      </g>
      <g>
        <rect class="cls-3" x="102.57" y="126.21" width="80.23" height="90.76" rx="6.96" ry="6.96" transform="translate(79.69 -42.5) rotate(23.35)"/>
        <path class="cls-5" d="M157.89,229.44c-1.27,0-2.54-.26-3.74-.78l-60.87-26.28c-4.78-2.06-6.98-7.62-4.92-12.4l30.45-70.54c1-2.31,2.84-4.1,5.18-5.03,2.34-.93,4.91-.89,7.22.11l60.87,26.28c2.31,1,4.1,2.84,5.03,5.18.93,2.34.89,4.91-.11,7.22l-30.45,70.54c-1,2.31-2.84,4.1-5.18,5.03-1.13.45-2.3.67-3.48.67ZM127.47,118.68c-.56,0-1.12.11-1.66.32-1.12.44-1.99,1.29-2.47,2.4l-30.45,70.54c-.98,2.28.07,4.93,2.35,5.91l60.87,26.28c2.27.98,4.92-.07,5.91-2.34l30.45-70.54c.48-1.1.49-2.32.05-3.44s-1.29-1.99-2.4-2.47l-60.87-26.28c-.57-.25-1.18-.37-1.78-.37Z"/>
        <g>
          <path class="cls-2" d="M158.62,151.25c-.33,0-.66-.06-.98-.2l-30.85-13.32c-1.25-.54-1.83-1.99-1.29-3.25.54-1.25,1.99-1.83,3.25-1.29l30.85,13.32c1.25.54,1.83,1.99,1.29,3.25-.4.93-1.31,1.49-2.27,1.49Z"/>
          <path class="cls-11" d="M171.75,161.8c-.27,0-.53-.04-.79-.13-.78-.26-1.38-.9-1.59-1.7l-1.9-7.1c-.35-1.32.43-2.67,1.75-3.02,1.32-.35,2.67.43,3.02,1.75l.94,3.52,8.28-6.39c1.08-.83,2.63-.63,3.46.45.83,1.08.63,2.63-.45,3.46l-11.21,8.66c-.44.34-.97.51-1.51.51Z"/>
        </g>
        <g>
          <path class="cls-2" d="M150.71,169.57c-.33,0-.66-.06-.98-.2l-30.85-13.32c-1.25-.54-1.83-1.99-1.29-3.25.54-1.25,1.99-1.83,3.25-1.29l30.85,13.32c1.25.54,1.83,1.99,1.29,3.25-.4.93-1.31,1.49-2.27,1.49Z"/>
          <path class="cls-11" d="M163.84,180.13c-.27,0-.53-.04-.79-.13-.78-.26-1.38-.9-1.59-1.7l-1.9-7.1c-.35-1.32.43-2.67,1.75-3.02,1.32-.35,2.67.43,3.02,1.75l.94,3.52,8.28-6.39c1.08-.83,2.63-.63,3.46.45.83,1.08.63,2.63-.45,3.46l-11.21,8.66c-.44.34-.97.51-1.51.51Z"/>
        </g>
        <g>
          <path class="cls-2" d="M142.8,187.89c-.33,0-.66-.06-.98-.2l-30.85-13.32c-1.25-.54-1.83-1.99-1.29-3.25.54-1.25,1.99-1.83,3.25-1.29l30.85,13.32c1.25.54,1.83,1.99,1.29,3.25-.4.93-1.31,1.49-2.27,1.49Z"/>
          <path class="cls-11" d="M155.93,198.45c-.27,0-.53-.04-.79-.13-.78-.26-1.38-.9-1.59-1.7l-1.9-7.1c-.35-1.32.43-2.67,1.75-3.02,1.32-.35,2.67.43,3.02,1.75l.94,3.52,8.28-6.39c1.08-.83,2.63-.63,3.46.45.83,1.08.63,2.63-.45,3.46l-11.21,8.66c-.44.34-.97.51-1.51.51Z"/>
        </g>
        <path class="cls-2" d="M135.58,204.63c-.33,0-.66-.06-.98-.2l-30.85-13.32c-1.25-.54-1.83-1.99-1.29-3.25.54-1.25,1.99-1.83,3.25-1.29l30.85,13.32c1.25.54,1.83,1.99,1.29,3.25-.4.93-1.31,1.49-2.27,1.49Z"/>
      </g>
      <g>
        <path class="cls-8" d="M173.62,117.34c6.48,5.27,9.89,11.82,4.62,18.31-5.27,6.48-14.81,7.47-21.29,2.19-6.48-5.27-7.47-14.81-2.19-21.29s12.38-4.48,18.87.79Z"/>
        <path class="cls-6" d="M166.46,143.7c-4.03,0-7.9-1.37-11.07-3.95-3.65-2.97-5.92-7.18-6.4-11.85-.48-4.68.89-9.26,3.85-12.91,2.99-3.68,6.85-5.37,11.16-4.91,3.53.38,7.29,2.18,11.18,5.34h0c8.68,7.06,10.49,15,4.98,21.78-2.97,3.65-7.18,5.92-11.85,6.4-.61.06-1.23.09-1.84.09ZM162.62,114.94c-2.27,0-4.23,1.04-5.96,3.16-2.13,2.62-3.12,5.92-2.77,9.29s1.98,6.39,4.61,8.53c2.62,2.14,5.92,3.12,9.29,2.77,3.37-.35,6.39-1.98,8.53-4.61,3.69-4.54,2.26-9.53-4.26-14.84-3.1-2.52-6.07-3.99-8.59-4.26-.29-.03-.57-.05-.84-.05Z"/>
      </g>
      <g>
        <ellipse class="cls-8" cx="60.89" cy="165.29" rx="30.91" ry="16.74" transform="translate(-109.46 120.46) rotate(-55.03)"/>
        <path class="cls-6" d="M49.17,194.86c-2.78,0-5.3-.74-7.41-2.22-4.44-3.11-6.41-8.97-5.55-16.5.8-7,3.97-14.76,8.94-21.85,4.96-7.1,11.16-12.74,17.46-15.89,6.78-3.4,12.97-3.56,17.41-.45,4.44,3.11,6.41,8.97,5.55,16.51-.8,7-3.97,14.76-8.94,21.85h0c-4.96,7.1-11.16,12.74-17.46,15.89-3.55,1.78-6.94,2.67-10,2.67ZM72.58,140.66c-2.27,0-4.91.72-7.76,2.15-5.58,2.79-11.12,7.87-15.62,14.31-4.5,6.43-7.37,13.39-8.08,19.58-.65,5.65.59,9.88,3.47,11.9,2.89,2.02,7.28,1.73,12.37-.82,5.58-2.79,11.12-7.87,15.62-14.31h0c4.5-6.43,7.37-13.39,8.08-19.58.65-5.65-.59-9.88-3.47-11.9-1.27-.89-2.83-1.33-4.61-1.33Z"/>
        <g>
          <path class="cls-9" d="M86.29,177.48l-23.61-32.55c-3.81-5.25-2.64-12.59,2.61-16.4h0c5.25-3.81,12.59-2.64,16.4,2.61l23.61,32.55c.79,1.09,1.15,2.43,1.01,3.76l-.96,9.37c-.33,3.24-3.41,5.47-6.59,4.78l-9.21-1.99c-1.31-.28-2.48-1.04-3.26-2.13Z"/>
          <path class="cls-10" d="M107.3,162.24l-23.61-32.55c-2.23-3.07-5.52-5.09-9.27-5.69-3.75-.6-7.51.3-10.58,2.53s-5.09,5.52-5.69,9.27c-.6,3.75.3,7.51,2.53,10.58l23.61,32.55c1.15,1.58,2.83,2.68,4.74,3.09l9.21,2c.55.12,1.12.18,1.68.18,1.66,0,3.3-.52,4.66-1.51,1.82-1.32,3-3.37,3.23-5.61l.96-9.37c.2-1.94-.32-3.88-1.47-5.47ZM66.74,130.53c1.6-1.16,3.49-1.77,5.43-1.77.49,0,.98.04,1.48.12,2.45.39,4.59,1.71,6.05,3.71l17.29,23.83c-3.4-.29-6.74.63-9.53,2.65-2.79,2.02-4.7,4.92-5.48,8.23l-17.29-23.83c-3-4.14-2.08-9.95,2.06-12.95ZM103.86,167.2l-.96,9.37c-.09.86-.52,1.61-1.22,2.12-.7.51-1.55.68-2.39.5l-9.21-2c-.72-.16-1.35-.57-1.79-1.17,0,0,0,0,0,0-1.45-2.01-2.04-4.46-1.65-6.9.39-2.45,1.71-4.59,3.71-6.05,2-1.45,4.46-2.04,6.9-1.65,2.45.39,4.59,1.71,6.05,3.71.43.6.63,1.33.55,2.06Z"/>
        </g>
        <g>
          <path class="cls-8" d="M56.68,151.38c-2.18,8.62-.93,16.38,7.69,18.56,8.62,2.18,17.38-3.03,19.57-11.66,2.18-8.62-3.03-17.38-11.66-19.57-8.62-2.18-13.42,4.04-15.6,12.66Z"/>
          <path class="cls-6" d="M68.36,172.91c-1.53,0-3.07-.19-4.59-.58-8.92-2.26-12.38-10.12-9.48-21.56,2.9-11.44,9.68-16.71,18.6-14.45,4.81,1.22,8.86,4.24,11.39,8.5,2.54,4.26,3.27,9.26,2.05,14.07-1.22,4.81-4.24,8.86-8.5,11.4-2.91,1.73-6.17,2.62-9.47,2.62ZM69.05,140.76c-4.74,0-8.09,3.76-9.98,11.22-2.22,8.77-.24,14.01,5.9,15.56,3.53.89,7.2.36,10.33-1.5,3.13-1.86,5.34-4.83,6.24-8.37.89-3.53.36-7.2-1.5-10.33-1.86-3.13-4.83-5.35-8.37-6.24-.92-.23-1.79-.35-2.62-.35Z"/>
        </g>
      </g>
    </g>
  </g>
</svg>