<?xml version="1.0" encoding="UTF-8"?>
<svg id="Capa_2" xmlns="http://www.w3.org/2000/svg" viewBox="0 0 220.69 191.26">
  <defs>
    <style>
      .cls-1 {
        fill: #5f5c5d;
      }

      .cls-2 {
        fill: #f9cb71;
      }

      .cls-3 {
        fill: #fff;
      }

      .cls-4 {
        fill: #b9a6dd;
      }

      .cls-5 {
        fill: #6f818c;
      }

      .cls-6 {
        fill: #95a1b3;
      }

      .cls-7 {
        fill: #b2b8c4;
      }

      .cls-8 {
        fill: #ffffa1;
      }

      .cls-9 {
        fill: #e27fa3;
      }

      .cls-10 {
        fill: #a484d8;
      }

      .cls-11 {
        fill: #dd528b;
      }

      .cls-12 {
        fill: #87b758;
      }
    </style>
  </defs>
  <g id="OBJECTS">
    <g>
      <g>
        <path class="cls-7" d="M131,131.69c1.04-.64,2.08-1.29,3.11-1.96,12.21-7.9,18.64-22.1,16.63-36.5-1.03-7.38-2.88-14.44-5.53-21.19-3.07-7.81-8.42-16.17-16.57-22.52.74-10.26,1.19-32.86-8.67-37.15-9.92-4.32-27.52,17.55-35.04,27.76-5.27,1.12-11.78,3.29-19.08,6.2-7.32,2.84-13.57,5.69-18.19,8.45-12.47-2.36-40.24-6.38-44.56,3.53-4.29,9.85,11.41,26.08,18.95,33.1-1.65,10.21.13,19.98,3.2,27.79,2.65,6.75,6.11,13.18,10.38,19.29,8.33,11.92,22.71,17.94,37.03,15.41,5.53-.98,10.97-2.22,16.3-3.71-1.09,2.96-1.69,6.12-1.69,9.41,0,16.38,14.61,29.67,32.63,29.67s32.63-13.28,32.63-29.67c0-12.84-8.97-23.77-21.53-27.9Z"/>
        <g>
          <path class="cls-6" d="M75,48.29c4.39,11.18,4.7,21.51.7,23.08-4.01,1.57-10.82-6.2-15.21-17.38-.6-1.53-1.13-3.04-1.57-4.52,4.63-2.07,9.35-3.92,14.15-5.55.68,1.38,1.33,2.85,1.93,4.37Z"/>
          <g>
            <path class="cls-6" d="M57.98,50.74c4.39,11.17,4.71,21.51.7,23.08-3.85,1.51-10.33-5.67-14.72-16.2,2.23-1.63,4.63-3.1,7.16-4.41,2.17-1.11,4.36-2.18,6.57-3.19.1.24.19.47.29.71Z"/>
            <path class="cls-6" d="M89.54,39.6c3.98,10.74,4.15,20.46.28,21.98-4.01,1.57-10.81-6.21-15.2-17.38-.09-.24-.19-.47-.27-.71,2.65-.88,5.33-1.69,8.03-2.44,2.38-.66,4.77-1.13,7.16-1.45Z"/>
          </g>
        </g>
        <path class="cls-3" d="M118.38,32.84s2.18,2.16,3.53,5.03c1.25,2.64.43,5.36-1.37,7.06-6.5-3.34-13.69-5.34-21.09-5.78-.52-1.5-.47-3.18.3-4.74,3.09-6.26,7.89-13.59,13.35-13.53,9.51.12,5.29,11.96,5.29,11.96Z"/>
        <path class="cls-3" d="M18.19,72.22s-.13,3.07.84,6.08c.89,2.78,3.34,4.21,5.81,4.24,2.48-6.88,6.39-13.23,11.51-18.59-.64-1.45-1.82-2.65-3.45-3.27-6.53-2.48-15.03-4.58-18.98-.82-6.88,6.57,4.27,12.36,4.27,12.36Z"/>
        <path class="cls-5" d="M153.09,92.9c-1.05-7.52-2.96-14.83-5.68-21.73-2.3-5.84-7.13-15.21-16.33-22.75.81-12.86.38-33.64-10.17-38.24-10.42-4.54-25.96,12.44-37.37,27.82-5.02,1.15-11.23,3.19-18.55,6.1-7.36,2.86-13.3,5.59-17.77,8.17-18.83-3.48-41.78-5.32-46.31,5.08-4.6,10.56,9.24,26.07,18.59,34.92-1.61,11.79,1.23,21.94,3.53,27.78,2.71,6.9,6.29,13.56,10.64,19.78,7.5,10.73,19.79,16.98,32.59,16.98,2.26,0,4.54-.19,6.8-.6,11.16-1.97,22.06-5.04,32.41-9.1,1.22-.48,1.82-1.86,1.34-3.08-.48-1.22-1.86-1.82-3.08-1.34-10.05,3.95-20.65,6.93-31.5,8.84-2,.35-4,.52-5.98.52-11.26,0-22.09-5.51-28.69-14.96-4.13-5.92-7.54-12.24-10.11-18.8-2.85-7.24-6.63-21.72.06-37.27.52-1.21-.04-2.6-1.25-3.12-1.2-.52-2.6.04-3.12,1.25-1.1,2.55-1.93,5.07-2.56,7.54-12.01-11.86-17.71-21.99-15.32-27.46,2.29-5.26,15.99-6.38,36.25-3.14-2.48,1.95-4.79,4.02-6.88,6.15-.92.94-.9,2.44.04,3.36.46.45,1.06.68,1.66.68s1.23-.24,1.7-.72c2.16-2.21,4.6-4.36,7.23-6.37,4.2-3.2,11.41-6.79,21.45-10.69,9.99-3.98,17.72-6.26,22.97-6.77,3.3-.32,6.54-.41,9.63-.26,1.29.07,2.42-.95,2.49-2.26.06-1.31-.95-2.42-2.26-2.49-2.98-.14-6.08-.07-9.24.19,12.62-16.19,23.43-24.69,28.69-22.4,5.47,2.38,8.19,13.68,7.49,30.54-2.14-1.38-4.47-2.66-7.01-3.78-1.2-.53-2.6.01-3.13,1.21-.53,1.2.01,2.6,1.21,3.13,15.49,6.84,22.58,20.01,25.42,27.26,2.58,6.56,4.39,13.51,5.39,20.65,1.88,13.43-4.23,26.84-15.56,34.18-1.1.71-1.42,2.18-.7,3.28.45.7,1.22,1.09,2,1.09.44,0,.89-.12,1.29-.38,12.88-8.34,19.82-23.58,17.69-38.83Z"/>
        <g>
          <g>
            <path class="cls-6" d="M129.6,91.7c-.95,0-1.84-.57-2.21-1.51-.48-1.22.12-2.6,1.34-3.08l10.63-4.18c1.22-.48,2.6.12,3.08,1.34.48,1.22-.12,2.6-1.34,3.08l-10.63,4.18c-.29.11-.58.17-.87.17Z"/>
            <path class="cls-6" d="M132.26,98.47c-1.29,0-2.35-1.03-2.37-2.33-.03-1.31,1.02-2.4,2.33-2.42l9.97-.2s.03,0,.05,0c1.29,0,2.35,1.03,2.37,2.33.03,1.31-1.02,2.4-2.33,2.42l-9.97.2s-.03,0-.05,0Z"/>
          </g>
          <g>
            <path class="cls-6" d="M55.34,120.9c-.95,0-1.84-.57-2.21-1.51-.48-1.22.12-2.6,1.34-3.08l10.63-4.18c1.22-.48,2.6.12,3.08,1.34.48,1.22-.12,2.6-1.34,3.08l-10.63,4.18c-.29.11-.58.17-.87.17Z"/>
            <path class="cls-6" d="M61.2,130.12c-.65,0-1.3-.27-1.77-.79-.87-.98-.79-2.48.19-3.35l7.43-6.64c.98-.87,2.48-.79,3.35.19.87.98.79,2.48-.19,3.35l-7.43,6.64c-.45.4-1.02.6-1.58.6Z"/>
          </g>
        </g>
        <g>
          <path class="cls-3" d="M103.62,73.31c-.95,0-1.84-.57-2.21-1.51-.48-1.22.12-2.6,1.34-3.08l5.58-2.19c1.22-.48,2.6.12,3.08,1.34.48,1.22-.12,2.6-1.34,3.08l-5.58,2.19c-.29.11-.58.17-.87.17Z"/>
          <path class="cls-3" d="M66.9,87.74c-.95,0-1.84-.57-2.21-1.51-.48-1.22.12-2.6,1.34-3.08l5.58-2.19c1.22-.48,2.6.12,3.08,1.34.48,1.22-.12,2.6-1.34,3.08l-5.58,2.19c-.29.11-.58.17-.87.17Z"/>
        </g>
        <g>
          <path class="cls-5" d="M113.45,106.83c-.74,2.26-1.89,4.42-3.35,6.28-1.77,2.25-4.01,4.06-6.54,5.04-4.61,1.79-10.33.91-14.89-1.64-3.37-1.86-6.1-4.61-7.33-7.83-.44-1.15-.69-2.35-.7-3.6-.14-10.39,8.37-6.4,14.42-8.76,6.05-2.36,9.64-11.05,16.55-3.29,3.16,3.55,3.47,8.89,1.84,13.8Z"/>
          <path class="cls-9" d="M113.45,106.83c-.74,2.26-1.89,4.42-3.35,6.28-1.77,2.25-4.01,4.06-6.54,5.04-4.61,1.79-10.33.91-14.89-1.64.74-2.26,1.89-4.42,3.35-6.28,1.77-2.25,4.01-4.06,6.54-5.04,4.61-1.79,10.33-.91,14.89,1.64Z"/>
          <path class="cls-5" d="M113.39,91.45c-6.33-7.09-11.44-2.96-14.83-.23-.6.48-1.21.97-1.83,1.42l-.92-2.35.78-.3c1.22-.48,1.82-1.86,1.34-3.08-.48-1.22-1.86-1.82-3.08-1.34l-5.97,2.35c-1.22.48-1.82,1.86-1.34,3.08.37.94,1.26,1.51,2.21,1.51.29,0,.58-.05.87-.17l.78-.3,1.01,2.56c-1.07.19-2.22.26-3.35.33-4.34.27-10.91.69-10.77,10.19.07,4.72,2.84,9.27,7.6,12.47,3.76,2.54,8.21,3.87,12.39,3.87,2.17,0,4.27-.36,6.17-1.1,5.56-2.16,10.19-7.89,11.8-14.59,1.34-5.58.31-10.81-2.84-14.33ZM111.6,104.67c-1.24,5.15-4.81,9.68-8.9,11.27-4.09,1.59-9.79.67-14.18-2.29-3.45-2.33-5.46-5.46-5.5-8.6-.07-4.98,1.67-5.09,6.32-5.38,2.07-.13,4.41-.28,6.59-1.13,2.18-.85,4-2.32,5.61-3.62,2-1.62,3.31-2.67,4.64-2.67,1.08,0,2.17.7,3.66,2.37,2.09,2.34,2.73,6.01,1.76,10.06Z"/>
        </g>
        <g>
          <path class="cls-1" d="M60.38,107.37c-.32,0-.64-.06-.95-.2-1.2-.52-1.75-1.92-1.23-3.13,1.4-3.22,3.97-5.69,7.24-6.98,3.27-1.28,6.83-1.22,10.05.18,1.2.52,1.75,1.92,1.23,3.13-.52,1.2-1.92,1.75-3.13,1.23-2.05-.89-4.33-.94-6.41-.12-2.08.82-3.72,2.4-4.62,4.45-.39.89-1.26,1.43-2.18,1.43Z"/>
          <path class="cls-1" d="M113.18,86.62c-.32,0-.64-.06-.95-.2-1.2-.52-1.75-1.92-1.23-3.13,2.89-6.64,10.65-9.69,17.29-6.8,1.2.52,1.75,1.92,1.23,3.13-.52,1.2-1.92,1.75-3.13,1.23-4.24-1.84-9.19.1-11.03,4.34-.39.89-1.26,1.43-2.18,1.43Z"/>
        </g>
      </g>
      <g>
        <path class="cls-7" d="M138.73,167.97c10.71,3.65,16.08-5.19,25.29-16.35l-12.68-5.19-18.99,15.85,6.37,5.69Z"/>
        <path class="cls-5" d="M143.47,171.21c-1.7,0-3.53-.31-5.51-.99-1.24-.42-1.91-1.77-1.48-3.01.42-1.24,1.77-1.91,3.01-1.48,7.59,2.59,11.74-2.04,19.69-11.91.96-1.19,1.96-2.43,3.01-3.7.84-1.01,2.33-1.15,3.34-.32,1.01.84,1.16,2.33.32,3.34-1.04,1.25-2.02,2.48-2.97,3.66-6.35,7.89-11.61,14.41-19.41,14.41Z"/>
        <g>
          <path class="cls-4" d="M157.77,96.22l-46.87,56.8c-2.64,3.2.23,9.94,6.41,15.04,6.18,5.1,13.34,6.64,15.98,3.44l46.87-56.8"/>
          <path class="cls-8" d="M154.34,146c-15.95,7.72-31.75-7.14-31.75-7.14l-9.38,11.37s15.81,14.86,31.75,7.14l9.38-11.37Z"/>
          <path class="cls-8" d="M173.1,123.27c-15.95,7.72-31.75-7.14-31.75-7.14l-9.38,11.37s15.81,14.86,31.75,7.14l9.38-11.37Z"/>
          <path class="cls-1" d="M164.18,111.26c-6.18-5.1-9.05-11.84-6.41-15.04,2.64-3.2,9.8-1.66,15.98,3.44,6.18,5.1,9.05,11.84,6.41,15.04s-9.8,1.66-15.98-3.44Z"/>
          <path class="cls-10" d="M175.89,118.76c-3.9,0-8.72-1.96-13.22-5.67h0c-3.28-2.71-5.83-5.95-7.19-9.13-1.58-3.7-1.41-6.98.46-9.25,1.87-2.27,5.07-3.05,9-2.21,3.38.73,7.05,2.62,10.33,5.32,3.28,2.71,5.83,5.95,7.19,9.13,1.58,3.7,1.41,6.98-.46,9.25-1.42,1.72-3.57,2.55-6.11,2.55ZM165.69,109.43c2.66,2.2,5.69,3.78,8.31,4.34,2.05.44,3.67.22,4.33-.58.67-.81.57-2.44-.25-4.36-1.05-2.46-3.18-5.13-5.84-7.33-2.66-2.2-5.69-3.78-8.31-4.34-2.05-.44-3.67-.22-4.33.59-.67.81-.57,2.44.25,4.36,1.05,2.46,3.18,5.13,5.84,7.33h0Z"/>
          <path class="cls-10" d="M129.06,175.55c-.92,0-1.9-.11-2.93-.33-3.38-.73-7.05-2.62-10.33-5.32-7.43-6.13-10.32-14.03-6.73-18.39l46.87-56.8c.84-1.01,2.33-1.15,3.34-.32,1.01.84,1.16,2.33.32,3.34l-46.87,56.8c-1.34,1.62.37,6.98,6.09,11.7,2.66,2.2,5.69,3.78,8.31,4.34,2.05.44,3.67.22,4.33-.58l46.87-56.8c.84-1.01,2.33-1.15,3.34-.32,1.01.84,1.16,2.33.32,3.34l-46.87,56.8c-1.38,1.67-3.48,2.54-6.06,2.54Z"/>
        </g>
        <path class="cls-11" d="M192.67,107.69c-1.21,0-2.24-.92-2.36-2.15-.13-1.31.83-2.47,2.14-2.59,3.11-.3,5.09-1.94,7.38-3.83,2.45-2.03,5.23-4.33,9.53-4.74,1.3-.13,2.47.83,2.59,2.14.13,1.31-.83,2.47-2.14,2.59-2.85.27-4.75,1.85-6.96,3.67-2.53,2.09-5.4,4.47-9.96,4.9-.08,0-.15.01-.23.01Z"/>
        <path class="cls-2" d="M185.73,96.68c-.78,0-1.54-.38-2-1.08-.71-1.1-.4-2.57.7-3.29,2.62-1.7,3.62-4.07,4.78-6.81,1.24-2.93,2.64-6.26,6.27-8.61,1.1-.71,2.57-.4,3.29.7.71,1.1.4,2.57-.7,3.29-2.4,1.56-3.36,3.83-4.47,6.47-1.28,3.02-2.72,6.45-6.57,8.95-.4.26-.85.38-1.29.38Z"/>
        <path class="cls-12" d="M171.67,90.01c-.47,0-.95-.14-1.36-.43-1.07-.75-1.33-2.23-.58-3.31,1.79-2.56,1.83-5.13,1.88-8.1.05-3.18.11-6.79,2.59-10.33.75-1.07,2.23-1.33,3.31-.58,1.07.75,1.33,2.23.58,3.31-1.64,2.34-1.68,4.81-1.73,7.67-.05,3.28-.11,7-2.74,10.76-.46.66-1.2,1.01-1.95,1.01Z"/>
        <path class="cls-11" d="M188.85,63.91c-1.11,0-2.1-.78-2.33-1.9-.26-1.29.57-2.54,1.86-2.8,2.32-.47,3.82-2.73,3.35-5.05-.26-1.29.57-2.54,1.86-2.8,1.29-.26,2.54.57,2.8,1.86.99,4.88-2.18,9.66-7.06,10.65-.16.03-.32.05-.47.05Z"/>
        <path class="cls-11" d="M216.03,86.41c-2.09,0-4.1-.72-5.73-2.07-1.86-1.54-3.01-3.7-3.24-6.11-.13-1.31.83-2.47,2.14-2.59,1.31-.13,2.47.83,2.59,2.14.11,1.14.66,2.17,1.54,2.9.88.73,2,1.07,3.14.96,1.31-.13,2.47.83,2.59,2.14.13,1.31-.83,2.47-2.14,2.59-.29.03-.59.04-.88.04Z"/>
        <path class="cls-11" d="M202.31,27.38c-.6,0-1.2-.23-1.66-.68-3.56-3.49-3.61-9.22-.12-12.78.92-.94,2.42-.95,3.36-.03.94.92.95,2.42.03,3.36-1.65,1.69-1.63,4.4.06,6.06.94.92.95,2.42.03,3.36-.47.47-1.08.71-1.7.71Z"/>
        <path class="cls-2" d="M173.97,40.87c-.8,0-1.6-.11-2.39-.32-2.33-.63-4.27-2.14-5.47-4.23-.65-1.14-.26-2.59.88-3.24,1.14-.65,2.59-.26,3.24.88.57.99,1.49,1.71,2.59,2.01,1.1.3,2.26.15,3.25-.41,1.14-.65,2.59-.26,3.24.88.65,1.14.26,2.59-.88,3.24-1.38.79-2.92,1.2-4.47,1.2Z"/>
        <path class="cls-12" d="M218.32,56.36c-.78,0-1.54-.38-2-1.09-1.28-1.98-3.94-2.56-5.92-1.27-1.1.71-2.57.4-3.28-.71-.71-1.1-.4-2.57.71-3.28,4.18-2.7,9.79-1.5,12.49,2.69.71,1.1.4,2.57-.71,3.28-.4.26-.84.38-1.29.38Z"/>
        <g>
          <path class="cls-7" d="M164.02,151.62c4.73-5.73,6.56-12.04.82-16.78s-14.22-3.92-18.95,1.82c-4.73,5.73-3.92,14.22,1.82,18.95,5.73,4.73,11.58,1.74,16.31-3.99Z"/>
          <path class="cls-5" d="M153.64,160.33c-2.6,0-5.12-.97-7.44-2.89-3.26-2.69-5.28-6.49-5.69-10.71-.4-4.21.86-8.33,3.55-11.59,2.69-3.26,6.49-5.28,10.71-5.69,4.21-.4,8.33.86,11.59,3.55,6.09,5.02,5.9,12.36-.5,20.12-2.86,3.47-5.86,5.72-8.9,6.67-1.11.35-2.22.52-3.32.52ZM156.29,134.14c-.36,0-.72.02-1.08.05-2.95.28-5.61,1.7-7.49,3.98-1.88,2.28-2.77,5.17-2.48,8.11.28,2.95,1.7,5.61,3.98,7.49,2.05,1.7,4.12,2.19,6.31,1.5,2.12-.67,4.42-2.45,6.66-5.17,7.06-8.55,2.6-12.22,1.14-13.43-2-1.65-4.47-2.54-7.04-2.54Z"/>
        </g>
      </g>
      <g>
        <path class="cls-8" d="M53.29,4.56l36.14,34.64h0c-12.02,14.79-30.6,22.65-49.59,20.98h0l.31-50.06c.04-6.81,8.21-10.27,13.13-5.56Z"/>
        <path class="cls-4" d="M39.46,60.34c9.49.84,18.88-.71,27.41-4.32,8.52-3.6,16.16-9.27,22.18-16.66l-8.72-8.36c-5.37,5.49-11.73,9.78-18.66,12.72-6.94,2.93-14.46,4.51-22.13,4.54l-.07,12.08Z"/>
        <path class="cls-4" d="M39.62,35.69c5.82-.57,11.51-2.02,16.84-4.28,5.33-2.26,10.32-5.32,14.79-9.11l-9.43-9.04c-3.31,2.32-6.86,4.29-10.57,5.86-3.71,1.57-7.59,2.75-11.57,3.51l-.08,13.06Z"/>
        <path class="cls-10" d="M44.91,62.77c-1.75,0-3.51-.08-5.27-.23-1.23-.11-2.17-1.14-2.17-2.38l.31-50.06c.03-4.12,2.4-7.67,6.19-9.27,3.79-1.6,7.99-.83,10.96,2.02l36.14,34.64c.89.86.98,2.25.2,3.21-11.42,14.05-28.46,22.08-46.37,22.08ZM42.24,57.95c16.72.81,32.87-6.02,43.94-18.59L51.65,6.27h0c-1.6-1.54-3.78-1.94-5.83-1.07-2.05.86-3.27,2.71-3.29,4.93l-.3,47.83Z"/>
      </g>
      <path class="cls-7" d="M87.95,156.38c-3.39,16.8-2.9,36.97,13.27,31.7,19.54-6.38,36.77-16.47,31.03-28.47-5.74-12-29.94-2.1-36.68,11.16,0,0-6.91-17.9-7.62-14.39Z"/>
      <path class="cls-5" d="M96.62,191.26c-3.72,0-6.22-1.55-7.79-3.12-7.75-7.74-5.07-27.51-1.38-38.91.4-1.25,4.92.22,4.52,1.46-4.08,12.58-5.11,28.77.22,34.08,1.91,1.9,4.62,2.24,8.3,1.04,16.23-5.3,27.1-11.98,29.82-18.33.98-2.29.91-4.53-.2-6.85-1.26-2.64-3.8-4-7.53-4.05-.06,0-.13,0-.19,0-8.89,0-20.61,7.23-24.69,15.26-.59,1.17-2.02,1.64-3.19,1.04-1.17-.59-1.64-2.02-1.04-3.19,4.86-9.57,18.33-17.86,28.94-17.86.08,0,.16,0,.24,0,5.53.06,9.7,2.46,11.76,6.75,1.72,3.58,1.81,7.21.29,10.78-4.23,9.9-20.13,16.88-32.71,20.98-2.01.66-3.78.93-5.34.93Z"/>
    </g>
  </g>
</svg>