<?xml version="1.0" encoding="UTF-8"?>
<svg id="Capa_2" xmlns="http://www.w3.org/2000/svg" viewBox="0 0 220.69 207.16">
  <defs>
    <style>
      .cls-1 {
        fill: #ffbf8c;
      }

      .cls-2 {
        fill: #ffa6ca;
      }

      .cls-3 {
        fill: #fff;
      }

      .cls-4 {
        fill: #678490;
      }

      .cls-5 {
        fill: #ddfcfc;
      }

      .cls-6 {
        fill: #ff9d6f;
      }

      .cls-7 {
        fill: #93f6f8;
      }

      .cls-8 {
        fill: #fd80a6;
      }

      .cls-9 {
        fill: #b1b9c6;
      }

      .cls-10 {
        fill: #91a2b5;
      }

      .cls-11 {
        fill: #605c5d;
      }
    </style>
  </defs>
  <g id="OBJECTS">
    <g>
      <path class="cls-8" d="M130.58,49.38l1.45.55.55-1.45c2.29-6.01,9.02-9.03,15.04-6.74h0c6.01,2.29,9.03,9.02,6.74,15.04l-3.03,7.96c-3.21,8.43-12.66,12.66-21.09,9.45l-7.96-3.03c-6.01-2.29-9.03-9.02-6.74-15.04h0c2.29-6.01,9.02-9.03,15.04-6.74Z"/>
      <path class="cls-2" d="M205.66,89.7l.8.61.61-.8c2.53-3.33,7.29-3.97,10.62-1.44h0c3.33,2.54,3.97,7.29,1.44,10.62l-3.36,4.41c-3.56,4.67-10.22,5.57-14.89,2.02l-4.41-3.36c-3.33-2.53-3.97-7.29-1.44-10.62h0c2.53-3.33,7.29-3.97,10.62-1.44Z"/>
      <path class="cls-2" d="M174.01,36.26l.32.96.96-.32c3.97-1.32,8.26.83,9.58,4.8h0c1.32,3.97-.83,8.26-4.8,9.58l-5.26,1.75c-5.57,1.85-11.59-1.16-13.44-6.73l-1.75-5.26c-1.32-3.97.83-8.26,4.8-9.58h0c3.97-1.32,8.26.83,9.58,4.8Z"/>
      <path class="cls-2" d="M46.53,125.96l1.02.54.54-1.02c2.25-4.24,7.51-5.85,11.75-3.6h0c4.24,2.25,5.85,7.51,3.6,11.75l-2.98,5.61c-3.16,5.94-10.53,8.2-16.47,5.04l-5.61-2.98c-4.24-2.25-5.85-7.51-3.6-11.75h0c2.25-4.24,7.51-5.85,11.75-3.6Z"/>
      <g>
        <path class="cls-9" d="M99.36,153.67c-11.13,0-25.85-11.03-41.36-4.1-7.23,3.23-11.09,9.56-13.15,15.4-5.58-5.45-13.86-11.83-19.56-8.67-5.2,2.87-5.03,12,2.76,22.85-8.9,1.8-18.31,5.84-16.59,14.95,3.13,16.51,67.42,6.79,103.04,6.79l-15.15-47.21Z"/>
        <path class="cls-4" d="M82.08,199.84c-16.41.97-33.39,1.97-46.55,1.22-16.96-.96-21.17-4.56-21.71-7.41-.45-2.37.03-4.36,1.46-6.08,5.22-6.25,21.4-7.5,27.18-7.45.65,0,1.26-.25,1.71-.7.45-.45.71-1.06.71-1.7,0-.05.03-5.11,1.87-10.88,2.37-7.44,6.48-12.51,12.22-15.08,9.22-4.12,18.1-1.34,26.69,1.36,4.84,1.52,9.41,2.95,13.69,2.95v-4.81c-3.55,0-7.78-1.33-12.26-2.73-9-2.82-19.21-6.02-30.09-1.16-3,1.34-5.66,3.27-7.94,5.72-12.08-3.06-16.44-8.66-17.77-10.98-1.88-3.28-2.15-6.92-.82-11.15,1.5-4.78,5.06-7.66,8.51-10.44,5.69-4.58,12.13-9.78,6.65-22.87-.51-1.22-1.92-1.8-3.15-1.29-1.22.51-1.8,1.92-1.29,3.15,4.09,9.76.38,12.74-5.23,17.27-3.82,3.08-8.15,6.57-10.08,12.74-1.72,5.5-1.31,10.54,1.24,14.98,4.16,7.26,13.02,10.98,18.79,12.7-.72,1.14-1.39,2.35-1.99,3.64-8.12-7.2-14.77-9.44-19.81-6.65-2.3,1.27-3.85,3.42-4.48,6.23-1.05,4.68.58,10.82,4.5,17.19-4.95,1.35-9.72,3.48-12.55,6.87-2.38,2.85-3.23,6.24-2.5,10.06,1.74,9.17,16.54,11.61,36.53,11.61,11.09,0,23.78-.75,36.73-1.51,11.77-.69,22.88-1.35,32.15-1.35v-4.81c-9.4,0-20.59.66-32.43,1.36ZM24.34,161.48c.33-1.44,1.04-2.48,2.12-3.07,3.18-1.76,8.84.89,15.64,7.26-1.21,3.91-1.69,7.47-1.88,9.69-2.46.09-6.59.35-11.06,1.15-3.86-5.76-5.65-11.3-4.81-15.02Z"/>
        <g>
          <path class="cls-9" d="M181.34,63.85c-8.92-6.13-30.37,12.01-39.7,20.6-5.39.1-12.2.99-19.92,2.46-7.73,1.4-14.41,3-19.48,4.84-11.8-4.69-38.32-13.93-44.45-5.01-6.09,8.86,6.25,27.79,12.32,36.12-3.56,9.71-3.67,19.65-2.14,27.9,1.32,7.14,3.49,14.11,6.53,20.92,5.92,13.29,18.9,21.94,33.45,22.18,11.23.18,22.27-.73,33.09-2.74,10.83-2.01,21.45-5.11,31.88-9.31,13.49-5.44,22.51-18.16,23.27-32.69.39-7.45-.08-14.73-1.41-21.87-1.53-8.25-5.2-17.48-12-25.27,2.68-9.94,7.41-32.05-1.45-38.14Z"/>
          <g>
            <path class="cls-10" d="M130.33,90.59c2.19,11.81.53,22.02-3.7,22.81-4.23.78-9.45-8.15-11.64-19.96-.3-1.62-.53-3.2-.68-4.74,4.94-1.15,9.93-2.07,14.95-2.76.41,1.49.76,3.05,1.06,4.66Z"/>
            <g>
              <path class="cls-10" d="M113.14,89.76c2.19,11.81.54,22.02-3.7,22.81-4.07.75-9.07-7.54-11.38-18.71,2.5-1.18,5.14-2.17,7.87-2.97,2.34-.68,4.7-1.31,7.06-1.88.06.25.1.5.15.75Z"/>
              <path class="cls-10" d="M146.27,84.82c1.87,11.3.19,20.89-3.9,21.65-4.23.78-9.44-8.16-11.63-19.96-.05-.25-.09-.5-.13-.75,2.77-.36,5.56-.65,8.35-.87,2.46-.19,4.9-.21,7.31-.06Z"/>
            </g>
          </g>
          <path class="cls-3" d="M175.88,83.66s1.73,2.54,2.51,5.61c.72,2.83-.6,5.34-2.69,6.67-5.75-4.52-12.43-7.85-19.62-9.69-.23-1.57.14-3.22,1.2-4.6,4.23-5.56,10.33-11.85,15.68-10.75,9.32,1.93,2.93,12.75,2.93,12.75Z"/>
          <path class="cls-3" d="M69.98,103.29s-.71,2.99-.33,6.13c.34,2.9,2.47,4.77,4.91,5.27,3.75-6.28,8.79-11.78,14.85-16.08-.35-1.54-1.29-2.95-2.77-3.87-5.94-3.68-13.89-7.36-18.49-4.41-8.01,5.14,1.84,12.96,1.84,12.96Z"/>
          <path class="cls-4" d="M197.14,126.83c-1.14-6.17-4.11-16.29-11.72-25.45,3.24-12.49,6.76-32.98-2.73-39.51-9.38-6.44-27.89,7.27-42.03,20.21-5.15.17-11.64,1-19.38,2.47-7.77,1.4-14.13,2.96-19,4.65-17.84-7.01-40.04-13.18-46.48-3.81-6.53,9.51,4.11,27.37,11.62,37.86-3.82,11.28-2.96,21.79-1.82,27.96,1.35,7.3,3.6,14.52,6.69,21.46,6.27,14.09,20.24,23.35,35.6,23.61.93.01,1.86.02,2.8.02,10.4,0,20.74-.94,30.77-2.8,10.93-2.03,21.81-5.2,32.34-9.44,14.25-5.74,23.97-19.4,24.78-34.8.4-7.59-.09-15.13-1.44-22.43ZM193.79,149.01c-.71,13.54-9.25,25.54-21.77,30.59-10.23,4.12-20.8,7.2-31.42,9.17-10.62,1.97-21.59,2.87-32.62,2.7-13.5-.22-25.78-8.37-31.29-20.75-2.94-6.6-5.07-13.45-6.36-20.38-1.42-7.65-2.38-22.58,7.14-36.58.75-1.1.46-2.59-.64-3.34-1.1-.75-2.59-.46-3.34.64-1.55,2.28-2.84,4.58-3.93,6.88-7.67-11.29-13.7-24.15-9.8-29.82,3.24-4.72,16.88-3.22,36.13,3.81-2.8,1.44-5.45,3.01-7.88,4.7-1.09.76-1.36,2.25-.61,3.34.47.67,1.22,1.03,1.98,1.03.47,0,.95-.14,1.37-.43,2.54-1.76,5.34-3.4,8.31-4.88,4.73-2.34,12.49-4.5,23.1-6.42,10.57-2.01,18.59-2.78,23.84-2.29,3.3.31,6.5.84,9.51,1.58,1.29.31,2.59-.48,2.91-1.76.31-1.29-.48-2.59-1.76-2.91-2.88-.7-5.92-1.22-9.05-1.56,15.45-13.46,27.64-19.75,32.37-16.5,4.9,3.37,5.43,14.95,1.54,31.35-1.83-1.75-3.87-3.44-6.13-5.02-1.09-.76-2.59-.49-3.34.6-.76,1.09-.49,2.59.6,3.35,13.9,9.66,18.36,23.94,19.78,31.59,1.28,6.93,1.75,14.1,1.37,21.31Z"/>
          <g>
            <path class="cls-11" d="M165.02,137.44c-4.55,0-8.61-3.25-9.47-7.88-.24-1.31.62-2.56,1.93-2.8,1.3-.24,2.56.62,2.8,1.93.48,2.62,3.01,4.35,5.63,3.87,2.62-.49,4.35-3.01,3.87-5.63-.24-1.31.62-2.56,1.93-2.8,1.3-.24,2.56.62,2.8,1.93.97,5.22-2.49,10.26-7.72,11.23-.59.11-1.18.16-1.76.16Z"/>
            <path class="cls-11" d="M111.27,147.4c-4.55,0-8.61-3.25-9.47-7.88-.24-1.31.62-2.56,1.93-2.8,1.31-.24,2.56.62,2.8,1.92.49,2.62,3.01,4.35,5.63,3.87,2.62-.49,4.35-3.01,3.87-5.63-.24-1.31.62-2.56,1.93-2.8,1.3-.24,2.56.62,2.8,1.93.97,5.23-2.49,10.26-7.72,11.23-.59.11-1.18.16-1.76.16Z"/>
          </g>
          <path class="cls-4" d="M133.25,148.8c-3.3,0-6.36-1.91-7.78-4.99-.55-1.21-.02-2.63,1.19-3.19,1.2-.55,2.63-.02,3.19,1.19.72,1.56,2.4,2.44,4.1,2.12,2.04-.38,3.39-2.34,3.01-4.38-.03-.15-.04-.3-.04-.44,0-1.14.81-2.15,1.97-2.36,1.31-.24,2.56.62,2.8,1.93.18.99.74,1.84,1.57,2.41.83.57,1.83.78,2.82.6,1.7-.31,2.96-1.73,3.06-3.45.08-1.32,1.22-2.33,2.55-2.25,1.33.08,2.33,1.22,2.25,2.55-.25,3.92-3.12,7.16-6.99,7.88-2.25.42-4.53-.07-6.41-1.36-.04-.03-.08-.06-.13-.09-1.24,1.87-3.2,3.26-5.58,3.7-.53.1-1.05.15-1.57.15Z"/>
          <g>
            <g>
              <path class="cls-10" d="M173.69,139.26c-1.14,0-2.15-.81-2.36-1.97-.24-1.31.62-2.56,1.93-2.8l11.24-2.08c1.31-.24,2.56.62,2.8,1.93.24,1.31-.62,2.56-1.93,2.8l-11.24,2.08c-.15.03-.3.04-.44.04Z"/>
              <path class="cls-10" d="M184.85,148.12c-.14,0-.27-.01-.41-.04l-9.83-1.7c-1.31-.23-2.18-1.47-1.96-2.78.23-1.31,1.47-2.18,2.78-1.96l9.83,1.7c1.31.23,2.18,1.47,1.96,2.78-.2,1.17-1.22,1.99-2.37,1.99Z"/>
            </g>
            <g>
              <path class="cls-10" d="M95.19,153.81c-1.14,0-2.15-.81-2.36-1.97-.24-1.31.62-2.56,1.93-2.8l11.24-2.08c1.31-.24,2.56.62,2.8,1.93.24,1.31-.62,2.56-1.93,2.8l-11.24,2.08c-.15.03-.3.04-.44.04Z"/>
              <path class="cls-10" d="M99.19,163.99c-.82,0-1.62-.42-2.07-1.17-.68-1.14-.31-2.62.83-3.3l8.56-5.11c1.14-.68,2.62-.31,3.3.83.68,1.14.31,2.62-.83,3.3l-8.56,5.11c-.39.23-.81.34-1.23.34Z"/>
            </g>
          </g>
          <g>
            <path class="cls-3" d="M151.16,113.54c-1.14,0-2.15-.81-2.36-1.97-.24-1.31.62-2.56,1.93-2.8l5.9-1.09c1.31-.24,2.56.62,2.8,1.93.24,1.31-.62,2.56-1.93,2.8l-5.9,1.09c-.15.03-.3.04-.44.04Z"/>
            <path class="cls-3" d="M112.35,120.73c-1.14,0-2.15-.81-2.36-1.97-.24-1.31.62-2.56,1.93-2.8l5.9-1.09c1.31-.24,2.56.62,2.8,1.93.24,1.31-.62,2.56-1.93,2.8l-5.9,1.09c-.15.03-.3.04-.44.04Z"/>
          </g>
          <path class="cls-4" d="M135.55,138.8c-1.14,0-2.15-.81-2.36-1.97-.24-1.31.62-2.56,1.93-2.8l6.31-1.17c1.31-.24,2.56.62,2.8,1.93.24,1.31-.62,2.56-1.93,2.8l-6.31,1.17c-.15.03-.3.04-.44.04Z"/>
        </g>
        <path class="cls-9" d="M159.48,179.48c-8.33,0-15.69,2.43-20.12,6.14-4.43-3.71-11.79-6.14-20.12-6.14-13.54,0-24.52,6.41-24.52,14.32s10.98,10.96,24.52,10.96c8.33,0,15.69-1.16,20.12-3.89,4.43,2.73,11.79,3.89,20.12,3.89,13.54,0,24.52-3.05,24.52-10.96s-10.98-14.32-24.52-14.32Z"/>
        <path class="cls-4" d="M159.47,177.08c-7.72,0-15.06,2.04-20.1,5.52-4.9-3.4-12.05-5.52-20.14-5.52-15.1,0-26.92,7.34-26.92,16.72,0,4.99,3.5,13.36,26.92,13.36,9.8,0,16.11-1.47,20.14-3.53,5.7,2.9,13.96,3.53,20.1,3.53,23.43,0,26.93-8.37,26.93-13.36,0-9.38-11.83-16.72-26.93-16.72ZM97.12,193.79c0-6.46,10.13-11.91,22.12-11.91s22.12,5.45,22.12,11.91c0,7.94-16.93,8.56-22.12,8.56s-22.12-.62-22.12-8.56ZM159.47,202.35c-6.45,0-11.86-.73-15.71-2.08,1.89-2.22,2.39-4.59,2.39-6.48,0-2.87-1.11-5.55-3.08-7.88,4.2-2.55,10.11-4.03,16.4-4.03,11.99,0,22.12,5.46,22.12,11.91,0,7.94-16.93,8.56-22.12,8.56Z"/>
      </g>
      <path class="cls-5" d="M57.21,91.66c30.39,0,55.03-4.98,55.03-44.74S87.6,2.18,57.21,2.18,2.19,7.16,2.19,46.92s24.64,44.74,55.03,44.74Z"/>
      <circle class="cls-5" cx="116.55" cy="94.14" r="10.42"/>
      <path class="cls-7" d="M57.21,93.84c-24.31,0-33.89-3.94-40.07-7.79C5.61,78.85,0,66.05,0,46.92S5.61,14.99,17.15,7.79C28.15.93,43.57,0,57.21,0c24.31,0,33.89,3.94,40.07,7.79,11.54,7.2,17.15,20,17.15,39.13s-5.61,31.93-17.15,39.13c-11,6.86-26.43,7.79-40.07,7.79ZM57.21,4.37c-23.2,0-32.11,3.6-37.75,7.13-10.15,6.34-15.09,17.92-15.09,35.42s4.94,29.09,15.09,35.42c10.06,6.28,24.73,7.13,37.75,7.13,23.2,0,32.11-3.6,37.75-7.13,10.15-6.34,15.09-17.92,15.09-35.42s-4.94-29.09-15.09-35.42c-10.06-6.28-24.73-7.13-37.75-7.13Z"/>
      <path class="cls-7" d="M116.55,106.74c-6.95,0-12.6-5.65-12.6-12.6s5.65-12.6,12.6-12.6,12.6,5.65,12.6,12.6-5.65,12.6-12.6,12.6ZM116.55,85.91c-4.54,0-8.23,3.69-8.23,8.23s3.69,8.23,8.23,8.23,8.23-3.69,8.23-8.23-3.69-8.23-8.23-8.23Z"/>
      <g>
        <path class="cls-1" d="M48.61,26.47c-.06-.03-.13-.06-.2-.09-7.47-3.39-24.28-10.19-28.52-4.62-4.2,5.52,3.17,18.13,6.82,23.69l21.89-18.98Z"/>
        <path class="cls-1" d="M85.33,37.5c2.04-6.33,5.78-20.45.26-24.65-5.56-4.23-19.97,6.79-26.26,12.05-.04.04-.09.07-.14.11l26.13,12.49Z"/>
        <path class="cls-3" d="M81.45,25.46s1.04,1.69,1.44,3.7c.38,1.85-.55,3.43-1.95,4.22-3.57-3.1-7.77-5.45-12.35-6.86-.1-1.02.19-2.07.92-2.93,2.9-3.46,7.04-7.32,10.45-6.44,5.95,1.54,1.49,8.32,1.49,8.32Z"/>
        <path class="cls-3" d="M27.24,32.81s-.55,1.91-.41,3.95c.13,1.88,1.45,3.16,3,3.55,2.61-3.93,6.04-7.33,10.08-9.91-.18-1.01-.74-1.94-1.66-2.58-3.72-2.56-8.73-5.18-11.79-3.43-5.33,3.07.78,8.42.78,8.42Z"/>
        <path class="cls-1" d="M61.29,80.34c5.68-.77,11.28-2.11,16.8-4.03,7.15-2.49,12.16-8.87,12.92-16.4.39-3.86.33-7.66-.18-11.4-1.25-9.22-7.43-21-24.15-23.4-3.02-.43-7.49-.16-12.8.59-5.31.7-9.7,1.62-12.49,2.84-15.48,6.77-18.3,19.77-17.05,28.99.51,3.74,1.46,7.42,2.86,11.04,2.74,7.06,9.27,11.88,16.82,12.37,5.83.38,11.59.18,17.27-.59Z"/>
        <path class="cls-6" d="M93.21,48.18c-.33-2.47-1.41-7.64-4.75-12.72,2.59-9.03,4.27-20.2-1.42-24.53-5.09-3.87-14.81.11-28.91,11.83-1.41.13-2.93.31-4.57.54-1.65.22-3.17.45-4.57.7-16.71-7.54-27.15-8.79-31.02-3.71-4.33,5.69.26,16,5.17,24.01-1.87,5.79-1.53,11.07-1.2,13.54.53,3.92,1.54,7.81,3,11.58,3.06,7.89,10.49,13.35,18.91,13.9,1.96.13,3.91.19,5.86.19,4,0,7.98-.27,11.88-.79,5.81-.79,11.62-2.18,17.27-4.14,7.97-2.77,13.67-10.01,14.52-18.43.41-4.02.34-8.05-.19-11.96ZM84.13,14.76c2.39,1.82,2.55,7.84.56,16.13-3.89-3.8-9.52-6.99-17.68-8.16-.3-.04-.62-.08-.95-.11,9.83-7.37,16.07-9.38,18.06-7.86ZM21.81,23.21c1.52-1.99,8.06-1.72,19.5,2.77-.31.12-.61.24-.89.36-7.54,3.3-12.12,7.87-14.86,12.57-4.13-7.45-5.57-13.3-3.75-15.69ZM88.62,59.67c-.66,6.57-5.11,12.21-11.32,14.37-5.34,1.86-10.84,3.18-16.33,3.92-5.49.74-11.14.94-16.79.57-6.56-.43-12.35-4.68-14.74-10.84-1.33-3.42-2.24-6.95-2.72-10.49-.76-5.57-.75-19.3,15.63-26.46,2.42-1.05,6.4-1.95,11.86-2.67,3.66-.51,6.7-.77,9.09-.77,1.16,0,2.18.06,3.03.18,17.69,2.54,21.36,15.77,22.11,21.34.48,3.54.54,7.19.17,10.84Z"/>
        <g>
          <g>
            <path class="cls-11" d="M68.22,51.55c-1.18,0-2.22-.87-2.38-2.08-.47-3.49,1.98-6.71,5.47-7.18,1.69-.23,3.37.21,4.72,1.25,1.36,1.03,2.23,2.53,2.46,4.22.18,1.32-.74,2.53-2.06,2.7-1.32.18-2.53-.74-2.7-2.06-.06-.42-.27-.79-.61-1.04-.34-.25-.75-.37-1.17-.31-.86.12-1.47.91-1.35,1.77.18,1.32-.74,2.53-2.06,2.7-.11.01-.22.02-.33.02Z"/>
            <path class="cls-11" d="M38.41,55.59c-1.18,0-2.22-.87-2.38-2.08-.47-3.49,1.98-6.71,5.47-7.18,1.69-.23,3.37.21,4.72,1.25,1.36,1.03,2.23,2.53,2.46,4.22.18,1.32-.74,2.53-2.06,2.7-1.32.18-2.53-.74-2.7-2.06-.06-.42-.27-.79-.61-1.04-.34-.26-.75-.36-1.17-.31-.86.12-1.47.91-1.35,1.77.18,1.32-.74,2.53-2.06,2.7-.11.01-.22.02-.33.02Z"/>
          </g>
          <line class="cls-8" x1="53.2" y1="54.41" x2="53.2" y2="54.41"/>
          <g>
            <g>
              <path class="cls-6" d="M76.69,56.01c-1.08,0-2.01-.8-2.16-1.89-.16-1.2.68-2.3,1.87-2.46l6.23-.85c1.2-.16,2.3.68,2.46,1.87.16,1.2-.68,2.3-1.87,2.46l-6.23.85c-.1.01-.2.02-.3.02Z"/>
              <path class="cls-6" d="M82.93,63.71c-.16,0-.32-.02-.48-.05l-5.36-1.2c-1.18-.26-1.92-1.43-1.66-2.61.26-1.18,1.43-1.92,2.61-1.66l5.36,1.2c1.18.26,1.92,1.43,1.66,2.61-.23,1.02-1.13,1.71-2.13,1.71Z"/>
            </g>
            <g>
              <path class="cls-6" d="M33.15,61.91c-1.08,0-2.01-.8-2.16-1.89-.16-1.2.68-2.3,1.87-2.46l6.23-.85c1.19-.16,2.3.68,2.46,1.87.16,1.2-.68,2.3-1.87,2.46l-6.23.85c-.1.01-.2.02-.3.02Z"/>
              <path class="cls-6" d="M35.43,70.15c-.78,0-1.54-.42-1.93-1.16-.57-1.07-.16-2.39.9-2.96l4.84-2.58c1.06-.57,2.39-.16,2.96.9.57,1.07.16,2.39-.9,2.96l-4.84,2.58c-.33.17-.68.26-1.03.26Z"/>
            </g>
          </g>
          <path class="cls-6" d="M64.72,51.55c-1.32-.15-2.51.8-2.65,2.12-.05.45-.4.8-.85.86-.36.05-.61-.1-.73-.19-.12-.09-.33-.3-.38-.65h0s-.16-1.21-.16-1.21c1.14-.32,1.9-1.43,1.73-2.64-.18-1.32-1.39-2.23-2.7-2.06l-4.11.56c-1.32.18-2.24,1.39-2.06,2.7.16,1.2,1.19,2.08,2.37,2.08l.16,1.21h0c.07.54-.31,1.04-.85,1.11-.45.06-.88-.19-1.05-.61-.49-1.23-1.89-1.83-3.12-1.34-1.23.49-1.83,1.89-1.34,3.12.89,2.22,3.03,3.64,5.37,3.64.26,0,.52-.02.79-.05,1.25-.17,2.36-.73,3.21-1.54,1.07.57,2.29.8,3.51.63,2.64-.36,4.68-2.45,4.98-5.09.15-1.32-.8-2.51-2.12-2.66Z"/>
        </g>
      </g>
    </g>
  </g>
</svg>