<?xml version="1.0" encoding="UTF-8"?>
<svg id="Capa_2" xmlns="http://www.w3.org/2000/svg" viewBox="0 0 166.56 220.69">
  <defs>
    <style>
      .cls-1 {
        fill: #5f5c5d;
      }

      .cls-2 {
        fill: #f9cb71;
      }

      .cls-3 {
        fill: #fff;
      }

      .cls-4 {
        fill: #b9a6dd;
      }

      .cls-5 {
        fill: #e6fcfc;
      }

      .cls-6 {
        fill: #6f818c;
      }

      .cls-7 {
        fill: #95a1b3;
      }

      .cls-8 {
        fill: #b2b8c4;
      }

      .cls-9 {
        fill: #ffbe8d;
      }

      .cls-10 {
        fill: #a484d8;
      }

      .cls-11 {
        fill: #95e0e8;
      }
    </style>
  </defs>
  <g id="OBJECTS">
    <g>
      <g>
        <path class="cls-8" d="M160.53,5.15c-9.41-9.41-39.4,7.71-52.61,16.01-6.54-1.09-14.97-1.53-24.63-1.49-9.66-.04-18.09.4-24.63,1.49C45.44,12.85,15.46-4.26,6.05,5.15c-9.34,9.34,1.32,35,6.8,46.43-6.48,10.94-8.85,22.93-8.85,33.25,0,8.92,1.06,17.84,3.2,26.75,4.17,17.4,17.93,30.76,35.46,34.31.34.07.67.13,1.01.2-2.26,4.54-3.54,9.65-3.54,15.06,0,18.67,15.14,33.81,33.81,33.81s33.81-15.14,33.81-33.81c0-4.37-.84-8.54-2.35-12.38,6.17-.68,12.33-1.64,18.5-2.89,17.53-3.55,31.29-16.91,35.46-34.31,2.14-8.91,3.2-17.83,3.2-26.75,0-10.32-2.36-22.3-8.84-33.24,5.46-11.42,16.15-37.09,6.8-46.43Z"/>
        <g>
          <path class="cls-7" d="M92.88,26.04c0,14.77-4.3,26.74-9.58,26.74s-9.59-11.97-9.59-26.74c0-2.02.08-3.99.24-5.88,6.23-.28,12.47-.28,18.7.01.16,1.89.24,3.86.24,5.87Z"/>
          <g>
            <path class="cls-7" d="M72.29,21.19c0,14.76-4.29,26.74-9.58,26.74s-9.28-11.14-9.57-25.17c3.29-.86,6.7-1.47,10.18-1.82,2.99-.29,5.97-.53,8.96-.69.01.32.01.62.01.94Z"/>
            <path class="cls-7" d="M113.44,22.64c-.27,14.08-4.46,25.29-9.57,25.29s-9.58-11.98-9.58-26.74c0-.32,0-.62.01-.94,3.43.18,6.87.46,10.29.83,3.02.32,5.97.85,8.85,1.56Z"/>
          </g>
        </g>
        <path class="cls-3" d="M149.5,27.88s1.53,3.46,1.78,7.34c.24,3.59-1.92,6.32-4.75,7.47-5.94-6.75-13.27-12.27-21.55-16.11.08-1.95.89-3.86,2.48-5.29,6.36-5.78,15.15-12.01,21.37-9.48,10.84,4.42.68,16.07.68,16.07Z"/>
        <path class="cls-3" d="M17.07,27.88s-1.53,3.46-1.78,7.34c-.24,3.59,1.92,6.32,4.75,7.47,5.94-6.75,13.27-12.27,21.55-16.11-.08-1.95-.89-3.86-2.48-5.29-6.36-5.78-15.15-12.01-21.37-9.48-10.84,4.42-.68,16.07-.68,16.07Z"/>
        <path class="cls-6" d="M162.2,3.47c-4.89-4.89-13.86-4.61-27.44.84-9.94,3.99-20.23,9.93-27.36,14.38-6.27-.96-14.33-1.42-24.11-1.39-9.79-.04-17.86.42-24.14,1.39-7.14-4.46-17.44-10.4-27.36-14.38C18.22-1.14,9.25-1.42,4.36,3.47c-9.85,9.85-.88,33.8,5.8,47.99C2.95,64.2,1.63,77.12,1.63,84.83c0,9.08,1.1,18.27,3.27,27.31,2.16,8.98,6.78,17.11,13.38,23.5,6.61,6.4,14.88,10.75,23.92,12.58.16.03.32.05.47.05,1.11,0,2.1-.78,2.33-1.9.26-1.29-.57-2.54-1.86-2.8-8.15-1.65-15.6-5.57-21.56-11.34-5.95-5.76-10.12-13.09-12.06-21.19-2.08-8.67-3.14-17.49-3.14-26.2,0-9.66,2.21-28.09,17-43.03.92-.93.92-2.44-.02-3.36-.93-.92-2.44-.92-3.36.02-2.63,2.65-4.88,5.41-6.82,8.2C4.35,27.01,2.29,12.26,7.72,6.83c5.25-5.25,22.15-.16,44.66,13.28-4.14,1.18-8.1,2.62-11.77,4.27-1.2.54-1.73,1.94-1.19,3.14.54,1.2,1.94,1.73,3.14,1.19,3.5-1.57,7.27-2.94,11.22-4.06,6.29-1.79,16.21-2.67,29.52-2.6,13.29-.07,23.21.82,29.5,2.6,3.95,1.12,7.73,2.49,11.22,4.06.32.14.65.21.97.21.91,0,1.77-.52,2.17-1.4.54-1.2,0-2.6-1.19-3.14-3.68-1.65-7.64-3.09-11.78-4.27,22.51-13.45,39.4-18.54,44.66-13.28,5.43,5.43,3.37,20.17-5.45,39.83-1.94-2.79-4.19-5.55-6.82-8.2-.92-.93-2.43-.94-3.36-.02-.93.92-.94,2.43-.02,3.36,14.79,14.94,17,33.37,17,43.03,0,8.71-1.05,17.52-3.14,26.2-1.94,8.1-6.12,15.43-12.06,21.19-5.96,5.77-13.41,9.69-21.56,11.34-1.29.26-2.12,1.51-1.86,2.8.23,1.13,1.22,1.9,2.33,1.9.16,0,.31-.02.47-.05,9.04-1.83,17.31-6.18,23.92-12.58,6.6-6.39,11.22-14.51,13.38-23.5,2.17-9.04,3.27-18.22,3.27-27.31,0-7.71-1.32-20.62-8.53-33.37,6.66-14.2,15.62-38.16,5.79-47.99Z"/>
        <g>
          <g>
            <path class="cls-7" d="M139.39,107.14h-14.05c-1.31,0-2.38-1.06-2.38-2.38s1.06-2.38,2.38-2.38h14.05c1.31,0,2.38,1.06,2.38,2.38s-1.06,2.38-2.38,2.38Z"/>
            <path class="cls-7" d="M136.84,120.34c-.27,0-.55-.05-.82-.15l-11.5-4.26c-1.23-.46-1.86-1.82-1.4-3.05.46-1.23,1.82-1.86,3.05-1.4l11.5,4.26c1.23.46,1.86,1.82,1.4,3.05-.35.96-1.26,1.55-2.23,1.55Z"/>
          </g>
          <g>
            <path class="cls-7" d="M41.24,107.14h-14.05c-1.31,0-2.38-1.06-2.38-2.38s1.06-2.38,2.38-2.38h14.05c1.31,0,2.38,1.06,2.38,2.38s-1.06,2.38-2.38,2.38Z"/>
            <path class="cls-7" d="M29.74,120.34c-.97,0-1.87-.59-2.23-1.55-.46-1.23.17-2.6,1.4-3.05l11.5-4.26c1.23-.46,2.6.17,3.05,1.4.46,1.23-.17,2.6-1.4,3.05l-11.5,4.26c-.27.1-.55.15-.82.15Z"/>
          </g>
        </g>
        <g>
          <path class="cls-3" d="M111.24,74.39h-7.37c-1.31,0-2.38-1.06-2.38-2.38s1.06-2.38,2.38-2.38h7.37c1.31,0,2.38,1.06,2.38,2.38s-1.06,2.38-2.38,2.38Z"/>
          <path class="cls-3" d="M62.71,74.39h-7.37c-1.31,0-2.38-1.06-2.38-2.38s1.06-2.38,2.38-2.38h7.37c1.31,0,2.38,1.06,2.38,2.38s-1.06,2.38-2.38,2.38Z"/>
        </g>
        <path class="cls-6" d="M98.79,91.42c-1.27-.32-2.56.45-2.88,1.72-.58,2.31-2.65,3.92-5.04,3.92-2.87,0-5.2-2.33-5.2-5.2v-1.76h1.57c1.31,0,2.38-1.06,2.38-2.38s-1.06-2.38-2.38-2.38h-7.89c-1.31,0-2.38,1.06-2.38,2.38s1.06,2.38,2.38,2.38h1.57v1.76c0,2.87-2.33,5.2-5.2,5.2-2.39,0-4.46-1.61-5.04-3.92-.32-1.27-1.61-2.05-2.88-1.72-1.27.32-2.04,1.61-1.72,2.88,1.11,4.43,5.08,7.52,9.65,7.52,3.03,0,5.75-1.36,7.57-3.5,1.83,2.14,4.55,3.5,7.58,3.5,4.57,0,8.54-3.09,9.65-7.52.32-1.27-.45-2.56-1.72-2.88Z"/>
        <g>
          <path class="cls-1" d="M39.04,91.66c-.61,0-1.22-.23-1.68-.7-.93-.93-.93-2.43,0-3.36,6.09-6.09,15.99-6.09,22.08,0,.93.93.93,2.43,0,3.36-.93.93-2.43.93-3.36,0-4.23-4.23-11.12-4.23-15.36,0-.46.46-1.07.7-1.68.7Z"/>
          <path class="cls-1" d="M127.54,91.66c-.61,0-1.22-.23-1.68-.7-4.23-4.23-11.12-4.23-15.36,0-.93.93-2.43.93-3.36,0-.93-.93-.93-2.43,0-3.36,6.09-6.09,15.99-6.09,22.08,0,.93.93.93,2.43,0,3.36-.46.46-1.07.7-1.68.7Z"/>
        </g>
      </g>
      <g>
        <path class="cls-8" d="M68,135.37l-2.76-4.17c-3.63-5.48-11.02-6.99-16.5-3.37l-9.4,6.22c-1.21.8-2.22,1.78-3.03,2.88-3.56,2.63-6.92,6.54-9.46,11.38-6.02,11.47-5.17,23.78,1.91,27.49s17.69-2.58,23.71-14.05c.5-.95.95-1.91,1.35-2.86.49-.23.96-.5,1.42-.81l8.46-5.6c2.63,2.26,5.58,3.53,8.18,1.62,4.41-3.24,1.1-11.22-3.88-18.75Z"/>
        <path class="cls-6" d="M69.99,134.06s-.02-.02-.03-.03l-2.74-4.14c-2.1-3.18-5.32-5.35-9.06-6.12-3.74-.77-7.55-.03-10.73,2.08l-9.4,6.22c-1.32.87-2.46,1.94-3.41,3.15-3.89,2.95-7.3,7.08-9.87,11.98-6.73,12.82-5.45,26.31,2.91,30.7,1.75.92,3.64,1.35,5.61,1.35,7.46,0,15.97-6.26,21.3-16.4.38-.71.73-1.47,1.08-2.24.3-.17.6-.35.9-.55l7.05-4.66c1.26.88,2.58,1.55,3.94,1.84.54.12,1.07.17,1.59.17,1.49,0,2.91-.47,4.16-1.39,6.25-4.59,1.65-14.48-3.3-21.97ZM29.87,173.7c-5.8-3.05-6.22-14.17-.91-24.29.8-1.53,1.72-2.99,2.71-4.35.18,2.41.96,4.74,2.33,6.81l2.76,4.17c2.75,4.15,7.3,6.4,11.94,6.4.23,0,.45-.01.68-.02-5.43,9.03-14.06,14.15-19.51,11.29ZM70.47,152.2c-.6.44-1.19.56-1.93.4-3.45-.74-8.06-6.94-10.16-10.67-.64-1.14-2.09-1.55-3.23-.91-1.14.64-1.55,2.09-.91,3.23.39.69,2.6,4.52,5.69,7.87l-6.01,3.97c-4.38,2.9-10.31,1.69-13.21-2.69l-2.76-4.17c-1.4-2.12-1.9-4.67-1.39-7.16.51-2.5,1.96-4.65,4.08-6.05l9.4-6.22c2.12-1.4,4.66-1.9,7.16-1.38,2.5.51,4.64,1.96,6.05,4.08l2.76,4.17h0s0,0,0,0c5.16,7.8,6.87,13.75,4.45,15.52Z"/>
      </g>
      <g>
        <path class="cls-4" d="M131.46,202.18c1.26-6.77-11.74-14.88-29.04-18.11-17.3-3.23-32.36-.37-33.62,6.4-.28,1.48-1.3,6.95-1.57,8.43-1.26,6.77,11.74,14.88,29.04,18.11,17.3,3.23,32.36.37,33.62-6.4.28-1.48,1.3-6.95,1.57-8.43Z"/>
        <path class="cls-10" d="M109.94,220.69c-4.58,0-9.43-.47-14.12-1.35-8.65-1.62-16.57-4.47-22.3-8.05-6.37-3.97-9.44-8.53-8.64-12.83l1.57-8.43c.8-4.3,5.31-7.44,12.69-8.85,6.63-1.26,15.05-1.07,23.71.55,16.32,3.05,32.71,11.4,30.94,20.88h0l-1.57,8.43c-1.26,6.75-10.92,9.65-22.27,9.65ZM88.7,185.11c-3.13,0-6.06.25-8.67.74-5.17.98-8.5,2.87-8.9,5.05l-1.57,8.43c-.41,2.18,2.01,5.14,6.48,7.93,5.24,3.27,12.58,5.9,20.66,7.41,17.97,3.36,30.08-.36,30.85-4.5l1.57-8.43c.77-4.14-9.18-11.98-27.14-15.34-4.61-.86-9.12-1.3-13.28-1.3ZM131.46,202.18h0,0Z"/>
        <path class="cls-5" d="M133.55,144.7c-.02,14.57-20.14,22.53-20.14,22.53,3.96,7.85,13.98,20.55,12.08,26.81-1.05,3.46-4.04,5.99-7.64,6.35-4.6.45-10.86.34-18.29-1.05-7.43-1.39-13.31-3.55-17.43-5.63-3.23-1.63-5.1-5.08-4.83-8.68.49-6.52,14.42-14.75,20.94-20.64,0,0-15.89-14.69-10.64-28.28l45.95,8.59Z"/>
        <path class="cls-9" d="M118.26,155.25c-.57,3.05-5.92,6.59-11.5,5.55-5.58-1.04-9.29-6.28-8.72-9.33.57-3.05,5.56-4.67,11.14-3.62,5.58,1.04,9.65,4.36,9.08,7.4Z"/>
        <path class="cls-11" d="M112.73,203c-3.63,0-8.21-.32-13.6-1.33-8.52-1.59-14.53-4.06-18.07-5.84-4.07-2.05-6.47-6.36-6.13-10.98.43-5.77,7.91-11.47,15.14-16.97,1.67-1.27,3.28-2.5,4.68-3.64-4.29-4.63-14.03-16.93-9.37-28.98l4.43,1.71c-4.6,11.91,9.89,25.55,10.04,25.68.49.45.76,1.09.76,1.76,0,.67-.29,1.3-.78,1.75-1.89,1.71-4.31,3.55-6.88,5.5-5.49,4.18-13.01,9.91-13.29,13.55-.2,2.69,1.19,5.2,3.53,6.38,3.26,1.65,8.82,3.92,16.8,5.41,7.97,1.49,13.98,1.38,17.62,1.02,2.62-.26,4.81-2.09,5.6-4.67,1.06-3.49-3.89-11.55-7.5-17.43-1.69-2.75-3.28-5.34-4.43-7.62-.3-.6-.34-1.29-.1-1.91.24-.62.73-1.12,1.35-1.36.18-.07,18.62-7.55,18.63-20.32h4.75c-.01,12.92-13.54,20.88-19.21,23.65.9,1.57,1.95,3.3,3.05,5.09,4.76,7.75,9.68,15.76,7.99,21.3-1.34,4.43-5.14,7.57-9.68,8.02-1.45.14-3.24.25-5.35.25Z"/>
        <path class="cls-9" d="M117.95,189.15c.73-3.91-4.98-12.6-13.73-14.24-8.75-1.63-17.22,4.41-17.95,8.32-.73,3.91,5.77,8.4,14.52,10.04,8.75,1.63,16.43-.21,17.16-4.12Z"/>
        <path class="cls-2" d="M82.63,201.81c-.14,0-.29-.01-.44-.04-1.29-.24-2.14-1.48-1.9-2.77l11.04-59.07c.24-1.29,1.48-2.14,2.77-1.9,1.29.24,2.14,1.48,1.9,2.77l-11.04,59.07c-.21,1.14-1.21,1.94-2.33,1.94Z"/>
        <path class="cls-4" d="M143.97,135.21c1.26-6.77-11.74-14.88-29.04-18.11-17.3-3.23-32.36-.37-33.62,6.4-.28,1.48-1.3,6.95-1.57,8.43-1.26,6.77,11.74,14.88,29.04,18.11s32.36.37,33.62-6.4c.28-1.48,1.3-6.95,1.57-8.43Z"/>
        <path class="cls-10" d="M124.14,135.93c-3.41,0-7.59-.31-12.5-1.23-12.97-2.42-19.67-6.95-21.41-8.28-1.04-.8-1.24-2.29-.45-3.33.8-1.04,2.29-1.24,3.33-.45,3.16,2.41,9.92,5.62,19.4,7.39,9.49,1.77,16.95,1.22,20.76.12,1.26-.36,2.58.36,2.94,1.62.36,1.26-.36,2.58-1.62,2.94-1.31.38-4.85,1.22-10.45,1.22Z"/>
        <path class="cls-10" d="M122.46,153.72c-4.58,0-9.43-.47-14.12-1.35-8.65-1.62-16.57-4.47-22.3-8.05-6.37-3.97-9.44-8.53-8.64-12.83l1.57-8.43c.8-4.3,5.31-7.44,12.69-8.85,6.63-1.26,15.05-1.07,23.71.55,16.32,3.05,32.71,11.4,30.94,20.88h0l-1.57,8.43c-1.26,6.75-10.92,9.65-22.27,9.65ZM101.22,118.14c-3.13,0-6.06.25-8.67.74-5.17.98-8.5,2.87-8.9,5.05l-1.57,8.43c-.41,2.18,2.01,5.14,6.48,7.93,5.24,3.27,12.58,5.9,20.66,7.41,17.97,3.36,30.08-.36,30.85-4.5l1.57-8.43c.77-4.14-9.18-11.98-27.14-15.34-4.61-.86-9.12-1.3-13.28-1.3ZM143.97,135.21h0,0Z"/>
      </g>
      <g>
        <path class="cls-8" d="M132.76,159.15c-8.1-3.46-17.47.31-20.93,8.41-3.46,8.1.31,17.47,8.41,20.93,8.1,3.46,13.7-1.92,17.16-10.02,3.46-8.1,3.46-15.86-4.65-19.32Z"/>
        <path class="cls-6" d="M125.01,191.92c-1.83,0-3.74-.41-5.7-1.25-4.5-1.92-7.99-5.48-9.81-10.02-1.83-4.54-1.77-9.52.15-14.02,1.92-4.5,5.48-7.99,10.02-9.81,4.54-1.83,9.52-1.77,14.02.15h0c4.52,1.93,7.31,5.28,8.07,9.7.62,3.62-.11,7.91-2.17,12.74-3.49,8.19-8.63,12.52-14.58,12.52ZM126.51,160.24c-1.71,0-3.43.33-5.06.99-3.36,1.35-6,3.93-7.42,7.27-1.42,3.33-1.46,7.02-.11,10.39,1.35,3.36,3.93,6,7.27,7.42,5.78,2.47,10.51-.48,14.04-8.77,1.67-3.92,2.31-7.4,1.85-10.07-.48-2.83-2.2-4.84-5.25-6.13h0c-1.71-.73-3.52-1.1-5.32-1.1Z"/>
      </g>
    </g>
  </g>
</svg>