<?xml version="1.0" encoding="UTF-8"?>
<svg id="Capa_2" xmlns="http://www.w3.org/2000/svg" viewBox="0 0 220.69 158.72">
  <defs>
    <style>
      .cls-1 {
        fill: #5f5c5d;
      }

      .cls-2 {
        fill: #fff;
      }

      .cls-3 {
        fill: #6f818c;
      }

      .cls-4 {
        fill: #95a1b3;
      }

      .cls-5 {
        fill: #ea9c71;
      }

      .cls-6 {
        fill: #b2b8c4;
      }

      .cls-7 {
        fill: #ffbe8d;
      }
    </style>
  </defs>
  <g id="OBJECTS">
    <g>
      <g>
        <path class="cls-7" d="M106.15,105.1c11.41-5.18,18.7-16.46,18.82-28.99.06-6.42-.61-12.67-2.02-18.77-1.62-7.04-5.12-14.85-11.26-21.31,1.94-8.65,5.2-27.86-2.65-32.77-7.91-4.95-25.69,11.45-33.4,19.2-4.63.28-10.46,1.3-17.05,2.85-6.6,1.49-12.29,3.12-16.58,4.89-10.33-3.6-33.49-10.57-38.43-2.67-4.91,7.85,6.4,23.68,11.94,30.63-2.7,8.49-2.44,17.04-.82,24.09,1.4,6.09,3.53,12.01,6.39,17.76,5.58,11.22,17.07,18.18,29.6,17.85.67-.02,1.33-.05,1.99-.08-11.32,16.39-17.54,36.59-6.22,38.45,5.6.92,9.32-4.18,11.72-9.93,4.89,5.07,12.51,8.33,21.09,8.33s16.2-3.26,21.09-8.33c2.39,5.75,6.12,10.86,11.72,9.93,13.64-2.25,1.8-31.13-13.73-47.87,2.62-1.01,5.23-2.09,7.81-3.26Z"/>
        <path class="cls-2" d="M105.08,20.51s1.59,2.12,2.37,4.73c.73,2.41-.32,4.62-2.07,5.84-5.12-3.68-10.99-6.29-17.24-7.61-.25-1.34,0-2.77.86-4,3.43-4.94,8.45-10.58,13.1-9.83,8.09,1.32,2.99,10.87,2.99,10.87Z"/>
        <path class="cls-2" d="M14.67,41.31s-.5,2.6-.06,5.29c.4,2.49,2.31,4.01,4.42,4.35,2.99-5.54,7.13-10.46,12.18-14.38-.36-1.32-1.22-2.49-2.52-3.23-5.25-2.95-12.23-5.82-16.08-3.12-6.7,4.72,2.06,11.08,2.06,11.08Z"/>
        <path class="cls-5" d="M107.13,107.26c12.15-5.52,20.09-17.74,20.21-31.13.06-6.57-.64-13.07-2.08-19.32-1.21-5.28-4.13-13.87-10.99-21.49.99-4.65,2.06-11.02,2.13-17.05.1-8.69-1.95-14.42-6.11-17.02-8.46-5.29-23.96,7.19-35.72,18.91-4.43.35-9.96,1.3-16.52,2.84-6.59,1.49-11.98,3.05-16.12,4.67-5.59-1.92-13.47-4.31-20.81-5.46-10.44-1.63-16.84-.31-19.58,4.06-2.6,4.16-1.95,10.2,1.94,17.98,2.7,5.4,6.45,10.66,9.37,14.4-2.84,9.85-1.71,18.85-.49,24.13,1.44,6.25,3.65,12.41,6.58,18.29,5.83,11.73,17.89,19.18,30.89,19.18.3,0,.6,0,.89-.01,5.59-.15,11.19-.61,16.65-1.38,1.3-.18,2.2-1.38,2.02-2.68-.18-1.3-1.38-2.21-2.68-2.02-5.28.74-10.7,1.19-16.11,1.34-.26,0-.51.01-.77.01-11.21,0-21.61-6.43-26.64-16.55-2.76-5.55-4.84-11.34-6.2-17.24-1.49-6.49-2.86-19.21,4.76-31.51.69-1.12.35-2.58-.77-3.27-1.12-.69-2.58-.35-3.27.77-1.16,1.87-2.13,3.75-2.94,5.62C6.52,42.14,3.01,32.91,5.59,28.79c2.47-3.94,14.09-3.16,30.21,1.87-2.14,1.25-4.17,2.59-6.04,4.01-1.05.79-1.25,2.28-.46,3.33.47.62,1.18.94,1.89.94.5,0,1-.16,1.43-.48,2.11-1.6,4.45-3.11,6.93-4.48,3.96-2.17,10.53-4.31,19.56-6.34,8.99-2.11,15.84-3.07,20.35-2.84,2.84.15,5.6.48,8.2,1,1.28.26,2.54-.58,2.79-1.87.26-1.29-.58-2.54-1.87-2.79-2.3-.46-4.71-.78-7.19-.97,12.31-11.57,22.42-17.35,26.36-14.88,4.11,2.58,4.99,12.41,2.44,26.08-1.55-1.32,8.92,20.02,10.41,26.51,1.36,5.89,2.01,12.02,1.96,18.21-.11,11.56-6.95,22.1-17.43,26.85-5.46,2.48-11.08,4.61-16.71,6.36-1.25.39-1.95,1.72-1.57,2.97.32,1.02,1.25,1.67,2.27,1.67.23,0,.47-.03.7-.11,2.42-.75,4.83-1.57,7.23-2.46,10.06,14.48,19.24,34.62,16.57,41-.38.9-.97,1.35-1.99,1.52-1.49.25-2.84-.11-4.14-1.07-5.32-3.96-8.01-16.58-8.6-21.11-.17-1.3-1.36-2.22-2.66-2.05-1.3.17-2.22,1.36-2.05,2.66.1.75,2.44,18.34,10.47,24.32,1.87,1.39,3.9,2.09,6.05,2.09.56,0,1.13-.05,1.7-.14,2.65-.44,4.59-1.95,5.6-4.37,3.92-9.37-7.54-31.58-16.4-44.6,1.84-.75,3.67-1.53,5.48-2.35Z"/>
        <g>
          <path class="cls-1" d="M98.94,67.93c-.77-3.35-4.12-5.45-7.47-4.67s-5.45,4.12-4.67,7.47c.77,3.35,4.12,5.45,7.47,4.67,3.35-.77,5.45-4.12,4.68-7.47Z"/>
          <path class="cls-1" d="M53.06,78.48c-.77-3.35-4.12-5.45-7.47-4.68-3.35.77-5.45,4.12-4.67,7.47.77,3.35,4.12,5.45,7.47,4.67s5.45-4.12,4.67-7.47Z"/>
        </g>
        <g>
          <path class="cls-2" d="M33.65,94.59c-1.08,0-2.06-.74-2.31-1.84-.29-1.28.5-2.55,1.78-2.85l9.59-2.21c1.28-.29,2.55.5,2.85,1.78.29,1.28-.5,2.55-1.78,2.85l-9.59,2.21c-.18.04-.36.06-.53.06Z"/>
          <path class="cls-2" d="M37.47,103.2c-.77,0-1.53-.38-1.99-1.07-.72-1.1-.41-2.57.68-3.29l7.18-4.71c1.1-.72,2.57-.41,3.29.68.72,1.1.41,2.57-.68,3.29l-7.18,4.71c-.4.26-.85.39-1.3.39Z"/>
        </g>
        <g>
          <path class="cls-2" d="M80.86,60.19c-1.08,0-2.06-.74-2.31-1.84-.29-1.28.5-2.55,1.78-2.85l5.03-1.16c1.28-.29,2.55.5,2.85,1.78.29,1.28-.5,2.55-1.78,2.85l-5.03,1.16c-.18.04-.36.06-.53.06Z"/>
          <path class="cls-2" d="M47.73,67.81c-1.08,0-2.06-.74-2.31-1.84-.29-1.28.5-2.55,1.78-2.85l5.03-1.16c1.28-.29,2.55.5,2.85,1.78.29,1.28-.5,2.55-1.78,2.85l-5.03,1.16c-.18.04-.36.06-.53.06Z"/>
        </g>
        <path class="cls-5" d="M80.46,71.15c-1.32-.02-2.4,1.02-2.42,2.33-.03,1.34-.96,2.49-2.27,2.79-.76.18-1.55.04-2.21-.37-.66-.42-1.13-1.06-1.3-1.83l-.12-.51.38-.09c1.28-.29,2.08-1.57,1.78-2.85-.29-1.28-1.57-2.08-2.85-1.78l-5.39,1.24c-1.28.29-2.08,1.57-1.78,2.85.25,1.1,1.23,1.84,2.31,1.84.18,0,.36-.02.53-.06l.38-.09.12.51c.18.76.04,1.55-.37,2.21-.42.66-1.06,1.13-1.83,1.3-1.31.3-2.66-.32-3.27-1.52-.6-1.17-2.03-1.63-3.2-1.04-1.17.6-1.63,2.03-1.04,3.2,1.33,2.61,3.99,4.18,6.83,4.18.57,0,1.15-.06,1.73-.2,1.94-.45,3.6-1.6,4.69-3.26,1.71,1.02,3.71,1.33,5.65.88,3.44-.79,5.89-3.8,5.96-7.33.03-1.31-1.02-2.4-2.33-2.42Z"/>
      </g>
      <path class="cls-5" d="M47.77,158.72c-.56,0-1.13-.05-1.7-.14-3.31-.54-5.73-2.4-6.99-5.36-3.62-8.53,3.23-24.62,11.64-36.79.75-1.08,4.65,1.62,3.91,2.7-8.78,12.71-13.58,26.57-11.17,32.23.62,1.45,1.69,2.25,3.39,2.53,1.49.25,2.85-.11,4.15-1.07,5.32-3.96,8.01-16.58,8.59-21.11.17-1.3,1.36-2.22,2.66-2.05,1.3.17,2.22,1.36,2.05,2.66-.02.18-.6,4.56-2.1,9.68-2.1,7.14-4.91,12.06-8.37,14.63-1.87,1.39-3.9,2.09-6.06,2.09Z"/>
      <g>
        <path class="cls-6" d="M216.94,25.29c-5.24-7.71-28.13.14-38.31,4.12-4.36-1.61-10.1-3.02-16.75-4.25-6.64-1.3-12.5-2.09-17.15-2.2C136.73,15.51,118.33-.2,110.63,5.04c-7.66,5.21-3.68,24.26-1.4,32.84-5.89,6.68-9.09,14.62-10.45,21.72-1.17,6.14-1.61,12.42-1.3,18.83.59,12.52,8.31,23.52,19.91,28.26,2.41.98,4.83,1.89,7.27,2.74-15.04,16.87-26.11,44.6-12.76,46.8,5.6.92,9.32-4.18,11.72-9.93,4.89,5.07,12.51,8.33,21.09,8.33s16.2-3.26,21.09-8.33c2.39,5.75,6.12,10.86,11.72,9.93,11.42-1.88,4.98-22.43-6.53-38.9.77,0,1.54.01,2.32,0,12.53-.15,23.75-7.54,28.9-18.96,2.64-5.85,4.54-11.85,5.71-17.99,1.35-7.1,1.3-15.66-1.73-24.04,5.26-7.14,15.97-23.41,10.77-31.06Z"/>
        <g>
          <path class="cls-4" d="M167.64,30.8c-1.94,10.17-6.46,17.84-10.1,17.15-3.64-.69-5.03-9.49-3.09-19.66.27-1.39.58-2.74.93-4.02,4.33.62,8.62,1.44,12.87,2.46-.14,1.32-.34,2.69-.61,4.07Z"/>
          <g>
            <path class="cls-4" d="M154.11,24.76c-1.94,10.16-6.46,17.84-10.1,17.15-3.5-.67-4.92-8.88-3.29-18.57,2.38-.16,4.8-.13,7.24.08,2.09.19,4.18.42,6.26.7-.03.22-.07.43-.12.65Z"/>
            <path class="cls-4" d="M182.24,31.15c-2.03,9.66-6.38,16.82-9.9,16.15-3.64-.69-5.02-9.5-3.09-19.66.04-.22.08-.43.13-.64,2.33.57,4.66,1.22,6.98,1.92,2.04.61,4,1.37,5.88,2.23Z"/>
          </g>
        </g>
        <path class="cls-2" d="M206.37,39.49s.6,2.58.26,5.28c-.31,2.5-2.15,4.1-4.25,4.51-3.2-5.43-7.52-10.19-12.72-13.91.31-1.33,1.12-2.54,2.4-3.32,5.13-3.14,12-6.28,15.95-3.72,6.88,4.46-1.64,11.15-1.64,11.15Z"/>
        <path class="cls-2" d="M115.23,22.12s-1.5,2.18-2.18,4.82c-.63,2.44.49,4.6,2.29,5.76,4.97-3.87,10.74-6.71,16.94-8.26.2-1.35-.11-2.77-1.01-3.97-3.62-4.81-8.85-10.25-13.46-9.32-8.04,1.62-2.57,10.97-2.57,10.97Z"/>
        <path class="cls-3" d="M218.9,23.96c-5.61-8.25-24.82-3.06-40.3,2.93-4.19-1.46-9.64-2.82-16.26-4.05-6.63-1.29-12.2-2.03-16.64-2.21-12.2-11.25-28.17-23.15-36.41-17.54-4.05,2.76-5.89,8.56-5.46,17.24.3,6.03,1.61,12.35,2.78,16.95-6.56,7.87-9.15,16.57-10.17,21.89-1.2,6.3-1.65,12.83-1.34,19.39.63,13.38,9.02,25.29,21.38,30.35,1.16.47,2.32.93,3.49,1.37-8.94,13.29-18.26,34.3-14.46,43.54,1.1,2.66,3.17,4.32,6,4.78.58.09,1.14.14,1.7.14,2.15,0,4.18-.7,6.06-2.09,8.03-5.98,10.37-23.57,10.47-24.31.17-1.3-.75-2.49-2.05-2.66-1.3-.17-2.49.75-2.66,2.05-.58,4.52-3.26,17.14-8.59,21.11-1.3.97-2.66,1.32-4.15,1.08-1.2-.2-1.91-.77-2.37-1.9-2.59-6.3,4.48-25.4,14.68-40.06,2.56.87,5.12,1.68,7.69,2.4.22.06.43.09.65.09,1.04,0,1.99-.68,2.29-1.73.36-1.26-.38-2.58-1.64-2.93-5.13-1.45-10.27-3.22-15.28-5.26-10.65-4.36-17.89-14.63-18.43-26.17-.29-6.19.13-12.33,1.26-18.27,1.25-6.54,5.12-18.73,17.04-26.93,1.08-.74,1.36-2.22.61-3.3-.74-1.08-2.22-1.36-3.3-.61-1.81,1.25-3.46,2.58-4.95,3.96-3.07-13.57-2.57-23.43,1.45-26.16,3.84-2.61,14.16,2.78,26.91,13.87-2.46.28-4.86.69-7.14,1.24-1.28.31-2.06,1.59-1.76,2.86.3,1.28,1.59,2.06,2.86,1.76,2.58-.62,5.32-1.06,8.15-1.31,4.5-.4,11.38.3,20.46,2.07,9.08,1.69,15.73,3.57,19.77,5.59,2.54,1.28,4.93,2.69,7.1,4.21.41.29.89.43,1.36.43.75,0,1.49-.35,1.95-1.01.75-1.07.49-2.56-.58-3.31-1.92-1.35-4-2.61-6.19-3.78,15.92-5.63,27.51-6.85,30.12-3.01,2.73,4.01-.43,13.37-8.26,24.86-.88-1.84-1.92-3.68-3.15-5.5-.73-1.09-2.21-1.38-3.3-.65-1.09.73-1.38,2.21-.65,3.3,8.08,12.01,7.19,24.77,5.95,31.31-1.13,5.94-3,11.81-5.54,17.46-4.75,10.53-15.26,17.43-26.76,17.56-6,.07-12-.24-17.85-.91-1.3-.15-2.48.79-2.63,2.09-.15,1.3.79,2.48,2.09,2.63,4.88.56,9.86.87,14.85.94,8.53,12.56,13.16,26.01,10.79,31.63-.61,1.46-1.69,2.27-3.4,2.55-1.49.25-2.84-.11-4.14-1.07-5.32-3.96-8.01-16.58-8.6-21.11-.17-1.3-1.36-2.22-2.66-2.05-1.3.17-2.22,1.36-2.05,2.66.02.18.6,4.56,2.1,9.68,2.1,7.14,4.92,12.06,8.37,14.63,1.87,1.39,3.9,2.09,6.05,2.09.56,0,1.13-.05,1.7-.14,3.33-.55,5.75-2.41,7-5.39,2.1-4.97.42-12.04-1.36-17.09-1.84-5.24-4.7-10.97-8.18-16.47,12.54-.9,23.78-8.68,29.01-20.27,2.7-5.99,4.68-12.22,5.88-18.52,1.01-5.32,1.8-14.36-1.41-24.1,2.78-3.85,6.32-9.25,8.81-14.75,3.59-7.92,4.02-13.99,1.26-18.04Z"/>
        <g>
          <path class="cls-1" d="M181.65,80.42c.64-3.38-1.57-6.64-4.95-7.29-3.38-.64-6.64,1.57-7.29,4.95s1.57,6.64,4.95,7.29c3.38.64,6.64-1.57,7.29-4.95Z"/>
          <path class="cls-1" d="M135.41,71.61c.64-3.38-1.57-6.64-4.95-7.29-3.38-.64-6.64,1.57-7.29,4.95s1.57,6.64,4.95,7.29c3.38.64,6.64-1.57,7.29-4.95Z"/>
        </g>
        <g>
          <g>
            <path class="cls-4" d="M189.33,93.45c-.15,0-.3-.01-.45-.04l-9.67-1.84c-1.29-.25-2.13-1.49-1.89-2.78.25-1.29,1.49-2.13,2.78-1.89l9.67,1.84c1.29.25,2.13,1.49,1.89,2.78-.22,1.14-1.21,1.93-2.33,1.93Z"/>
            <path class="cls-4" d="M185.84,102.2c-.42,0-.84-.11-1.23-.34l-7.35-4.44c-1.12-.68-1.48-2.14-.81-3.26.68-1.12,2.14-1.48,3.26-.81l7.35,4.44c1.12.68,1.48,2.14.81,3.26-.45.74-1.23,1.15-2.04,1.15Z"/>
          </g>
          <g>
            <path class="cls-4" d="M121.78,80.58c-.15,0-.3-.01-.45-.04l-9.67-1.84c-1.29-.25-2.13-1.49-1.89-2.78.25-1.29,1.49-2.13,2.78-1.89l9.67,1.84c1.29.25,2.13,1.49,1.89,2.78-.22,1.14-1.21,1.93-2.33,1.93Z"/>
            <path class="cls-4" d="M112.14,88.16c-1.14,0-2.14-.82-2.34-1.98-.22-1.29.66-2.52,1.95-2.74l8.47-1.42c1.29-.22,2.52.66,2.74,1.95.22,1.29-.66,2.52-1.95,2.74l-8.47,1.42c-.13.02-.27.03-.4.03Z"/>
          </g>
        </g>
        <g>
          <path class="cls-2" d="M174.25,67.22c-.15,0-.3-.01-.45-.04l-5.07-.97c-1.29-.25-2.13-1.49-1.89-2.78.25-1.29,1.49-2.13,2.78-1.89l5.07.97c1.29.25,2.13,1.49,1.89,2.78-.22,1.14-1.21,1.93-2.33,1.93Z"/>
          <path class="cls-2" d="M140.86,60.86c-.15,0-.3-.01-.45-.04l-5.07-.97c-1.29-.25-2.13-1.49-1.89-2.78.25-1.29,1.49-2.13,2.78-1.89l5.07.97c1.29.25,2.13,1.49,1.89,2.78-.22,1.14-1.21,1.93-2.33,1.93Z"/>
        </g>
        <path class="cls-3" d="M163.44,75.92c-1.19-.55-2.6-.03-3.15,1.16-.56,1.22-1.88,1.89-3.2,1.64-1.59-.3-2.64-1.84-2.33-3.43l.1-.51.38.07c.15.03.3.04.45.04,1.12,0,2.11-.79,2.33-1.93.25-1.29-.6-2.53-1.89-2.78l-5.43-1.04c-1.29-.25-2.53.6-2.78,1.89-.25,1.29.6,2.53,1.89,2.78l.38.07-.1.51c-.15.77-.58,1.43-1.23,1.87-.65.44-1.43.6-2.2.46-1.32-.25-2.3-1.36-2.38-2.7-.08-1.31-1.2-2.31-2.51-2.23-1.31.08-2.31,1.2-2.23,2.51.2,3.52,2.77,6.44,6.23,7.1,1.96.37,3.95-.02,5.61-1.1,1.11,1.55,2.79,2.7,4.81,3.09.48.09.97.14,1.45.14,2.95,0,5.68-1.7,6.96-4.44.55-1.19.03-2.6-1.16-3.15Z"/>
      </g>
    </g>
  </g>
</svg>