<?xml version="1.0" encoding="UTF-8"?>
<svg id="Capa_2" xmlns="http://www.w3.org/2000/svg" viewBox="0 0 195.29 220.69">
  <defs>
    <style>
      .cls-1 {
        fill: #b5f6f8;
      }

      .cls-2 {
        fill: #5f5c5d;
      }

      .cls-3 {
        fill: #fff;
      }

      .cls-4 {
        fill: #95a1b3;
      }

      .cls-5 {
        fill: #b2b8c4;
      }

      .cls-6 {
        fill: #e27fa3;
      }

      .cls-7 {
        fill: #70838e;
      }
    </style>
  </defs>
  <g id="OBJECTS">
    <g>
      <g>
        <path class="cls-5" d="M191.55,95.71c-1.02-11.68-4.88-25.02-13.29-36.77,5.06-13.47,14.62-43.59,3.12-53.25-11.59-9.73-43.86,12.62-58,23.32-7.51-.59-17.1-.26-28.03.74-10.94.9-20.45,2.24-27.74,4.12C51.82,25.76,16.18,9.34,6.45,20.92c-9.66,11.5,4.95,39.5,12.28,51.9-6.26,13.03-7.75,26.84-6.74,38.52.88,10.11,2.96,20.09,6.26,29.98,6.44,19.29,23.34,33.06,43.54,35.35.78.09,1.55.17,2.33.25-3.95,6.98-8.53,17.75-8.53,30.14,0,0,20.05,13.62,52.79,13.62s51.98-13.62,51.98-13.62c0-17.5-9.13-31.76-12.72-36.69,2.05-.55,4.1-1.12,6.15-1.72,19.5-5.75,33.76-22.24,36.77-42.35,1.54-10.3,1.87-20.5.99-30.61Z"/>
        <g>
          <path class="cls-4" d="M106.83,36.02c1.46,16.73-2.23,30.7-8.21,31.22-5.99.52-12.04-12.61-13.5-29.33-.2-2.29-.3-4.53-.31-6.68,7.03-.93,14.09-1.55,21.17-1.83.37,2.12.65,4.34.85,6.62Z"/>
          <g>
            <path class="cls-4" d="M83.04,32.55c1.46,16.72-2.22,30.7-8.21,31.22-5.76.5-11.6-11.7-13.32-27.56,3.64-1.3,7.44-2.33,11.35-3.07,3.35-.63,6.71-1.19,10.08-1.67.04.36.07.7.11,1.06Z"/>
            <path class="cls-4" d="M129.78,30.13c1.08,15.97-2.55,29.08-8.34,29.58-5.99.52-12.03-12.62-13.49-29.33-.03-.36-.06-.7-.08-1.06,3.9-.13,7.82-.15,11.74-.08,3.45.06,6.85.37,10.17.9Z"/>
          </g>
        </g>
        <path class="cls-3" d="M171.13,32.51s2.07,3.77,2.74,8.14c.62,4.04-1.55,7.35-4.64,8.92-7.39-7.06-16.24-12.59-25.99-16.11-.1-2.21.63-4.46,2.28-6.24,6.63-7.17,15.97-15.1,23.26-12.84,12.71,3.94,2.35,18.13,2.35,18.13Z"/>
        <path class="cls-3" d="M21.17,45.57s-1.39,4.07-1.29,8.49c.08,4.08,2.8,6.97,6.12,7.99,6.06-8.23,13.81-15.21,22.81-20.37-.28-2.2-1.39-4.28-3.33-5.75-7.77-5.92-18.34-12.11-25.13-8.63-11.83,6.08.82,18.27.82,18.27Z"/>
        <path class="cls-7" d="M194.8,95.42c-.76-8.74-3.52-23.22-12.89-36.97,2.64-7.24,5.85-17.33,7.34-27.08,2.09-13.73.14-23.21-5.78-28.18-6.2-5.21-16.54-4.04-31.61,3.58-10.81,5.47-21.83,13.16-29.47,18.9-7.19-.45-16.33-.18-27.31.83-11.01.91-20.07,2.22-27.08,3.91C44.15,18.28,14.12,6.7,3.95,18.82c-4.97,5.92-5.25,15.6-.82,28.76,3.15,9.37,8.06,18.74,11.92,25.4-6.84,15.17-7.06,29.91-6.3,38.65.9,10.33,3.06,20.66,6.42,30.73,3.36,10.06,9.46,18.89,17.65,25.55,7.58,6.16,16.61,10.17,26.24,11.68-3.43,7.08-6.71,16.67-6.71,27.48,0,1.8,1.46,3.26,3.26,3.26s3.26-1.46,3.26-3.26c0-10.7,3.65-20.15,7.1-26.69,6.38.6,12.79.95,19.1,1.04.02,0,.03,0,.05,0,1.78,0,3.24-1.43,3.26-3.22.02-1.8-1.41-3.28-3.22-3.31-7.59-.11-15.32-.6-22.98-1.46-9.28-1.05-18.01-4.72-25.24-10.59-7.22-5.87-12.61-13.67-15.57-22.55-3.2-9.58-5.25-19.41-6.11-29.23-.95-10.85-.27-31.77,14.88-50,1.15-1.39.96-3.44-.42-4.59-1.39-1.15-3.44-.96-4.59.42-2.5,3.01-4.64,6.09-6.47,9.18C7.19,45.34,3.55,29.44,8.94,23.02c5.19-6.17,24.08-2.23,50.05,10.22-4.15,1.65-8.11,3.51-11.78,5.56-1.57.88-2.13,2.87-1.26,4.44.6,1.07,1.71,1.67,2.85,1.67.54,0,1.08-.13,1.59-.42,3.78-2.11,7.89-4.02,12.23-5.67,6.9-2.62,18-4.58,33.02-5.82,14.98-1.37,26.25-1.36,33.5.03,4.56.88,8.94,2.05,13.03,3.47,1.7.59,3.56-.3,4.15-2,.59-1.7-.3-3.56-2-4.15-3.97-1.39-8.19-2.54-12.57-3.44,23.42-16.76,41.35-23.91,47.53-18.72,6.41,5.38,5.58,21.67-2.09,44.08-2.34-2.73-4.97-5.39-7.96-7.92-1.37-1.17-3.43-1-4.6.38-1.17,1.37-1,3.43.38,4.6,18.07,15.33,22.35,35.82,23.3,46.67.86,9.82.53,19.86-.96,29.84-1.39,9.26-5.34,17.88-11.44,24.9-6.1,7.04-14.07,12.15-23.03,14.8-5,1.47-10.08,2.79-15.11,3.91-1.76.39-2.86,2.14-2.47,3.89.34,1.52,1.69,2.55,3.18,2.55.24,0,.47-.03.71-.08,2.35-.53,4.72-1.1,7.09-1.7,4.03,5.97,10.83,18.25,10.83,32.96,0,1.8,1.46,3.26,3.26,3.26s3.26-1.46,3.26-3.26c0-15.01-6.27-27.65-10.74-34.75.61-.17,1.22-.34,1.83-.52,10.16-3,19.19-8.8,26.11-16.78,6.91-7.97,11.39-17.72,12.96-28.21,1.57-10.49,1.91-21.05,1.01-31.37Z"/>
        <g>
          <g>
            <path class="cls-4" d="M161.99,113.96c-1.67,0-3.1-1.28-3.24-2.98-.16-1.79,1.17-3.38,2.97-3.53l15.91-1.39c1.79-.16,3.38,1.17,3.53,2.97.16,1.79-1.17,3.38-2.97,3.53l-15.91,1.39c-.1,0-.19.01-.29.01Z"/>
            <path class="cls-4" d="M176.32,127.78c-.29,0-.58-.04-.86-.12l-13.44-3.69c-1.74-.48-2.76-2.27-2.28-4.01.48-1.74,2.27-2.76,4.01-2.28l13.44,3.69c1.74.48,2.76,2.27,2.28,4.01-.4,1.45-1.71,2.4-3.14,2.4Z"/>
          </g>
          <g>
            <path class="cls-4" d="M50.84,123.65c-1.67,0-3.1-1.28-3.24-2.98-.16-1.79,1.17-3.38,2.97-3.53l15.91-1.39c1.79-.16,3.38,1.17,3.53,2.97.16,1.79-1.17,3.38-2.97,3.53l-15.91,1.39c-.1,0-.19.01-.29.01Z"/>
            <path class="cls-4" d="M55.04,138.34c-1.22,0-2.39-.69-2.95-1.87-.77-1.63-.07-3.57,1.55-4.34l12.6-5.96c1.63-.77,3.57-.07,4.34,1.55.77,1.63.07,3.57-1.55,4.34l-12.6,5.96c-.45.21-.92.31-1.39.31Z"/>
          </g>
        </g>
        <g>
          <path class="cls-3" d="M134.44,78.99c-1.67,0-3.1-1.28-3.24-2.98-.16-1.79,1.17-3.38,2.97-3.53l8.35-.73c1.79-.16,3.38,1.17,3.53,2.97.16,1.79-1.17,3.38-2.97,3.53l-8.35.73c-.1,0-.19.01-.29.01Z"/>
          <path class="cls-3" d="M79.49,83.78c-1.67,0-3.1-1.28-3.24-2.98-.16-1.79,1.17-3.38,2.97-3.53l8.35-.73c1.79-.16,3.38,1.17,3.53,2.97.16,1.79-1.17,3.38-2.97,3.53l-8.35.73c-.1,0-.19.01-.29.01Z"/>
        </g>
        <g>
          <path class="cls-2" d="M62.98,107.75c-.74,0-1.48-.25-2.1-.76-1.38-1.16-1.56-3.22-.4-4.59,6.49-7.73,18.06-8.74,25.79-2.25,1.38,1.16,1.56,3.22.4,4.59-1.16,1.38-3.21,1.56-4.59.4-4.98-4.18-12.42-3.53-16.6,1.45-.64.77-1.57,1.16-2.5,1.16Z"/>
          <path class="cls-2" d="M142.01,100.87c-.74,0-1.48-.25-2.1-.76-1.38-1.16-1.56-3.22-.4-4.59,6.49-7.73,18.06-8.74,25.79-2.25,1.38,1.16,1.56,3.22.4,4.59-1.16,1.38-3.21,1.56-4.59.4-4.97-4.18-12.42-3.53-16.6,1.45-.65.77-1.57,1.16-2.5,1.16Z"/>
        </g>
        <g>
          <path class="cls-7" d="M131,116.25c.13,1.59.02,3.13-.29,4.62-.98,4.74-3.98,8.79-8.14,11.11-2.03,1.13-4.34,1.86-6.83,2.04-8.3.63-15.64-4.96-17.42-12.85-.18-.78-.31-1.6-.37-2.43-.16-2.15.12-3.92.76-5.38,1.26-2.82,3.88-4.47,7.27-5.46,2.27-.66,4.89-1.02,7.7-1.23,6.97-.53,13.01.02,15.78,4.38.87,1.34,1.39,3.05,1.55,5.2Z"/>
          <path class="cls-6" d="M122.54,129.73c.05.76.05,1.51.02,2.24-2.03,1.13-4.34,1.86-6.83,2.04-8.3.63-15.64-4.96-17.42-12.85,2.08-.53,4.42-.84,6.89-1.03,6.99-.52,13.01.03,15.78,4.39.86,1.33,1.4,3.05,1.56,5.19Z"/>
          <path class="cls-7" d="M134.26,116.01c-.89-11.82-11.15-12.96-17.62-12.78l-.41-4.68,1.22-.11c1.79-.16,3.12-1.74,2.97-3.53-.16-1.79-1.75-3.13-3.53-2.97l-8.94.78c-1.79.16-3.12,1.74-2.97,3.53.15,1.7,1.57,2.98,3.24,2.98.1,0,.19,0,.29-.01l1.22-.11.4,4.61c-6.43.8-16.32,3.49-15.44,15.27h0c.78,10.41,9.5,18.35,19.77,18.35.5,0,1-.02,1.5-.06,10.91-.82,19.12-10.36,18.3-21.27ZM115.48,130.77c-7.32.55-13.73-4.96-14.28-12.28h0c-.36-4.8,1.6-7.75,12.71-8.59,11.11-.84,13.49,1.78,13.85,6.59.55,7.32-4.96,13.73-12.28,14.28Z"/>
        </g>
      </g>
      <path class="cls-1" d="M42.35,66.41l5.95-5.95c1.65-1.65,4.32-1.65,5.97,0l5.95,5.95c4.94,4.94,4.94,12.94,0,17.88h0c-4.94,4.94-12.94,4.94-17.88,0h0c-4.94-4.94-4.94-12.94,0-17.88Z"/>
    </g>
  </g>
</svg>