<?xml version="1.0" encoding="UTF-8"?>
<svg id="Capa_2" xmlns="http://www.w3.org/2000/svg" viewBox="0 0 220.69 211.16">
  <defs>
    <style>
      .cls-1 {
        fill: #5f5c5d;
      }

      .cls-2 {
        fill: #f9cb71;
      }

      .cls-3 {
        fill: #fff;
      }

      .cls-4 {
        fill: #95a1b3;
      }

      .cls-5 {
        fill: #b2b8c4;
      }

      .cls-6 {
        fill: #767576;
      }

      .cls-7 {
        fill: #e27fa3;
      }

      .cls-8 {
        fill: #70838e;
      }

      .cls-9 {
        fill: #dd528b;
      }
    </style>
  </defs>
  <g id="OBJECTS">
    <g>
      <g>
        <path class="cls-5" d="M167.21,36.62c-9.03-9.03-37.79,7.39-50.46,15.36-6.27-1.04-14.36-1.47-23.62-1.43-9.26-.04-17.35.39-23.62,1.43-12.67-7.97-41.43-24.38-50.46-15.36-8.96,8.96,1.27,33.56,6.53,44.53-6.21,10.5-8.48,21.99-8.48,31.89,0,8.56,1.02,17.11,3.07,25.66,4,16.69,17.2,29.5,34.01,32.9.22.04.44.09.66.13-2.57,3.6-4,7.62-4,11.87,0,15.22,18.42,27.56,41.14,27.56s41.14-12.34,41.14-27.56c0-4.1-1.34-7.98-3.73-11.48.9-.17,1.8-.34,2.7-.53,16.82-3.41,30.01-16.22,34.01-32.9,2.05-8.55,3.07-17.1,3.07-25.66,0-9.9-2.27-21.39-8.48-31.88,5.24-10.95,15.49-35.57,6.52-44.53Z"/>
        <g>
          <path class="cls-4" d="M102.33,56.65c0,14.17-4.12,25.65-9.19,25.65s-9.2-11.48-9.2-25.65c0-1.94.08-3.83.23-5.64,5.98-.27,11.96-.27,17.93.01.15,1.81.23,3.7.23,5.63Z"/>
          <path class="cls-4" d="M82.58,52c0,14.16-4.11,25.65-9.19,25.65s-8.9-10.69-9.18-24.14c3.16-.82,6.42-1.41,9.76-1.75,2.86-.28,5.73-.51,8.59-.66.01.3.01.6.01.9Z"/>
        </g>
        <path class="cls-3" d="M156.64,58.41s1.46,3.32,1.7,7.04c.23,3.44-1.84,6.06-4.56,7.16-5.7-6.48-12.73-11.77-20.67-15.45.08-1.87.86-3.7,2.38-5.08,6.1-5.54,14.53-11.52,20.49-9.09,10.39,4.24.65,15.42.65,15.42Z"/>
        <path class="cls-3" d="M29.62,58.41s-1.46,3.32-1.7,7.04c-.23,3.44,1.84,6.06,4.56,7.16,5.7-6.48,12.73-11.77,20.67-15.45-.08-1.87-.86-3.7-2.38-5.08-6.1-5.54-14.53-11.52-20.49-9.09-10.39,4.24-.65,15.42-.65,15.42Z"/>
        <path class="cls-8" d="M168.89,34.93c-4.72-4.72-13.36-4.46-26.43.78-9.52,3.82-19.38,9.51-26.22,13.78-6.01-.92-13.74-1.37-23.1-1.32-9.38-.05-17.11.4-23.13,1.32-6.85-4.27-16.72-9.96-26.22-13.78-13.06-5.24-21.71-5.5-26.42-.78-9.47,9.47-.89,32.45,5.52,46.09-6.91,12.23-8.17,24.61-8.17,32.01,0,8.72,1.06,17.54,3.14,26.21,2.07,8.63,6.52,16.44,12.86,22.58,6.35,6.15,14.3,10.33,22.99,12.09.16.03.32.05.47.05,1.11,0,2.1-.78,2.33-1.9.26-1.29-.57-2.54-1.86-2.8-15.77-3.2-28.4-15.41-32.17-31.13-1.99-8.31-3-16.76-3-25.1,0-9.25,2.11-26.9,16.27-41.2.92-.93.92-2.44-.02-3.36-.93-.92-2.44-.92-3.36.02-2.48,2.5-4.61,5.1-6.45,7.73-8.4-18.72-10.36-32.76-5.18-37.93,4.99-4.99,21.07-.15,42.52,12.64-3.89,1.12-7.62,2.48-11.09,4.04-1.2.54-1.73,1.94-1.19,3.14.54,1.2,1.94,1.73,3.14,1.19,3.35-1.51,6.96-2.82,10.75-3.89,6.02-1.71,15.53-2.55,28.28-2.49,12.73-.06,22.24.78,28.26,2.49,3.78,1.08,7.4,2.39,10.75,3.89.32.14.65.21.97.21.91,0,1.77-.52,2.17-1.4.54-1.2,0-2.6-1.19-3.14-3.47-1.56-7.2-2.92-11.09-4.04,21.45-12.79,37.53-17.63,42.52-12.64,5.16,5.16,3.2,19.19-5.18,37.93-1.84-2.63-3.98-5.23-6.45-7.73-.92-.93-2.43-.94-3.36-.02-.93.92-.94,2.43-.02,3.36,14.16,14.3,16.27,31.95,16.27,41.2,0,8.34-1.01,16.79-3,25.1-3.77,15.72-16.4,27.93-32.17,31.13-1.29.26-2.12,1.51-1.86,2.8.23,1.13,1.22,1.9,2.33,1.9.16,0,.32-.02.47-.05,8.69-1.76,16.64-5.94,22.99-12.09,6.34-6.14,10.79-13.95,12.86-22.58,2.08-8.67,3.14-17.49,3.14-26.21,0-7.4-1.27-19.78-8.17-32.01,6.4-13.64,14.97-36.63,5.51-46.09Z"/>
        <g>
          <g>
            <path class="cls-4" d="M146.94,134.53h-13.48c-1.31,0-2.38-1.06-2.38-2.38s1.06-2.38,2.38-2.38h13.48c1.31,0,2.38,1.06,2.38,2.38s-1.06,2.38-2.38,2.38Z"/>
            <path class="cls-4" d="M144.49,147.19c-.27,0-.55-.05-.82-.15l-11.03-4.08c-1.23-.46-1.86-1.82-1.4-3.05.46-1.23,1.82-1.86,3.05-1.4l11.03,4.08c1.23.46,1.86,1.82,1.4,3.05-.35.96-1.26,1.55-2.23,1.55Z"/>
          </g>
          <g>
            <path class="cls-4" d="M52.8,134.53h-13.48c-1.31,0-2.38-1.06-2.38-2.38s1.06-2.38,2.38-2.38h13.48c1.31,0,2.38,1.06,2.38,2.38s-1.06,2.38-2.38,2.38Z"/>
            <path class="cls-4" d="M41.77,147.19c-.97,0-1.87-.59-2.23-1.55-.46-1.23.17-2.6,1.4-3.05l11.03-4.08c1.23-.46,2.6.17,3.05,1.4.46,1.23-.17,2.6-1.4,3.05l-11.03,4.08c-.27.1-.55.15-.82.15Z"/>
          </g>
        </g>
        <g>
          <path class="cls-3" d="M119.94,103.11h-7.07c-1.31,0-2.38-1.06-2.38-2.38s1.06-2.38,2.38-2.38h7.07c1.31,0,2.38,1.06,2.38,2.38s-1.06,2.38-2.38,2.38Z"/>
          <path class="cls-3" d="M73.4,103.11h-7.07c-1.31,0-2.38-1.06-2.38-2.38s1.06-2.38,2.38-2.38h7.07c1.31,0,2.38,1.06,2.38,2.38s-1.06,2.38-2.38,2.38Z"/>
        </g>
        <g>
          <path class="cls-8" d="M78.59,139.03c0,2.07.27,4.07.78,5.92,1.96,7.19,7.38,12.36,13.77,12.36.47,0,.92-.02,1.37-.09,7.39-.86,13.18-8.67,13.18-18.19,0-10.1-6.52-14.74-14.55-14.74s-14.55,4.64-14.55,14.74Z"/>
          <path class="cls-7" d="M79.37,144.95c1.96,7.19,7.38,12.36,13.77,12.36.47,0,.92-.02,1.37-.09.21-.35.41-.72.62-1.1,4.83-8.87,4.95-18.13.27-20.67-4.32-2.33-11.2,1.86-16.02,9.49Z"/>
          <path class="cls-8" d="M95.51,122.04v-3.84h1.41c1.31,0,2.38-1.06,2.38-2.38s-1.06-2.38-2.38-2.38h-7.57c-1.31,0-2.38,1.06-2.38,2.38s1.06,2.38,2.38,2.38h1.41v3.84c-8.92.96-14.55,7.42-14.55,16.99,0,11.39,7.59,20.66,16.93,20.66s16.93-9.27,16.93-20.66c0-9.58-5.63-16.03-14.55-16.99ZM93.13,154.94c-6.71,0-12.17-7.14-12.17-15.91,0-11.17,8.51-12.37,12.17-12.37s12.17,1.21,12.17,12.37c0,8.77-5.46,15.91-12.17,15.91Z"/>
        </g>
        <g>
          <path class="cls-1" d="M69.66,125.27c-.15,0-.3-.01-.46-.04-7.47-1.46-17.55-1.1-17.65-1.09-1.3.06-2.41-.97-2.46-2.28-.05-1.31.97-2.41,2.28-2.46.32-.01,6.1-.22,12.33.32-1.94-1.95-4.38-4.03-6.85-5.21-1.18-.57-1.68-1.99-1.12-3.17.57-1.18,1.98-1.68,3.17-1.12,6.57,3.15,12.41,10.94,12.66,11.27.58.79.63,1.85.1,2.68-.44.7-1.2,1.11-2.01,1.11Z"/>
          <path class="cls-1" d="M116.6,125.27c-.8,0-1.57-.41-2.01-1.11-.52-.83-.48-1.9.1-2.68.25-.33,6.09-8.13,12.66-11.27,1.18-.57,2.6-.07,3.17,1.12.57,1.18.07,2.6-1.12,3.17-2.48,1.19-4.91,3.27-6.85,5.21,6.24-.54,12.02-.33,12.34-.32,1.31.05,2.33,1.15,2.28,2.46-.05,1.31-1.15,2.34-2.46,2.28-.1,0-10.19-.37-17.65,1.09-.15.03-.3.04-.46.04Z"/>
        </g>
      </g>
      <g>
        <path class="cls-5" d="M137.57,163.66c-4.57-15.68-15.66-26.24-24.76-23.59-9.1,2.65-12.77,17.52-8.19,33.2,4.57,15.68,15.66,26.24,24.76,23.59,9.1-2.65,12.77-17.52,8.19-33.2Z"/>
        <ellipse class="cls-5" cx="63.15" cy="168.46" rx="29.58" ry="17.16" transform="translate(-116.25 181.92) rotate(-73.74)"/>
        <path class="cls-8" d="M126.45,199.65c-9.57,0-19.66-10.44-24.12-25.72-5.02-17.2-.71-33.08,9.81-36.15,10.52-3.06,22.68,8.01,27.7,25.21,5.02,17.2.71,33.08-9.81,36.15-1.18.34-2.38.51-3.58.51ZM115.7,142.04c-.76,0-1.5.1-2.23.31-7.69,2.24-10.71,16.1-6.58,30.25,4.13,14.16,14.12,24.22,21.81,21.98,7.69-2.24,10.71-16.1,6.58-30.25h0c-3.74-12.82-12.29-22.29-19.58-22.29Z"/>
        <path class="cls-8" d="M57.79,199.65c-1.21,0-2.41-.17-3.58-.51-10.52-3.07-14.82-18.95-9.81-36.15h0c5.02-17.2,17.19-28.27,27.7-25.21,10.52,3.07,14.82,18.94,9.81,36.15-4.45,15.27-14.55,25.72-24.12,25.72ZM68.54,142.04c-7.3,0-15.84,9.46-19.58,22.29h0c-4.13,14.16-1.12,28.01,6.58,30.25.72.21,1.47.31,2.23.31,7.3,0,15.84-9.46,19.58-22.29,4.13-14.16,1.12-28.01-6.58-30.25-.72-.21-1.47-.31-2.23-.31ZM46.68,163.66h0,0Z"/>
      </g>
      <g>
        <path class="cls-6" d="M158.68,87.05s34.71,10.27,47.6-10.46c0,0,19.88,22.72,8.55,42.64,0,0-8.39-12.74-19.93-7.53,0,0-12-13.44-22.87.26,0,0-15.99-13.22-25.46-2.25.16-14.49-20.58-15.16-20.58-15.16.91-17.47-16.98-15.33-16.98-15.33-5.21-11.53-19.93-7.53-19.93-7.53,4.68-22.42,34.62-26.31,34.62-26.31-4.04,24.08,28.78,39.33,28.78,39.33l6.18,2.34Z"/>
        <path class="cls-6" d="M177.01,60.32c-3.11-1.18-7.64,4.67-10.61,9.23-1.15-.86-2.43-1.59-3.85-2.12-1.41-.53-2.84-.83-4.27-.95.79-5.38,1.26-12.76-1.85-13.94-4.68-1.77-11.54,17-12.52,19.72-.04.09-.08.17-.12.26-3.07,8.13,1.03,17.22,9.16,20.29,8.13,3.07,17.22-1.03,20.29-9.16,0,0,8.75-21.46,3.76-23.34Z"/>
        <path class="cls-1" d="M216.99,89.49c-3.66-8.41-8.7-14.22-8.92-14.47-.5-.57-1.23-.87-1.98-.8-.75.06-1.43.47-1.82,1.11-6.5,10.44-19.2,12.39-30.04,11.8.47-.83.89-1.7,1.24-2.61,1.75-4.3,7.21-18.6,4.86-24-.65-1.49-1.7-2.14-2.46-2.43-3.43-1.3-7.31,1.31-12.12,8.19-.76-.42-1.54-.78-2.34-1.08-.79-.3-1.61-.54-2.45-.73.95-8.34-.24-12.86-3.67-14.16-.77-.29-1.99-.49-3.46.18-4.53,2.09-9.08,12.49-12.11,20.89h0c-.04.1-.09.2-.13.3-.35.92-.61,1.85-.81,2.79-8.51-6.73-16.74-16.59-14.71-28.72.12-.74-.11-1.5-.63-2.04-.52-.54-1.27-.8-2.02-.71-.32.04-7.94,1.07-16.25,4.95-11.26,5.27-18.31,13.3-20.38,23.23-.17.81.09,1.65.7,2.21.6.57,1.45.78,2.25.56.13-.03,12.82-3.36,17.14,6.21.43.95,1.42,1.5,2.45,1.38.07,0,7.12-.73,11.22,3.1,2.28,2.13,3.33,5.41,3.1,9.74-.03.64.19,1.26.62,1.73.43.47,1.03.75,1.67.77.05,0,4.94.19,9.67,2.02,5.76,2.24,8.66,5.85,8.61,10.73-.01,1,.6,1.89,1.54,2.25.93.35,1.99.09,2.64-.67,3.19-3.7,7.75-4.49,13.56-2.35,4.76,1.75,8.56,4.85,8.59,4.88.49.41,1.13.6,1.76.53.63-.07,1.22-.39,1.61-.89,2.69-3.39,5.63-5.16,8.74-5.25,5.67-.18,10.45,5.05,10.49,5.1.69.77,1.8,1.01,2.75.58,9.52-4.29,16.67,6.24,16.97,6.68.44.67,1.19,1.07,1.98,1.07.03,0,.05,0,.08,0,.83-.03,1.58-.48,1.99-1.2,5.02-8.82,5.04-19.51.08-30.91ZM146.02,73.37h0c.04-.06.07-.14.1-.23,0-.02.02-.05.03-.07,4.15-11.51,7.97-17.42,9.53-18.21.35.47,1.51,2.77.26,11.27-.1.65.08,1.31.49,1.82.41.51,1.01.84,1.66.89,1.26.11,2.48.38,3.62.81,1.15.43,2.25,1.04,3.27,1.8.53.39,1.19.55,1.84.43.65-.12,1.22-.49,1.57-1.04,4.61-7.08,6.99-8.12,7.62-8.28.2.66.57,3.19-1.64,10.68-1.47,4.95-3.3,9.48-3.32,9.52,0,.02-.01.04-.02.06-1.26,3.34-3.75,5.99-7,7.46-3.25,1.47-6.89,1.58-10.23.32-3.34-1.26-5.99-3.75-7.46-7-1.47-3.25-1.58-6.89-.32-10.22ZM214.3,114.84c-.98-1.04-2.24-2.2-3.72-3.26-4.86-3.48-10.05-4.39-15.11-2.67-2.17-1.97-7.04-5.67-12.94-5.49-3.95.12-7.59,1.89-10.82,5.29-5.83-4.12-15.71-8.35-23.39-3.61-2.63-8.63-12.83-12-19.93-12.76-.18-4.69-1.73-8.42-4.62-11.13-4.32-4.04-10.41-4.49-13.34-4.45-2.65-4.64-7.14-7.39-13.09-8-1.81-.18-3.52-.14-4.94-.01,5.12-13.85,21.75-18.92,28.62-20.45-.28,6.31,1.68,12.52,5.83,18.51,3.29,4.75,7.89,9.27,13.68,13.44.22,1.81.71,3.59,1.48,5.3,1.99,4.41,5.58,7.78,10.11,9.49,2.08.79,4.25,1.18,6.41,1.18,2.54,0,5.06-.54,7.45-1.61,1.7-.77,3.25-1.78,4.61-2.99,7.1.7,13.54.36,19.15-1.02,7.09-1.74,12.67-5.11,16.63-10.03,4.13,5.69,13.26,20.5,7.94,34.27Z"/>
        <g>
          <path class="cls-9" d="M153.24,78.98c-.28,0-.56-.05-.84-.15-1.23-.46-1.85-1.83-1.38-3.06l.98-2.6c.46-1.23,1.83-1.85,3.06-1.38,1.23.46,1.85,1.83,1.38,3.06l-.98,2.6c-.36.95-1.26,1.54-2.22,1.54Z"/>
          <path class="cls-9" d="M163.48,82.85c-.28,0-.56-.05-.84-.15-1.23-.46-1.85-1.83-1.38-3.06l.98-2.6c.46-1.23,1.83-1.85,3.06-1.38,1.23.46,1.85,1.83,1.38,3.06l-.98,2.6c-.36.95-1.26,1.54-2.22,1.54Z"/>
        </g>
      </g>
      <g>
        <path class="cls-6" d="M55.63,42.46s25.18-19.97,16.7-39.93c0,0,26.66-2.84,35.35,15.55,0,0-13.54-.4-15.65,10.63,0,0-15.89,1.86-11.49,16.75,0,0-17.77,4.87-14.63,17.35-10.45-7.51-21.52,7.22-21.52,7.22-12.23-9.58-19.8,4.51-19.8,4.51-11.04-2.11-15.65,10.63-15.65,10.63-13.9-14.85-1.45-38.59-1.45-38.59,15.43,15.23,43.27-.83,43.27-.83l4.86-3.3Z"/>
        <path class="cls-6" d="M45.57,15.5c-2.44,1.66-.51,7.94,1.29,12.42-1.21.4-2.39.96-3.5,1.71-1.1.75-2.06,1.64-2.87,2.61-3.5-3.32-8.63-7.43-11.07-5.77-3.68,2.5,6.46,17.06,7.94,19.17.05.07.08.15.13.22,4.34,6.39,13.03,8.04,19.42,3.7,6.39-4.34,8.04-13.03,3.7-19.42,0,0-11.13-17.31-15.04-14.65Z"/>
        <path class="cls-1" d="M109.83,17.07c-3.89-8.23-11.7-13.75-22.61-15.98-8.02-1.64-14.86-.94-15.14-.91-.75.08-1.41.51-1.8,1.16-.38.65-.43,1.44-.14,2.13,4.16,9.79-.67,19.77-6.47,27.25-.32-.64-.68-1.27-1.09-1.88-2.25-3.49-9.9-14.83-15.13-15.9-1.5-.31-2.59.15-3.23.59-2.78,1.89-2.92,6.07-.41,13.08-.63.31-1.23.67-1.8,1.06-.57.39-1.11.81-1.63,1.27-5.59-4.91-9.53-6.32-12.31-4.43-.64.44-1.47,1.28-1.75,2.78-.81,4.44,4.45,13.12,9.03,19.65.05.09.1.17.16.25.42.61.87,1.19,1.35,1.73-14.94,4.35-23.28.35-27.71-4.02-.54-.53-1.29-.77-2.03-.66-.74.12-1.39.58-1.74,1.24-.13.26-3.3,6.35-4.72,14.42-1.93,10.96.33,20.26,6.54,26.9.45.48,1.08.75,1.73.75.16,0,.32-.02.47-.05.81-.16,1.47-.74,1.76-1.51.16-.44,4.08-10.81,12.97-9.12,1.01.19,2.04-.3,2.53-1.2.03-.05,3.03-5.46,7.83-6.45,2.63-.54,5.46.36,8.42,2.68.5.39,1.14.57,1.77.48.63-.08,1.21-.42,1.59-.92.03-.03,2.64-3.46,6.35-5.94,4.52-3.02,8.41-3.27,11.88-.78.81.58,1.9.6,2.72.04.82-.56,1.21-1.58.97-2.54-1.04-4.14.63-7.66,5.1-10.76,3.67-2.54,7.82-3.71,7.86-3.72.62-.17,1.14-.58,1.45-1.14.31-.56.38-1.22.2-1.83-1.07-3.6-.86-6.57.61-8.81,2.69-4.1,8.82-4.9,8.87-4.9,1.03-.12,1.86-.89,2.06-1.91,1.7-8.88,12.79-8.71,13.25-8.7.83.02,1.61-.38,2.06-1.07.45-.69.51-1.57.16-2.32ZM30.97,28.48c.91.13,3.39,1.24,7.88,5.49.48.45,1.11.69,1.77.65.65-.04,1.26-.35,1.68-.85.71-.85,1.51-1.58,2.38-2.17.88-.6,1.86-1.08,2.91-1.42.62-.2,1.13-.66,1.41-1.25.28-.59.3-1.28.05-1.89-2.3-5.73-2.42-8.44-2.21-9.34,2.14.86,7.41,6.98,11.76,13.74.01.02.02.03.03.05,3.6,5.29,2.22,12.52-3.07,16.12-5.28,3.59-12.5,2.22-16.1-3.05-.04-.07-.08-.14-.13-.21-.01-.02-.03-.04-.04-.07-5.87-8.36-8.3-14-8.32-15.8ZM99.86,17.02c-5.04,1.77-8.39,5.08-9.77,9.64-2.63.61-7.72,2.31-10.61,6.68-1.94,2.94-2.53,6.48-1.76,10.54-5.94,2.17-13.82,7.13-14.5,14.97-7.54-2.25-15.05,3.25-19.25,7.98-3.5-2.21-7-2.96-10.45-2.24-5.13,1.07-8.58,5.18-10.12,7.4-4.75-.4-9.06,1.49-12.56,5.53-.96,1.11-1.74,2.24-2.35,3.27-3.49-5.23-4.55-11.92-3.16-19.94.74-4.28,2.06-8.01,3.03-10.4,8,5.94,19.57,6.66,33.05,2.01,2.36,1.24,5,1.89,7.66,1.89,3.16,0,6.36-.91,9.17-2.82,5.16-3.51,7.68-9.48,7.06-15.29,11.46-13.33,12.33-24.07,10.31-31.48,2.58-.03,6.53.12,10.78,1,7.97,1.65,13.8,5.1,17.38,10.27-1.18.19-2.52.5-3.91.99Z"/>
        <g>
          <path class="cls-2" d="M45.27,43.46c-.76,0-1.51-.36-1.97-1.04l-1.39-2.04c-.74-1.09-.46-2.56.63-3.3,1.09-.74,2.56-.46,3.3.63l1.39,2.04c.74,1.09.46,2.56-.63,3.3-.41.28-.87.41-1.33.41Z"/>
          <path class="cls-2" d="M53.31,37.99c-.76,0-1.51-.36-1.97-1.04l-1.39-2.04c-.74-1.09-.46-2.56.63-3.3,1.09-.74,2.56-.46,3.3.63l1.39,2.04c.74,1.09.46,2.56-.63,3.3-.41.28-.87.41-1.33.41Z"/>
        </g>
      </g>
      <path class="cls-1" d="M216.09,145.72c-.73,0-1.45-.33-1.91-.97-2.08-2.82-5.14-4.67-8.6-5.19-3.47-.53-6.93.33-9.75,2.41-.68.5-1.58.6-2.36.26-.78-.34-1.31-1.07-1.41-1.91-.39-3.48-2.11-6.61-4.85-8.8-2.74-2.19-6.17-3.18-9.65-2.79-1.3.15-2.48-.79-2.63-2.1-.15-1.3.79-2.48,2.1-2.63,8.6-.97,16.48,4.37,19.02,12.32,3.17-1.49,6.71-2.01,10.25-1.48,4.72.71,8.88,3.23,11.72,7.07.78,1.06.55,2.54-.5,3.32-.42.31-.92.46-1.41.46Z"/>
      <path class="cls-1" d="M177.76,21.85c-.77,0-1.5-.38-1.95-1.02-4.14-5.94-12.34-7.4-18.28-3.26-1.08.75-2.56.49-3.31-.59-.75-1.08-.49-2.56.59-3.31,3.92-2.73,8.66-3.78,13.37-2.94,3.53.63,6.71,2.26,9.23,4.69,4.95-6.71,14.13-9.24,21.97-5.57,1.19.56,1.7,1.97,1.14,3.16-.56,1.19-1.97,1.7-3.16,1.14-3.18-1.49-6.74-1.65-10.04-.46-3.3,1.19-5.93,3.6-7.42,6.77-.36.77-1.1,1.29-1.95,1.36-.07,0-.14,0-.2,0Z"/>
      <path class="cls-1" d="M206.72,50.92c-.68,0-1.35-.29-1.82-.85-2.7-3.22-7.51-3.65-10.73-.95-.65.54-1.54.7-2.34.41-.8-.29-1.38-.99-1.52-1.82-.73-4.14-4.68-6.92-8.82-6.19-1.29.23-2.52-.64-2.75-1.93-.23-1.29.64-2.52,1.93-2.75,3.25-.57,6.54.16,9.24,2.06,1.77,1.24,3.15,2.89,4.06,4.79,1.92-.87,4.03-1.24,6.19-1.04,3.29.29,6.27,1.85,8.39,4.38.84,1.01.71,2.5-.3,3.35-.44.37-.99.55-1.52.55Z"/>
    </g>
  </g>
</svg>