<?xml version="1.0" encoding="UTF-8"?>
<svg id="Capa_2" xmlns="http://www.w3.org/2000/svg" viewBox="0 0 220.69 216.72">
  <defs>
    <style>
      .cls-1 {
        fill: #5f5c5d;
      }

      .cls-2 {
        fill: #fff;
      }

      .cls-3 {
        fill: #b9a6dd;
      }

      .cls-4 {
        fill: #95a1b3;
      }

      .cls-5 {
        fill: #ea9c71;
      }

      .cls-6 {
        fill: #b2b8c4;
      }

      .cls-7 {
        fill: #ffbe8d;
      }

      .cls-8 {
        fill: #e27fa3;
      }

      .cls-9 {
        fill: #70838e;
      }

      .cls-10 {
        fill: #a484d8;
      }

      .cls-11 {
        fill: #a3d676;
      }

      .cls-12 {
        fill: #87b758;
      }
    </style>
  </defs>
  <g id="OBJECTS">
    <g>
      <path class="cls-12" d="M36.99,214.04c-4.5,1.02-8.89.67-12.82-1.05-4.22-1.84-7.64-5.17-9.63-9.36-3.57-7.51-2.45-18.07,8.1-24.73,1.11-.7,2.58-.37,3.28.74s.37,2.58-.74,3.28c-8.64,5.45-8.82,13.46-6.34,18.67,2.79,5.87,9.79,10.39,19.13,7.24,1.24-.42,2.59.25,3.01,1.49.42,1.24-.25,2.59-1.49,3.01-.83.28-1.66.51-2.49.7Z"/>
      <g>
        <path class="cls-6" d="M156.68,50.52l-115.81,12.22c-5.49-8.92-16.5-29.08-9.63-37.57,6.92-8.55,33.06,2.91,44.64,8.59,5.28-1.46,12.18-2.56,20.12-3.36,7.94-.88,14.9-1.24,20.37-.92,10.14-7.97,33.31-24.65,41.86-17.73,8.5,6.87,1.95,28.9-1.56,38.76Z"/>
        <g>
          <path class="cls-9" d="M38.85,64c-6.79-11.03-17.05-30.93-9.45-40.32,7.35-9.09,29.91-.69,47.54,7.96l-2.09,4.27c-21.74-10.66-37.73-14.2-41.75-9.24-4.14,5.12-.48,18.15,9.8,34.84l-4.05,2.49Z"/>
          <path class="cls-9" d="M158.92,51.32l-4.48-1.59c6.56-18.48,7.42-31.98,2.3-36.12-4.97-4.02-19.87,2.78-38.89,17.75l-2.94-3.74c15.43-12.14,35.73-25.08,44.83-17.71,9.38,7.59,3.52,29.2-.81,41.41Z"/>
        </g>
        <path class="cls-3" d="M142.1,28.1C132.63,11.1,113.65.48,93.07,2.66c-20.58,2.17-36.92,16.52-42.63,35.12C20.33,48.39.83,65.16,2.6,81.91c2.55,24.16,48.39,39.13,102.37,33.43,53.99-5.7,95.69-29.91,93.14-54.07-1.77-16.75-24.34-29.08-56.01-33.17Z"/>
        <path class="cls-10" d="M200.47,61.01c-1.34-12.67-13.24-23.3-33.52-29.92-7.12-2.32-14.99-4.06-23.38-5.21C133.13,8.15,113.36-1.88,92.83.29c-20.54,2.17-37.78,16.1-44.28,35.62-7.97,2.87-15.3,6.22-21.78,9.98C8.32,56.61-1.1,69.48.23,82.16c1.34,12.67,13.24,23.3,33.52,29.92,13.85,4.52,30.55,6.85,48.47,6.85,7.49,0,15.2-.41,22.99-1.23,26.44-2.79,50.84-10.04,68.71-20.42,18.45-10.71,27.87-23.59,26.54-36.26ZM93.33,5.02c17.43-1.84,34.25,5.98,44.13,20.14-13.15-1.31-27.4-1.23-41.98.31-14.58,1.54-28.53,4.44-41.12,8.46,6.7-15.92,21.53-27.08,38.96-28.92ZM171.55,93.17c-17.31,10.05-41.04,17.08-66.83,19.8-25.79,2.72-50.46.8-69.49-5.41-18.39-6-29.14-15.2-30.27-25.9-1.13-10.7,7.46-21.94,24.19-31.65,17.31-10.05,41.04-17.08,66.83-19.8,7.65-.81,15.19-1.21,22.53-1.21,17.4,0,33.58,2.25,46.96,6.62,18.39,6,29.14,15.2,30.27,25.9,1.13,10.7-7.46,21.94-24.19,31.65Z"/>
        <path class="cls-6" d="M166.84,77.09c.77,7.34.67,14.76-.31,22.27-1.92,14.66-12.07,26.84-26.17,31.28-10.89,3.43-21.91,5.73-33.04,6.9-11.13,1.18-22.38,1.23-33.75.15-14.72-1.4-27.19-11.19-32.13-25.13-2.53-7.14-4.18-14.38-4.95-21.71-.52-4.88-.44-10.27.56-15.79.45-.26.9-.53,1.36-.78,36.69-20.86,83.16-25.72,123.36-12.91.41.13.83.26,1.23.39,2.13,5.19,3.33,10.45,3.85,15.33Z"/>
        <g>
          <path class="cls-9" d="M114.73,90.55s.58,8.25-1.84,14.81c-1.52,4.1-4.22,7.52-8.99,7.85-4.38.3-7.39-2.24-9.45-5.65-3.75-6.22-4.34-15.33-4.34-15.33.87,2.67,3.46,4.51,6.38,4.31,3.45-.23,6.05-3.22,5.82-6.67.23,3.45,3.22,6.05,6.68,5.82,2.92-.2,5.23-2.38,5.74-5.13Z"/>
          <path class="cls-8" d="M112.89,105.36c-1.52,4.1-4.22,7.52-8.99,7.85-4.38.3-7.39-2.24-9.45-5.65,1.51-4.1,4.21-7.54,8.98-7.87,4.39-.29,7.4,2.25,9.46,5.67Z"/>
        </g>
        <path class="cls-9" d="M89.77,140.84c-5.46,0-10.95-.26-16.43-.78-15.52-1.47-28.92-11.95-34.15-26.7-2.58-7.27-4.29-14.76-5.08-22.26-.58-5.53-.39-11.07.59-16.46l4.68.84c-.89,4.95-1.07,10.03-.54,15.12.75,7.13,2.38,14.25,4.83,21.17,4.61,13.01,16.43,22.25,30.12,23.55,11.16,1.06,22.35,1.01,33.28-.15,10.92-1.15,21.88-3.44,32.57-6.81,13.11-4.13,22.74-15.64,24.53-29.32.95-7.28,1.05-14.59.3-21.71-.54-5.09-1.78-10.03-3.68-14.68l4.4-1.8c2.08,5.07,3.43,10.45,4.01,15.99.79,7.5.69,15.18-.32,22.83-2.03,15.51-12.95,28.56-27.82,33.24-10.99,3.46-22.27,5.81-33.5,7-5.87.62-11.82.93-17.8.93Z"/>
        <g>
          <g>
            <path class="cls-4" d="M137.96,99.08c-1.2,0-2.23-.91-2.36-2.13-.14-1.31.81-2.48,2.11-2.61l11.55-1.22c1.3-.14,2.47.81,2.61,2.11.14,1.31-.81,2.48-2.11,2.61l-11.55,1.22c-.08,0-.17.01-.25.01Z"/>
            <path class="cls-4" d="M148.56,108.94c-.19,0-.39-.02-.59-.07l-9.82-2.5c-1.27-.32-2.04-1.62-1.72-2.89.32-1.27,1.62-2.04,2.89-1.72l9.82,2.5c1.27.32,2.04,1.62,1.72,2.89-.27,1.08-1.24,1.79-2.3,1.79Z"/>
          </g>
          <g>
            <path class="cls-4" d="M57.27,107.6c-1.2,0-2.23-.91-2.36-2.13-.14-1.31.81-2.48,2.11-2.61l11.55-1.22c1.29-.14,2.48.81,2.61,2.11.14,1.31-.81,2.48-2.11,2.61l-11.55,1.22c-.08,0-.17.01-.25.01Z"/>
            <path class="cls-4" d="M60.52,118.23c-.87,0-1.72-.48-2.13-1.32-.58-1.18-.1-2.6,1.07-3.19l9.08-4.5c1.17-.58,2.6-.1,3.19,1.07.58,1.18.1,2.6-1.07,3.19l-9.08,4.5c-.34.17-.7.25-1.05.25Z"/>
          </g>
        </g>
        <path class="cls-10" d="M26.84,83.84c-.76,0-1.5-.36-1.96-1.03-.74-1.08-.47-2.56.62-3.3,2.63-1.8,5.46-3.61,8.4-5.36.73-.43,1.38-.81,1.98-1.14.46-.27.91-.53,1.37-.79,18.27-10.39,39.47-17.09,61.28-19.37,21.81-2.28,43.93-.12,63.96,6.26l1.22.38c.73.23,1.47.47,2.21.72,3.32,1.13,6.38,2.27,9.32,3.49,1.21.5,1.79,1.89,1.29,3.11-.5,1.21-1.89,1.79-3.11,1.29-2.84-1.18-5.8-2.28-9.04-3.38-.69-.24-1.37-.46-2.08-.68l-1.22-.38c-19.43-6.19-40.88-8.29-62.04-6.07-21.17,2.21-41.72,8.71-59.44,18.78-.45.25-.89.51-1.33.77-.02,0-.03.02-.05.03-.57.32-1.19.67-1.88,1.08-2.85,1.7-5.59,3.45-8.14,5.2-.41.28-.88.42-1.34.42Z"/>
        <g>
          <path class="cls-1" d="M137.2,85.96c-.43-4.04-4.05-6.97-8.08-6.54-4.04.43-6.97,4.05-6.54,8.08.43,4.04,4.05,6.97,8.08,6.54,4.04-.43,6.97-4.05,6.54-8.08Z"/>
          <path class="cls-1" d="M81.95,91.79c-.43-4.04-4.05-6.97-8.08-6.54-4.04.43-6.97,4.05-6.54,8.08.43,4.04,4.05,6.97,8.08,6.54,4.04-.43,6.97-4.05,6.54-8.08Z"/>
        </g>
        <g>
          <path class="cls-2" d="M116.94,69.06c-1.2,0-2.23-.91-2.36-2.13-.14-1.31.81-2.48,2.11-2.61l6.06-.64c1.3-.14,2.48.81,2.61,2.11.14,1.31-.81,2.48-2.11,2.61l-6.06.64c-.08,0-.17.01-.25.01Z"/>
          <path class="cls-2" d="M77.05,73.27c-1.2,0-2.23-.91-2.36-2.13-.14-1.31.81-2.48,2.11-2.61l6.06-.64c1.3-.14,2.48.81,2.61,2.11.14,1.31-.81,2.48-2.11,2.61l-6.06.64c-.08,0-.17.01-.25.01Z"/>
        </g>
      </g>
      <g>
        <path class="cls-11" d="M196.1,151.78c13.36-4.75,11.98-14.74,11.98-14.74,0,0,14.29-14.36,3.6-20.58,0,0,5.31-10.1-4.69-15.91-10-5.81-16.15,3.8-16.15,3.8-10.7-6.22-16.1,13.31-16.1,13.31,0,0-9.36,3.74-6.87,17.7l28.23,16.4Z"/>
        <path class="cls-12" d="M196.9,154.02l-1.59-4.48c11.24-4,10.46-11.86,10.42-12.2-.1-.74.15-1.45.67-1.98,2.1-2.12,7.43-8.63,6.83-13.19-.2-1.53-1.07-2.69-2.74-3.66-1.1-.64-1.5-2.03-.91-3.16.42-.82,3.95-8.26-3.78-12.75-7.73-4.49-12.44,2.25-12.96,3.04-.69,1.06-2.1,1.4-3.19.77-1.67-.97-3.11-1.15-4.54-.57-4.26,1.73-7.27,9.59-8.07,12.47-.2.71-.72,1.3-1.41,1.57-.29.12-7.51,3.33-5.41,15.08l-4.68.83c-1.43-8.06.81-13.11,2.95-15.94,1.53-2.02,3.2-3.21,4.28-3.84,1.01-3.17,4.34-12.05,10.55-14.58,2.18-.89,4.5-.9,6.81-.05,3.28-3.73,9.87-7.66,18.07-2.89,8.2,4.76,8.05,12.44,6.43,17.13,1.88,1.58,3.02,3.6,3.33,5.94.45,3.39-.83,7.34-3.8,11.75-1.38,2.05-2.8,3.71-3.64,4.63,0,1.24-.21,3.3-1.21,5.63-1.4,3.26-4.68,7.71-12.39,10.45Z"/>
      </g>
      <g>
        <path class="cls-7" d="M109.34,149.26c-.01-.68-.01-1.36,0-2.05.62-18.75,14.85-33.5,31.77-32.94,6.34.21,12.17,2.54,16.93,6.36,5.01-3.5,10.98-5.44,17.32-5.22,16.92.56,30.14,16.22,29.51,34.97-.02.6-.06,1.2-.1,1.8,1.36,4.7,2.05,9.99,1.87,15.57-.62,18.75-10.8,33.63-22.73,33.24-3.47-.12-6.71-1.52-9.54-3.91-5.36,4.87-11.98,7.66-19.07,7.43-7.08-.24-13.5-3.46-18.53-8.68-2.98,2.19-6.31,3.38-9.78,3.27-11.93-.4-21.09-15.92-20.47-34.67.18-5.48,1.19-10.63,2.81-15.17Z"/>
        <path class="cls-5" d="M207.18,151.93c.03-.45.06-.93.07-1.46.32-9.66-2.78-18.87-8.74-25.92-6.01-7.12-14.21-11.21-23.07-11.51-6.09-.2-12.04,1.41-17.3,4.69-5.04-3.62-10.86-5.62-16.95-5.83-18.2-.61-33.55,15.2-34.22,35.23-.02.56-.02,1.13-.01,1.69-1.66,4.76-2.63,10.04-2.81,15.52-.32,9.52,1.76,18.58,5.86,25.51,4.29,7.27,10.3,11.4,16.91,11.62.18,0,.36,0,.53,0,3.09,0,6.17-.89,9.04-2.6,5.33,4.91,11.85,7.77,18.73,8,.3,0,.6.01.9.01,6.57,0,12.93-2.4,18.33-6.75,2.91,2.01,6.12,3.12,9.38,3.22.18,0,.37,0,.55,0,6.4,0,12.46-3.7,17.09-10.48,4.55-6.65,7.23-15.55,7.54-25.07.19-5.57-.46-10.98-1.84-15.9ZM204.27,167.68c-.29,8.62-2.67,16.63-6.71,22.54-3.82,5.58-8.64,8.57-13.56,8.4-2.06-.07-4.05-.68-5.95-1.81,1.82-1.94,3.48-4.12,4.95-6.54.68-1.12.32-2.58-.8-3.27-1.12-.68-2.58-.32-3.27.8-5.63,9.28-14.43,14.63-23.55,14.34-9.11-.3-17.54-6.24-22.54-15.87-.61-1.16-2.04-1.62-3.21-1.01-1.16.61-1.62,2.04-1.01,3.21,1.3,2.51,2.82,4.8,4.5,6.86-1.97,1-4,1.48-6.05,1.41-4.93-.16-9.54-3.46-12.98-9.28-3.64-6.16-5.48-14.31-5.2-22.94.29-8.62,2.67-16.62,6.71-22.53,3.82-5.58,8.63-8.56,13.57-8.4,1.32.04,2.41-.99,2.45-2.3.04-1.31-.98-2.41-2.3-2.45-5.69-.18-11.11,2.54-15.55,7.73,4.26-11.7,14.56-19.91,26.39-19.91.28,0,.57,0,.85.01,5.62.19,10.99,2.21,15.53,5.84.82.66,1.98.7,2.85.09,4.77-3.32,10.26-4.98,15.88-4.79,7.5.25,14.46,3.74,19.6,9.82,2.87,3.4,4.97,7.38,6.24,11.68-4.07-5.37-9.25-8.4-14.87-8.58-1.32-.05-2.41.98-2.45,2.3-.04,1.31.98,2.41,2.3,2.45,4.93.16,9.53,3.46,12.97,9.28,3.64,6.16,5.49,14.31,5.2,22.93Z"/>
        <g>
          <path class="cls-6" d="M170.61,103.5c6.94-1.96,13.25-1.11,15.21,5.83,1.96,6.94-2.08,14.15-9.02,16.11-6.94,1.96-14.15-2.08-16.11-9.02-1.96-6.94,2.98-10.96,9.92-12.92Z"/>
          <path class="cls-9" d="M173.23,128.32c-2.61,0-5.18-.67-7.52-1.98-3.6-2.01-6.19-5.31-7.31-9.28-1.13-4.02-.4-7.66,2.13-10.54,2.05-2.34,5.23-4.12,9.44-5.31h0c4.21-1.19,7.86-1.32,10.82-.4,3.66,1.13,6.19,3.86,7.32,7.88,1.12,3.97.63,8.13-1.39,11.73-2.01,3.6-5.31,6.19-9.28,7.31-1.39.39-2.8.59-4.21.59ZM171.26,105.79c-3.27.92-5.74,2.26-7.16,3.87-1.45,1.65-1.82,3.65-1.12,6.12.77,2.75,2.57,5.03,5.06,6.42,2.49,1.39,5.37,1.74,8.12.96,2.75-.77,5.03-2.57,6.42-5.06,1.39-2.49,1.74-5.37.96-8.12-.69-2.46-2.05-3.98-4.15-4.63-2.05-.63-4.86-.48-8.13.44h0Z"/>
        </g>
        <path class="cls-11" d="M139.83,134.19c5.17-4.31,11.4-6.74,18.03-6.51,7.04.23,13.44,3.42,18.44,8.58.36-.76.61-1.58.73-2.42.91-6.21-5.22-12.36-14.11-14.71-.42-2.44-.55-5.83.78-9.11,1.4-3.44-.74-7.37-4.44-7.63-.2-.02-.41-.02-.62-.03-1.56-.02-3.03.73-4.04,1.91-2.42,2.82-6.87,8.92-6.09,14.8-5.41,1.53-9.3,4.86-9.92,9.18-.3,2.03.16,4.06,1.22,5.95Z"/>
        <path class="cls-12" d="M178.46,137.26l-4.3-2.03c.26-.55.44-1.14.53-1.75.71-4.83-4.61-10.02-12.36-12.07-.9-.24-1.58-.98-1.74-1.89-.45-2.6-.65-6.52.92-10.41.41-1.01.32-2.15-.23-3.04-.28-.46-.95-1.24-2.17-1.32-.18-.02-.34-.02-.5-.03h-.01c-.78,0-1.59.4-2.17,1.08-1.89,2.2-6.21,7.87-5.54,12.94.15,1.17-.57,2.28-1.71,2.6-4.68,1.32-7.75,4.02-8.21,7.23-.21,1.46.1,2.96.94,4.44l-4.14,2.34c-1.35-2.39-1.87-4.97-1.51-7.47.67-4.63,4.29-8.47,9.81-10.53.13-6,4.17-11.65,6.75-14.65,1.52-1.77,3.65-2.76,5.88-2.74.02,0,.03,0,.05,0,.25,0,.5.02.74.04,2.4.17,4.54,1.46,5.84,3.55,1.36,2.19,1.58,4.93.6,7.35-.9,2.22-1,4.51-.83,6.36,9.37,3,15.32,9.93,14.3,16.9-.16,1.07-.47,2.12-.93,3.09Z"/>
        <path class="cls-5" d="M182.36,147.05c-.86,0-1.68-.46-2.11-1.27-1.56-2.97-3.46-5.62-5.65-7.87-4.79-4.93-10.61-7.65-16.82-7.86-5.83-.19-11.52,1.87-16.43,5.97-2.69,2.25-5.06,5.02-7.03,8.24-.69,1.12-2.15,1.47-3.27.79-1.12-.69-1.47-2.15-.79-3.27,2.24-3.66,4.95-6.83,8.04-9.41,5.82-4.86,12.61-7.3,19.64-7.06,7.47.25,14.41,3.46,20.07,9.3,2.51,2.58,4.68,5.6,6.45,8.98.61,1.16.16,2.6-1,3.21-.35.18-.73.27-1.1.27Z"/>
      </g>
      <g>
        <path class="cls-7" d="M5.22,149.26c-.01-.68-.01-1.36,0-2.05.62-18.75,14.85-33.5,31.77-32.94,6.34.21,12.17,2.54,16.93,6.36,5.01-3.5,10.98-5.44,17.32-5.22,16.92.56,30.14,16.22,29.51,34.97-.02.6-.06,1.2-.1,1.8,1.36,4.7,2.05,9.99,1.87,15.57-.62,18.75-10.8,33.63-22.73,33.24-3.47-.12-6.71-1.52-9.54-3.91-5.36,4.87-11.98,7.66-19.07,7.43-7.08-.24-13.5-3.46-18.53-8.68-2.98,2.19-6.31,3.38-9.78,3.27-11.93-.4-21.09-15.92-20.47-34.67.18-5.48,1.19-10.63,2.81-15.17Z"/>
        <path class="cls-5" d="M103.06,151.93c.03-.45.06-.93.07-1.46.32-9.66-2.78-18.87-8.74-25.92-6.01-7.12-14.21-11.21-23.07-11.51-6.09-.2-12.04,1.41-17.3,4.69-5.04-3.62-10.86-5.62-16.95-5.83-18.2-.61-33.55,15.2-34.22,35.23-.02.56-.02,1.13-.01,1.69-1.66,4.76-2.63,10.04-2.81,15.52-.32,9.52,1.76,18.58,5.86,25.51,4.29,7.27,10.3,11.4,16.91,11.62.18,0,.36,0,.53,0,3.09,0,6.17-.89,9.04-2.6,5.33,4.91,11.85,7.77,18.73,8,.3,0,.6.01.9.01,6.57,0,12.93-2.4,18.33-6.75,2.91,2.01,6.12,3.12,9.38,3.22.18,0,.37,0,.55,0,6.4,0,12.46-3.7,17.09-10.48,4.55-6.65,7.23-15.55,7.54-25.07.19-5.57-.46-10.98-1.84-15.9ZM100.15,167.68c-.29,8.62-2.67,16.63-6.71,22.54-3.82,5.58-8.64,8.57-13.56,8.4-2.06-.07-4.05-.68-5.95-1.81,1.82-1.94,3.48-4.12,4.95-6.54.68-1.12.32-2.58-.8-3.27-1.12-.68-2.58-.32-3.27.8-5.63,9.28-14.43,14.63-23.55,14.34-9.11-.3-17.54-6.24-22.54-15.87-.61-1.16-2.04-1.62-3.21-1.01-1.16.61-1.62,2.04-1.01,3.21,1.3,2.51,2.82,4.8,4.5,6.86-1.97,1-4,1.48-6.05,1.41-4.93-.16-9.54-3.46-12.98-9.28-3.64-6.16-5.48-14.31-5.2-22.94.29-8.62,2.67-16.62,6.71-22.53,3.82-5.58,8.63-8.56,13.57-8.4,1.32.04,2.41-.99,2.45-2.3.04-1.31-.98-2.41-2.3-2.45-5.69-.18-11.11,2.54-15.55,7.73,4.26-11.7,14.56-19.91,26.39-19.91.28,0,.57,0,.85.01,5.62.19,10.99,2.21,15.53,5.84.82.66,1.98.7,2.85.09,4.77-3.32,10.26-4.98,15.88-4.79,7.5.25,14.46,3.74,19.6,9.82,2.87,3.4,4.97,7.38,6.24,11.68-4.07-5.37-9.25-8.4-14.87-8.58-1.32-.05-2.41.98-2.45,2.3-.04,1.31.98,2.41,2.3,2.45,4.93.16,9.53,3.46,12.97,9.28,3.64,6.16,5.49,14.31,5.2,22.93Z"/>
        <g>
          <path class="cls-6" d="M33.79,99.98c7.26-1.24,13.57.3,14.82,7.55,1.24,7.26-3.63,14.15-10.89,15.39-7.26,1.24-14.15-3.63-15.39-10.89-1.24-7.26,4.2-10.81,11.46-12.05Z"/>
          <path class="cls-9" d="M35.43,125.5c-3.22,0-6.36-.99-9.04-2.89-3.42-2.42-5.7-6.04-6.41-10.17-1.32-7.72,3.56-13.11,13.4-14.79,9.84-1.68,16.24,1.78,17.56,9.5.71,4.14-.24,8.3-2.66,11.72-2.42,3.42-6.04,5.7-10.17,6.41-.9.15-1.79.23-2.68.23ZM38.2,101.92c-1.64,0-3.12.25-4.01.41-10.8,1.85-9.83,7.46-9.52,9.31.49,2.88,2.08,5.4,4.47,7.09,2.39,1.69,5.29,2.35,8.17,1.86,2.88-.49,5.4-2.08,7.09-4.47,1.69-2.39,2.35-5.29,1.86-8.17-.85-4.98-4.77-6.02-8.06-6.02Z"/>
        </g>
        <path class="cls-11" d="M35.71,134.19c5.17-4.31,11.4-6.74,18.03-6.51,7.04.23,13.44,3.42,18.44,8.58.36-.76.61-1.58.73-2.42.91-6.21-5.22-12.36-14.11-14.71-.42-2.44-.55-5.83.78-9.11,1.4-3.44-.74-7.37-4.44-7.63-.2-.02-.41-.02-.62-.03-1.56-.02-3.03.73-4.04,1.91-2.42,2.82-6.87,8.92-6.09,14.8-5.41,1.53-9.3,4.86-9.92,9.18-.3,2.03.16,4.06,1.22,5.95Z"/>
        <path class="cls-12" d="M74.34,137.26l-4.3-2.03c.26-.55.44-1.14.53-1.75.71-4.83-4.61-10.02-12.36-12.07-.9-.24-1.58-.98-1.74-1.89-.45-2.6-.65-6.52.92-10.41.41-1.01.32-2.15-.23-3.04-.28-.46-.95-1.24-2.17-1.32-.18-.02-.34-.02-.5-.03h-.01c-.78,0-1.59.4-2.17,1.08-1.89,2.2-6.21,7.87-5.54,12.94.15,1.17-.57,2.28-1.71,2.6-4.68,1.32-7.75,4.02-8.21,7.23-.21,1.46.1,2.96.94,4.44l-4.14,2.34c-1.35-2.39-1.87-4.97-1.51-7.47.67-4.63,4.29-8.47,9.81-10.53.13-6,4.17-11.65,6.75-14.65,1.52-1.77,3.65-2.76,5.88-2.74.02,0,.03,0,.05,0,.25,0,.5.02.74.04,2.4.17,4.54,1.46,5.84,3.55,1.36,2.19,1.58,4.93.6,7.35-.9,2.22-1,4.51-.83,6.36,9.37,3,15.32,9.93,14.3,16.9-.16,1.07-.47,2.12-.93,3.09Z"/>
        <path class="cls-5" d="M78.24,147.05c-.86,0-1.68-.46-2.11-1.27-1.56-2.97-3.46-5.62-5.65-7.87-4.79-4.93-10.61-7.65-16.82-7.86-5.83-.19-11.52,1.87-16.43,5.97-2.69,2.25-5.06,5.02-7.03,8.24-.69,1.12-2.15,1.47-3.27.79-1.12-.69-1.47-2.15-.79-3.27,2.24-3.66,4.95-6.83,8.04-9.41,5.82-4.86,12.61-7.3,19.64-7.06,7.47.25,14.41,3.46,20.07,9.3,2.51,2.58,4.68,5.6,6.45,8.98.61,1.16.16,2.6-1,3.21-.35.18-.73.27-1.1.27Z"/>
      </g>
      <path class="cls-12" d="M39.24,213.4c-1.17.27-2.38-.39-2.78-1.56-.42-1.24.25-2.59,1.49-3.01,4.15-1.4,7.92-6.31,9.37-12.33-2.47-.41-4.83-1.17-7.06-2.31-5.76-2.94-9.25-7.96-8.69-12.49.41-3.25,2.82-5.61,6.62-6.47,6.38-1.45,11.57,2.04,13.56,9.11.67,2.39.95,5.01.84,7.68,6.52-.22,15.58-3.07,26.37-13.14.96-.89,2.46-.84,3.36.12.9.96.84,2.46-.12,3.36-10.03,9.36-20.67,14.36-30.2,14.5-1.52,7.39-5.87,14.24-12.54,16.49-.08.03-.16.05-.24.07ZM39.26,179.86c-1.81.41-2.8,1.23-2.95,2.43-.26,2.07,1.8,5.46,6.13,7.67,1.07.54,2.94,1.33,5.51,1.75.04-2.01-.19-4.07-.76-6.1-.91-3.24-3.02-6.87-7.93-5.75Z"/>
      <path class="cls-12" d="M170.64,216.72c-12.78,0-20.97-7.47-28.2-14.05-6.31-5.75-11.75-10.71-19.27-10.71v-4.75c9.36,0,16.03,6.08,22.47,11.95,6.91,6.3,14.06,12.81,25,12.81s19.16-3.34,23.16-9.39c3.46-5.23,3.51-12.15.15-20-4.04-9.45,3.58-14.82,10.29-19.55,5.23-3.69,10.64-7.5,11.54-13.11.71-4.38-1.26-9.65-6.01-16.09l3.83-2.82c5.55,7.53,7.8,13.96,6.88,19.67-1.23,7.58-7.75,12.18-13.5,16.23-7.14,5.04-11.07,8.16-8.66,13.8,3.95,9.25,3.76,17.95-.56,24.49-4.91,7.43-14.54,11.53-27.13,11.53Z"/>
      <g>
        <path class="cls-7" d="M145.86,168.45c.01-.56.01-1.13,0-1.7-.52-15.58-12.33-27.82-26.39-27.36-5.27.18-10.11,2.11-14.07,5.29-4.16-2.9-9.12-4.52-14.39-4.34-14.06.47-25.03,13.47-24.51,29.05.02.5.05,1,.09,1.49-1.13,3.9-1.7,8.3-1.55,12.93.52,15.58,8.97,27.94,18.88,27.61,2.89-.1,5.57-1.26,7.93-3.25,4.46,4.04,9.95,6.36,15.84,6.17,5.88-.2,11.22-2.88,15.39-7.21,2.48,1.82,5.24,2.81,8.12,2.71,9.91-.33,17.52-13.22,17-28.8-.15-4.56-.99-8.83-2.33-12.6Z"/>
        <path class="cls-5" d="M150.57,180.96c-.15-4.57-.96-8.97-2.33-12.95,0-.45,0-.9-.01-1.35-.27-8.13-3.39-15.68-8.78-21.27-5.46-5.66-12.58-8.64-20.06-8.39-5.05.17-9.89,1.81-14.09,4.76-4.39-2.67-9.33-3.98-14.37-3.81-15.34.51-27.37,14.64-26.81,31.51.01.41.03.79.06,1.15-1.15,4.11-1.68,8.62-1.52,13.27.27,7.98,2.51,15.45,6.33,21.03,3.93,5.74,9.07,8.88,14.53,8.88.16,0,.32,0,.47,0,2.7-.09,5.35-.98,7.76-2.58,4.5,3.55,9.78,5.51,15.24,5.51.25,0,.51,0,.76-.01,5.72-.19,11.14-2.53,15.6-6.55,2.37,1.36,4.91,2.07,7.46,2.07.15,0,.3,0,.46,0,5.64-.19,10.74-3.68,14.38-9.85,3.44-5.82,5.19-13.43,4.92-21.41ZM141.56,199.95c-2.78,4.71-6.49,7.38-10.45,7.51-1.49.05-2.95-.26-4.38-.91,1.29-1.62,2.45-3.42,3.47-5.37.61-1.17.15-2.6-1.01-3.21-1.17-.61-2.6-.15-3.21,1.01-4.09,7.87-10.96,12.72-18.38,12.96-7.42.25-14.6-4.13-19.2-11.71-.68-1.12-2.14-1.48-3.27-.8-1.12.68-1.48,2.14-.8,3.27,1.14,1.88,2.42,3.59,3.81,5.12-1.39.75-2.83,1.15-4.31,1.2-.1,0-.2,0-.3,0-8.32,0-15.67-11.48-16.13-25.32-.47-14,6.27-26.06,14.71-26.34,1.31-.04,2.34-1.14,2.3-2.45-.04-1.31-1.16-2.34-2.45-2.3-4.16.14-8.03,2.09-11.24,5.58,3.41-8.87,11.17-15.2,20.37-15.51,4.59-.15,9.06,1.2,12.95,3.91.87.6,2.02.56,2.85-.09,3.7-2.96,8.08-4.61,12.66-4.76,6.13-.2,11.97,2.26,16.48,6.93,2.06,2.14,3.73,4.62,4.96,7.34-3.34-3.25-7.22-4.98-11.28-4.98-.16,0-.32,0-.48,0-1.31.04-2.34,1.14-2.3,2.45s1.15,2.34,2.45,2.3c3.95-.13,7.83,2.28,10.92,6.8,3.31,4.84,5.27,11.41,5.5,18.5.24,7.09-1.28,13.78-4.26,18.83Z"/>
        <path class="cls-11" d="M120.53,155.93c-4.29-3.58-9.47-5.59-14.98-5.41-5.85.19-11.16,2.84-15.32,7.12-.3-.63-.5-1.31-.61-2.01-.75-5.15,4.33-10.27,11.72-12.22.35-2.03.46-4.84-.65-7.57-1.16-2.86.61-6.12,3.69-6.34.16-.01.34-.02.51-.03,1.29-.02,2.51.6,3.36,1.58,2.01,2.34,5.7,7.41,5.06,12.29,4.49,1.27,7.72,4.04,8.24,7.63.25,1.69-.13,3.38-1.02,4.94Z"/>
        <path class="cls-12" d="M88.08,158.65c-.4-.85-.67-1.75-.81-2.69-.87-5.92,4.07-11.79,11.9-14.39.1-1.44,0-3.17-.68-4.84-.87-2.12-.67-4.54.53-6.46,1.15-1.84,3.04-2.99,5.2-3.14.17-.01.39-.02.6-.03,2.02-.03,3.9.85,5.23,2.41,2.14,2.49,5.47,7.15,5.69,12.15,4.59,1.78,7.59,5.05,8.15,8.97.32,2.16-.13,4.39-1.3,6.45l-4.14-2.34c.65-1.15.9-2.31.74-3.43-.36-2.51-2.81-4.63-6.53-5.68-1.14-.32-1.87-1.43-1.71-2.6.54-4.05-2.97-8.65-4.51-10.44-.41-.48-.99-.75-1.52-.75-.09,0-.22,0-.34.02-.88.06-1.33.6-1.53.91-.39.63-.46,1.44-.16,2.16,1.35,3.32,1.17,6.65.79,8.87-.16.92-.84,1.66-1.74,1.89-6.24,1.65-10.53,5.76-9.97,9.58.07.47.2.92.4,1.34l-4.3,2.03Z"/>
        <path class="cls-5" d="M85.2,167.01c-.37,0-.75-.09-1.1-.27-1.16-.61-1.61-2.05-1-3.21,1.49-2.84,3.31-5.38,5.43-7.55,4.78-4.92,10.64-7.63,16.94-7.84,5.93-.19,11.67,1.86,16.58,5.96,2.6,2.17,4.88,4.83,6.76,7.91.69,1.12.33,2.58-.79,3.27-1.12.68-2.58.33-3.27-.79-1.61-2.64-3.55-4.9-5.75-6.74-4-3.34-8.63-5.02-13.38-4.86-5.05.17-9.79,2.38-13.69,6.4-1.79,1.84-3.35,4.01-4.62,6.45-.43.81-1.25,1.27-2.11,1.27Z"/>
      </g>
      <path class="cls-9" d="M117.1,90.39c-.09-1.2-1.05-2.14-2.24-2.2-1.21-.07-2.25.77-2.47,1.95-.32,1.75-1.78,3.06-3.56,3.18-2.13.15-4-1.47-4.14-3.61,0-.02,0-.03,0-.05,0-.02,0-.04,0-.06l-.12-1.03.88-.1c1.3-.15,2.24-1.33,2.09-2.63-.15-1.3-1.33-2.24-2.63-2.09l-6.48.74c-1.3.15-2.24,1.33-2.09,2.63.14,1.21,1.17,2.11,2.36,2.11.09,0,.18,0,.27-.02l.88-.1.11.95c.06,1.02-.27,2.01-.95,2.79-.68.78-1.63,1.25-2.66,1.32-1.79.12-3.41-.98-3.96-2.67-.37-1.14-1.53-1.83-2.71-1.6-1.18.23-2,1.29-1.93,2.49.04.58,1,14.29,7.89,20.33,2.2,1.92,4.74,2.9,7.57,2.9.29,0,.57,0,.87-.03,3.18-.22,5.86-1.56,7.97-3.98,6.01-6.91,5.1-20.63,5.06-21.21ZM108.44,108.48c-1.27,1.46-2.81,2.23-4.7,2.36-1.9.13-3.52-.43-4.98-1.7-2.67-2.33-4.3-6.7-5.24-10.59.99.3,2.05.43,3.12.36,2.46-.17,4.61-1.35,6.06-3.11,1.68,1.55,3.97,2.43,6.43,2.26,1.08-.07,2.11-.34,3.05-.78-.4,3.97-1.43,8.52-3.76,11.2Z"/>
    </g>
  </g>
</svg>