<svg width="357" height="183" viewBox="0 0 357 183" fill="none" xmlns="http://www.w3.org/2000/svg">
<path d="M55.7535 157.033L291.849 180.992C292.268 181.035 292.686 180.899 293 180.618L355 125.118C355.318 124.833 355.5 124.427 355.5 124V70C355.5 69.6611 355.385 69.3321 355.174 69.0668L310.674 13.0668C310.406 12.7286 310.004 12.5227 309.573 12.5018L82.5726 1.50176C82.2136 1.48436 81.8603 1.59646 81.5769 1.81765L24.5769 46.3176C24.1367 46.6614 23.9238 47.2212 24.0246 47.7706L39.4011 131.597L1.8287 178.563C1.39475 179.105 1.39001 179.875 1.81724 180.423C2.24446 180.97 2.99187 181.153 3.62364 180.864L55.7535 157.033Z" fill="white" stroke="#3C1F5C" stroke-width="3" stroke-linejoin="round"/>
</svg>
