<?xml version="1.0" encoding="UTF-8"?>
<svg id="Capa_2" data-name="Capa 2" xmlns="http://www.w3.org/2000/svg" viewBox="0 0 99.92 166.53">
  <defs>
    <style>
      .cls-1 {
        fill: #56609b;
      }

      .cls-1, .cls-2, .cls-3, .cls-4 {
        stroke-width: 0px;
      }

      .cls-2 {
        fill: #3d4584;
      }

      .cls-5 {
        fill: none;
        stroke: #fff;
        stroke-linecap: round;
        stroke-linejoin: round;
        stroke-width: .5px;
      }

      .cls-3 {
        fill: #9cd1f0;
      }

      .cls-4 {
        fill: #b3def4;
      }
    </style>
  </defs>
  <g id="OBJECTS">
    <g>
      <path class="cls-2" d="M42.37,59.86c-1.69-.96,6.15,2.8,6.15,11.2s-1.34,27.56,2.24,52.11c3.58,24.55,12.19,41.13,15.42,43.07s9.26-6.46,7.32-7.54c-1.94-1.08-6.87-.22-10.11-5.17s-9.38-26.7-10.51-46.73c-1.13-20.03-2.67-38.55.14-40.7,2.82-2.15,7.11-4.08,7.12-7.21s-7.99,6.56-17.78.96Z"/>
      <path class="cls-1" d="M58.85,149.23s-6.78-15.29-18.46-23.69c-11.68-8.4-27.4-13.15-27.4-13.15,0,0,8.61,28.22,45.87,36.83Z"/>
      <g>
        <g>
          <g>
            <path class="cls-3" d="M27.84,29.72s-10.12-2.58-17.23-1.08S.49,33.38.06,35.75s1.51,4.31,2.15,6.46,4.31,3.88,3.88,5.38-.43,3.45-1.29,4.95c-.86,1.51-.43,4.95.43,5.81.86.86,4.09.86,4.74,1.94s-1.51,3.88-2.58,5.6-4.74,12.92-3.01,15.94c1.72,3.01,6.89,4.95,10.55,4.95s7.32-1.08,11.63,0c4.31,1.08,5.81,3.88,7.75,4.95,1.94,1.08,3.88,6.24,7.54,6.24s8.4,2.58,9.91,0c1.51-2.58,4.52-4.31,6.24-4.31s4.52,3.01,6.68,2.37c2.15-.65,5.6-4.31,6.03-5.81s-3.23-10.34-3.01-10.98c.22-.65,6.24,7.75,8.18,7.54,1.94-.22,8.61-1.29,11.41-2.8,2.8-1.51,7.11-3.88,6.89-5.38-.22-1.51-1.06-3.23,0-3.88,1.07-.65,3.87-1.51,4.3-3.23.43-1.72,1.94-7.11,1.29-9.69-.65-2.58-4.09-7.97-4.31-10.77-.22-2.8-1.94-4.31-1.29-5.6.65-1.29,3.45-5.6,3.45-9.04s-1.29-8.83-3.45-11.2c-2.15-2.37-4.09-4.09-7.54-6.24-3.45-2.15-4.52-.65-6.03,0-1.51.65-4.74,4.74-4.74,4.74,0,0,1.72-10.12,0-11.63-1.72-1.51-6.46-4.09-10.12-4.09s-6.46,1.51-7.75,0-1.72-7.97-4.31-7.97-9.47.22-11.41,1.08c-1.94.86-4.31,1.72-5.17,3.45-.86,1.72-4.31.22-6.24-.43-1.94-.65-4.95,0-6.68,1.29-1.72,1.29-6.24,7.97-5.38,11.41.86,3.45,9.04,12.92,9.04,12.92Z"/>
            <path class="cls-4" d="M33.22,34.24c1.64,2.05-13.35-3.66-15.29-1.51-1.94,2.15-2.8,7.11-2.8,8.83s5.6,2.15,5.81,3.88c.22,1.72,2.15,6.89,1.72,8.18-.43,1.29-4.31,4.09-4.09,7.11.22,3.01-.65,6.46,1.51,8.61s4.52,10.12,7.54,8.61c3.01-1.51,7.11-3.45,9.91-3.66,2.8-.22,5.6,3.23,7.11,5.6,1.51,2.37,5.17,4.52,7.54,4.74,2.37.22,7.97-1.72,9.47-3.66,1.51-1.94,2.37-7.11,2.58-8.83.22-1.72,4.95,2.58,7.32,2.8,2.37.22,7.11,4.31,9.04,1.72,1.94-2.58,4.09-7.54,4.95-9.69.86-2.15,1.29-7.75,0-9.91-1.29-2.15-5.38-2.37-5.6-4.52-.22-2.15,1.94-6.24,2.37-7.11.43-.86,2.58-3.23,2.15-4.74-.43-1.51-1.08-5.99-3.66-8.7s-4.31-3.36-6.03-3.36-3.23,3.88-4.74,4.52c-1.51.65.65-7.11.65-9.04s-2.58-4.95-4.09-5.81c-1.51-.86-6.68-.65-8.61,0s-.86.94-2.58-.65c-1.72-1.59.36-6.09-3.01-6.89-11.84-2.8-14.21,6.89-16.8,6.03-2.58-.86-7.32-3.45-8.83-1.51-1.51,1.94,1.29,12.49,6.46,18.95Z"/>
          </g>
          <g>
            <path class="cls-5" d="M35.38,12.7s5.55,18.89,15.37,34.75c0,0,1.64-17.3,7.67-31.95"/>
            <path class="cls-5" d="M89.21,35.1s-13.35,2.14-34.24,15.5c0,0,19.81,3.88,34.24,12.5"/>
            <path class="cls-5" d="M75,71.06s-8.83-12.52-20.03-20.46"/>
            <path class="cls-5" d="M61.12,87s-8.15-23.03-10.37-33.16c0,0-6.33,16.15-6.11,33.16"/>
            <path class="cls-5" d="M15.14,64.82s15.77-9.67,31.76-10.98c0,0-16.04,8.4-26.59,21.53"/>
            <path class="cls-5" d="M19.44,37.25s17.58,4.5,27.46,13.34"/>
          </g>
        </g>
        <g>
          <path class="cls-2" d="M39.19,40.31c1.95,1.63,3.75,3.43,5.7,5.06.21.17.5.2.71,0,.18-.18.21-.53,0-.71-1.95-1.63-3.75-3.43-5.7-5.06-.21-.17-.5-.2-.71,0-.18.18-.21.53,0,.71h0Z"/>
          <path class="cls-2" d="M35.93,44.86c2.53.95,5.06,1.9,7.59,2.85.6.23.86-.74.27-.96-2.53-.95-5.06-1.9-7.59-2.85-.6-.23-.86.74-.27.96h0Z"/>
          <path class="cls-2" d="M36.83,52.46c2.36-.6,4.67-1.55,7.15-1.56.64,0,.64-1,0-1-2.57.02-4.96.98-7.41,1.6-.62.16-.36,1.12.27.96h0Z"/>
          <path class="cls-2" d="M38.53,58.1c2.26-1.14,4.19-2.9,6.11-4.51.21-.17.18-.53,0-.71-.21-.21-.5-.17-.71,0-1.87,1.56-3.73,3.25-5.91,4.35-.57.29-.07,1.15.5.86h0Z"/>
          <path class="cls-2" d="M43.06,62.14c1.24-1.55,2.54-3.11,3.29-4.97.1-.25-.11-.55-.35-.62-.29-.08-.51.1-.62.35-.68,1.68-1.91,3.12-3.04,4.53-.17.21-.21.5,0,.71.17.17.54.21.71,0h0Z"/>
          <path class="cls-2" d="M48.22,58.31c0,1.86.29,3.7.65,5.51.05.26.37.42.62.35.28-.08.4-.35.35-.62-.34-1.73-.61-3.48-.61-5.25,0-.64-1-.64-1,0h0Z"/>
          <path class="cls-2" d="M52.72,57.92c.91,2.12,1.8,4.29,3.24,6.11.17.21.53.18.71,0,.21-.21.17-.49,0-.71-1.38-1.74-2.22-3.89-3.09-5.91-.11-.25-.47-.3-.68-.18-.26.15-.29.43-.18.68h0Z"/>
          <path class="cls-2" d="M56.7,56.21c1.78,1.18,3.6,2.3,5.38,3.48.54.36,1.04-.51.5-.86-1.78-1.18-3.6-2.3-5.38-3.48-.54-.36-1.04.51-.5.86h0Z"/>
          <path class="cls-2" d="M56.18,51.83c2.87.69,6,.07,8.81-.63.62-.16.36-1.12-.27-.96-2.63.65-5.59,1.28-8.28.63-.63-.15-.89.81-.27.96h0Z"/>
          <path class="cls-2" d="M57.2,47.66c1.98-1.31,4.22-2.11,6.33-3.16.58-.29.07-1.15-.5-.86-2.11,1.05-4.35,1.86-6.33,3.16-.53.35-.03,1.22.5.86h0Z"/>
          <path class="cls-2" d="M53.9,44.63c1.36-2.02,3.11-3.73,4.67-5.59.17-.21.2-.5,0-.71-.18-.18-.53-.21-.71,0-1.61,1.93-3.42,3.71-4.82,5.8-.36.54.51,1.04.86.5h0Z"/>
          <path class="cls-2" d="M50.47,43.25c.68-2.07.65-4.31.65-6.46,0-.64-1-.64-1,0,0,2.07.04,4.2-.62,6.2-.2.61.77.88.96.27h0Z"/>
          <path class="cls-2" d="M48.52,43.5c-1.19-2.39-1.87-4.98-2.8-7.48-.22-.6-1.19-.34-.96.27.96,2.58,1.67,5.24,2.9,7.71.29.58,1.15.07.86-.5h0Z"/>
        </g>
        <g>
          <path class="cls-2" d="M47.88,40.48c-6.88,1.32-10.12,11.63-4.95,17.01,5.17,5.38,14.21,4.31,17.23-1.72,3.01-6.03-1.08-17.44-12.27-15.29Z"/>
          <g>
            <path class="cls-1" d="M49.67,44.37c-1.65,0-1.65,2.56,0,2.56s1.65-2.56,0-2.56Z"/>
            <path class="cls-1" d="M45.2,50.35c1.17-1.17-.64-2.98-1.81-1.81-.11.11-.21.21-.32.32-1.17,1.17.64,2.98,1.81,1.81.11-.11.21-.21.32-.32Z"/>
            <path class="cls-1" d="M51.25,50.38c-1.65,0-1.65,2.56,0,2.56s1.65-2.56,0-2.56Z"/>
            <path class="cls-1" d="M53.47,45c-1.65,0-1.65,2.56,0,2.56s1.65-2.56,0-2.56Z"/>
            <path class="cls-1" d="M56.95,50.06c-1.65,0-1.65,2.56,0,2.56s1.65-2.56,0-2.56Z"/>
            <path class="cls-1" d="M45.87,52.91h-.32c-1.65,0-1.65,2.56,0,2.56h.32c1.65,0,1.65-2.56,0-2.56Z"/>
            <path class="cls-1" d="M54.1,55.44h-.32c-1.65,0-1.65,2.56,0,2.56h.32c1.65,0,1.65-2.56,0-2.56Z"/>
            <path class="cls-1" d="M46.52,45.01v-.32c0-1.65-2.56-1.65-2.56,0v.32c0,1.65,2.56,1.65,2.56,0Z"/>
            <path class="cls-1" d="M57.58,45c-1.65,0-1.65,2.56,0,2.56s1.65-2.56,0-2.56Z"/>
          </g>
        </g>
      </g>
    </g>
  </g>
</svg>