<?xml version="1.0" encoding="UTF-8"?>
<svg id="Capa_2" data-name="Capa 2" xmlns="http://www.w3.org/2000/svg" viewBox="0 0 129.83 155.53">
  <defs>
    <style>
      .cls-1 {
        stroke: #ffa932;
      }

      .cls-1, .cls-2 {
        fill: none;
        stroke-linecap: round;
        stroke-linejoin: round;
        stroke-width: .5px;
      }

      .cls-3 {
        fill: #567498;
      }

      .cls-3, .cls-4, .cls-5, .cls-6 {
        stroke-width: 0px;
      }

      .cls-4 {
        fill: #6786a5;
      }

      .cls-2 {
        stroke: #f8cc9d;
      }

      .cls-5 {
        fill: #f8cc9d;
      }

      .cls-6 {
        fill: #ffa932;
      }
    </style>
  </defs>
  <g id="OBJECTS">
    <g>
      <g>
        <path class="cls-3" d="M77.17,73.43c.03,1.57-.02,3.13-.08,4.7-.15,4.18-.47,8.36-.91,12.53-.64,6.06-1.56,12.09-2.76,18.06-1.44,7.15-3.28,14.23-5.6,21.14-2.53,7.54-5.64,14.9-9.46,21.88-.49.9-.99,1.78-1.5,2.67-.49.84.81,1.59,1.3.76,4.05-6.98,7.38-14.38,10.1-21.98,2.52-7.03,4.53-14.25,6.1-21.55,1.33-6.2,2.36-12.47,3.09-18.77.52-4.47.9-8.97,1.11-13.46.09-1.95.23-3.94.14-5.89,0-.03,0-.05,0-.08-.02-.96-1.52-.97-1.5,0h0Z"/>
        <path class="cls-3" d="M41.79,89.23c2.39,3.45,4.54,7.1,6.6,10.76,4.48,7.96,8.43,16.27,11.33,24.94,1.77,5.3,3.17,10.77,3.78,16.34.1.95,1.61.96,1.5,0-1.1-9.97-4.46-19.59-8.56-28.7-3.17-7.04-6.85-13.85-10.95-20.39-.78-1.25-1.57-2.5-2.41-3.71-.55-.79-1.85-.04-1.3.76h0Z"/>
      </g>
      <path class="cls-4" d="M71.43,120.43s2.8-7.99,0-16.35c-2.8-8.36-9.68-12.63-10.6-12.44-.93.19.78,14.87,10.6,28.79Z"/>
      <path class="cls-4" d="M68.4,130.43s5.8-13.08,11.93-18.32c6.13-5.24,11.52-4.87,12.26-4.13.74.74-9,16.66-24.19,22.44Z"/>
      <g>
        <g>
          <g>
            <path class="cls-6" d="M76.9,71.16s-7.11-.69-13.25-8.45c-6.14-7.76-12.53-14.25-19.7-17.11-7.17-2.86-12.29-5.54-12.76-8.08-.47-2.54,1.47-5.22,4.6-6.08,0,0-6.43-7.75-3.42-11.58,3.01-3.83,25.77,2.53,33.68,15.43,7.91,12.9,10.85,35.87,10.85,35.87Z"/>
            <path class="cls-2" d="M35.79,31.43s15.25,2.07,23.47,12.05c8.22,9.98,9.51,23.93,17.64,27.68"/>
          </g>
          <g>
            <path class="cls-6" d="M78.85,71.08s5.92,1.79,15.31-5.45,9.83-10.41,19.66-15.62c9.84-5.21,14.86-5.23,15.87-7.86,1.01-2.63-3.62-7.1-10.06-5.56,0,0,3.06-7.55-4.01-7.65-7.07-.1-16.85,4.73-23.05,18.54-6.2,13.81-13.72,23.6-13.72,23.6Z"/>
            <path class="cls-2" d="M119.63,36.59s-6.78.44-15.69,9.15c-8.91,8.7-16.57,22.07-25.09,25.34"/>
          </g>
          <g>
            <path class="cls-5" d="M76.9,71.16s-6.8-2.43-10.68-14.05c-3.88-11.61-8-32.71-11.78-38-3.78-5.29-9.02-7.84-6.34-11.6,2.68-3.76,13.99-11.38,23.42,8.55,0,0,2.01-12.11,9.59-15.13,7.58-3.02,13.52,1.34,10.18,12.98,0,0,5.63-6.42,11.08-5.92,5.44.49,9.62,6.12,2.31,14.81-7.31,8.7-9.42,19.49-11.06,26.89-1.64,7.4-7.15,22.19-16.71,21.47Z"/>
            <path class="cls-1" d="M71.52,16.06c2.54,8.37-1.02,47.41,5.38,55.1,0,0,6.41-3.68,8.68-17.1,2.27-13.41,1.82-28.28,5.71-40.15"/>
          </g>
        </g>
        <path class="cls-3" d="M77.74,80.31s-2.79-6.69-8-10.4c0,0,7.43-3.16,16.35.93,0,0-5.74,5.02-8.35,9.47Z"/>
      </g>
      <g>
        <g>
          <g>
            <path class="cls-5" d="M43.53,93.73s-3.58,2.88-9.89,2.07c-6.31-.81-12.16-.92-16.75.98-4.58,1.91-8.14,2.98-9.5,2.02-1.36-.96-1.67-3.06-.62-4.86,0,0-6.44-.67-6.77-3.79-.34-3.12,12.98-10.42,22.42-8.04,9.43,2.38,21.11,11.62,21.11,11.62Z"/>
            <path class="cls-1" d="M6.78,93.94s7.94-5.9,16.21-5.01c8.26.89,15.12,6.73,20.55,4.8"/>
          </g>
          <g>
            <path class="cls-5" d="M44.39,92.83s3.53-1.84,4.59-9.38c1.07-7.55-.16-9.2,2.02-16.02,2.18-6.82,4.48-9.08,3.76-10.75-.72-1.67-4.86-1.64-7.12,1.97,0,0-1.99-4.85-5.28-1.72-3.29,3.13-5.62,9.74-2.27,18.88,3.35,9.13,4.3,17.02,4.3,17.02Z"/>
            <path class="cls-1" d="M47.65,58.65s-2.92,3.25-3.1,11.26c-.18,8.01,2.3,17.59-.15,22.92"/>
          </g>
          <g>
            <path class="cls-6" d="M43.53,93.73s-4.22,1.94-11.22-1.66-18.38-11.44-22.49-12.18c-4.11-.73-7.67.45-8.13-2.49-.46-2.93,1.32-11.52,14.61-6.59,0,0-4.52-6.47-2.39-11.26,2.13-4.8,6.82-5.46,10.51,1.39,0,0-.29-5.48,2.43-7.7,2.72-2.22,7.17-1.51,7.72,5.77.55,7.28,4.42,13.19,6.99,17.33s6.68,13.42,1.96,17.38Z"/>
            <path class="cls-2" d="M16.3,70.82c4.93,2.71,20.84,22.26,27.23,22.92,0,0,1.29-4.57-3.69-11.76s-11.87-13.82-15.42-21.02"/>
          </g>
        </g>
        <path class="cls-3" d="M48.03,97.56s-4.29-1.82-8.35-1.19c0,0,2-4.79,7.93-6.92,0,0-.39,4.89.42,8.11Z"/>
      </g>
    </g>
  </g>
</svg>