<?xml version="1.0" encoding="UTF-8"?>
<svg id="Capa_2" xmlns="http://www.w3.org/2000/svg" xmlns:xlink="http://www.w3.org/1999/xlink" viewBox="0 0 96.1 101.39">
  <defs>
    <style>
      .cls-1 {
        fill: none;
      }

      .cls-2 {
        fill: #dbd5ba;
      }

      .cls-3 {
        fill: #fff;
        opacity: .27;
      }

      .cls-4 {
        clip-path: url(#clippath);
      }
    </style>
    <clipPath id="clippath">
      <path class="cls-1" d="M93.43,25.06c.55-.83,1.16-1.62,1.73-2.43.4-.57.79-1.18.93-1.87.02-.11.04-.23,0-.34-.1-.3-.51-.36-.8-.26-.93.31-1.3,1.49-2.18,1.91-.08.04-.17.07-.25.05-.27-.05-.25-.45-.15-.71.57-1.35,1.64-2.5,1.92-3.94.05-.24.05-.53-.15-.67-.1-.07-.23-.07-.36-.06-.92.08-1.52.98-1.97,1.79s-.97,1.72-1.88,1.92c-.29-.85.07-1.77.37-2.62.31-.85.54-1.86.03-2.6-.18-.26-.47-.48-.79-.44-.18.02-.35.12-.5.23-.67.5-1.16,1.22-1.39,2.02-.2.72-.18,1.49-.4,2.21-.22.72-.81,1.41-1.56,1.4-.13,0-.26-.03-.36-.11-.1-.08-.16-.21-.21-.33-.32-.77-.63-1.54-.95-2.32-.09-.21-.21-.45-.43-.48-.29-.04-.47.29-.55.57-.45,1.61-.03,3.32.46,4.92.74,2.42,1.16,4.58.74,7.09-.25,1.46-.65,3.05-1.86,3.92-4.15,2.99-3.53-7.39-3.92-9.39-.9-4.7-2.42-9.39-5.03-13.44C69.3,3.92,60.71-1.26,52,.27c-7.52,1.32-14.57,5.23-19.31,11.28-2.31,2.95-4,6.37-4.98,9.98-.51,1.88-.83,3.81-.96,5.75-.11,1.64.39,3.74-.3,5.26-1.8-.11-3.28-1.6-3.93-3.29-.65-1.68-.64-3.54-.62-5.34.03-2.27-.78-4.34-.16-6.62.13-.47.3-.95.22-1.43-.07-.48-.5-.95-.98-.87-.21.04-.39.18-.54.33-.24.25-.44.55-.56.88-.21.56-.33,1.67-1.14,1.67-.77,0-1.4-.93-1.57-1.58-.18-.69-.15-1.42-.36-2.1-.15-.48-.41-.93-.77-1.29-.08-.09-.18-.17-.29-.21-1.73-.64-1.27,4.95-1.22,5.59,0,.01,0,.03,0,.04-1.51.66-2.09-2.98-3.69-2.6-1.84.43-.01,3.17.46,3.89.14.22.29.45.34.71.05.26-.02.56-.25.71-.42.28-.94-.16-1.24-.56s-.77-.87-1.22-.66c-.4.19-.41.75-.27,1.17.41,1.27,1.54,2.14,2.63,2.89.95.65,2.08,1.35,2.65,2.39.64,1.18.91,2.52,1.24,3.81,1.04,4.06,3.84,8.22,8,8.7,1.3.15,2.73-.05,3.8.7,1.91,1.34,2.7,7.89,3.08,10.1.74,4.35.66,8.95-1.95,12.69-1.52,2.18-3.62,3.87-5.76,5.45-7.54,5.57-16.31,10.6-19.99,19.23-1.35,3.17-1.89,6.61-2.32,10.02-.22,1.8.12,4.3,1.93,4.42,1.65.11,2.43-1.93,2.92-3.51,1.18-3.82,3.61-7.25,6.83-9.62,3.9-2.88,8.73-4.14,13.42-5.37,6.06-1.59,12.11-3.22,18.14-4.89,13.48-3.74,27.54-5.77,33.78-19.98,1.06-2.42,1.8-4.98,2.26-7.58.35-1.98-.35-4.79.82-6.48,1.3-1.87,4.08-1.65,6.18-2.53,3.34-1.39,4.64-5.44,4.92-9.05.14-1.77.29-3.59,1.01-5.24.32-.73.72-1.41,1.16-2.07Z"/>
    </clipPath>
  </defs>
  <g id="OBJECTS">
    <g>
      <g>
        <path class="cls-2" d="M93.43,25.06c.55-.83,1.16-1.62,1.73-2.43.4-.57.79-1.18.93-1.87.02-.11.04-.23,0-.34-.1-.3-.51-.36-.8-.26-.93.31-1.3,1.49-2.18,1.91-.08.04-.17.07-.25.05-.27-.05-.25-.45-.15-.71.57-1.35,1.64-2.5,1.92-3.94.05-.24.05-.53-.15-.67-.1-.07-.23-.07-.36-.06-.92.08-1.52.98-1.97,1.79s-.97,1.72-1.88,1.92c-.29-.85.07-1.77.37-2.62.31-.85.54-1.86.03-2.6-.18-.26-.47-.48-.79-.44-.18.02-.35.12-.5.23-.67.5-1.16,1.22-1.39,2.02-.2.72-.18,1.49-.4,2.21-.22.72-.81,1.41-1.56,1.4-.13,0-.26-.03-.36-.11-.1-.08-.16-.21-.21-.33-.32-.77-.63-1.54-.95-2.32-.09-.21-.21-.45-.43-.48-.29-.04-.47.29-.55.57-.45,1.61-.03,3.32.46,4.92.74,2.42,1.16,4.58.74,7.09-.25,1.46-.65,3.05-1.86,3.92-4.15,2.99-3.53-7.39-3.92-9.39-.9-4.7-2.42-9.39-5.03-13.44C69.3,3.92,60.71-1.26,52,.27c-7.52,1.32-14.57,5.23-19.31,11.28-2.31,2.95-4,6.37-4.98,9.98-.51,1.88-.83,3.81-.96,5.75-.11,1.64.39,3.74-.3,5.26-1.8-.11-3.28-1.6-3.93-3.29-.65-1.68-.64-3.54-.62-5.34.03-2.27-.78-4.34-.16-6.62.13-.47.3-.95.22-1.43-.07-.48-.5-.95-.98-.87-.21.04-.39.18-.54.33-.24.25-.44.55-.56.88-.21.56-.33,1.67-1.14,1.67-.77,0-1.4-.93-1.57-1.58-.18-.69-.15-1.42-.36-2.1-.15-.48-.41-.93-.77-1.29-.08-.09-.18-.17-.29-.21-1.73-.64-1.27,4.95-1.22,5.59,0,.01,0,.03,0,.04-1.51.66-2.09-2.98-3.69-2.6-1.84.43-.01,3.17.46,3.89.14.22.29.45.34.71.05.26-.02.56-.25.71-.42.28-.94-.16-1.24-.56s-.77-.87-1.22-.66c-.4.19-.41.75-.27,1.17.41,1.27,1.54,2.14,2.63,2.89.95.65,2.08,1.35,2.65,2.39.64,1.18.91,2.52,1.24,3.81,1.04,4.06,3.84,8.22,8,8.7,1.3.15,2.73-.05,3.8.7,1.91,1.34,2.7,7.89,3.08,10.1.74,4.35.66,8.95-1.95,12.69-1.52,2.18-3.62,3.87-5.76,5.45-7.54,5.57-16.31,10.6-19.99,19.23-1.35,3.17-1.89,6.61-2.32,10.02-.22,1.8.12,4.3,1.93,4.42,1.65.11,2.43-1.93,2.92-3.51,1.18-3.82,3.61-7.25,6.83-9.62,3.9-2.88,8.73-4.14,13.42-5.37,6.06-1.59,12.11-3.22,18.14-4.89,13.48-3.74,27.54-5.77,33.78-19.98,1.06-2.42,1.8-4.98,2.26-7.58.35-1.98-.35-4.79.82-6.48,1.3-1.87,4.08-1.65,6.18-2.53,3.34-1.39,4.64-5.44,4.92-9.05.14-1.77.29-3.59,1.01-5.24.32-.73.72-1.41,1.16-2.07Z"/>
        <path d="M58.08,16.05c.74-1.31,2.5-2.26,3.77-1.44.4.26.68.65.96,1.03,1.08,1.48,2.15,2.95,3.23,4.43.48.66.97,1.34,1.24,2.12,1.16,3.38-2.87,7.59-6.18,5.69-3.03-1.74-4.65-8.94-3.01-11.82Z"/>
        <path d="M46.92,15.31c-.45.19-.82.52-1.19.84-1.36,1.2-2.72,2.4-4.08,3.6-.82.73-1.66,1.47-2.22,2.41-.56.95-.8,2.14-.36,3.15.72,1.64,2.93,2.09,4.65,1.59,2.73-.8,5.51-2.65,6.67-5.38.95-2.24.22-7.8-3.48-6.21Z"/>
        <path d="M48.23,45.72c-1.03-.71-1.92-1.73-2.55-2.66-1.24-1.82-.91-4.31.04-6.3.95-1.98,2.44-3.65,3.56-5.55.63-1.08,1.2-2.28,2.27-2.93,1.22-.73,2.85-.52,4.03.28,1.18.8,1.94,2.09,2.41,3.43.91,2.62.4,4.7-.51,7.25-.34.95-.67,1.89-1.01,2.84-.74,2.08-2.97,4.32-5.25,4.55-1.06.1-2.07-.29-2.97-.91Z"/>
      </g>
      <g class="cls-4">
        <path class="cls-3" d="M75.75,38.35c-.51,10.76-3.63,21.64-12.88,28.07-5.09,3.54-11.13,5.5-17.22,6.64-12.48,2.32-26.49,4.57-36.34,13.31C3.69,91.35,0,98.15-2.76,105.13c-1.47,3.73-2.27,8.87,1.15,10.95,1.43.87,3.2.88,4.87.73,8.09-.73,15.5-4.6,22.87-8.04,22.82-10.65,47.97-18.22,66.09-35.71,15.83-15.28,24.75-38.76,18.92-59.98-1.74-6.33-4.79-12.42-9.53-16.98-4.73-4.56-11.26-7.44-17.81-6.99-4.9.34-16.03,5.05-15.14,11.41.23,1.68,1.95,3.85,2.61,5.48.79,1.94,1.46,3.94,2.02,5.96,1.11,4,1.81,8.1,2.2,12.23.44,4.7.48,9.43.26,14.15Z"/>
      </g>
    </g>
  </g>
</svg>