<svg width="165" height="19" viewBox="0 0 165 19" fill="none" xmlns="http://www.w3.org/2000/svg">
<path d="M1.94359 13.9318L2.03261 12.9377C1.17209 12.9377 1.67653 13.3828 1.11274 13.3828C0.979212 13.3828 0.534116 13.3235 0.534116 13.0861C0.534116 12.7745 0.697318 12.5816 0.697318 12.1811C0.697318 11.6173 0.222548 11.2167 0.222548 10.6974V4.82213C0.0445096 4.22867 0 3.56102 0 2.90821V1.27619C0 0.816261 0.0890193 0.133779 0.697318 0.133779H3.10084C3.62012 0.133779 3.81299 0.979462 3.81299 1.12783V5.00017H6.15717C6.18684 5.00017 6.27586 4.71827 6.2907 4.59958C6.2907 4.58474 6.30553 4.19899 6.30553 4.05063C6.30553 3.88743 6.2907 3.44233 6.2907 3.39782C6.27586 3.19011 6.08298 1.49874 6.08298 1.29103C6.08298 1.03881 6.26102 0.282145 6.30553 0.267308L6.57259 0.133779H9.3767C9.49539 0.133779 9.76245 0.460184 9.76245 0.727241C9.7031 1.05365 9.68827 1.1575 9.68827 1.49874C9.68827 1.72129 9.82179 2.00318 9.82179 2.24057C9.88114 3.21978 9.89598 4.4067 9.89598 5.28206C9.89598 5.43043 9.82179 5.80134 9.79212 5.96454V11.6618C9.79212 11.825 9.7031 12.1365 9.42121 12.1365C9.03546 12.1365 9.0948 11.5728 8.69422 11.5728V12.8784C8.69422 13.1009 8.62003 13.1603 8.50134 13.1603C8.38265 13.1603 8.08592 13.0712 7.84853 13.0712C7.715 13.0712 7.59631 13.1009 7.5518 13.1899C7.46278 13.3531 7.5518 13.6499 7.3886 13.9318C7.28474 14.0653 7.16605 14.1246 7.03252 14.1246C6.82481 14.1246 6.63194 13.9763 6.63194 13.7241C6.51324 12.6262 6.32037 11.9733 6.23135 11.1425C6.21651 10.9348 6.20168 10.7122 6.20168 10.46L6.23135 9.67368C6.172 9.37695 5.96429 9.21375 5.78625 9.21375C5.63789 9.21375 5.5192 9.3176 5.48952 9.54015C5.45985 9.74786 5.43018 10.3117 5.34116 10.7271C5.26697 11.0535 5.14828 11.187 5.01475 11.187C4.88122 11.187 4.73286 11.0386 4.67351 10.8458C4.61417 10.6677 4.64384 10.4897 4.55482 10.2078C4.48064 10.0149 4.3026 9.54015 4.28776 9.54015C4.05038 9.55499 3.94652 9.89623 3.94652 10.7419C3.94652 10.9793 4.00587 11.276 4.05038 11.6321C4.10972 12.003 4.15423 12.4333 4.15423 12.7152V13.6054C4.15423 13.7982 4.0207 13.8576 3.87234 13.8576C3.78332 13.8576 3.6943 13.8427 3.54593 13.6647C3.26404 13.1454 3.11567 12.908 2.49254 12.908C2.49254 13.5757 2.87829 13.4867 2.87829 14.1246C2.87829 14.5401 2.71509 14.5697 2.71509 14.822C2.71509 15 2.78927 15.1484 2.83378 15.3116C2.87829 15.5341 2.87829 15.7863 2.87829 16.0682C2.87829 16.4688 2.7596 17.092 2.44803 17.092C2.25516 17.092 2.06228 16.7655 2.01777 16.0089C2.01777 15.9644 2.03261 15.9199 2.04744 14.8665L1.94359 13.9318ZM6.39455 16.0831V15.7715C6.39455 15.7567 6.42423 15.727 7.09187 15.0593C7.32925 15.1335 7.49246 16.2166 7.49246 16.4837C7.49246 16.8249 7.28474 17.0326 6.95834 17.0326C6.52808 17.0326 6.39455 16.3946 6.39455 16.0831ZM10.3262 14.7181C10.3411 14.8516 10.3559 14.9852 10.3559 15.1039C10.3559 15.3709 10.2966 15.549 10.0889 15.5935C10.0295 15.6083 9.985 15.6083 9.94049 15.6083C9.45088 15.6083 9.22833 15.2077 9.22833 14.6736C9.25801 14.2878 9.28768 13.9911 9.42121 13.6054C9.46572 13.4273 9.65859 13.368 9.65859 13.2345C9.65859 13.2048 9.64376 13.1751 9.62892 13.1454C9.68827 12.9971 9.80696 12.9526 9.92565 12.9526C10.1482 12.9526 10.2817 13.5015 10.2966 13.6795C10.3114 13.7537 10.3262 14.4659 10.3262 14.7181ZM19.852 15.6973C19.852 15.089 20.3416 14.3917 20.3416 13.7982C20.3416 13.279 20.1784 12.8042 19.8965 12.2404C19.7185 11.8992 19.214 11.4689 19.0063 11.1425C18.8431 10.8606 18.947 10.5787 18.7393 10.3117C18.7096 10.2671 18.6799 10.2375 18.6502 10.2375C18.5909 10.2375 18.5315 10.3117 18.4425 10.4749C18.2645 10.7716 18.1903 11.1425 17.8936 11.1425C17.5375 11.1425 17.7897 10.3413 17.2408 10.3413C16.6473 10.3413 16.6621 11.0386 16.5731 11.5876C16.5138 11.8843 16.3951 12.0327 16.1874 12.2256C15.4307 12.2256 16.0983 10.2078 15.0301 10.2078C14.1844 10.2078 14.5405 11.6618 14.2438 12.092C14.0064 12.4333 13.6948 12.2997 13.6948 12.8932C13.6948 13.1454 13.8432 13.3235 13.8432 13.5609L13.7097 14.095C13.7097 14.3917 13.8432 14.8071 13.8432 15.0297C13.8432 15.2671 13.5316 15.9495 13.3091 16.0979C12.8937 15.7863 12.7008 15.2671 12.6414 14.6736C12.6414 14.2582 12.9827 13.7834 12.9827 13.457C12.9827 13.3531 12.9233 12.5965 12.9085 12.4926C12.9085 12.0624 12.8788 11.8101 12.7008 11.8101C12.5673 11.8101 12.3595 12.7152 12.0331 12.7152C11.6029 12.7152 11.7067 11.4986 11.4397 11.1573C11.2616 10.9199 11.0984 10.6826 11.0984 10.3562C11.0984 9.5995 11.5584 9.12473 11.8403 8.48676C12.1222 7.84878 12.2557 7.09212 12.4931 6.43931L13.0569 5.31173C13.2497 4.74795 13.3388 4.10997 13.5465 3.56102C13.68 3.21978 13.9619 2.95272 14.1103 2.61148C14.2735 2.25541 14.2438 0.519529 15.1043 0.282145C15.3862 0.207962 15.9648 0.178289 16.6176 0.178289C17.2408 0.178289 17.9232 0.207962 18.4425 0.267308C18.9025 0.326655 19.1102 0.994299 19.3179 1.40972C19.6888 2.28508 19.7778 3.21978 20.1191 4.0803C21.2318 6.85474 22.6561 9.88139 22.6561 12.8932C22.6561 12.9822 22.5671 13.7537 22.5077 14.006C22.4781 14.1543 22.4039 14.5104 22.1813 14.5104C21.7807 14.5104 21.573 13.635 21.573 13.2938C21.573 13.1158 21.8104 12.9377 21.8549 12.7597C21.8549 12.4333 21.7511 12.2107 21.3802 12.2107C21.0389 12.2107 21.0389 12.6262 21.0389 12.8932C21.0389 13.8279 21.4543 14.7775 21.4543 15.6973C21.4543 15.8457 21.4247 16.2166 21.2763 16.5282C21.0983 16.9139 20.7719 17.2255 20.5493 17.2255C19.9113 17.2255 19.852 16.0386 19.852 15.6973ZM16.1429 5.86069L16.039 5.96454C15.9203 6.27611 15.861 6.49866 15.861 6.69153C15.861 6.85474 15.9055 6.98826 16.0093 7.13663C16.039 7.18114 16.039 7.19598 16.0835 7.19598C16.128 7.19598 16.2022 7.1663 16.3357 7.10696C16.4544 7.06245 16.6176 6.94375 16.8105 6.94375C16.9589 6.94375 17.0776 6.98826 17.1963 6.98826C17.2853 6.98826 17.3743 6.95859 17.4485 6.88441C17.3595 6.79539 17.3149 6.57284 17.2556 6.20193C17.2259 5.94971 17.0331 5.9052 16.9737 5.66781C16.8847 5.26722 16.9292 4.59958 16.7066 4.59958C16.4841 4.59958 16.3061 5.23755 16.1429 5.86069ZM24.7347 16.4243C25.1353 16.4243 25.2392 17.3887 25.2392 17.6557C25.2392 17.8338 25.0315 17.9228 24.8831 17.9228C24.4528 17.9228 24.3193 17.4184 24.3193 17.0474C24.349 16.7952 24.4232 16.4243 24.7347 16.4243ZM28.7258 9.18407C29.1709 9.18407 29.6753 8.828 30.1946 8.828C30.6248 8.828 31.5892 9.06538 31.5892 9.70335V13.6647C31.5892 15.7863 31.8711 15.816 31.8711 16.3798C31.8711 16.6617 31.8563 17.0029 31.4854 17.0029C31.1886 17.0029 30.8177 16.9733 30.8177 15.638C30.8177 15.2522 30.8474 14.7478 30.9216 14.0801C30.9216 13.8576 30.6397 13.6944 30.4468 13.6944C30.1946 13.6944 29.9572 14.3175 29.6456 14.3175C29.3192 14.3175 29.2599 13.8279 28.978 13.8279C28.7554 13.8279 28.7258 14.2582 28.6367 14.6291C28.5774 14.8813 28.4439 15.2522 28.4439 15.4006C28.4439 15.8605 28.5774 16.0979 28.5774 16.5875C28.5774 16.8991 28.3697 17.7893 28.1175 17.7893C28.0284 17.7893 27.8059 17.4629 27.8059 17.0474C27.8059 16.4837 27.8356 16.0831 27.8356 15.727C27.8356 15.4303 27.8207 15.1484 27.7317 14.7626C27.6427 14.3769 27.5685 14.095 27.1086 14.095C26.708 14.095 26.6932 14.4659 26.3371 14.4659C25.8178 14.4659 26.159 13.8724 25.6991 13.8724C25.0463 13.8724 25.2392 14.9852 24.8237 14.9852C24.5864 14.9852 24.4677 14.5252 24.3786 13.5905C24.3341 13.2048 23.9781 13.2493 23.889 12.819C23.6813 11.7508 23.6517 10.2523 23.5775 9.97041C23.5923 9.3176 23.6071 8.63512 23.6071 7.98231C23.5775 5.97938 23.5923 4.95566 23.5478 4.00612C23.533 3.57586 23.4439 3.44233 23.4143 3.10109C23.3994 3.04174 23.3994 2.96756 23.3994 2.87854C23.3994 2.78952 23.3994 2.68567 23.4143 1.26136C23.4143 0.756914 23.6962 0.564039 23.8445 0.133779H26.886C27.2569 0.133779 27.2569 1.58776 27.2569 1.82515C27.2569 2.52246 27.1679 3.1456 27.1234 3.82808C27.0641 4.95566 27.0492 6.14258 27.0492 7.285C27.0492 8.62028 27.2866 9.18407 28.7258 9.18407ZM33.9496 16.4243C34.3502 16.4243 34.4541 17.3887 34.4541 17.6557C34.4541 17.8338 34.2463 17.9228 34.098 17.9228C33.6677 17.9228 33.5342 17.4184 33.5342 17.0474C33.5639 16.7952 33.638 16.4243 33.9496 16.4243ZM37.9406 9.18407C38.3857 9.18407 38.8902 8.828 39.4095 8.828C39.8397 8.828 40.8041 9.06538 40.8041 9.70335V13.6647C40.8041 15.7863 41.086 15.816 41.086 16.3798C41.086 16.6617 41.0712 17.0029 40.7002 17.0029C40.4035 17.0029 40.0326 16.9733 40.0326 15.638C40.0326 15.2522 40.0623 14.7478 40.1365 14.0801C40.1365 13.8576 39.8546 13.6944 39.6617 13.6944C39.4095 13.6944 39.1721 14.3175 38.8605 14.3175C38.5341 14.3175 38.4748 13.8279 38.1929 13.8279C37.9703 13.8279 37.9406 14.2582 37.8516 14.6291C37.7923 14.8813 37.6587 15.2522 37.6587 15.4006C37.6587 15.8605 37.7923 16.0979 37.7923 16.5875C37.7923 16.8991 37.5846 17.7893 37.3323 17.7893C37.2433 17.7893 37.0208 17.4629 37.0208 17.0474C37.0208 16.4837 37.0505 16.0831 37.0505 15.727C37.0505 15.4303 37.0356 15.1484 36.9466 14.7626C36.8576 14.3769 36.7834 14.095 36.3235 14.095C35.9229 14.095 35.908 14.4659 35.552 14.4659C35.0327 14.4659 35.3739 13.8724 34.914 13.8724C34.2612 13.8724 34.4541 14.9852 34.0386 14.9852C33.8012 14.9852 33.6826 14.5252 33.5935 13.5905C33.549 13.2048 33.1929 13.2493 33.1039 12.819C32.8962 11.7508 32.8665 10.2523 32.7924 9.97041C32.8072 9.3176 32.822 8.63512 32.822 7.98231C32.7924 5.97938 32.8072 4.95566 32.7627 4.00612C32.7479 3.57586 32.6588 3.44233 32.6292 3.10109C32.6143 3.04174 32.6143 2.96756 32.6143 2.87854C32.6143 2.78952 32.6143 2.68567 32.6292 1.26136C32.6292 0.756914 32.9111 0.564039 33.0594 0.133779H36.1009C36.4718 0.133779 36.4718 1.58776 36.4718 1.82515C36.4718 2.52246 36.3828 3.1456 36.3383 3.82808C36.2789 4.95566 36.2641 6.14258 36.2641 7.285C36.2641 8.62028 36.5015 9.18407 37.9406 9.18407ZM42.0814 4.18416C42.1853 3.59069 42.4375 2.99723 42.6304 2.73018C43.0013 2.2109 43.2832 1.88449 43.5948 1.57292C43.9212 1.23168 44.1289 0.845933 44.4998 0.667895C44.841 0.489856 45.3751 0.47502 45.8647 0.400837C46.2357 0.356327 46.6659 0.341491 47.1704 0.326655C47.3484 0.148616 47.6006 0.133779 47.8083 0.133779C48.2089 0.133779 48.5502 0.43051 48.9062 0.593712C49.8113 1.00914 50.6718 1.57292 51.2356 2.32959C51.9329 3.27913 52.2445 4.48089 52.2445 5.74199C52.2445 5.89036 52.2148 7.47787 51.9774 7.53722C51.9774 7.71526 51.9922 8.23453 51.9922 8.73898C51.9922 9.25826 51.9774 9.7627 51.9774 9.94074C51.9626 10.3117 51.8736 12.7448 51.4433 12.7448C50.657 12.7448 50.9537 10.7271 50.6124 10.7271C50.0041 10.7271 49.6332 10.9941 49.4107 11.3354C49.0249 11.8992 49.0101 12.6855 48.6689 12.6855C48.1941 12.6855 48.2979 11.7953 47.838 11.7953C47.7638 11.7953 47.4968 11.8101 47.4968 13.6795C47.4968 13.9614 47.3187 14.1246 47.1259 14.1246C46.8588 14.1246 46.5472 13.8279 46.5472 13.1454C46.5472 12.6558 46.7698 12.3591 46.7698 12.0772C46.6956 11.6618 46.1318 11.7211 45.8351 11.6766C45.8054 12.1662 45.6422 12.2997 45.4642 12.2997C45.2861 12.2997 45.0932 12.1662 45.0191 12.0624C44.9449 11.9733 44.8707 11.9288 44.7965 11.9288C44.5295 11.9288 44.3663 12.5223 44.3663 12.9229C44.3663 13.2493 44.4108 13.5757 44.4553 13.8873C44.485 14.0505 44.6927 14.6884 44.6927 15.1929C44.6927 15.5044 44.6036 15.7567 44.3663 15.816C44.3069 15.8308 44.2624 15.8457 44.2031 15.8457C43.6541 15.8457 43.3574 15.0593 43.3574 14.5252C43.3574 13.546 43.8025 12.8042 43.8025 11.7953C43.8025 11.4392 43.6244 10.6826 43.298 10.4749C43.1793 10.6381 42.8974 10.9645 42.6749 10.9645C42.2891 10.9645 42.2298 9.74786 42.1704 8.5461C42.1259 7.47787 42.0814 6.40964 41.8292 6.33546C41.8886 6.32062 41.8886 5.20788 42.0814 4.18416ZM45.0339 5.23755L44.841 5.22272C44.841 6.17225 44.9894 7.27016 45.568 8.07133C45.9241 8.56094 46.0725 8.30872 46.3692 8.75381H46.9033C48.3721 8.75381 48.9062 7.7746 48.9062 6.33546C48.9062 6.14258 48.8172 5.20788 48.7727 5.00017C48.7134 4.92598 48.4018 4.73311 48.1941 4.61442C48.0457 4.5254 47.9567 4.45121 47.8825 4.45121C47.8677 4.45121 47.8528 4.45121 47.838 4.46605C47.8083 4.48089 47.6303 4.67376 47.5858 4.8518C47.5858 5.02984 47.6303 5.1337 47.66 5.31173C47.7045 5.44526 47.7638 5.7865 47.7638 5.99422C47.7638 6.20193 47.7342 7.285 47.2297 7.285C46.8885 7.285 46.6956 6.30578 46.6956 6.18709C46.6956 6.05356 46.6956 5.68265 46.7401 5.23755C46.7698 4.89631 46.8291 4.48089 46.8291 4.16932C46.8143 3.79841 46.6956 3.73906 46.6956 3.60553C46.028 3.6352 46.206 4.4067 45.8944 4.88147C45.7461 5.08919 45.4938 5.23755 45.0339 5.23755ZM66.6501 10.9496L66.5462 11.7953C66.6352 12.1662 66.6797 12.5965 66.6797 12.9822C66.6797 13.1454 66.6649 13.3086 66.6501 13.4422C66.5907 13.8427 66.3237 14.7923 65.7599 14.7923C65.3593 14.7923 65.6412 13.3383 65.0032 12.7597C65.018 12.8487 65.0329 12.9822 65.0329 13.1158C65.0329 13.3977 64.9735 13.6944 64.7361 13.6944C64.6916 13.6944 64.6471 13.6795 64.5878 13.6647C64.5136 13.635 64.4691 13.2493 64.3059 13.2493C64.2762 13.2493 64.2465 13.2641 64.202 13.2938C64.1872 13.3383 64.1724 13.8131 64.1724 13.9911C64.1724 14.7033 64.2762 14.9703 64.2762 15.638C64.2762 15.9347 64.1724 16.4243 63.8459 16.4243C63.4305 16.4243 63.3415 15.994 63.3415 15.5341C63.3415 15.1039 63.4305 14.6588 63.4305 14.5104V13.2345C63.4157 12.9971 63.297 12.8784 63.1635 12.8784C62.9558 12.8784 62.6887 13.1899 62.6887 13.9169C62.6145 14.4362 62.4365 14.6736 62.2881 14.6736C62.0952 14.6736 61.932 14.3175 61.932 13.6647C61.932 13.5163 61.8282 13.3828 61.7392 13.2493C61.6501 13.1306 61.576 13.0119 61.576 12.8784C61.4424 12.5223 61.2199 10.8309 61.1012 10.4897C61.0122 10.6974 60.938 10.8903 60.8935 11.1722L60.7896 12.0179C60.8193 12.1365 60.8341 12.2404 60.8341 12.3146C60.8341 12.552 60.7154 12.5816 60.6709 12.9377L60.7006 13.6795C60.7006 13.9169 60.6413 14.1098 60.3594 14.1098C59.9884 14.1098 59.8846 13.4125 59.8846 13.2641V13.2493C59.7066 13.3086 59.5137 13.3235 59.306 13.3383C59.2466 13.546 59.2169 13.9021 59.0241 13.9021C58.8905 13.9021 58.757 13.8724 58.6532 13.8279C58.6383 13.9466 58.6383 14.0505 58.6383 14.1988C58.6532 14.2878 58.6828 14.4214 58.6828 14.5697C58.6828 14.8368 58.6086 15.1335 58.3713 15.1335C58.1042 15.1335 58.1042 14.8516 57.9707 14.5994L57.8371 14.7329C57.8223 14.7775 57.8075 15.2522 57.8075 15.4303C57.8075 16.1424 58.0152 16.6914 58.0152 17.359C58.0152 17.6557 57.9113 18.1453 57.5849 18.1453C57.1102 18.1453 57.0211 17.4629 57.0211 16.8546C57.0211 16.454 57.0656 16.0682 57.0656 15.9495C57.0953 15.3412 57.125 14.8813 57.125 14.3917C57.1102 13.5757 56.9321 13.5163 56.8431 13.5163C56.7096 13.5163 56.487 14.1098 56.487 14.1988C56.487 14.4956 56.7096 14.6884 56.7096 15.0297C56.7096 15.3709 56.7096 15.8308 56.2496 15.8308C55.7007 15.8308 55.6858 14.7181 55.6858 14.1395C55.6858 13.6202 55.7452 13.3531 55.8194 13.1009C55.6858 12.7448 55.4633 11.0535 55.404 10.8161C55.2853 10.2968 55.0924 10.1484 54.8698 9.61433C54.7957 9.43629 54.5286 8.60545 53.5494 4.95566C53.4159 4.28801 52.9856 2.73018 52.9856 1.89933C52.9856 1.86966 53.0301 0.920116 53.0449 0.771751C53.4307 0.712404 53.2378 0.564039 53.6236 0.519529C53.8016 0.504693 54.2764 0.489856 54.7511 0.489856C55.2259 0.489856 55.7007 0.504693 55.8639 0.534366C56.1161 0.593712 55.9677 1.24652 56.1903 1.4394C56.1755 1.46907 56.1755 1.49874 56.1755 1.55809C56.1755 2.03286 56.4425 3.42749 56.4425 3.70939L56.7244 4.48089C56.7838 4.97049 57.0508 5.07435 57.0508 5.50461C57.0508 5.56396 57.0508 5.6233 57.036 5.69748C57.036 6.00905 57.1992 6.40964 57.2734 6.40964L57.6739 7.18114C57.6888 7.50754 57.6294 9.00603 58.1784 9.00603C58.3268 9.00603 58.4454 8.72414 58.5938 8.3829C58.7718 7.96748 58.9499 7.4482 59.0537 7.25532L59.7066 5.17821C59.7066 5.04468 59.6769 4.42154 59.6769 4.19899C59.6769 4.12481 59.6917 4.05063 59.7511 3.94677C59.8994 3.85775 59.9143 3.70939 59.9143 3.53135V3.24945C59.9143 3.11593 59.9291 2.96756 60.0033 2.83403C60.0181 2.80436 60.2407 2.07737 60.4039 1.49874L61.576 0.564039C61.6205 0.564039 61.6501 0.593712 61.665 0.638222C61.9172 0.697568 61.7243 1.02397 61.9469 1.21685C61.932 1.24652 61.932 1.27619 61.932 1.33554C61.932 1.81031 62.1991 3.20494 62.1991 3.48684L62.481 4.25834C62.5403 4.76278 62.8074 4.82213 62.8074 5.22272C62.8074 5.26722 62.8074 5.31173 62.7926 5.47494C62.7926 5.7865 62.9558 6.18709 63.0299 6.18709L63.4305 6.95859C63.4305 7.49271 63.4305 8.2197 63.7421 8.63512C63.8014 8.69447 63.8905 8.78349 63.935 8.78349C64.0833 8.78349 64.202 8.50159 64.3504 8.16035C64.5284 7.74493 64.7065 7.22565 64.8103 7.03277L65.6263 4.46605C65.6708 4.27318 65.8192 3.81324 66.0566 3.38298C66.205 3.29396 66.2198 3.1456 66.2198 2.96756V2.68567C66.2198 2.55214 66.2346 2.40377 66.3088 2.27024C66.3237 2.24057 66.5462 1.51358 66.7094 0.934952C66.8578 0.400837 67.0952 0.311818 67.4364 0.311818C67.5699 0.311818 67.9408 0.400837 68.2821 0.400837C68.5788 0.400837 68.8607 0.296981 69.0091 0.296981C69.2761 0.296981 69.558 0.311818 69.8102 0.386C69.7509 0.934952 69.4097 3.01207 69.3651 3.54619C69.3206 4.00612 69.0387 5.34141 68.6233 5.54912C68.6085 5.74199 68.4156 6.52833 68.3859 6.73604C68.3711 6.8399 68.2821 7.21081 68.2524 7.27016C68.1931 7.40369 67.926 7.92297 67.4364 8.72414C67.4216 8.75381 67.3474 9.18407 67.2732 9.36211C67.2584 9.39178 67.0358 9.62917 67.0358 9.65884C66.9468 10.2078 66.7242 10.4303 66.6501 10.9496ZM62.3178 15.5638C62.4216 15.727 62.5848 16.2314 62.5848 16.632C62.5848 16.9288 62.4958 17.1661 62.2288 17.1661C62.0952 17.1661 61.9765 16.8397 61.9765 16.4688C61.9765 16.1424 62.0656 15.7715 62.3178 15.5638ZM74.2255 9.28793V9.33244C74.2255 9.51048 74.2552 9.5995 74.3739 9.74786H74.4035C74.5816 9.74786 75.0712 9.88139 75.3531 9.88139L76.2136 9.79237C76.3026 9.79237 76.3768 9.80721 76.4362 9.82205C76.5548 9.85172 76.5845 9.97041 76.6439 10.0149C76.6735 10.0149 76.9406 10.0446 77.0296 10.0446C77.5489 10.0446 77.6676 9.82205 78.172 9.82205C78.2165 9.80721 78.261 9.80721 78.2907 9.80721C78.5281 9.80721 78.6023 10.0298 78.6468 10.4007C78.6913 10.7864 78.7061 11.365 78.7061 11.6321C78.7061 11.9882 78.6913 12.4926 78.6468 12.9674C78.6171 13.2493 78.5875 13.5312 78.5133 13.7537C78.4391 13.9763 78.3501 14.1246 78.1572 14.1246C77.905 14.1246 78.0682 12.9971 77.7418 12.9971C77.4302 13.4125 77.4302 13.7241 77.4302 14.184C77.4302 14.6291 77.3857 15.1484 77.089 15.1484C76.6735 15.1484 76.6735 14.6884 76.6735 14.1988C76.6735 13.8427 76.6735 13.4867 76.4362 13.3828C76.2878 13.6944 76.273 14.0505 76.273 14.4362C76.273 15.1039 76.4955 15.816 76.4955 16.4095C76.4955 16.8694 76.1394 17.2403 75.7833 17.2403C75.4866 17.2403 75.1899 16.9881 75.0712 16.3205C75.0712 15.9199 75.3086 15.4599 75.4124 14.9703C75.4718 14.6736 75.5756 14.273 75.5756 13.9466C75.5756 13.6054 75.4718 13.3383 75.1454 13.3086C74.8783 13.5757 75.0712 13.8873 74.6113 13.8873C74.2403 13.8873 74.3739 12.8042 73.9733 12.7894C73.6766 12.7894 73.5579 13.2493 73.454 13.6795C73.365 13.9466 73.365 14.2433 73.365 14.6291C73.365 15.1929 73.365 16.3056 72.7122 16.3056C72.2077 16.3056 72.0445 15.3858 72.0445 15C72.0445 14.8368 72.2671 14.006 72.2671 13.3977C72.2671 13.1751 72.2374 13.1158 72.1484 13.1158C72.089 13.1158 72 13.1454 71.8813 13.1454C71.0653 13.1454 70.9911 12.0475 70.9911 11.365C70.9911 11.2018 71.0505 11.1425 71.0505 11.0238C71.0505 10.9496 70.9763 10.9199 70.9763 10.7864C70.9763 10.7419 71.1247 10.549 71.1247 10.5342C71.1098 10.2968 70.8873 10.3562 70.8873 10.1633C70.8873 9.98525 70.8724 9.73303 70.8131 9.56982C70.7092 9.3176 70.6647 9.24342 70.6647 9.19891C70.6647 9.12473 70.7241 9.09505 70.7241 8.78349C70.7241 8.7093 70.7092 8.62028 70.6647 8.50159C70.5757 8.24937 70.546 7.9378 70.546 7.64107C70.546 7.21081 70.6054 6.79539 70.6054 6.58768C70.6054 6.51349 70.5906 6.29095 70.5906 6.02389C70.5906 5.89036 70.5906 5.74199 70.6054 5.59363C70.6499 5.22272 70.7983 4.88147 70.7983 4.43638C70.7983 4.02096 70.6351 4.09514 70.6351 3.472C70.6351 3.44233 70.6054 3.1456 70.6054 3.02691C70.6054 2.87854 70.6351 2.44828 70.6351 2.40377L70.7686 2.13671C70.7686 2.10704 70.5906 2.12188 70.5609 1.7658C70.5609 1.6026 70.6351 1.33554 70.6351 0.934952C70.6351 0.608549 71.5846 0.341491 71.7181 0.311818H72.2374C73.7062 0.311818 74.8338 0.163453 76.2284 0.163453C76.7774 0.163453 78.9584 0.163453 78.9584 0.682732C78.9584 0.771751 78.8545 0.875607 78.7803 0.934952C78.6616 1.61743 78.6468 1.86966 78.6468 2.9824C78.6765 3.23462 78.7803 4.27318 78.7803 4.4067C78.7803 4.58474 78.6913 5.07435 78.3797 5.07435C77.8308 5.07435 77.9792 4.6886 77.8308 4.34736C77.7418 4.12481 77.6379 3.96161 77.3709 3.96161C76.718 3.96161 77.0593 4.70344 76.54 4.70344C76.0207 4.70344 76.1988 3.97645 75.6498 3.97645C75.0267 3.97645 75.4124 4.82213 74.7151 4.82213C74.2403 4.82213 74.4332 4.2435 74.1662 4.2435C74.0326 4.2435 73.9733 4.59958 73.9733 4.74795C73.9733 4.83696 74.0623 5.11886 74.1068 5.20788C74.4629 5.23755 74.9525 5.26722 75.2641 5.35624C75.6053 5.44526 75.7685 5.6233 76.1097 5.6233C76.5252 5.6233 76.5252 5.41559 76.8516 5.41559C77.1186 5.41559 77.4599 5.53428 77.5044 5.84585C77.4895 6.02389 77.4895 6.17225 77.4895 6.32062L77.6527 7.96748C77.6527 8.51643 77.5786 8.57577 76.7329 8.57577C76.5548 8.57577 76.3768 8.69447 76.2433 8.69447C76.2136 8.69447 76.1988 8.69447 76.1691 8.67963C76.0207 8.59061 75.9317 8.39774 75.724 8.39774C75.6498 8.39774 75.4421 8.35323 75.175 8.35323C74.997 8.35323 74.8041 8.36806 74.5816 8.44225C74.2255 8.60545 74.2255 8.96153 74.2255 9.28793ZM83.3824 9.28793V9.33244C83.3824 9.51048 83.4121 9.5995 83.5308 9.74786H83.5605C83.7385 9.74786 84.2281 9.88139 84.51 9.88139L85.3705 9.79237C85.4596 9.79237 85.5337 9.80721 85.5931 9.82205C85.7118 9.85172 85.7414 9.97041 85.8008 10.0149C85.8305 10.0149 86.0975 10.0446 86.1865 10.0446C86.7058 10.0446 86.8245 9.82205 87.329 9.82205C87.3735 9.80721 87.418 9.80721 87.4477 9.80721C87.685 9.80721 87.7592 10.0298 87.8037 10.4007C87.8482 10.7864 87.8631 11.365 87.8631 11.6321C87.8631 11.9882 87.8482 12.4926 87.8037 12.9674C87.7741 13.2493 87.7444 13.5312 87.6702 13.7537C87.596 13.9763 87.507 14.1246 87.3141 14.1246C87.0619 14.1246 87.2251 12.9971 86.8987 12.9971C86.5871 13.4125 86.5871 13.7241 86.5871 14.184C86.5871 14.6291 86.5426 15.1484 86.2459 15.1484C85.8305 15.1484 85.8305 14.6884 85.8305 14.1988C85.8305 13.8427 85.8305 13.4867 85.5931 13.3828C85.4447 13.6944 85.4299 14.0505 85.4299 14.4362C85.4299 15.1039 85.6524 15.816 85.6524 16.4095C85.6524 16.8694 85.2964 17.2403 84.9403 17.2403C84.6435 17.2403 84.3468 16.9881 84.2281 16.3205C84.2281 15.9199 84.4655 15.4599 84.5694 14.9703C84.6287 14.6736 84.7326 14.273 84.7326 13.9466C84.7326 13.6054 84.6287 13.3383 84.3023 13.3086C84.0352 13.5757 84.2281 13.8873 83.7682 13.8873C83.3973 13.8873 83.5308 12.8042 83.1302 12.7894C82.8335 12.7894 82.7148 13.2493 82.6109 13.6795C82.5219 13.9466 82.5219 14.2433 82.5219 14.6291C82.5219 15.1929 82.5219 16.3056 81.8691 16.3056C81.3647 16.3056 81.2015 15.3858 81.2015 15C81.2015 14.8368 81.424 14.006 81.424 13.3977C81.424 13.1751 81.3943 13.1158 81.3053 13.1158C81.246 13.1158 81.157 13.1454 81.0383 13.1454C80.2223 13.1454 80.1481 12.0475 80.1481 11.365C80.1481 11.2018 80.2074 11.1425 80.2074 11.0238C80.2074 10.9496 80.1332 10.9199 80.1332 10.7864C80.1332 10.7419 80.2816 10.549 80.2816 10.5342C80.2668 10.2968 80.0442 10.3562 80.0442 10.1633C80.0442 9.98525 80.0294 9.73303 79.97 9.56982C79.8662 9.3176 79.8217 9.24342 79.8217 9.19891C79.8217 9.12473 79.881 9.09505 79.881 8.78349C79.881 8.7093 79.8662 8.62028 79.8217 8.50159C79.7326 8.24937 79.703 7.9378 79.703 7.64107C79.703 7.21081 79.7623 6.79539 79.7623 6.58768C79.7623 6.51349 79.7475 6.29095 79.7475 6.02389C79.7475 5.89036 79.7475 5.74199 79.7623 5.59363C79.8068 5.22272 79.9552 4.88147 79.9552 4.43638C79.9552 4.02096 79.792 4.09514 79.792 3.472C79.792 3.44233 79.7623 3.1456 79.7623 3.02691C79.7623 2.87854 79.792 2.44828 79.792 2.40377L79.9255 2.13671C79.9255 2.10704 79.7475 2.12188 79.7178 1.7658C79.7178 1.6026 79.792 1.33554 79.792 0.934952C79.792 0.608549 80.7415 0.341491 80.8751 0.311818H81.3943C82.8632 0.311818 83.9907 0.163453 85.3854 0.163453C85.9343 0.163453 88.1153 0.163453 88.1153 0.682732C88.1153 0.771751 88.0114 0.875607 87.9373 0.934952C87.8186 1.61743 87.8037 1.86966 87.8037 2.9824C87.8334 3.23462 87.9373 4.27318 87.9373 4.4067C87.9373 4.58474 87.8482 5.07435 87.5367 5.07435C86.9877 5.07435 87.1361 4.6886 86.9877 4.34736C86.8987 4.12481 86.7948 3.96161 86.5278 3.96161C85.875 3.96161 86.2162 4.70344 85.6969 4.70344C85.1777 4.70344 85.3557 3.97645 84.8067 3.97645C84.1836 3.97645 84.5694 4.82213 83.872 4.82213C83.3973 4.82213 83.5901 4.2435 83.3231 4.2435C83.1896 4.2435 83.1302 4.59958 83.1302 4.74795C83.1302 4.83696 83.2192 5.11886 83.2637 5.20788C83.6198 5.23755 84.1094 5.26722 84.421 5.35624C84.7622 5.44526 84.9254 5.6233 85.2667 5.6233C85.6821 5.6233 85.6821 5.41559 86.0085 5.41559C86.2756 5.41559 86.6168 5.53428 86.6613 5.84585C86.6465 6.02389 86.6465 6.17225 86.6465 6.32062L86.8097 7.96748C86.8097 8.51643 86.7355 8.57577 85.8898 8.57577C85.7118 8.57577 85.5337 8.69447 85.4002 8.69447C85.3705 8.69447 85.3557 8.69447 85.326 8.67963C85.1777 8.59061 85.0886 8.39774 84.8809 8.39774C84.8067 8.39774 84.599 8.35323 84.332 8.35323C84.1539 8.35323 83.9611 8.36806 83.7385 8.44225C83.3824 8.60545 83.3824 8.96153 83.3824 9.28793ZM91.0112 14.8516V14.8071C91.0112 14.451 91.0409 13.9763 91.2634 13.6499C91.4266 13.3977 91.5008 13.2493 91.5008 13.0267C91.5008 12.9526 91.486 12.8635 91.4711 12.7597C91.397 12.5075 91.3228 12.4184 91.2634 12.4184C91.1892 12.4184 91.1299 12.5371 91.1151 12.6558C91.1002 12.8339 91.0409 13.1158 90.7887 13.1158C90.299 13.1158 90.3139 12.4926 90.2397 12.1365C90.1655 12.1514 90.0913 12.1662 90.032 12.1662C89.3792 12.1662 89.6611 11.1277 89.1715 10.8013L88.9044 9.19891C88.9044 9.12473 88.8747 7.56689 88.8747 7.0031C88.8747 6.2316 88.9044 4.05063 88.9044 3.85775L89.0083 2.67083C89.0083 2.5373 88.9044 1.81031 88.9044 1.72129C88.9044 1.69162 88.8599 1.33554 88.8599 1.26136C88.8599 0.564039 89.4534 0.193126 90.1358 0.193126H90.1507C90.2842 0.193126 90.5364 0.193126 90.5364 0.460184H92.3762C92.391 0.460184 92.6729 0.875607 92.7767 1.05365C93.3702 2.10704 93.9933 3.13076 94.4236 4.28801C94.5126 4.5254 94.572 4.62925 94.6758 4.88147C94.7648 4.88147 94.839 5.05951 94.9132 5.19304C94.8984 5.11886 94.8984 4.88147 94.8984 4.65893C94.8984 4.43638 94.8984 4.21383 94.9132 4.12481L95.0467 3.85775L94.8539 2.93789C94.8539 2.89338 94.839 2.46312 94.839 2.31475C94.839 1.97351 95.0913 0.178289 95.1358 0.178289H97.9399C98.3108 0.178289 98.5185 0.86077 98.5185 0.979462C98.5185 2.75985 98.474 4.74795 98.2514 6.52833C98.3998 6.69153 98.474 7.21081 98.474 7.3295C98.474 8.14552 98.2811 9.10989 98.0882 9.85172C97.9695 10.3562 97.836 10.6381 97.836 11.187L97.9992 13.4273C97.9992 13.7537 97.8508 13.9021 97.6876 13.9021C97.5096 13.9021 97.3019 13.7241 97.2426 13.4273C97.2129 13.2938 97.2277 12.463 97.1535 12.0772C97.109 11.7805 97.0645 11.8398 97.0497 11.736C97.0052 11.8101 96.9161 12.1959 96.9161 12.2701L97.0497 13.0712C97.0497 13.1158 97.2129 14.0505 97.2129 14.2878C97.2129 14.5697 97.1239 15.4451 96.6936 15.4451C96.3524 15.4451 95.9666 14.911 95.9666 14.2878L96.1298 12.3888C96.1298 11.8101 96.1001 10.9348 95.7441 10.9348C95.566 11.1425 95.6254 11.9437 95.299 11.9437C95.0171 11.9437 94.928 11.6321 94.928 11.3354C94.928 11.1573 94.9577 10.9793 95.0022 10.8903H94.3791C94.023 10.8903 94.3791 9.94074 93.9785 9.73303C93.6966 9.9259 93.6818 10.7864 93.3109 10.7864C93.029 10.7864 92.8361 10.3265 92.8361 10.1039C92.8361 9.7627 93.0586 9.52531 93.0586 9.13956C93.0586 8.85767 92.7619 7.06245 92.5097 7.06245C92.4503 7.06245 92.2723 7.15147 92.2426 7.19598C92.213 7.67075 92.1239 9.9259 92.1091 10.4007C92.0943 10.8161 92.0943 11.2167 92.0943 12.7894C92.0943 13.5609 92.0794 14.3472 92.0349 15.1632C92.0052 15.6231 91.7827 15.816 91.5453 15.816C91.3228 15.816 91.0854 15.638 91.0409 15.3561C91.0112 15.2077 91.0112 15.0297 91.0112 14.8516ZM112.355 15.1632C111.747 15.1632 112.132 13.8427 111.687 13.8427H110.753C110.619 13.8427 110.515 14.3472 110.278 14.5994C110.204 14.6884 110.1 14.7478 109.981 14.7478C109.61 14.7329 109.669 13.8427 109.12 13.8427C108.809 13.8427 108.809 14.0653 108.512 14.0653C108.186 14.0653 108.156 13.8279 107.859 13.8279C107.399 13.8279 107.622 14.5697 107.073 14.5697C106.806 14.5697 106.761 14.184 106.761 13.9466C106.761 13.8131 106.776 13.7092 106.776 13.635C106.732 13.4867 106.628 13.3828 106.554 13.2493L105.931 11.9733C105.797 11.6766 105.767 11.3947 105.767 11.1573C105.767 10.8903 105.812 10.6677 105.812 10.46V10.371C105.812 10.3117 105.56 10.0149 105.545 9.97041C105.307 9.42146 105.248 8.63512 105.248 7.87846V6.18709C105.248 5.9052 105.278 5.08919 105.278 5.02984L105.411 4.89631V1.82515C105.248 1.66194 105.189 1.40972 105.189 1.21685C105.189 0.341491 106.242 0.193126 107.637 0.193126C107.919 0.193126 108.215 0.193126 108.527 0.207962C109.12 0.296981 108.72 0.964626 109.031 1.29103V2.43344C109.031 3.13076 108.972 3.82808 108.942 4.82213C108.942 5.08919 108.942 5.63814 108.972 6.86957L108.883 8.36806C108.942 8.96153 109.12 8.84283 109.284 9.30277C109.417 9.34728 110.07 9.43629 110.218 9.43629C110.382 9.43629 111.123 9.34728 111.287 9.30277C111.435 9.27309 111.465 9.1544 111.465 8.9912L111.45 8.59061C111.45 8.45708 111.465 8.32355 111.554 8.23453V0.178289H114.758C114.773 0.178289 114.862 0.445347 115.292 1.29103C115.292 2.13671 115.367 2.78952 115.367 3.39782C115.367 3.94677 115.263 4.33252 115.263 5.31173C115.263 5.94971 115.307 6.8399 115.352 7.74493C115.396 8.67963 115.441 9.61433 115.441 10.282C115.441 10.9645 115.396 11.6024 115.278 12.2701C115.218 12.6262 115.025 13.0119 115.025 13.3828C115.025 13.6795 115.218 13.9466 115.218 14.273C115.218 14.4659 115.174 15.0593 114.818 15.0593C114.61 15.0593 114.135 14.7329 114.135 14.1395C114.135 13.8131 114.209 13.3977 114.224 12.9526C113.794 12.9526 112.815 13.3977 112.652 13.9318C112.652 13.9763 112.681 14.184 112.681 14.3917C112.681 14.7478 112.622 15.1632 112.355 15.1632ZM111.939 16.454V16.1276C111.939 15.7863 111.984 15.4451 112.414 15.4451C112.711 15.4451 112.904 16.9733 112.904 17.27C112.904 17.5222 112.741 17.8635 112.414 17.8635C111.999 17.8635 111.925 17.3738 111.925 16.9584C111.925 16.7507 111.939 16.5727 111.939 16.454ZM112.755 17.0474C112.681 17.0474 112.652 17.1216 112.652 17.181C112.652 17.2552 112.681 17.3145 112.755 17.3145C112.815 17.3145 112.859 17.2552 112.859 17.181C112.859 17.1216 112.815 17.0474 112.755 17.0474ZM120.577 10.0298C120.177 10.0298 119.925 9.55499 119.895 9.03571V8.07133C119.895 7.95264 119.865 7.75976 119.791 7.75976C119.761 7.75976 119.732 7.78944 119.687 7.87846C119.613 8.01199 119.613 8.29388 119.598 8.3829C119.554 8.59061 119.45 8.75381 119.45 9.00603C119.45 9.19891 119.465 9.39178 119.465 9.4808L119.598 10.371V12.73C119.583 12.9377 119.48 12.9377 119.109 12.9377C118.916 12.9377 118.99 12.5371 118.664 12.5371C118.589 12.6262 118.56 12.7745 118.56 12.9526C118.56 13.0712 118.574 13.2196 118.604 13.3531C118.649 13.5757 118.782 13.7686 118.856 14.0505C118.916 14.273 118.931 14.5697 118.931 14.7626C118.931 15.3412 118.634 15.638 118.263 15.638C117.922 15.5935 117.58 15.1929 117.58 14.6736C117.58 14.2137 117.714 14.0208 117.744 12.7003C117.744 12.5816 117.729 12.3294 117.655 12.3294C117.625 12.3294 117.58 12.3739 117.536 12.4778C117.447 12.7152 117.299 12.9377 117.15 12.9377C116.987 12.9377 116.824 12.6855 116.75 12.3443C116.661 11.9733 116.646 11.2909 116.542 10.8606C116.483 10.5639 116.468 10.2671 116.408 10.0298C116.334 9.67368 116.23 9.45113 116.23 9.30277C116.23 8.94669 116.319 8.7093 116.527 8.35323V6.42448C116.527 5.56396 116.394 4.82213 116.304 4.03579C116.23 3.26429 116.23 2.43344 116.186 1.6026V1.06848C116.186 0.712404 116.23 0.356327 116.497 0.282145C116.661 0.252472 117.477 0.207962 117.669 0.207962L118.204 0.341491C118.233 0.341491 118.708 0.356327 118.886 0.356327C119.361 0.356327 119.598 0.148616 120.014 0.148616C120.399 0.148616 120.755 0.415674 121.141 0.47502C121.423 0.519529 121.883 0.460184 122.046 0.549203L122.269 0.786587C122.402 0.831097 122.58 0.816261 122.669 0.875607C122.729 0.934952 122.699 1.08332 122.818 1.12783C122.877 1.1575 122.996 1.1575 123.129 1.1575C123.263 1.1575 123.426 1.1575 123.604 1.21685C123.723 1.24652 123.767 1.38005 123.916 1.46907C124.109 1.6026 124.138 1.79547 124.138 2.01802L124.123 2.46312C124.123 2.56697 124.123 2.65599 124.153 2.74501C124.257 3.10109 124.405 3.41266 124.405 3.88743C124.405 4.56991 124.183 5.40075 123.812 5.94971C123.604 6.26127 123.5 6.29095 123.456 6.58768C123.441 6.63219 123.441 6.69153 123.441 6.75088C123.441 6.91408 123.471 7.13663 123.471 7.27016C123.471 7.46303 123.352 7.7746 123.352 8.04166C123.352 8.35323 123.352 8.7093 122.966 8.7093C122.788 8.7093 122.699 8.60545 122.669 8.44225C122.64 8.23453 122.551 8.02682 122.536 7.7746C122.506 7.56689 122.536 7.285 122.269 7.285C122.002 7.285 121.141 7.70042 121.097 8.16035V9.33244C121.097 9.98525 120.785 10.0298 120.577 10.0298ZM119.138 3.67971V4.97049H120.266C120.37 4.97049 120.459 4.79246 120.637 4.6886C120.785 4.62925 121.008 4.67376 121.112 4.55507C121.215 4.45121 121.29 4.30285 121.29 4.21383C121.29 3.88743 120.978 3.65004 120.666 3.65004C120.474 3.65004 120.325 3.79841 120.325 3.97645C120.325 4.00612 120.325 4.03579 120.34 4.0803C120.34 4.21383 120.088 4.3622 119.925 4.3622C119.836 4.3622 119.791 4.33252 119.791 3.87259C119.761 3.59069 119.717 3.26429 119.539 3.26429C119.198 3.26429 119.376 3.56102 119.138 3.67971ZM127.855 12.3294C127.721 12.5965 127.721 12.9822 127.721 13.2345C127.721 14.0653 128.048 14.7775 128.048 15.5935C128.048 15.9495 127.751 16.6172 127.351 16.6172C126.653 16.6172 126.579 15.7567 126.579 15.1484C126.579 14.7626 126.683 14.0505 126.816 13.7686C126.861 13.6795 126.905 13.5312 126.905 13.3235C126.905 13.1454 126.876 12.9229 126.787 12.6113C126.787 12.4778 126.891 12.2997 126.891 12.2107C126.891 11.9585 126.446 11.8398 125.926 11.8398C125.733 11.8398 125.555 11.825 125.481 11.7211C125.437 11.6469 125.348 11.2612 125.348 10.8458C125.348 10.6529 125.362 10.4749 125.407 10.2968C125.437 10.1781 125.57 10.1188 125.57 10.0001C125.555 9.97041 125.466 9.89623 125.407 9.80721C125.362 9.73303 125.348 9.67368 125.348 9.61433C125.348 9.37695 125.6 9.21375 125.6 8.81316C125.6 8.41257 125.451 8.23453 125.407 7.81911C125.348 7.21081 125.407 6.37997 125.333 5.81618C125.244 5.10402 125.17 4.51056 125.17 3.79841C125.17 3.60553 125.199 2.9824 125.199 2.95272L125.318 2.5373L125.303 2.52246C125.259 2.46312 125.14 2.28508 125.14 1.81031C125.14 1.63227 125.155 1.42456 125.199 1.1575C125.214 1.08332 126.178 0.756914 126.668 0.756914H129.902C130.496 0.86077 131 1.12783 131.668 1.3207C131.994 1.40972 132.009 1.42456 132.202 1.64711C132.261 1.70645 132.336 1.79547 132.439 1.91417C132.707 2.18122 133.063 2.50763 133.285 2.71534C133.597 2.99723 133.597 3.1456 133.79 3.72422C133.938 4.12481 134.086 4.55507 134.146 4.6886C134.146 4.73311 134.25 4.91115 134.279 4.95566V6.02389C134.279 6.70637 134.25 7.4482 134.131 8.10101C134.027 8.63512 133.849 9.08022 133.76 9.61433C133.686 10.0891 133.686 10.6232 133.686 11.098C133.686 11.3205 133.775 11.8398 133.775 12.2256C133.745 12.7745 133.463 12.9229 133.285 12.9229C132.974 12.9229 132.707 12.5223 132.677 12.1662C132.632 11.8398 132.573 11.4689 132.558 11.009C132.558 10.8309 132.543 10.6381 132.38 10.6381H132.365C132.291 10.6381 132.143 10.6381 132.039 10.8013C131.965 10.9051 131.92 11.009 131.712 11.009C131.312 11.009 131.46 11.0832 131.342 11.4244C131.253 11.6024 131.045 11.8101 130.926 11.9733C130.793 12.4333 130.718 12.6262 130.6 12.641C130.526 12.6707 130.466 12.6707 130.422 12.6707C130.214 12.6707 130.184 12.463 130.125 12.0327C130.08 11.8101 129.799 11.736 129.65 11.736C129.309 11.736 129.086 11.7508 129.072 11.8992L129.22 12.8042C129.22 13.1899 129.161 13.635 128.79 13.635C128.315 13.635 128.196 13.1751 128.196 12.7152C128.196 12.4481 128.241 12.1959 128.27 12.0327C128.241 12.0179 128.196 12.0179 128.167 12.0179C128.003 12.0179 127.914 12.1811 127.855 12.3294ZM128.448 8.57577V8.56094H129.606C129.606 8.30872 129.977 8.14552 130.214 7.96748C130.6 7.67075 130.941 7.34434 130.941 6.79539C130.941 6.61735 130.778 6.49866 130.54 6.3948C130.303 6.30578 130.273 5.86069 130.273 5.6233C130.273 5.53428 130.392 5.25239 130.392 5.04468C130.392 4.91115 130.348 4.82213 130.199 4.82213C130.199 4.82213 130.184 4.82213 130.184 4.83696C130.184 4.88147 130.273 5.02984 130.288 5.16337C130.288 5.38592 130.006 5.75683 129.769 5.75683C129.472 5.75683 129.339 5.4601 129.279 5.1337C129.235 4.91115 129.22 4.76278 129.161 4.56991C129.086 4.3622 128.953 4.15448 128.73 4.15448C128.626 4.15448 128.478 4.22867 128.448 4.30285V8.57577ZM143.775 15.6973C143.775 15.089 144.264 14.3917 144.264 13.7982C144.264 13.279 144.101 12.8042 143.819 12.2404C143.641 11.8992 143.137 11.4689 142.929 11.1425C142.766 10.8606 142.87 10.5787 142.662 10.3117C142.632 10.2671 142.603 10.2375 142.573 10.2375C142.514 10.2375 142.454 10.3117 142.365 10.4749C142.187 10.7716 142.113 11.1425 141.816 11.1425C141.46 11.1425 141.713 10.3413 141.164 10.3413C140.57 10.3413 140.585 11.0386 140.496 11.5876C140.437 11.8843 140.318 12.0327 140.11 12.2256C139.354 12.2256 140.021 10.2078 138.953 10.2078C138.107 10.2078 138.463 11.6618 138.167 12.092C137.929 12.4333 137.618 12.2997 137.618 12.8932C137.618 13.1454 137.766 13.3235 137.766 13.5609L137.633 14.095C137.633 14.3917 137.766 14.8071 137.766 15.0297C137.766 15.2671 137.454 15.9495 137.232 16.0979C136.816 15.7863 136.624 15.2671 136.564 14.6736C136.564 14.2582 136.906 13.7834 136.906 13.457C136.906 13.3531 136.846 12.5965 136.831 12.4926C136.831 12.0624 136.802 11.8101 136.624 11.8101C136.49 11.8101 136.282 12.7152 135.956 12.7152C135.526 12.7152 135.63 11.4986 135.363 11.1573C135.184 10.9199 135.021 10.6826 135.021 10.3562C135.021 9.5995 135.481 9.12473 135.763 8.48676C136.045 7.84878 136.179 7.09212 136.416 6.43931L136.98 5.31173C137.173 4.74795 137.262 4.10997 137.469 3.56102C137.603 3.21978 137.885 2.95272 138.033 2.61148C138.196 2.25541 138.167 0.519529 139.027 0.282145C139.309 0.207962 139.888 0.178289 140.54 0.178289C141.164 0.178289 141.846 0.207962 142.365 0.267308C142.825 0.326655 143.033 0.994299 143.241 1.40972C143.612 2.28508 143.701 3.21978 144.042 4.0803C145.155 6.85474 146.579 9.88139 146.579 12.8932C146.579 12.9822 146.49 13.7537 146.431 14.006C146.401 14.1543 146.327 14.5104 146.104 14.5104C145.704 14.5104 145.496 13.635 145.496 13.2938C145.496 13.1158 145.733 12.9377 145.778 12.7597C145.778 12.4333 145.674 12.2107 145.303 12.2107C144.962 12.2107 144.962 12.6262 144.962 12.8932C144.962 13.8279 145.377 14.7775 145.377 15.6973C145.377 15.8457 145.348 16.2166 145.199 16.5282C145.021 16.9139 144.695 17.2255 144.472 17.2255C143.834 17.2255 143.775 16.0386 143.775 15.6973ZM140.066 5.86069L139.962 5.96454C139.843 6.27611 139.784 6.49866 139.784 6.69153C139.784 6.85474 139.828 6.98826 139.932 7.13663C139.962 7.18114 139.962 7.19598 140.006 7.19598C140.051 7.19598 140.125 7.1663 140.259 7.10696C140.377 7.06245 140.54 6.94375 140.733 6.94375C140.882 6.94375 141 6.98826 141.119 6.98826C141.208 6.98826 141.297 6.95859 141.371 6.88441C141.282 6.79539 141.238 6.57284 141.178 6.20193C141.149 5.94971 140.956 5.9052 140.897 5.66781C140.808 5.26722 140.852 4.59958 140.629 4.59958C140.407 4.59958 140.229 5.23755 140.066 5.86069ZM152.046 9.06538L152.061 10.9645C151.838 11.2018 151.764 11.5431 151.764 11.8843C151.764 12.1217 151.809 12.3591 151.838 12.5965C151.794 12.7597 151.631 12.908 151.512 12.908C151.126 12.908 151.111 12.092 150.948 12.092C150.711 12.092 150.651 12.641 150.651 13.1751C150.651 13.6944 150.948 14.1246 150.948 14.6291C150.948 15.089 150.637 16.1424 150.162 16.1424C149.628 16.1424 149.583 15.089 149.583 14.8665L150.147 12.2107C150.147 11.9882 150.043 11.8695 149.539 11.7805C149.346 11.7508 149.227 11.6618 149.064 11.5282C148.589 9.08022 148.708 6.43931 148.545 3.9171C148.53 3.82808 148.53 3.76873 148.53 3.70939C148.53 3.60553 148.53 3.53135 148.411 3.36815C148.278 3.57586 148.025 4.74795 147.595 4.74795C147.091 4.62925 147.373 3.6352 146.972 3.6352C146.749 3.6352 146.883 5.10402 146.319 5.10402C146.111 5.10402 145.904 4.8518 145.844 4.61442V3.78357C145.844 3.59069 145.859 3.01207 145.859 2.95272C145.889 2.40377 145.978 1.05365 145.993 1.00914L146.393 0.341491C146.423 0.282145 150.266 0.193126 151.868 0.193126C152.283 0.193126 154.242 0.282145 154.672 0.341491C154.954 0.845933 154.954 1.18717 154.954 1.83998C154.954 2.16639 154.895 2.64116 154.835 2.95272C154.746 3.26429 154.657 3.45717 154.657 3.73906C154.672 4.05063 154.776 4.62925 154.806 4.76278C154.761 4.95566 154.42 4.98533 154.316 4.98533C153.663 4.98533 154.019 4.13965 153.604 3.9171C153.337 3.78357 153.174 3.82808 153.085 3.7539C152.892 3.62037 152.892 3.38298 152.536 3.10109C152.12 3.65004 152.194 4.64409 152.15 5.31173C152.135 5.43043 152.046 6.09807 152.046 9.06538ZM159.376 9.28793V9.33244C159.376 9.51048 159.406 9.5995 159.525 9.74786H159.554C159.732 9.74786 160.222 9.88139 160.504 9.88139L161.364 9.79237C161.453 9.79237 161.528 9.80721 161.587 9.82205C161.706 9.85172 161.735 9.97041 161.795 10.0149C161.824 10.0149 162.091 10.0446 162.18 10.0446C162.7 10.0446 162.818 9.82205 163.323 9.82205C163.367 9.80721 163.412 9.80721 163.441 9.80721C163.679 9.80721 163.753 10.0298 163.798 10.4007C163.842 10.7864 163.857 11.365 163.857 11.6321C163.857 11.9882 163.842 12.4926 163.798 12.9674C163.768 13.2493 163.738 13.5312 163.664 13.7537C163.59 13.9763 163.501 14.1246 163.308 14.1246C163.056 14.1246 163.219 12.9971 162.893 12.9971C162.581 13.4125 162.581 13.7241 162.581 14.184C162.581 14.6291 162.536 15.1484 162.24 15.1484C161.824 15.1484 161.824 14.6884 161.824 14.1988C161.824 13.8427 161.824 13.4867 161.587 13.3828C161.439 13.6944 161.424 14.0505 161.424 14.4362C161.424 15.1039 161.646 15.816 161.646 16.4095C161.646 16.8694 161.29 17.2403 160.934 17.2403C160.637 17.2403 160.341 16.9881 160.222 16.3205C160.222 15.9199 160.459 15.4599 160.563 14.9703C160.623 14.6736 160.726 14.273 160.726 13.9466C160.726 13.6054 160.623 13.3383 160.296 13.3086C160.029 13.5757 160.222 13.8873 159.762 13.8873C159.391 13.8873 159.525 12.8042 159.124 12.7894C158.827 12.7894 158.709 13.2493 158.605 13.6795C158.516 13.9466 158.516 14.2433 158.516 14.6291C158.516 15.1929 158.516 16.3056 157.863 16.3056C157.359 16.3056 157.195 15.3858 157.195 15C157.195 14.8368 157.418 14.006 157.418 13.3977C157.418 13.1751 157.388 13.1158 157.299 13.1158C157.24 13.1158 157.151 13.1454 157.032 13.1454C156.216 13.1454 156.142 12.0475 156.142 11.365C156.142 11.2018 156.201 11.1425 156.201 11.0238C156.201 10.9496 156.127 10.9199 156.127 10.7864C156.127 10.7419 156.275 10.549 156.275 10.5342C156.261 10.2968 156.038 10.3562 156.038 10.1633C156.038 9.98525 156.023 9.73303 155.964 9.56982C155.86 9.3176 155.816 9.24342 155.816 9.19891C155.816 9.12473 155.875 9.09505 155.875 8.78349C155.875 8.7093 155.86 8.62028 155.816 8.50159C155.726 8.24937 155.697 7.9378 155.697 7.64107C155.697 7.21081 155.756 6.79539 155.756 6.58768C155.756 6.51349 155.741 6.29095 155.741 6.02389C155.741 5.89036 155.741 5.74199 155.756 5.59363C155.801 5.22272 155.949 4.88147 155.949 4.43638C155.949 4.02096 155.786 4.09514 155.786 3.472C155.786 3.44233 155.756 3.1456 155.756 3.02691C155.756 2.87854 155.786 2.44828 155.786 2.40377L155.919 2.13671C155.919 2.10704 155.741 2.12188 155.712 1.7658C155.712 1.6026 155.786 1.33554 155.786 0.934952C155.786 0.608549 156.735 0.341491 156.869 0.311818H157.388C158.857 0.311818 159.985 0.163453 161.379 0.163453C161.928 0.163453 164.109 0.163453 164.109 0.682732C164.109 0.771751 164.005 0.875607 163.931 0.934952C163.812 1.61743 163.798 1.86966 163.798 2.9824C163.827 3.23462 163.931 4.27318 163.931 4.4067C163.931 4.58474 163.842 5.07435 163.531 5.07435C162.982 5.07435 163.13 4.6886 162.982 4.34736C162.893 4.12481 162.789 3.96161 162.522 3.96161C161.869 3.96161 162.21 4.70344 161.691 4.70344C161.171 4.70344 161.35 3.97645 160.801 3.97645C160.177 3.97645 160.563 4.82213 159.866 4.82213C159.391 4.82213 159.584 4.2435 159.317 4.2435C159.183 4.2435 159.124 4.59958 159.124 4.74795C159.124 4.83696 159.213 5.11886 159.258 5.20788C159.614 5.23755 160.103 5.26722 160.415 5.35624C160.756 5.44526 160.919 5.6233 161.261 5.6233C161.676 5.6233 161.676 5.41559 162.002 5.41559C162.269 5.41559 162.611 5.53428 162.655 5.84585C162.64 6.02389 162.64 6.17225 162.64 6.32062L162.804 7.96748C162.804 8.51643 162.729 8.57577 161.884 8.57577C161.706 8.57577 161.528 8.69447 161.394 8.69447C161.364 8.69447 161.35 8.69447 161.32 8.67963C161.171 8.59061 161.082 8.39774 160.875 8.39774C160.801 8.39774 160.593 8.35323 160.326 8.35323C160.148 8.35323 159.955 8.36806 159.732 8.44225C159.376 8.60545 159.376 8.96153 159.376 9.28793Z" fill="#FF9C82"/>
</svg>
