<svg width="55" height="48" viewBox="0 0 55 48" fill="none" xmlns="http://www.w3.org/2000/svg">
<g clip-path="url(#clip0_152_215)">
<path d="M39.644 15.7028C40.11 15.0291 40.4569 14.5436 40.794 14.0582C42.3702 11.73 44.115 9.53064 46.0878 7.51949C46.9404 6.64766 47.8524 5.865 48.8437 5.1616C49.5674 4.64643 50.3506 4.24023 51.2131 4.02228C52.4027 3.72506 53.394 4.11144 54.1078 5.10215C54.4944 5.64704 54.7026 6.27119 54.8315 6.92506C55.1686 8.69844 54.9405 10.4421 54.6134 12.1758C54.1276 14.7319 53.2751 17.169 52.2837 19.5665C49.7657 25.6198 46.9404 31.5244 43.5698 37.1616C42.0728 39.6681 40.4768 42.1152 38.5337 44.3145C37.81 45.1467 37.0467 45.9393 36.1743 46.613C35.5597 47.0885 34.9153 47.5145 34.1718 47.7523C32.6154 48.2675 31.2374 47.9802 30.0874 46.7814C29.3935 46.0582 28.8978 45.2062 28.5013 44.2848C27.4405 41.8378 26.925 39.252 26.5781 36.6266C25.8048 30.6427 25.9535 24.6588 26.5186 18.665C26.8656 14.9796 27.4505 11.3535 28.5608 7.8167C29.0763 6.18203 29.7206 4.6068 30.5435 3.11082C30.9995 2.28853 31.515 1.50587 32.2287 0.881719C33.5968 -0.317042 34.955 -0.198157 36.0653 1.24828C36.789 2.17955 37.1954 3.25943 37.5424 4.36903C38.1868 6.4198 38.5337 8.54983 38.8708 10.66C39.079 11.9678 39.2277 13.2755 39.4061 14.5833C39.4458 14.8904 39.5251 15.1876 39.6242 15.7028H39.644Z" fill="#F467E6"/>
<path d="M21.0067 4.87428C21.0067 7.02413 20.6597 9.15416 20.3524 11.2743C19.6981 15.7424 18.915 20.1808 17.6857 24.53C17.2991 25.9071 16.8827 27.2743 16.2978 28.5919C15.9607 29.3449 15.5939 30.0879 15.0784 30.7418C13.7599 32.4062 12.0846 32.7331 10.2506 31.6929C9.62603 31.3362 9.08079 30.8706 8.56529 30.3653C7.49463 29.3151 6.60242 28.1362 5.7796 26.8978C2.9146 22.608 1.25905 17.8625 0.43623 12.8C0.20822 11.4427 0.0694313 10.0755 0.00995045 8.69843C-0.01979 7.86623 -0.00987651 7.03404 0.198307 6.23156C0.644413 4.52753 2.06204 3.88357 3.6482 4.66623C4.08439 4.88419 4.50076 5.1715 4.88738 5.47862C6.79077 6.94487 8.28771 8.75787 9.33854 10.9275C9.50707 11.2743 9.63594 11.6408 9.80447 11.9876C9.87387 12.1263 9.99283 12.2749 10.1217 12.3244C10.3299 12.4037 10.3596 12.1758 10.4092 12.0371C10.6372 11.4229 10.8553 10.7888 11.0932 10.1746C12.3126 7.01422 13.9087 4.08171 16.2086 1.56531C16.6547 1.07986 17.1008 0.594408 17.7055 0.27738C18.8456 -0.317047 19.8865 -1.93454e-05 20.4912 1.1393C20.7985 1.73373 20.977 2.36778 21.0067 3.04147C21.0364 3.6458 21.0067 4.25014 21.0067 4.85447V4.87428Z" fill="#F467E6"/>
</g>
<defs>
<clipPath id="clip0_152_215">
<rect width="55" height="48" fill="white"/>
</clipPath>
</defs>
</svg>
