<svg width="49" height="50" viewBox="0 0 49 50" fill="none" xmlns="http://www.w3.org/2000/svg">
<path d="M48.8781 4.87073C48.8872 5.05225 48.7782 5.34269 48.5786 5.57866C48.2246 6.00524 47.8616 6.43181 47.4804 6.82208C42.543 11.8684 37.5239 16.833 32.4867 21.7885C27.0501 27.1253 21.3231 32.1443 15.7777 37.3721C13.1728 39.8317 10.6678 42.3912 8.10838 44.8871C7.17354 45.8038 6.21148 46.7023 5.24942 47.5918C4.95898 47.8641 4.62317 48.1091 4.27828 48.2997C3.84263 48.5448 3.33437 48.4177 3.04393 48.0637C2.7535 47.7189 2.74442 47.1743 3.02578 46.8022C3.14377 46.6479 3.30714 46.5117 3.45236 46.3756C5.08605 44.8054 6.75605 43.2625 8.35343 41.656C12.5466 37.4266 16.9485 33.424 21.3594 29.4306C28.5477 22.9321 35.4364 16.1341 42.2616 9.26355C43.8227 7.69339 45.3747 6.096 46.9267 4.51676C47.0992 4.33524 47.2807 4.15372 47.4894 4.02666C48.0431 3.69084 48.7964 4.09926 48.8509 4.87073H48.8781Z" fill="#F467E6"/>
<path d="M3.47043 32.6345C2.91679 32.6527 2.42668 32.3441 2.27239 31.9538C2.1181 31.5635 2.19978 31.1006 2.56282 30.8737C5.47624 29.0313 7.91771 26.5989 10.5679 24.4297C18.6456 17.8133 26.5146 10.9427 34.1929 3.86336C35.2639 2.87407 36.3349 1.86663 37.2879 0.759347C37.4512 0.56875 37.6237 0.378152 37.8234 0.223859C38.1864 -0.066575 38.613 -0.0665751 38.9397 0.178479C39.2574 0.423533 39.4207 0.877336 39.2483 1.25853C39.1031 1.57619 38.9125 1.88478 38.6765 2.13891C38.0321 2.84684 37.3605 3.53662 36.6798 4.20825C33.7936 7.03091 30.7622 9.69928 27.758 12.3949C22.4303 17.187 16.9665 21.8158 11.4574 26.3992C9.44249 28.0783 7.44575 29.7755 5.43086 31.4637C5.04059 31.7904 4.63217 32.0899 4.20559 32.3531C3.95146 32.5074 3.65195 32.571 3.47043 32.6436V32.6345Z" fill="#F467E6"/>
<path d="M48.7145 17.1597C48.7145 17.4864 48.5421 17.795 48.297 18.0582C47.7162 18.6845 47.1534 19.338 46.5181 19.9098C43.8951 22.2786 41.2721 24.6475 38.6038 26.9619C32.1961 32.5164 25.9154 38.2162 19.7709 44.0612C18.7453 45.0323 17.6925 45.9762 16.6488 46.9292C16.313 47.2378 15.9681 47.5282 15.5324 47.6916C15.1331 47.8368 14.6974 47.7279 14.4342 47.4193C14.171 47.1107 14.1347 46.6569 14.3888 46.2939C14.5613 46.0488 14.77 45.831 14.9969 45.6313C20.9599 40.2583 26.696 34.6311 32.7679 29.3852C36.6252 26.0543 40.4462 22.678 44.2672 19.3017C45.1385 18.5302 45.9372 17.6861 46.7722 16.8784C46.9901 16.6696 47.1988 16.4336 47.462 16.2975C48.052 15.9889 48.7599 16.4518 48.7327 17.1597H48.7145Z" fill="#F467E6"/>
<path d="M48.3155 28.5413C48.2248 28.741 48.1703 29.0042 48.0251 29.1857C47.7437 29.5397 47.4261 29.8573 47.0903 30.175C40.9367 35.9837 34.5653 41.5564 28.2393 47.1835C27.9035 47.483 27.5495 47.7735 27.1592 48.0095C26.6691 48.2999 26.1336 48.1547 25.825 47.719C25.5618 47.3378 25.5981 46.8931 25.9612 46.4756C26.1246 46.285 26.3242 46.1307 26.5148 45.9673C33.1676 40.1042 39.8566 34.2864 46.3097 28.2055C46.4913 28.033 46.6728 27.8515 46.8724 27.7063C47.1357 27.5248 47.4442 27.4975 47.7347 27.6518C48.0705 27.8333 48.2248 28.1329 48.3065 28.5504L48.3155 28.5413Z" fill="#F467E6"/>
<path d="M3.80583 21.4256C3.05251 21.3802 2.60778 20.636 2.9073 20.0823C3.02528 19.8645 3.20681 19.683 3.3974 19.5196C6.62848 16.8512 9.68712 13.9832 12.7821 11.1605C16.1765 8.0656 19.5619 4.96158 22.9563 1.85757C23.1015 1.72142 23.2558 1.58528 23.4283 1.47637C23.7913 1.24947 24.2633 1.29485 24.5537 1.54898C24.8351 1.79403 24.9077 2.27507 24.7352 2.67441C24.5446 3.10099 24.1907 3.39142 23.8549 3.70908C22.3482 5.12495 20.8507 6.55897 19.3168 7.95669C15.7772 11.1968 12.2284 14.4188 8.6706 17.6409C7.62685 18.5938 6.56495 19.5287 5.50305 20.4544C5.15816 20.7539 4.78604 21.0081 4.39577 21.235C4.18702 21.362 3.92381 21.3893 3.80583 21.4346V21.4256Z" fill="#F467E6"/>
<path d="M0.711169 12.0863C0.175681 12.0591 -0.21459 11.3239 0.130301 10.7612C0.230138 10.5978 0.375355 10.4435 0.529648 10.3165C4.13285 7.23968 7.73605 4.16289 11.3392 1.0861C11.6115 0.859202 11.8929 0.650452 12.1742 0.441703C12.383 0.287409 12.619 0.223877 12.8822 0.223877C13.5447 0.223877 14.0076 0.940886 13.6718 1.49453C13.4994 1.78496 13.2361 2.04817 12.9729 2.27507C9.66018 5.15218 6.34741 8.02022 3.01649 10.8792C2.59899 11.2422 2.13611 11.5508 1.68231 11.8685C1.42818 12.0409 1.13774 12.1226 0.702093 12.0863H0.711169Z" fill="#F467E6"/>
<path d="M36.126 49.1168C35.6994 49.0986 35.3908 48.9625 35.2365 48.5904C35.0822 48.2273 35.1639 47.9006 35.3999 47.6102C35.4906 47.4922 35.6177 47.4014 35.7357 47.3107C38.994 45.1052 41.8802 42.4368 44.9025 39.9409C45.2111 39.6868 45.5197 39.4145 45.8555 39.2057C46.2549 38.9516 46.6724 39.0151 46.9628 39.3056C47.2804 39.6232 47.3349 40.1496 47.0445 40.549C46.8357 40.8303 46.5816 41.0754 46.3184 41.3114C43.5865 43.6893 40.8274 46.0309 37.9593 48.2455C37.4057 48.6721 36.8339 49.0986 36.126 49.1168Z" fill="#F467E6"/>
</svg>
