<svg width="54" height="55" viewBox="0 0 54 55" fill="none" xmlns="http://www.w3.org/2000/svg">
<path d="M53.8536 5.36666C53.8636 5.56666 53.7436 5.88666 53.5236 6.14666C53.1336 6.61666 52.7336 7.08666 52.3136 7.51666C46.8736 13.0767 41.3436 18.5467 35.7936 24.0067C29.8036 29.8867 23.4936 35.4167 17.3836 41.1767C14.5136 43.8867 11.7536 46.7067 8.93356 49.4567C7.90356 50.4667 6.84356 51.4567 5.78356 52.4367C5.46356 52.7367 5.09356 53.0067 4.71356 53.2167C4.23356 53.4867 3.67356 53.3467 3.35356 52.9567C3.03356 52.5767 3.02356 51.9767 3.33356 51.5667C3.46356 51.3967 3.64356 51.2467 3.80356 51.0967C5.60356 49.3667 7.44356 47.6667 9.20356 45.8967C13.8236 41.2367 18.6736 36.8267 23.5336 32.4267C31.4536 25.2667 39.0436 17.7767 46.5636 10.2067C48.2836 8.47666 49.9936 6.71666 51.7036 4.97666C51.8936 4.77666 52.0936 4.57666 52.3236 4.43666C52.9336 4.06666 53.7636 4.51666 53.8236 5.36666H53.8536Z" fill="#F467E6"/>
<path d="M3.82357 35.9566C3.21357 35.9766 2.67357 35.6366 2.50357 35.2066C2.33357 34.7766 2.42357 34.2666 2.82357 34.0166C6.03357 31.9866 8.72357 29.3066 11.6436 26.9166C20.5436 19.6266 29.2136 12.0566 37.6736 4.25665C38.8536 3.16665 40.0336 2.05665 41.0836 0.836648C41.2636 0.626648 41.4536 0.416648 41.6736 0.246648C42.0736 -0.0733523 42.5436 -0.0733523 42.9036 0.196648C43.2536 0.466648 43.4336 0.966648 43.2436 1.38665C43.0836 1.73665 42.8736 2.07665 42.6136 2.35665C41.9036 3.13665 41.1636 3.89665 40.4136 4.63665C37.2336 7.74665 33.8936 10.6866 30.5836 13.6566C24.7136 18.9366 18.6936 24.0366 12.6236 29.0866C10.4036 30.9366 8.20357 32.8066 5.98357 34.6666C5.55357 35.0266 5.10357 35.3566 4.63357 35.6466C4.35357 35.8166 4.02357 35.8866 3.82357 35.9666V35.9566Z" fill="#F467E6"/>
<path d="M53.6737 18.9066C53.6737 19.2666 53.4837 19.6066 53.2137 19.8966C52.5737 20.5866 51.9537 21.3066 51.2537 21.9366C48.3637 24.5466 45.4737 27.1566 42.5337 29.7066C35.4737 35.8266 28.5537 42.1066 21.7837 48.5466C20.6537 49.6166 19.4937 50.6566 18.3437 51.7066C17.9737 52.0466 17.5937 52.3666 17.1137 52.5466C16.6737 52.7066 16.1937 52.5866 15.9037 52.2466C15.6137 51.9066 15.5737 51.4066 15.8537 51.0066C16.0437 50.7366 16.2737 50.4966 16.5237 50.2766C23.0937 44.3566 29.4137 38.1566 36.1037 32.3766C40.3537 28.7066 44.5637 24.9866 48.7737 21.2666C49.7337 20.4166 50.6137 19.4866 51.5337 18.5966C51.7737 18.3666 52.0037 18.1066 52.2937 17.9566C52.9437 17.6166 53.7237 18.1266 53.6937 18.9066H53.6737Z" fill="#F467E6"/>
<path d="M53.2336 31.4466C53.1336 31.6666 53.0736 31.9566 52.9136 32.1566C52.6036 32.5466 52.2536 32.8966 51.8836 33.2466C45.1036 39.6466 38.0836 45.7866 31.1136 51.9866C30.7436 52.3166 30.3536 52.6366 29.9236 52.8966C29.3836 53.2166 28.7936 53.0566 28.4536 52.5766C28.1636 52.1566 28.2036 51.6666 28.6036 51.2066C28.7836 50.9966 29.0036 50.8266 29.2136 50.6466C36.5436 44.1866 43.9136 37.7766 51.0236 31.0766C51.2236 30.8866 51.4236 30.6866 51.6436 30.5266C51.9336 30.3266 52.2736 30.2966 52.5936 30.4666C52.9636 30.6666 53.1336 30.9966 53.2236 31.4566L53.2336 31.4466Z" fill="#F467E6"/>
<path d="M4.19352 23.6066C3.36352 23.5566 2.87352 22.7366 3.20352 22.1266C3.33352 21.8866 3.53352 21.6866 3.74352 21.5066C7.30352 18.5666 10.6735 15.4066 14.0835 12.2966C17.8235 8.88663 21.5535 5.46663 25.2935 2.04663C25.4535 1.89663 25.6235 1.74663 25.8135 1.62663C26.2135 1.37663 26.7335 1.42663 27.0535 1.70663C27.3635 1.97663 27.4435 2.50663 27.2535 2.94663C27.0435 3.41663 26.6535 3.73663 26.2835 4.08663C24.6235 5.64663 22.9735 7.22663 21.2835 8.76663C17.3835 12.3366 13.4735 15.8866 9.55352 19.4366C8.40352 20.4866 7.23352 21.5166 6.06352 22.5366C5.68352 22.8666 5.27352 23.1466 4.84352 23.3966C4.61352 23.5366 4.32352 23.5666 4.19352 23.6166V23.6066Z" fill="#F467E6"/>
<path d="M0.783565 13.3166C0.193565 13.2866 -0.236435 12.4766 0.143565 11.8566C0.253565 11.6766 0.413565 11.5066 0.583565 11.3666C4.55357 7.97664 8.52357 4.58664 12.4936 1.19664C12.7936 0.946643 13.1036 0.716643 13.4136 0.486643C13.6436 0.316643 13.9036 0.246643 14.1936 0.246643C14.9236 0.246643 15.4336 1.03664 15.0636 1.64664C14.8736 1.96664 14.5836 2.25664 14.2936 2.50664C10.6436 5.67664 6.99357 8.83664 3.32357 11.9866C2.86356 12.3866 2.35357 12.7266 1.85357 13.0766C1.57357 13.2666 1.25357 13.3566 0.773565 13.3166H0.783565Z" fill="#F467E6"/>
<path d="M39.8036 54.1166C39.3336 54.0966 38.9936 53.9466 38.8236 53.5366C38.6536 53.1366 38.7436 52.7766 39.0036 52.4566C39.1036 52.3266 39.2436 52.2266 39.3736 52.1266C42.9636 49.6966 46.1436 46.7566 49.4736 44.0066C49.8136 43.7266 50.1536 43.4266 50.5236 43.1966C50.9636 42.9166 51.4236 42.9866 51.7436 43.3066C52.0936 43.6566 52.1536 44.2366 51.8336 44.6766C51.6036 44.9866 51.3236 45.2566 51.0336 45.5166C48.0236 48.1366 44.9836 50.7166 41.8236 53.1566C41.2136 53.6266 40.5836 54.0966 39.8036 54.1166Z" fill="#F467E6"/>
</svg>
