<svg width="39" height="147" viewBox="0 0 39 147" fill="none" xmlns="http://www.w3.org/2000/svg">
<path d="M12.8149 146.376L6.89208 129.879C11.3857 128.331 15.8932 126.501 18.5179 123.622C20.8815 121.011 20.8953 116.463 18.5316 113.893C17.2536 112.493 15.5633 111.067 13.7631 109.56C8.56861 105.2 2.10983 99.7639 0.584454 90.3984C-0.899693 81.3155 3.04429 71.9366 10.6299 66.5138C11.317 66.0159 12.0316 65.5315 12.7462 65.047C15.1923 63.3785 17.5147 61.7907 17.9132 60.3778C18.6278 57.8749 18.5866 57.1886 13.1035 52.3848C10.7124 50.2991 8.00519 47.9308 5.724 44.8628C1.17536 38.7537 -0.666077 31.4739 0.556969 24.3422C1.75253 17.3181 5.82019 11.1282 12.0041 6.88955C16.8688 3.56588 22.2008 1.66856 26.9006 0L32.9883 16.4434C28.9619 17.8698 25.1691 19.2154 22.2283 21.2338C19.9746 22.7678 18.5729 24.8401 18.1743 27.2218C17.7621 29.6574 18.4629 32.2544 20.1532 34.5285C21.3213 36.1029 23.1078 37.6638 25.0042 39.3054C30.5697 44.1631 38.9799 51.5236 35.1321 65.0336C33.0158 72.5018 27.2166 76.4713 22.9841 79.3644C22.3794 79.7815 21.7748 80.1852 21.1839 80.6158C19.0538 82.1364 17.817 85.0833 18.2293 87.6265C18.6965 90.5061 21.2526 92.7936 25.4027 96.2653C27.5465 98.0685 29.7727 99.9389 31.8477 102.199C40.2991 111.43 40.2991 125.936 31.8615 135.221C26.5433 141.074 19.5623 144.035 12.8149 146.363V146.376Z" fill="#3534FF"/>
</svg>
