<svg width="43" height="168" viewBox="0 0 43 168" fill="none" xmlns="http://www.w3.org/2000/svg">
<g clip-path="url(#clip0_150_161)">
<path d="M14.292 168L7.58927 149.064C12.6746 147.288 17.7755 145.187 20.7459 141.882C23.4207 138.885 23.4363 133.665 20.7614 130.715C19.3151 129.108 17.4023 127.471 15.365 125.741C9.48655 120.737 2.17733 114.497 0.45111 103.747C-1.22846 93.3213 3.23483 82.5558 11.8193 76.3313C12.5969 75.7598 13.4055 75.2038 14.2142 74.6477C16.9824 72.7325 19.6106 70.9099 20.0616 69.2882C20.8703 66.4153 20.8236 65.6276 14.6186 60.1136C11.9126 57.7195 8.84894 55.0011 6.26739 51.4796C1.11983 44.4674 -0.96408 36.1114 0.420007 27.9253C1.77299 19.8628 6.37625 12.7579 13.3744 7.89256C18.8797 4.07754 24.9137 1.89973 30.2323 -0.0155029L37.1216 18.8588C32.565 20.496 28.2728 22.0406 24.9448 24.3574C22.3943 26.1182 20.8081 28.4968 20.3571 31.2306C19.8905 34.0262 20.6837 37.0072 22.5965 39.6175C23.9184 41.4246 25.9401 43.2163 28.0862 45.1006C34.3846 50.6764 43.9021 59.1251 39.5477 74.6323C37.1527 83.2045 30.59 87.7609 25.8001 91.0817C25.1158 91.5605 24.4316 92.0238 23.7629 92.5181C21.3524 94.2634 19.9527 97.646 20.4193 100.565C20.948 103.87 23.8406 106.496 28.5372 110.481C30.9632 112.551 33.4826 114.698 35.8309 117.293C45.3951 127.888 45.3951 144.538 35.8464 155.196C29.828 161.914 21.9278 165.312 14.292 167.984V168Z" fill="#F467E6"/>
</g>
<defs>
<clipPath id="clip0_150_161">
<rect width="43" height="168" fill="white"/>
</clipPath>
</defs>
</svg>
