<svg width="109" height="28" viewBox="0 0 109 28" fill="none" xmlns="http://www.w3.org/2000/svg">
<path d="M108.78 18.4638L96.52 22.7738C95.37 19.5038 94.01 16.2238 91.87 14.3138C89.93 12.5938 86.55 12.5838 84.64 14.3038C83.6 15.2338 82.54 16.4638 81.42 17.7738C78.18 21.5538 74.14 26.2538 67.18 27.3638C60.43 28.4438 53.46 25.5738 49.43 20.0538C49.06 19.5538 48.7 19.0338 48.34 18.5138C47.1 16.7338 45.92 15.0438 44.87 14.7538C43.01 14.2338 42.5 14.2638 38.93 18.2538C37.38 19.9938 35.62 21.9638 33.34 23.6238C28.8 26.9338 23.39 28.2738 18.09 27.3838C12.87 26.5138 8.27 23.5538 5.12 19.0538C2.65 15.5138 1.24 11.6338 -8.49684e-07 8.21384L12.22 3.78384C13.28 6.71384 14.28 9.47384 15.78 11.6138C16.92 13.2538 18.46 14.2738 20.23 14.5638C22.04 14.8638 23.97 14.3538 25.66 13.1238C26.83 12.2738 27.99 10.9738 29.21 9.59384C32.82 5.54384 38.29 -0.576162 48.33 2.22384C53.88 3.76384 56.83 7.98384 58.98 11.0638C59.29 11.5038 59.59 11.9438 59.91 12.3738C61.04 13.9238 63.23 14.8238 65.12 14.5238C67.26 14.1838 68.96 12.3238 71.54 9.30384C72.88 7.74384 74.27 6.12384 75.95 4.61383C82.81 -1.53617 93.59 -1.53616 100.49 4.60384C104.84 8.47383 107.04 13.5538 108.77 18.4638L108.78 18.4638Z" fill="#F467E6"/>
</svg>
